<?xml version="1.0" encoding="utf-8" standalone="no"?>
<!DOCTYPE svg PUBLIC "-//W3C//DTD SVG 1.1//EN"
  "http://www.w3.org/Graphics/SVG/1.1/DTD/svg11.dtd">
<!-- Created with matplotlib (https://matplotlib.org/) -->
<svg height="360pt" version="1.1" viewBox="0 0 360 360" width="360pt" xmlns="http://www.w3.org/2000/svg" xmlns:xlink="http://www.w3.org/1999/xlink">
 <metadata>
  <rdf:RDF xmlns:cc="http://creativecommons.org/ns#" xmlns:dc="http://purl.org/dc/elements/1.1/" xmlns:rdf="http://www.w3.org/1999/02/22-rdf-syntax-ns#">
   <cc:Work>
    <dc:type rdf:resource="http://purl.org/dc/dcmitype/StillImage"/>
    <dc:date>2022-02-13T19:29:11.715937</dc:date>
    <dc:format>image/svg+xml</dc:format>
    <dc:creator>
     <cc:Agent>
      <dc:title>Matplotlib v3.3.4, https://matplotlib.org/</dc:title>
     </cc:Agent>
    </dc:creator>
   </cc:Work>
  </rdf:RDF>
 </metadata>
 <defs>
  <style type="text/css">*{stroke-linecap:butt;stroke-linejoin:round;}</style>
 </defs>
 <g id="figure_1">
  <g id="patch_1">
   <path d="M 0 360 
L 360 360 
L 360 0 
L 0 0 
z
" style="fill:none;"/>
  </g>
  <g id="axes_1">
   <g id="patch_2">
    <path d="M 53.925 301.5 
L 347.068451 301.5 
L 347.068451 10.8 
L 53.925 10.8 
z
" style="fill:#ffffff;"/>
   </g>
   <g id="PolyCollection_1">
    <path clip-path="url(#p50b7f52908)" d="M -16.270652 288.286263 
L -16.270652 288.286364 
L -14.866739 288.286349 
L -13.462826 288.286334 
L -12.058913 288.286318 
L -10.655 288.286302 
L -9.251087 288.286284 
L -7.847174 288.286266 
L -6.443261 288.286247 
L -5.039348 288.286227 
L -3.635435 288.286207 
L -2.231522 288.286185 
L -0.827609 288.286162 
L 0.576304 288.286138 
L 1.980217 288.286113 
L 3.38413 288.286087 
L 4.788043 288.286059 
L 6.191956 288.28603 
L 7.595869 288.286 
L 8.999782 288.285969 
L 10.403695 288.285936 
L 11.807609 288.285901 
L 13.211522 288.285865 
L 14.615435 288.285827 
L 16.019348 288.285787 
L 17.423261 288.285746 
L 18.827174 288.285702 
L 20.231087 288.285657 
L 21.635 288.285609 
L 23.038913 288.285559 
L 24.442826 288.285506 
L 25.846739 288.285452 
L 27.250652 288.285394 
L 28.654565 288.285334 
L 30.058478 288.285271 
L 31.462391 288.285205 
L 32.866304 288.285136 
L 34.270217 288.285064 
L 35.67413 288.284988 
L 37.078043 288.284909 
L 38.481956 288.284826 
L 39.88587 288.284739 
L 41.289783 288.284648 
L 42.693696 288.284553 
L 44.097609 288.284453 
L 45.501522 288.284349 
L 46.905435 288.28424 
L 48.309348 288.284125 
L 49.713261 288.284005 
L 51.117174 288.28388 
L 52.521087 288.283748 
L 53.925 288.283611 
L 55.328913 288.283466 
L 56.732826 288.283315 
L 58.136739 288.283157 
L 59.540652 288.282992 
L 60.944565 288.282819 
L 62.348478 288.282637 
L 63.752391 288.282447 
L 65.156304 288.282248 
L 66.560217 288.28204 
L 67.96413 288.281822 
L 69.368044 288.281593 
L 70.771957 288.281354 
L 72.17587 288.281103 
L 73.579783 288.280841 
L 74.983696 288.280567 
L 76.387609 288.280279 
L 77.791522 288.279978 
L 79.195435 288.279663 
L 80.599348 288.279332 
L 82.003261 288.278987 
L 83.407174 288.278625 
L 84.811087 288.278246 
L 86.215 288.277849 
L 87.618913 288.277433 
L 89.022826 288.276998 
L 90.426739 288.276543 
L 91.830652 288.276065 
L 93.234565 288.275566 
L 94.638478 288.275043 
L 96.042391 288.274495 
L 97.446305 288.273922 
L 98.850218 288.273321 
L 100.254131 288.272692 
L 101.658044 288.272034 
L 103.061957 288.271345 
L 104.46587 288.270623 
L 105.869783 288.269867 
L 107.273696 288.269075 
L 108.677609 288.268247 
L 110.081522 288.267379 
L 111.485435 288.266471 
L 112.889348 288.265519 
L 114.293261 288.264523 
L 115.697174 288.263481 
L 117.101087 288.262389 
L 118.505 288.261245 
L 119.908913 288.260048 
L 121.312826 288.258795 
L 122.716739 288.257482 
L 124.120652 288.256108 
L 125.524566 288.25467 
L 126.928479 288.253163 
L 128.332392 288.251586 
L 129.736305 288.249935 
L 131.140218 288.248206 
L 132.544131 288.246396 
L 133.948044 288.244501 
L 135.351957 288.242516 
L 136.75587 288.240439 
L 138.159783 288.238264 
L 139.563696 288.235986 
L 140.967609 288.233602 
L 142.371522 288.231106 
L 143.775435 288.228493 
L 145.179348 288.225757 
L 146.583261 288.222893 
L 147.987174 288.219894 
L 149.391087 288.216755 
L 150.795 288.213468 
L 152.198913 288.210027 
L 153.602827 288.206426 
L 155.00674 288.202655 
L 156.410653 288.198708 
L 157.814566 288.194576 
L 159.218479 288.19025 
L 160.622392 288.185722 
L 162.026305 288.180982 
L 163.430218 288.17602 
L 164.834131 288.170827 
L 166.238044 288.165391 
L 167.641957 288.1597 
L 169.04587 288.153744 
L 170.449783 288.14751 
L 171.853696 288.140985 
L 173.257609 288.134156 
L 174.661522 288.127009 
L 176.065435 288.119528 
L 177.469348 288.111699 
L 178.873261 288.103506 
L 180.277174 288.094932 
L 181.681088 288.085959 
L 183.085001 288.07657 
L 184.488914 288.066744 
L 185.892827 288.056463 
L 187.29674 288.045705 
L 188.700653 288.034449 
L 190.104566 288.022673 
L 191.508479 288.010351 
L 192.912392 287.997461 
L 194.316305 287.983976 
L 195.720218 287.969868 
L 197.124131 287.95511 
L 198.528044 287.939673 
L 199.931957 287.923527 
L 201.33587 287.906639 
L 202.739783 287.888977 
L 204.143696 287.870506 
L 205.547609 287.85119 
L 206.951522 287.830993 
L 208.355435 287.809874 
L 209.759348 287.787794 
L 211.163262 287.76471 
L 212.567175 287.740579 
L 213.971088 287.715355 
L 215.375001 287.688991 
L 216.778914 287.661437 
L 218.182827 287.632642 
L 219.58674 287.602553 
L 220.990653 287.571116 
L 222.394566 287.538272 
L 223.798479 287.503963 
L 225.202392 287.468127 
L 226.606305 287.430701 
L 228.010218 287.391619 
L 229.414131 287.350812 
L 230.818044 287.30821 
L 232.221957 287.263741 
L 233.62587 287.217328 
L 235.029783 287.168894 
L 236.433696 287.11836 
L 237.837609 287.065642 
L 239.241523 287.010655 
L 240.645436 286.953313 
L 242.049349 286.893524 
L 243.453262 286.831197 
L 244.857175 286.766237 
L 246.261088 286.698546 
L 247.665001 286.628026 
L 249.068914 286.554575 
L 250.472827 286.478088 
L 251.87674 286.398461 
L 253.280653 286.315584 
L 254.684566 286.229349 
L 256.088479 286.139645 
L 257.492392 286.046358 
L 258.896305 285.949374 
L 260.300218 285.848579 
L 261.704131 285.743856 
L 263.108044 285.63509 
L 264.511957 285.522163 
L 265.91587 285.404959 
L 267.319784 285.283361 
L 268.723697 285.157254 
L 270.12761 285.026324 
L 271.531523 284.890518 
L 272.935436 284.749825 
L 274.339349 284.604134 
L 275.743262 284.453337 
L 277.147175 284.297329 
L 278.551088 284.136009 
L 279.955001 283.969281 
L 281.358914 283.797608 
L 282.762827 283.624622 
L 284.16674 283.442365 
L 285.570653 283.254484 
L 286.974566 283.060475 
L 288.378479 282.8607 
L 289.782392 282.655118 
L 291.186305 282.4437 
L 292.590218 282.234578 
L 293.994131 282.009408 
L 295.398045 281.789119 
L 296.801958 281.569403 
L 298.205871 281.361062 
L 299.609784 281.117869 
L 301.013697 280.900586 
L 302.41761 280.643347 
L 303.821523 280.380384 
L 305.225436 280.111792 
L 306.629349 279.837681 
L 308.033262 279.558179 
L 309.437175 279.273432 
L 310.841088 278.989079 
L 312.245001 278.700161 
L 313.648914 278.40103 
L 315.052827 278.131878 
L 316.45674 277.825899 
L 317.860653 277.515625 
L 319.264566 277.201632 
L 320.668479 276.884193 
L 322.072392 276.563592 
L 323.476305 276.240126 
L 324.880219 275.914104 
L 326.284132 275.585846 
L 327.688045 275.255916 
L 329.091958 274.929321 
L 330.495871 274.597416 
L 331.899784 274.277897 
L 333.303697 273.956449 
L 334.70761 273.631784 
L 336.111523 273.32553 
L 337.515436 273.015028 
L 338.919349 272.704939 
L 340.323262 272.401874 
L 341.727175 272.123902 
L 343.131088 271.849903 
L 344.535001 271.581497 
L 345.938914 271.317172 
L 347.342827 271.053854 
L 348.74674 270.795454 
L 350.150653 270.54378 
L 351.554566 270.296575 
L 352.95848 270.053975 
L 354.362393 269.816103 
L 355.766306 269.579249 
L 357.170219 269.347132 
L 358.574132 269.110871 
L 359.978045 268.902874 
L 361.381958 268.689363 
L 362.785871 268.490501 
L 364.189784 268.310771 
L 365.593697 268.124772 
L 366.99761 267.943475 
L 368.401523 267.767266 
L 369.805436 267.596115 
L 371.209349 267.429979 
L 372.613262 267.267044 
L 374.017175 267.097231 
L 375.421088 266.934048 
L 376.825001 266.800683 
L 378.228914 266.672074 
L 379.632827 266.548316 
L 381.036741 266.428798 
L 382.440654 266.313426 
L 383.844567 266.202104 
L 385.24848 266.094734 
L 386.652393 265.991217 
L 388.056306 265.89185 
L 389.460219 265.797589 
L 390.864132 265.706826 
L 392.268045 265.619462 
L 393.671958 265.535397 
L 395.075871 265.454531 
L 396.479784 265.376564 
L 397.883697 265.301528 
L 399.28761 265.229408 
L 400.691523 265.160111 
L 402.095436 265.089531 
L 403.499349 265.021395 
L 404.903262 264.955951 
L 404.903262 257.917604 
L 404.903262 257.917604 
L 403.499349 258.045832 
L 402.095436 258.178947 
L 400.691523 258.317086 
L 399.28761 258.460383 
L 397.883697 258.608971 
L 396.479784 258.762984 
L 395.075871 258.92255 
L 393.671958 259.087799 
L 392.268045 259.258853 
L 390.864132 259.435834 
L 389.460219 259.618857 
L 388.056306 259.808033 
L 386.652393 260.003466 
L 385.24848 260.205256 
L 383.844567 260.413492 
L 382.440654 260.628257 
L 381.036741 260.849624 
L 379.632827 261.062666 
L 378.228914 261.279714 
L 376.825001 261.503312 
L 375.421088 261.733513 
L 374.017175 261.97036 
L 372.613262 262.213882 
L 371.209349 262.464096 
L 369.805436 262.721006 
L 368.401523 262.9846 
L 366.99761 263.254854 
L 365.593697 263.531724 
L 364.189784 263.815153 
L 362.785871 264.105066 
L 361.381958 264.402843 
L 359.978045 264.723465 
L 358.574132 265.030149 
L 357.170219 265.353974 
L 355.766306 265.683677 
L 354.362393 266.020397 
L 352.95848 266.362398 
L 351.554566 266.709706 
L 350.150653 267.072958 
L 348.74674 267.440749 
L 347.342827 267.809134 
L 345.938914 268.181116 
L 344.535001 268.552262 
L 343.131088 268.8894 
L 341.727175 269.251164 
L 340.323262 269.627328 
L 338.919349 270.008876 
L 337.515436 270.385002 
L 336.111523 270.737272 
L 334.70761 271.076231 
L 333.303697 271.425649 
L 331.899784 271.79501 
L 330.495871 272.165294 
L 329.091958 272.535617 
L 327.688045 272.905585 
L 326.284132 273.274809 
L 324.880219 273.624032 
L 323.476305 273.990453 
L 322.072392 274.358904 
L 320.668479 274.732148 
L 319.264566 275.09098 
L 317.860653 275.4393 
L 316.45674 275.792738 
L 315.052827 276.132234 
L 313.648914 276.462355 
L 312.245001 276.79764 
L 310.841088 277.138646 
L 309.437175 277.461779 
L 308.033262 277.783244 
L 306.629349 278.093737 
L 305.225436 278.412057 
L 303.821523 278.710641 
L 302.41761 279.001252 
L 301.013697 279.289366 
L 299.609784 279.57373 
L 298.205871 279.856721 
L 296.801958 280.140227 
L 295.398045 280.41735 
L 293.994131 280.679549 
L 292.590218 280.920609 
L 291.186305 281.156268 
L 289.782392 281.387727 
L 288.378479 281.614334 
L 286.974566 281.836211 
L 285.570653 282.059093 
L 284.16674 282.278069 
L 282.762827 282.472574 
L 281.358914 282.674785 
L 279.955001 282.87638 
L 278.551088 283.075487 
L 277.147175 283.268852 
L 275.743262 283.456524 
L 274.339349 283.638561 
L 272.935436 283.813849 
L 271.531523 283.978447 
L 270.12761 284.138311 
L 268.723697 284.293468 
L 267.319784 284.443966 
L 265.91587 284.59139 
L 264.511957 284.737241 
L 263.108044 284.878217 
L 261.704131 285.014438 
L 260.300218 285.145878 
L 258.896305 285.272651 
L 257.492392 285.394876 
L 256.088479 285.512668 
L 254.684566 285.626148 
L 253.280653 285.735433 
L 251.87674 285.840643 
L 250.472827 285.941895 
L 249.068914 286.038457 
L 247.665001 286.131035 
L 246.261088 286.220142 
L 244.857175 286.30588 
L 243.453262 286.388351 
L 242.049349 286.468258 
L 240.645436 286.545196 
L 239.241523 286.619079 
L 237.837609 286.689671 
L 236.433696 286.757109 
L 235.029783 286.821879 
L 233.62587 286.884073 
L 232.221957 286.943777 
L 230.818044 287.00108 
L 229.414131 287.056069 
L 228.010218 287.108842 
L 226.606305 287.159459 
L 225.202392 287.207999 
L 223.798479 287.254751 
L 222.394566 287.299644 
L 220.990653 287.342649 
L 219.58674 287.383839 
L 218.182827 287.423286 
L 216.778914 287.461059 
L 215.375001 287.497225 
L 213.971088 287.531849 
L 212.567175 287.564992 
L 211.163262 287.596714 
L 209.759348 287.627074 
L 208.355435 287.656128 
L 206.951522 287.683928 
L 205.547609 287.710527 
L 204.143696 287.735975 
L 202.739783 287.760319 
L 201.33587 287.783605 
L 199.931957 287.805878 
L 198.528044 287.827181 
L 197.124131 287.847554 
L 195.720218 287.867037 
L 194.316305 287.885667 
L 192.912392 287.903481 
L 191.508479 287.920514 
L 190.104566 287.936799 
L 188.700653 287.952367 
L 187.29674 287.967251 
L 185.892827 287.981479 
L 184.488914 287.995079 
L 183.085001 288.008079 
L 181.681088 288.020505 
L 180.277174 288.032381 
L 178.873261 288.043732 
L 177.469348 288.05458 
L 176.065435 288.064947 
L 174.661522 288.074855 
L 173.257609 288.084323 
L 171.853696 288.09337 
L 170.449783 288.102016 
L 169.04587 288.110277 
L 167.641957 288.118171 
L 166.238044 288.125713 
L 164.834131 288.13292 
L 163.430218 288.139805 
L 162.026305 288.146384 
L 160.622392 288.152669 
L 159.218479 288.158674 
L 157.814566 288.164411 
L 156.410653 288.169892 
L 155.00674 288.175128 
L 153.602827 288.18013 
L 152.198913 288.184908 
L 150.795 288.189473 
L 149.391087 288.193834 
L 147.987174 288.198 
L 146.583261 288.201979 
L 145.179348 288.205781 
L 143.775435 288.209412 
L 142.371522 288.21288 
L 140.967609 288.216193 
L 139.563696 288.219358 
L 138.159783 288.222381 
L 136.75587 288.225268 
L 135.351957 288.228026 
L 133.948044 288.230661 
L 132.544131 288.233177 
L 131.140218 288.23558 
L 129.736305 288.237876 
L 128.332392 288.240069 
L 126.928479 288.242163 
L 125.524566 288.244163 
L 124.120652 288.246074 
L 122.716739 288.247898 
L 121.312826 288.249641 
L 119.908913 288.251306 
L 118.505 288.252896 
L 117.101087 288.254414 
L 115.697174 288.255864 
L 114.293261 288.257249 
L 112.889348 288.258572 
L 111.485435 288.259836 
L 110.081522 288.261042 
L 108.677609 288.262195 
L 107.273696 288.263295 
L 105.869783 288.264347 
L 104.46587 288.265351 
L 103.061957 288.266309 
L 101.658044 288.267225 
L 100.254131 288.2681 
L 98.850218 288.268935 
L 97.446305 288.269733 
L 96.042391 288.270495 
L 94.638478 288.271222 
L 93.234565 288.271917 
L 91.830652 288.272581 
L 90.426739 288.273215 
L 89.022826 288.27382 
L 87.618913 288.274398 
L 86.215 288.27495 
L 84.811087 288.275477 
L 83.407174 288.275981 
L 82.003261 288.276462 
L 80.599348 288.276921 
L 79.195435 288.27736 
L 77.791522 288.277779 
L 76.387609 288.278179 
L 74.983696 288.278561 
L 73.579783 288.278926 
L 72.17587 288.279274 
L 70.771957 288.279607 
L 69.368044 288.279925 
L 67.96413 288.280228 
L 66.560217 288.280518 
L 65.156304 288.280795 
L 63.752391 288.281059 
L 62.348478 288.281312 
L 60.944565 288.281553 
L 59.540652 288.281783 
L 58.136739 288.282003 
L 56.732826 288.282213 
L 55.328913 288.282413 
L 53.925 288.282605 
L 52.521087 288.282788 
L 51.117174 288.282963 
L 49.713261 288.283129 
L 48.309348 288.283289 
L 46.905435 288.283441 
L 45.501522 288.283586 
L 44.097609 288.283725 
L 42.693696 288.283857 
L 41.289783 288.283984 
L 39.88587 288.284105 
L 38.481956 288.28422 
L 37.078043 288.28433 
L 35.67413 288.284436 
L 34.270217 288.284536 
L 32.866304 288.284632 
L 31.462391 288.284724 
L 30.058478 288.284812 
L 28.654565 288.284895 
L 27.250652 288.284975 
L 25.846739 288.285051 
L 24.442826 288.285124 
L 23.038913 288.285194 
L 21.635 288.28526 
L 20.231087 288.285324 
L 18.827174 288.285384 
L 17.423261 288.285442 
L 16.019348 288.285497 
L 14.615435 288.28555 
L 13.211522 288.2856 
L 11.807609 288.285648 
L 10.403695 288.285694 
L 8.999782 288.285738 
L 7.595869 288.28578 
L 6.191956 288.28582 
L 4.788043 288.285858 
L 3.38413 288.285895 
L 1.980217 288.28593 
L 0.576304 288.285963 
L -0.827609 288.285995 
L -2.231522 288.286025 
L -3.635435 288.286054 
L -5.039348 288.286082 
L -6.443261 288.286108 
L -7.847174 288.286134 
L -9.251087 288.286158 
L -10.655 288.286181 
L -12.058913 288.286203 
L -13.462826 288.286224 
L -14.866739 288.286244 
L -16.270652 288.286263 
z
" style="fill-opacity:0.9;stroke:#000000;stroke-opacity:0.9;"/>
   </g>
   <g id="matplotlib.axis_1">
    <g id="xtick_1">
     <g id="line2d_1">
      <defs>
       <path d="M 0 0 
L 0 3.5 
" id="me51dd63ebc" style="stroke:#000000;stroke-width:0.8;"/>
      </defs>
      <g>
       <use style="stroke:#000000;stroke-width:0.8;" x="53.925" xlink:href="#me51dd63ebc" y="301.5"/>
      </g>
     </g>
     <g id="text_1">
      <!-- $\mathdefault{10^{0}}$ -->
      <g transform="translate(39.845 320.6575)scale(0.16 -0.16)">
       <defs>
        <path d="M 12.40625 8.296875 
L 28.515625 8.296875 
L 28.515625 63.921875 
L 10.984375 60.40625 
L 10.984375 69.390625 
L 28.421875 72.90625 
L 38.28125 72.90625 
L 38.28125 8.296875 
L 54.390625 8.296875 
L 54.390625 0 
L 12.40625 0 
z
" id="DejaVuSans-49"/>
        <path d="M 31.78125 66.40625 
Q 24.171875 66.40625 20.328125 58.90625 
Q 16.5 51.421875 16.5 36.375 
Q 16.5 21.390625 20.328125 13.890625 
Q 24.171875 6.390625 31.78125 6.390625 
Q 39.453125 6.390625 43.28125 13.890625 
Q 47.125 21.390625 47.125 36.375 
Q 47.125 51.421875 43.28125 58.90625 
Q 39.453125 66.40625 31.78125 66.40625 
z
M 31.78125 74.21875 
Q 44.046875 74.21875 50.515625 64.515625 
Q 56.984375 54.828125 56.984375 36.375 
Q 56.984375 17.96875 50.515625 8.265625 
Q 44.046875 -1.421875 31.78125 -1.421875 
Q 19.53125 -1.421875 13.0625 8.265625 
Q 6.59375 17.96875 6.59375 36.375 
Q 6.59375 54.828125 13.0625 64.515625 
Q 19.53125 74.21875 31.78125 74.21875 
z
" id="DejaVuSans-48"/>
       </defs>
       <use transform="translate(0 0.765625)" xlink:href="#DejaVuSans-49"/>
       <use transform="translate(63.623047 0.765625)" xlink:href="#DejaVuSans-48"/>
       <use transform="translate(128.203125 39.046875)scale(0.7)" xlink:href="#DejaVuSans-48"/>
      </g>
     </g>
    </g>
    <g id="xtick_2">
     <g id="line2d_2">
      <g>
       <use style="stroke:#000000;stroke-width:0.8;" x="124.120652" xlink:href="#me51dd63ebc" y="301.5"/>
      </g>
     </g>
     <g id="text_2">
      <!-- $\mathdefault{10^{1}}$ -->
      <g transform="translate(110.040652 320.6575)scale(0.16 -0.16)">
       <use transform="translate(0 0.684375)" xlink:href="#DejaVuSans-49"/>
       <use transform="translate(63.623047 0.684375)" xlink:href="#DejaVuSans-48"/>
       <use transform="translate(128.203125 38.965625)scale(0.7)" xlink:href="#DejaVuSans-49"/>
      </g>
     </g>
    </g>
    <g id="xtick_3">
     <g id="line2d_3">
      <g>
       <use style="stroke:#000000;stroke-width:0.8;" x="194.316305" xlink:href="#me51dd63ebc" y="301.5"/>
      </g>
     </g>
     <g id="text_3">
      <!-- $\mathdefault{10^{2}}$ -->
      <g transform="translate(180.236305 320.6575)scale(0.16 -0.16)">
       <defs>
        <path d="M 19.1875 8.296875 
L 53.609375 8.296875 
L 53.609375 0 
L 7.328125 0 
L 7.328125 8.296875 
Q 12.9375 14.109375 22.625 23.890625 
Q 32.328125 33.6875 34.8125 36.53125 
Q 39.546875 41.84375 41.421875 45.53125 
Q 43.3125 49.21875 43.3125 52.78125 
Q 43.3125 58.59375 39.234375 62.25 
Q 35.15625 65.921875 28.609375 65.921875 
Q 23.96875 65.921875 18.8125 64.3125 
Q 13.671875 62.703125 7.8125 59.421875 
L 7.8125 69.390625 
Q 13.765625 71.78125 18.9375 73 
Q 24.125 74.21875 28.421875 74.21875 
Q 39.75 74.21875 46.484375 68.546875 
Q 53.21875 62.890625 53.21875 53.421875 
Q 53.21875 48.921875 51.53125 44.890625 
Q 49.859375 40.875 45.40625 35.40625 
Q 44.1875 33.984375 37.640625 27.21875 
Q 31.109375 20.453125 19.1875 8.296875 
z
" id="DejaVuSans-50"/>
       </defs>
       <use transform="translate(0 0.765625)" xlink:href="#DejaVuSans-49"/>
       <use transform="translate(63.623047 0.765625)" xlink:href="#DejaVuSans-48"/>
       <use transform="translate(128.203125 39.046875)scale(0.7)" xlink:href="#DejaVuSans-50"/>
      </g>
     </g>
    </g>
    <g id="xtick_4">
     <g id="line2d_4">
      <g>
       <use style="stroke:#000000;stroke-width:0.8;" x="264.511957" xlink:href="#me51dd63ebc" y="301.5"/>
      </g>
     </g>
     <g id="text_4">
      <!-- $\mathdefault{10^{3}}$ -->
      <g transform="translate(250.431957 320.6575)scale(0.16 -0.16)">
       <defs>
        <path d="M 40.578125 39.3125 
Q 47.65625 37.796875 51.625 33 
Q 55.609375 28.21875 55.609375 21.1875 
Q 55.609375 10.40625 48.1875 4.484375 
Q 40.765625 -1.421875 27.09375 -1.421875 
Q 22.515625 -1.421875 17.65625 -0.515625 
Q 12.796875 0.390625 7.625 2.203125 
L 7.625 11.71875 
Q 11.71875 9.328125 16.59375 8.109375 
Q 21.484375 6.890625 26.8125 6.890625 
Q 36.078125 6.890625 40.9375 10.546875 
Q 45.796875 14.203125 45.796875 21.1875 
Q 45.796875 27.640625 41.28125 31.265625 
Q 36.765625 34.90625 28.71875 34.90625 
L 20.21875 34.90625 
L 20.21875 43.015625 
L 29.109375 43.015625 
Q 36.375 43.015625 40.234375 45.921875 
Q 44.09375 48.828125 44.09375 54.296875 
Q 44.09375 59.90625 40.109375 62.90625 
Q 36.140625 65.921875 28.71875 65.921875 
Q 24.65625 65.921875 20.015625 65.03125 
Q 15.375 64.15625 9.8125 62.3125 
L 9.8125 71.09375 
Q 15.4375 72.65625 20.34375 73.4375 
Q 25.25 74.21875 29.59375 74.21875 
Q 40.828125 74.21875 47.359375 69.109375 
Q 53.90625 64.015625 53.90625 55.328125 
Q 53.90625 49.265625 50.4375 45.09375 
Q 46.96875 40.921875 40.578125 39.3125 
z
" id="DejaVuSans-51"/>
       </defs>
       <use transform="translate(0 0.765625)" xlink:href="#DejaVuSans-49"/>
       <use transform="translate(63.623047 0.765625)" xlink:href="#DejaVuSans-48"/>
       <use transform="translate(128.203125 39.046875)scale(0.7)" xlink:href="#DejaVuSans-51"/>
      </g>
     </g>
    </g>
    <g id="xtick_5">
     <g id="line2d_5">
      <g>
       <use style="stroke:#000000;stroke-width:0.8;" x="334.70761" xlink:href="#me51dd63ebc" y="301.5"/>
      </g>
     </g>
     <g id="text_5">
      <!-- $\mathdefault{10^{4}}$ -->
      <g transform="translate(320.62761 320.6575)scale(0.16 -0.16)">
       <defs>
        <path d="M 37.796875 64.3125 
L 12.890625 25.390625 
L 37.796875 25.390625 
z
M 35.203125 72.90625 
L 47.609375 72.90625 
L 47.609375 25.390625 
L 58.015625 25.390625 
L 58.015625 17.1875 
L 47.609375 17.1875 
L 47.609375 0 
L 37.796875 0 
L 37.796875 17.1875 
L 4.890625 17.1875 
L 4.890625 26.703125 
z
" id="DejaVuSans-52"/>
       </defs>
       <use transform="translate(0 0.684375)" xlink:href="#DejaVuSans-49"/>
       <use transform="translate(63.623047 0.684375)" xlink:href="#DejaVuSans-48"/>
       <use transform="translate(128.203125 38.965625)scale(0.7)" xlink:href="#DejaVuSans-52"/>
      </g>
     </g>
    </g>
    <g id="xtick_6">
     <g id="line2d_6">
      <defs>
       <path d="M 0 0 
L 0 2 
" id="m0fdd4c5418" style="stroke:#000000;stroke-width:0.6;"/>
      </defs>
      <g>
       <use style="stroke:#000000;stroke-width:0.6;" x="75.055997" xlink:href="#m0fdd4c5418" y="301.5"/>
      </g>
     </g>
    </g>
    <g id="xtick_7">
     <g id="line2d_7">
      <g>
       <use style="stroke:#000000;stroke-width:0.6;" x="87.416838" xlink:href="#m0fdd4c5418" y="301.5"/>
      </g>
     </g>
    </g>
    <g id="xtick_8">
     <g id="line2d_8">
      <g>
       <use style="stroke:#000000;stroke-width:0.6;" x="96.186994" xlink:href="#m0fdd4c5418" y="301.5"/>
      </g>
     </g>
    </g>
    <g id="xtick_9">
     <g id="line2d_9">
      <g>
       <use style="stroke:#000000;stroke-width:0.6;" x="102.989656" xlink:href="#m0fdd4c5418" y="301.5"/>
      </g>
     </g>
    </g>
    <g id="xtick_10">
     <g id="line2d_10">
      <g>
       <use style="stroke:#000000;stroke-width:0.6;" x="108.547835" xlink:href="#m0fdd4c5418" y="301.5"/>
      </g>
     </g>
    </g>
    <g id="xtick_11">
     <g id="line2d_11">
      <g>
       <use style="stroke:#000000;stroke-width:0.6;" x="113.247208" xlink:href="#m0fdd4c5418" y="301.5"/>
      </g>
     </g>
    </g>
    <g id="xtick_12">
     <g id="line2d_12">
      <g>
       <use style="stroke:#000000;stroke-width:0.6;" x="117.317991" xlink:href="#m0fdd4c5418" y="301.5"/>
      </g>
     </g>
    </g>
    <g id="xtick_13">
     <g id="line2d_13">
      <g>
       <use style="stroke:#000000;stroke-width:0.6;" x="120.908676" xlink:href="#m0fdd4c5418" y="301.5"/>
      </g>
     </g>
    </g>
    <g id="xtick_14">
     <g id="line2d_14">
      <g>
       <use style="stroke:#000000;stroke-width:0.6;" x="145.251649" xlink:href="#m0fdd4c5418" y="301.5"/>
      </g>
     </g>
    </g>
    <g id="xtick_15">
     <g id="line2d_15">
      <g>
       <use style="stroke:#000000;stroke-width:0.6;" x="157.61249" xlink:href="#m0fdd4c5418" y="301.5"/>
      </g>
     </g>
    </g>
    <g id="xtick_16">
     <g id="line2d_16">
      <g>
       <use style="stroke:#000000;stroke-width:0.6;" x="166.382646" xlink:href="#m0fdd4c5418" y="301.5"/>
      </g>
     </g>
    </g>
    <g id="xtick_17">
     <g id="line2d_17">
      <g>
       <use style="stroke:#000000;stroke-width:0.6;" x="173.185308" xlink:href="#m0fdd4c5418" y="301.5"/>
      </g>
     </g>
    </g>
    <g id="xtick_18">
     <g id="line2d_18">
      <g>
       <use style="stroke:#000000;stroke-width:0.6;" x="178.743487" xlink:href="#m0fdd4c5418" y="301.5"/>
      </g>
     </g>
    </g>
    <g id="xtick_19">
     <g id="line2d_19">
      <g>
       <use style="stroke:#000000;stroke-width:0.6;" x="183.442861" xlink:href="#m0fdd4c5418" y="301.5"/>
      </g>
     </g>
    </g>
    <g id="xtick_20">
     <g id="line2d_20">
      <g>
       <use style="stroke:#000000;stroke-width:0.6;" x="187.513643" xlink:href="#m0fdd4c5418" y="301.5"/>
      </g>
     </g>
    </g>
    <g id="xtick_21">
     <g id="line2d_21">
      <g>
       <use style="stroke:#000000;stroke-width:0.6;" x="191.104328" xlink:href="#m0fdd4c5418" y="301.5"/>
      </g>
     </g>
    </g>
    <g id="xtick_22">
     <g id="line2d_22">
      <g>
       <use style="stroke:#000000;stroke-width:0.6;" x="215.447302" xlink:href="#m0fdd4c5418" y="301.5"/>
      </g>
     </g>
    </g>
    <g id="xtick_23">
     <g id="line2d_23">
      <g>
       <use style="stroke:#000000;stroke-width:0.6;" x="227.808143" xlink:href="#m0fdd4c5418" y="301.5"/>
      </g>
     </g>
    </g>
    <g id="xtick_24">
     <g id="line2d_24">
      <g>
       <use style="stroke:#000000;stroke-width:0.6;" x="236.578299" xlink:href="#m0fdd4c5418" y="301.5"/>
      </g>
     </g>
    </g>
    <g id="xtick_25">
     <g id="line2d_25">
      <g>
       <use style="stroke:#000000;stroke-width:0.6;" x="243.38096" xlink:href="#m0fdd4c5418" y="301.5"/>
      </g>
     </g>
    </g>
    <g id="xtick_26">
     <g id="line2d_26">
      <g>
       <use style="stroke:#000000;stroke-width:0.6;" x="248.93914" xlink:href="#m0fdd4c5418" y="301.5"/>
      </g>
     </g>
    </g>
    <g id="xtick_27">
     <g id="line2d_27">
      <g>
       <use style="stroke:#000000;stroke-width:0.6;" x="253.638513" xlink:href="#m0fdd4c5418" y="301.5"/>
      </g>
     </g>
    </g>
    <g id="xtick_28">
     <g id="line2d_28">
      <g>
       <use style="stroke:#000000;stroke-width:0.6;" x="257.709296" xlink:href="#m0fdd4c5418" y="301.5"/>
      </g>
     </g>
    </g>
    <g id="xtick_29">
     <g id="line2d_29">
      <g>
       <use style="stroke:#000000;stroke-width:0.6;" x="261.299981" xlink:href="#m0fdd4c5418" y="301.5"/>
      </g>
     </g>
    </g>
    <g id="xtick_30">
     <g id="line2d_30">
      <g>
       <use style="stroke:#000000;stroke-width:0.6;" x="285.642954" xlink:href="#m0fdd4c5418" y="301.5"/>
      </g>
     </g>
    </g>
    <g id="xtick_31">
     <g id="line2d_31">
      <g>
       <use style="stroke:#000000;stroke-width:0.6;" x="298.003795" xlink:href="#m0fdd4c5418" y="301.5"/>
      </g>
     </g>
    </g>
    <g id="xtick_32">
     <g id="line2d_32">
      <g>
       <use style="stroke:#000000;stroke-width:0.6;" x="306.773951" xlink:href="#m0fdd4c5418" y="301.5"/>
      </g>
     </g>
    </g>
    <g id="xtick_33">
     <g id="line2d_33">
      <g>
       <use style="stroke:#000000;stroke-width:0.6;" x="313.576613" xlink:href="#m0fdd4c5418" y="301.5"/>
      </g>
     </g>
    </g>
    <g id="xtick_34">
     <g id="line2d_34">
      <g>
       <use style="stroke:#000000;stroke-width:0.6;" x="319.134792" xlink:href="#m0fdd4c5418" y="301.5"/>
      </g>
     </g>
    </g>
    <g id="xtick_35">
     <g id="line2d_35">
      <g>
       <use style="stroke:#000000;stroke-width:0.6;" x="323.834166" xlink:href="#m0fdd4c5418" y="301.5"/>
      </g>
     </g>
    </g>
    <g id="xtick_36">
     <g id="line2d_36">
      <g>
       <use style="stroke:#000000;stroke-width:0.6;" x="327.904948" xlink:href="#m0fdd4c5418" y="301.5"/>
      </g>
     </g>
    </g>
    <g id="xtick_37">
     <g id="line2d_37">
      <g>
       <use style="stroke:#000000;stroke-width:0.6;" x="331.495633" xlink:href="#m0fdd4c5418" y="301.5"/>
      </g>
     </g>
    </g>
    <g id="text_6">
     <!-- TF concentration (nM) -->
     <g transform="translate(101.278757 341.662188)scale(0.18 -0.18)">
      <defs>
       <path d="M -0.296875 72.90625 
L 61.375 72.90625 
L 61.375 64.59375 
L 35.5 64.59375 
L 35.5 0 
L 25.59375 0 
L 25.59375 64.59375 
L -0.296875 64.59375 
z
" id="DejaVuSans-84"/>
       <path d="M 9.8125 72.90625 
L 51.703125 72.90625 
L 51.703125 64.59375 
L 19.671875 64.59375 
L 19.671875 43.109375 
L 48.578125 43.109375 
L 48.578125 34.8125 
L 19.671875 34.8125 
L 19.671875 0 
L 9.8125 0 
z
" id="DejaVuSans-70"/>
       <path id="DejaVuSans-32"/>
       <path d="M 48.78125 52.59375 
L 48.78125 44.1875 
Q 44.96875 46.296875 41.140625 47.34375 
Q 37.3125 48.390625 33.40625 48.390625 
Q 24.65625 48.390625 19.8125 42.84375 
Q 14.984375 37.3125 14.984375 27.296875 
Q 14.984375 17.28125 19.8125 11.734375 
Q 24.65625 6.203125 33.40625 6.203125 
Q 37.3125 6.203125 41.140625 7.25 
Q 44.96875 8.296875 48.78125 10.40625 
L 48.78125 2.09375 
Q 45.015625 0.34375 40.984375 -0.53125 
Q 36.96875 -1.421875 32.421875 -1.421875 
Q 20.0625 -1.421875 12.78125 6.34375 
Q 5.515625 14.109375 5.515625 27.296875 
Q 5.515625 40.671875 12.859375 48.328125 
Q 20.21875 56 33.015625 56 
Q 37.15625 56 41.109375 55.140625 
Q 45.0625 54.296875 48.78125 52.59375 
z
" id="DejaVuSans-99"/>
       <path d="M 30.609375 48.390625 
Q 23.390625 48.390625 19.1875 42.75 
Q 14.984375 37.109375 14.984375 27.296875 
Q 14.984375 17.484375 19.15625 11.84375 
Q 23.34375 6.203125 30.609375 6.203125 
Q 37.796875 6.203125 41.984375 11.859375 
Q 46.1875 17.53125 46.1875 27.296875 
Q 46.1875 37.015625 41.984375 42.703125 
Q 37.796875 48.390625 30.609375 48.390625 
z
M 30.609375 56 
Q 42.328125 56 49.015625 48.375 
Q 55.71875 40.765625 55.71875 27.296875 
Q 55.71875 13.875 49.015625 6.21875 
Q 42.328125 -1.421875 30.609375 -1.421875 
Q 18.84375 -1.421875 12.171875 6.21875 
Q 5.515625 13.875 5.515625 27.296875 
Q 5.515625 40.765625 12.171875 48.375 
Q 18.84375 56 30.609375 56 
z
" id="DejaVuSans-111"/>
       <path d="M 54.890625 33.015625 
L 54.890625 0 
L 45.90625 0 
L 45.90625 32.71875 
Q 45.90625 40.484375 42.875 44.328125 
Q 39.84375 48.1875 33.796875 48.1875 
Q 26.515625 48.1875 22.3125 43.546875 
Q 18.109375 38.921875 18.109375 30.90625 
L 18.109375 0 
L 9.078125 0 
L 9.078125 54.6875 
L 18.109375 54.6875 
L 18.109375 46.1875 
Q 21.34375 51.125 25.703125 53.5625 
Q 30.078125 56 35.796875 56 
Q 45.21875 56 50.046875 50.171875 
Q 54.890625 44.34375 54.890625 33.015625 
z
" id="DejaVuSans-110"/>
       <path d="M 56.203125 29.59375 
L 56.203125 25.203125 
L 14.890625 25.203125 
Q 15.484375 15.921875 20.484375 11.0625 
Q 25.484375 6.203125 34.421875 6.203125 
Q 39.59375 6.203125 44.453125 7.46875 
Q 49.3125 8.734375 54.109375 11.28125 
L 54.109375 2.78125 
Q 49.265625 0.734375 44.1875 -0.34375 
Q 39.109375 -1.421875 33.890625 -1.421875 
Q 20.796875 -1.421875 13.15625 6.1875 
Q 5.515625 13.8125 5.515625 26.8125 
Q 5.515625 40.234375 12.765625 48.109375 
Q 20.015625 56 32.328125 56 
Q 43.359375 56 49.78125 48.890625 
Q 56.203125 41.796875 56.203125 29.59375 
z
M 47.21875 32.234375 
Q 47.125 39.59375 43.09375 43.984375 
Q 39.0625 48.390625 32.421875 48.390625 
Q 24.90625 48.390625 20.390625 44.140625 
Q 15.875 39.890625 15.1875 32.171875 
z
" id="DejaVuSans-101"/>
       <path d="M 18.3125 70.21875 
L 18.3125 54.6875 
L 36.8125 54.6875 
L 36.8125 47.703125 
L 18.3125 47.703125 
L 18.3125 18.015625 
Q 18.3125 11.328125 20.140625 9.421875 
Q 21.96875 7.515625 27.59375 7.515625 
L 36.8125 7.515625 
L 36.8125 0 
L 27.59375 0 
Q 17.1875 0 13.234375 3.875 
Q 9.28125 7.765625 9.28125 18.015625 
L 9.28125 47.703125 
L 2.6875 47.703125 
L 2.6875 54.6875 
L 9.28125 54.6875 
L 9.28125 70.21875 
z
" id="DejaVuSans-116"/>
       <path d="M 41.109375 46.296875 
Q 39.59375 47.171875 37.8125 47.578125 
Q 36.03125 48 33.890625 48 
Q 26.265625 48 22.1875 43.046875 
Q 18.109375 38.09375 18.109375 28.8125 
L 18.109375 0 
L 9.078125 0 
L 9.078125 54.6875 
L 18.109375 54.6875 
L 18.109375 46.1875 
Q 20.953125 51.171875 25.484375 53.578125 
Q 30.03125 56 36.53125 56 
Q 37.453125 56 38.578125 55.875 
Q 39.703125 55.765625 41.0625 55.515625 
z
" id="DejaVuSans-114"/>
       <path d="M 34.28125 27.484375 
Q 23.390625 27.484375 19.1875 25 
Q 14.984375 22.515625 14.984375 16.5 
Q 14.984375 11.71875 18.140625 8.90625 
Q 21.296875 6.109375 26.703125 6.109375 
Q 34.1875 6.109375 38.703125 11.40625 
Q 43.21875 16.703125 43.21875 25.484375 
L 43.21875 27.484375 
z
M 52.203125 31.203125 
L 52.203125 0 
L 43.21875 0 
L 43.21875 8.296875 
Q 40.140625 3.328125 35.546875 0.953125 
Q 30.953125 -1.421875 24.3125 -1.421875 
Q 15.921875 -1.421875 10.953125 3.296875 
Q 6 8.015625 6 15.921875 
Q 6 25.140625 12.171875 29.828125 
Q 18.359375 34.515625 30.609375 34.515625 
L 43.21875 34.515625 
L 43.21875 35.40625 
Q 43.21875 41.609375 39.140625 45 
Q 35.0625 48.390625 27.6875 48.390625 
Q 23 48.390625 18.546875 47.265625 
Q 14.109375 46.140625 10.015625 43.890625 
L 10.015625 52.203125 
Q 14.9375 54.109375 19.578125 55.046875 
Q 24.21875 56 28.609375 56 
Q 40.484375 56 46.34375 49.84375 
Q 52.203125 43.703125 52.203125 31.203125 
z
" id="DejaVuSans-97"/>
       <path d="M 9.421875 54.6875 
L 18.40625 54.6875 
L 18.40625 0 
L 9.421875 0 
z
M 9.421875 75.984375 
L 18.40625 75.984375 
L 18.40625 64.59375 
L 9.421875 64.59375 
z
" id="DejaVuSans-105"/>
       <path d="M 31 75.875 
Q 24.46875 64.65625 21.28125 53.65625 
Q 18.109375 42.671875 18.109375 31.390625 
Q 18.109375 20.125 21.3125 9.0625 
Q 24.515625 -2 31 -13.1875 
L 23.1875 -13.1875 
Q 15.875 -1.703125 12.234375 9.375 
Q 8.59375 20.453125 8.59375 31.390625 
Q 8.59375 42.28125 12.203125 53.3125 
Q 15.828125 64.359375 23.1875 75.875 
z
" id="DejaVuSans-40"/>
       <path d="M 9.8125 72.90625 
L 24.515625 72.90625 
L 43.109375 23.296875 
L 61.8125 72.90625 
L 76.515625 72.90625 
L 76.515625 0 
L 66.890625 0 
L 66.890625 64.015625 
L 48.09375 14.015625 
L 38.1875 14.015625 
L 19.390625 64.015625 
L 19.390625 0 
L 9.8125 0 
z
" id="DejaVuSans-77"/>
       <path d="M 8.015625 75.875 
L 15.828125 75.875 
Q 23.140625 64.359375 26.78125 53.3125 
Q 30.421875 42.28125 30.421875 31.390625 
Q 30.421875 20.453125 26.78125 9.375 
Q 23.140625 -1.703125 15.828125 -13.1875 
L 8.015625 -13.1875 
Q 14.5 -2 17.703125 9.0625 
Q 20.90625 20.125 20.90625 31.390625 
Q 20.90625 42.671875 17.703125 53.65625 
Q 14.5 64.65625 8.015625 75.875 
z
" id="DejaVuSans-41"/>
      </defs>
      <use xlink:href="#DejaVuSans-84"/>
      <use x="61.083984" xlink:href="#DejaVuSans-70"/>
      <use x="118.603516" xlink:href="#DejaVuSans-32"/>
      <use x="150.390625" xlink:href="#DejaVuSans-99"/>
      <use x="205.371094" xlink:href="#DejaVuSans-111"/>
      <use x="266.552734" xlink:href="#DejaVuSans-110"/>
      <use x="329.931641" xlink:href="#DejaVuSans-99"/>
      <use x="384.912109" xlink:href="#DejaVuSans-101"/>
      <use x="446.435547" xlink:href="#DejaVuSans-110"/>
      <use x="509.814453" xlink:href="#DejaVuSans-116"/>
      <use x="549.023438" xlink:href="#DejaVuSans-114"/>
      <use x="590.136719" xlink:href="#DejaVuSans-97"/>
      <use x="651.416016" xlink:href="#DejaVuSans-116"/>
      <use x="690.625" xlink:href="#DejaVuSans-105"/>
      <use x="718.408203" xlink:href="#DejaVuSans-111"/>
      <use x="779.589844" xlink:href="#DejaVuSans-110"/>
      <use x="842.96875" xlink:href="#DejaVuSans-32"/>
      <use x="874.755859" xlink:href="#DejaVuSans-40"/>
      <use x="913.769531" xlink:href="#DejaVuSans-110"/>
      <use x="977.148438" xlink:href="#DejaVuSans-77"/>
      <use x="1063.427734" xlink:href="#DejaVuSans-41"/>
     </g>
    </g>
   </g>
   <g id="matplotlib.axis_2">
    <g id="ytick_1">
     <g id="line2d_38">
      <defs>
       <path d="M 0 0 
L -3.5 0 
" id="m76b6573ec2" style="stroke:#000000;stroke-width:0.8;"/>
      </defs>
      <g>
       <use style="stroke:#000000;stroke-width:0.8;" x="53.925" xlink:href="#m76b6573ec2" y="288.28667"/>
      </g>
     </g>
     <g id="text_7">
      <!-- 0 -->
      <g transform="translate(36.745 294.36542)scale(0.16 -0.16)">
       <use xlink:href="#DejaVuSans-48"/>
      </g>
     </g>
    </g>
    <g id="ytick_2">
     <g id="line2d_39">
      <g>
       <use style="stroke:#000000;stroke-width:0.8;" x="53.925" xlink:href="#m76b6573ec2" y="224.268031"/>
      </g>
     </g>
     <g id="text_8">
      <!-- 1 -->
      <g transform="translate(36.745 230.346781)scale(0.16 -0.16)">
       <use xlink:href="#DejaVuSans-49"/>
      </g>
     </g>
    </g>
    <g id="ytick_3">
     <g id="line2d_40">
      <g>
       <use style="stroke:#000000;stroke-width:0.8;" x="53.925" xlink:href="#m76b6573ec2" y="160.249392"/>
      </g>
     </g>
     <g id="text_9">
      <!-- 2 -->
      <g transform="translate(36.745 166.328142)scale(0.16 -0.16)">
       <use xlink:href="#DejaVuSans-50"/>
      </g>
     </g>
    </g>
    <g id="ytick_4">
     <g id="line2d_41">
      <g>
       <use style="stroke:#000000;stroke-width:0.8;" x="53.925" xlink:href="#m76b6573ec2" y="96.230753"/>
      </g>
     </g>
     <g id="text_10">
      <!-- 3 -->
      <g transform="translate(36.745 102.309503)scale(0.16 -0.16)">
       <use xlink:href="#DejaVuSans-51"/>
      </g>
     </g>
    </g>
    <g id="ytick_5">
     <g id="line2d_42">
      <g>
       <use style="stroke:#000000;stroke-width:0.8;" x="53.925" xlink:href="#m76b6573ec2" y="32.212115"/>
      </g>
     </g>
     <g id="text_11">
      <!-- 4 -->
      <g transform="translate(36.745 38.290865)scale(0.16 -0.16)">
       <use xlink:href="#DejaVuSans-52"/>
      </g>
     </g>
    </g>
    <g id="text_12">
     <!-- $\langle$N$\rangle$, Mean occupancy -->
     <g transform="translate(28.965 251.37)rotate(-90)scale(0.18 -0.18)">
      <defs>
       <path d="M 8.9375 31.34375 
L 22.703125 75.875 
L 31 75.875 
L 17.234375 31.34375 
L 31 -13.1875 
L 22.703125 -13.1875 
z
" id="DejaVuSans-10216"/>
       <path d="M 9.8125 72.90625 
L 23.09375 72.90625 
L 55.421875 11.921875 
L 55.421875 72.90625 
L 64.984375 72.90625 
L 64.984375 0 
L 51.703125 0 
L 19.390625 60.984375 
L 19.390625 0 
L 9.8125 0 
z
" id="DejaVuSans-78"/>
       <path d="M 30.078125 31.34375 
L 16.3125 -13.1875 
L 8.015625 -13.1875 
L 21.78125 31.34375 
L 8.015625 75.875 
L 16.3125 75.875 
z
" id="DejaVuSans-10217"/>
       <path d="M 11.71875 12.40625 
L 22.015625 12.40625 
L 22.015625 4 
L 14.015625 -11.625 
L 7.71875 -11.625 
L 11.71875 4 
z
" id="DejaVuSans-44"/>
       <path d="M 8.5 21.578125 
L 8.5 54.6875 
L 17.484375 54.6875 
L 17.484375 21.921875 
Q 17.484375 14.15625 20.5 10.265625 
Q 23.53125 6.390625 29.59375 6.390625 
Q 36.859375 6.390625 41.078125 11.03125 
Q 45.3125 15.671875 45.3125 23.6875 
L 45.3125 54.6875 
L 54.296875 54.6875 
L 54.296875 0 
L 45.3125 0 
L 45.3125 8.40625 
Q 42.046875 3.421875 37.71875 1 
Q 33.40625 -1.421875 27.6875 -1.421875 
Q 18.265625 -1.421875 13.375 4.4375 
Q 8.5 10.296875 8.5 21.578125 
z
M 31.109375 56 
z
" id="DejaVuSans-117"/>
       <path d="M 18.109375 8.203125 
L 18.109375 -20.796875 
L 9.078125 -20.796875 
L 9.078125 54.6875 
L 18.109375 54.6875 
L 18.109375 46.390625 
Q 20.953125 51.265625 25.265625 53.625 
Q 29.59375 56 35.59375 56 
Q 45.5625 56 51.78125 48.09375 
Q 58.015625 40.1875 58.015625 27.296875 
Q 58.015625 14.40625 51.78125 6.484375 
Q 45.5625 -1.421875 35.59375 -1.421875 
Q 29.59375 -1.421875 25.265625 0.953125 
Q 20.953125 3.328125 18.109375 8.203125 
z
M 48.6875 27.296875 
Q 48.6875 37.203125 44.609375 42.84375 
Q 40.53125 48.484375 33.40625 48.484375 
Q 26.265625 48.484375 22.1875 42.84375 
Q 18.109375 37.203125 18.109375 27.296875 
Q 18.109375 17.390625 22.1875 11.75 
Q 26.265625 6.109375 33.40625 6.109375 
Q 40.53125 6.109375 44.609375 11.75 
Q 48.6875 17.390625 48.6875 27.296875 
z
" id="DejaVuSans-112"/>
       <path d="M 32.171875 -5.078125 
Q 28.375 -14.84375 24.75 -17.8125 
Q 21.140625 -20.796875 15.09375 -20.796875 
L 7.90625 -20.796875 
L 7.90625 -13.28125 
L 13.1875 -13.28125 
Q 16.890625 -13.28125 18.9375 -11.515625 
Q 21 -9.765625 23.484375 -3.21875 
L 25.09375 0.875 
L 2.984375 54.6875 
L 12.5 54.6875 
L 29.59375 11.921875 
L 46.6875 54.6875 
L 56.203125 54.6875 
z
" id="DejaVuSans-121"/>
      </defs>
      <use transform="translate(0 0.125)" xlink:href="#DejaVuSans-10216"/>
      <use transform="translate(39.013672 0.125)" xlink:href="#DejaVuSans-78"/>
      <use transform="translate(113.818359 0.125)" xlink:href="#DejaVuSans-10217"/>
      <use transform="translate(152.832031 0.125)" xlink:href="#DejaVuSans-44"/>
      <use transform="translate(184.619141 0.125)" xlink:href="#DejaVuSans-32"/>
      <use transform="translate(216.40625 0.125)" xlink:href="#DejaVuSans-77"/>
      <use transform="translate(302.685547 0.125)" xlink:href="#DejaVuSans-101"/>
      <use transform="translate(364.208984 0.125)" xlink:href="#DejaVuSans-97"/>
      <use transform="translate(425.488281 0.125)" xlink:href="#DejaVuSans-110"/>
      <use transform="translate(488.867188 0.125)" xlink:href="#DejaVuSans-32"/>
      <use transform="translate(520.654297 0.125)" xlink:href="#DejaVuSans-111"/>
      <use transform="translate(581.835938 0.125)" xlink:href="#DejaVuSans-99"/>
      <use transform="translate(636.816406 0.125)" xlink:href="#DejaVuSans-99"/>
      <use transform="translate(691.796875 0.125)" xlink:href="#DejaVuSans-117"/>
      <use transform="translate(755.175781 0.125)" xlink:href="#DejaVuSans-112"/>
      <use transform="translate(818.652344 0.125)" xlink:href="#DejaVuSans-97"/>
      <use transform="translate(879.931641 0.125)" xlink:href="#DejaVuSans-110"/>
      <use transform="translate(943.310547 0.125)" xlink:href="#DejaVuSans-99"/>
      <use transform="translate(998.291016 0.125)" xlink:href="#DejaVuSans-121"/>
     </g>
    </g>
   </g>
   <g id="PolyCollection_2">
    <path clip-path="url(#p50b7f52908)" d="M -16.270652 288.282832 
L -16.270652 288.283444 
L -14.866739 288.283292 
L -13.462826 288.283133 
L -12.058913 288.282966 
L -10.655 288.282791 
L -9.251087 288.282609 
L -7.847174 288.282417 
L -6.443261 288.282217 
L -5.039348 288.282007 
L -3.635435 288.281787 
L -2.231522 288.281557 
L -0.827609 288.281316 
L 0.576304 288.281064 
L 1.980217 288.2808 
L 3.38413 288.280523 
L 4.788043 288.280233 
L 6.191956 288.27993 
L 7.595869 288.279613 
L 8.999782 288.27928 
L 10.403695 288.278932 
L 11.807609 288.278567 
L 13.211522 288.278185 
L 14.615435 288.277785 
L 16.019348 288.277367 
L 17.423261 288.276928 
L 18.827174 288.276469 
L 20.231087 288.275989 
L 21.635 288.275485 
L 23.038913 288.274958 
L 24.442826 288.274406 
L 25.846739 288.273829 
L 27.250652 288.273223 
L 28.654565 288.27259 
L 30.058478 288.271926 
L 31.462391 288.271232 
L 32.866304 288.270504 
L 34.270217 288.269742 
L 35.67413 288.268945 
L 37.078043 288.26811 
L 38.481956 288.267235 
L 39.88587 288.266319 
L 41.289783 288.26536 
L 42.693696 288.264356 
L 44.097609 288.263305 
L 45.501522 288.262204 
L 46.905435 288.261051 
L 48.309348 288.259844 
L 49.713261 288.25858 
L 51.117174 288.257256 
L 52.521087 288.255871 
L 53.925 288.254419 
L 55.328913 288.2529 
L 56.732826 288.251309 
L 58.136739 288.249643 
L 59.540652 288.247899 
L 60.944565 288.246072 
L 62.348478 288.244159 
L 63.752391 288.242157 
L 65.156304 288.240059 
L 66.560217 288.237864 
L 67.96413 288.235565 
L 69.368044 288.233157 
L 70.771957 288.230636 
L 72.17587 288.227997 
L 73.579783 288.225233 
L 74.983696 288.222339 
L 76.387609 288.219309 
L 77.791522 288.216136 
L 79.195435 288.212814 
L 80.599348 288.209335 
L 82.003261 288.205693 
L 83.407174 288.20188 
L 84.811087 288.197886 
L 86.215 288.193705 
L 87.618913 288.189328 
L 89.022826 288.184744 
L 90.426739 288.179944 
L 91.830652 288.174919 
L 93.234565 288.169658 
L 94.638478 288.164149 
L 96.042391 288.15838 
L 97.446305 288.152341 
L 98.850218 288.146017 
L 100.254131 288.139397 
L 101.658044 288.132465 
L 103.061957 288.125207 
L 104.46587 288.117608 
L 105.869783 288.109652 
L 107.273696 288.101322 
L 108.677609 288.0926 
L 110.081522 288.083469 
L 111.485435 288.073909 
L 112.889348 288.063901 
L 114.293261 288.053422 
L 115.697174 288.042451 
L 117.101087 288.030965 
L 118.505 288.018941 
L 119.908913 288.006352 
L 121.312826 287.993173 
L 122.716739 287.979375 
L 124.120652 287.964931 
L 125.524566 287.94981 
L 126.928479 287.93398 
L 128.332392 287.917408 
L 129.736305 287.90006 
L 131.140218 287.8819 
L 132.544131 287.86289 
L 133.948044 287.84299 
L 135.351957 287.822159 
L 136.75587 287.800354 
L 138.159783 287.77753 
L 139.563696 287.75364 
L 140.967609 287.728633 
L 142.371522 287.702459 
L 143.775435 287.675063 
L 145.179348 287.64639 
L 146.583261 287.616379 
L 147.987174 287.584969 
L 149.391087 287.552097 
L 150.795 287.517694 
L 152.198913 287.481691 
L 153.602827 287.444014 
L 155.00674 287.404586 
L 156.410653 287.363327 
L 157.814566 287.320153 
L 159.218479 287.274978 
L 160.622392 287.227709 
L 162.026305 287.178252 
L 163.430218 287.126508 
L 164.834131 287.072371 
L 166.238044 287.015735 
L 167.641957 286.956486 
L 169.04587 286.894507 
L 170.449783 286.829675 
L 171.853696 286.761861 
L 173.257609 286.690932 
L 174.661522 286.616749 
L 176.065435 286.539168 
L 177.469348 286.458036 
L 178.873261 286.373198 
L 180.277174 286.284488 
L 181.681088 286.191737 
L 183.085001 286.094768 
L 184.488914 285.993395 
L 185.892827 285.887427 
L 187.29674 285.776664 
L 188.700653 285.660899 
L 190.104566 285.539917 
L 191.508479 285.413494 
L 192.912392 285.281397 
L 194.316305 285.143387 
L 195.720218 284.999212 
L 197.124131 284.848614 
L 198.528044 284.691325 
L 199.931957 284.527067 
L 201.33587 284.355552 
L 202.739783 284.176482 
L 204.143696 283.98955 
L 205.547609 283.794437 
L 206.951522 283.590817 
L 208.355435 283.378349 
L 209.759348 283.156686 
L 211.163262 282.925467 
L 212.567175 282.684044 
L 213.971088 282.432168 
L 215.375001 282.169539 
L 216.778914 281.89575 
L 218.182827 281.610384 
L 219.58674 281.313012 
L 220.990653 281.003195 
L 222.394566 280.680446 
L 223.798479 280.344341 
L 225.202392 279.994413 
L 226.606305 279.630186 
L 228.010218 279.251175 
L 229.414131 278.856889 
L 230.818044 278.446828 
L 232.221957 278.020489 
L 233.62587 277.577362 
L 235.029783 277.116933 
L 236.433696 276.638687 
L 237.837609 276.142105 
L 239.241523 275.62667 
L 240.645436 275.091866 
L 242.049349 274.53718 
L 243.453262 273.962102 
L 244.857175 273.366133 
L 246.261088 272.748778 
L 247.665001 272.109557 
L 249.068914 271.448001 
L 250.472827 270.763656 
L 251.87674 270.059979 
L 253.280653 269.330249 
L 254.684566 268.57541 
L 256.088479 267.796208 
L 257.492392 266.994836 
L 258.896305 266.174028 
L 260.300218 265.328704 
L 261.704131 264.458333 
L 263.108044 263.563215 
L 264.511957 262.643269 
L 265.91587 261.698464 
L 267.319784 260.75518 
L 268.723697 259.764375 
L 270.12761 258.732861 
L 271.531523 257.678108 
L 272.935436 256.609905 
L 274.339349 255.517752 
L 275.743262 254.402056 
L 277.147175 253.263267 
L 278.551088 252.092873 
L 279.955001 250.877499 
L 281.358914 249.635913 
L 282.762827 248.379707 
L 284.16674 247.084921 
L 285.570653 245.837935 
L 286.974566 244.536421 
L 288.378479 243.203333 
L 289.782392 241.863722 
L 291.186305 240.495515 
L 292.590218 239.146308 
L 293.994131 237.779422 
L 295.398045 236.388129 
L 296.801958 235.017505 
L 298.205871 233.668531 
L 299.609784 232.312796 
L 301.013697 230.917218 
L 302.41761 229.568077 
L 303.821523 228.214519 
L 305.225436 226.851619 
L 306.629349 225.513775 
L 308.033262 224.144408 
L 309.437175 222.73749 
L 310.841088 221.382497 
L 312.245001 220.054951 
L 313.648914 218.814865 
L 315.052827 217.437765 
L 316.45674 216.160925 
L 317.860653 214.925603 
L 319.264566 213.680551 
L 320.668479 212.437787 
L 322.072392 211.316898 
L 323.476305 210.118238 
L 324.880219 208.930055 
L 326.284132 207.763081 
L 327.688045 206.613115 
L 329.091958 205.53617 
L 330.495871 204.422341 
L 331.899784 203.326197 
L 333.303697 202.252301 
L 334.70761 201.201085 
L 336.111523 200.209992 
L 337.515436 199.293786 
L 338.919349 198.400839 
L 340.323262 197.492327 
L 341.727175 196.576992 
L 343.131088 195.745013 
L 344.535001 194.953834 
L 345.938914 194.223322 
L 347.342827 193.536683 
L 348.74674 192.823147 
L 350.150653 192.103689 
L 351.554566 191.399402 
L 352.95848 190.75346 
L 354.362393 190.095983 
L 355.766306 189.446052 
L 357.170219 188.817289 
L 358.574132 188.209311 
L 359.978045 187.679526 
L 361.381958 187.16906 
L 362.785871 186.67671 
L 364.189784 186.202119 
L 365.593697 185.746273 
L 366.99761 185.307572 
L 368.401523 184.885096 
L 369.805436 184.478387 
L 371.209349 184.08647 
L 372.613262 183.708726 
L 374.017175 183.34471 
L 375.421088 182.996 
L 376.825001 182.651392 
L 378.228914 182.318413 
L 379.632827 181.998455 
L 381.036741 181.691088 
L 382.440654 181.395892 
L 383.844567 181.11245 
L 385.24848 180.840359 
L 386.652393 180.579221 
L 388.056306 180.328649 
L 389.460219 180.088263 
L 390.864132 179.857695 
L 392.268045 179.636585 
L 393.671958 179.424583 
L 395.075871 179.221349 
L 396.479784 179.026552 
L 397.883697 178.839872 
L 399.28761 178.660997 
L 400.691523 178.489627 
L 402.095436 178.325468 
L 403.499349 178.168133 
L 404.903262 178.016969 
L 404.903262 165.522925 
L 404.903262 165.522925 
L 403.499349 165.726191 
L 402.095436 165.938316 
L 400.691523 166.159652 
L 399.28761 166.390563 
L 397.883697 166.631422 
L 396.479784 166.882614 
L 395.075871 167.144534 
L 393.671958 167.417589 
L 392.268045 167.702197 
L 390.864132 167.998784 
L 389.460219 168.307789 
L 388.056306 168.629659 
L 386.652393 168.964853 
L 385.24848 169.313836 
L 383.844567 169.677097 
L 382.440654 170.080502 
L 381.036741 170.499987 
L 379.632827 170.936068 
L 378.228914 171.391035 
L 376.825001 171.863679 
L 375.421088 172.354518 
L 374.017175 172.864073 
L 372.613262 173.392864 
L 371.209349 173.941408 
L 369.805436 174.495242 
L 368.401523 175.056473 
L 366.99761 175.68273 
L 365.593697 176.331976 
L 364.189784 176.999481 
L 362.785871 177.692613 
L 361.381958 178.409598 
L 359.978045 179.150476 
L 358.574132 179.915637 
L 357.170219 180.705716 
L 355.766306 181.487172 
L 354.362393 182.273365 
L 352.95848 183.112047 
L 351.554566 183.959485 
L 350.150653 184.803459 
L 348.74674 185.686942 
L 347.342827 186.596308 
L 345.938914 187.531412 
L 344.535001 188.464345 
L 343.131088 189.444144 
L 341.727175 190.464621 
L 340.323262 191.501128 
L 338.919349 192.563198 
L 337.515436 193.652109 
L 336.111523 194.761888 
L 334.70761 195.912726 
L 333.303697 197.032861 
L 331.899784 198.17267 
L 330.495871 199.336071 
L 329.091958 200.522534 
L 327.688045 201.731458 
L 326.284132 202.958272 
L 324.880219 204.206309 
L 323.476305 205.51182 
L 322.072392 206.810766 
L 320.668479 208.128694 
L 319.264566 209.440173 
L 317.860653 210.81107 
L 316.45674 212.155975 
L 315.052827 213.562037 
L 313.648914 214.953932 
L 312.245001 216.320744 
L 310.841088 217.697829 
L 309.437175 219.082159 
L 308.033262 220.475444 
L 306.629349 221.890301 
L 305.225436 223.28139 
L 303.821523 224.685083 
L 302.41761 226.036155 
L 301.013697 227.419047 
L 299.609784 228.807104 
L 298.205871 230.183225 
L 296.801958 231.555109 
L 295.398045 232.927264 
L 293.994131 234.253375 
L 292.590218 235.595256 
L 291.186305 236.948183 
L 289.782392 238.293203 
L 288.378479 239.611207 
L 286.974566 240.895549 
L 285.570653 242.208708 
L 284.16674 243.47635 
L 282.762827 244.755068 
L 281.358914 246.018824 
L 279.955001 247.264112 
L 278.551088 248.491794 
L 277.147175 249.700969 
L 275.743262 250.890799 
L 274.339349 252.060514 
L 272.935436 253.192359 
L 271.531523 254.301706 
L 270.12761 255.391205 
L 268.723697 256.459608 
L 267.319784 257.506423 
L 265.91587 258.552132 
L 264.511957 259.560086 
L 263.108044 260.50522 
L 261.704131 261.3976 
L 260.300218 262.346729 
L 258.896305 263.273208 
L 257.492392 264.174975 
L 256.088479 265.052086 
L 254.684566 265.892507 
L 253.280653 266.709496 
L 251.87674 267.503448 
L 250.472827 268.274599 
L 249.068914 269.023344 
L 247.665001 269.749588 
L 246.261088 270.453597 
L 244.857175 271.135662 
L 243.453262 271.796104 
L 242.049349 272.435269 
L 240.645436 273.053523 
L 239.241523 273.651252 
L 237.837609 274.228859 
L 236.433696 274.786761 
L 235.029783 275.325388 
L 233.62587 275.847117 
L 232.221957 276.351361 
L 230.818044 276.837337 
L 229.414131 277.305535 
L 228.010218 277.756441 
L 226.606305 278.190545 
L 225.202392 278.608334 
L 223.798479 279.010292 
L 222.394566 279.396691 
L 220.990653 279.766962 
L 219.58674 280.123007 
L 218.182827 280.465273 
L 216.778914 280.794203 
L 215.375001 281.110232 
L 213.971088 281.413791 
L 212.567175 281.705298 
L 211.163262 281.985167 
L 209.759348 282.253802 
L 208.355435 282.511597 
L 206.951522 282.75894 
L 205.547609 282.996205 
L 204.143696 283.223761 
L 202.739783 283.441965 
L 201.33587 283.651163 
L 199.931957 283.851695 
L 198.528044 284.043887 
L 197.124131 284.228059 
L 195.720218 284.404518 
L 194.316305 284.573564 
L 192.912392 284.735485 
L 191.508479 284.890563 
L 190.104566 285.039067 
L 188.700653 285.181259 
L 187.29674 285.317392 
L 185.892827 285.44771 
L 184.488914 285.572448 
L 183.085001 285.691833 
L 181.681088 285.806084 
L 180.277174 285.915411 
L 178.873261 286.020017 
L 177.469348 286.120098 
L 176.065435 286.215842 
L 174.661522 286.30743 
L 173.257609 286.395035 
L 171.853696 286.478825 
L 170.449783 286.558961 
L 169.04587 286.635597 
L 167.641957 286.708881 
L 166.238044 286.778955 
L 164.834131 286.845958 
L 163.430218 286.910019 
L 162.026305 286.971265 
L 160.622392 287.029817 
L 159.218479 287.08579 
L 157.814566 287.139295 
L 156.410653 287.19044 
L 155.00674 287.239326 
L 153.602827 287.286051 
L 152.198913 287.33071 
L 150.795 287.373391 
L 149.391087 287.414181 
L 147.987174 287.453163 
L 146.583261 287.490416 
L 145.179348 287.526014 
L 143.775435 287.560032 
L 142.371522 287.592537 
L 140.967609 287.623597 
L 139.563696 287.653274 
L 138.159783 287.681631 
L 136.75587 287.708724 
L 135.351957 287.73461 
L 133.948044 287.759342 
L 132.544131 287.782971 
L 131.140218 287.805546 
L 129.736305 287.827113 
L 128.332392 287.847717 
L 126.928479 287.867401 
L 125.524566 287.886205 
L 124.120652 287.904168 
L 122.716739 287.921329 
L 121.312826 287.937721 
L 119.908913 287.953381 
L 118.505 287.968339 
L 117.101087 287.982629 
L 115.697174 287.996278 
L 114.293261 288.009316 
L 112.889348 288.02177 
L 111.485435 288.033666 
L 110.081522 288.045029 
L 108.677609 288.055883 
L 107.273696 288.06625 
L 105.869783 288.076152 
L 104.46587 288.08561 
L 103.061957 288.094644 
L 101.658044 288.103273 
L 100.254131 288.111514 
L 98.850218 288.119386 
L 97.446305 288.126904 
L 96.042391 288.134085 
L 94.638478 288.140944 
L 93.234565 288.147495 
L 91.830652 288.153751 
L 90.426739 288.159727 
L 89.022826 288.165434 
L 87.618913 288.170885 
L 86.215 288.176091 
L 84.811087 288.181064 
L 83.407174 288.185813 
L 82.003261 288.190348 
L 80.599348 288.19468 
L 79.195435 288.198817 
L 77.791522 288.202768 
L 76.387609 288.206541 
L 74.983696 288.210145 
L 73.579783 288.213587 
L 72.17587 288.216875 
L 70.771957 288.220014 
L 69.368044 288.223012 
L 67.96413 288.225876 
L 66.560217 288.228611 
L 65.156304 288.231222 
L 63.752391 288.233717 
L 62.348478 288.236099 
L 60.944565 288.238374 
L 59.540652 288.240547 
L 58.136739 288.242622 
L 56.732826 288.244604 
L 55.328913 288.246496 
L 53.925 288.248304 
L 52.521087 288.25003 
L 51.117174 288.251679 
L 49.713261 288.253253 
L 48.309348 288.254757 
L 46.905435 288.256192 
L 45.501522 288.257564 
L 44.097609 288.258873 
L 42.693696 288.260124 
L 41.289783 288.261319 
L 39.88587 288.262459 
L 38.481956 288.263549 
L 37.078043 288.264589 
L 35.67413 288.265583 
L 34.270217 288.266532 
L 32.866304 288.267438 
L 31.462391 288.268303 
L 30.058478 288.26913 
L 28.654565 288.269919 
L 27.250652 288.270673 
L 25.846739 288.271393 
L 24.442826 288.27208 
L 23.038913 288.272737 
L 21.635 288.273364 
L 20.231087 288.273963 
L 18.827174 288.274534 
L 17.423261 288.275081 
L 16.019348 288.275602 
L 14.615435 288.2761 
L 13.211522 288.276576 
L 11.807609 288.27703 
L 10.403695 288.277464 
L 8.999782 288.277878 
L 7.595869 288.278274 
L 6.191956 288.278652 
L 4.788043 288.279013 
L 3.38413 288.279357 
L 1.980217 288.279686 
L 0.576304 288.280001 
L -0.827609 288.280301 
L -2.231522 288.280587 
L -3.635435 288.280861 
L -5.039348 288.281122 
L -6.443261 288.281372 
L -7.847174 288.281611 
L -9.251087 288.281838 
L -10.655 288.282056 
L -12.058913 288.282263 
L -13.462826 288.282462 
L -14.866739 288.282651 
L -16.270652 288.282832 
z
" style="fill:#aa765b;fill-opacity:0.9;stroke:#aa765b;stroke-opacity:0.9;"/>
   </g>
   <g id="patch_3">
    <path d="M 53.925 301.5 
L 53.925 10.8 
" style="fill:none;stroke:#000000;stroke-linecap:square;stroke-linejoin:miter;stroke-width:0.8;"/>
   </g>
   <g id="patch_4">
    <path d="M 347.068451 301.5 
L 347.068451 10.8 
" style="fill:none;stroke:#000000;stroke-linecap:square;stroke-linejoin:miter;stroke-width:0.8;"/>
   </g>
   <g id="patch_5">
    <path d="M 53.925 301.5 
L 347.068451 301.5 
" style="fill:none;stroke:#000000;stroke-linecap:square;stroke-linejoin:miter;stroke-width:0.8;"/>
   </g>
   <g id="patch_6">
    <path d="M 53.925 10.8 
L 347.068451 10.8 
" style="fill:none;stroke:#000000;stroke-linecap:square;stroke-linejoin:miter;stroke-width:0.8;"/>
   </g>
   <g id="PolyCollection_3">
    <path clip-path="url(#p50b7f52908)" d="M -16.270652 288.192485 
L -16.270652 288.238401 
L -14.866739 288.236127 
L -13.462826 288.233747 
L -12.058913 288.231255 
L -10.655 288.228646 
L -9.251087 288.225914 
L -7.847174 288.223053 
L -6.443261 288.220058 
L -5.039348 288.216922 
L -3.635435 288.213638 
L -2.231522 288.2102 
L -0.827609 288.206601 
L 0.576304 288.202832 
L 1.980217 288.198886 
L 3.38413 288.194754 
L 4.788043 288.190429 
L 6.191956 288.1859 
L 7.595869 288.181158 
L 8.999782 288.176194 
L 10.403695 288.170996 
L 11.807609 288.165554 
L 13.211522 288.159857 
L 14.615435 288.153893 
L 16.019348 288.147648 
L 17.423261 288.14111 
L 18.827174 288.134266 
L 20.231087 288.1271 
L 21.635 288.119598 
L 23.038913 288.111745 
L 24.442826 288.103524 
L 25.846739 288.094917 
L 27.250652 288.085907 
L 28.654565 288.076475 
L 30.058478 288.066601 
L 31.462391 288.056265 
L 32.866304 288.045445 
L 34.270217 288.034119 
L 35.67413 288.022263 
L 37.078043 288.009854 
L 38.481956 287.996864 
L 39.88587 287.983267 
L 41.289783 287.969036 
L 42.693696 287.95414 
L 44.097609 287.938549 
L 45.501522 287.922232 
L 46.905435 287.905154 
L 48.309348 287.88728 
L 49.713261 287.868574 
L 51.117174 287.848998 
L 52.521087 287.828511 
L 53.925 287.807073 
L 55.328913 287.784639 
L 56.732826 287.761163 
L 58.136739 287.736599 
L 59.540652 287.710897 
L 60.944565 287.684004 
L 62.348478 287.655868 
L 63.752391 287.62643 
L 65.156304 287.595634 
L 66.560217 287.563416 
L 67.96413 287.529713 
L 69.368044 287.494459 
L 70.771957 287.457582 
L 72.17587 287.419012 
L 73.579783 287.378672 
L 74.983696 287.336483 
L 76.387609 287.292364 
L 77.791522 287.246227 
L 79.195435 287.197985 
L 80.599348 287.147545 
L 82.003261 287.09481 
L 83.407174 287.03968 
L 84.811087 286.982049 
L 86.215 286.92181 
L 87.618913 286.85885 
L 89.022826 286.793052 
L 90.426739 286.724293 
L 91.830652 286.652447 
L 93.234565 286.577383 
L 94.638478 286.498966 
L 96.042391 286.417053 
L 97.446305 286.331499 
L 98.850218 286.242152 
L 100.254131 286.148855 
L 101.658044 286.051447 
L 103.061957 285.94976 
L 104.46587 285.84362 
L 105.869783 285.732849 
L 107.273696 285.617262 
L 108.677609 285.496669 
L 110.081522 285.370873 
L 111.485435 285.239673 
L 112.889348 285.102862 
L 114.293261 284.960225 
L 115.697174 284.811363 
L 117.101087 284.656161 
L 118.505 284.494427 
L 119.908913 284.325922 
L 121.312826 284.150403 
L 122.716739 283.96762 
L 124.120652 283.777319 
L 125.524566 283.579241 
L 126.928479 283.373123 
L 128.332392 283.158696 
L 129.736305 282.935689 
L 131.140218 282.703828 
L 132.544131 282.462836 
L 133.948044 282.212433 
L 135.351957 281.952339 
L 136.75587 281.682271 
L 138.159783 281.401949 
L 139.563696 281.11109 
L 140.967609 280.809416 
L 142.371522 280.49665 
L 143.775435 280.172519 
L 145.179348 279.836755 
L 146.583261 279.489096 
L 147.987174 279.129286 
L 149.391087 278.757079 
L 150.795 278.372238 
L 152.198913 277.974539 
L 153.602827 277.563768 
L 155.00674 277.139727 
L 156.410653 276.702236 
L 157.814566 276.251129 
L 159.218479 275.786262 
L 160.622392 275.307511 
L 162.026305 274.814774 
L 163.430218 274.307977 
L 164.834131 273.786788 
L 166.238044 273.251431 
L 167.641957 272.701917 
L 169.04587 272.138282 
L 170.449783 271.560596 
L 171.853696 270.973159 
L 173.257609 270.38076 
L 174.661522 269.7759 
L 176.065435 269.158843 
L 177.469348 268.52989 
L 178.873261 267.873192 
L 180.277174 267.201572 
L 181.681088 266.517585 
L 183.085001 265.821631 
L 184.488914 265.114149 
L 185.892827 264.395618 
L 187.29674 263.666558 
L 188.700653 262.927524 
L 190.104566 262.184109 
L 191.508479 261.441 
L 192.912392 260.690734 
L 194.316305 259.934016 
L 195.720218 259.207232 
L 197.124131 258.513792 
L 198.528044 257.818801 
L 199.931957 257.021242 
L 201.33587 256.215192 
L 202.739783 255.4126 
L 204.143696 254.602973 
L 205.547609 253.883018 
L 206.951522 253.219868 
L 208.355435 252.474626 
L 209.759348 251.701427 
L 211.163262 250.930901 
L 212.567175 250.163983 
L 213.971088 249.452769 
L 215.375001 248.678783 
L 216.778914 247.93232 
L 218.182827 247.238768 
L 219.58674 246.578668 
L 220.990653 245.928148 
L 222.394566 245.283994 
L 223.798479 244.595928 
L 225.202392 243.900731 
L 226.606305 243.311131 
L 228.010218 242.572792 
L 229.414131 241.872265 
L 230.818044 241.355284 
L 232.221957 240.82263 
L 233.62587 240.331088 
L 235.029783 239.902147 
L 236.433696 239.403626 
L 237.837609 238.952905 
L 239.241523 238.495585 
L 240.645436 238.080433 
L 242.049349 237.725258 
L 243.453262 237.374275 
L 244.857175 236.942335 
L 246.261088 236.578745 
L 247.665001 236.207756 
L 249.068914 235.832092 
L 250.472827 235.482714 
L 251.87674 235.182811 
L 253.280653 234.959815 
L 254.684566 234.720543 
L 256.088479 234.312742 
L 257.492392 234.017795 
L 258.896305 233.851514 
L 260.300218 233.569839 
L 261.704131 233.277933 
L 263.108044 233.086305 
L 264.511957 232.921018 
L 265.91587 232.762239 
L 267.319784 232.588243 
L 268.723697 232.391996 
L 270.12761 232.205124 
L 271.531523 232.027216 
L 272.935436 231.871667 
L 274.339349 231.751718 
L 275.743262 231.636689 
L 277.147175 231.5264 
L 278.551088 231.420035 
L 279.955001 231.316915 
L 281.358914 231.218085 
L 282.762827 231.123755 
L 284.16674 231.035112 
L 285.570653 230.950201 
L 286.974566 230.86884 
L 288.378479 230.790588 
L 289.782392 230.715659 
L 291.186305 230.64392 
L 292.590218 230.575242 
L 293.994131 230.509502 
L 295.398045 230.449931 
L 296.801958 230.3913 
L 298.205871 230.334981 
L 299.609784 230.280071 
L 301.013697 230.227534 
L 302.41761 230.177274 
L 303.821523 230.129194 
L 305.225436 230.083204 
L 306.629349 230.038917 
L 308.033262 229.995446 
L 309.437175 229.95387 
L 310.841088 229.915487 
L 312.245001 229.879002 
L 313.648914 229.844115 
L 315.052827 229.81076 
L 316.45674 229.778871 
L 317.860653 229.748384 
L 319.264566 229.71924 
L 320.668479 229.69138 
L 322.072392 229.66475 
L 323.476305 229.639295 
L 324.880219 229.614965 
L 326.284132 229.591712 
L 327.688045 229.569488 
L 329.091958 229.548112 
L 330.495871 229.527642 
L 331.899784 229.508081 
L 333.303697 229.489387 
L 334.70761 229.471524 
L 336.111523 229.454455 
L 337.515436 229.438144 
L 338.919349 229.42256 
L 340.323262 229.407669 
L 341.727175 229.393441 
L 343.131088 229.379847 
L 344.535001 229.366859 
L 345.938914 229.354451 
L 347.342827 229.342596 
L 348.74674 229.33127 
L 350.150653 229.320449 
L 351.554566 229.310112 
L 352.95848 229.300237 
L 354.362393 229.290803 
L 355.766306 229.281792 
L 357.170219 229.273183 
L 358.574132 229.264959 
L 359.978045 229.257103 
L 361.381958 229.249599 
L 362.785871 229.24243 
L 364.189784 229.235583 
L 365.593697 229.229043 
L 366.99761 229.222795 
L 368.401523 229.216827 
L 369.805436 229.211127 
L 371.209349 229.205683 
L 372.613262 229.200482 
L 374.017175 229.195515 
L 375.421088 229.19077 
L 376.825001 229.186239 
L 378.228914 229.18191 
L 379.632827 229.177776 
L 381.036741 229.173828 
L 382.440654 229.170056 
L 383.844567 229.166454 
L 385.24848 229.163014 
L 386.652393 229.159728 
L 388.056306 229.156589 
L 389.460219 229.153592 
L 390.864132 229.150729 
L 392.268045 229.147995 
L 393.671958 229.145383 
L 395.075871 229.142889 
L 396.479784 229.140507 
L 397.883697 229.138232 
L 399.28761 229.13606 
L 400.691523 229.133984 
L 402.095436 229.132003 
L 403.499349 229.13011 
L 404.903262 229.128302 
L 404.903262 218.364158 
L 404.903262 218.364158 
L 403.499349 218.368455 
L 402.095436 218.372953 
L 400.691523 218.377663 
L 399.28761 218.382594 
L 397.883697 218.387756 
L 396.479784 218.393161 
L 395.075871 218.39882 
L 393.671958 218.404745 
L 392.268045 218.410948 
L 390.864132 218.417442 
L 389.460219 218.424241 
L 388.056306 218.431358 
L 386.652393 218.43881 
L 385.24848 218.446611 
L 383.844567 218.454778 
L 382.440654 218.463328 
L 381.036741 218.472278 
L 379.632827 218.481648 
L 378.228914 218.491456 
L 376.825001 218.501724 
L 375.421088 218.512473 
L 374.017175 218.523725 
L 372.613262 218.535503 
L 371.209349 218.547832 
L 369.805436 218.560737 
L 368.401523 218.574245 
L 366.99761 218.588385 
L 365.593697 218.603184 
L 364.189784 218.618674 
L 362.785871 218.634887 
L 361.381958 218.651856 
L 359.978045 218.669616 
L 358.574132 218.688203 
L 357.170219 218.707655 
L 355.766306 218.728013 
L 354.362393 218.749317 
L 352.95848 218.771611 
L 351.554566 218.794941 
L 350.150653 218.819353 
L 348.74674 218.844897 
L 347.342827 218.871626 
L 345.938914 218.899591 
L 344.535001 218.928851 
L 343.131088 218.959463 
L 341.727175 218.991489 
L 340.323262 219.024992 
L 338.919349 219.061206 
L 337.515436 219.096204 
L 336.111523 219.133823 
L 334.70761 219.173172 
L 333.303697 219.214327 
L 331.899784 219.257369 
L 330.495871 219.302381 
L 329.091958 219.349947 
L 327.688045 219.399975 
L 326.284132 219.452283 
L 324.880219 219.506971 
L 323.476305 219.564144 
L 322.072392 219.623909 
L 320.668479 219.686379 
L 319.264566 219.751672 
L 317.860653 219.819908 
L 316.45674 219.891216 
L 315.052827 219.965724 
L 313.648914 220.043571 
L 312.245001 220.124896 
L 310.841088 220.21206 
L 309.437175 220.306394 
L 308.033262 220.404894 
L 306.629349 220.50773 
L 305.225436 220.615079 
L 303.821523 220.727124 
L 302.41761 220.844052 
L 301.013697 220.951929 
L 299.609784 221.062265 
L 298.205871 221.177413 
L 296.801958 221.297566 
L 295.398045 221.426412 
L 293.994131 221.567271 
L 292.590218 221.696407 
L 291.186305 221.845382 
L 289.782392 222.01834 
L 288.378479 222.198302 
L 286.974566 222.38477 
L 285.570653 222.578902 
L 284.16674 222.738162 
L 282.762827 222.935083 
L 281.358914 223.14002 
L 279.955001 223.359639 
L 278.551088 223.592988 
L 277.147175 223.803691 
L 275.743262 224.068976 
L 274.339349 224.349148 
L 272.935436 224.557526 
L 271.531523 224.848008 
L 270.12761 225.09251 
L 268.723697 225.352678 
L 267.319784 225.583187 
L 265.91587 225.812539 
L 264.511957 226.049605 
L 263.108044 226.29609 
L 261.704131 226.580961 
L 260.300218 226.845645 
L 258.896305 227.132414 
L 257.492392 227.479152 
L 256.088479 227.790164 
L 254.684566 228.146819 
L 253.280653 228.450805 
L 251.87674 228.79281 
L 250.472827 229.150923 
L 249.068914 229.4371 
L 247.665001 229.723202 
L 246.261088 230.156907 
L 244.857175 230.511125 
L 243.453262 230.891054 
L 242.049349 231.349259 
L 240.645436 231.824174 
L 239.241523 232.31883 
L 237.837609 232.823272 
L 236.433696 233.345021 
L 235.029783 233.850039 
L 233.62587 234.240509 
L 232.221957 234.643421 
L 230.818044 235.181018 
L 229.414131 235.609908 
L 228.010218 236.091817 
L 226.606305 236.646597 
L 225.202392 237.219817 
L 223.798479 237.808727 
L 222.394566 238.411007 
L 220.990653 238.889886 
L 219.58674 239.379615 
L 218.182827 239.940592 
L 216.778914 240.541332 
L 215.375001 241.229815 
L 213.971088 241.788629 
L 212.567175 242.362386 
L 211.163262 242.956548 
L 209.759348 243.545753 
L 208.355435 244.193909 
L 206.951522 244.81553 
L 205.547609 245.452726 
L 204.143696 246.100984 
L 202.739783 246.752214 
L 201.33587 247.394106 
L 199.931957 247.946348 
L 198.528044 248.59214 
L 197.124131 249.227075 
L 195.720218 249.858131 
L 194.316305 250.501244 
L 192.912392 251.152338 
L 191.508479 251.825293 
L 190.104566 252.56165 
L 188.700653 253.302826 
L 187.29674 253.979655 
L 185.892827 254.640603 
L 184.488914 255.378971 
L 183.085001 256.120838 
L 181.681088 256.862644 
L 180.277174 257.605257 
L 178.873261 258.346491 
L 177.469348 259.114077 
L 176.065435 259.878866 
L 174.661522 260.635529 
L 173.257609 261.345734 
L 171.853696 262.051331 
L 170.449783 262.751625 
L 169.04587 263.445941 
L 167.641957 264.133631 
L 166.238044 264.81407 
L 164.834131 265.487409 
L 163.430218 266.160795 
L 162.026305 266.818808 
L 160.622392 267.45639 
L 159.218479 268.085811 
L 157.814566 268.710623 
L 156.410653 269.324755 
L 155.00674 269.92791 
L 153.602827 270.520218 
L 152.198913 271.100816 
L 150.795 271.669451 
L 149.391087 272.228754 
L 147.987174 272.776882 
L 146.583261 273.312119 
L 145.179348 273.834368 
L 143.775435 274.343562 
L 142.371522 274.839665 
L 140.967609 275.322669 
L 139.563696 275.792595 
L 138.159783 276.249489 
L 136.75587 276.693421 
L 135.351957 277.124484 
L 133.948044 277.542792 
L 132.544131 277.94848 
L 131.140218 278.341698 
L 129.736305 278.722616 
L 128.332392 279.091417 
L 126.928479 279.441378 
L 125.524566 279.779033 
L 124.120652 280.106033 
L 122.716739 280.422544 
L 121.312826 280.728742 
L 119.908913 281.027119 
L 118.505 281.317286 
L 117.101087 281.597266 
L 115.697174 281.867303 
L 114.293261 282.127648 
L 112.889348 282.37855 
L 111.485435 282.620263 
L 110.081522 282.853041 
L 108.677609 283.077135 
L 107.273696 283.2928 
L 105.869783 283.500285 
L 104.46587 283.69984 
L 103.061957 283.891711 
L 101.658044 284.076142 
L 100.254131 284.253372 
L 98.850218 284.423639 
L 97.446305 284.587174 
L 96.042391 284.744207 
L 94.638478 284.894959 
L 93.234565 285.039651 
L 91.830652 285.178496 
L 90.426739 285.311708 
L 89.022826 285.439512 
L 87.618913 285.562077 
L 86.215 285.679596 
L 84.811087 285.792257 
L 83.407174 285.900243 
L 82.003261 286.003732 
L 80.599348 286.102896 
L 79.195435 286.197902 
L 77.791522 286.288911 
L 76.387609 286.37608 
L 74.983696 286.45956 
L 73.579783 286.539498 
L 72.17587 286.616035 
L 70.771957 286.689307 
L 69.368044 286.759445 
L 67.96413 286.826578 
L 66.560217 286.890827 
L 65.156304 286.952311 
L 63.752391 287.011143 
L 62.348478 287.067433 
L 60.944565 287.121286 
L 59.540652 287.172803 
L 58.136739 287.222083 
L 56.732826 287.269218 
L 55.328913 287.3143 
L 53.925 287.357414 
L 52.521087 287.398644 
L 51.117174 287.438069 
L 49.713261 287.475768 
L 48.309348 287.511813 
L 46.905435 287.546274 
L 45.501522 287.579221 
L 44.097609 287.610717 
L 42.693696 287.640826 
L 41.289783 287.669608 
L 39.88587 287.697118 
L 38.481956 287.723414 
L 37.078043 287.748546 
L 35.67413 287.772567 
L 34.270217 287.795524 
L 32.866304 287.817463 
L 31.462391 287.83843 
L 30.058478 287.858466 
L 28.654565 287.877612 
L 27.250652 287.895908 
L 25.846739 287.91339 
L 24.442826 287.930095 
L 23.038913 287.946056 
L 21.635 287.961306 
L 20.231087 287.975877 
L 18.827174 287.989799 
L 17.423261 288.0031 
L 16.019348 288.015807 
L 14.615435 288.027948 
L 13.211522 288.039546 
L 11.807609 288.050627 
L 10.403695 288.061212 
L 8.999782 288.071324 
L 7.595869 288.080985 
L 6.191956 288.090213 
L 4.788043 288.099028 
L 3.38413 288.10745 
L 1.980217 288.115494 
L 0.576304 288.123178 
L -0.827609 288.130518 
L -2.231522 288.137529 
L -3.635435 288.144226 
L -5.039348 288.150623 
L -6.443261 288.156734 
L -7.847174 288.16257 
L -9.251087 288.168145 
L -10.655 288.17347 
L -12.058913 288.178556 
L -13.462826 288.183414 
L -14.866739 288.188054 
L -16.270652 288.192485 
z
" style="fill:#59aa84;fill-opacity:0.9;stroke:#59aa84;stroke-opacity:0.9;"/>
   </g>
   <g id="PolyCollection_4">
    <path clip-path="url(#p50b7f52908)" d="M -16.270652 288.253547 
L -16.270652 288.261885 
L -14.866739 288.260718 
L -13.462826 288.259495 
L -12.058913 288.258214 
L -10.655 288.256873 
L -9.251087 288.255469 
L -7.847174 288.253999 
L -6.443261 288.252459 
L -5.039348 288.250847 
L -3.635435 288.249159 
L -2.231522 288.247392 
L -0.827609 288.245541 
L 0.576304 288.243603 
L 1.980217 288.241573 
L 3.38413 288.239448 
L 4.788043 288.237223 
L 6.191956 288.234894 
L 7.595869 288.232454 
L 8.999782 288.229899 
L 10.403695 288.227224 
L 11.807609 288.224424 
L 13.211522 288.221491 
L 14.615435 288.21842 
L 16.019348 288.215204 
L 17.423261 288.211837 
L 18.827174 288.208311 
L 20.231087 288.20462 
L 21.635 288.200754 
L 23.038913 288.196706 
L 24.442826 288.192468 
L 25.846739 288.18803 
L 27.250652 288.183383 
L 28.654565 288.178517 
L 30.058478 288.173423 
L 31.462391 288.168088 
L 32.866304 288.162502 
L 34.270217 288.156653 
L 35.67413 288.150529 
L 37.078043 288.144116 
L 38.481956 288.137402 
L 39.88587 288.130371 
L 41.289783 288.123009 
L 42.693696 288.115301 
L 44.097609 288.107231 
L 45.501522 288.09878 
L 46.905435 288.089932 
L 48.309348 288.080667 
L 49.713261 288.070966 
L 51.117174 288.060809 
L 52.521087 288.050175 
L 53.925 288.039039 
L 55.328913 288.027381 
L 56.732826 288.015173 
L 58.136739 288.002392 
L 59.540652 287.98901 
L 60.944565 287.974998 
L 62.348478 287.960328 
L 63.752391 287.944968 
L 65.156304 287.928886 
L 66.560217 287.912048 
L 67.96413 287.894419 
L 69.368044 287.875962 
L 70.771957 287.856638 
L 72.17587 287.836406 
L 73.579783 287.815224 
L 74.983696 287.793047 
L 76.387609 287.769829 
L 77.791522 287.745522 
L 79.195435 287.720074 
L 80.599348 287.693431 
L 82.003261 287.665539 
L 83.407174 287.636339 
L 84.811087 287.605769 
L 86.215 287.573767 
L 87.618913 287.540265 
L 89.022826 287.505193 
L 90.426739 287.468478 
L 91.830652 287.430044 
L 93.234565 287.389811 
L 94.638478 287.347695 
L 96.042391 287.303609 
L 97.446305 287.25746 
L 98.850218 287.209155 
L 100.254131 287.158592 
L 101.658044 287.105667 
L 103.061957 287.050271 
L 104.46587 286.99229 
L 105.869783 286.931603 
L 107.273696 286.868087 
L 108.677609 286.801611 
L 110.081522 286.732038 
L 111.485435 286.659226 
L 112.889348 286.583026 
L 114.293261 286.503282 
L 115.697174 286.419833 
L 117.101087 286.332509 
L 118.505 286.241132 
L 119.908913 286.145517 
L 121.312826 286.045472 
L 122.716739 285.940794 
L 124.120652 285.831273 
L 125.524566 285.71669 
L 126.928479 285.596815 
L 128.332392 285.47141 
L 129.736305 285.340224 
L 131.140218 285.202998 
L 132.544131 285.059461 
L 133.948044 284.909329 
L 135.351957 284.752309 
L 136.75587 284.588094 
L 138.159783 284.416362 
L 139.563696 284.236782 
L 140.967609 284.049007 
L 142.371522 283.852675 
L 143.775435 283.647411 
L 145.179348 283.432823 
L 146.583261 283.208506 
L 147.987174 282.974037 
L 149.391087 282.728976 
L 150.795 282.472867 
L 152.198913 282.205237 
L 153.602827 281.925592 
L 155.00674 281.633424 
L 156.410653 281.328201 
L 157.814566 281.009375 
L 159.218479 280.676378 
L 160.622392 280.32862 
L 162.026305 279.965491 
L 163.430218 279.58636 
L 164.834131 279.190575 
L 166.238044 278.777462 
L 167.641957 278.346325 
L 169.04587 277.896446 
L 170.449783 277.427084 
L 171.853696 276.937477 
L 173.257609 276.426839 
L 174.661522 275.894363 
L 176.065435 275.339219 
L 177.469348 274.760554 
L 178.873261 274.157496 
L 180.277174 273.529149 
L 181.681088 272.874597 
L 183.085001 272.192905 
L 184.488914 271.483118 
L 185.892827 270.744262 
L 187.29674 269.975346 
L 188.700653 269.175366 
L 190.104566 268.343298 
L 191.508479 267.478111 
L 192.912392 266.57876 
L 194.316305 265.64419 
L 195.720218 264.673344 
L 197.124131 263.665156 
L 198.528044 262.618562 
L 199.931957 261.532499 
L 201.33587 260.40591 
L 202.739783 259.237745 
L 204.143696 258.026968 
L 205.547609 256.772559 
L 206.951522 255.473519 
L 208.355435 254.128875 
L 209.759348 252.737684 
L 211.163262 251.299041 
L 212.567175 249.812078 
L 213.971088 248.275978 
L 215.375001 246.689973 
L 216.778914 245.053357 
L 218.182827 243.365486 
L 219.58674 241.625788 
L 220.990653 239.833771 
L 222.394566 237.989023 
L 223.798479 236.091226 
L 225.202392 234.140157 
L 226.606305 232.135698 
L 228.010218 230.077838 
L 229.414131 227.966685 
L 230.818044 225.802468 
L 232.221957 223.585539 
L 233.62587 221.316387 
L 235.029783 218.995635 
L 236.433696 216.624047 
L 237.837609 214.21449 
L 239.241523 211.784019 
L 240.645436 209.309227 
L 242.049349 206.791585 
L 243.453262 204.232708 
L 244.857175 201.634353 
L 246.261088 198.998415 
L 247.665001 196.326928 
L 249.068914 193.618239 
L 250.472827 190.832409 
L 251.87674 188.010557 
L 253.280653 185.136922 
L 254.684566 182.169409 
L 256.088479 179.170002 
L 257.492392 176.294586 
L 258.896305 173.30332 
L 260.300218 170.356609 
L 261.704131 167.394062 
L 263.108044 164.390413 
L 264.511957 161.386725 
L 265.91587 158.438913 
L 267.319784 155.525878 
L 268.723697 152.532177 
L 270.12761 149.689077 
L 271.531523 146.99402 
L 272.935436 144.264571 
L 274.339349 141.756723 
L 275.743262 138.902046 
L 277.147175 135.902226 
L 278.551088 133.132226 
L 279.955001 130.388815 
L 281.358914 127.681627 
L 282.762827 124.98872 
L 284.16674 122.375201 
L 285.570653 119.85441 
L 286.974566 117.483593 
L 288.378479 114.979344 
L 289.782392 112.668063 
L 291.186305 110.495098 
L 292.590218 108.339414 
L 293.994131 106.118855 
L 295.398045 104.232716 
L 296.801958 102.279336 
L 298.205871 100.346834 
L 299.609784 98.416626 
L 301.013697 96.62925 
L 302.41761 94.844208 
L 303.821523 93.108187 
L 305.225436 91.420473 
L 306.629349 89.780774 
L 308.033262 88.192742 
L 309.437175 86.645192 
L 310.841088 85.162327 
L 312.245001 83.859311 
L 313.648914 82.567777 
L 315.052827 81.21244 
L 316.45674 79.899069 
L 317.860653 78.62916 
L 319.264566 77.502046 
L 320.668479 76.458348 
L 322.072392 75.451927 
L 323.476305 74.481833 
L 324.880219 73.547106 
L 326.284132 72.60753 
L 327.688045 71.682952 
L 329.091958 70.792555 
L 330.495871 69.93537 
L 331.899784 69.110432 
L 333.303697 68.316781 
L 334.70761 67.553465 
L 336.111523 66.819541 
L 337.515436 66.114078 
L 338.919349 65.435207 
L 340.323262 64.780072 
L 341.727175 64.150817 
L 343.131088 63.546566 
L 344.535001 62.966462 
L 345.938914 62.409663 
L 347.342827 61.87535 
L 348.74674 61.362719 
L 350.150653 60.870989 
L 351.554566 60.399396 
L 352.95848 59.947199 
L 354.362393 59.513675 
L 355.766306 59.098124 
L 357.170219 58.699863 
L 358.574132 58.318233 
L 359.978045 57.952593 
L 361.381958 57.602322 
L 362.785871 57.26682 
L 364.189784 56.945505 
L 365.593697 56.639699 
L 366.99761 56.379066 
L 368.401523 56.129614 
L 369.805436 55.875454 
L 371.209349 55.607307 
L 372.613262 55.35065 
L 374.017175 55.105015 
L 375.421088 54.86995 
L 376.825001 54.645022 
L 378.228914 54.429811 
L 379.632827 54.223916 
L 381.036741 54.026948 
L 382.440654 53.846361 
L 383.844567 53.674292 
L 385.24848 53.509732 
L 386.652393 53.352362 
L 388.056306 53.201878 
L 389.460219 53.057987 
L 390.864132 52.920407 
L 392.268045 52.788869 
L 393.671958 52.663113 
L 395.075871 52.542892 
L 396.479784 52.427968 
L 397.883697 52.31811 
L 399.28761 52.213102 
L 400.691523 52.112733 
L 402.095436 52.016801 
L 403.499349 51.925114 
L 404.903262 51.837487 
L 404.903262 24.013636 
L 404.903262 24.013636 
L 403.499349 24.134111 
L 402.095436 24.260147 
L 400.691523 24.391993 
L 399.28761 24.529912 
L 397.883697 24.674176 
L 396.479784 24.825071 
L 395.075871 24.982891 
L 393.671958 25.147947 
L 392.268045 25.32056 
L 390.864132 25.502649 
L 389.460219 25.69505 
L 388.056306 25.896217 
L 386.652393 26.106534 
L 385.24848 26.326403 
L 383.844567 26.556383 
L 382.440654 26.801648 
L 381.036741 27.077714 
L 379.632827 27.366166 
L 378.228914 27.66753 
L 376.825001 27.982351 
L 375.421088 28.311195 
L 374.017175 28.654646 
L 372.613262 29.013313 
L 371.209349 29.387822 
L 369.805436 29.778823 
L 368.401523 30.186987 
L 366.99761 30.613007 
L 365.593697 31.057599 
L 364.189784 31.521503 
L 362.785871 32.005479 
L 361.381958 32.510311 
L 359.978045 33.026243 
L 358.574132 33.505541 
L 357.170219 34.005499 
L 355.766306 34.526916 
L 354.362393 35.070615 
L 352.95848 35.683582 
L 351.554566 36.385119 
L 350.150653 37.115548 
L 348.74674 37.755262 
L 347.342827 38.415091 
L 345.938914 39.102302 
L 344.535001 39.81786 
L 343.131088 40.56275 
L 341.727175 41.34668 
L 340.323262 42.230302 
L 338.919349 43.263688 
L 337.515436 44.336496 
L 336.111523 45.320747 
L 334.70761 46.300734 
L 333.303697 47.318468 
L 331.899784 48.33413 
L 330.495871 49.3661 
L 329.091958 50.436306 
L 327.688045 51.475578 
L 326.284132 52.554128 
L 324.880219 53.673017 
L 323.476305 54.978135 
L 322.072392 56.346297 
L 320.668479 57.729968 
L 319.264566 59.099928 
L 317.860653 60.528619 
L 316.45674 61.998097 
L 315.052827 63.502773 
L 313.648914 65.061049 
L 312.245001 66.675219 
L 310.841088 68.391566 
L 309.437175 70.112132 
L 308.033262 71.884995 
L 306.629349 73.71079 
L 305.225436 75.591271 
L 303.821523 77.588104 
L 302.41761 79.707753 
L 301.013697 81.714669 
L 299.609784 83.849568 
L 298.205871 85.888474 
L 296.801958 87.998392 
L 295.398045 90.128285 
L 293.994131 92.324608 
L 292.590218 94.564064 
L 291.186305 96.869322 
L 289.782392 99.380512 
L 288.378479 101.70188 
L 286.974566 104.143706 
L 285.570653 106.597487 
L 284.16674 109.095003 
L 282.762827 111.461608 
L 281.358914 113.951589 
L 279.955001 116.413119 
L 278.551088 118.934376 
L 277.147175 121.360711 
L 275.743262 124.149227 
L 274.339349 126.842936 
L 272.935436 129.56466 
L 271.531523 132.297714 
L 270.12761 135.022452 
L 268.723697 137.794174 
L 267.319784 140.59107 
L 265.91587 143.410482 
L 264.511957 146.382756 
L 263.108044 149.377073 
L 261.704131 152.295194 
L 260.300218 155.181145 
L 258.896305 158.074677 
L 257.492392 160.972741 
L 256.088479 163.872272 
L 254.684566 166.757675 
L 253.280653 169.524642 
L 251.87674 172.2901 
L 250.472827 175.187733 
L 249.068914 178.091537 
L 247.665001 180.97656 
L 246.261088 183.693687 
L 244.857175 186.496543 
L 243.453262 189.22963 
L 242.049349 191.934252 
L 240.645436 194.649183 
L 239.241523 197.332758 
L 237.837609 199.984127 
L 236.433696 202.600589 
L 235.029783 205.181625 
L 233.62587 207.724525 
L 232.221957 210.225655 
L 230.818044 212.683448 
L 229.414131 215.096486 
L 228.010218 217.441334 
L 226.606305 219.694918 
L 225.202392 221.90599 
L 223.798479 224.073465 
L 222.394566 226.196391 
L 220.990653 228.273946 
L 219.58674 230.30544 
L 218.182827 232.290304 
L 216.778914 234.267988 
L 215.375001 236.19732 
L 213.971088 238.075188 
L 212.567175 239.901713 
L 211.163262 241.677116 
L 209.759348 243.401709 
L 208.355435 245.077027 
L 206.951522 246.702673 
L 205.547609 248.278798 
L 204.143696 249.806037 
L 202.739783 251.285083 
L 201.33587 252.716687 
L 199.931957 254.101652 
L 198.528044 255.432301 
L 197.124131 256.712382 
L 195.720218 257.95007 
L 194.316305 259.146188 
L 192.912392 260.301592 
L 191.508479 261.417161 
L 190.104566 262.493798 
L 188.700653 263.532424 
L 187.29674 264.533973 
L 185.892827 265.499391 
L 184.488914 266.429627 
L 183.085001 267.325638 
L 181.681088 268.18838 
L 180.277174 269.018808 
L 178.873261 269.817872 
L 177.469348 270.589801 
L 176.065435 271.332776 
L 174.661522 272.046716 
L 173.257609 272.732579 
L 171.853696 273.391303 
L 170.449783 274.02381 
L 169.04587 274.631004 
L 167.641957 275.213768 
L 166.238044 275.772966 
L 164.834131 276.309441 
L 163.430218 276.824016 
L 162.026305 277.317493 
L 160.622392 277.790651 
L 159.218479 278.244248 
L 157.814566 278.679059 
L 156.410653 279.09578 
L 155.00674 279.495078 
L 153.602827 279.877626 
L 152.198913 280.243951 
L 150.795 280.594351 
L 149.391087 280.929968 
L 147.987174 281.251385 
L 146.583261 281.559164 
L 145.179348 281.85385 
L 143.775435 282.135968 
L 142.371522 282.406024 
L 140.967609 282.664507 
L 139.563696 282.911889 
L 138.159783 283.148624 
L 136.75587 283.37515 
L 135.351957 283.591888 
L 133.948044 283.799244 
L 132.544131 283.997608 
L 131.140218 284.187356 
L 129.736305 284.368849 
L 128.332392 284.542434 
L 126.928479 284.708444 
L 125.524566 284.8672 
L 124.120652 285.01901 
L 122.716739 285.164169 
L 121.312826 285.30296 
L 119.908913 285.435657 
L 118.505 285.562519 
L 117.101087 285.683799 
L 115.697174 285.799736 
L 114.293261 285.91056 
L 112.889348 286.016493 
L 111.485435 286.117746 
L 110.081522 286.214522 
L 108.677609 286.307016 
L 107.273696 286.395414 
L 105.869783 286.479895 
L 104.46587 286.560629 
L 103.061957 286.637781 
L 101.658044 286.711507 
L 100.254131 286.781957 
L 98.850218 286.849276 
L 97.446305 286.9136 
L 96.042391 286.975061 
L 94.638478 287.033785 
L 93.234565 287.089894 
L 91.830652 287.143501 
L 90.426739 287.194719 
L 89.022826 287.243651 
L 87.618913 287.2904 
L 86.215 287.335062 
L 84.811087 287.37773 
L 83.407174 287.418491 
L 82.003261 287.457431 
L 80.599348 287.49463 
L 79.195435 287.530165 
L 77.791522 287.564111 
L 76.387609 287.596538 
L 74.983696 287.627514 
L 73.579783 287.657103 
L 72.17587 287.685368 
L 70.771957 287.712366 
L 69.368044 287.738155 
L 67.96413 287.762788 
L 66.560217 287.786318 
L 65.156304 287.808793 
L 63.752391 287.83026 
L 62.348478 287.850764 
L 60.944565 287.870349 
L 59.540652 287.889056 
L 58.136739 287.906923 
L 56.732826 287.923989 
L 55.328913 287.940289 
L 53.925 287.955857 
L 52.521087 287.970726 
L 51.117174 287.984928 
L 49.713261 287.998493 
L 48.309348 288.011448 
L 46.905435 288.023821 
L 45.501522 288.035639 
L 44.097609 288.046926 
L 42.693696 288.057706 
L 41.289783 288.068002 
L 39.88587 288.077835 
L 38.481956 288.087226 
L 37.078043 288.096195 
L 35.67413 288.104762 
L 34.270217 288.112943 
L 32.866304 288.120757 
L 31.462391 288.128219 
L 30.058478 288.135346 
L 28.654565 288.142153 
L 27.250652 288.148653 
L 25.846739 288.154862 
L 24.442826 288.160791 
L 23.038913 288.166453 
L 21.635 288.171861 
L 20.231087 288.177026 
L 18.827174 288.181959 
L 17.423261 288.18667 
L 16.019348 288.191169 
L 14.615435 288.195465 
L 13.211522 288.199569 
L 11.807609 288.203487 
L 10.403695 288.20723 
L 8.999782 288.210804 
L 7.595869 288.214218 
L 6.191956 288.217478 
L 4.788043 288.220591 
L 3.38413 288.223564 
L 1.980217 288.226404 
L 0.576304 288.229115 
L -0.827609 288.231705 
L -2.231522 288.234179 
L -3.635435 288.236541 
L -5.039348 288.238796 
L -6.443261 288.24095 
L -7.847174 288.243008 
L -9.251087 288.244973 
L -10.655 288.246849 
L -12.058913 288.248641 
L -13.462826 288.250352 
L -14.866739 288.251987 
L -16.270652 288.253547 
z
" style="fill:#8f84ae;fill-opacity:0.9;stroke:#8f84ae;stroke-opacity:0.9;"/>
   </g>
  </g>
 </g>
 <defs>
  <clipPath id="p50b7f52908">
   <rect height="290.7" width="293.143451" x="53.925" y="10.8"/>
  </clipPath>
 </defs>
</svg>
