<?xml version="1.0" encoding="utf-8" standalone="no"?>
<!DOCTYPE svg PUBLIC "-//W3C//DTD SVG 1.1//EN"
  "http://www.w3.org/Graphics/SVG/1.1/DTD/svg11.dtd">
<!-- Created with matplotlib (https://matplotlib.org/) -->
<svg height="360pt" version="1.1" viewBox="0 0 676.8 360" width="676.8pt" xmlns="http://www.w3.org/2000/svg" xmlns:xlink="http://www.w3.org/1999/xlink">
 <metadata>
  <rdf:RDF xmlns:cc="http://creativecommons.org/ns#" xmlns:dc="http://purl.org/dc/elements/1.1/" xmlns:rdf="http://www.w3.org/1999/02/22-rdf-syntax-ns#">
   <cc:Work>
    <dc:type rdf:resource="http://purl.org/dc/dcmitype/StillImage"/>
    <dc:date>2022-02-13T21:05:26.058026</dc:date>
    <dc:format>image/svg+xml</dc:format>
    <dc:creator>
     <cc:Agent>
      <dc:title>Matplotlib v3.3.4, https://matplotlib.org/</dc:title>
     </cc:Agent>
    </dc:creator>
   </cc:Work>
  </rdf:RDF>
 </metadata>
 <defs>
  <style type="text/css">*{stroke-linecap:butt;stroke-linejoin:round;}</style>
 </defs>
 <g id="figure_1">
  <g id="patch_1">
   <path d="M 0 360 
L 676.8 360 
L 676.8 0 
L 0 0 
z
" style="fill:none;"/>
  </g>
  <g id="axes_1">
   <g id="patch_2">
    <path d="M 88.3125 168.75 
L 666 168.75 
L 666 10.8 
L 88.3125 10.8 
z
" style="fill:#ffffff;"/>
   </g>
   <g id="matplotlib.axis_1">
    <g id="xtick_1">
     <g id="line2d_1">
      <defs>
       <path d="M 0 0 
L 0 -3.5 
" id="mb3a6e71ba3" style="stroke:#000000;stroke-width:0.8;"/>
      </defs>
      <g>
       <use style="stroke:#000000;stroke-width:0.8;" x="114.571023" xlink:href="#mb3a6e71ba3" y="168.75"/>
      </g>
     </g>
    </g>
    <g id="xtick_2">
     <g id="line2d_2">
      <g>
       <use style="stroke:#000000;stroke-width:0.8;" x="127.380058" xlink:href="#mb3a6e71ba3" y="168.75"/>
      </g>
     </g>
    </g>
    <g id="xtick_3">
     <g id="line2d_3">
      <g>
       <use style="stroke:#000000;stroke-width:0.8;" x="140.189094" xlink:href="#mb3a6e71ba3" y="168.75"/>
      </g>
     </g>
    </g>
    <g id="xtick_4">
     <g id="line2d_4">
      <g>
       <use style="stroke:#000000;stroke-width:0.8;" x="152.998129" xlink:href="#mb3a6e71ba3" y="168.75"/>
      </g>
     </g>
    </g>
    <g id="xtick_5">
     <g id="line2d_5">
      <g>
       <use style="stroke:#000000;stroke-width:0.8;" x="165.807165" xlink:href="#mb3a6e71ba3" y="168.75"/>
      </g>
     </g>
    </g>
    <g id="xtick_6">
     <g id="line2d_6">
      <g>
       <use style="stroke:#000000;stroke-width:0.8;" x="178.6162" xlink:href="#mb3a6e71ba3" y="168.75"/>
      </g>
     </g>
    </g>
    <g id="xtick_7">
     <g id="line2d_7">
      <g>
       <use style="stroke:#000000;stroke-width:0.8;" x="191.425236" xlink:href="#mb3a6e71ba3" y="168.75"/>
      </g>
     </g>
    </g>
    <g id="xtick_8">
     <g id="line2d_8">
      <g>
       <use style="stroke:#000000;stroke-width:0.8;" x="204.234271" xlink:href="#mb3a6e71ba3" y="168.75"/>
      </g>
     </g>
    </g>
    <g id="xtick_9">
     <g id="line2d_9">
      <g>
       <use style="stroke:#000000;stroke-width:0.8;" x="217.043307" xlink:href="#mb3a6e71ba3" y="168.75"/>
      </g>
     </g>
    </g>
    <g id="xtick_10">
     <g id="line2d_10">
      <g>
       <use style="stroke:#000000;stroke-width:0.8;" x="229.852342" xlink:href="#mb3a6e71ba3" y="168.75"/>
      </g>
     </g>
    </g>
    <g id="xtick_11">
     <g id="line2d_11">
      <g>
       <use style="stroke:#000000;stroke-width:0.8;" x="242.661377" xlink:href="#mb3a6e71ba3" y="168.75"/>
      </g>
     </g>
    </g>
    <g id="xtick_12">
     <g id="line2d_12">
      <g>
       <use style="stroke:#000000;stroke-width:0.8;" x="255.470413" xlink:href="#mb3a6e71ba3" y="168.75"/>
      </g>
     </g>
    </g>
    <g id="xtick_13">
     <g id="line2d_13">
      <g>
       <use style="stroke:#000000;stroke-width:0.8;" x="268.279448" xlink:href="#mb3a6e71ba3" y="168.75"/>
      </g>
     </g>
    </g>
    <g id="xtick_14">
     <g id="line2d_14">
      <g>
       <use style="stroke:#000000;stroke-width:0.8;" x="281.088484" xlink:href="#mb3a6e71ba3" y="168.75"/>
      </g>
     </g>
    </g>
    <g id="xtick_15">
     <g id="line2d_15">
      <g>
       <use style="stroke:#000000;stroke-width:0.8;" x="293.897519" xlink:href="#mb3a6e71ba3" y="168.75"/>
      </g>
     </g>
    </g>
    <g id="xtick_16">
     <g id="line2d_16">
      <g>
       <use style="stroke:#000000;stroke-width:0.8;" x="383.560768" xlink:href="#mb3a6e71ba3" y="168.75"/>
      </g>
     </g>
    </g>
    <g id="xtick_17">
     <g id="line2d_17">
      <g>
       <use style="stroke:#000000;stroke-width:0.8;" x="511.651123" xlink:href="#mb3a6e71ba3" y="168.75"/>
      </g>
     </g>
    </g>
    <g id="xtick_18">
     <g id="line2d_18">
      <g>
       <use style="stroke:#000000;stroke-width:0.8;" x="639.741477" xlink:href="#mb3a6e71ba3" y="168.75"/>
      </g>
     </g>
    </g>
   </g>
   <g id="matplotlib.axis_2">
    <g id="ytick_1">
     <g id="line2d_19">
      <path clip-path="url(#pfa2e43bdae)" d="M 88.3125 137.16 
L 666 137.16 
" style="fill:none;stroke:#b0b0b0;stroke-linecap:square;stroke-width:0.8;"/>
     </g>
     <g id="line2d_20">
      <defs>
       <path d="M 0 0 
L -3.5 0 
" id="m7178fcf35d" style="stroke:#000000;stroke-width:0.8;"/>
      </defs>
      <g>
       <use style="stroke:#000000;stroke-width:0.8;" x="88.3125" xlink:href="#m7178fcf35d" y="137.16"/>
      </g>
     </g>
     <g id="text_1">
      <!-- 0.5 -->
      <g transform="translate(59.0725 142.88625)scale(0.16 -0.16)">
       <defs>
        <path d="M 4.15625 35.296875 
Q 4.15625 48 6.765625 55.734375 
Q 9.375 63.484375 14.515625 67.671875 
Q 19.671875 71.875 27.484375 71.875 
Q 33.25 71.875 37.59375 69.546875 
Q 41.9375 67.234375 44.765625 62.859375 
Q 47.609375 58.5 49.21875 52.21875 
Q 50.828125 45.953125 50.828125 35.296875 
Q 50.828125 22.703125 48.234375 14.96875 
Q 45.65625 7.234375 40.5 3 
Q 35.359375 -1.21875 27.484375 -1.21875 
Q 17.140625 -1.21875 11.234375 6.203125 
Q 4.15625 15.140625 4.15625 35.296875 
z
M 13.1875 35.296875 
Q 13.1875 17.671875 17.3125 11.828125 
Q 21.4375 6 27.484375 6 
Q 33.546875 6 37.671875 11.859375 
Q 41.796875 17.71875 41.796875 35.296875 
Q 41.796875 52.984375 37.671875 58.78125 
Q 33.546875 64.59375 27.390625 64.59375 
Q 21.34375 64.59375 17.71875 59.46875 
Q 13.1875 52.9375 13.1875 35.296875 
z
" id="ArialMT-48"/>
        <path d="M 9.078125 0 
L 9.078125 10.015625 
L 19.09375 10.015625 
L 19.09375 0 
z
" id="ArialMT-46"/>
        <path d="M 4.15625 18.75 
L 13.375 19.53125 
Q 14.40625 12.796875 18.140625 9.390625 
Q 21.875 6 27.15625 6 
Q 33.5 6 37.890625 10.78125 
Q 42.28125 15.578125 42.28125 23.484375 
Q 42.28125 31 38.0625 35.34375 
Q 33.84375 39.703125 27 39.703125 
Q 22.75 39.703125 19.328125 37.765625 
Q 15.921875 35.84375 13.96875 32.765625 
L 5.71875 33.84375 
L 12.640625 70.609375 
L 48.25 70.609375 
L 48.25 62.203125 
L 19.671875 62.203125 
L 15.828125 42.96875 
Q 22.265625 47.46875 29.34375 47.46875 
Q 38.71875 47.46875 45.15625 40.96875 
Q 51.609375 34.46875 51.609375 24.265625 
Q 51.609375 14.546875 45.953125 7.46875 
Q 39.0625 -1.21875 27.15625 -1.21875 
Q 17.390625 -1.21875 11.203125 4.25 
Q 5.03125 9.71875 4.15625 18.75 
z
" id="ArialMT-53"/>
       </defs>
       <use xlink:href="#ArialMT-48"/>
       <use x="55.615234" xlink:href="#ArialMT-46"/>
       <use x="83.398438" xlink:href="#ArialMT-53"/>
      </g>
     </g>
    </g>
    <g id="ytick_2">
     <g id="line2d_21">
      <path clip-path="url(#pfa2e43bdae)" d="M 88.3125 105.57 
L 666 105.57 
" style="fill:none;stroke:#b0b0b0;stroke-linecap:square;stroke-width:0.8;"/>
     </g>
     <g id="line2d_22">
      <g>
       <use style="stroke:#000000;stroke-width:0.8;" x="88.3125" xlink:href="#m7178fcf35d" y="105.57"/>
      </g>
     </g>
     <g id="text_2">
      <!-- 1 -->
      <g transform="translate(72.415 111.29625)scale(0.16 -0.16)">
       <defs>
        <path d="M 37.25 0 
L 28.46875 0 
L 28.46875 56 
Q 25.296875 52.984375 20.140625 49.953125 
Q 14.984375 46.921875 10.890625 45.40625 
L 10.890625 53.90625 
Q 18.265625 57.375 23.78125 62.296875 
Q 29.296875 67.234375 31.59375 71.875 
L 37.25 71.875 
z
" id="ArialMT-49"/>
       </defs>
       <use xlink:href="#ArialMT-49"/>
      </g>
     </g>
    </g>
    <g id="ytick_3">
     <g id="line2d_23">
      <path clip-path="url(#pfa2e43bdae)" d="M 88.3125 73.98 
L 666 73.98 
" style="fill:none;stroke:#b0b0b0;stroke-linecap:square;stroke-width:0.8;"/>
     </g>
     <g id="line2d_24">
      <g>
       <use style="stroke:#000000;stroke-width:0.8;" x="88.3125" xlink:href="#m7178fcf35d" y="73.98"/>
      </g>
     </g>
     <g id="text_3">
      <!-- 1.5 -->
      <g transform="translate(59.0725 79.70625)scale(0.16 -0.16)">
       <use xlink:href="#ArialMT-49"/>
       <use x="55.615234" xlink:href="#ArialMT-46"/>
       <use x="83.398438" xlink:href="#ArialMT-53"/>
      </g>
     </g>
    </g>
    <g id="ytick_4">
     <g id="line2d_25">
      <path clip-path="url(#pfa2e43bdae)" d="M 88.3125 42.39 
L 666 42.39 
" style="fill:none;stroke:#b0b0b0;stroke-linecap:square;stroke-width:0.8;"/>
     </g>
     <g id="line2d_26">
      <g>
       <use style="stroke:#000000;stroke-width:0.8;" x="88.3125" xlink:href="#m7178fcf35d" y="42.39"/>
      </g>
     </g>
     <g id="text_4">
      <!-- 2 -->
      <g transform="translate(72.415 48.11625)scale(0.16 -0.16)">
       <defs>
        <path d="M 50.34375 8.453125 
L 50.34375 0 
L 3.03125 0 
Q 2.9375 3.171875 4.046875 6.109375 
Q 5.859375 10.9375 9.828125 15.625 
Q 13.8125 20.3125 21.34375 26.46875 
Q 33.015625 36.03125 37.109375 41.625 
Q 41.21875 47.21875 41.21875 52.203125 
Q 41.21875 57.421875 37.46875 61 
Q 33.734375 64.59375 27.734375 64.59375 
Q 21.390625 64.59375 17.578125 60.78125 
Q 13.765625 56.984375 13.71875 50.25 
L 4.6875 51.171875 
Q 5.609375 61.28125 11.65625 66.578125 
Q 17.71875 71.875 27.9375 71.875 
Q 38.234375 71.875 44.234375 66.15625 
Q 50.25 60.453125 50.25 52 
Q 50.25 47.703125 48.484375 43.546875 
Q 46.734375 39.40625 42.65625 34.8125 
Q 38.578125 30.21875 29.109375 22.21875 
Q 21.1875 15.578125 18.9375 13.203125 
Q 16.703125 10.84375 15.234375 8.453125 
z
" id="ArialMT-50"/>
       </defs>
       <use xlink:href="#ArialMT-50"/>
      </g>
     </g>
    </g>
    <g id="ytick_5">
     <g id="line2d_27">
      <path clip-path="url(#pfa2e43bdae)" d="M 88.3125 10.8 
L 666 10.8 
" style="fill:none;stroke:#b0b0b0;stroke-linecap:square;stroke-width:0.8;"/>
     </g>
     <g id="line2d_28">
      <defs>
       <path d="M 0 0 
L -2 0 
" id="m8e18e2a9c1" style="stroke:#000000;stroke-width:0.6;"/>
      </defs>
      <g>
       <use style="stroke:#000000;stroke-width:0.6;" x="88.3125" xlink:href="#m8e18e2a9c1" y="10.8"/>
      </g>
     </g>
    </g>
    <g id="text_5">
     <!-- Mean occupancy -->
     <g transform="translate(29.709375 165.370313)rotate(-90)scale(0.2 -0.2)">
      <defs>
       <path d="M 7.421875 0 
L 7.421875 71.578125 
L 21.6875 71.578125 
L 38.625 20.90625 
Q 40.96875 13.8125 42.046875 10.296875 
Q 43.265625 14.203125 45.84375 21.78125 
L 62.984375 71.578125 
L 75.734375 71.578125 
L 75.734375 0 
L 66.609375 0 
L 66.609375 59.90625 
L 45.796875 0 
L 37.25 0 
L 16.546875 60.9375 
L 16.546875 0 
z
" id="ArialMT-77"/>
       <path d="M 42.09375 16.703125 
L 51.171875 15.578125 
Q 49.03125 7.625 43.21875 3.21875 
Q 37.40625 -1.171875 28.375 -1.171875 
Q 17 -1.171875 10.328125 5.828125 
Q 3.65625 12.84375 3.65625 25.484375 
Q 3.65625 38.578125 10.390625 45.796875 
Q 17.140625 53.03125 27.875 53.03125 
Q 38.28125 53.03125 44.875 45.953125 
Q 51.46875 38.875 51.46875 26.03125 
Q 51.46875 25.25 51.421875 23.6875 
L 12.75 23.6875 
Q 13.234375 15.140625 17.578125 10.59375 
Q 21.921875 6.0625 28.421875 6.0625 
Q 33.25 6.0625 36.671875 8.59375 
Q 40.09375 11.140625 42.09375 16.703125 
z
M 13.234375 30.90625 
L 42.1875 30.90625 
Q 41.609375 37.453125 38.875 40.71875 
Q 34.671875 45.796875 27.984375 45.796875 
Q 21.921875 45.796875 17.796875 41.75 
Q 13.671875 37.703125 13.234375 30.90625 
z
" id="ArialMT-101"/>
       <path d="M 40.4375 6.390625 
Q 35.546875 2.25 31.03125 0.53125 
Q 26.515625 -1.171875 21.34375 -1.171875 
Q 12.796875 -1.171875 8.203125 3 
Q 3.609375 7.171875 3.609375 13.671875 
Q 3.609375 17.484375 5.34375 20.625 
Q 7.078125 23.78125 9.890625 25.6875 
Q 12.703125 27.59375 16.21875 28.5625 
Q 18.796875 29.25 24.03125 29.890625 
Q 34.671875 31.15625 39.703125 32.90625 
Q 39.75 34.71875 39.75 35.203125 
Q 39.75 40.578125 37.25 42.78125 
Q 33.890625 45.75 27.25 45.75 
Q 21.046875 45.75 18.09375 43.578125 
Q 15.140625 41.40625 13.71875 35.890625 
L 5.125 37.0625 
Q 6.296875 42.578125 8.984375 45.96875 
Q 11.671875 49.359375 16.75 51.1875 
Q 21.828125 53.03125 28.515625 53.03125 
Q 35.15625 53.03125 39.296875 51.46875 
Q 43.453125 49.90625 45.40625 47.53125 
Q 47.359375 45.171875 48.140625 41.546875 
Q 48.578125 39.3125 48.578125 33.453125 
L 48.578125 21.734375 
Q 48.578125 9.46875 49.140625 6.21875 
Q 49.703125 2.984375 51.375 0 
L 42.1875 0 
Q 40.828125 2.734375 40.4375 6.390625 
z
M 39.703125 26.03125 
Q 34.90625 24.078125 25.34375 22.703125 
Q 19.921875 21.921875 17.671875 20.9375 
Q 15.4375 19.96875 14.203125 18.09375 
Q 12.984375 16.21875 12.984375 13.921875 
Q 12.984375 10.40625 15.640625 8.0625 
Q 18.3125 5.71875 23.4375 5.71875 
Q 28.515625 5.71875 32.46875 7.9375 
Q 36.421875 10.15625 38.28125 14.015625 
Q 39.703125 17 39.703125 22.796875 
z
" id="ArialMT-97"/>
       <path d="M 6.59375 0 
L 6.59375 51.859375 
L 14.5 51.859375 
L 14.5 44.484375 
Q 20.21875 53.03125 31 53.03125 
Q 35.6875 53.03125 39.625 51.34375 
Q 43.5625 49.65625 45.515625 46.921875 
Q 47.46875 44.1875 48.25 40.4375 
Q 48.734375 37.984375 48.734375 31.890625 
L 48.734375 0 
L 39.9375 0 
L 39.9375 31.546875 
Q 39.9375 36.921875 38.90625 39.578125 
Q 37.890625 42.234375 35.28125 43.8125 
Q 32.671875 45.40625 29.15625 45.40625 
Q 23.53125 45.40625 19.453125 41.84375 
Q 15.375 38.28125 15.375 28.328125 
L 15.375 0 
z
" id="ArialMT-110"/>
       <path id="ArialMT-32"/>
       <path d="M 3.328125 25.921875 
Q 3.328125 40.328125 11.328125 47.265625 
Q 18.015625 53.03125 27.640625 53.03125 
Q 38.328125 53.03125 45.109375 46.015625 
Q 51.90625 39.015625 51.90625 26.65625 
Q 51.90625 16.65625 48.90625 10.90625 
Q 45.90625 5.171875 40.15625 2 
Q 34.421875 -1.171875 27.640625 -1.171875 
Q 16.75 -1.171875 10.03125 5.8125 
Q 3.328125 12.796875 3.328125 25.921875 
z
M 12.359375 25.921875 
Q 12.359375 15.96875 16.703125 11.015625 
Q 21.046875 6.0625 27.640625 6.0625 
Q 34.1875 6.0625 38.53125 11.03125 
Q 42.875 16.015625 42.875 26.21875 
Q 42.875 35.84375 38.5 40.796875 
Q 34.125 45.75 27.640625 45.75 
Q 21.046875 45.75 16.703125 40.8125 
Q 12.359375 35.890625 12.359375 25.921875 
z
" id="ArialMT-111"/>
       <path d="M 40.4375 19 
L 49.078125 17.875 
Q 47.65625 8.9375 41.8125 3.875 
Q 35.984375 -1.171875 27.484375 -1.171875 
Q 16.84375 -1.171875 10.375 5.78125 
Q 3.90625 12.75 3.90625 25.734375 
Q 3.90625 34.125 6.6875 40.421875 
Q 9.46875 46.734375 15.15625 49.875 
Q 20.84375 53.03125 27.546875 53.03125 
Q 35.984375 53.03125 41.359375 48.75 
Q 46.734375 44.484375 48.25 36.625 
L 39.703125 35.296875 
Q 38.484375 40.53125 35.375 43.15625 
Q 32.28125 45.796875 27.875 45.796875 
Q 21.234375 45.796875 17.078125 41.03125 
Q 12.9375 36.28125 12.9375 25.984375 
Q 12.9375 15.53125 16.9375 10.796875 
Q 20.953125 6.0625 27.390625 6.0625 
Q 32.5625 6.0625 36.03125 9.234375 
Q 39.5 12.40625 40.4375 19 
z
" id="ArialMT-99"/>
       <path d="M 40.578125 0 
L 40.578125 7.625 
Q 34.515625 -1.171875 24.125 -1.171875 
Q 19.53125 -1.171875 15.546875 0.578125 
Q 11.578125 2.34375 9.640625 5 
Q 7.71875 7.671875 6.9375 11.53125 
Q 6.390625 14.109375 6.390625 19.734375 
L 6.390625 51.859375 
L 15.1875 51.859375 
L 15.1875 23.09375 
Q 15.1875 16.21875 15.71875 13.8125 
Q 16.546875 10.359375 19.234375 8.375 
Q 21.921875 6.390625 25.875 6.390625 
Q 29.828125 6.390625 33.296875 8.421875 
Q 36.765625 10.453125 38.203125 13.9375 
Q 39.65625 17.4375 39.65625 24.078125 
L 39.65625 51.859375 
L 48.4375 51.859375 
L 48.4375 0 
z
" id="ArialMT-117"/>
       <path d="M 6.59375 -19.875 
L 6.59375 51.859375 
L 14.59375 51.859375 
L 14.59375 45.125 
Q 17.4375 49.078125 21 51.046875 
Q 24.5625 53.03125 29.640625 53.03125 
Q 36.28125 53.03125 41.359375 49.609375 
Q 46.4375 46.1875 49.015625 39.953125 
Q 51.609375 33.734375 51.609375 26.3125 
Q 51.609375 18.359375 48.75 11.984375 
Q 45.90625 5.609375 40.453125 2.21875 
Q 35.015625 -1.171875 29 -1.171875 
Q 24.609375 -1.171875 21.109375 0.6875 
Q 17.625 2.546875 15.375 5.375 
L 15.375 -19.875 
z
M 14.546875 25.640625 
Q 14.546875 15.625 18.59375 10.84375 
Q 22.65625 6.0625 28.421875 6.0625 
Q 34.28125 6.0625 38.453125 11.015625 
Q 42.625 15.96875 42.625 26.375 
Q 42.625 36.28125 38.546875 41.203125 
Q 34.46875 46.140625 28.8125 46.140625 
Q 23.1875 46.140625 18.859375 40.890625 
Q 14.546875 35.640625 14.546875 25.640625 
z
" id="ArialMT-112"/>
       <path d="M 6.203125 -19.96875 
L 5.21875 -11.71875 
Q 8.109375 -12.5 10.25 -12.5 
Q 13.1875 -12.5 14.9375 -11.515625 
Q 16.703125 -10.546875 17.828125 -8.796875 
Q 18.65625 -7.46875 20.515625 -2.25 
Q 20.75 -1.515625 21.296875 -0.09375 
L 1.609375 51.859375 
L 11.078125 51.859375 
L 21.875 21.828125 
Q 23.96875 16.109375 25.640625 9.8125 
Q 27.15625 15.875 29.25 21.625 
L 40.328125 51.859375 
L 49.125 51.859375 
L 29.390625 -0.875 
Q 26.21875 -9.421875 24.46875 -12.640625 
Q 22.125 -17 19.09375 -19.015625 
Q 16.0625 -21.046875 11.859375 -21.046875 
Q 9.328125 -21.046875 6.203125 -19.96875 
z
" id="ArialMT-121"/>
      </defs>
      <use xlink:href="#ArialMT-77"/>
      <use x="83.300781" xlink:href="#ArialMT-101"/>
      <use x="138.916016" xlink:href="#ArialMT-97"/>
      <use x="194.53125" xlink:href="#ArialMT-110"/>
      <use x="250.146484" xlink:href="#ArialMT-32"/>
      <use x="277.929688" xlink:href="#ArialMT-111"/>
      <use x="333.544922" xlink:href="#ArialMT-99"/>
      <use x="383.544922" xlink:href="#ArialMT-99"/>
      <use x="433.544922" xlink:href="#ArialMT-117"/>
      <use x="489.160156" xlink:href="#ArialMT-112"/>
      <use x="544.775391" xlink:href="#ArialMT-97"/>
      <use x="600.390625" xlink:href="#ArialMT-110"/>
      <use x="656.005859" xlink:href="#ArialMT-99"/>
      <use x="706.005859" xlink:href="#ArialMT-121"/>
     </g>
     <!-- $\langle$N$\rangle$, at saturation -->
     <g transform="translate(51.0975 165.475)rotate(-90)scale(0.2 -0.2)">
      <defs>
       <path d="M 8.9375 31.34375 
L 22.703125 75.875 
L 31 75.875 
L 17.234375 31.34375 
L 31 -13.1875 
L 22.703125 -13.1875 
z
" id="DejaVuSans-10216"/>
       <path d="M 7.625 0 
L 7.625 71.578125 
L 17.328125 71.578125 
L 54.9375 15.375 
L 54.9375 71.578125 
L 64.015625 71.578125 
L 64.015625 0 
L 54.296875 0 
L 16.703125 56.25 
L 16.703125 0 
z
" id="ArialMT-78"/>
       <path d="M 30.078125 31.34375 
L 16.3125 -13.1875 
L 8.015625 -13.1875 
L 21.78125 31.34375 
L 8.015625 75.875 
L 16.3125 75.875 
z
" id="DejaVuSans-10217"/>
       <path d="M 8.890625 0 
L 8.890625 10.015625 
L 18.890625 10.015625 
L 18.890625 0 
Q 18.890625 -5.515625 16.9375 -8.90625 
Q 14.984375 -12.3125 10.75 -14.15625 
L 8.296875 -10.40625 
Q 11.078125 -9.1875 12.390625 -6.8125 
Q 13.71875 -4.4375 13.875 0 
z
" id="ArialMT-44"/>
       <path d="M 25.78125 7.859375 
L 27.046875 0.09375 
Q 23.34375 -0.6875 20.40625 -0.6875 
Q 15.625 -0.6875 12.984375 0.828125 
Q 10.359375 2.34375 9.28125 4.8125 
Q 8.203125 7.28125 8.203125 15.1875 
L 8.203125 45.015625 
L 1.765625 45.015625 
L 1.765625 51.859375 
L 8.203125 51.859375 
L 8.203125 64.703125 
L 16.9375 69.96875 
L 16.9375 51.859375 
L 25.78125 51.859375 
L 25.78125 45.015625 
L 16.9375 45.015625 
L 16.9375 14.703125 
Q 16.9375 10.9375 17.40625 9.859375 
Q 17.875 8.796875 18.921875 8.15625 
Q 19.96875 7.515625 21.921875 7.515625 
Q 23.390625 7.515625 25.78125 7.859375 
z
" id="ArialMT-116"/>
       <path d="M 3.078125 15.484375 
L 11.765625 16.84375 
Q 12.5 11.625 15.84375 8.84375 
Q 19.1875 6.0625 25.203125 6.0625 
Q 31.25 6.0625 34.171875 8.515625 
Q 37.109375 10.984375 37.109375 14.3125 
Q 37.109375 17.28125 34.515625 19 
Q 32.71875 20.171875 25.53125 21.96875 
Q 15.875 24.421875 12.140625 26.203125 
Q 8.40625 27.984375 6.46875 31.125 
Q 4.546875 34.28125 4.546875 38.09375 
Q 4.546875 41.546875 6.125 44.5 
Q 7.71875 47.46875 10.453125 49.421875 
Q 12.5 50.921875 16.03125 51.96875 
Q 19.578125 53.03125 23.640625 53.03125 
Q 29.734375 53.03125 34.34375 51.265625 
Q 38.96875 49.515625 41.15625 46.5 
Q 43.359375 43.5 44.1875 38.484375 
L 35.59375 37.3125 
Q 35.015625 41.3125 32.203125 43.546875 
Q 29.390625 45.796875 24.265625 45.796875 
Q 18.21875 45.796875 15.625 43.796875 
Q 13.03125 41.796875 13.03125 39.109375 
Q 13.03125 37.40625 14.109375 36.03125 
Q 15.1875 34.625 17.484375 33.6875 
Q 18.796875 33.203125 25.25 31.453125 
Q 34.578125 28.953125 38.25 27.359375 
Q 41.9375 25.78125 44.03125 22.75 
Q 46.140625 19.734375 46.140625 15.234375 
Q 46.140625 10.84375 43.578125 6.953125 
Q 41.015625 3.078125 36.171875 0.953125 
Q 31.34375 -1.171875 25.25 -1.171875 
Q 15.140625 -1.171875 9.84375 3.03125 
Q 4.546875 7.234375 3.078125 15.484375 
z
" id="ArialMT-115"/>
       <path d="M 6.5 0 
L 6.5 51.859375 
L 14.40625 51.859375 
L 14.40625 44 
Q 17.4375 49.515625 20 51.265625 
Q 22.5625 53.03125 25.640625 53.03125 
Q 30.078125 53.03125 34.671875 50.203125 
L 31.640625 42.046875 
Q 28.421875 43.953125 25.203125 43.953125 
Q 22.3125 43.953125 20.015625 42.21875 
Q 17.71875 40.484375 16.75 37.40625 
Q 15.28125 32.71875 15.28125 27.15625 
L 15.28125 0 
z
" id="ArialMT-114"/>
       <path d="M 6.640625 61.46875 
L 6.640625 71.578125 
L 15.4375 71.578125 
L 15.4375 61.46875 
z
M 6.640625 0 
L 6.640625 51.859375 
L 15.4375 51.859375 
L 15.4375 0 
z
" id="ArialMT-105"/>
      </defs>
      <use transform="translate(0 0.125)" xlink:href="#DejaVuSans-10216"/>
      <use transform="translate(39.013672 0.125)" xlink:href="#ArialMT-78"/>
      <use transform="translate(111.230469 0.125)" xlink:href="#DejaVuSans-10217"/>
      <use transform="translate(150.244141 0.125)" xlink:href="#ArialMT-44"/>
      <use transform="translate(178.027344 0.125)" xlink:href="#ArialMT-32"/>
      <use transform="translate(205.810547 0.125)" xlink:href="#ArialMT-97"/>
      <use transform="translate(261.425781 0.125)" xlink:href="#ArialMT-116"/>
      <use transform="translate(289.208984 0.125)" xlink:href="#ArialMT-32"/>
      <use transform="translate(316.992188 0.125)" xlink:href="#ArialMT-115"/>
      <use transform="translate(366.992188 0.125)" xlink:href="#ArialMT-97"/>
      <use transform="translate(422.607422 0.125)" xlink:href="#ArialMT-116"/>
      <use transform="translate(450.390625 0.125)" xlink:href="#ArialMT-117"/>
      <use transform="translate(506.005859 0.125)" xlink:href="#ArialMT-114"/>
      <use transform="translate(539.306641 0.125)" xlink:href="#ArialMT-97"/>
      <use transform="translate(594.921875 0.125)" xlink:href="#ArialMT-116"/>
      <use transform="translate(622.705078 0.125)" xlink:href="#ArialMT-105"/>
      <use transform="translate(644.921875 0.125)" xlink:href="#ArialMT-111"/>
      <use transform="translate(700.537109 0.125)" xlink:href="#ArialMT-110"/>
     </g>
    </g>
   </g>
   <g id="patch_3">
    <path d="M 88.3125 168.75 
L 88.3125 10.8 
" style="fill:none;stroke:#000000;stroke-linecap:square;stroke-linejoin:miter;stroke-width:0.8;"/>
   </g>
   <g id="patch_4">
    <path d="M 666 168.75 
L 666 10.8 
" style="fill:none;stroke:#000000;stroke-linecap:square;stroke-linejoin:miter;stroke-width:0.8;"/>
   </g>
   <g id="patch_5">
    <path d="M 88.3125 168.75 
L 666 168.75 
" style="fill:none;stroke:#000000;stroke-linecap:square;stroke-linejoin:miter;stroke-width:0.8;"/>
   </g>
   <g id="patch_6">
    <path d="M 88.3125 10.8 
L 666 10.8 
" style="fill:none;stroke:#000000;stroke-linecap:square;stroke-linejoin:miter;stroke-width:0.8;"/>
   </g>
   <g id="LineCollection_1">
    <path clip-path="url(#pfa2e43bdae)" d="M 114.571023 55.932801 
L 114.571023 41.943449 
" style="fill:none;stroke:#000000;stroke-width:2;"/>
    <path clip-path="url(#pfa2e43bdae)" d="M 127.380058 52.320167 
L 127.380058 40.234503 
" style="fill:none;stroke:#000000;stroke-width:2;"/>
    <path clip-path="url(#pfa2e43bdae)" d="M 140.189094 45.804364 
L 140.189094 34.419153 
" style="fill:none;stroke:#000000;stroke-width:2;"/>
    <path clip-path="url(#pfa2e43bdae)" d="M 152.998129 52.980481 
L 152.998129 44.76615 
" style="fill:none;stroke:#000000;stroke-width:2;"/>
    <path clip-path="url(#pfa2e43bdae)" d="M 165.807165 57.757756 
L 165.807165 48.031092 
" style="fill:none;stroke:#000000;stroke-width:2;"/>
    <path clip-path="url(#pfa2e43bdae)" d="M 178.6162 113.772327 
L 178.6162 108.149635 
" style="fill:none;stroke:#000000;stroke-width:2;"/>
    <path clip-path="url(#pfa2e43bdae)" d="M 191.425236 60.327767 
L 191.425236 50.099738 
" style="fill:none;stroke:#000000;stroke-width:2;"/>
    <path clip-path="url(#pfa2e43bdae)" d="M 204.234271 58.005913 
L 204.234271 47.839246 
" style="fill:none;stroke:#000000;stroke-width:2;"/>
    <path clip-path="url(#pfa2e43bdae)" d="M 217.043307 67.228413 
L 217.043307 58.541942 
" style="fill:none;stroke:#000000;stroke-width:2;"/>
    <path clip-path="url(#pfa2e43bdae)" d="M 229.852342 64.86063 
L 229.852342 52.565878 
" style="fill:none;stroke:#000000;stroke-width:2;"/>
    <path clip-path="url(#pfa2e43bdae)" d="M 242.661377 63.399618 
L 242.661377 49.141138 
" style="fill:none;stroke:#000000;stroke-width:2;"/>
    <path clip-path="url(#pfa2e43bdae)" d="M 255.470413 64.865324 
L 255.470413 51.476893 
" style="fill:none;stroke:#000000;stroke-width:2;"/>
    <path clip-path="url(#pfa2e43bdae)" d="M 268.279448 78.65653 
L 268.279448 65.936953 
" style="fill:none;stroke:#000000;stroke-width:2;"/>
    <path clip-path="url(#pfa2e43bdae)" d="M 281.088484 60.48507 
L 281.088484 47.443354 
" style="fill:none;stroke:#000000;stroke-width:2;"/>
    <path clip-path="url(#pfa2e43bdae)" d="M 293.897519 56.947622 
L 293.897519 44.777685 
" style="fill:none;stroke:#000000;stroke-width:2;"/>
    <path clip-path="url(#pfa2e43bdae)" d="M 383.560768 56.600703 
L 383.560768 43.878602 
" style="fill:none;stroke:#000000;stroke-width:2;"/>
    <path clip-path="url(#pfa2e43bdae)" d="M 511.651123 54.668821 
L 511.651123 41.83433 
" style="fill:none;stroke:#000000;stroke-width:2;"/>
    <path clip-path="url(#pfa2e43bdae)" d="M 639.741477 68.116582 
L 639.741477 56.086185 
" style="fill:none;stroke:#000000;stroke-width:2;"/>
   </g>
   <g id="PathCollection_1">
    <defs>
     <path d="M -4.743416 4.743416 
L 4.743416 -4.743416 
M -4.743416 -4.743416 
L 4.743416 4.743416 
" id="m2759c7e9cc" style="stroke:#d874ae;stroke-width:2.5;"/>
    </defs>
    <g clip-path="url(#pfa2e43bdae)">
     <use style="fill:#d874ae;stroke:#d874ae;stroke-width:2.5;" x="114.571023" xlink:href="#m2759c7e9cc" y="49.253764"/>
     <use style="fill:#d874ae;stroke:#d874ae;stroke-width:2.5;" x="127.380058" xlink:href="#m2759c7e9cc" y="46.36824"/>
     <use style="fill:#d874ae;stroke:#d874ae;stroke-width:2.5;" x="140.189094" xlink:href="#m2759c7e9cc" y="40.250002"/>
     <use style="fill:#d874ae;stroke:#d874ae;stroke-width:2.5;" x="152.998129" xlink:href="#m2759c7e9cc" y="48.97904"/>
     <use style="fill:#d874ae;stroke:#d874ae;stroke-width:2.5;" x="165.807165" xlink:href="#m2759c7e9cc" y="53.025049"/>
     <use style="fill:#d874ae;stroke:#d874ae;stroke-width:2.5;" x="178.6162" xlink:href="#m2759c7e9cc" y="110.973081"/>
     <use style="fill:#d874ae;stroke:#d874ae;stroke-width:2.5;" x="191.425236" xlink:href="#m2759c7e9cc" y="55.443516"/>
     <use style="fill:#d874ae;stroke:#d874ae;stroke-width:2.5;" x="204.234271" xlink:href="#m2759c7e9cc" y="53.082001"/>
     <use style="fill:#d874ae;stroke:#d874ae;stroke-width:2.5;" x="217.043307" xlink:href="#m2759c7e9cc" y="62.995324"/>
     <use style="fill:#d874ae;stroke:#d874ae;stroke-width:2.5;" x="229.852342" xlink:href="#m2759c7e9cc" y="58.937919"/>
     <use style="fill:#d874ae;stroke:#d874ae;stroke-width:2.5;" x="242.661377" xlink:href="#m2759c7e9cc" y="56.52083"/>
     <use style="fill:#d874ae;stroke:#d874ae;stroke-width:2.5;" x="255.470413" xlink:href="#m2759c7e9cc" y="58.402989"/>
     <use style="fill:#d874ae;stroke:#d874ae;stroke-width:2.5;" x="268.279448" xlink:href="#m2759c7e9cc" y="72.538406"/>
     <use style="fill:#d874ae;stroke:#d874ae;stroke-width:2.5;" x="281.088484" xlink:href="#m2759c7e9cc" y="54.133651"/>
     <use style="fill:#d874ae;stroke:#d874ae;stroke-width:2.5;" x="293.897519" xlink:href="#m2759c7e9cc" y="51.051242"/>
     <use style="fill:#d874ae;stroke:#d874ae;stroke-width:2.5;" x="383.560768" xlink:href="#m2759c7e9cc" y="50.374999"/>
     <use style="fill:#d874ae;stroke:#d874ae;stroke-width:2.5;" x="511.651123" xlink:href="#m2759c7e9cc" y="48.457838"/>
     <use style="fill:#d874ae;stroke:#d874ae;stroke-width:2.5;" x="639.741477" xlink:href="#m2759c7e9cc" y="62.354132"/>
    </g>
   </g>
  </g>
  <g id="axes_2">
   <g id="patch_7">
    <path d="M 88.3125 326.7 
L 666 326.7 
L 666 168.75 
L 88.3125 168.75 
z
" style="fill:#ffffff;"/>
   </g>
   <g id="matplotlib.axis_3">
    <g id="xtick_19">
     <g id="line2d_29">
      <g>
       <use style="stroke:#000000;stroke-width:0.8;" x="114.571023" xlink:href="#mb3a6e71ba3" y="326.7"/>
      </g>
     </g>
     <g id="text_6">
      <!-- 0 -->
      <g transform="translate(109.010085 344.515625)scale(0.2 -0.2)">
       <use xlink:href="#ArialMT-48"/>
      </g>
     </g>
    </g>
    <g id="xtick_20">
     <g id="line2d_30">
      <g>
       <use style="stroke:#000000;stroke-width:0.8;" x="127.380058" xlink:href="#mb3a6e71ba3" y="326.7"/>
      </g>
     </g>
    </g>
    <g id="xtick_21">
     <g id="line2d_31">
      <g>
       <use style="stroke:#000000;stroke-width:0.8;" x="140.189094" xlink:href="#mb3a6e71ba3" y="326.7"/>
      </g>
     </g>
     <g id="text_7">
      <!-- 2 -->
      <g transform="translate(134.628156 344.515625)scale(0.2 -0.2)">
       <use xlink:href="#ArialMT-50"/>
      </g>
     </g>
    </g>
    <g id="xtick_22">
     <g id="line2d_32">
      <g>
       <use style="stroke:#000000;stroke-width:0.8;" x="152.998129" xlink:href="#mb3a6e71ba3" y="326.7"/>
      </g>
     </g>
    </g>
    <g id="xtick_23">
     <g id="line2d_33">
      <g>
       <use style="stroke:#000000;stroke-width:0.8;" x="165.807165" xlink:href="#mb3a6e71ba3" y="326.7"/>
      </g>
     </g>
     <g id="text_8">
      <!-- 4 -->
      <g transform="translate(160.246227 344.515625)scale(0.2 -0.2)">
       <defs>
        <path d="M 32.328125 0 
L 32.328125 17.140625 
L 1.265625 17.140625 
L 1.265625 25.203125 
L 33.9375 71.578125 
L 41.109375 71.578125 
L 41.109375 25.203125 
L 50.78125 25.203125 
L 50.78125 17.140625 
L 41.109375 17.140625 
L 41.109375 0 
z
M 32.328125 25.203125 
L 32.328125 57.46875 
L 9.90625 25.203125 
z
" id="ArialMT-52"/>
       </defs>
       <use xlink:href="#ArialMT-52"/>
      </g>
     </g>
    </g>
    <g id="xtick_24">
     <g id="line2d_34">
      <g>
       <use style="stroke:#000000;stroke-width:0.8;" x="178.6162" xlink:href="#mb3a6e71ba3" y="326.7"/>
      </g>
     </g>
    </g>
    <g id="xtick_25">
     <g id="line2d_35">
      <g>
       <use style="stroke:#000000;stroke-width:0.8;" x="191.425236" xlink:href="#mb3a6e71ba3" y="326.7"/>
      </g>
     </g>
     <g id="text_9">
      <!-- 6 -->
      <g transform="translate(185.864298 344.515625)scale(0.2 -0.2)">
       <defs>
        <path d="M 49.75 54.046875 
L 41.015625 53.375 
Q 39.84375 58.546875 37.703125 60.890625 
Q 34.125 64.65625 28.90625 64.65625 
Q 24.703125 64.65625 21.53125 62.3125 
Q 17.390625 59.28125 14.984375 53.46875 
Q 12.59375 47.65625 12.5 36.921875 
Q 15.671875 41.75 20.265625 44.09375 
Q 24.859375 46.4375 29.890625 46.4375 
Q 38.671875 46.4375 44.84375 39.96875 
Q 51.03125 33.5 51.03125 23.25 
Q 51.03125 16.5 48.125 10.71875 
Q 45.21875 4.9375 40.140625 1.859375 
Q 35.0625 -1.21875 28.609375 -1.21875 
Q 17.625 -1.21875 10.6875 6.859375 
Q 3.765625 14.9375 3.765625 33.5 
Q 3.765625 54.25 11.421875 63.671875 
Q 18.109375 71.875 29.4375 71.875 
Q 37.890625 71.875 43.28125 67.140625 
Q 48.6875 62.40625 49.75 54.046875 
z
M 13.875 23.1875 
Q 13.875 18.65625 15.796875 14.5 
Q 17.71875 10.359375 21.1875 8.171875 
Q 24.65625 6 28.46875 6 
Q 34.03125 6 38.03125 10.484375 
Q 42.046875 14.984375 42.046875 22.703125 
Q 42.046875 30.125 38.078125 34.390625 
Q 34.125 38.671875 28.125 38.671875 
Q 22.171875 38.671875 18.015625 34.390625 
Q 13.875 30.125 13.875 23.1875 
z
" id="ArialMT-54"/>
       </defs>
       <use xlink:href="#ArialMT-54"/>
      </g>
     </g>
    </g>
    <g id="xtick_26">
     <g id="line2d_36">
      <g>
       <use style="stroke:#000000;stroke-width:0.8;" x="204.234271" xlink:href="#mb3a6e71ba3" y="326.7"/>
      </g>
     </g>
    </g>
    <g id="xtick_27">
     <g id="line2d_37">
      <g>
       <use style="stroke:#000000;stroke-width:0.8;" x="217.043307" xlink:href="#mb3a6e71ba3" y="326.7"/>
      </g>
     </g>
     <g id="text_10">
      <!-- 8 -->
      <g transform="translate(211.482369 344.515625)scale(0.2 -0.2)">
       <defs>
        <path d="M 17.671875 38.8125 
Q 12.203125 40.828125 9.5625 44.53125 
Q 6.9375 48.25 6.9375 53.421875 
Q 6.9375 61.234375 12.546875 66.546875 
Q 18.171875 71.875 27.484375 71.875 
Q 36.859375 71.875 42.578125 66.421875 
Q 48.296875 60.984375 48.296875 53.171875 
Q 48.296875 48.1875 45.671875 44.5 
Q 43.0625 40.828125 37.75 38.8125 
Q 44.34375 36.671875 47.78125 31.875 
Q 51.21875 27.09375 51.21875 20.453125 
Q 51.21875 11.28125 44.71875 5.03125 
Q 38.234375 -1.21875 27.640625 -1.21875 
Q 17.046875 -1.21875 10.546875 5.046875 
Q 4.046875 11.328125 4.046875 20.703125 
Q 4.046875 27.6875 7.59375 32.390625 
Q 11.140625 37.109375 17.671875 38.8125 
z
M 15.921875 53.71875 
Q 15.921875 48.640625 19.1875 45.40625 
Q 22.46875 42.1875 27.6875 42.1875 
Q 32.765625 42.1875 36.015625 45.375 
Q 39.265625 48.578125 39.265625 53.21875 
Q 39.265625 58.0625 35.90625 61.359375 
Q 32.5625 64.65625 27.59375 64.65625 
Q 22.5625 64.65625 19.234375 61.421875 
Q 15.921875 58.203125 15.921875 53.71875 
z
M 13.09375 20.65625 
Q 13.09375 16.890625 14.875 13.375 
Q 16.65625 9.859375 20.171875 7.921875 
Q 23.6875 6 27.734375 6 
Q 34.03125 6 38.125 10.046875 
Q 42.234375 14.109375 42.234375 20.359375 
Q 42.234375 26.703125 38.015625 30.859375 
Q 33.796875 35.015625 27.4375 35.015625 
Q 21.234375 35.015625 17.15625 30.90625 
Q 13.09375 26.8125 13.09375 20.65625 
z
" id="ArialMT-56"/>
       </defs>
       <use xlink:href="#ArialMT-56"/>
      </g>
     </g>
    </g>
    <g id="xtick_28">
     <g id="line2d_38">
      <g>
       <use style="stroke:#000000;stroke-width:0.8;" x="229.852342" xlink:href="#mb3a6e71ba3" y="326.7"/>
      </g>
     </g>
    </g>
    <g id="xtick_29">
     <g id="line2d_39">
      <g>
       <use style="stroke:#000000;stroke-width:0.8;" x="242.661377" xlink:href="#mb3a6e71ba3" y="326.7"/>
      </g>
     </g>
     <g id="text_11">
      <!-- 10 -->
      <g transform="translate(231.539502 344.515625)scale(0.2 -0.2)">
       <use xlink:href="#ArialMT-49"/>
       <use x="55.615234" xlink:href="#ArialMT-48"/>
      </g>
     </g>
    </g>
    <g id="xtick_30">
     <g id="line2d_40">
      <g>
       <use style="stroke:#000000;stroke-width:0.8;" x="255.470413" xlink:href="#mb3a6e71ba3" y="326.7"/>
      </g>
     </g>
    </g>
    <g id="xtick_31">
     <g id="line2d_41">
      <g>
       <use style="stroke:#000000;stroke-width:0.8;" x="268.279448" xlink:href="#mb3a6e71ba3" y="326.7"/>
      </g>
     </g>
     <g id="text_12">
      <!-- 12 -->
      <g transform="translate(257.157573 344.515625)scale(0.2 -0.2)">
       <use xlink:href="#ArialMT-49"/>
       <use x="55.615234" xlink:href="#ArialMT-50"/>
      </g>
     </g>
    </g>
    <g id="xtick_32">
     <g id="line2d_42">
      <g>
       <use style="stroke:#000000;stroke-width:0.8;" x="281.088484" xlink:href="#mb3a6e71ba3" y="326.7"/>
      </g>
     </g>
    </g>
    <g id="xtick_33">
     <g id="line2d_43">
      <g>
       <use style="stroke:#000000;stroke-width:0.8;" x="293.897519" xlink:href="#mb3a6e71ba3" y="326.7"/>
      </g>
     </g>
     <g id="text_13">
      <!-- 14 -->
      <g transform="translate(282.775644 344.515625)scale(0.2 -0.2)">
       <use xlink:href="#ArialMT-49"/>
       <use x="55.615234" xlink:href="#ArialMT-52"/>
      </g>
     </g>
    </g>
    <g id="xtick_34">
     <g id="line2d_44">
      <g>
       <use style="stroke:#000000;stroke-width:0.8;" x="383.560768" xlink:href="#mb3a6e71ba3" y="326.7"/>
      </g>
     </g>
     <g id="text_14">
      <!-- 21 -->
      <g transform="translate(372.438893 344.515625)scale(0.2 -0.2)">
       <use xlink:href="#ArialMT-50"/>
       <use x="55.615234" xlink:href="#ArialMT-49"/>
      </g>
     </g>
    </g>
    <g id="xtick_35">
     <g id="line2d_45">
      <g>
       <use style="stroke:#000000;stroke-width:0.8;" x="511.651123" xlink:href="#mb3a6e71ba3" y="326.7"/>
      </g>
     </g>
     <g id="text_15">
      <!-- 31 -->
      <g transform="translate(500.529248 344.515625)scale(0.2 -0.2)">
       <defs>
        <path d="M 4.203125 18.890625 
L 12.984375 20.0625 
Q 14.5 12.59375 18.140625 9.296875 
Q 21.78125 6 27 6 
Q 33.203125 6 37.46875 10.296875 
Q 41.75 14.59375 41.75 20.953125 
Q 41.75 27 37.796875 30.921875 
Q 33.84375 34.859375 27.734375 34.859375 
Q 25.25 34.859375 21.53125 33.890625 
L 22.515625 41.609375 
Q 23.390625 41.5 23.921875 41.5 
Q 29.546875 41.5 34.03125 44.421875 
Q 38.53125 47.359375 38.53125 53.46875 
Q 38.53125 58.296875 35.25 61.46875 
Q 31.984375 64.65625 26.8125 64.65625 
Q 21.6875 64.65625 18.265625 61.421875 
Q 14.84375 58.203125 13.875 51.765625 
L 5.078125 53.328125 
Q 6.6875 62.15625 12.390625 67.015625 
Q 18.109375 71.875 26.609375 71.875 
Q 32.46875 71.875 37.390625 69.359375 
Q 42.328125 66.84375 44.9375 62.5 
Q 47.5625 58.15625 47.5625 53.265625 
Q 47.5625 48.640625 45.0625 44.828125 
Q 42.578125 41.015625 37.703125 38.765625 
Q 44.046875 37.3125 47.5625 32.6875 
Q 51.078125 28.078125 51.078125 21.140625 
Q 51.078125 11.765625 44.234375 5.25 
Q 37.40625 -1.265625 26.953125 -1.265625 
Q 17.53125 -1.265625 11.296875 4.34375 
Q 5.078125 9.96875 4.203125 18.890625 
z
" id="ArialMT-51"/>
       </defs>
       <use xlink:href="#ArialMT-51"/>
       <use x="55.615234" xlink:href="#ArialMT-49"/>
      </g>
     </g>
    </g>
    <g id="xtick_36">
     <g id="line2d_46">
      <g>
       <use style="stroke:#000000;stroke-width:0.8;" x="639.741477" xlink:href="#mb3a6e71ba3" y="326.7"/>
      </g>
     </g>
     <g id="text_16">
      <!-- 41 -->
      <g transform="translate(628.619602 344.515625)scale(0.2 -0.2)">
       <use xlink:href="#ArialMT-52"/>
       <use x="55.615234" xlink:href="#ArialMT-49"/>
      </g>
     </g>
    </g>
   </g>
   <g id="matplotlib.axis_4">
    <g id="ytick_6">
     <g id="line2d_47">
      <path clip-path="url(#pe1f715e83e)" d="M 88.3125 273.234518 
L 666 273.234518 
" style="fill:none;stroke:#b0b0b0;stroke-linecap:square;stroke-width:0.8;"/>
     </g>
     <g id="line2d_48">
      <g>
       <use style="stroke:#000000;stroke-width:0.8;" x="88.3125" xlink:href="#m7178fcf35d" y="273.234518"/>
      </g>
     </g>
     <g id="text_17">
      <!-- 10 -->
      <g transform="translate(63.5175 278.960768)scale(0.16 -0.16)">
       <use xlink:href="#ArialMT-49"/>
       <use x="55.615234" xlink:href="#ArialMT-48"/>
      </g>
     </g>
    </g>
    <g id="ytick_7">
     <g id="line2d_49">
      <path clip-path="url(#pe1f715e83e)" d="M 88.3125 219.769036 
L 666 219.769036 
" style="fill:none;stroke:#b0b0b0;stroke-linecap:square;stroke-width:0.8;"/>
     </g>
     <g id="line2d_50">
      <g>
       <use style="stroke:#000000;stroke-width:0.8;" x="88.3125" xlink:href="#m7178fcf35d" y="219.769036"/>
      </g>
     </g>
     <g id="text_18">
      <!-- 100 -->
      <g transform="translate(54.62 225.495286)scale(0.16 -0.16)">
       <use xlink:href="#ArialMT-49"/>
       <use x="55.615234" xlink:href="#ArialMT-48"/>
       <use x="111.230469" xlink:href="#ArialMT-48"/>
      </g>
     </g>
    </g>
    <g id="ytick_8">
     <g id="line2d_51">
      <path clip-path="url(#pe1f715e83e)" d="M 88.3125 310.605286 
L 666 310.605286 
" style="fill:none;stroke:#b0b0b0;stroke-linecap:square;stroke-width:0.8;"/>
     </g>
     <g id="line2d_52">
      <g>
       <use style="stroke:#000000;stroke-width:0.6;" x="88.3125" xlink:href="#m8e18e2a9c1" y="310.605286"/>
      </g>
     </g>
    </g>
    <g id="ytick_9">
     <g id="line2d_53">
      <path clip-path="url(#pe1f715e83e)" d="M 88.3125 301.190482 
L 666 301.190482 
" style="fill:none;stroke:#b0b0b0;stroke-linecap:square;stroke-width:0.8;"/>
     </g>
     <g id="line2d_54">
      <g>
       <use style="stroke:#000000;stroke-width:0.6;" x="88.3125" xlink:href="#m8e18e2a9c1" y="301.190482"/>
      </g>
     </g>
    </g>
    <g id="ytick_10">
     <g id="line2d_55">
      <path clip-path="url(#pe1f715e83e)" d="M 88.3125 294.510572 
L 666 294.510572 
" style="fill:none;stroke:#b0b0b0;stroke-linecap:square;stroke-width:0.8;"/>
     </g>
     <g id="line2d_56">
      <g>
       <use style="stroke:#000000;stroke-width:0.6;" x="88.3125" xlink:href="#m8e18e2a9c1" y="294.510572"/>
      </g>
     </g>
    </g>
    <g id="ytick_11">
     <g id="line2d_57">
      <path clip-path="url(#pe1f715e83e)" d="M 88.3125 289.329232 
L 666 289.329232 
" style="fill:none;stroke:#b0b0b0;stroke-linecap:square;stroke-width:0.8;"/>
     </g>
     <g id="line2d_58">
      <g>
       <use style="stroke:#000000;stroke-width:0.6;" x="88.3125" xlink:href="#m8e18e2a9c1" y="289.329232"/>
      </g>
     </g>
    </g>
    <g id="ytick_12">
     <g id="line2d_59">
      <path clip-path="url(#pe1f715e83e)" d="M 88.3125 285.095768 
L 666 285.095768 
" style="fill:none;stroke:#b0b0b0;stroke-linecap:square;stroke-width:0.8;"/>
     </g>
     <g id="line2d_60">
      <g>
       <use style="stroke:#000000;stroke-width:0.6;" x="88.3125" xlink:href="#m8e18e2a9c1" y="285.095768"/>
      </g>
     </g>
    </g>
    <g id="ytick_13">
     <g id="line2d_61">
      <path clip-path="url(#pe1f715e83e)" d="M 88.3125 281.516426 
L 666 281.516426 
" style="fill:none;stroke:#b0b0b0;stroke-linecap:square;stroke-width:0.8;"/>
     </g>
     <g id="line2d_62">
      <g>
       <use style="stroke:#000000;stroke-width:0.6;" x="88.3125" xlink:href="#m8e18e2a9c1" y="281.516426"/>
      </g>
     </g>
    </g>
    <g id="ytick_14">
     <g id="line2d_63">
      <path clip-path="url(#pe1f715e83e)" d="M 88.3125 278.415858 
L 666 278.415858 
" style="fill:none;stroke:#b0b0b0;stroke-linecap:square;stroke-width:0.8;"/>
     </g>
     <g id="line2d_64">
      <g>
       <use style="stroke:#000000;stroke-width:0.6;" x="88.3125" xlink:href="#m8e18e2a9c1" y="278.415858"/>
      </g>
     </g>
    </g>
    <g id="ytick_15">
     <g id="line2d_65">
      <path clip-path="url(#pe1f715e83e)" d="M 88.3125 275.680964 
L 666 275.680964 
" style="fill:none;stroke:#b0b0b0;stroke-linecap:square;stroke-width:0.8;"/>
     </g>
     <g id="line2d_66">
      <g>
       <use style="stroke:#000000;stroke-width:0.6;" x="88.3125" xlink:href="#m8e18e2a9c1" y="275.680964"/>
      </g>
     </g>
    </g>
    <g id="ytick_16">
     <g id="line2d_67">
      <path clip-path="url(#pe1f715e83e)" d="M 88.3125 257.139804 
L 666 257.139804 
" style="fill:none;stroke:#b0b0b0;stroke-linecap:square;stroke-width:0.8;"/>
     </g>
     <g id="line2d_68">
      <g>
       <use style="stroke:#000000;stroke-width:0.6;" x="88.3125" xlink:href="#m8e18e2a9c1" y="257.139804"/>
      </g>
     </g>
    </g>
    <g id="ytick_17">
     <g id="line2d_69">
      <path clip-path="url(#pe1f715e83e)" d="M 88.3125 247.725 
L 666 247.725 
" style="fill:none;stroke:#b0b0b0;stroke-linecap:square;stroke-width:0.8;"/>
     </g>
     <g id="line2d_70">
      <g>
       <use style="stroke:#000000;stroke-width:0.6;" x="88.3125" xlink:href="#m8e18e2a9c1" y="247.725"/>
      </g>
     </g>
    </g>
    <g id="ytick_18">
     <g id="line2d_71">
      <path clip-path="url(#pe1f715e83e)" d="M 88.3125 241.04509 
L 666 241.04509 
" style="fill:none;stroke:#b0b0b0;stroke-linecap:square;stroke-width:0.8;"/>
     </g>
     <g id="line2d_72">
      <g>
       <use style="stroke:#000000;stroke-width:0.6;" x="88.3125" xlink:href="#m8e18e2a9c1" y="241.04509"/>
      </g>
     </g>
    </g>
    <g id="ytick_19">
     <g id="line2d_73">
      <path clip-path="url(#pe1f715e83e)" d="M 88.3125 235.86375 
L 666 235.86375 
" style="fill:none;stroke:#b0b0b0;stroke-linecap:square;stroke-width:0.8;"/>
     </g>
     <g id="line2d_74">
      <g>
       <use style="stroke:#000000;stroke-width:0.6;" x="88.3125" xlink:href="#m8e18e2a9c1" y="235.86375"/>
      </g>
     </g>
    </g>
    <g id="ytick_20">
     <g id="line2d_75">
      <path clip-path="url(#pe1f715e83e)" d="M 88.3125 231.630286 
L 666 231.630286 
" style="fill:none;stroke:#b0b0b0;stroke-linecap:square;stroke-width:0.8;"/>
     </g>
     <g id="line2d_76">
      <g>
       <use style="stroke:#000000;stroke-width:0.6;" x="88.3125" xlink:href="#m8e18e2a9c1" y="231.630286"/>
      </g>
     </g>
    </g>
    <g id="ytick_21">
     <g id="line2d_77">
      <path clip-path="url(#pe1f715e83e)" d="M 88.3125 228.050944 
L 666 228.050944 
" style="fill:none;stroke:#b0b0b0;stroke-linecap:square;stroke-width:0.8;"/>
     </g>
     <g id="line2d_78">
      <g>
       <use style="stroke:#000000;stroke-width:0.6;" x="88.3125" xlink:href="#m8e18e2a9c1" y="228.050944"/>
      </g>
     </g>
    </g>
    <g id="ytick_22">
     <g id="line2d_79">
      <path clip-path="url(#pe1f715e83e)" d="M 88.3125 224.950376 
L 666 224.950376 
" style="fill:none;stroke:#b0b0b0;stroke-linecap:square;stroke-width:0.8;"/>
     </g>
     <g id="line2d_80">
      <g>
       <use style="stroke:#000000;stroke-width:0.6;" x="88.3125" xlink:href="#m8e18e2a9c1" y="224.950376"/>
      </g>
     </g>
    </g>
    <g id="ytick_23">
     <g id="line2d_81">
      <path clip-path="url(#pe1f715e83e)" d="M 88.3125 222.215482 
L 666 222.215482 
" style="fill:none;stroke:#b0b0b0;stroke-linecap:square;stroke-width:0.8;"/>
     </g>
     <g id="line2d_82">
      <g>
       <use style="stroke:#000000;stroke-width:0.6;" x="88.3125" xlink:href="#m8e18e2a9c1" y="222.215482"/>
      </g>
     </g>
    </g>
    <g id="ytick_24">
     <g id="line2d_83">
      <path clip-path="url(#pe1f715e83e)" d="M 88.3125 203.674322 
L 666 203.674322 
" style="fill:none;stroke:#b0b0b0;stroke-linecap:square;stroke-width:0.8;"/>
     </g>
     <g id="line2d_84">
      <g>
       <use style="stroke:#000000;stroke-width:0.6;" x="88.3125" xlink:href="#m8e18e2a9c1" y="203.674322"/>
      </g>
     </g>
    </g>
    <g id="ytick_25">
     <g id="line2d_85">
      <path clip-path="url(#pe1f715e83e)" d="M 88.3125 194.259518 
L 666 194.259518 
" style="fill:none;stroke:#b0b0b0;stroke-linecap:square;stroke-width:0.8;"/>
     </g>
     <g id="line2d_86">
      <g>
       <use style="stroke:#000000;stroke-width:0.6;" x="88.3125" xlink:href="#m8e18e2a9c1" y="194.259518"/>
      </g>
     </g>
    </g>
    <g id="ytick_26">
     <g id="line2d_87">
      <path clip-path="url(#pe1f715e83e)" d="M 88.3125 187.579608 
L 666 187.579608 
" style="fill:none;stroke:#b0b0b0;stroke-linecap:square;stroke-width:0.8;"/>
     </g>
     <g id="line2d_88">
      <g>
       <use style="stroke:#000000;stroke-width:0.6;" x="88.3125" xlink:href="#m8e18e2a9c1" y="187.579608"/>
      </g>
     </g>
    </g>
    <g id="ytick_27">
     <g id="line2d_89">
      <path clip-path="url(#pe1f715e83e)" d="M 88.3125 182.398268 
L 666 182.398268 
" style="fill:none;stroke:#b0b0b0;stroke-linecap:square;stroke-width:0.8;"/>
     </g>
     <g id="line2d_90">
      <g>
       <use style="stroke:#000000;stroke-width:0.6;" x="88.3125" xlink:href="#m8e18e2a9c1" y="182.398268"/>
      </g>
     </g>
    </g>
    <g id="ytick_28">
     <g id="line2d_91">
      <path clip-path="url(#pe1f715e83e)" d="M 88.3125 178.164804 
L 666 178.164804 
" style="fill:none;stroke:#b0b0b0;stroke-linecap:square;stroke-width:0.8;"/>
     </g>
     <g id="line2d_92">
      <g>
       <use style="stroke:#000000;stroke-width:0.6;" x="88.3125" xlink:href="#m8e18e2a9c1" y="178.164804"/>
      </g>
     </g>
    </g>
    <g id="ytick_29">
     <g id="line2d_93">
      <path clip-path="url(#pe1f715e83e)" d="M 88.3125 174.585462 
L 666 174.585462 
" style="fill:none;stroke:#b0b0b0;stroke-linecap:square;stroke-width:0.8;"/>
     </g>
     <g id="line2d_94">
      <g>
       <use style="stroke:#000000;stroke-width:0.6;" x="88.3125" xlink:href="#m8e18e2a9c1" y="174.585462"/>
      </g>
     </g>
    </g>
    <g id="ytick_30">
     <g id="line2d_95">
      <path clip-path="url(#pe1f715e83e)" d="M 88.3125 171.484894 
L 666 171.484894 
" style="fill:none;stroke:#b0b0b0;stroke-linecap:square;stroke-width:0.8;"/>
     </g>
     <g id="line2d_96">
      <g>
       <use style="stroke:#000000;stroke-width:0.6;" x="88.3125" xlink:href="#m8e18e2a9c1" y="171.484894"/>
      </g>
     </g>
    </g>
    <g id="ytick_31">
     <g id="line2d_97">
      <path clip-path="url(#pe1f715e83e)" d="M 88.3125 168.75 
L 666 168.75 
" style="fill:none;stroke:#b0b0b0;stroke-linecap:square;stroke-width:0.8;"/>
     </g>
     <g id="line2d_98">
      <g>
       <use style="stroke:#000000;stroke-width:0.6;" x="88.3125" xlink:href="#m8e18e2a9c1" y="168.75"/>
      </g>
     </g>
    </g>
    <g id="text_19">
     <!-- Kd (nM) -->
     <g transform="translate(46.410625 283.284375)rotate(-90)scale(0.2 -0.2)">
      <defs>
       <path d="M 7.328125 0 
L 7.328125 71.578125 
L 16.796875 71.578125 
L 16.796875 36.078125 
L 52.34375 71.578125 
L 65.1875 71.578125 
L 35.15625 42.578125 
L 66.5 0 
L 54 0 
L 28.515625 36.234375 
L 16.796875 24.8125 
L 16.796875 0 
z
" id="ArialMT-75"/>
       <path d="M 40.234375 0 
L 40.234375 6.546875 
Q 35.296875 -1.171875 25.734375 -1.171875 
Q 19.53125 -1.171875 14.328125 2.25 
Q 9.125 5.671875 6.265625 11.796875 
Q 3.421875 17.921875 3.421875 25.875 
Q 3.421875 33.640625 6 39.96875 
Q 8.59375 46.296875 13.765625 49.65625 
Q 18.953125 53.03125 25.34375 53.03125 
Q 30.03125 53.03125 33.6875 51.046875 
Q 37.359375 49.078125 39.65625 45.90625 
L 39.65625 71.578125 
L 48.390625 71.578125 
L 48.390625 0 
z
M 12.453125 25.875 
Q 12.453125 15.921875 16.640625 10.984375 
Q 20.84375 6.0625 26.5625 6.0625 
Q 32.328125 6.0625 36.34375 10.765625 
Q 40.375 15.484375 40.375 25.140625 
Q 40.375 35.796875 36.265625 40.765625 
Q 32.171875 45.75 26.171875 45.75 
Q 20.3125 45.75 16.375 40.96875 
Q 12.453125 36.1875 12.453125 25.875 
z
" id="ArialMT-100"/>
       <path d="M 23.390625 -21.046875 
Q 16.109375 -11.859375 11.078125 0.4375 
Q 6.0625 12.75 6.0625 25.921875 
Q 6.0625 37.546875 9.8125 48.1875 
Q 14.203125 60.546875 23.390625 72.796875 
L 29.6875 72.796875 
Q 23.78125 62.640625 21.875 58.296875 
Q 18.890625 51.5625 17.1875 44.234375 
Q 15.09375 35.109375 15.09375 25.875 
Q 15.09375 2.390625 29.6875 -21.046875 
z
" id="ArialMT-40"/>
       <path d="M 12.359375 -21.046875 
L 6.0625 -21.046875 
Q 20.65625 2.390625 20.65625 25.875 
Q 20.65625 35.0625 18.5625 44.09375 
Q 16.890625 51.421875 13.921875 58.15625 
Q 12.015625 62.546875 6.0625 72.796875 
L 12.359375 72.796875 
Q 21.53125 60.546875 25.921875 48.1875 
Q 29.6875 37.546875 29.6875 25.921875 
Q 29.6875 12.75 24.625 0.4375 
Q 19.578125 -11.859375 12.359375 -21.046875 
z
" id="ArialMT-41"/>
      </defs>
      <use xlink:href="#ArialMT-75"/>
      <use x="66.699219" xlink:href="#ArialMT-100"/>
      <use x="122.314453" xlink:href="#ArialMT-32"/>
      <use x="150.097656" xlink:href="#ArialMT-40"/>
      <use x="183.398438" xlink:href="#ArialMT-110"/>
      <use x="239.013672" xlink:href="#ArialMT-77"/>
      <use x="322.314453" xlink:href="#ArialMT-41"/>
     </g>
    </g>
   </g>
   <g id="patch_8">
    <path d="M 88.3125 326.7 
L 88.3125 168.75 
" style="fill:none;stroke:#000000;stroke-linecap:square;stroke-linejoin:miter;stroke-width:0.8;"/>
   </g>
   <g id="patch_9">
    <path d="M 666 326.7 
L 666 168.75 
" style="fill:none;stroke:#000000;stroke-linecap:square;stroke-linejoin:miter;stroke-width:0.8;"/>
   </g>
   <g id="patch_10">
    <path d="M 88.3125 326.7 
L 666 326.7 
" style="fill:none;stroke:#000000;stroke-linecap:square;stroke-linejoin:miter;stroke-width:0.8;"/>
   </g>
   <g id="patch_11">
    <path d="M 88.3125 168.75 
L 666 168.75 
" style="fill:none;stroke:#000000;stroke-linecap:square;stroke-linejoin:miter;stroke-width:0.8;"/>
   </g>
   <g id="LineCollection_2">
    <path clip-path="url(#pe1f715e83e)" d="M 114.571023 224.475451 
L 114.571023 215.450172 
" style="fill:none;stroke:#000000;stroke-width:2;"/>
    <path clip-path="url(#pe1f715e83e)" d="M 127.380058 220.414002 
L 127.380058 213.215417 
" style="fill:none;stroke:#000000;stroke-width:2;"/>
    <path clip-path="url(#pe1f715e83e)" d="M 140.189094 227.292998 
L 140.189094 220.121851 
" style="fill:none;stroke:#000000;stroke-width:2;"/>
    <path clip-path="url(#pe1f715e83e)" d="M 152.998129 225.250487 
L 152.998129 219.601276 
" style="fill:none;stroke:#000000;stroke-width:2;"/>
    <path clip-path="url(#pe1f715e83e)" d="M 165.807165 227.212866 
L 165.807165 220.351015 
" style="fill:none;stroke:#000000;stroke-width:2;"/>
    <path clip-path="url(#pe1f715e83e)" d="M 178.6162 265.927043 
L 178.6162 253.430772 
" style="fill:none;stroke:#000000;stroke-width:2;"/>
    <path clip-path="url(#pe1f715e83e)" d="M 191.425236 221.493964 
L 191.425236 214.576495 
" style="fill:none;stroke:#000000;stroke-width:2;"/>
    <path clip-path="url(#pe1f715e83e)" d="M 204.234271 221.990395 
L 204.234271 215.041503 
" style="fill:none;stroke:#000000;stroke-width:2;"/>
    <path clip-path="url(#pe1f715e83e)" d="M 217.043307 223.629418 
L 217.043307 217.082978 
" style="fill:none;stroke:#000000;stroke-width:2;"/>
    <path clip-path="url(#pe1f715e83e)" d="M 229.852342 223.471284 
L 229.852342 215.201381 
" style="fill:none;stroke:#000000;stroke-width:2;"/>
    <path clip-path="url(#pe1f715e83e)" d="M 242.661377 227.105793 
L 242.661377 217.474995 
" style="fill:none;stroke:#000000;stroke-width:2;"/>
    <path clip-path="url(#pe1f715e83e)" d="M 255.470413 221.952746 
L 255.470413 213.07066 
" style="fill:none;stroke:#000000;stroke-width:2;"/>
    <path clip-path="url(#pe1f715e83e)" d="M 268.279448 219.482094 
L 268.279448 210.113227 
" style="fill:none;stroke:#000000;stroke-width:2;"/>
    <path clip-path="url(#pe1f715e83e)" d="M 281.088484 220.122484 
L 281.088484 211.941356 
" style="fill:none;stroke:#000000;stroke-width:2;"/>
    <path clip-path="url(#pe1f715e83e)" d="M 293.897519 223.216575 
L 293.897519 215.43634 
" style="fill:none;stroke:#000000;stroke-width:2;"/>
    <path clip-path="url(#pe1f715e83e)" d="M 383.560768 221.5447 
L 383.560768 213.563348 
" style="fill:none;stroke:#000000;stroke-width:2;"/>
    <path clip-path="url(#pe1f715e83e)" d="M 511.651123 222.747457 
L 511.651123 214.465281 
" style="fill:none;stroke:#000000;stroke-width:2;"/>
    <path clip-path="url(#pe1f715e83e)" d="M 639.741477 219.343012 
L 639.741477 211.14403 
" style="fill:none;stroke:#000000;stroke-width:2;"/>
   </g>
   <g id="PathCollection_2">
    <defs>
     <path d="M -4.743416 4.743416 
L 4.743416 -4.743416 
M -4.743416 -4.743416 
L 4.743416 4.743416 
" id="ma164225feb" style="stroke:#000000;stroke-width:2.5;"/>
    </defs>
    <g clip-path="url(#pe1f715e83e)">
     <use style="stroke:#000000;stroke-width:2.5;" x="114.571023" xlink:href="#ma164225feb" y="219.978703"/>
     <use style="stroke:#000000;stroke-width:2.5;" x="127.380058" xlink:href="#ma164225feb" y="216.799525"/>
     <use style="stroke:#000000;stroke-width:2.5;" x="140.189094" xlink:href="#ma164225feb" y="223.674856"/>
     <use style="stroke:#000000;stroke-width:2.5;" x="152.998129" xlink:href="#ma164225feb" y="222.39377"/>
     <use style="stroke:#000000;stroke-width:2.5;" x="165.807165" xlink:href="#ma164225feb" y="223.777626"/>
     <use style="stroke:#000000;stroke-width:2.5;" x="178.6162" xlink:href="#ma164225feb" y="259.432458"/>
     <use style="stroke:#000000;stroke-width:2.5;" x="191.425236" xlink:href="#ma164225feb" y="218.030125"/>
     <use style="stroke:#000000;stroke-width:2.5;" x="204.234271" xlink:href="#ma164225feb" y="218.499453"/>
     <use style="stroke:#000000;stroke-width:2.5;" x="217.043307" xlink:href="#ma164225feb" y="220.32592"/>
     <use style="stroke:#000000;stroke-width:2.5;" x="229.852342" xlink:href="#ma164225feb" y="219.296436"/>
     <use style="stroke:#000000;stroke-width:2.5;" x="242.661377" xlink:href="#ma164225feb" y="222.235096"/>
     <use style="stroke:#000000;stroke-width:2.5;" x="255.470413" xlink:href="#ma164225feb" y="217.484206"/>
     <use style="stroke:#000000;stroke-width:2.5;" x="268.279448" xlink:href="#ma164225feb" y="214.755157"/>
     <use style="stroke:#000000;stroke-width:2.5;" x="281.088484" xlink:href="#ma164225feb" y="216.013806"/>
     <use style="stroke:#000000;stroke-width:2.5;" x="293.897519" xlink:href="#ma164225feb" y="219.330879"/>
     <use style="stroke:#000000;stroke-width:2.5;" x="383.560768" xlink:href="#ma164225feb" y="217.495354"/>
     <use style="stroke:#000000;stroke-width:2.5;" x="511.651123" xlink:href="#ma164225feb" y="218.559692"/>
     <use style="stroke:#000000;stroke-width:2.5;" x="639.741477" xlink:href="#ma164225feb" y="215.254405"/>
    </g>
   </g>
  </g>
 </g>
 <defs>
  <clipPath id="pfa2e43bdae">
   <rect height="157.95" width="577.6875" x="88.3125" y="10.8"/>
  </clipPath>
  <clipPath id="pe1f715e83e">
   <rect height="157.95" width="577.6875" x="88.3125" y="168.75"/>
  </clipPath>
 </defs>
</svg>
