<?xml version="1.0" encoding="utf-8" standalone="no"?>
<!DOCTYPE svg PUBLIC "-//W3C//DTD SVG 1.1//EN"
  "http://www.w3.org/Graphics/SVG/1.1/DTD/svg11.dtd">
<!-- Created with matplotlib (https://matplotlib.org/) -->
<svg height="504pt" version="1.1" viewBox="0 0 525.6 504" width="525.6pt" xmlns="http://www.w3.org/2000/svg" xmlns:xlink="http://www.w3.org/1999/xlink">
 <metadata>
  <rdf:RDF xmlns:cc="http://creativecommons.org/ns#" xmlns:dc="http://purl.org/dc/elements/1.1/" xmlns:rdf="http://www.w3.org/1999/02/22-rdf-syntax-ns#">
   <cc:Work>
    <dc:type rdf:resource="http://purl.org/dc/dcmitype/StillImage"/>
    <dc:date>2022-02-13T21:28:09.722668</dc:date>
    <dc:format>image/svg+xml</dc:format>
    <dc:creator>
     <cc:Agent>
      <dc:title>Matplotlib v3.3.4, https://matplotlib.org/</dc:title>
     </cc:Agent>
    </dc:creator>
   </cc:Work>
  </rdf:RDF>
 </metadata>
 <defs>
  <style type="text/css">*{stroke-linecap:butt;stroke-linejoin:round;}</style>
 </defs>
 <g id="figure_1">
  <g id="patch_1">
   <path d="M 0 504 
L 525.6 504 
L 525.6 0 
L 0 0 
z
" style="fill:none;"/>
  </g>
  <g id="axes_1">
   <g id="patch_2">
    <path d="M 89.175 214.696604 
L 514.8 214.696604 
L 514.8 16.8 
L 89.175 16.8 
z
" style="fill:#ffffff;"/>
   </g>
   <g id="matplotlib.axis_1">
    <g id="xtick_1">
     <g id="line2d_1">
      <defs>
       <path d="M 0 0 
L 0 -3.5 
" id="m8c191ce2ec" style="stroke:#000000;stroke-width:0.8;"/>
      </defs>
      <g>
       <use style="stroke:#000000;stroke-width:0.8;" x="108.521591" xlink:href="#m8c191ce2ec" y="214.696604"/>
      </g>
     </g>
    </g>
    <g id="xtick_2">
     <g id="line2d_2">
      <g>
       <use style="stroke:#000000;stroke-width:0.8;" x="147.214773" xlink:href="#m8c191ce2ec" y="214.696604"/>
      </g>
     </g>
    </g>
    <g id="xtick_3">
     <g id="line2d_3">
      <g>
       <use style="stroke:#000000;stroke-width:0.8;" x="185.907955" xlink:href="#m8c191ce2ec" y="214.696604"/>
      </g>
     </g>
    </g>
    <g id="xtick_4">
     <g id="line2d_4">
      <g>
       <use style="stroke:#000000;stroke-width:0.8;" x="224.601136" xlink:href="#m8c191ce2ec" y="214.696604"/>
      </g>
     </g>
    </g>
    <g id="xtick_5">
     <g id="line2d_5">
      <g>
       <use style="stroke:#000000;stroke-width:0.8;" x="263.294318" xlink:href="#m8c191ce2ec" y="214.696604"/>
      </g>
     </g>
    </g>
    <g id="xtick_6">
     <g id="line2d_6">
      <g>
       <use style="stroke:#000000;stroke-width:0.8;" x="301.9875" xlink:href="#m8c191ce2ec" y="214.696604"/>
      </g>
     </g>
    </g>
    <g id="xtick_7">
     <g id="line2d_7">
      <g>
       <use style="stroke:#000000;stroke-width:0.8;" x="340.680682" xlink:href="#m8c191ce2ec" y="214.696604"/>
      </g>
     </g>
    </g>
    <g id="xtick_8">
     <g id="line2d_8">
      <g>
       <use style="stroke:#000000;stroke-width:0.8;" x="379.373864" xlink:href="#m8c191ce2ec" y="214.696604"/>
      </g>
     </g>
    </g>
    <g id="xtick_9">
     <g id="line2d_9">
      <g>
       <use style="stroke:#000000;stroke-width:0.8;" x="418.067045" xlink:href="#m8c191ce2ec" y="214.696604"/>
      </g>
     </g>
    </g>
    <g id="xtick_10">
     <g id="line2d_10">
      <g>
       <use style="stroke:#000000;stroke-width:0.8;" x="456.760227" xlink:href="#m8c191ce2ec" y="214.696604"/>
      </g>
     </g>
    </g>
    <g id="xtick_11">
     <g id="line2d_11">
      <g>
       <use style="stroke:#000000;stroke-width:0.8;" x="495.453409" xlink:href="#m8c191ce2ec" y="214.696604"/>
      </g>
     </g>
    </g>
   </g>
   <g id="matplotlib.axis_2">
    <g id="ytick_1">
     <g id="line2d_12">
      <path clip-path="url(#pddac93b91f)" d="M 89.175 165.222453 
L 514.8 165.222453 
" style="fill:none;stroke:#b0b0b0;stroke-linecap:square;stroke-width:0.8;"/>
     </g>
     <g id="line2d_13">
      <defs>
       <path d="M 0 0 
L -3.5 0 
" id="m29b696b629" style="stroke:#000000;stroke-width:0.8;"/>
      </defs>
      <g>
       <use style="stroke:#000000;stroke-width:0.8;" x="89.175" xlink:href="#m29b696b629" y="165.222453"/>
      </g>
     </g>
     <g id="text_1">
      <!-- 0.5 -->
      <g transform="translate(59.935 170.948703)scale(0.16 -0.16)">
       <defs>
        <path d="M 4.15625 35.296875 
Q 4.15625 48 6.765625 55.734375 
Q 9.375 63.484375 14.515625 67.671875 
Q 19.671875 71.875 27.484375 71.875 
Q 33.25 71.875 37.59375 69.546875 
Q 41.9375 67.234375 44.765625 62.859375 
Q 47.609375 58.5 49.21875 52.21875 
Q 50.828125 45.953125 50.828125 35.296875 
Q 50.828125 22.703125 48.234375 14.96875 
Q 45.65625 7.234375 40.5 3 
Q 35.359375 -1.21875 27.484375 -1.21875 
Q 17.140625 -1.21875 11.234375 6.203125 
Q 4.15625 15.140625 4.15625 35.296875 
z
M 13.1875 35.296875 
Q 13.1875 17.671875 17.3125 11.828125 
Q 21.4375 6 27.484375 6 
Q 33.546875 6 37.671875 11.859375 
Q 41.796875 17.71875 41.796875 35.296875 
Q 41.796875 52.984375 37.671875 58.78125 
Q 33.546875 64.59375 27.390625 64.59375 
Q 21.34375 64.59375 17.71875 59.46875 
Q 13.1875 52.9375 13.1875 35.296875 
z
" id="ArialMT-48"/>
        <path d="M 9.078125 0 
L 9.078125 10.015625 
L 19.09375 10.015625 
L 19.09375 0 
z
" id="ArialMT-46"/>
        <path d="M 4.15625 18.75 
L 13.375 19.53125 
Q 14.40625 12.796875 18.140625 9.390625 
Q 21.875 6 27.15625 6 
Q 33.5 6 37.890625 10.78125 
Q 42.28125 15.578125 42.28125 23.484375 
Q 42.28125 31 38.0625 35.34375 
Q 33.84375 39.703125 27 39.703125 
Q 22.75 39.703125 19.328125 37.765625 
Q 15.921875 35.84375 13.96875 32.765625 
L 5.71875 33.84375 
L 12.640625 70.609375 
L 48.25 70.609375 
L 48.25 62.203125 
L 19.671875 62.203125 
L 15.828125 42.96875 
Q 22.265625 47.46875 29.34375 47.46875 
Q 38.71875 47.46875 45.15625 40.96875 
Q 51.609375 34.46875 51.609375 24.265625 
Q 51.609375 14.546875 45.953125 7.46875 
Q 39.0625 -1.21875 27.15625 -1.21875 
Q 17.390625 -1.21875 11.203125 4.25 
Q 5.03125 9.71875 4.15625 18.75 
z
" id="ArialMT-53"/>
       </defs>
       <use xlink:href="#ArialMT-48"/>
       <use x="55.615234" xlink:href="#ArialMT-46"/>
       <use x="83.398438" xlink:href="#ArialMT-53"/>
      </g>
     </g>
    </g>
    <g id="ytick_2">
     <g id="line2d_14">
      <path clip-path="url(#pddac93b91f)" d="M 89.175 115.748302 
L 514.8 115.748302 
" style="fill:none;stroke:#b0b0b0;stroke-linecap:square;stroke-width:0.8;"/>
     </g>
     <g id="line2d_15">
      <g>
       <use style="stroke:#000000;stroke-width:0.8;" x="89.175" xlink:href="#m29b696b629" y="115.748302"/>
      </g>
     </g>
     <g id="text_2">
      <!-- 1 -->
      <g transform="translate(73.2775 121.474552)scale(0.16 -0.16)">
       <defs>
        <path d="M 37.25 0 
L 28.46875 0 
L 28.46875 56 
Q 25.296875 52.984375 20.140625 49.953125 
Q 14.984375 46.921875 10.890625 45.40625 
L 10.890625 53.90625 
Q 18.265625 57.375 23.78125 62.296875 
Q 29.296875 67.234375 31.59375 71.875 
L 37.25 71.875 
z
" id="ArialMT-49"/>
       </defs>
       <use xlink:href="#ArialMT-49"/>
      </g>
     </g>
    </g>
    <g id="ytick_3">
     <g id="line2d_16">
      <path clip-path="url(#pddac93b91f)" d="M 89.175 66.274151 
L 514.8 66.274151 
" style="fill:none;stroke:#b0b0b0;stroke-linecap:square;stroke-width:0.8;"/>
     </g>
     <g id="line2d_17">
      <g>
       <use style="stroke:#000000;stroke-width:0.8;" x="89.175" xlink:href="#m29b696b629" y="66.274151"/>
      </g>
     </g>
     <g id="text_3">
      <!-- 1.5 -->
      <g transform="translate(59.935 72.000401)scale(0.16 -0.16)">
       <use xlink:href="#ArialMT-49"/>
       <use x="55.615234" xlink:href="#ArialMT-46"/>
       <use x="83.398438" xlink:href="#ArialMT-53"/>
      </g>
     </g>
    </g>
    <g id="ytick_4">
     <g id="line2d_18">
      <path clip-path="url(#pddac93b91f)" d="M 89.175 16.8 
L 514.8 16.8 
" style="fill:none;stroke:#b0b0b0;stroke-linecap:square;stroke-width:0.8;"/>
     </g>
     <g id="line2d_19">
      <g>
       <use style="stroke:#000000;stroke-width:0.8;" x="89.175" xlink:href="#m29b696b629" y="16.8"/>
      </g>
     </g>
     <g id="text_4">
      <!-- 2 -->
      <g transform="translate(73.2775 22.52625)scale(0.16 -0.16)">
       <defs>
        <path d="M 50.34375 8.453125 
L 50.34375 0 
L 3.03125 0 
Q 2.9375 3.171875 4.046875 6.109375 
Q 5.859375 10.9375 9.828125 15.625 
Q 13.8125 20.3125 21.34375 26.46875 
Q 33.015625 36.03125 37.109375 41.625 
Q 41.21875 47.21875 41.21875 52.203125 
Q 41.21875 57.421875 37.46875 61 
Q 33.734375 64.59375 27.734375 64.59375 
Q 21.390625 64.59375 17.578125 60.78125 
Q 13.765625 56.984375 13.71875 50.25 
L 4.6875 51.171875 
Q 5.609375 61.28125 11.65625 66.578125 
Q 17.71875 71.875 27.9375 71.875 
Q 38.234375 71.875 44.234375 66.15625 
Q 50.25 60.453125 50.25 52 
Q 50.25 47.703125 48.484375 43.546875 
Q 46.734375 39.40625 42.65625 34.8125 
Q 38.578125 30.21875 29.109375 22.21875 
Q 21.1875 15.578125 18.9375 13.203125 
Q 16.703125 10.84375 15.234375 8.453125 
z
" id="ArialMT-50"/>
       </defs>
       <use xlink:href="#ArialMT-50"/>
      </g>
     </g>
    </g>
    <g id="ytick_5">
     <g id="line2d_20">
      <path clip-path="url(#pddac93b91f)" d="M 89.175 189.959529 
L 514.8 189.959529 
" style="fill:none;stroke:#b0b0b0;stroke-linecap:square;stroke-width:0.8;"/>
     </g>
     <g id="line2d_21">
      <defs>
       <path d="M 0 0 
L -2 0 
" id="m9e6d2d13ae" style="stroke:#000000;stroke-width:0.6;"/>
      </defs>
      <g>
       <use style="stroke:#000000;stroke-width:0.6;" x="89.175" xlink:href="#m9e6d2d13ae" y="189.959529"/>
      </g>
     </g>
    </g>
    <g id="ytick_6">
     <g id="line2d_22">
      <path clip-path="url(#pddac93b91f)" d="M 89.175 140.485378 
L 514.8 140.485378 
" style="fill:none;stroke:#b0b0b0;stroke-linecap:square;stroke-width:0.8;"/>
     </g>
     <g id="line2d_23">
      <g>
       <use style="stroke:#000000;stroke-width:0.6;" x="89.175" xlink:href="#m9e6d2d13ae" y="140.485378"/>
      </g>
     </g>
    </g>
    <g id="ytick_7">
     <g id="line2d_24">
      <path clip-path="url(#pddac93b91f)" d="M 89.175 91.011227 
L 514.8 91.011227 
" style="fill:none;stroke:#b0b0b0;stroke-linecap:square;stroke-width:0.8;"/>
     </g>
     <g id="line2d_25">
      <g>
       <use style="stroke:#000000;stroke-width:0.6;" x="89.175" xlink:href="#m9e6d2d13ae" y="91.011227"/>
      </g>
     </g>
    </g>
    <g id="ytick_8">
     <g id="line2d_26">
      <path clip-path="url(#pddac93b91f)" d="M 89.175 41.537076 
L 514.8 41.537076 
" style="fill:none;stroke:#b0b0b0;stroke-linecap:square;stroke-width:0.8;"/>
     </g>
     <g id="line2d_27">
      <g>
       <use style="stroke:#000000;stroke-width:0.6;" x="89.175" xlink:href="#m9e6d2d13ae" y="41.537076"/>
      </g>
     </g>
    </g>
    <g id="text_5">
     <!-- Mean occupancy -->
     <g transform="translate(30.571875 191.343615)rotate(-90)scale(0.2 -0.2)">
      <defs>
       <path d="M 7.421875 0 
L 7.421875 71.578125 
L 21.6875 71.578125 
L 38.625 20.90625 
Q 40.96875 13.8125 42.046875 10.296875 
Q 43.265625 14.203125 45.84375 21.78125 
L 62.984375 71.578125 
L 75.734375 71.578125 
L 75.734375 0 
L 66.609375 0 
L 66.609375 59.90625 
L 45.796875 0 
L 37.25 0 
L 16.546875 60.9375 
L 16.546875 0 
z
" id="ArialMT-77"/>
       <path d="M 42.09375 16.703125 
L 51.171875 15.578125 
Q 49.03125 7.625 43.21875 3.21875 
Q 37.40625 -1.171875 28.375 -1.171875 
Q 17 -1.171875 10.328125 5.828125 
Q 3.65625 12.84375 3.65625 25.484375 
Q 3.65625 38.578125 10.390625 45.796875 
Q 17.140625 53.03125 27.875 53.03125 
Q 38.28125 53.03125 44.875 45.953125 
Q 51.46875 38.875 51.46875 26.03125 
Q 51.46875 25.25 51.421875 23.6875 
L 12.75 23.6875 
Q 13.234375 15.140625 17.578125 10.59375 
Q 21.921875 6.0625 28.421875 6.0625 
Q 33.25 6.0625 36.671875 8.59375 
Q 40.09375 11.140625 42.09375 16.703125 
z
M 13.234375 30.90625 
L 42.1875 30.90625 
Q 41.609375 37.453125 38.875 40.71875 
Q 34.671875 45.796875 27.984375 45.796875 
Q 21.921875 45.796875 17.796875 41.75 
Q 13.671875 37.703125 13.234375 30.90625 
z
" id="ArialMT-101"/>
       <path d="M 40.4375 6.390625 
Q 35.546875 2.25 31.03125 0.53125 
Q 26.515625 -1.171875 21.34375 -1.171875 
Q 12.796875 -1.171875 8.203125 3 
Q 3.609375 7.171875 3.609375 13.671875 
Q 3.609375 17.484375 5.34375 20.625 
Q 7.078125 23.78125 9.890625 25.6875 
Q 12.703125 27.59375 16.21875 28.5625 
Q 18.796875 29.25 24.03125 29.890625 
Q 34.671875 31.15625 39.703125 32.90625 
Q 39.75 34.71875 39.75 35.203125 
Q 39.75 40.578125 37.25 42.78125 
Q 33.890625 45.75 27.25 45.75 
Q 21.046875 45.75 18.09375 43.578125 
Q 15.140625 41.40625 13.71875 35.890625 
L 5.125 37.0625 
Q 6.296875 42.578125 8.984375 45.96875 
Q 11.671875 49.359375 16.75 51.1875 
Q 21.828125 53.03125 28.515625 53.03125 
Q 35.15625 53.03125 39.296875 51.46875 
Q 43.453125 49.90625 45.40625 47.53125 
Q 47.359375 45.171875 48.140625 41.546875 
Q 48.578125 39.3125 48.578125 33.453125 
L 48.578125 21.734375 
Q 48.578125 9.46875 49.140625 6.21875 
Q 49.703125 2.984375 51.375 0 
L 42.1875 0 
Q 40.828125 2.734375 40.4375 6.390625 
z
M 39.703125 26.03125 
Q 34.90625 24.078125 25.34375 22.703125 
Q 19.921875 21.921875 17.671875 20.9375 
Q 15.4375 19.96875 14.203125 18.09375 
Q 12.984375 16.21875 12.984375 13.921875 
Q 12.984375 10.40625 15.640625 8.0625 
Q 18.3125 5.71875 23.4375 5.71875 
Q 28.515625 5.71875 32.46875 7.9375 
Q 36.421875 10.15625 38.28125 14.015625 
Q 39.703125 17 39.703125 22.796875 
z
" id="ArialMT-97"/>
       <path d="M 6.59375 0 
L 6.59375 51.859375 
L 14.5 51.859375 
L 14.5 44.484375 
Q 20.21875 53.03125 31 53.03125 
Q 35.6875 53.03125 39.625 51.34375 
Q 43.5625 49.65625 45.515625 46.921875 
Q 47.46875 44.1875 48.25 40.4375 
Q 48.734375 37.984375 48.734375 31.890625 
L 48.734375 0 
L 39.9375 0 
L 39.9375 31.546875 
Q 39.9375 36.921875 38.90625 39.578125 
Q 37.890625 42.234375 35.28125 43.8125 
Q 32.671875 45.40625 29.15625 45.40625 
Q 23.53125 45.40625 19.453125 41.84375 
Q 15.375 38.28125 15.375 28.328125 
L 15.375 0 
z
" id="ArialMT-110"/>
       <path id="ArialMT-32"/>
       <path d="M 3.328125 25.921875 
Q 3.328125 40.328125 11.328125 47.265625 
Q 18.015625 53.03125 27.640625 53.03125 
Q 38.328125 53.03125 45.109375 46.015625 
Q 51.90625 39.015625 51.90625 26.65625 
Q 51.90625 16.65625 48.90625 10.90625 
Q 45.90625 5.171875 40.15625 2 
Q 34.421875 -1.171875 27.640625 -1.171875 
Q 16.75 -1.171875 10.03125 5.8125 
Q 3.328125 12.796875 3.328125 25.921875 
z
M 12.359375 25.921875 
Q 12.359375 15.96875 16.703125 11.015625 
Q 21.046875 6.0625 27.640625 6.0625 
Q 34.1875 6.0625 38.53125 11.03125 
Q 42.875 16.015625 42.875 26.21875 
Q 42.875 35.84375 38.5 40.796875 
Q 34.125 45.75 27.640625 45.75 
Q 21.046875 45.75 16.703125 40.8125 
Q 12.359375 35.890625 12.359375 25.921875 
z
" id="ArialMT-111"/>
       <path d="M 40.4375 19 
L 49.078125 17.875 
Q 47.65625 8.9375 41.8125 3.875 
Q 35.984375 -1.171875 27.484375 -1.171875 
Q 16.84375 -1.171875 10.375 5.78125 
Q 3.90625 12.75 3.90625 25.734375 
Q 3.90625 34.125 6.6875 40.421875 
Q 9.46875 46.734375 15.15625 49.875 
Q 20.84375 53.03125 27.546875 53.03125 
Q 35.984375 53.03125 41.359375 48.75 
Q 46.734375 44.484375 48.25 36.625 
L 39.703125 35.296875 
Q 38.484375 40.53125 35.375 43.15625 
Q 32.28125 45.796875 27.875 45.796875 
Q 21.234375 45.796875 17.078125 41.03125 
Q 12.9375 36.28125 12.9375 25.984375 
Q 12.9375 15.53125 16.9375 10.796875 
Q 20.953125 6.0625 27.390625 6.0625 
Q 32.5625 6.0625 36.03125 9.234375 
Q 39.5 12.40625 40.4375 19 
z
" id="ArialMT-99"/>
       <path d="M 40.578125 0 
L 40.578125 7.625 
Q 34.515625 -1.171875 24.125 -1.171875 
Q 19.53125 -1.171875 15.546875 0.578125 
Q 11.578125 2.34375 9.640625 5 
Q 7.71875 7.671875 6.9375 11.53125 
Q 6.390625 14.109375 6.390625 19.734375 
L 6.390625 51.859375 
L 15.1875 51.859375 
L 15.1875 23.09375 
Q 15.1875 16.21875 15.71875 13.8125 
Q 16.546875 10.359375 19.234375 8.375 
Q 21.921875 6.390625 25.875 6.390625 
Q 29.828125 6.390625 33.296875 8.421875 
Q 36.765625 10.453125 38.203125 13.9375 
Q 39.65625 17.4375 39.65625 24.078125 
L 39.65625 51.859375 
L 48.4375 51.859375 
L 48.4375 0 
z
" id="ArialMT-117"/>
       <path d="M 6.59375 -19.875 
L 6.59375 51.859375 
L 14.59375 51.859375 
L 14.59375 45.125 
Q 17.4375 49.078125 21 51.046875 
Q 24.5625 53.03125 29.640625 53.03125 
Q 36.28125 53.03125 41.359375 49.609375 
Q 46.4375 46.1875 49.015625 39.953125 
Q 51.609375 33.734375 51.609375 26.3125 
Q 51.609375 18.359375 48.75 11.984375 
Q 45.90625 5.609375 40.453125 2.21875 
Q 35.015625 -1.171875 29 -1.171875 
Q 24.609375 -1.171875 21.109375 0.6875 
Q 17.625 2.546875 15.375 5.375 
L 15.375 -19.875 
z
M 14.546875 25.640625 
Q 14.546875 15.625 18.59375 10.84375 
Q 22.65625 6.0625 28.421875 6.0625 
Q 34.28125 6.0625 38.453125 11.015625 
Q 42.625 15.96875 42.625 26.375 
Q 42.625 36.28125 38.546875 41.203125 
Q 34.46875 46.140625 28.8125 46.140625 
Q 23.1875 46.140625 18.859375 40.890625 
Q 14.546875 35.640625 14.546875 25.640625 
z
" id="ArialMT-112"/>
       <path d="M 6.203125 -19.96875 
L 5.21875 -11.71875 
Q 8.109375 -12.5 10.25 -12.5 
Q 13.1875 -12.5 14.9375 -11.515625 
Q 16.703125 -10.546875 17.828125 -8.796875 
Q 18.65625 -7.46875 20.515625 -2.25 
Q 20.75 -1.515625 21.296875 -0.09375 
L 1.609375 51.859375 
L 11.078125 51.859375 
L 21.875 21.828125 
Q 23.96875 16.109375 25.640625 9.8125 
Q 27.15625 15.875 29.25 21.625 
L 40.328125 51.859375 
L 49.125 51.859375 
L 29.390625 -0.875 
Q 26.21875 -9.421875 24.46875 -12.640625 
Q 22.125 -17 19.09375 -19.015625 
Q 16.0625 -21.046875 11.859375 -21.046875 
Q 9.328125 -21.046875 6.203125 -19.96875 
z
" id="ArialMT-121"/>
      </defs>
      <use xlink:href="#ArialMT-77"/>
      <use x="83.300781" xlink:href="#ArialMT-101"/>
      <use x="138.916016" xlink:href="#ArialMT-97"/>
      <use x="194.53125" xlink:href="#ArialMT-110"/>
      <use x="250.146484" xlink:href="#ArialMT-32"/>
      <use x="277.929688" xlink:href="#ArialMT-111"/>
      <use x="333.544922" xlink:href="#ArialMT-99"/>
      <use x="383.544922" xlink:href="#ArialMT-99"/>
      <use x="433.544922" xlink:href="#ArialMT-117"/>
      <use x="489.160156" xlink:href="#ArialMT-112"/>
      <use x="544.775391" xlink:href="#ArialMT-97"/>
      <use x="600.390625" xlink:href="#ArialMT-110"/>
      <use x="656.005859" xlink:href="#ArialMT-99"/>
      <use x="706.005859" xlink:href="#ArialMT-121"/>
     </g>
     <!-- $\langle$N$\rangle$, at saturation -->
     <g transform="translate(51.96 191.448302)rotate(-90)scale(0.2 -0.2)">
      <defs>
       <path d="M 8.9375 31.34375 
L 22.703125 75.875 
L 31 75.875 
L 17.234375 31.34375 
L 31 -13.1875 
L 22.703125 -13.1875 
z
" id="DejaVuSans-10216"/>
       <path d="M 7.625 0 
L 7.625 71.578125 
L 17.328125 71.578125 
L 54.9375 15.375 
L 54.9375 71.578125 
L 64.015625 71.578125 
L 64.015625 0 
L 54.296875 0 
L 16.703125 56.25 
L 16.703125 0 
z
" id="ArialMT-78"/>
       <path d="M 30.078125 31.34375 
L 16.3125 -13.1875 
L 8.015625 -13.1875 
L 21.78125 31.34375 
L 8.015625 75.875 
L 16.3125 75.875 
z
" id="DejaVuSans-10217"/>
       <path d="M 8.890625 0 
L 8.890625 10.015625 
L 18.890625 10.015625 
L 18.890625 0 
Q 18.890625 -5.515625 16.9375 -8.90625 
Q 14.984375 -12.3125 10.75 -14.15625 
L 8.296875 -10.40625 
Q 11.078125 -9.1875 12.390625 -6.8125 
Q 13.71875 -4.4375 13.875 0 
z
" id="ArialMT-44"/>
       <path d="M 25.78125 7.859375 
L 27.046875 0.09375 
Q 23.34375 -0.6875 20.40625 -0.6875 
Q 15.625 -0.6875 12.984375 0.828125 
Q 10.359375 2.34375 9.28125 4.8125 
Q 8.203125 7.28125 8.203125 15.1875 
L 8.203125 45.015625 
L 1.765625 45.015625 
L 1.765625 51.859375 
L 8.203125 51.859375 
L 8.203125 64.703125 
L 16.9375 69.96875 
L 16.9375 51.859375 
L 25.78125 51.859375 
L 25.78125 45.015625 
L 16.9375 45.015625 
L 16.9375 14.703125 
Q 16.9375 10.9375 17.40625 9.859375 
Q 17.875 8.796875 18.921875 8.15625 
Q 19.96875 7.515625 21.921875 7.515625 
Q 23.390625 7.515625 25.78125 7.859375 
z
" id="ArialMT-116"/>
       <path d="M 3.078125 15.484375 
L 11.765625 16.84375 
Q 12.5 11.625 15.84375 8.84375 
Q 19.1875 6.0625 25.203125 6.0625 
Q 31.25 6.0625 34.171875 8.515625 
Q 37.109375 10.984375 37.109375 14.3125 
Q 37.109375 17.28125 34.515625 19 
Q 32.71875 20.171875 25.53125 21.96875 
Q 15.875 24.421875 12.140625 26.203125 
Q 8.40625 27.984375 6.46875 31.125 
Q 4.546875 34.28125 4.546875 38.09375 
Q 4.546875 41.546875 6.125 44.5 
Q 7.71875 47.46875 10.453125 49.421875 
Q 12.5 50.921875 16.03125 51.96875 
Q 19.578125 53.03125 23.640625 53.03125 
Q 29.734375 53.03125 34.34375 51.265625 
Q 38.96875 49.515625 41.15625 46.5 
Q 43.359375 43.5 44.1875 38.484375 
L 35.59375 37.3125 
Q 35.015625 41.3125 32.203125 43.546875 
Q 29.390625 45.796875 24.265625 45.796875 
Q 18.21875 45.796875 15.625 43.796875 
Q 13.03125 41.796875 13.03125 39.109375 
Q 13.03125 37.40625 14.109375 36.03125 
Q 15.1875 34.625 17.484375 33.6875 
Q 18.796875 33.203125 25.25 31.453125 
Q 34.578125 28.953125 38.25 27.359375 
Q 41.9375 25.78125 44.03125 22.75 
Q 46.140625 19.734375 46.140625 15.234375 
Q 46.140625 10.84375 43.578125 6.953125 
Q 41.015625 3.078125 36.171875 0.953125 
Q 31.34375 -1.171875 25.25 -1.171875 
Q 15.140625 -1.171875 9.84375 3.03125 
Q 4.546875 7.234375 3.078125 15.484375 
z
" id="ArialMT-115"/>
       <path d="M 6.5 0 
L 6.5 51.859375 
L 14.40625 51.859375 
L 14.40625 44 
Q 17.4375 49.515625 20 51.265625 
Q 22.5625 53.03125 25.640625 53.03125 
Q 30.078125 53.03125 34.671875 50.203125 
L 31.640625 42.046875 
Q 28.421875 43.953125 25.203125 43.953125 
Q 22.3125 43.953125 20.015625 42.21875 
Q 17.71875 40.484375 16.75 37.40625 
Q 15.28125 32.71875 15.28125 27.15625 
L 15.28125 0 
z
" id="ArialMT-114"/>
       <path d="M 6.640625 61.46875 
L 6.640625 71.578125 
L 15.4375 71.578125 
L 15.4375 61.46875 
z
M 6.640625 0 
L 6.640625 51.859375 
L 15.4375 51.859375 
L 15.4375 0 
z
" id="ArialMT-105"/>
      </defs>
      <use transform="translate(0 0.125)" xlink:href="#DejaVuSans-10216"/>
      <use transform="translate(39.013672 0.125)" xlink:href="#ArialMT-78"/>
      <use transform="translate(111.230469 0.125)" xlink:href="#DejaVuSans-10217"/>
      <use transform="translate(150.244141 0.125)" xlink:href="#ArialMT-44"/>
      <use transform="translate(178.027344 0.125)" xlink:href="#ArialMT-32"/>
      <use transform="translate(205.810547 0.125)" xlink:href="#ArialMT-97"/>
      <use transform="translate(261.425781 0.125)" xlink:href="#ArialMT-116"/>
      <use transform="translate(289.208984 0.125)" xlink:href="#ArialMT-32"/>
      <use transform="translate(316.992188 0.125)" xlink:href="#ArialMT-115"/>
      <use transform="translate(366.992188 0.125)" xlink:href="#ArialMT-97"/>
      <use transform="translate(422.607422 0.125)" xlink:href="#ArialMT-116"/>
      <use transform="translate(450.390625 0.125)" xlink:href="#ArialMT-117"/>
      <use transform="translate(506.005859 0.125)" xlink:href="#ArialMT-114"/>
      <use transform="translate(539.306641 0.125)" xlink:href="#ArialMT-97"/>
      <use transform="translate(594.921875 0.125)" xlink:href="#ArialMT-116"/>
      <use transform="translate(622.705078 0.125)" xlink:href="#ArialMT-105"/>
      <use transform="translate(644.921875 0.125)" xlink:href="#ArialMT-111"/>
      <use transform="translate(700.537109 0.125)" xlink:href="#ArialMT-110"/>
     </g>
    </g>
   </g>
   <g id="patch_3">
    <path d="M 89.175 214.696604 
L 89.175 16.8 
" style="fill:none;stroke:#000000;stroke-linecap:square;stroke-linejoin:miter;stroke-width:0.8;"/>
   </g>
   <g id="patch_4">
    <path d="M 514.8 214.696604 
L 514.8 16.8 
" style="fill:none;stroke:#000000;stroke-linecap:square;stroke-linejoin:miter;stroke-width:0.8;"/>
   </g>
   <g id="patch_5">
    <path d="M 89.175 214.696604 
L 514.8 214.696604 
" style="fill:none;stroke:#000000;stroke-linecap:square;stroke-linejoin:miter;stroke-width:0.8;"/>
   </g>
   <g id="patch_6">
    <path d="M 89.175 16.8 
L 514.8 16.8 
" style="fill:none;stroke:#000000;stroke-linecap:square;stroke-linejoin:miter;stroke-width:0.8;"/>
   </g>
   <g id="LineCollection_1">
    <path clip-path="url(#pddac93b91f)" d="M 108.521591 115.733658 
L 108.521591 115.733658 
" style="fill:none;stroke:#000000;stroke-width:2;"/>
    <path clip-path="url(#pddac93b91f)" d="M 147.214773 115.733658 
L 147.214773 115.733658 
" style="fill:none;stroke:#000000;stroke-width:2;"/>
    <path clip-path="url(#pddac93b91f)" d="M 185.907955 115.733658 
L 185.907955 115.733658 
" style="fill:none;stroke:#000000;stroke-width:2;"/>
    <path clip-path="url(#pddac93b91f)" d="M 224.601136 115.733658 
L 224.601136 115.733658 
" style="fill:none;stroke:#000000;stroke-width:2;"/>
    <path clip-path="url(#pddac93b91f)" d="M 263.294318 134.09963 
L 263.294318 119.346242 
" style="fill:none;stroke:#000000;stroke-width:2;"/>
    <path clip-path="url(#pddac93b91f)" d="M 301.9875 141.029089 
L 301.9875 127.049077 
" style="fill:none;stroke:#000000;stroke-width:2;"/>
    <path clip-path="url(#pddac93b91f)" d="M 340.680682 122.556855 
L 340.680682 108.456289 
" style="fill:none;stroke:#000000;stroke-width:2;"/>
    <path clip-path="url(#pddac93b91f)" d="M 379.373864 141.82199 
L 379.373864 126.943368 
" style="fill:none;stroke:#000000;stroke-width:2;"/>
    <path clip-path="url(#pddac93b91f)" d="M 418.067045 130.491119 
L 418.067045 120.832128 
" style="fill:none;stroke:#000000;stroke-width:2;"/>
    <path clip-path="url(#pddac93b91f)" d="M 456.760227 126.833276 
L 456.760227 118.543273 
" style="fill:none;stroke:#000000;stroke-width:2;"/>
    <path clip-path="url(#pddac93b91f)" d="M 495.453409 127.321589 
L 495.453409 116.236508 
" style="fill:none;stroke:#000000;stroke-width:2;"/>
   </g>
   <g id="PathCollection_1">
    <defs>
     <path d="M -4.743416 4.743416 
L 4.743416 -4.743416 
M -4.743416 -4.743416 
L 4.743416 4.743416 
" id="m3a4f021213" style="stroke:#000000;stroke-width:2.5;"/>
    </defs>
    <g clip-path="url(#pddac93b91f)">
     <use style="stroke:#000000;stroke-width:2.5;" x="108.521591" xlink:href="#m3a4f021213" y="115.733658"/>
     <use style="stroke:#000000;stroke-width:2.5;" x="147.214773" xlink:href="#m3a4f021213" y="115.733658"/>
     <use style="stroke:#000000;stroke-width:2.5;" x="185.907955" xlink:href="#m3a4f021213" y="115.733658"/>
     <use style="stroke:#000000;stroke-width:2.5;" x="224.601136" xlink:href="#m3a4f021213" y="115.733658"/>
     <use style="stroke:#000000;stroke-width:2.5;" x="263.294318" xlink:href="#m3a4f021213" y="127.232976"/>
     <use style="stroke:#000000;stroke-width:2.5;" x="301.9875" xlink:href="#m3a4f021213" y="134.473833"/>
     <use style="stroke:#000000;stroke-width:2.5;" x="340.680682" xlink:href="#m3a4f021213" y="115.899232"/>
     <use style="stroke:#000000;stroke-width:2.5;" x="379.373864" xlink:href="#m3a4f021213" y="134.769972"/>
     <use style="stroke:#000000;stroke-width:2.5;" x="418.067045" xlink:href="#m3a4f021213" y="125.794027"/>
     <use style="stroke:#000000;stroke-width:2.5;" x="456.760227" xlink:href="#m3a4f021213" y="122.742278"/>
     <use style="stroke:#000000;stroke-width:2.5;" x="495.453409" xlink:href="#m3a4f021213" y="121.885916"/>
    </g>
   </g>
  </g>
  <g id="axes_2">
   <g id="patch_7">
    <path d="M 89.175 412.593208 
L 514.8 412.593208 
L 514.8 214.696604 
L 89.175 214.696604 
z
" style="fill:#ffffff;"/>
   </g>
   <g id="matplotlib.axis_3">
    <g id="xtick_12">
     <g id="line2d_28">
      <g>
       <use style="stroke:#000000;stroke-width:0.8;" x="108.521591" xlink:href="#m8c191ce2ec" y="412.593208"/>
      </g>
     </g>
     <g id="text_6">
      <!-- W1XXXXX -->
      <g transform="translate(67.08638 488.817348)rotate(-60)scale(0.16 -0.16)">
       <defs>
        <path d="M 20.21875 0 
L 1.21875 71.578125 
L 10.9375 71.578125 
L 21.828125 24.65625 
Q 23.578125 17.28125 24.859375 10.015625 
Q 27.59375 21.484375 28.078125 23.25 
L 41.703125 71.578125 
L 53.125 71.578125 
L 63.375 35.359375 
Q 67.234375 21.875 68.953125 10.015625 
Q 70.3125 16.796875 72.515625 25.59375 
L 83.734375 71.578125 
L 93.265625 71.578125 
L 73.640625 0 
L 64.5 0 
L 49.421875 54.546875 
Q 47.515625 61.375 47.171875 62.9375 
Q 46.046875 58.015625 45.0625 54.546875 
L 29.890625 0 
z
" id="ArialMT-87"/>
        <path d="M 0.4375 0 
L 28.125 37.3125 
L 3.71875 71.578125 
L 14.984375 71.578125 
L 27.984375 53.21875 
Q 32.03125 47.515625 33.734375 44.4375 
Q 36.140625 48.34375 39.40625 52.59375 
L 53.8125 71.578125 
L 64.109375 71.578125 
L 38.96875 37.84375 
L 66.0625 0 
L 54.34375 0 
L 36.328125 25.53125 
Q 34.8125 27.734375 33.203125 30.328125 
Q 30.8125 26.421875 29.78125 24.953125 
L 11.8125 0 
z
" id="ArialMT-88"/>
       </defs>
       <use xlink:href="#ArialMT-87"/>
       <use x="94.384766" xlink:href="#ArialMT-49"/>
       <use x="150" xlink:href="#ArialMT-88"/>
       <use x="216.699219" xlink:href="#ArialMT-88"/>
       <use x="283.398438" xlink:href="#ArialMT-88"/>
       <use x="350.097656" xlink:href="#ArialMT-88"/>
       <use x="416.796875" xlink:href="#ArialMT-88"/>
      </g>
     </g>
    </g>
    <g id="xtick_13">
     <g id="line2d_29">
      <g>
       <use style="stroke:#000000;stroke-width:0.8;" x="147.214773" xlink:href="#m8c191ce2ec" y="412.593208"/>
      </g>
     </g>
     <g id="text_7">
      <!-- W2XXXXX -->
      <g transform="translate(105.779562 488.817348)rotate(-60)scale(0.16 -0.16)">
       <use xlink:href="#ArialMT-87"/>
       <use x="94.384766" xlink:href="#ArialMT-50"/>
       <use x="150" xlink:href="#ArialMT-88"/>
       <use x="216.699219" xlink:href="#ArialMT-88"/>
       <use x="283.398438" xlink:href="#ArialMT-88"/>
       <use x="350.097656" xlink:href="#ArialMT-88"/>
       <use x="416.796875" xlink:href="#ArialMT-88"/>
      </g>
     </g>
    </g>
    <g id="xtick_14">
     <g id="line2d_30">
      <g>
       <use style="stroke:#000000;stroke-width:0.8;" x="185.907955" xlink:href="#m8c191ce2ec" y="412.593208"/>
      </g>
     </g>
     <g id="text_8">
      <!-- W3XXXXX -->
      <g transform="translate(144.472744 488.817348)rotate(-60)scale(0.16 -0.16)">
       <defs>
        <path d="M 4.203125 18.890625 
L 12.984375 20.0625 
Q 14.5 12.59375 18.140625 9.296875 
Q 21.78125 6 27 6 
Q 33.203125 6 37.46875 10.296875 
Q 41.75 14.59375 41.75 20.953125 
Q 41.75 27 37.796875 30.921875 
Q 33.84375 34.859375 27.734375 34.859375 
Q 25.25 34.859375 21.53125 33.890625 
L 22.515625 41.609375 
Q 23.390625 41.5 23.921875 41.5 
Q 29.546875 41.5 34.03125 44.421875 
Q 38.53125 47.359375 38.53125 53.46875 
Q 38.53125 58.296875 35.25 61.46875 
Q 31.984375 64.65625 26.8125 64.65625 
Q 21.6875 64.65625 18.265625 61.421875 
Q 14.84375 58.203125 13.875 51.765625 
L 5.078125 53.328125 
Q 6.6875 62.15625 12.390625 67.015625 
Q 18.109375 71.875 26.609375 71.875 
Q 32.46875 71.875 37.390625 69.359375 
Q 42.328125 66.84375 44.9375 62.5 
Q 47.5625 58.15625 47.5625 53.265625 
Q 47.5625 48.640625 45.0625 44.828125 
Q 42.578125 41.015625 37.703125 38.765625 
Q 44.046875 37.3125 47.5625 32.6875 
Q 51.078125 28.078125 51.078125 21.140625 
Q 51.078125 11.765625 44.234375 5.25 
Q 37.40625 -1.265625 26.953125 -1.265625 
Q 17.53125 -1.265625 11.296875 4.34375 
Q 5.078125 9.96875 4.203125 18.890625 
z
" id="ArialMT-51"/>
       </defs>
       <use xlink:href="#ArialMT-87"/>
       <use x="94.384766" xlink:href="#ArialMT-51"/>
       <use x="150" xlink:href="#ArialMT-88"/>
       <use x="216.699219" xlink:href="#ArialMT-88"/>
       <use x="283.398438" xlink:href="#ArialMT-88"/>
       <use x="350.097656" xlink:href="#ArialMT-88"/>
       <use x="416.796875" xlink:href="#ArialMT-88"/>
      </g>
     </g>
    </g>
    <g id="xtick_15">
     <g id="line2d_31">
      <g>
       <use style="stroke:#000000;stroke-width:0.8;" x="224.601136" xlink:href="#m8c191ce2ec" y="412.593208"/>
      </g>
     </g>
     <g id="text_9">
      <!-- W4XXXXX -->
      <g transform="translate(183.165926 488.817348)rotate(-60)scale(0.16 -0.16)">
       <defs>
        <path d="M 32.328125 0 
L 32.328125 17.140625 
L 1.265625 17.140625 
L 1.265625 25.203125 
L 33.9375 71.578125 
L 41.109375 71.578125 
L 41.109375 25.203125 
L 50.78125 25.203125 
L 50.78125 17.140625 
L 41.109375 17.140625 
L 41.109375 0 
z
M 32.328125 25.203125 
L 32.328125 57.46875 
L 9.90625 25.203125 
z
" id="ArialMT-52"/>
       </defs>
       <use xlink:href="#ArialMT-87"/>
       <use x="94.384766" xlink:href="#ArialMT-52"/>
       <use x="150" xlink:href="#ArialMT-88"/>
       <use x="216.699219" xlink:href="#ArialMT-88"/>
       <use x="283.398438" xlink:href="#ArialMT-88"/>
       <use x="350.097656" xlink:href="#ArialMT-88"/>
       <use x="416.796875" xlink:href="#ArialMT-88"/>
      </g>
     </g>
    </g>
    <g id="xtick_16">
     <g id="line2d_32">
      <g>
       <use style="stroke:#000000;stroke-width:0.8;" x="263.294318" xlink:href="#m8c191ce2ec" y="412.593208"/>
      </g>
     </g>
     <g id="text_10">
      <!-- M2XXXXX -->
      <g transform="translate(222.746607 487.280153)rotate(-60)scale(0.16 -0.16)">
       <use xlink:href="#ArialMT-77"/>
       <use x="83.300781" xlink:href="#ArialMT-50"/>
       <use x="138.916016" xlink:href="#ArialMT-88"/>
       <use x="205.615234" xlink:href="#ArialMT-88"/>
       <use x="272.314453" xlink:href="#ArialMT-88"/>
       <use x="339.013672" xlink:href="#ArialMT-88"/>
       <use x="405.712891" xlink:href="#ArialMT-88"/>
      </g>
     </g>
    </g>
    <g id="xtick_17">
     <g id="line2d_33">
      <g>
       <use style="stroke:#000000;stroke-width:0.8;" x="301.9875" xlink:href="#m8c191ce2ec" y="412.593208"/>
      </g>
     </g>
     <g id="text_11">
      <!-- M6XXXXX -->
      <g transform="translate(261.439789 487.280153)rotate(-60)scale(0.16 -0.16)">
       <defs>
        <path d="M 49.75 54.046875 
L 41.015625 53.375 
Q 39.84375 58.546875 37.703125 60.890625 
Q 34.125 64.65625 28.90625 64.65625 
Q 24.703125 64.65625 21.53125 62.3125 
Q 17.390625 59.28125 14.984375 53.46875 
Q 12.59375 47.65625 12.5 36.921875 
Q 15.671875 41.75 20.265625 44.09375 
Q 24.859375 46.4375 29.890625 46.4375 
Q 38.671875 46.4375 44.84375 39.96875 
Q 51.03125 33.5 51.03125 23.25 
Q 51.03125 16.5 48.125 10.71875 
Q 45.21875 4.9375 40.140625 1.859375 
Q 35.0625 -1.21875 28.609375 -1.21875 
Q 17.625 -1.21875 10.6875 6.859375 
Q 3.765625 14.9375 3.765625 33.5 
Q 3.765625 54.25 11.421875 63.671875 
Q 18.109375 71.875 29.4375 71.875 
Q 37.890625 71.875 43.28125 67.140625 
Q 48.6875 62.40625 49.75 54.046875 
z
M 13.875 23.1875 
Q 13.875 18.65625 15.796875 14.5 
Q 17.71875 10.359375 21.1875 8.171875 
Q 24.65625 6 28.46875 6 
Q 34.03125 6 38.03125 10.484375 
Q 42.046875 14.984375 42.046875 22.703125 
Q 42.046875 30.125 38.078125 34.390625 
Q 34.125 38.671875 28.125 38.671875 
Q 22.171875 38.671875 18.015625 34.390625 
Q 13.875 30.125 13.875 23.1875 
z
" id="ArialMT-54"/>
       </defs>
       <use xlink:href="#ArialMT-77"/>
       <use x="83.300781" xlink:href="#ArialMT-54"/>
       <use x="138.916016" xlink:href="#ArialMT-88"/>
       <use x="205.615234" xlink:href="#ArialMT-88"/>
       <use x="272.314453" xlink:href="#ArialMT-88"/>
       <use x="339.013672" xlink:href="#ArialMT-88"/>
       <use x="405.712891" xlink:href="#ArialMT-88"/>
      </g>
     </g>
    </g>
    <g id="xtick_18">
     <g id="line2d_34">
      <g>
       <use style="stroke:#000000;stroke-width:0.8;" x="340.680682" xlink:href="#m8c191ce2ec" y="412.593208"/>
      </g>
     </g>
     <g id="text_12">
      <!-- M4XXXXX -->
      <g transform="translate(300.132971 487.280153)rotate(-60)scale(0.16 -0.16)">
       <use xlink:href="#ArialMT-77"/>
       <use x="83.300781" xlink:href="#ArialMT-52"/>
       <use x="138.916016" xlink:href="#ArialMT-88"/>
       <use x="205.615234" xlink:href="#ArialMT-88"/>
       <use x="272.314453" xlink:href="#ArialMT-88"/>
       <use x="339.013672" xlink:href="#ArialMT-88"/>
       <use x="405.712891" xlink:href="#ArialMT-88"/>
      </g>
     </g>
    </g>
    <g id="xtick_19">
     <g id="line2d_35">
      <g>
       <use style="stroke:#000000;stroke-width:0.8;" x="379.373864" xlink:href="#m8c191ce2ec" y="412.593208"/>
      </g>
     </g>
     <g id="text_13">
      <!-- M5XXXXX -->
      <g transform="translate(338.826153 487.280153)rotate(-60)scale(0.16 -0.16)">
       <use xlink:href="#ArialMT-77"/>
       <use x="83.300781" xlink:href="#ArialMT-53"/>
       <use x="138.916016" xlink:href="#ArialMT-88"/>
       <use x="205.615234" xlink:href="#ArialMT-88"/>
       <use x="272.314453" xlink:href="#ArialMT-88"/>
       <use x="339.013672" xlink:href="#ArialMT-88"/>
       <use x="405.712891" xlink:href="#ArialMT-88"/>
      </g>
     </g>
    </g>
    <g id="xtick_20">
     <g id="line2d_36">
      <g>
       <use style="stroke:#000000;stroke-width:0.8;" x="418.067045" xlink:href="#m8c191ce2ec" y="412.593208"/>
      </g>
     </g>
     <g id="text_14">
      <!-- M1XXXXX -->
      <g transform="translate(377.519335 487.280153)rotate(-60)scale(0.16 -0.16)">
       <use xlink:href="#ArialMT-77"/>
       <use x="83.300781" xlink:href="#ArialMT-49"/>
       <use x="138.916016" xlink:href="#ArialMT-88"/>
       <use x="205.615234" xlink:href="#ArialMT-88"/>
       <use x="272.314453" xlink:href="#ArialMT-88"/>
       <use x="339.013672" xlink:href="#ArialMT-88"/>
       <use x="405.712891" xlink:href="#ArialMT-88"/>
      </g>
     </g>
    </g>
    <g id="xtick_21">
     <g id="line2d_37">
      <g>
       <use style="stroke:#000000;stroke-width:0.8;" x="456.760227" xlink:href="#m8c191ce2ec" y="412.593208"/>
      </g>
     </g>
     <g id="text_15">
      <!-- M3XXXXX -->
      <g transform="translate(416.212516 487.280153)rotate(-60)scale(0.16 -0.16)">
       <use xlink:href="#ArialMT-77"/>
       <use x="83.300781" xlink:href="#ArialMT-51"/>
       <use x="138.916016" xlink:href="#ArialMT-88"/>
       <use x="205.615234" xlink:href="#ArialMT-88"/>
       <use x="272.314453" xlink:href="#ArialMT-88"/>
       <use x="339.013672" xlink:href="#ArialMT-88"/>
       <use x="405.712891" xlink:href="#ArialMT-88"/>
      </g>
     </g>
    </g>
    <g id="xtick_22">
     <g id="line2d_38">
      <g>
       <use style="stroke:#000000;stroke-width:0.8;" x="495.453409" xlink:href="#m8c191ce2ec" y="412.593208"/>
      </g>
     </g>
     <g id="text_16">
      <!-- A11XXXXX -->
      <g transform="translate(452.374448 491.664407)rotate(-60)scale(0.16 -0.16)">
       <defs>
        <path d="M -0.140625 0 
L 27.34375 71.578125 
L 37.546875 71.578125 
L 66.84375 0 
L 56.0625 0 
L 47.703125 21.6875 
L 17.78125 21.6875 
L 9.90625 0 
z
M 20.515625 29.390625 
L 44.78125 29.390625 
L 37.3125 49.21875 
Q 33.890625 58.25 32.234375 64.0625 
Q 30.859375 57.171875 28.375 50.390625 
z
" id="ArialMT-65"/>
       </defs>
       <use xlink:href="#ArialMT-65"/>
       <use x="66.699219" xlink:href="#ArialMT-49"/>
       <use x="114.939453" xlink:href="#ArialMT-49"/>
       <use x="170.554688" xlink:href="#ArialMT-88"/>
       <use x="237.253906" xlink:href="#ArialMT-88"/>
       <use x="303.953125" xlink:href="#ArialMT-88"/>
       <use x="370.652344" xlink:href="#ArialMT-88"/>
       <use x="437.351562" xlink:href="#ArialMT-88"/>
      </g>
     </g>
    </g>
   </g>
   <g id="matplotlib.axis_4">
    <g id="ytick_9">
     <g id="line2d_39">
      <path clip-path="url(#p9d31f8c10c)" d="M 89.175 370.478318 
L 514.8 370.478318 
" style="fill:none;stroke:#b0b0b0;stroke-linecap:square;stroke-width:0.8;"/>
     </g>
     <g id="line2d_40">
      <g>
       <use style="stroke:#000000;stroke-width:0.8;" x="89.175" xlink:href="#m29b696b629" y="370.478318"/>
      </g>
     </g>
     <g id="text_17">
      <!-- 10 -->
      <g transform="translate(64.38 376.204568)scale(0.16 -0.16)">
       <use xlink:href="#ArialMT-49"/>
       <use x="55.615234" xlink:href="#ArialMT-48"/>
      </g>
     </g>
    </g>
    <g id="ytick_10">
     <g id="line2d_41">
      <path clip-path="url(#p9d31f8c10c)" d="M 89.175 328.363428 
L 514.8 328.363428 
" style="fill:none;stroke:#b0b0b0;stroke-linecap:square;stroke-width:0.8;"/>
     </g>
     <g id="line2d_42">
      <g>
       <use style="stroke:#000000;stroke-width:0.8;" x="89.175" xlink:href="#m29b696b629" y="328.363428"/>
      </g>
     </g>
     <g id="text_18">
      <!-- 100 -->
      <g transform="translate(55.4825 334.089678)scale(0.16 -0.16)">
       <use xlink:href="#ArialMT-49"/>
       <use x="55.615234" xlink:href="#ArialMT-48"/>
       <use x="111.230469" xlink:href="#ArialMT-48"/>
      </g>
     </g>
    </g>
    <g id="ytick_11">
     <g id="line2d_43">
      <path clip-path="url(#p9d31f8c10c)" d="M 89.175 286.248539 
L 514.8 286.248539 
" style="fill:none;stroke:#b0b0b0;stroke-linecap:square;stroke-width:0.8;"/>
     </g>
     <g id="line2d_44">
      <g>
       <use style="stroke:#000000;stroke-width:0.8;" x="89.175" xlink:href="#m29b696b629" y="286.248539"/>
      </g>
     </g>
     <g id="text_19">
      <!-- 1000 -->
      <g transform="translate(46.585 291.974789)scale(0.16 -0.16)">
       <use xlink:href="#ArialMT-49"/>
       <use x="55.615234" xlink:href="#ArialMT-48"/>
       <use x="111.230469" xlink:href="#ArialMT-48"/>
       <use x="166.845703" xlink:href="#ArialMT-48"/>
      </g>
     </g>
    </g>
    <g id="ytick_12">
     <g id="line2d_45">
      <path clip-path="url(#p9d31f8c10c)" d="M 89.175 244.133649 
L 514.8 244.133649 
" style="fill:none;stroke:#b0b0b0;stroke-linecap:square;stroke-width:0.8;"/>
     </g>
     <g id="line2d_46">
      <g>
       <use style="stroke:#000000;stroke-width:0.8;" x="89.175" xlink:href="#m29b696b629" y="244.133649"/>
      </g>
     </g>
     <g id="text_20">
      <!-- 10000 -->
      <g transform="translate(37.6875 249.859899)scale(0.16 -0.16)">
       <use xlink:href="#ArialMT-49"/>
       <use x="55.615234" xlink:href="#ArialMT-48"/>
       <use x="111.230469" xlink:href="#ArialMT-48"/>
       <use x="166.845703" xlink:href="#ArialMT-48"/>
       <use x="222.460938" xlink:href="#ArialMT-48"/>
      </g>
     </g>
    </g>
    <g id="ytick_13">
     <g id="line2d_47">
      <path clip-path="url(#p9d31f8c10c)" d="M 89.175 399.915363 
L 514.8 399.915363 
" style="fill:none;stroke:#b0b0b0;stroke-linecap:square;stroke-width:0.8;"/>
     </g>
     <g id="line2d_48">
      <g>
       <use style="stroke:#000000;stroke-width:0.6;" x="89.175" xlink:href="#m9e6d2d13ae" y="399.915363"/>
      </g>
     </g>
    </g>
    <g id="ytick_14">
     <g id="line2d_49">
      <path clip-path="url(#p9d31f8c10c)" d="M 89.175 392.499299 
L 514.8 392.499299 
" style="fill:none;stroke:#b0b0b0;stroke-linecap:square;stroke-width:0.8;"/>
     </g>
     <g id="line2d_50">
      <g>
       <use style="stroke:#000000;stroke-width:0.6;" x="89.175" xlink:href="#m9e6d2d13ae" y="392.499299"/>
      </g>
     </g>
    </g>
    <g id="ytick_15">
     <g id="line2d_51">
      <path clip-path="url(#p9d31f8c10c)" d="M 89.175 387.237518 
L 514.8 387.237518 
" style="fill:none;stroke:#b0b0b0;stroke-linecap:square;stroke-width:0.8;"/>
     </g>
     <g id="line2d_52">
      <g>
       <use style="stroke:#000000;stroke-width:0.6;" x="89.175" xlink:href="#m9e6d2d13ae" y="387.237518"/>
      </g>
     </g>
    </g>
    <g id="ytick_16">
     <g id="line2d_53">
      <path clip-path="url(#p9d31f8c10c)" d="M 89.175 383.156163 
L 514.8 383.156163 
" style="fill:none;stroke:#b0b0b0;stroke-linecap:square;stroke-width:0.8;"/>
     </g>
     <g id="line2d_54">
      <g>
       <use style="stroke:#000000;stroke-width:0.6;" x="89.175" xlink:href="#m9e6d2d13ae" y="383.156163"/>
      </g>
     </g>
    </g>
    <g id="ytick_17">
     <g id="line2d_55">
      <path clip-path="url(#p9d31f8c10c)" d="M 89.175 379.821454 
L 514.8 379.821454 
" style="fill:none;stroke:#b0b0b0;stroke-linecap:square;stroke-width:0.8;"/>
     </g>
     <g id="line2d_56">
      <g>
       <use style="stroke:#000000;stroke-width:0.6;" x="89.175" xlink:href="#m9e6d2d13ae" y="379.821454"/>
      </g>
     </g>
    </g>
    <g id="ytick_18">
     <g id="line2d_57">
      <path clip-path="url(#p9d31f8c10c)" d="M 89.175 377.001997 
L 514.8 377.001997 
" style="fill:none;stroke:#b0b0b0;stroke-linecap:square;stroke-width:0.8;"/>
     </g>
     <g id="line2d_58">
      <g>
       <use style="stroke:#000000;stroke-width:0.6;" x="89.175" xlink:href="#m9e6d2d13ae" y="377.001997"/>
      </g>
     </g>
    </g>
    <g id="ytick_19">
     <g id="line2d_59">
      <path clip-path="url(#p9d31f8c10c)" d="M 89.175 374.559673 
L 514.8 374.559673 
" style="fill:none;stroke:#b0b0b0;stroke-linecap:square;stroke-width:0.8;"/>
     </g>
     <g id="line2d_60">
      <g>
       <use style="stroke:#000000;stroke-width:0.6;" x="89.175" xlink:href="#m9e6d2d13ae" y="374.559673"/>
      </g>
     </g>
    </g>
    <g id="ytick_20">
     <g id="line2d_61">
      <path clip-path="url(#p9d31f8c10c)" d="M 89.175 372.40539 
L 514.8 372.40539 
" style="fill:none;stroke:#b0b0b0;stroke-linecap:square;stroke-width:0.8;"/>
     </g>
     <g id="line2d_62">
      <g>
       <use style="stroke:#000000;stroke-width:0.6;" x="89.175" xlink:href="#m9e6d2d13ae" y="372.40539"/>
      </g>
     </g>
    </g>
    <g id="ytick_21">
     <g id="line2d_63">
      <path clip-path="url(#p9d31f8c10c)" d="M 89.175 357.800473 
L 514.8 357.800473 
" style="fill:none;stroke:#b0b0b0;stroke-linecap:square;stroke-width:0.8;"/>
     </g>
     <g id="line2d_64">
      <g>
       <use style="stroke:#000000;stroke-width:0.6;" x="89.175" xlink:href="#m9e6d2d13ae" y="357.800473"/>
      </g>
     </g>
    </g>
    <g id="ytick_22">
     <g id="line2d_65">
      <path clip-path="url(#p9d31f8c10c)" d="M 89.175 350.384409 
L 514.8 350.384409 
" style="fill:none;stroke:#b0b0b0;stroke-linecap:square;stroke-width:0.8;"/>
     </g>
     <g id="line2d_66">
      <g>
       <use style="stroke:#000000;stroke-width:0.6;" x="89.175" xlink:href="#m9e6d2d13ae" y="350.384409"/>
      </g>
     </g>
    </g>
    <g id="ytick_23">
     <g id="line2d_67">
      <path clip-path="url(#p9d31f8c10c)" d="M 89.175 345.122628 
L 514.8 345.122628 
" style="fill:none;stroke:#b0b0b0;stroke-linecap:square;stroke-width:0.8;"/>
     </g>
     <g id="line2d_68">
      <g>
       <use style="stroke:#000000;stroke-width:0.6;" x="89.175" xlink:href="#m9e6d2d13ae" y="345.122628"/>
      </g>
     </g>
    </g>
    <g id="ytick_24">
     <g id="line2d_69">
      <path clip-path="url(#p9d31f8c10c)" d="M 89.175 341.041274 
L 514.8 341.041274 
" style="fill:none;stroke:#b0b0b0;stroke-linecap:square;stroke-width:0.8;"/>
     </g>
     <g id="line2d_70">
      <g>
       <use style="stroke:#000000;stroke-width:0.6;" x="89.175" xlink:href="#m9e6d2d13ae" y="341.041274"/>
      </g>
     </g>
    </g>
    <g id="ytick_25">
     <g id="line2d_71">
      <path clip-path="url(#p9d31f8c10c)" d="M 89.175 337.706564 
L 514.8 337.706564 
" style="fill:none;stroke:#b0b0b0;stroke-linecap:square;stroke-width:0.8;"/>
     </g>
     <g id="line2d_72">
      <g>
       <use style="stroke:#000000;stroke-width:0.6;" x="89.175" xlink:href="#m9e6d2d13ae" y="337.706564"/>
      </g>
     </g>
    </g>
    <g id="ytick_26">
     <g id="line2d_73">
      <path clip-path="url(#p9d31f8c10c)" d="M 89.175 334.887107 
L 514.8 334.887107 
" style="fill:none;stroke:#b0b0b0;stroke-linecap:square;stroke-width:0.8;"/>
     </g>
     <g id="line2d_74">
      <g>
       <use style="stroke:#000000;stroke-width:0.6;" x="89.175" xlink:href="#m9e6d2d13ae" y="334.887107"/>
      </g>
     </g>
    </g>
    <g id="ytick_27">
     <g id="line2d_75">
      <path clip-path="url(#p9d31f8c10c)" d="M 89.175 332.444783 
L 514.8 332.444783 
" style="fill:none;stroke:#b0b0b0;stroke-linecap:square;stroke-width:0.8;"/>
     </g>
     <g id="line2d_76">
      <g>
       <use style="stroke:#000000;stroke-width:0.6;" x="89.175" xlink:href="#m9e6d2d13ae" y="332.444783"/>
      </g>
     </g>
    </g>
    <g id="ytick_28">
     <g id="line2d_77">
      <path clip-path="url(#p9d31f8c10c)" d="M 89.175 330.2905 
L 514.8 330.2905 
" style="fill:none;stroke:#b0b0b0;stroke-linecap:square;stroke-width:0.8;"/>
     </g>
     <g id="line2d_78">
      <g>
       <use style="stroke:#000000;stroke-width:0.6;" x="89.175" xlink:href="#m9e6d2d13ae" y="330.2905"/>
      </g>
     </g>
    </g>
    <g id="ytick_29">
     <g id="line2d_79">
      <path clip-path="url(#p9d31f8c10c)" d="M 89.175 315.685583 
L 514.8 315.685583 
" style="fill:none;stroke:#b0b0b0;stroke-linecap:square;stroke-width:0.8;"/>
     </g>
     <g id="line2d_80">
      <g>
       <use style="stroke:#000000;stroke-width:0.6;" x="89.175" xlink:href="#m9e6d2d13ae" y="315.685583"/>
      </g>
     </g>
    </g>
    <g id="ytick_30">
     <g id="line2d_81">
      <path clip-path="url(#p9d31f8c10c)" d="M 89.175 308.269519 
L 514.8 308.269519 
" style="fill:none;stroke:#b0b0b0;stroke-linecap:square;stroke-width:0.8;"/>
     </g>
     <g id="line2d_82">
      <g>
       <use style="stroke:#000000;stroke-width:0.6;" x="89.175" xlink:href="#m9e6d2d13ae" y="308.269519"/>
      </g>
     </g>
    </g>
    <g id="ytick_31">
     <g id="line2d_83">
      <path clip-path="url(#p9d31f8c10c)" d="M 89.175 303.007738 
L 514.8 303.007738 
" style="fill:none;stroke:#b0b0b0;stroke-linecap:square;stroke-width:0.8;"/>
     </g>
     <g id="line2d_84">
      <g>
       <use style="stroke:#000000;stroke-width:0.6;" x="89.175" xlink:href="#m9e6d2d13ae" y="303.007738"/>
      </g>
     </g>
    </g>
    <g id="ytick_32">
     <g id="line2d_85">
      <path clip-path="url(#p9d31f8c10c)" d="M 89.175 298.926384 
L 514.8 298.926384 
" style="fill:none;stroke:#b0b0b0;stroke-linecap:square;stroke-width:0.8;"/>
     </g>
     <g id="line2d_86">
      <g>
       <use style="stroke:#000000;stroke-width:0.6;" x="89.175" xlink:href="#m9e6d2d13ae" y="298.926384"/>
      </g>
     </g>
    </g>
    <g id="ytick_33">
     <g id="line2d_87">
      <path clip-path="url(#p9d31f8c10c)" d="M 89.175 295.591674 
L 514.8 295.591674 
" style="fill:none;stroke:#b0b0b0;stroke-linecap:square;stroke-width:0.8;"/>
     </g>
     <g id="line2d_88">
      <g>
       <use style="stroke:#000000;stroke-width:0.6;" x="89.175" xlink:href="#m9e6d2d13ae" y="295.591674"/>
      </g>
     </g>
    </g>
    <g id="ytick_34">
     <g id="line2d_89">
      <path clip-path="url(#p9d31f8c10c)" d="M 89.175 292.772218 
L 514.8 292.772218 
" style="fill:none;stroke:#b0b0b0;stroke-linecap:square;stroke-width:0.8;"/>
     </g>
     <g id="line2d_90">
      <g>
       <use style="stroke:#000000;stroke-width:0.6;" x="89.175" xlink:href="#m9e6d2d13ae" y="292.772218"/>
      </g>
     </g>
    </g>
    <g id="ytick_35">
     <g id="line2d_91">
      <path clip-path="url(#p9d31f8c10c)" d="M 89.175 290.329893 
L 514.8 290.329893 
" style="fill:none;stroke:#b0b0b0;stroke-linecap:square;stroke-width:0.8;"/>
     </g>
     <g id="line2d_92">
      <g>
       <use style="stroke:#000000;stroke-width:0.6;" x="89.175" xlink:href="#m9e6d2d13ae" y="290.329893"/>
      </g>
     </g>
    </g>
    <g id="ytick_36">
     <g id="line2d_93">
      <path clip-path="url(#p9d31f8c10c)" d="M 89.175 288.17561 
L 514.8 288.17561 
" style="fill:none;stroke:#b0b0b0;stroke-linecap:square;stroke-width:0.8;"/>
     </g>
     <g id="line2d_94">
      <g>
       <use style="stroke:#000000;stroke-width:0.6;" x="89.175" xlink:href="#m9e6d2d13ae" y="288.17561"/>
      </g>
     </g>
    </g>
    <g id="ytick_37">
     <g id="line2d_95">
      <path clip-path="url(#p9d31f8c10c)" d="M 89.175 273.570694 
L 514.8 273.570694 
" style="fill:none;stroke:#b0b0b0;stroke-linecap:square;stroke-width:0.8;"/>
     </g>
     <g id="line2d_96">
      <g>
       <use style="stroke:#000000;stroke-width:0.6;" x="89.175" xlink:href="#m9e6d2d13ae" y="273.570694"/>
      </g>
     </g>
    </g>
    <g id="ytick_38">
     <g id="line2d_97">
      <path clip-path="url(#p9d31f8c10c)" d="M 89.175 266.15463 
L 514.8 266.15463 
" style="fill:none;stroke:#b0b0b0;stroke-linecap:square;stroke-width:0.8;"/>
     </g>
     <g id="line2d_98">
      <g>
       <use style="stroke:#000000;stroke-width:0.6;" x="89.175" xlink:href="#m9e6d2d13ae" y="266.15463"/>
      </g>
     </g>
    </g>
    <g id="ytick_39">
     <g id="line2d_99">
      <path clip-path="url(#p9d31f8c10c)" d="M 89.175 260.892848 
L 514.8 260.892848 
" style="fill:none;stroke:#b0b0b0;stroke-linecap:square;stroke-width:0.8;"/>
     </g>
     <g id="line2d_100">
      <g>
       <use style="stroke:#000000;stroke-width:0.6;" x="89.175" xlink:href="#m9e6d2d13ae" y="260.892848"/>
      </g>
     </g>
    </g>
    <g id="ytick_40">
     <g id="line2d_101">
      <path clip-path="url(#p9d31f8c10c)" d="M 89.175 256.811494 
L 514.8 256.811494 
" style="fill:none;stroke:#b0b0b0;stroke-linecap:square;stroke-width:0.8;"/>
     </g>
     <g id="line2d_102">
      <g>
       <use style="stroke:#000000;stroke-width:0.6;" x="89.175" xlink:href="#m9e6d2d13ae" y="256.811494"/>
      </g>
     </g>
    </g>
    <g id="ytick_41">
     <g id="line2d_103">
      <path clip-path="url(#p9d31f8c10c)" d="M 89.175 253.476784 
L 514.8 253.476784 
" style="fill:none;stroke:#b0b0b0;stroke-linecap:square;stroke-width:0.8;"/>
     </g>
     <g id="line2d_104">
      <g>
       <use style="stroke:#000000;stroke-width:0.6;" x="89.175" xlink:href="#m9e6d2d13ae" y="253.476784"/>
      </g>
     </g>
    </g>
    <g id="ytick_42">
     <g id="line2d_105">
      <path clip-path="url(#p9d31f8c10c)" d="M 89.175 250.657328 
L 514.8 250.657328 
" style="fill:none;stroke:#b0b0b0;stroke-linecap:square;stroke-width:0.8;"/>
     </g>
     <g id="line2d_106">
      <g>
       <use style="stroke:#000000;stroke-width:0.6;" x="89.175" xlink:href="#m9e6d2d13ae" y="250.657328"/>
      </g>
     </g>
    </g>
    <g id="ytick_43">
     <g id="line2d_107">
      <path clip-path="url(#p9d31f8c10c)" d="M 89.175 248.215003 
L 514.8 248.215003 
" style="fill:none;stroke:#b0b0b0;stroke-linecap:square;stroke-width:0.8;"/>
     </g>
     <g id="line2d_108">
      <g>
       <use style="stroke:#000000;stroke-width:0.6;" x="89.175" xlink:href="#m9e6d2d13ae" y="248.215003"/>
      </g>
     </g>
    </g>
    <g id="ytick_44">
     <g id="line2d_109">
      <path clip-path="url(#p9d31f8c10c)" d="M 89.175 246.06072 
L 514.8 246.06072 
" style="fill:none;stroke:#b0b0b0;stroke-linecap:square;stroke-width:0.8;"/>
     </g>
     <g id="line2d_110">
      <g>
       <use style="stroke:#000000;stroke-width:0.6;" x="89.175" xlink:href="#m9e6d2d13ae" y="246.06072"/>
      </g>
     </g>
    </g>
    <g id="ytick_45">
     <g id="line2d_111">
      <path clip-path="url(#p9d31f8c10c)" d="M 89.175 231.455804 
L 514.8 231.455804 
" style="fill:none;stroke:#b0b0b0;stroke-linecap:square;stroke-width:0.8;"/>
     </g>
     <g id="line2d_112">
      <g>
       <use style="stroke:#000000;stroke-width:0.6;" x="89.175" xlink:href="#m9e6d2d13ae" y="231.455804"/>
      </g>
     </g>
    </g>
    <g id="ytick_46">
     <g id="line2d_113">
      <path clip-path="url(#p9d31f8c10c)" d="M 89.175 224.03974 
L 514.8 224.03974 
" style="fill:none;stroke:#b0b0b0;stroke-linecap:square;stroke-width:0.8;"/>
     </g>
     <g id="line2d_114">
      <g>
       <use style="stroke:#000000;stroke-width:0.6;" x="89.175" xlink:href="#m9e6d2d13ae" y="224.03974"/>
      </g>
     </g>
    </g>
    <g id="ytick_47">
     <g id="line2d_115">
      <path clip-path="url(#p9d31f8c10c)" d="M 89.175 218.777959 
L 514.8 218.777959 
" style="fill:none;stroke:#b0b0b0;stroke-linecap:square;stroke-width:0.8;"/>
     </g>
     <g id="line2d_116">
      <g>
       <use style="stroke:#000000;stroke-width:0.6;" x="89.175" xlink:href="#m9e6d2d13ae" y="218.777959"/>
      </g>
     </g>
    </g>
    <g id="ytick_48">
     <g id="line2d_117">
      <path clip-path="url(#p9d31f8c10c)" d="M 89.175 214.696604 
L 514.8 214.696604 
" style="fill:none;stroke:#b0b0b0;stroke-linecap:square;stroke-width:0.8;"/>
     </g>
     <g id="line2d_118">
      <g>
       <use style="stroke:#000000;stroke-width:0.6;" x="89.175" xlink:href="#m9e6d2d13ae" y="214.696604"/>
      </g>
     </g>
    </g>
    <g id="text_21">
     <!-- K$_D$ (nM) -->
     <g transform="translate(29.2875 349.444906)rotate(-90)scale(0.2 -0.2)">
      <defs>
       <path d="M 7.328125 0 
L 7.328125 71.578125 
L 16.796875 71.578125 
L 16.796875 36.078125 
L 52.34375 71.578125 
L 65.1875 71.578125 
L 35.15625 42.578125 
L 66.5 0 
L 54 0 
L 28.515625 36.234375 
L 16.796875 24.8125 
L 16.796875 0 
z
" id="ArialMT-75"/>
       <path d="M 16.890625 72.90625 
L 38.09375 72.90625 
Q 54.984375 72.90625 63.59375 65.75 
Q 72.21875 58.59375 72.21875 44.484375 
Q 72.21875 35.15625 68.9375 26.53125 
Q 65.671875 17.921875 59.90625 12.015625 
Q 54.109375 5.953125 45.171875 2.96875 
Q 36.234375 0 24.03125 0 
L 2.6875 0 
z
M 25.203125 64.796875 
L 14.203125 8.109375 
L 27.09375 8.109375 
Q 43.65625 8.109375 52.734375 17.625 
Q 61.8125 27.15625 61.8125 44.484375 
Q 61.8125 54.984375 55.953125 59.890625 
Q 50.09375 64.796875 37.59375 64.796875 
z
" id="DejaVuSans-Oblique-68"/>
       <path d="M 23.390625 -21.046875 
Q 16.109375 -11.859375 11.078125 0.4375 
Q 6.0625 12.75 6.0625 25.921875 
Q 6.0625 37.546875 9.8125 48.1875 
Q 14.203125 60.546875 23.390625 72.796875 
L 29.6875 72.796875 
Q 23.78125 62.640625 21.875 58.296875 
Q 18.890625 51.5625 17.1875 44.234375 
Q 15.09375 35.109375 15.09375 25.875 
Q 15.09375 2.390625 29.6875 -21.046875 
z
" id="ArialMT-40"/>
       <path d="M 12.359375 -21.046875 
L 6.0625 -21.046875 
Q 20.65625 2.390625 20.65625 25.875 
Q 20.65625 35.0625 18.5625 44.09375 
Q 16.890625 51.421875 13.921875 58.15625 
Q 12.015625 62.546875 6.0625 72.796875 
L 12.359375 72.796875 
Q 21.53125 60.546875 25.921875 48.1875 
Q 29.6875 37.546875 29.6875 25.921875 
Q 29.6875 12.75 24.625 0.4375 
Q 19.578125 -11.859375 12.359375 -21.046875 
z
" id="ArialMT-41"/>
      </defs>
      <use transform="translate(0 0.203125)" xlink:href="#ArialMT-75"/>
      <use transform="translate(67.65625 -16.203125)scale(0.7)" xlink:href="#DejaVuSans-Oblique-68"/>
      <use transform="translate(124.291992 0.203125)" xlink:href="#ArialMT-32"/>
      <use transform="translate(152.075195 0.203125)" xlink:href="#ArialMT-40"/>
      <use transform="translate(185.375977 0.203125)" xlink:href="#ArialMT-110"/>
      <use transform="translate(240.991211 0.203125)" xlink:href="#ArialMT-77"/>
      <use transform="translate(324.291992 0.203125)" xlink:href="#ArialMT-41"/>
     </g>
    </g>
   </g>
   <g id="patch_8">
    <path d="M 89.175 412.593208 
L 89.175 214.696604 
" style="fill:none;stroke:#000000;stroke-linecap:square;stroke-linejoin:miter;stroke-width:0.8;"/>
   </g>
   <g id="patch_9">
    <path d="M 514.8 412.593208 
L 514.8 214.696604 
" style="fill:none;stroke:#000000;stroke-linecap:square;stroke-linejoin:miter;stroke-width:0.8;"/>
   </g>
   <g id="patch_10">
    <path d="M 89.175 412.593208 
L 514.8 412.593208 
" style="fill:none;stroke:#000000;stroke-linecap:square;stroke-linejoin:miter;stroke-width:0.8;"/>
   </g>
   <g id="patch_11">
    <path d="M 89.175 214.696604 
L 514.8 214.696604 
" style="fill:none;stroke:#000000;stroke-linecap:square;stroke-linejoin:miter;stroke-width:0.8;"/>
   </g>
   <g id="LineCollection_2">
    <path clip-path="url(#p9d31f8c10c)" d="M 108.521591 273.665855 
L 108.521591 263.843063 
" style="fill:none;stroke:#000000;stroke-width:2;"/>
    <path clip-path="url(#p9d31f8c10c)" d="M 147.214773 272.786279 
L 147.214773 270.207807 
" style="fill:none;stroke:#000000;stroke-width:2;"/>
    <path clip-path="url(#p9d31f8c10c)" d="M 185.907955 292.94298 
L 185.907955 289.894325 
" style="fill:none;stroke:#000000;stroke-width:2;"/>
    <path clip-path="url(#p9d31f8c10c)" d="M 224.601136 294.504276 
L 224.601136 290.791019 
" style="fill:none;stroke:#000000;stroke-width:2;"/>
    <path clip-path="url(#p9d31f8c10c)" d="M 263.294318 323.492374 
L 263.294318 315.797633 
" style="fill:none;stroke:#000000;stroke-width:2;"/>
    <path clip-path="url(#p9d31f8c10c)" d="M 301.9875 328.2686 
L 301.9875 319.411285 
" style="fill:none;stroke:#000000;stroke-width:2;"/>
    <path clip-path="url(#p9d31f8c10c)" d="M 340.680682 332.399413 
L 340.680682 324.69717 
" style="fill:none;stroke:#000000;stroke-width:2;"/>
    <path clip-path="url(#p9d31f8c10c)" d="M 379.373864 339.975134 
L 379.373864 329.759615 
" style="fill:none;stroke:#000000;stroke-width:2;"/>
    <path clip-path="url(#p9d31f8c10c)" d="M 418.067045 341.883861 
L 418.067045 334.820449 
" style="fill:none;stroke:#000000;stroke-width:2;"/>
    <path clip-path="url(#p9d31f8c10c)" d="M 456.760227 345.998995 
L 456.760227 339.577344 
" style="fill:none;stroke:#000000;stroke-width:2;"/>
    <path clip-path="url(#p9d31f8c10c)" d="M 495.453409 377.093231 
L 495.453409 364.02821 
" style="fill:none;stroke:#000000;stroke-width:2;"/>
   </g>
   <g id="PathCollection_2">
    <path clip-path="url(#p9d31f8c10c)" d="M 103.778174 273.945078 
L 113.265007 264.458245 
M 103.778174 264.458245 
L 113.265007 273.945078 
" style="fill:#8b4820;stroke:#8b4820;stroke-width:2.5;"/>
    <path clip-path="url(#p9d31f8c10c)" d="M 142.471356 276.274789 
L 151.958189 266.787956 
M 142.471356 266.787956 
L 151.958189 276.274789 
" style="fill:#8b4820;stroke:#8b4820;stroke-width:2.5;"/>
    <path clip-path="url(#p9d31f8c10c)" d="M 181.164538 296.191547 
L 190.651371 286.704714 
M 181.164538 286.704714 
L 190.651371 296.191547 
" style="fill:#8b4820;stroke:#8b4820;stroke-width:2.5;"/>
    <path clip-path="url(#p9d31f8c10c)" d="M 219.85772 297.40754 
L 229.344553 287.920707 
M 219.85772 287.920707 
L 229.344553 297.40754 
" style="fill:#8b4820;stroke:#8b4820;stroke-width:2.5;"/>
    <path clip-path="url(#p9d31f8c10c)" d="M 258.550902 324.48678 
L 268.037735 314.999947 
M 258.550902 314.999947 
L 268.037735 324.48678 
" style="fill:#8f84ae;stroke:#8f84ae;stroke-width:2.5;"/>
    <path clip-path="url(#p9d31f8c10c)" d="M 297.244084 328.573624 
L 306.730916 319.086791 
M 297.244084 319.086791 
L 306.730916 328.573624 
" style="fill:#8f84ae;stroke:#8f84ae;stroke-width:2.5;"/>
    <path clip-path="url(#p9d31f8c10c)" d="M 335.937265 333.348864 
L 345.424098 323.862031 
M 335.937265 323.862031 
L 345.424098 333.348864 
" style="fill:#8f84ae;stroke:#8f84ae;stroke-width:2.5;"/>
    <path clip-path="url(#p9d31f8c10c)" d="M 374.630447 339.555175 
L 384.11728 330.068342 
M 374.630447 330.068342 
L 384.11728 339.555175 
" style="fill:#8f84ae;stroke:#8f84ae;stroke-width:2.5;"/>
    <path clip-path="url(#p9d31f8c10c)" d="M 413.323629 343.050943 
L 422.810462 333.56411 
M 413.323629 333.56411 
L 422.810462 343.050943 
" style="fill:#8f84ae;stroke:#8f84ae;stroke-width:2.5;"/>
    <path clip-path="url(#p9d31f8c10c)" d="M 452.016811 347.458278 
L 461.503644 337.971445 
M 452.016811 337.971445 
L 461.503644 347.458278 
" style="fill:#8f84ae;stroke:#8f84ae;stroke-width:2.5;"/>
    <path clip-path="url(#p9d31f8c10c)" d="M 490.709993 374.893601 
L 500.196826 365.406768 
M 490.709993 365.406768 
L 500.196826 374.893601 
" style="fill:#579e7c;stroke:#579e7c;stroke-width:2.5;"/>
   </g>
  </g>
 </g>
 <defs>
  <clipPath id="pddac93b91f">
   <rect height="197.896604" width="425.625" x="89.175" y="16.8"/>
  </clipPath>
  <clipPath id="p9d31f8c10c">
   <rect height="197.896604" width="425.625" x="89.175" y="214.696604"/>
  </clipPath>
 </defs>
</svg>
