<?xml version="1.0" encoding="utf-8" standalone="no"?>
<!DOCTYPE svg PUBLIC "-//W3C//DTD SVG 1.1//EN"
  "http://www.w3.org/Graphics/SVG/1.1/DTD/svg11.dtd">
<!-- Created with matplotlib (https://matplotlib.org/) -->
<svg height="504pt" version="1.1" viewBox="0 0 547.2 504" width="547.2pt" xmlns="http://www.w3.org/2000/svg" xmlns:xlink="http://www.w3.org/1999/xlink">
 <metadata>
  <rdf:RDF xmlns:cc="http://creativecommons.org/ns#" xmlns:dc="http://purl.org/dc/elements/1.1/" xmlns:rdf="http://www.w3.org/1999/02/22-rdf-syntax-ns#">
   <cc:Work>
    <dc:type rdf:resource="http://purl.org/dc/dcmitype/StillImage"/>
    <dc:date>2022-02-13T21:26:33.251615</dc:date>
    <dc:format>image/svg+xml</dc:format>
    <dc:creator>
     <cc:Agent>
      <dc:title>Matplotlib v3.3.4, https://matplotlib.org/</dc:title>
     </cc:Agent>
    </dc:creator>
   </cc:Work>
  </rdf:RDF>
 </metadata>
 <defs>
  <style type="text/css">*{stroke-linecap:butt;stroke-linejoin:round;}</style>
 </defs>
 <g id="figure_1">
  <g id="patch_1">
   <path d="M 0 504 
L 547.2 504 
L 547.2 0 
L 0 0 
z
" style="fill:none;"/>
  </g>
  <g id="axes_1">
   <g id="patch_2">
    <path d="M 89.175 220.704655 
L 536.4 220.704655 
L 536.4 16.8 
L 89.175 16.8 
z
" style="fill:#ffffff;"/>
   </g>
   <g id="matplotlib.axis_1">
    <g id="xtick_1">
     <g id="line2d_1">
      <defs>
       <path d="M 0 0 
L 0 -3.5 
" id="mb55014e383" style="stroke:#000000;stroke-width:0.8;"/>
      </defs>
      <g>
       <use style="stroke:#000000;stroke-width:0.8;" x="109.503409" xlink:href="#mb55014e383" y="220.704655"/>
      </g>
     </g>
    </g>
    <g id="xtick_2">
     <g id="line2d_2">
      <g>
       <use style="stroke:#000000;stroke-width:0.8;" x="146.464153" xlink:href="#mb55014e383" y="220.704655"/>
      </g>
     </g>
    </g>
    <g id="xtick_3">
     <g id="line2d_3">
      <g>
       <use style="stroke:#000000;stroke-width:0.8;" x="183.424897" xlink:href="#mb55014e383" y="220.704655"/>
      </g>
     </g>
    </g>
    <g id="xtick_4">
     <g id="line2d_4">
      <g>
       <use style="stroke:#000000;stroke-width:0.8;" x="220.38564" xlink:href="#mb55014e383" y="220.704655"/>
      </g>
     </g>
    </g>
    <g id="xtick_5">
     <g id="line2d_5">
      <g>
       <use style="stroke:#000000;stroke-width:0.8;" x="257.346384" xlink:href="#mb55014e383" y="220.704655"/>
      </g>
     </g>
    </g>
    <g id="xtick_6">
     <g id="line2d_6">
      <g>
       <use style="stroke:#000000;stroke-width:0.8;" x="294.307128" xlink:href="#mb55014e383" y="220.704655"/>
      </g>
     </g>
    </g>
    <g id="xtick_7">
     <g id="line2d_7">
      <g>
       <use style="stroke:#000000;stroke-width:0.8;" x="331.267872" xlink:href="#mb55014e383" y="220.704655"/>
      </g>
     </g>
    </g>
    <g id="xtick_8">
     <g id="line2d_8">
      <g>
       <use style="stroke:#000000;stroke-width:0.8;" x="368.228616" xlink:href="#mb55014e383" y="220.704655"/>
      </g>
     </g>
    </g>
    <g id="xtick_9">
     <g id="line2d_9">
      <g>
       <use style="stroke:#000000;stroke-width:0.8;" x="405.18936" xlink:href="#mb55014e383" y="220.704655"/>
      </g>
     </g>
    </g>
    <g id="xtick_10">
     <g id="line2d_10">
      <g>
       <use style="stroke:#000000;stroke-width:0.8;" x="442.150103" xlink:href="#mb55014e383" y="220.704655"/>
      </g>
     </g>
    </g>
    <g id="xtick_11">
     <g id="line2d_11">
      <g>
       <use style="stroke:#000000;stroke-width:0.8;" x="479.110847" xlink:href="#mb55014e383" y="220.704655"/>
      </g>
     </g>
    </g>
    <g id="xtick_12">
     <g id="line2d_12">
      <g>
       <use style="stroke:#000000;stroke-width:0.8;" x="516.071591" xlink:href="#mb55014e383" y="220.704655"/>
      </g>
     </g>
    </g>
   </g>
   <g id="matplotlib.axis_2">
    <g id="ytick_1">
     <g id="line2d_13">
      <path clip-path="url(#p683f9a73ac)" d="M 89.175 169.728491 
L 536.4 169.728491 
" style="fill:none;stroke:#b0b0b0;stroke-linecap:square;stroke-width:0.8;"/>
     </g>
     <g id="line2d_14">
      <defs>
       <path d="M 0 0 
L -3.5 0 
" id="m45f94a0e8d" style="stroke:#000000;stroke-width:0.8;"/>
      </defs>
      <g>
       <use style="stroke:#000000;stroke-width:0.8;" x="89.175" xlink:href="#m45f94a0e8d" y="169.728491"/>
      </g>
     </g>
     <g id="text_1">
      <!-- 0.5 -->
      <g transform="translate(59.935 175.454741)scale(0.16 -0.16)">
       <defs>
        <path d="M 4.15625 35.296875 
Q 4.15625 48 6.765625 55.734375 
Q 9.375 63.484375 14.515625 67.671875 
Q 19.671875 71.875 27.484375 71.875 
Q 33.25 71.875 37.59375 69.546875 
Q 41.9375 67.234375 44.765625 62.859375 
Q 47.609375 58.5 49.21875 52.21875 
Q 50.828125 45.953125 50.828125 35.296875 
Q 50.828125 22.703125 48.234375 14.96875 
Q 45.65625 7.234375 40.5 3 
Q 35.359375 -1.21875 27.484375 -1.21875 
Q 17.140625 -1.21875 11.234375 6.203125 
Q 4.15625 15.140625 4.15625 35.296875 
z
M 13.1875 35.296875 
Q 13.1875 17.671875 17.3125 11.828125 
Q 21.4375 6 27.484375 6 
Q 33.546875 6 37.671875 11.859375 
Q 41.796875 17.71875 41.796875 35.296875 
Q 41.796875 52.984375 37.671875 58.78125 
Q 33.546875 64.59375 27.390625 64.59375 
Q 21.34375 64.59375 17.71875 59.46875 
Q 13.1875 52.9375 13.1875 35.296875 
z
" id="ArialMT-48"/>
        <path d="M 9.078125 0 
L 9.078125 10.015625 
L 19.09375 10.015625 
L 19.09375 0 
z
" id="ArialMT-46"/>
        <path d="M 4.15625 18.75 
L 13.375 19.53125 
Q 14.40625 12.796875 18.140625 9.390625 
Q 21.875 6 27.15625 6 
Q 33.5 6 37.890625 10.78125 
Q 42.28125 15.578125 42.28125 23.484375 
Q 42.28125 31 38.0625 35.34375 
Q 33.84375 39.703125 27 39.703125 
Q 22.75 39.703125 19.328125 37.765625 
Q 15.921875 35.84375 13.96875 32.765625 
L 5.71875 33.84375 
L 12.640625 70.609375 
L 48.25 70.609375 
L 48.25 62.203125 
L 19.671875 62.203125 
L 15.828125 42.96875 
Q 22.265625 47.46875 29.34375 47.46875 
Q 38.71875 47.46875 45.15625 40.96875 
Q 51.609375 34.46875 51.609375 24.265625 
Q 51.609375 14.546875 45.953125 7.46875 
Q 39.0625 -1.21875 27.15625 -1.21875 
Q 17.390625 -1.21875 11.203125 4.25 
Q 5.03125 9.71875 4.15625 18.75 
z
" id="ArialMT-53"/>
       </defs>
       <use xlink:href="#ArialMT-48"/>
       <use x="55.615234" xlink:href="#ArialMT-46"/>
       <use x="83.398438" xlink:href="#ArialMT-53"/>
      </g>
     </g>
    </g>
    <g id="ytick_2">
     <g id="line2d_15">
      <path clip-path="url(#p683f9a73ac)" d="M 89.175 118.752328 
L 536.4 118.752328 
" style="fill:none;stroke:#b0b0b0;stroke-linecap:square;stroke-width:0.8;"/>
     </g>
     <g id="line2d_16">
      <g>
       <use style="stroke:#000000;stroke-width:0.8;" x="89.175" xlink:href="#m45f94a0e8d" y="118.752328"/>
      </g>
     </g>
     <g id="text_2">
      <!-- 1 -->
      <g transform="translate(73.2775 124.478578)scale(0.16 -0.16)">
       <defs>
        <path d="M 37.25 0 
L 28.46875 0 
L 28.46875 56 
Q 25.296875 52.984375 20.140625 49.953125 
Q 14.984375 46.921875 10.890625 45.40625 
L 10.890625 53.90625 
Q 18.265625 57.375 23.78125 62.296875 
Q 29.296875 67.234375 31.59375 71.875 
L 37.25 71.875 
z
" id="ArialMT-49"/>
       </defs>
       <use xlink:href="#ArialMT-49"/>
      </g>
     </g>
    </g>
    <g id="ytick_3">
     <g id="line2d_17">
      <path clip-path="url(#p683f9a73ac)" d="M 89.175 67.776164 
L 536.4 67.776164 
" style="fill:none;stroke:#b0b0b0;stroke-linecap:square;stroke-width:0.8;"/>
     </g>
     <g id="line2d_18">
      <g>
       <use style="stroke:#000000;stroke-width:0.8;" x="89.175" xlink:href="#m45f94a0e8d" y="67.776164"/>
      </g>
     </g>
     <g id="text_3">
      <!-- 1.5 -->
      <g transform="translate(59.935 73.502414)scale(0.16 -0.16)">
       <use xlink:href="#ArialMT-49"/>
       <use x="55.615234" xlink:href="#ArialMT-46"/>
       <use x="83.398438" xlink:href="#ArialMT-53"/>
      </g>
     </g>
    </g>
    <g id="ytick_4">
     <g id="line2d_19">
      <path clip-path="url(#p683f9a73ac)" d="M 89.175 16.8 
L 536.4 16.8 
" style="fill:none;stroke:#b0b0b0;stroke-linecap:square;stroke-width:0.8;"/>
     </g>
     <g id="line2d_20">
      <g>
       <use style="stroke:#000000;stroke-width:0.8;" x="89.175" xlink:href="#m45f94a0e8d" y="16.8"/>
      </g>
     </g>
     <g id="text_4">
      <!-- 2 -->
      <g transform="translate(73.2775 22.52625)scale(0.16 -0.16)">
       <defs>
        <path d="M 50.34375 8.453125 
L 50.34375 0 
L 3.03125 0 
Q 2.9375 3.171875 4.046875 6.109375 
Q 5.859375 10.9375 9.828125 15.625 
Q 13.8125 20.3125 21.34375 26.46875 
Q 33.015625 36.03125 37.109375 41.625 
Q 41.21875 47.21875 41.21875 52.203125 
Q 41.21875 57.421875 37.46875 61 
Q 33.734375 64.59375 27.734375 64.59375 
Q 21.390625 64.59375 17.578125 60.78125 
Q 13.765625 56.984375 13.71875 50.25 
L 4.6875 51.171875 
Q 5.609375 61.28125 11.65625 66.578125 
Q 17.71875 71.875 27.9375 71.875 
Q 38.234375 71.875 44.234375 66.15625 
Q 50.25 60.453125 50.25 52 
Q 50.25 47.703125 48.484375 43.546875 
Q 46.734375 39.40625 42.65625 34.8125 
Q 38.578125 30.21875 29.109375 22.21875 
Q 21.1875 15.578125 18.9375 13.203125 
Q 16.703125 10.84375 15.234375 8.453125 
z
" id="ArialMT-50"/>
       </defs>
       <use xlink:href="#ArialMT-50"/>
      </g>
     </g>
    </g>
    <g id="ytick_5">
     <g id="line2d_21">
      <path clip-path="url(#p683f9a73ac)" d="M 89.175 195.216573 
L 536.4 195.216573 
" style="fill:none;stroke:#b0b0b0;stroke-linecap:square;stroke-width:0.8;"/>
     </g>
     <g id="line2d_22">
      <defs>
       <path d="M 0 0 
L -2 0 
" id="m3ce206a9b3" style="stroke:#000000;stroke-width:0.6;"/>
      </defs>
      <g>
       <use style="stroke:#000000;stroke-width:0.6;" x="89.175" xlink:href="#m3ce206a9b3" y="195.216573"/>
      </g>
     </g>
    </g>
    <g id="ytick_6">
     <g id="line2d_23">
      <path clip-path="url(#p683f9a73ac)" d="M 89.175 144.24041 
L 536.4 144.24041 
" style="fill:none;stroke:#b0b0b0;stroke-linecap:square;stroke-width:0.8;"/>
     </g>
     <g id="line2d_24">
      <g>
       <use style="stroke:#000000;stroke-width:0.6;" x="89.175" xlink:href="#m3ce206a9b3" y="144.24041"/>
      </g>
     </g>
    </g>
    <g id="ytick_7">
     <g id="line2d_25">
      <path clip-path="url(#p683f9a73ac)" d="M 89.175 93.264246 
L 536.4 93.264246 
" style="fill:none;stroke:#b0b0b0;stroke-linecap:square;stroke-width:0.8;"/>
     </g>
     <g id="line2d_26">
      <g>
       <use style="stroke:#000000;stroke-width:0.6;" x="89.175" xlink:href="#m3ce206a9b3" y="93.264246"/>
      </g>
     </g>
    </g>
    <g id="ytick_8">
     <g id="line2d_27">
      <path clip-path="url(#p683f9a73ac)" d="M 89.175 42.288082 
L 536.4 42.288082 
" style="fill:none;stroke:#b0b0b0;stroke-linecap:square;stroke-width:0.8;"/>
     </g>
     <g id="line2d_28">
      <g>
       <use style="stroke:#000000;stroke-width:0.6;" x="89.175" xlink:href="#m3ce206a9b3" y="42.288082"/>
      </g>
     </g>
    </g>
    <g id="text_5">
     <!-- Mean occupancy -->
     <g transform="translate(30.571875 194.34764)rotate(-90)scale(0.2 -0.2)">
      <defs>
       <path d="M 7.421875 0 
L 7.421875 71.578125 
L 21.6875 71.578125 
L 38.625 20.90625 
Q 40.96875 13.8125 42.046875 10.296875 
Q 43.265625 14.203125 45.84375 21.78125 
L 62.984375 71.578125 
L 75.734375 71.578125 
L 75.734375 0 
L 66.609375 0 
L 66.609375 59.90625 
L 45.796875 0 
L 37.25 0 
L 16.546875 60.9375 
L 16.546875 0 
z
" id="ArialMT-77"/>
       <path d="M 42.09375 16.703125 
L 51.171875 15.578125 
Q 49.03125 7.625 43.21875 3.21875 
Q 37.40625 -1.171875 28.375 -1.171875 
Q 17 -1.171875 10.328125 5.828125 
Q 3.65625 12.84375 3.65625 25.484375 
Q 3.65625 38.578125 10.390625 45.796875 
Q 17.140625 53.03125 27.875 53.03125 
Q 38.28125 53.03125 44.875 45.953125 
Q 51.46875 38.875 51.46875 26.03125 
Q 51.46875 25.25 51.421875 23.6875 
L 12.75 23.6875 
Q 13.234375 15.140625 17.578125 10.59375 
Q 21.921875 6.0625 28.421875 6.0625 
Q 33.25 6.0625 36.671875 8.59375 
Q 40.09375 11.140625 42.09375 16.703125 
z
M 13.234375 30.90625 
L 42.1875 30.90625 
Q 41.609375 37.453125 38.875 40.71875 
Q 34.671875 45.796875 27.984375 45.796875 
Q 21.921875 45.796875 17.796875 41.75 
Q 13.671875 37.703125 13.234375 30.90625 
z
" id="ArialMT-101"/>
       <path d="M 40.4375 6.390625 
Q 35.546875 2.25 31.03125 0.53125 
Q 26.515625 -1.171875 21.34375 -1.171875 
Q 12.796875 -1.171875 8.203125 3 
Q 3.609375 7.171875 3.609375 13.671875 
Q 3.609375 17.484375 5.34375 20.625 
Q 7.078125 23.78125 9.890625 25.6875 
Q 12.703125 27.59375 16.21875 28.5625 
Q 18.796875 29.25 24.03125 29.890625 
Q 34.671875 31.15625 39.703125 32.90625 
Q 39.75 34.71875 39.75 35.203125 
Q 39.75 40.578125 37.25 42.78125 
Q 33.890625 45.75 27.25 45.75 
Q 21.046875 45.75 18.09375 43.578125 
Q 15.140625 41.40625 13.71875 35.890625 
L 5.125 37.0625 
Q 6.296875 42.578125 8.984375 45.96875 
Q 11.671875 49.359375 16.75 51.1875 
Q 21.828125 53.03125 28.515625 53.03125 
Q 35.15625 53.03125 39.296875 51.46875 
Q 43.453125 49.90625 45.40625 47.53125 
Q 47.359375 45.171875 48.140625 41.546875 
Q 48.578125 39.3125 48.578125 33.453125 
L 48.578125 21.734375 
Q 48.578125 9.46875 49.140625 6.21875 
Q 49.703125 2.984375 51.375 0 
L 42.1875 0 
Q 40.828125 2.734375 40.4375 6.390625 
z
M 39.703125 26.03125 
Q 34.90625 24.078125 25.34375 22.703125 
Q 19.921875 21.921875 17.671875 20.9375 
Q 15.4375 19.96875 14.203125 18.09375 
Q 12.984375 16.21875 12.984375 13.921875 
Q 12.984375 10.40625 15.640625 8.0625 
Q 18.3125 5.71875 23.4375 5.71875 
Q 28.515625 5.71875 32.46875 7.9375 
Q 36.421875 10.15625 38.28125 14.015625 
Q 39.703125 17 39.703125 22.796875 
z
" id="ArialMT-97"/>
       <path d="M 6.59375 0 
L 6.59375 51.859375 
L 14.5 51.859375 
L 14.5 44.484375 
Q 20.21875 53.03125 31 53.03125 
Q 35.6875 53.03125 39.625 51.34375 
Q 43.5625 49.65625 45.515625 46.921875 
Q 47.46875 44.1875 48.25 40.4375 
Q 48.734375 37.984375 48.734375 31.890625 
L 48.734375 0 
L 39.9375 0 
L 39.9375 31.546875 
Q 39.9375 36.921875 38.90625 39.578125 
Q 37.890625 42.234375 35.28125 43.8125 
Q 32.671875 45.40625 29.15625 45.40625 
Q 23.53125 45.40625 19.453125 41.84375 
Q 15.375 38.28125 15.375 28.328125 
L 15.375 0 
z
" id="ArialMT-110"/>
       <path id="ArialMT-32"/>
       <path d="M 3.328125 25.921875 
Q 3.328125 40.328125 11.328125 47.265625 
Q 18.015625 53.03125 27.640625 53.03125 
Q 38.328125 53.03125 45.109375 46.015625 
Q 51.90625 39.015625 51.90625 26.65625 
Q 51.90625 16.65625 48.90625 10.90625 
Q 45.90625 5.171875 40.15625 2 
Q 34.421875 -1.171875 27.640625 -1.171875 
Q 16.75 -1.171875 10.03125 5.8125 
Q 3.328125 12.796875 3.328125 25.921875 
z
M 12.359375 25.921875 
Q 12.359375 15.96875 16.703125 11.015625 
Q 21.046875 6.0625 27.640625 6.0625 
Q 34.1875 6.0625 38.53125 11.03125 
Q 42.875 16.015625 42.875 26.21875 
Q 42.875 35.84375 38.5 40.796875 
Q 34.125 45.75 27.640625 45.75 
Q 21.046875 45.75 16.703125 40.8125 
Q 12.359375 35.890625 12.359375 25.921875 
z
" id="ArialMT-111"/>
       <path d="M 40.4375 19 
L 49.078125 17.875 
Q 47.65625 8.9375 41.8125 3.875 
Q 35.984375 -1.171875 27.484375 -1.171875 
Q 16.84375 -1.171875 10.375 5.78125 
Q 3.90625 12.75 3.90625 25.734375 
Q 3.90625 34.125 6.6875 40.421875 
Q 9.46875 46.734375 15.15625 49.875 
Q 20.84375 53.03125 27.546875 53.03125 
Q 35.984375 53.03125 41.359375 48.75 
Q 46.734375 44.484375 48.25 36.625 
L 39.703125 35.296875 
Q 38.484375 40.53125 35.375 43.15625 
Q 32.28125 45.796875 27.875 45.796875 
Q 21.234375 45.796875 17.078125 41.03125 
Q 12.9375 36.28125 12.9375 25.984375 
Q 12.9375 15.53125 16.9375 10.796875 
Q 20.953125 6.0625 27.390625 6.0625 
Q 32.5625 6.0625 36.03125 9.234375 
Q 39.5 12.40625 40.4375 19 
z
" id="ArialMT-99"/>
       <path d="M 40.578125 0 
L 40.578125 7.625 
Q 34.515625 -1.171875 24.125 -1.171875 
Q 19.53125 -1.171875 15.546875 0.578125 
Q 11.578125 2.34375 9.640625 5 
Q 7.71875 7.671875 6.9375 11.53125 
Q 6.390625 14.109375 6.390625 19.734375 
L 6.390625 51.859375 
L 15.1875 51.859375 
L 15.1875 23.09375 
Q 15.1875 16.21875 15.71875 13.8125 
Q 16.546875 10.359375 19.234375 8.375 
Q 21.921875 6.390625 25.875 6.390625 
Q 29.828125 6.390625 33.296875 8.421875 
Q 36.765625 10.453125 38.203125 13.9375 
Q 39.65625 17.4375 39.65625 24.078125 
L 39.65625 51.859375 
L 48.4375 51.859375 
L 48.4375 0 
z
" id="ArialMT-117"/>
       <path d="M 6.59375 -19.875 
L 6.59375 51.859375 
L 14.59375 51.859375 
L 14.59375 45.125 
Q 17.4375 49.078125 21 51.046875 
Q 24.5625 53.03125 29.640625 53.03125 
Q 36.28125 53.03125 41.359375 49.609375 
Q 46.4375 46.1875 49.015625 39.953125 
Q 51.609375 33.734375 51.609375 26.3125 
Q 51.609375 18.359375 48.75 11.984375 
Q 45.90625 5.609375 40.453125 2.21875 
Q 35.015625 -1.171875 29 -1.171875 
Q 24.609375 -1.171875 21.109375 0.6875 
Q 17.625 2.546875 15.375 5.375 
L 15.375 -19.875 
z
M 14.546875 25.640625 
Q 14.546875 15.625 18.59375 10.84375 
Q 22.65625 6.0625 28.421875 6.0625 
Q 34.28125 6.0625 38.453125 11.015625 
Q 42.625 15.96875 42.625 26.375 
Q 42.625 36.28125 38.546875 41.203125 
Q 34.46875 46.140625 28.8125 46.140625 
Q 23.1875 46.140625 18.859375 40.890625 
Q 14.546875 35.640625 14.546875 25.640625 
z
" id="ArialMT-112"/>
       <path d="M 6.203125 -19.96875 
L 5.21875 -11.71875 
Q 8.109375 -12.5 10.25 -12.5 
Q 13.1875 -12.5 14.9375 -11.515625 
Q 16.703125 -10.546875 17.828125 -8.796875 
Q 18.65625 -7.46875 20.515625 -2.25 
Q 20.75 -1.515625 21.296875 -0.09375 
L 1.609375 51.859375 
L 11.078125 51.859375 
L 21.875 21.828125 
Q 23.96875 16.109375 25.640625 9.8125 
Q 27.15625 15.875 29.25 21.625 
L 40.328125 51.859375 
L 49.125 51.859375 
L 29.390625 -0.875 
Q 26.21875 -9.421875 24.46875 -12.640625 
Q 22.125 -17 19.09375 -19.015625 
Q 16.0625 -21.046875 11.859375 -21.046875 
Q 9.328125 -21.046875 6.203125 -19.96875 
z
" id="ArialMT-121"/>
      </defs>
      <use xlink:href="#ArialMT-77"/>
      <use x="83.300781" xlink:href="#ArialMT-101"/>
      <use x="138.916016" xlink:href="#ArialMT-97"/>
      <use x="194.53125" xlink:href="#ArialMT-110"/>
      <use x="250.146484" xlink:href="#ArialMT-32"/>
      <use x="277.929688" xlink:href="#ArialMT-111"/>
      <use x="333.544922" xlink:href="#ArialMT-99"/>
      <use x="383.544922" xlink:href="#ArialMT-99"/>
      <use x="433.544922" xlink:href="#ArialMT-117"/>
      <use x="489.160156" xlink:href="#ArialMT-112"/>
      <use x="544.775391" xlink:href="#ArialMT-97"/>
      <use x="600.390625" xlink:href="#ArialMT-110"/>
      <use x="656.005859" xlink:href="#ArialMT-99"/>
      <use x="706.005859" xlink:href="#ArialMT-121"/>
     </g>
     <!-- $\langle$N$\rangle$, at saturation -->
     <g transform="translate(51.96 194.452328)rotate(-90)scale(0.2 -0.2)">
      <defs>
       <path d="M 8.9375 31.34375 
L 22.703125 75.875 
L 31 75.875 
L 17.234375 31.34375 
L 31 -13.1875 
L 22.703125 -13.1875 
z
" id="DejaVuSans-10216"/>
       <path d="M 7.625 0 
L 7.625 71.578125 
L 17.328125 71.578125 
L 54.9375 15.375 
L 54.9375 71.578125 
L 64.015625 71.578125 
L 64.015625 0 
L 54.296875 0 
L 16.703125 56.25 
L 16.703125 0 
z
" id="ArialMT-78"/>
       <path d="M 30.078125 31.34375 
L 16.3125 -13.1875 
L 8.015625 -13.1875 
L 21.78125 31.34375 
L 8.015625 75.875 
L 16.3125 75.875 
z
" id="DejaVuSans-10217"/>
       <path d="M 8.890625 0 
L 8.890625 10.015625 
L 18.890625 10.015625 
L 18.890625 0 
Q 18.890625 -5.515625 16.9375 -8.90625 
Q 14.984375 -12.3125 10.75 -14.15625 
L 8.296875 -10.40625 
Q 11.078125 -9.1875 12.390625 -6.8125 
Q 13.71875 -4.4375 13.875 0 
z
" id="ArialMT-44"/>
       <path d="M 25.78125 7.859375 
L 27.046875 0.09375 
Q 23.34375 -0.6875 20.40625 -0.6875 
Q 15.625 -0.6875 12.984375 0.828125 
Q 10.359375 2.34375 9.28125 4.8125 
Q 8.203125 7.28125 8.203125 15.1875 
L 8.203125 45.015625 
L 1.765625 45.015625 
L 1.765625 51.859375 
L 8.203125 51.859375 
L 8.203125 64.703125 
L 16.9375 69.96875 
L 16.9375 51.859375 
L 25.78125 51.859375 
L 25.78125 45.015625 
L 16.9375 45.015625 
L 16.9375 14.703125 
Q 16.9375 10.9375 17.40625 9.859375 
Q 17.875 8.796875 18.921875 8.15625 
Q 19.96875 7.515625 21.921875 7.515625 
Q 23.390625 7.515625 25.78125 7.859375 
z
" id="ArialMT-116"/>
       <path d="M 3.078125 15.484375 
L 11.765625 16.84375 
Q 12.5 11.625 15.84375 8.84375 
Q 19.1875 6.0625 25.203125 6.0625 
Q 31.25 6.0625 34.171875 8.515625 
Q 37.109375 10.984375 37.109375 14.3125 
Q 37.109375 17.28125 34.515625 19 
Q 32.71875 20.171875 25.53125 21.96875 
Q 15.875 24.421875 12.140625 26.203125 
Q 8.40625 27.984375 6.46875 31.125 
Q 4.546875 34.28125 4.546875 38.09375 
Q 4.546875 41.546875 6.125 44.5 
Q 7.71875 47.46875 10.453125 49.421875 
Q 12.5 50.921875 16.03125 51.96875 
Q 19.578125 53.03125 23.640625 53.03125 
Q 29.734375 53.03125 34.34375 51.265625 
Q 38.96875 49.515625 41.15625 46.5 
Q 43.359375 43.5 44.1875 38.484375 
L 35.59375 37.3125 
Q 35.015625 41.3125 32.203125 43.546875 
Q 29.390625 45.796875 24.265625 45.796875 
Q 18.21875 45.796875 15.625 43.796875 
Q 13.03125 41.796875 13.03125 39.109375 
Q 13.03125 37.40625 14.109375 36.03125 
Q 15.1875 34.625 17.484375 33.6875 
Q 18.796875 33.203125 25.25 31.453125 
Q 34.578125 28.953125 38.25 27.359375 
Q 41.9375 25.78125 44.03125 22.75 
Q 46.140625 19.734375 46.140625 15.234375 
Q 46.140625 10.84375 43.578125 6.953125 
Q 41.015625 3.078125 36.171875 0.953125 
Q 31.34375 -1.171875 25.25 -1.171875 
Q 15.140625 -1.171875 9.84375 3.03125 
Q 4.546875 7.234375 3.078125 15.484375 
z
" id="ArialMT-115"/>
       <path d="M 6.5 0 
L 6.5 51.859375 
L 14.40625 51.859375 
L 14.40625 44 
Q 17.4375 49.515625 20 51.265625 
Q 22.5625 53.03125 25.640625 53.03125 
Q 30.078125 53.03125 34.671875 50.203125 
L 31.640625 42.046875 
Q 28.421875 43.953125 25.203125 43.953125 
Q 22.3125 43.953125 20.015625 42.21875 
Q 17.71875 40.484375 16.75 37.40625 
Q 15.28125 32.71875 15.28125 27.15625 
L 15.28125 0 
z
" id="ArialMT-114"/>
       <path d="M 6.640625 61.46875 
L 6.640625 71.578125 
L 15.4375 71.578125 
L 15.4375 61.46875 
z
M 6.640625 0 
L 6.640625 51.859375 
L 15.4375 51.859375 
L 15.4375 0 
z
" id="ArialMT-105"/>
      </defs>
      <use transform="translate(0 0.125)" xlink:href="#DejaVuSans-10216"/>
      <use transform="translate(39.013672 0.125)" xlink:href="#ArialMT-78"/>
      <use transform="translate(111.230469 0.125)" xlink:href="#DejaVuSans-10217"/>
      <use transform="translate(150.244141 0.125)" xlink:href="#ArialMT-44"/>
      <use transform="translate(178.027344 0.125)" xlink:href="#ArialMT-32"/>
      <use transform="translate(205.810547 0.125)" xlink:href="#ArialMT-97"/>
      <use transform="translate(261.425781 0.125)" xlink:href="#ArialMT-116"/>
      <use transform="translate(289.208984 0.125)" xlink:href="#ArialMT-32"/>
      <use transform="translate(316.992188 0.125)" xlink:href="#ArialMT-115"/>
      <use transform="translate(366.992188 0.125)" xlink:href="#ArialMT-97"/>
      <use transform="translate(422.607422 0.125)" xlink:href="#ArialMT-116"/>
      <use transform="translate(450.390625 0.125)" xlink:href="#ArialMT-117"/>
      <use transform="translate(506.005859 0.125)" xlink:href="#ArialMT-114"/>
      <use transform="translate(539.306641 0.125)" xlink:href="#ArialMT-97"/>
      <use transform="translate(594.921875 0.125)" xlink:href="#ArialMT-116"/>
      <use transform="translate(622.705078 0.125)" xlink:href="#ArialMT-105"/>
      <use transform="translate(644.921875 0.125)" xlink:href="#ArialMT-111"/>
      <use transform="translate(700.537109 0.125)" xlink:href="#ArialMT-110"/>
     </g>
    </g>
   </g>
   <g id="patch_3">
    <path d="M 89.175 220.704655 
L 89.175 16.8 
" style="fill:none;stroke:#000000;stroke-linecap:square;stroke-linejoin:miter;stroke-width:0.8;"/>
   </g>
   <g id="patch_4">
    <path d="M 536.4 220.704655 
L 536.4 16.8 
" style="fill:none;stroke:#000000;stroke-linecap:square;stroke-linejoin:miter;stroke-width:0.8;"/>
   </g>
   <g id="patch_5">
    <path d="M 89.175 220.704655 
L 536.4 220.704655 
" style="fill:none;stroke:#000000;stroke-linecap:square;stroke-linejoin:miter;stroke-width:0.8;"/>
   </g>
   <g id="patch_6">
    <path d="M 89.175 16.8 
L 536.4 16.8 
" style="fill:none;stroke:#000000;stroke-linecap:square;stroke-linejoin:miter;stroke-width:0.8;"/>
   </g>
   <g id="LineCollection_1">
    <path clip-path="url(#p683f9a73ac)" d="M 109.503409 118.752328 
L 109.503409 118.752328 
" style="fill:none;stroke:#000000;stroke-width:2;"/>
    <path clip-path="url(#p683f9a73ac)" d="M 146.464153 118.752328 
L 146.464153 118.752328 
" style="fill:none;stroke:#000000;stroke-width:2;"/>
    <path clip-path="url(#p683f9a73ac)" d="M 183.424897 118.752328 
L 183.424897 118.752328 
" style="fill:none;stroke:#000000;stroke-width:2;"/>
    <path clip-path="url(#p683f9a73ac)" d="M 220.38564 118.752328 
L 220.38564 118.752328 
" style="fill:none;stroke:#000000;stroke-width:2;"/>
    <path clip-path="url(#p683f9a73ac)" d="M 257.346384 118.752328 
L 257.346384 118.752328 
" style="fill:none;stroke:#000000;stroke-width:2;"/>
    <path clip-path="url(#p683f9a73ac)" d="M 294.307128 118.752328 
L 294.307128 118.752328 
" style="fill:none;stroke:#000000;stroke-width:2;"/>
    <path clip-path="url(#p683f9a73ac)" d="M 331.267872 114.702421 
L 331.267872 95.087235 
" style="fill:none;stroke:#000000;stroke-width:2;"/>
    <path clip-path="url(#p683f9a73ac)" d="M 368.228616 125.497237 
L 368.228616 103.069608 
" style="fill:none;stroke:#000000;stroke-width:2;"/>
    <path clip-path="url(#p683f9a73ac)" d="M 405.18936 119.516775 
L 405.18936 106.17975 
" style="fill:none;stroke:#000000;stroke-width:2;"/>
    <path clip-path="url(#p683f9a73ac)" d="M 442.150103 136.670675 
L 442.150103 125.091566 
" style="fill:none;stroke:#000000;stroke-width:2;"/>
    <path clip-path="url(#p683f9a73ac)" d="M 479.110847 148.346409 
L 479.110847 131.020973 
" style="fill:none;stroke:#000000;stroke-width:2;"/>
    <path clip-path="url(#p683f9a73ac)" d="M 516.071591 126.184268 
L 516.071591 108.13388 
" style="fill:none;stroke:#000000;stroke-width:2;"/>
   </g>
   <g id="PathCollection_1">
    <defs>
     <path d="M -4.743416 4.743416 
L 4.743416 -4.743416 
M -4.743416 -4.743416 
L 4.743416 4.743416 
" id="m728a1744bb" style="stroke:#000000;stroke-width:2.5;"/>
    </defs>
    <g clip-path="url(#p683f9a73ac)">
     <use style="stroke:#000000;stroke-width:2.5;" x="109.503409" xlink:href="#m728a1744bb" y="118.752328"/>
     <use style="stroke:#000000;stroke-width:2.5;" x="146.464153" xlink:href="#m728a1744bb" y="118.752328"/>
     <use style="stroke:#000000;stroke-width:2.5;" x="183.424897" xlink:href="#m728a1744bb" y="118.752328"/>
     <use style="stroke:#000000;stroke-width:2.5;" x="220.38564" xlink:href="#m728a1744bb" y="118.752328"/>
     <use style="stroke:#000000;stroke-width:2.5;" x="257.346384" xlink:href="#m728a1744bb" y="118.752328"/>
     <use style="stroke:#000000;stroke-width:2.5;" x="294.307128" xlink:href="#m728a1744bb" y="118.752328"/>
     <use style="stroke:#000000;stroke-width:2.5;" x="331.267872" xlink:href="#m728a1744bb" y="105.325416"/>
     <use style="stroke:#000000;stroke-width:2.5;" x="368.228616" xlink:href="#m728a1744bb" y="114.804247"/>
     <use style="stroke:#000000;stroke-width:2.5;" x="405.18936" xlink:href="#m728a1744bb" y="113.060273"/>
     <use style="stroke:#000000;stroke-width:2.5;" x="442.150103" xlink:href="#m728a1744bb" y="130.985862"/>
     <use style="stroke:#000000;stroke-width:2.5;" x="479.110847" xlink:href="#m728a1744bb" y="140.132768"/>
     <use style="stroke:#000000;stroke-width:2.5;" x="516.071591" xlink:href="#m728a1744bb" y="117.371173"/>
    </g>
   </g>
  </g>
  <g id="axes_2">
   <g id="patch_7">
    <path d="M 89.175 424.609311 
L 536.4 424.609311 
L 536.4 220.704655 
L 89.175 220.704655 
z
" style="fill:#ffffff;"/>
   </g>
   <g id="matplotlib.axis_3">
    <g id="xtick_13">
     <g id="line2d_29">
      <g>
       <use style="stroke:#000000;stroke-width:0.8;" x="109.503409" xlink:href="#mb55014e383" y="424.609311"/>
      </g>
     </g>
     <g id="text_6">
      <!-- W1XXXX -->
      <g transform="translate(73.404448 491.590795)rotate(-60)scale(0.16 -0.16)">
       <defs>
        <path d="M 20.21875 0 
L 1.21875 71.578125 
L 10.9375 71.578125 
L 21.828125 24.65625 
Q 23.578125 17.28125 24.859375 10.015625 
Q 27.59375 21.484375 28.078125 23.25 
L 41.703125 71.578125 
L 53.125 71.578125 
L 63.375 35.359375 
Q 67.234375 21.875 68.953125 10.015625 
Q 70.3125 16.796875 72.515625 25.59375 
L 83.734375 71.578125 
L 93.265625 71.578125 
L 73.640625 0 
L 64.5 0 
L 49.421875 54.546875 
Q 47.515625 61.375 47.171875 62.9375 
Q 46.046875 58.015625 45.0625 54.546875 
L 29.890625 0 
z
" id="ArialMT-87"/>
        <path d="M 0.4375 0 
L 28.125 37.3125 
L 3.71875 71.578125 
L 14.984375 71.578125 
L 27.984375 53.21875 
Q 32.03125 47.515625 33.734375 44.4375 
Q 36.140625 48.34375 39.40625 52.59375 
L 53.8125 71.578125 
L 64.109375 71.578125 
L 38.96875 37.84375 
L 66.0625 0 
L 54.34375 0 
L 36.328125 25.53125 
Q 34.8125 27.734375 33.203125 30.328125 
Q 30.8125 26.421875 29.78125 24.953125 
L 11.8125 0 
z
" id="ArialMT-88"/>
       </defs>
       <use xlink:href="#ArialMT-87"/>
       <use x="94.384766" xlink:href="#ArialMT-49"/>
       <use x="150" xlink:href="#ArialMT-88"/>
       <use x="216.699219" xlink:href="#ArialMT-88"/>
       <use x="283.398438" xlink:href="#ArialMT-88"/>
       <use x="350.097656" xlink:href="#ArialMT-88"/>
      </g>
     </g>
    </g>
    <g id="xtick_14">
     <g id="line2d_30">
      <g>
       <use style="stroke:#000000;stroke-width:0.8;" x="146.464153" xlink:href="#mb55014e383" y="424.609311"/>
      </g>
     </g>
     <g id="text_7">
      <!-- W2XXXX -->
      <g transform="translate(110.365192 491.590795)rotate(-60)scale(0.16 -0.16)">
       <use xlink:href="#ArialMT-87"/>
       <use x="94.384766" xlink:href="#ArialMT-50"/>
       <use x="150" xlink:href="#ArialMT-88"/>
       <use x="216.699219" xlink:href="#ArialMT-88"/>
       <use x="283.398438" xlink:href="#ArialMT-88"/>
       <use x="350.097656" xlink:href="#ArialMT-88"/>
      </g>
     </g>
    </g>
    <g id="xtick_15">
     <g id="line2d_31">
      <g>
       <use style="stroke:#000000;stroke-width:0.8;" x="183.424897" xlink:href="#mb55014e383" y="424.609311"/>
      </g>
     </g>
     <g id="text_8">
      <!-- W5XXXX -->
      <g transform="translate(147.325936 491.590795)rotate(-60)scale(0.16 -0.16)">
       <use xlink:href="#ArialMT-87"/>
       <use x="94.384766" xlink:href="#ArialMT-53"/>
       <use x="150" xlink:href="#ArialMT-88"/>
       <use x="216.699219" xlink:href="#ArialMT-88"/>
       <use x="283.398438" xlink:href="#ArialMT-88"/>
       <use x="350.097656" xlink:href="#ArialMT-88"/>
      </g>
     </g>
    </g>
    <g id="xtick_16">
     <g id="line2d_32">
      <g>
       <use style="stroke:#000000;stroke-width:0.8;" x="220.38564" xlink:href="#mb55014e383" y="424.609311"/>
      </g>
     </g>
     <g id="text_9">
      <!-- W3XXXX -->
      <g transform="translate(184.28668 491.590795)rotate(-60)scale(0.16 -0.16)">
       <defs>
        <path d="M 4.203125 18.890625 
L 12.984375 20.0625 
Q 14.5 12.59375 18.140625 9.296875 
Q 21.78125 6 27 6 
Q 33.203125 6 37.46875 10.296875 
Q 41.75 14.59375 41.75 20.953125 
Q 41.75 27 37.796875 30.921875 
Q 33.84375 34.859375 27.734375 34.859375 
Q 25.25 34.859375 21.53125 33.890625 
L 22.515625 41.609375 
Q 23.390625 41.5 23.921875 41.5 
Q 29.546875 41.5 34.03125 44.421875 
Q 38.53125 47.359375 38.53125 53.46875 
Q 38.53125 58.296875 35.25 61.46875 
Q 31.984375 64.65625 26.8125 64.65625 
Q 21.6875 64.65625 18.265625 61.421875 
Q 14.84375 58.203125 13.875 51.765625 
L 5.078125 53.328125 
Q 6.6875 62.15625 12.390625 67.015625 
Q 18.109375 71.875 26.609375 71.875 
Q 32.46875 71.875 37.390625 69.359375 
Q 42.328125 66.84375 44.9375 62.5 
Q 47.5625 58.15625 47.5625 53.265625 
Q 47.5625 48.640625 45.0625 44.828125 
Q 42.578125 41.015625 37.703125 38.765625 
Q 44.046875 37.3125 47.5625 32.6875 
Q 51.078125 28.078125 51.078125 21.140625 
Q 51.078125 11.765625 44.234375 5.25 
Q 37.40625 -1.265625 26.953125 -1.265625 
Q 17.53125 -1.265625 11.296875 4.34375 
Q 5.078125 9.96875 4.203125 18.890625 
z
" id="ArialMT-51"/>
       </defs>
       <use xlink:href="#ArialMT-87"/>
       <use x="94.384766" xlink:href="#ArialMT-51"/>
       <use x="150" xlink:href="#ArialMT-88"/>
       <use x="216.699219" xlink:href="#ArialMT-88"/>
       <use x="283.398438" xlink:href="#ArialMT-88"/>
       <use x="350.097656" xlink:href="#ArialMT-88"/>
      </g>
     </g>
    </g>
    <g id="xtick_17">
     <g id="line2d_33">
      <g>
       <use style="stroke:#000000;stroke-width:0.8;" x="257.346384" xlink:href="#mb55014e383" y="424.609311"/>
      </g>
     </g>
     <g id="text_10">
      <!-- W4XXXX -->
      <g transform="translate(221.247424 491.590795)rotate(-60)scale(0.16 -0.16)">
       <defs>
        <path d="M 32.328125 0 
L 32.328125 17.140625 
L 1.265625 17.140625 
L 1.265625 25.203125 
L 33.9375 71.578125 
L 41.109375 71.578125 
L 41.109375 25.203125 
L 50.78125 25.203125 
L 50.78125 17.140625 
L 41.109375 17.140625 
L 41.109375 0 
z
M 32.328125 25.203125 
L 32.328125 57.46875 
L 9.90625 25.203125 
z
" id="ArialMT-52"/>
       </defs>
       <use xlink:href="#ArialMT-87"/>
       <use x="94.384766" xlink:href="#ArialMT-52"/>
       <use x="150" xlink:href="#ArialMT-88"/>
       <use x="216.699219" xlink:href="#ArialMT-88"/>
       <use x="283.398438" xlink:href="#ArialMT-88"/>
       <use x="350.097656" xlink:href="#ArialMT-88"/>
      </g>
     </g>
    </g>
    <g id="xtick_18">
     <g id="line2d_34">
      <g>
       <use style="stroke:#000000;stroke-width:0.8;" x="294.307128" xlink:href="#mb55014e383" y="424.609311"/>
      </g>
     </g>
     <g id="text_11">
      <!-- M4XXXX -->
      <g transform="translate(259.095667 490.0536)rotate(-60)scale(0.16 -0.16)">
       <use xlink:href="#ArialMT-77"/>
       <use x="83.300781" xlink:href="#ArialMT-52"/>
       <use x="138.916016" xlink:href="#ArialMT-88"/>
       <use x="205.615234" xlink:href="#ArialMT-88"/>
       <use x="272.314453" xlink:href="#ArialMT-88"/>
       <use x="339.013672" xlink:href="#ArialMT-88"/>
      </g>
     </g>
    </g>
    <g id="xtick_19">
     <g id="line2d_35">
      <g>
       <use style="stroke:#000000;stroke-width:0.8;" x="331.267872" xlink:href="#mb55014e383" y="424.609311"/>
      </g>
     </g>
     <g id="text_12">
      <!-- M5XXXX -->
      <g transform="translate(296.056411 490.0536)rotate(-60)scale(0.16 -0.16)">
       <use xlink:href="#ArialMT-77"/>
       <use x="83.300781" xlink:href="#ArialMT-53"/>
       <use x="138.916016" xlink:href="#ArialMT-88"/>
       <use x="205.615234" xlink:href="#ArialMT-88"/>
       <use x="272.314453" xlink:href="#ArialMT-88"/>
       <use x="339.013672" xlink:href="#ArialMT-88"/>
      </g>
     </g>
    </g>
    <g id="xtick_20">
     <g id="line2d_36">
      <g>
       <use style="stroke:#000000;stroke-width:0.8;" x="368.228616" xlink:href="#mb55014e383" y="424.609311"/>
      </g>
     </g>
     <g id="text_13">
      <!-- M2XXXX -->
      <g transform="translate(333.017155 490.0536)rotate(-60)scale(0.16 -0.16)">
       <use xlink:href="#ArialMT-77"/>
       <use x="83.300781" xlink:href="#ArialMT-50"/>
       <use x="138.916016" xlink:href="#ArialMT-88"/>
       <use x="205.615234" xlink:href="#ArialMT-88"/>
       <use x="272.314453" xlink:href="#ArialMT-88"/>
       <use x="339.013672" xlink:href="#ArialMT-88"/>
      </g>
     </g>
    </g>
    <g id="xtick_21">
     <g id="line2d_37">
      <g>
       <use style="stroke:#000000;stroke-width:0.8;" x="405.18936" xlink:href="#mb55014e383" y="424.609311"/>
      </g>
     </g>
     <g id="text_14">
      <!-- M1XXXX -->
      <g transform="translate(369.977899 490.0536)rotate(-60)scale(0.16 -0.16)">
       <use xlink:href="#ArialMT-77"/>
       <use x="83.300781" xlink:href="#ArialMT-49"/>
       <use x="138.916016" xlink:href="#ArialMT-88"/>
       <use x="205.615234" xlink:href="#ArialMT-88"/>
       <use x="272.314453" xlink:href="#ArialMT-88"/>
       <use x="339.013672" xlink:href="#ArialMT-88"/>
      </g>
     </g>
    </g>
    <g id="xtick_22">
     <g id="line2d_38">
      <g>
       <use style="stroke:#000000;stroke-width:0.8;" x="442.150103" xlink:href="#mb55014e383" y="424.609311"/>
      </g>
     </g>
     <g id="text_15">
      <!-- M3XXXX -->
      <g transform="translate(406.938643 490.0536)rotate(-60)scale(0.16 -0.16)">
       <use xlink:href="#ArialMT-77"/>
       <use x="83.300781" xlink:href="#ArialMT-51"/>
       <use x="138.916016" xlink:href="#ArialMT-88"/>
       <use x="205.615234" xlink:href="#ArialMT-88"/>
       <use x="272.314453" xlink:href="#ArialMT-88"/>
       <use x="339.013672" xlink:href="#ArialMT-88"/>
      </g>
     </g>
    </g>
    <g id="xtick_23">
     <g id="line2d_39">
      <g>
       <use style="stroke:#000000;stroke-width:0.8;" x="479.110847" xlink:href="#mb55014e383" y="424.609311"/>
      </g>
     </g>
     <g id="text_16">
      <!-- M6XXXX -->
      <g transform="translate(443.899386 490.0536)rotate(-60)scale(0.16 -0.16)">
       <defs>
        <path d="M 49.75 54.046875 
L 41.015625 53.375 
Q 39.84375 58.546875 37.703125 60.890625 
Q 34.125 64.65625 28.90625 64.65625 
Q 24.703125 64.65625 21.53125 62.3125 
Q 17.390625 59.28125 14.984375 53.46875 
Q 12.59375 47.65625 12.5 36.921875 
Q 15.671875 41.75 20.265625 44.09375 
Q 24.859375 46.4375 29.890625 46.4375 
Q 38.671875 46.4375 44.84375 39.96875 
Q 51.03125 33.5 51.03125 23.25 
Q 51.03125 16.5 48.125 10.71875 
Q 45.21875 4.9375 40.140625 1.859375 
Q 35.0625 -1.21875 28.609375 -1.21875 
Q 17.625 -1.21875 10.6875 6.859375 
Q 3.765625 14.9375 3.765625 33.5 
Q 3.765625 54.25 11.421875 63.671875 
Q 18.109375 71.875 29.4375 71.875 
Q 37.890625 71.875 43.28125 67.140625 
Q 48.6875 62.40625 49.75 54.046875 
z
M 13.875 23.1875 
Q 13.875 18.65625 15.796875 14.5 
Q 17.71875 10.359375 21.1875 8.171875 
Q 24.65625 6 28.46875 6 
Q 34.03125 6 38.03125 10.484375 
Q 42.046875 14.984375 42.046875 22.703125 
Q 42.046875 30.125 38.078125 34.390625 
Q 34.125 38.671875 28.125 38.671875 
Q 22.171875 38.671875 18.015625 34.390625 
Q 13.875 30.125 13.875 23.1875 
z
" id="ArialMT-54"/>
       </defs>
       <use xlink:href="#ArialMT-77"/>
       <use x="83.300781" xlink:href="#ArialMT-54"/>
       <use x="138.916016" xlink:href="#ArialMT-88"/>
       <use x="205.615234" xlink:href="#ArialMT-88"/>
       <use x="272.314453" xlink:href="#ArialMT-88"/>
       <use x="339.013672" xlink:href="#ArialMT-88"/>
      </g>
     </g>
    </g>
    <g id="xtick_24">
     <g id="line2d_40">
      <g>
       <use style="stroke:#000000;stroke-width:0.8;" x="516.071591" xlink:href="#mb55014e383" y="424.609311"/>
      </g>
     </g>
     <g id="text_17">
      <!-- S2XXXX -->
      <g transform="translate(482.18763 487.754302)rotate(-60)scale(0.16 -0.16)">
       <defs>
        <path d="M 4.5 23 
L 13.421875 23.78125 
Q 14.0625 18.40625 16.375 14.96875 
Q 18.703125 11.53125 23.578125 9.40625 
Q 28.46875 7.28125 34.578125 7.28125 
Q 39.984375 7.28125 44.140625 8.890625 
Q 48.296875 10.5 50.3125 13.296875 
Q 52.34375 16.109375 52.34375 19.4375 
Q 52.34375 22.796875 50.390625 25.3125 
Q 48.4375 27.828125 43.953125 29.546875 
Q 41.0625 30.671875 31.203125 33.03125 
Q 21.34375 35.40625 17.390625 37.5 
Q 12.25 40.1875 9.734375 44.15625 
Q 7.234375 48.140625 7.234375 53.078125 
Q 7.234375 58.5 10.296875 63.203125 
Q 13.375 67.921875 19.28125 70.359375 
Q 25.203125 72.796875 32.421875 72.796875 
Q 40.375 72.796875 46.453125 70.234375 
Q 52.546875 67.671875 55.8125 62.6875 
Q 59.078125 57.71875 59.328125 51.421875 
L 50.25 50.734375 
Q 49.515625 57.515625 45.28125 60.984375 
Q 41.0625 64.453125 32.8125 64.453125 
Q 24.21875 64.453125 20.28125 61.296875 
Q 16.359375 58.15625 16.359375 53.71875 
Q 16.359375 49.859375 19.140625 47.359375 
Q 21.875 44.875 33.421875 42.265625 
Q 44.96875 39.65625 49.265625 37.703125 
Q 55.515625 34.8125 58.484375 30.390625 
Q 61.46875 25.984375 61.46875 20.21875 
Q 61.46875 14.5 58.203125 9.4375 
Q 54.9375 4.390625 48.796875 1.578125 
Q 42.671875 -1.21875 35.015625 -1.21875 
Q 25.296875 -1.21875 18.71875 1.609375 
Q 12.15625 4.4375 8.421875 10.125 
Q 4.6875 15.828125 4.5 23 
z
" id="ArialMT-83"/>
       </defs>
       <use xlink:href="#ArialMT-83"/>
       <use x="66.699219" xlink:href="#ArialMT-50"/>
       <use x="122.314453" xlink:href="#ArialMT-88"/>
       <use x="189.013672" xlink:href="#ArialMT-88"/>
       <use x="255.712891" xlink:href="#ArialMT-88"/>
       <use x="322.412109" xlink:href="#ArialMT-88"/>
      </g>
     </g>
    </g>
   </g>
   <g id="matplotlib.axis_4">
    <g id="ytick_9">
     <g id="line2d_41">
      <path clip-path="url(#p13ca2a2081)" d="M 89.175 381.215832 
L 536.4 381.215832 
" style="fill:none;stroke:#b0b0b0;stroke-linecap:square;stroke-width:0.8;"/>
     </g>
     <g id="line2d_42">
      <g>
       <use style="stroke:#000000;stroke-width:0.8;" x="89.175" xlink:href="#m45f94a0e8d" y="381.215832"/>
      </g>
     </g>
     <g id="text_18">
      <!-- 10 -->
      <g transform="translate(64.38 386.942082)scale(0.16 -0.16)">
       <use xlink:href="#ArialMT-49"/>
       <use x="55.615234" xlink:href="#ArialMT-48"/>
      </g>
     </g>
    </g>
    <g id="ytick_10">
     <g id="line2d_43">
      <path clip-path="url(#p13ca2a2081)" d="M 89.175 337.822353 
L 536.4 337.822353 
" style="fill:none;stroke:#b0b0b0;stroke-linecap:square;stroke-width:0.8;"/>
     </g>
     <g id="line2d_44">
      <g>
       <use style="stroke:#000000;stroke-width:0.8;" x="89.175" xlink:href="#m45f94a0e8d" y="337.822353"/>
      </g>
     </g>
     <g id="text_19">
      <!-- 100 -->
      <g transform="translate(55.4825 343.548603)scale(0.16 -0.16)">
       <use xlink:href="#ArialMT-49"/>
       <use x="55.615234" xlink:href="#ArialMT-48"/>
       <use x="111.230469" xlink:href="#ArialMT-48"/>
      </g>
     </g>
    </g>
    <g id="ytick_11">
     <g id="line2d_45">
      <path clip-path="url(#p13ca2a2081)" d="M 89.175 294.428874 
L 536.4 294.428874 
" style="fill:none;stroke:#b0b0b0;stroke-linecap:square;stroke-width:0.8;"/>
     </g>
     <g id="line2d_46">
      <g>
       <use style="stroke:#000000;stroke-width:0.8;" x="89.175" xlink:href="#m45f94a0e8d" y="294.428874"/>
      </g>
     </g>
     <g id="text_20">
      <!-- 1000 -->
      <g transform="translate(46.585 300.155124)scale(0.16 -0.16)">
       <use xlink:href="#ArialMT-49"/>
       <use x="55.615234" xlink:href="#ArialMT-48"/>
       <use x="111.230469" xlink:href="#ArialMT-48"/>
       <use x="166.845703" xlink:href="#ArialMT-48"/>
      </g>
     </g>
    </g>
    <g id="ytick_12">
     <g id="line2d_47">
      <path clip-path="url(#p13ca2a2081)" d="M 89.175 251.035395 
L 536.4 251.035395 
" style="fill:none;stroke:#b0b0b0;stroke-linecap:square;stroke-width:0.8;"/>
     </g>
     <g id="line2d_48">
      <g>
       <use style="stroke:#000000;stroke-width:0.8;" x="89.175" xlink:href="#m45f94a0e8d" y="251.035395"/>
      </g>
     </g>
     <g id="text_21">
      <!-- 10000 -->
      <g transform="translate(37.6875 256.761645)scale(0.16 -0.16)">
       <use xlink:href="#ArialMT-49"/>
       <use x="55.615234" xlink:href="#ArialMT-48"/>
       <use x="111.230469" xlink:href="#ArialMT-48"/>
       <use x="166.845703" xlink:href="#ArialMT-48"/>
       <use x="222.460938" xlink:href="#ArialMT-48"/>
      </g>
     </g>
    </g>
    <g id="ytick_13">
     <g id="line2d_49">
      <path clip-path="url(#p13ca2a2081)" d="M 89.175 411.546572 
L 536.4 411.546572 
" style="fill:none;stroke:#b0b0b0;stroke-linecap:square;stroke-width:0.8;"/>
     </g>
     <g id="line2d_50">
      <g>
       <use style="stroke:#000000;stroke-width:0.6;" x="89.175" xlink:href="#m3ce206a9b3" y="411.546572"/>
      </g>
     </g>
    </g>
    <g id="ytick_14">
     <g id="line2d_51">
      <path clip-path="url(#p13ca2a2081)" d="M 89.175 403.90536 
L 536.4 403.90536 
" style="fill:none;stroke:#b0b0b0;stroke-linecap:square;stroke-width:0.8;"/>
     </g>
     <g id="line2d_52">
      <g>
       <use style="stroke:#000000;stroke-width:0.6;" x="89.175" xlink:href="#m3ce206a9b3" y="403.90536"/>
      </g>
     </g>
    </g>
    <g id="ytick_15">
     <g id="line2d_53">
      <path clip-path="url(#p13ca2a2081)" d="M 89.175 398.483833 
L 536.4 398.483833 
" style="fill:none;stroke:#b0b0b0;stroke-linecap:square;stroke-width:0.8;"/>
     </g>
     <g id="line2d_54">
      <g>
       <use style="stroke:#000000;stroke-width:0.6;" x="89.175" xlink:href="#m3ce206a9b3" y="398.483833"/>
      </g>
     </g>
    </g>
    <g id="ytick_16">
     <g id="line2d_55">
      <path clip-path="url(#p13ca2a2081)" d="M 89.175 394.278571 
L 536.4 394.278571 
" style="fill:none;stroke:#b0b0b0;stroke-linecap:square;stroke-width:0.8;"/>
     </g>
     <g id="line2d_56">
      <g>
       <use style="stroke:#000000;stroke-width:0.6;" x="89.175" xlink:href="#m3ce206a9b3" y="394.278571"/>
      </g>
     </g>
    </g>
    <g id="ytick_17">
     <g id="line2d_57">
      <path clip-path="url(#p13ca2a2081)" d="M 89.175 390.842621 
L 536.4 390.842621 
" style="fill:none;stroke:#b0b0b0;stroke-linecap:square;stroke-width:0.8;"/>
     </g>
     <g id="line2d_58">
      <g>
       <use style="stroke:#000000;stroke-width:0.6;" x="89.175" xlink:href="#m3ce206a9b3" y="390.842621"/>
      </g>
     </g>
    </g>
    <g id="ytick_18">
     <g id="line2d_59">
      <path clip-path="url(#p13ca2a2081)" d="M 89.175 387.937567 
L 536.4 387.937567 
" style="fill:none;stroke:#b0b0b0;stroke-linecap:square;stroke-width:0.8;"/>
     </g>
     <g id="line2d_60">
      <g>
       <use style="stroke:#000000;stroke-width:0.6;" x="89.175" xlink:href="#m3ce206a9b3" y="387.937567"/>
      </g>
     </g>
    </g>
    <g id="ytick_19">
     <g id="line2d_61">
      <path clip-path="url(#p13ca2a2081)" d="M 89.175 385.421094 
L 536.4 385.421094 
" style="fill:none;stroke:#b0b0b0;stroke-linecap:square;stroke-width:0.8;"/>
     </g>
     <g id="line2d_62">
      <g>
       <use style="stroke:#000000;stroke-width:0.6;" x="89.175" xlink:href="#m3ce206a9b3" y="385.421094"/>
      </g>
     </g>
    </g>
    <g id="ytick_20">
     <g id="line2d_63">
      <path clip-path="url(#p13ca2a2081)" d="M 89.175 383.201409 
L 536.4 383.201409 
" style="fill:none;stroke:#b0b0b0;stroke-linecap:square;stroke-width:0.8;"/>
     </g>
     <g id="line2d_64">
      <g>
       <use style="stroke:#000000;stroke-width:0.6;" x="89.175" xlink:href="#m3ce206a9b3" y="383.201409"/>
      </g>
     </g>
    </g>
    <g id="ytick_21">
     <g id="line2d_65">
      <path clip-path="url(#p13ca2a2081)" d="M 89.175 368.153093 
L 536.4 368.153093 
" style="fill:none;stroke:#b0b0b0;stroke-linecap:square;stroke-width:0.8;"/>
     </g>
     <g id="line2d_66">
      <g>
       <use style="stroke:#000000;stroke-width:0.6;" x="89.175" xlink:href="#m3ce206a9b3" y="368.153093"/>
      </g>
     </g>
    </g>
    <g id="ytick_22">
     <g id="line2d_67">
      <path clip-path="url(#p13ca2a2081)" d="M 89.175 360.511881 
L 536.4 360.511881 
" style="fill:none;stroke:#b0b0b0;stroke-linecap:square;stroke-width:0.8;"/>
     </g>
     <g id="line2d_68">
      <g>
       <use style="stroke:#000000;stroke-width:0.6;" x="89.175" xlink:href="#m3ce206a9b3" y="360.511881"/>
      </g>
     </g>
    </g>
    <g id="ytick_23">
     <g id="line2d_69">
      <path clip-path="url(#p13ca2a2081)" d="M 89.175 355.090354 
L 536.4 355.090354 
" style="fill:none;stroke:#b0b0b0;stroke-linecap:square;stroke-width:0.8;"/>
     </g>
     <g id="line2d_70">
      <g>
       <use style="stroke:#000000;stroke-width:0.6;" x="89.175" xlink:href="#m3ce206a9b3" y="355.090354"/>
      </g>
     </g>
    </g>
    <g id="ytick_24">
     <g id="line2d_71">
      <path clip-path="url(#p13ca2a2081)" d="M 89.175 350.885092 
L 536.4 350.885092 
" style="fill:none;stroke:#b0b0b0;stroke-linecap:square;stroke-width:0.8;"/>
     </g>
     <g id="line2d_72">
      <g>
       <use style="stroke:#000000;stroke-width:0.6;" x="89.175" xlink:href="#m3ce206a9b3" y="350.885092"/>
      </g>
     </g>
    </g>
    <g id="ytick_25">
     <g id="line2d_73">
      <path clip-path="url(#p13ca2a2081)" d="M 89.175 347.449142 
L 536.4 347.449142 
" style="fill:none;stroke:#b0b0b0;stroke-linecap:square;stroke-width:0.8;"/>
     </g>
     <g id="line2d_74">
      <g>
       <use style="stroke:#000000;stroke-width:0.6;" x="89.175" xlink:href="#m3ce206a9b3" y="347.449142"/>
      </g>
     </g>
    </g>
    <g id="ytick_26">
     <g id="line2d_75">
      <path clip-path="url(#p13ca2a2081)" d="M 89.175 344.544088 
L 536.4 344.544088 
" style="fill:none;stroke:#b0b0b0;stroke-linecap:square;stroke-width:0.8;"/>
     </g>
     <g id="line2d_76">
      <g>
       <use style="stroke:#000000;stroke-width:0.6;" x="89.175" xlink:href="#m3ce206a9b3" y="344.544088"/>
      </g>
     </g>
    </g>
    <g id="ytick_27">
     <g id="line2d_77">
      <path clip-path="url(#p13ca2a2081)" d="M 89.175 342.027616 
L 536.4 342.027616 
" style="fill:none;stroke:#b0b0b0;stroke-linecap:square;stroke-width:0.8;"/>
     </g>
     <g id="line2d_78">
      <g>
       <use style="stroke:#000000;stroke-width:0.6;" x="89.175" xlink:href="#m3ce206a9b3" y="342.027616"/>
      </g>
     </g>
    </g>
    <g id="ytick_28">
     <g id="line2d_79">
      <path clip-path="url(#p13ca2a2081)" d="M 89.175 339.80793 
L 536.4 339.80793 
" style="fill:none;stroke:#b0b0b0;stroke-linecap:square;stroke-width:0.8;"/>
     </g>
     <g id="line2d_80">
      <g>
       <use style="stroke:#000000;stroke-width:0.6;" x="89.175" xlink:href="#m3ce206a9b3" y="339.80793"/>
      </g>
     </g>
    </g>
    <g id="ytick_29">
     <g id="line2d_81">
      <path clip-path="url(#p13ca2a2081)" d="M 89.175 324.759614 
L 536.4 324.759614 
" style="fill:none;stroke:#b0b0b0;stroke-linecap:square;stroke-width:0.8;"/>
     </g>
     <g id="line2d_82">
      <g>
       <use style="stroke:#000000;stroke-width:0.6;" x="89.175" xlink:href="#m3ce206a9b3" y="324.759614"/>
      </g>
     </g>
    </g>
    <g id="ytick_30">
     <g id="line2d_83">
      <path clip-path="url(#p13ca2a2081)" d="M 89.175 317.118402 
L 536.4 317.118402 
" style="fill:none;stroke:#b0b0b0;stroke-linecap:square;stroke-width:0.8;"/>
     </g>
     <g id="line2d_84">
      <g>
       <use style="stroke:#000000;stroke-width:0.6;" x="89.175" xlink:href="#m3ce206a9b3" y="317.118402"/>
      </g>
     </g>
    </g>
    <g id="ytick_31">
     <g id="line2d_85">
      <path clip-path="url(#p13ca2a2081)" d="M 89.175 311.696876 
L 536.4 311.696876 
" style="fill:none;stroke:#b0b0b0;stroke-linecap:square;stroke-width:0.8;"/>
     </g>
     <g id="line2d_86">
      <g>
       <use style="stroke:#000000;stroke-width:0.6;" x="89.175" xlink:href="#m3ce206a9b3" y="311.696876"/>
      </g>
     </g>
    </g>
    <g id="ytick_32">
     <g id="line2d_87">
      <path clip-path="url(#p13ca2a2081)" d="M 89.175 307.491613 
L 536.4 307.491613 
" style="fill:none;stroke:#b0b0b0;stroke-linecap:square;stroke-width:0.8;"/>
     </g>
     <g id="line2d_88">
      <g>
       <use style="stroke:#000000;stroke-width:0.6;" x="89.175" xlink:href="#m3ce206a9b3" y="307.491613"/>
      </g>
     </g>
    </g>
    <g id="ytick_33">
     <g id="line2d_89">
      <path clip-path="url(#p13ca2a2081)" d="M 89.175 304.055663 
L 536.4 304.055663 
" style="fill:none;stroke:#b0b0b0;stroke-linecap:square;stroke-width:0.8;"/>
     </g>
     <g id="line2d_90">
      <g>
       <use style="stroke:#000000;stroke-width:0.6;" x="89.175" xlink:href="#m3ce206a9b3" y="304.055663"/>
      </g>
     </g>
    </g>
    <g id="ytick_34">
     <g id="line2d_91">
      <path clip-path="url(#p13ca2a2081)" d="M 89.175 301.150609 
L 536.4 301.150609 
" style="fill:none;stroke:#b0b0b0;stroke-linecap:square;stroke-width:0.8;"/>
     </g>
     <g id="line2d_92">
      <g>
       <use style="stroke:#000000;stroke-width:0.6;" x="89.175" xlink:href="#m3ce206a9b3" y="301.150609"/>
      </g>
     </g>
    </g>
    <g id="ytick_35">
     <g id="line2d_93">
      <path clip-path="url(#p13ca2a2081)" d="M 89.175 298.634137 
L 536.4 298.634137 
" style="fill:none;stroke:#b0b0b0;stroke-linecap:square;stroke-width:0.8;"/>
     </g>
     <g id="line2d_94">
      <g>
       <use style="stroke:#000000;stroke-width:0.6;" x="89.175" xlink:href="#m3ce206a9b3" y="298.634137"/>
      </g>
     </g>
    </g>
    <g id="ytick_36">
     <g id="line2d_95">
      <path clip-path="url(#p13ca2a2081)" d="M 89.175 296.414451 
L 536.4 296.414451 
" style="fill:none;stroke:#b0b0b0;stroke-linecap:square;stroke-width:0.8;"/>
     </g>
     <g id="line2d_96">
      <g>
       <use style="stroke:#000000;stroke-width:0.6;" x="89.175" xlink:href="#m3ce206a9b3" y="296.414451"/>
      </g>
     </g>
    </g>
    <g id="ytick_37">
     <g id="line2d_97">
      <path clip-path="url(#p13ca2a2081)" d="M 89.175 281.366135 
L 536.4 281.366135 
" style="fill:none;stroke:#b0b0b0;stroke-linecap:square;stroke-width:0.8;"/>
     </g>
     <g id="line2d_98">
      <g>
       <use style="stroke:#000000;stroke-width:0.6;" x="89.175" xlink:href="#m3ce206a9b3" y="281.366135"/>
      </g>
     </g>
    </g>
    <g id="ytick_38">
     <g id="line2d_99">
      <path clip-path="url(#p13ca2a2081)" d="M 89.175 273.724923 
L 536.4 273.724923 
" style="fill:none;stroke:#b0b0b0;stroke-linecap:square;stroke-width:0.8;"/>
     </g>
     <g id="line2d_100">
      <g>
       <use style="stroke:#000000;stroke-width:0.6;" x="89.175" xlink:href="#m3ce206a9b3" y="273.724923"/>
      </g>
     </g>
    </g>
    <g id="ytick_39">
     <g id="line2d_101">
      <path clip-path="url(#p13ca2a2081)" d="M 89.175 268.303397 
L 536.4 268.303397 
" style="fill:none;stroke:#b0b0b0;stroke-linecap:square;stroke-width:0.8;"/>
     </g>
     <g id="line2d_102">
      <g>
       <use style="stroke:#000000;stroke-width:0.6;" x="89.175" xlink:href="#m3ce206a9b3" y="268.303397"/>
      </g>
     </g>
    </g>
    <g id="ytick_40">
     <g id="line2d_103">
      <path clip-path="url(#p13ca2a2081)" d="M 89.175 264.098134 
L 536.4 264.098134 
" style="fill:none;stroke:#b0b0b0;stroke-linecap:square;stroke-width:0.8;"/>
     </g>
     <g id="line2d_104">
      <g>
       <use style="stroke:#000000;stroke-width:0.6;" x="89.175" xlink:href="#m3ce206a9b3" y="264.098134"/>
      </g>
     </g>
    </g>
    <g id="ytick_41">
     <g id="line2d_105">
      <path clip-path="url(#p13ca2a2081)" d="M 89.175 260.662184 
L 536.4 260.662184 
" style="fill:none;stroke:#b0b0b0;stroke-linecap:square;stroke-width:0.8;"/>
     </g>
     <g id="line2d_106">
      <g>
       <use style="stroke:#000000;stroke-width:0.6;" x="89.175" xlink:href="#m3ce206a9b3" y="260.662184"/>
      </g>
     </g>
    </g>
    <g id="ytick_42">
     <g id="line2d_107">
      <path clip-path="url(#p13ca2a2081)" d="M 89.175 257.75713 
L 536.4 257.75713 
" style="fill:none;stroke:#b0b0b0;stroke-linecap:square;stroke-width:0.8;"/>
     </g>
     <g id="line2d_108">
      <g>
       <use style="stroke:#000000;stroke-width:0.6;" x="89.175" xlink:href="#m3ce206a9b3" y="257.75713"/>
      </g>
     </g>
    </g>
    <g id="ytick_43">
     <g id="line2d_109">
      <path clip-path="url(#p13ca2a2081)" d="M 89.175 255.240658 
L 536.4 255.240658 
" style="fill:none;stroke:#b0b0b0;stroke-linecap:square;stroke-width:0.8;"/>
     </g>
     <g id="line2d_110">
      <g>
       <use style="stroke:#000000;stroke-width:0.6;" x="89.175" xlink:href="#m3ce206a9b3" y="255.240658"/>
      </g>
     </g>
    </g>
    <g id="ytick_44">
     <g id="line2d_111">
      <path clip-path="url(#p13ca2a2081)" d="M 89.175 253.020972 
L 536.4 253.020972 
" style="fill:none;stroke:#b0b0b0;stroke-linecap:square;stroke-width:0.8;"/>
     </g>
     <g id="line2d_112">
      <g>
       <use style="stroke:#000000;stroke-width:0.6;" x="89.175" xlink:href="#m3ce206a9b3" y="253.020972"/>
      </g>
     </g>
    </g>
    <g id="ytick_45">
     <g id="line2d_113">
      <path clip-path="url(#p13ca2a2081)" d="M 89.175 237.972657 
L 536.4 237.972657 
" style="fill:none;stroke:#b0b0b0;stroke-linecap:square;stroke-width:0.8;"/>
     </g>
     <g id="line2d_114">
      <g>
       <use style="stroke:#000000;stroke-width:0.6;" x="89.175" xlink:href="#m3ce206a9b3" y="237.972657"/>
      </g>
     </g>
    </g>
    <g id="ytick_46">
     <g id="line2d_115">
      <path clip-path="url(#p13ca2a2081)" d="M 89.175 230.331444 
L 536.4 230.331444 
" style="fill:none;stroke:#b0b0b0;stroke-linecap:square;stroke-width:0.8;"/>
     </g>
     <g id="line2d_116">
      <g>
       <use style="stroke:#000000;stroke-width:0.6;" x="89.175" xlink:href="#m3ce206a9b3" y="230.331444"/>
      </g>
     </g>
    </g>
    <g id="ytick_47">
     <g id="line2d_117">
      <path clip-path="url(#p13ca2a2081)" d="M 89.175 224.909918 
L 536.4 224.909918 
" style="fill:none;stroke:#b0b0b0;stroke-linecap:square;stroke-width:0.8;"/>
     </g>
     <g id="line2d_118">
      <g>
       <use style="stroke:#000000;stroke-width:0.6;" x="89.175" xlink:href="#m3ce206a9b3" y="224.909918"/>
      </g>
     </g>
    </g>
    <g id="ytick_48">
     <g id="line2d_119">
      <path clip-path="url(#p13ca2a2081)" d="M 89.175 220.704655 
L 536.4 220.704655 
" style="fill:none;stroke:#b0b0b0;stroke-linecap:square;stroke-width:0.8;"/>
     </g>
     <g id="line2d_120">
      <g>
       <use style="stroke:#000000;stroke-width:0.6;" x="89.175" xlink:href="#m3ce206a9b3" y="220.704655"/>
      </g>
     </g>
    </g>
    <g id="text_22">
     <!-- K$_D$ (nM) -->
     <g transform="translate(29.2875 358.456983)rotate(-90)scale(0.2 -0.2)">
      <defs>
       <path d="M 7.328125 0 
L 7.328125 71.578125 
L 16.796875 71.578125 
L 16.796875 36.078125 
L 52.34375 71.578125 
L 65.1875 71.578125 
L 35.15625 42.578125 
L 66.5 0 
L 54 0 
L 28.515625 36.234375 
L 16.796875 24.8125 
L 16.796875 0 
z
" id="ArialMT-75"/>
       <path d="M 16.890625 72.90625 
L 38.09375 72.90625 
Q 54.984375 72.90625 63.59375 65.75 
Q 72.21875 58.59375 72.21875 44.484375 
Q 72.21875 35.15625 68.9375 26.53125 
Q 65.671875 17.921875 59.90625 12.015625 
Q 54.109375 5.953125 45.171875 2.96875 
Q 36.234375 0 24.03125 0 
L 2.6875 0 
z
M 25.203125 64.796875 
L 14.203125 8.109375 
L 27.09375 8.109375 
Q 43.65625 8.109375 52.734375 17.625 
Q 61.8125 27.15625 61.8125 44.484375 
Q 61.8125 54.984375 55.953125 59.890625 
Q 50.09375 64.796875 37.59375 64.796875 
z
" id="DejaVuSans-Oblique-68"/>
       <path d="M 23.390625 -21.046875 
Q 16.109375 -11.859375 11.078125 0.4375 
Q 6.0625 12.75 6.0625 25.921875 
Q 6.0625 37.546875 9.8125 48.1875 
Q 14.203125 60.546875 23.390625 72.796875 
L 29.6875 72.796875 
Q 23.78125 62.640625 21.875 58.296875 
Q 18.890625 51.5625 17.1875 44.234375 
Q 15.09375 35.109375 15.09375 25.875 
Q 15.09375 2.390625 29.6875 -21.046875 
z
" id="ArialMT-40"/>
       <path d="M 12.359375 -21.046875 
L 6.0625 -21.046875 
Q 20.65625 2.390625 20.65625 25.875 
Q 20.65625 35.0625 18.5625 44.09375 
Q 16.890625 51.421875 13.921875 58.15625 
Q 12.015625 62.546875 6.0625 72.796875 
L 12.359375 72.796875 
Q 21.53125 60.546875 25.921875 48.1875 
Q 29.6875 37.546875 29.6875 25.921875 
Q 29.6875 12.75 24.625 0.4375 
Q 19.578125 -11.859375 12.359375 -21.046875 
z
" id="ArialMT-41"/>
      </defs>
      <use transform="translate(0 0.203125)" xlink:href="#ArialMT-75"/>
      <use transform="translate(67.65625 -16.203125)scale(0.7)" xlink:href="#DejaVuSans-Oblique-68"/>
      <use transform="translate(124.291992 0.203125)" xlink:href="#ArialMT-32"/>
      <use transform="translate(152.075195 0.203125)" xlink:href="#ArialMT-40"/>
      <use transform="translate(185.375977 0.203125)" xlink:href="#ArialMT-110"/>
      <use transform="translate(240.991211 0.203125)" xlink:href="#ArialMT-77"/>
      <use transform="translate(324.291992 0.203125)" xlink:href="#ArialMT-41"/>
     </g>
    </g>
   </g>
   <g id="patch_8">
    <path d="M 89.175 424.609311 
L 89.175 220.704655 
" style="fill:none;stroke:#000000;stroke-linecap:square;stroke-linejoin:miter;stroke-width:0.8;"/>
   </g>
   <g id="patch_9">
    <path d="M 536.4 424.609311 
L 536.4 220.704655 
" style="fill:none;stroke:#000000;stroke-linecap:square;stroke-linejoin:miter;stroke-width:0.8;"/>
   </g>
   <g id="patch_10">
    <path d="M 89.175 424.609311 
L 536.4 424.609311 
" style="fill:none;stroke:#000000;stroke-linecap:square;stroke-linejoin:miter;stroke-width:0.8;"/>
   </g>
   <g id="patch_11">
    <path d="M 89.175 220.704655 
L 536.4 220.704655 
" style="fill:none;stroke:#000000;stroke-linecap:square;stroke-linejoin:miter;stroke-width:0.8;"/>
   </g>
   <g id="LineCollection_2">
    <path clip-path="url(#p13ca2a2081)" d="M 109.503409 251.445678 
L 109.503409 251.042445 
" style="fill:none;stroke:#000000;stroke-width:2;"/>
    <path clip-path="url(#p13ca2a2081)" d="M 146.464153 251.549886 
L 146.464153 251.044009 
" style="fill:none;stroke:#000000;stroke-width:2;"/>
    <path clip-path="url(#p13ca2a2081)" d="M 183.424897 259.903527 
L 183.424897 257.624734 
" style="fill:none;stroke:#000000;stroke-width:2;"/>
    <path clip-path="url(#p13ca2a2081)" d="M 220.38564 264.193097 
L 220.38564 260.840873 
" style="fill:none;stroke:#000000;stroke-width:2;"/>
    <path clip-path="url(#p13ca2a2081)" d="M 257.346384 272.237536 
L 257.346384 268.074054 
" style="fill:none;stroke:#000000;stroke-width:2;"/>
    <path clip-path="url(#p13ca2a2081)" d="M 294.307128 283.717131 
L 294.307128 280.504936 
" style="fill:none;stroke:#000000;stroke-width:2;"/>
    <path clip-path="url(#p13ca2a2081)" d="M 331.267872 311.664147 
L 331.267872 302.064778 
" style="fill:none;stroke:#000000;stroke-width:2;"/>
    <path clip-path="url(#p13ca2a2081)" d="M 368.228616 312.79121 
L 368.228616 299.810281 
" style="fill:none;stroke:#000000;stroke-width:2;"/>
    <path clip-path="url(#p13ca2a2081)" d="M 405.18936 311.981177 
L 405.18936 304.486062 
" style="fill:none;stroke:#000000;stroke-width:2;"/>
    <path clip-path="url(#p13ca2a2081)" d="M 442.150103 313.59887 
L 442.150103 305.839844 
" style="fill:none;stroke:#000000;stroke-width:2;"/>
    <path clip-path="url(#p13ca2a2081)" d="M 479.110847 319.891148 
L 479.110847 308.705621 
" style="fill:none;stroke:#000000;stroke-width:2;"/>
    <path clip-path="url(#p13ca2a2081)" d="M 516.071591 346.139842 
L 516.071591 330.853434 
" style="fill:none;stroke:#000000;stroke-width:2;"/>
   </g>
   <g id="PathCollection_2">
    <path clip-path="url(#p13ca2a2081)" d="M 104.759993 255.872873 
L 114.246826 246.38604 
M 104.759993 246.38604 
L 114.246826 255.872873 
" style="fill:#8b4820;stroke:#8b4820;stroke-width:2.5;"/>
    <path clip-path="url(#p13ca2a2081)" d="M 141.720736 255.894952 
L 151.207569 246.408119 
M 141.720736 246.408119 
L 151.207569 255.894952 
" style="fill:#8b4820;stroke:#8b4820;stroke-width:2.5;"/>
    <path clip-path="url(#p13ca2a2081)" d="M 178.68148 263.525315 
L 188.168313 254.038482 
M 178.68148 254.038482 
L 188.168313 263.525315 
" style="fill:#8b4820;stroke:#8b4820;stroke-width:2.5;"/>
    <path clip-path="url(#p13ca2a2081)" d="M 215.642224 267.281205 
L 225.129057 257.794372 
M 215.642224 257.794372 
L 225.129057 267.281205 
" style="fill:#8b4820;stroke:#8b4820;stroke-width:2.5;"/>
    <path clip-path="url(#p13ca2a2081)" d="M 252.602968 274.933733 
L 262.089801 265.4469 
M 252.602968 265.4469 
L 262.089801 274.933733 
" style="fill:#8b4820;stroke:#8b4820;stroke-width:2.5;"/>
    <path clip-path="url(#p13ca2a2081)" d="M 289.563712 286.858074 
L 299.050545 277.371241 
M 289.563712 277.371241 
L 299.050545 286.858074 
" style="fill:#8b4820;stroke:#8b4820;stroke-width:2.5;"/>
    <path clip-path="url(#p13ca2a2081)" d="M 326.524455 311.538884 
L 336.011288 302.052051 
M 326.524455 302.052051 
L 336.011288 311.538884 
" style="fill:#8f84ae;stroke:#8f84ae;stroke-width:2.5;"/>
    <path clip-path="url(#p13ca2a2081)" d="M 363.485199 311.005069 
L 372.972032 301.518236 
M 363.485199 301.518236 
L 372.972032 311.005069 
" style="fill:#8f84ae;stroke:#8f84ae;stroke-width:2.5;"/>
    <path clip-path="url(#p13ca2a2081)" d="M 400.445943 312.939823 
L 409.932776 303.45299 
M 400.445943 303.45299 
L 409.932776 312.939823 
" style="fill:#8f84ae;stroke:#8f84ae;stroke-width:2.5;"/>
    <path clip-path="url(#p13ca2a2081)" d="M 437.406687 314.454443 
L 446.89352 304.96761 
M 437.406687 304.96761 
L 446.89352 314.454443 
" style="fill:#8f84ae;stroke:#8f84ae;stroke-width:2.5;"/>
    <path clip-path="url(#p13ca2a2081)" d="M 474.367431 318.864564 
L 483.854264 309.377731 
M 474.367431 309.377731 
L 483.854264 318.864564 
" style="fill:#8f84ae;stroke:#8f84ae;stroke-width:2.5;"/>
    <path clip-path="url(#p13ca2a2081)" d="M 511.328174 342.754086 
L 520.815007 333.267253 
M 511.328174 333.267253 
L 520.815007 342.754086 
" style="fill:#579e7c;stroke:#579e7c;stroke-width:2.5;"/>
   </g>
  </g>
 </g>
 <defs>
  <clipPath id="p683f9a73ac">
   <rect height="203.904655" width="447.225" x="89.175" y="16.8"/>
  </clipPath>
  <clipPath id="p13ca2a2081">
   <rect height="203.904655" width="447.225" x="89.175" y="220.704655"/>
  </clipPath>
 </defs>
</svg>
