<?xml version="1.0" encoding="utf-8" standalone="no"?>
<!DOCTYPE svg PUBLIC "-//W3C//DTD SVG 1.1//EN"
  "http://www.w3.org/Graphics/SVG/1.1/DTD/svg11.dtd">
<!-- Created with matplotlib (https://matplotlib.org/) -->
<svg height="360pt" version="1.1" viewBox="0 0 360 360" width="360pt" xmlns="http://www.w3.org/2000/svg" xmlns:xlink="http://www.w3.org/1999/xlink">
 <metadata>
  <rdf:RDF xmlns:cc="http://creativecommons.org/ns#" xmlns:dc="http://purl.org/dc/elements/1.1/" xmlns:rdf="http://www.w3.org/1999/02/22-rdf-syntax-ns#">
   <cc:Work>
    <dc:type rdf:resource="http://purl.org/dc/dcmitype/StillImage"/>
    <dc:date>2022-02-13T15:11:43.080651</dc:date>
    <dc:format>image/svg+xml</dc:format>
    <dc:creator>
     <cc:Agent>
      <dc:title>Matplotlib v3.3.4, https://matplotlib.org/</dc:title>
     </cc:Agent>
    </dc:creator>
   </cc:Work>
  </rdf:RDF>
 </metadata>
 <defs>
  <style type="text/css">*{stroke-linecap:butt;stroke-linejoin:round;}</style>
 </defs>
 <g id="figure_1">
  <g id="patch_1">
   <path d="M 0 360 
L 360 360 
L 360 0 
L 0 0 
z
" style="fill:none;"/>
  </g>
  <g id="axes_1">
   <g id="patch_2">
    <path d="M 52.675 296.649 
L 349.2 296.649 
L 349.2 16.8 
L 52.675 16.8 
z
" style="fill:#ffffff;"/>
   </g>
   <g id="PolyCollection_1">
    <path clip-path="url(#p811487c6aa)" d="M -37.153023 274.576153 
L -37.153023 274.831554 
L -35.356463 274.817956 
L -33.559903 274.803727 
L -31.763342 274.788837 
L -29.966782 274.773257 
L -28.170221 274.756955 
L -26.373661 274.739898 
L -24.5771 274.722052 
L -22.78054 274.703381 
L -20.983979 274.683848 
L -19.187419 274.663414 
L -17.390858 274.642038 
L -15.594298 274.619678 
L -13.797737 274.596289 
L -12.001177 274.571827 
L -10.204616 274.546241 
L -8.408056 274.519483 
L -6.611496 274.491501 
L -4.814935 274.46224 
L -3.018375 274.431643 
L -1.221814 274.399652 
L 0.574746 274.366206 
L 2.371307 274.331241 
L 4.167867 274.294691 
L 5.964428 274.256487 
L 7.760988 274.216556 
L 9.557549 274.174893 
L 11.354109 274.131395 
L 13.15067 274.085955 
L 14.94723 274.038491 
L 16.743791 273.988918 
L 18.540351 273.937149 
L 20.336912 273.883093 
L 22.133472 273.826657 
L 23.930032 273.767743 
L 25.726593 273.706252 
L 27.523153 273.64208 
L 29.319714 273.57512 
L 31.116274 273.505263 
L 32.912835 273.432395 
L 34.709395 273.356401 
L 36.505956 273.277159 
L 38.302516 273.194546 
L 40.099077 273.108438 
L 41.895637 273.018703 
L 43.692198 272.92521 
L 45.488758 272.827822 
L 47.285319 272.7264 
L 49.081879 272.620805 
L 50.87844 272.51089 
L 52.675 272.39651 
L 54.47156 272.277516 
L 56.268121 272.153756 
L 58.064681 272.025078 
L 59.861242 271.891327 
L 61.657802 271.752348 
L 63.454363 271.607984 
L 65.250923 271.458079 
L 67.047484 271.302474 
L 68.844044 271.141014 
L 70.640605 270.973542 
L 72.437165 270.799904 
L 74.233726 270.619948 
L 76.030286 270.433524 
L 77.826847 270.240484 
L 79.623407 270.040687 
L 81.419968 269.833994 
L 83.216528 269.619756 
L 85.013088 269.395261 
L 86.809649 269.162609 
L 88.606209 268.92207 
L 90.40277 268.673504 
L 92.19933 268.41678 
L 93.995891 268.151775 
L 95.792451 267.878376 
L 97.589012 267.596482 
L 99.385572 267.30593 
L 101.182133 267.006615 
L 102.978693 266.698559 
L 104.775254 266.381715 
L 106.571814 266.056051 
L 108.368375 265.721555 
L 110.164935 265.378232 
L 111.961496 265.026104 
L 113.758056 264.665217 
L 115.554616 264.295638 
L 117.351177 263.917453 
L 119.147737 263.530774 
L 120.944298 263.135736 
L 122.740858 262.732496 
L 124.537419 262.321237 
L 126.333979 261.902166 
L 128.13054 261.475516 
L 129.9271 261.041544 
L 131.723661 260.601588 
L 133.520221 260.155406 
L 135.316782 259.702929 
L 137.113342 259.248297 
L 138.909903 258.791852 
L 140.706463 258.330752 
L 142.503023 257.865118 
L 144.299584 257.394678 
L 146.096144 256.920828 
L 147.892705 256.444037 
L 149.689265 255.96479 
L 151.485826 255.506655 
L 153.282386 255.068542 
L 155.078947 254.631471 
L 156.875507 254.195898 
L 158.672068 253.762273 
L 160.468628 253.302856 
L 162.265189 252.828768 
L 164.061749 252.353022 
L 165.85831 251.877598 
L 167.65487 251.373932 
L 169.451431 250.871824 
L 171.247991 250.459475 
L 173.044551 250.01737 
L 174.841112 249.564761 
L 176.637672 249.131507 
L 178.434233 248.767137 
L 180.230793 248.355237 
L 182.027354 247.958798 
L 183.823914 247.537218 
L 185.620475 247.120836 
L 187.417035 246.721903 
L 189.213596 246.356384 
L 191.010156 245.998418 
L 192.806717 245.611306 
L 194.603277 245.226776 
L 196.399838 244.900764 
L 198.196398 244.590907 
L 199.992959 244.234854 
L 201.789519 243.935847 
L 203.586079 243.695062 
L 205.38264 243.3889 
L 207.1792 243.126447 
L 208.975761 242.847554 
L 210.772321 242.549811 
L 212.568882 242.298165 
L 214.365442 242.096401 
L 216.162003 241.853029 
L 217.958563 241.627484 
L 219.755124 241.414259 
L 221.551684 241.27094 
L 223.348245 241.09458 
L 225.144805 240.916693 
L 226.941366 240.729753 
L 228.737926 240.563447 
L 230.534487 240.43033 
L 232.331047 240.289704 
L 234.127607 240.161631 
L 235.924168 240.040948 
L 237.720728 239.901651 
L 239.517289 239.771012 
L 241.313849 239.651163 
L 243.11041 239.535944 
L 244.90697 239.437809 
L 246.703531 239.358888 
L 248.500091 239.281835 
L 250.296652 239.207934 
L 252.093212 239.138158 
L 253.889773 239.07292 
L 255.686333 238.999928 
L 257.482894 238.903567 
L 259.279454 238.819159 
L 261.076015 238.76076 
L 262.872575 238.663417 
L 264.669135 238.568589 
L 266.465696 238.477569 
L 268.262256 238.392093 
L 270.058817 238.318288 
L 271.855377 238.247526 
L 273.651938 238.201023 
L 275.448498 238.146656 
L 277.245059 238.081731 
L 279.041619 238.019511 
L 280.83818 237.968419 
L 282.63474 237.941331 
L 284.431301 237.915423 
L 286.227861 237.870031 
L 288.024422 237.818057 
L 289.820982 237.768285 
L 291.617542 237.72118 
L 293.414103 237.698753 
L 295.210663 237.677309 
L 297.007224 237.656808 
L 298.803784 237.637208 
L 300.600345 237.618472 
L 302.396905 237.600561 
L 304.193466 237.58344 
L 305.990026 237.567075 
L 307.786587 237.551434 
L 309.583147 237.536484 
L 311.379708 237.522196 
L 313.176268 237.508541 
L 314.972829 237.495491 
L 316.769389 237.48302 
L 318.56595 237.471103 
L 320.36251 237.459715 
L 322.15907 237.448833 
L 323.955631 237.438435 
L 325.752191 237.428115 
L 327.548752 237.418133 
L 329.345312 237.408595 
L 331.141873 237.399482 
L 332.938433 237.390775 
L 334.734994 237.382456 
L 336.531554 237.374507 
L 338.328115 237.366914 
L 340.124675 237.359659 
L 341.921236 237.352727 
L 343.717796 237.346106 
L 345.514357 237.33978 
L 347.310917 237.333737 
L 349.107478 237.327963 
L 350.904038 237.322448 
L 352.700598 237.31718 
L 354.497159 237.312147 
L 356.293719 237.30734 
L 358.09028 237.302748 
L 359.88684 237.298361 
L 361.683401 237.294171 
L 363.479961 237.290169 
L 365.276522 237.286345 
L 367.073082 237.282694 
L 368.869643 237.279205 
L 370.666203 237.275874 
L 372.462764 237.272691 
L 374.259324 237.269652 
L 376.055885 237.266748 
L 377.852445 237.263975 
L 379.649006 237.261326 
L 381.445566 237.258797 
L 383.242126 237.25638 
L 385.038687 237.254072 
L 386.835247 237.250698 
L 388.631808 237.246976 
L 390.428368 237.243422 
L 392.224929 237.240027 
L 394.021489 237.236784 
L 395.81805 237.233686 
L 397.61461 237.230728 
L 399.411171 237.227902 
L 401.207731 237.225203 
L 403.004292 237.222625 
L 404.800852 237.220163 
L 406.597413 237.217811 
L 408.393973 237.215565 
L 410.190534 237.21342 
L 411.987094 237.211371 
L 413.783654 237.209414 
L 415.580215 237.207545 
L 417.376775 237.20576 
L 419.173336 237.204055 
L 420.969896 237.202426 
L 422.766457 237.200871 
L 424.563017 237.199386 
L 426.359578 237.197967 
L 428.156138 237.196612 
L 429.952699 237.195318 
L 431.749259 237.194083 
L 433.54582 237.192902 
L 435.34238 237.191775 
L 437.138941 237.190699 
L 438.935501 237.18967 
L 440.732061 237.188689 
L 442.528622 237.187751 
L 444.325182 237.186855 
L 446.121743 237.186 
L 447.918303 237.185183 
L 449.714864 237.184403 
L 451.511424 237.183658 
L 453.307985 237.182946 
L 455.104545 237.182267 
L 456.901106 237.181618 
L 458.697666 237.180998 
L 460.494227 237.180406 
L 462.290787 237.179841 
L 464.087348 237.179301 
L 465.883908 237.178785 
L 467.680469 237.178293 
L 469.477029 237.177822 
L 471.273589 237.177373 
L 473.07015 237.176944 
L 474.86671 237.176535 
L 476.663271 237.176144 
L 478.459831 237.17577 
L 480.256392 237.175413 
L 482.052952 237.175073 
L 483.849513 237.174747 
L 485.646073 237.174437 
L 487.442634 237.17414 
L 489.239194 237.173856 
L 491.035755 237.173586 
L 492.832315 237.173327 
L 494.628876 237.17308 
L 496.425436 237.172845 
L 498.221997 237.172619 
L 500.018557 237.172404 
L 501.815117 237.172199 
L 501.815117 232.461193 
L 501.815117 232.461193 
L 500.018557 232.46146 
L 498.221997 232.461739 
L 496.425436 232.462032 
L 494.628876 232.462339 
L 492.832315 232.46266 
L 491.035755 232.462996 
L 489.239194 232.463348 
L 487.442634 232.463717 
L 485.646073 232.464103 
L 483.849513 232.464507 
L 482.052952 232.46493 
L 480.256392 232.465374 
L 478.459831 232.465838 
L 476.663271 232.466323 
L 474.86671 232.466832 
L 473.07015 232.467365 
L 471.273589 232.467923 
L 469.477029 232.468507 
L 467.680469 232.469119 
L 465.883908 232.469759 
L 464.087348 232.47043 
L 462.290787 232.471132 
L 460.494227 232.471867 
L 458.697666 232.472637 
L 456.901106 232.473443 
L 455.104545 232.474287 
L 453.307985 232.475171 
L 451.511424 232.476096 
L 449.714864 232.477065 
L 447.918303 232.47808 
L 446.121743 232.479142 
L 444.325182 232.480255 
L 442.528622 232.48142 
L 440.732061 232.482639 
L 438.935501 232.483916 
L 437.138941 232.485253 
L 435.34238 232.486653 
L 433.54582 232.488119 
L 431.749259 232.489654 
L 429.952699 232.491261 
L 428.156138 232.492944 
L 426.359578 232.494706 
L 424.563017 232.496551 
L 422.766457 232.498482 
L 420.969896 232.500505 
L 419.173336 232.502622 
L 417.376775 232.504839 
L 415.580215 232.507161 
L 413.783654 232.509591 
L 411.987094 232.512136 
L 410.190534 232.514804 
L 408.393973 232.517614 
L 406.597413 232.520555 
L 404.800852 232.523634 
L 403.004292 232.526858 
L 401.207731 232.530234 
L 399.411171 232.533768 
L 397.61461 232.537468 
L 395.81805 232.541342 
L 394.021489 232.545397 
L 392.224929 232.549643 
L 390.428368 232.554088 
L 388.631808 232.558741 
L 386.835247 232.563613 
L 385.038687 232.568713 
L 383.242126 232.574052 
L 381.445566 232.579641 
L 379.649006 232.585492 
L 377.852445 232.591618 
L 376.055885 232.59803 
L 374.259324 232.604742 
L 372.462764 232.611768 
L 370.666203 232.619122 
L 368.869643 232.626821 
L 367.073082 232.63488 
L 365.276522 232.643315 
L 363.479961 232.652143 
L 361.683401 232.661384 
L 359.88684 232.671057 
L 358.09028 232.68118 
L 356.293719 232.691775 
L 354.497159 232.702864 
L 352.700598 232.71447 
L 350.904038 232.726615 
L 349.107478 232.739325 
L 347.310917 232.752627 
L 345.514357 232.767119 
L 343.717796 232.783948 
L 341.921236 232.801555 
L 340.124675 232.819977 
L 338.328115 232.83925 
L 336.531554 232.859413 
L 334.734994 232.880505 
L 332.938433 232.902568 
L 331.141873 232.925011 
L 329.345312 232.941706 
L 327.548752 232.959173 
L 325.752191 232.977448 
L 323.955631 232.996568 
L 322.15907 233.016569 
L 320.36251 233.041974 
L 318.56595 233.068846 
L 316.769389 233.096948 
L 314.972829 233.126333 
L 313.176268 233.157421 
L 311.379708 233.189931 
L 309.583147 233.223919 
L 307.786587 233.259105 
L 305.990026 233.293423 
L 304.193466 233.329297 
L 302.396905 233.366797 
L 300.600345 233.405753 
L 298.803784 233.446046 
L 297.007224 233.488155 
L 295.210663 233.532157 
L 293.414103 233.578133 
L 291.617542 233.626166 
L 289.820982 233.676345 
L 288.024422 233.728757 
L 286.227861 233.783498 
L 284.431301 233.840664 
L 282.63474 233.900354 
L 280.83818 233.962672 
L 279.041619 234.02533 
L 277.245059 234.082867 
L 275.448498 234.143373 
L 273.651938 234.206995 
L 271.855377 234.273403 
L 270.058817 234.34271 
L 268.262256 234.415031 
L 266.465696 234.490486 
L 264.669135 234.569196 
L 262.872575 234.651791 
L 261.076015 234.767165 
L 259.279454 234.888565 
L 257.482894 235.010522 
L 255.686333 235.114798 
L 253.889773 235.213981 
L 252.093212 235.333606 
L 250.296652 235.465045 
L 248.500091 235.60175 
L 246.703531 235.74389 
L 244.90697 235.891635 
L 243.11041 236.019922 
L 241.313849 236.142372 
L 239.517289 236.326643 
L 237.720728 236.505454 
L 235.924168 236.624833 
L 234.127607 236.743619 
L 232.331047 236.868213 
L 230.534487 237.006177 
L 228.737926 237.182166 
L 226.941366 237.365408 
L 225.144805 237.561227 
L 223.348245 237.759992 
L 221.551684 237.949846 
L 219.755124 238.133281 
L 217.958563 238.327349 
L 216.162003 238.524316 
L 214.365442 238.722868 
L 212.568882 238.903263 
L 210.772321 239.151848 
L 208.975761 239.387375 
L 207.1792 239.648613 
L 205.38264 239.876487 
L 203.586079 240.162674 
L 201.789519 240.457321 
L 199.992959 240.699241 
L 198.196398 240.948968 
L 196.399838 241.202942 
L 194.603277 241.494143 
L 192.806717 241.794079 
L 191.010156 242.097075 
L 189.213596 242.36336 
L 187.417035 242.72131 
L 185.620475 243.046683 
L 183.823914 243.36306 
L 182.027354 243.744671 
L 180.230793 244.081936 
L 178.434233 244.445646 
L 176.637672 244.810006 
L 174.841112 245.176431 
L 173.044551 245.551615 
L 171.247991 245.885327 
L 169.451431 246.201256 
L 167.65487 246.524854 
L 165.85831 246.856014 
L 164.061749 247.236107 
L 162.265189 247.649657 
L 160.468628 248.031336 
L 158.672068 248.448306 
L 156.875507 248.871372 
L 155.078947 249.300211 
L 153.282386 249.734481 
L 151.485826 250.173816 
L 149.689265 250.617833 
L 147.892705 251.066491 
L 146.096144 251.521559 
L 144.299584 251.979979 
L 142.503023 252.436239 
L 140.706463 252.845463 
L 138.909903 253.25843 
L 137.113342 253.674751 
L 135.316782 254.09402 
L 133.520221 254.515821 
L 131.723661 254.939727 
L 129.9271 255.365301 
L 128.13054 255.793215 
L 126.333979 256.260945 
L 124.537419 256.727045 
L 122.740858 257.191035 
L 120.944298 257.652441 
L 119.147737 258.1108 
L 117.351177 258.565791 
L 115.554616 259.018448 
L 113.758056 259.466647 
L 111.961496 259.909986 
L 110.164935 260.348082 
L 108.368375 260.763565 
L 106.571814 261.170664 
L 104.775254 261.572918 
L 102.978693 261.969995 
L 101.182133 262.361582 
L 99.385572 262.747385 
L 97.589012 263.127132 
L 95.792451 263.500572 
L 93.995891 263.867474 
L 92.19933 264.227632 
L 90.40277 264.580857 
L 88.606209 264.926984 
L 86.809649 265.273909 
L 85.013088 265.614293 
L 83.216528 265.946381 
L 81.419968 266.270132 
L 79.623407 266.585526 
L 77.826847 266.892562 
L 76.030286 267.191254 
L 74.233726 267.481634 
L 72.437165 267.761065 
L 70.640605 268.02857 
L 68.844044 268.288606 
L 67.047484 268.54122 
L 65.250923 268.786467 
L 63.454363 269.024417 
L 61.657802 269.255149 
L 59.861242 269.478753 
L 58.064681 269.695329 
L 56.268121 269.904983 
L 54.47156 270.107831 
L 52.675 270.303994 
L 50.87844 270.493599 
L 49.081879 270.676778 
L 47.285319 270.853669 
L 45.488758 271.024411 
L 43.692198 271.189148 
L 41.895637 271.348026 
L 40.099077 271.501193 
L 38.302516 271.648796 
L 36.505956 271.790986 
L 34.709395 271.927912 
L 32.912835 272.059725 
L 31.116274 272.186573 
L 29.319714 272.308604 
L 27.523153 272.425966 
L 25.726593 272.538804 
L 23.930032 272.647262 
L 22.133472 272.751482 
L 20.336912 272.851604 
L 18.540351 272.947786 
L 16.743791 273.040138 
L 14.94723 273.128793 
L 13.15067 273.213879 
L 11.354109 273.295522 
L 9.557549 273.373847 
L 7.760988 273.448973 
L 5.964428 273.521018 
L 4.167867 273.590095 
L 2.371307 273.656315 
L 0.574746 273.719787 
L -1.221814 273.780614 
L -3.018375 273.838897 
L -4.814935 273.894736 
L -6.611496 273.948225 
L -8.408056 273.999456 
L -10.204616 274.048519 
L -12.001177 274.095499 
L -13.797737 274.140479 
L -15.594298 274.18354 
L -17.390858 274.224759 
L -19.187419 274.264212 
L -20.983979 274.301969 
L -22.78054 274.3381 
L -24.5771 274.372673 
L -26.373661 274.405752 
L -28.170221 274.437398 
L -29.966782 274.467672 
L -31.763342 274.49663 
L -33.559903 274.524328 
L -35.356463 274.550819 
L -37.153023 274.576153 
z
" style="fill:#579e7c;fill-opacity:0.9;stroke:#579e7c;stroke-opacity:0.9;"/>
   </g>
   <g id="PolyCollection_2">
    <path clip-path="url(#p811487c6aa)" d="M -37.153023 274.923097 
L -37.153023 274.962902 
L -35.356463 274.955401 
L -33.559903 274.947547 
L -31.763342 274.939323 
L -29.966782 274.930712 
L -28.170221 274.921696 
L -26.373661 274.912256 
L -24.5771 274.902372 
L -22.78054 274.892022 
L -20.983979 274.881186 
L -19.187419 274.869839 
L -17.390858 274.857959 
L -15.594298 274.845521 
L -13.797737 274.832497 
L -12.001177 274.81886 
L -10.204616 274.804582 
L -8.408056 274.789633 
L -6.611496 274.773982 
L -4.814935 274.757594 
L -3.018375 274.740436 
L -1.221814 274.722472 
L 0.574746 274.703663 
L 2.371307 274.683971 
L 4.167867 274.663354 
L 5.964428 274.641768 
L 7.760988 274.619169 
L 9.557549 274.595508 
L 11.354109 274.570737 
L 13.15067 274.544803 
L 14.94723 274.517651 
L 16.743791 274.489226 
L 18.540351 274.459467 
L 20.336912 274.428313 
L 22.133472 274.395697 
L 23.930032 274.361553 
L 25.726593 274.325808 
L 27.523153 274.288389 
L 29.319714 274.249216 
L 31.116274 274.20821 
L 32.912835 274.165283 
L 34.709395 274.120348 
L 36.505956 274.07331 
L 38.302516 274.024072 
L 40.099077 273.972532 
L 41.895637 273.918584 
L 43.692198 273.862115 
L 45.488758 273.803009 
L 47.285319 273.741145 
L 49.081879 273.676394 
L 50.87844 273.608623 
L 52.675 273.537694 
L 54.47156 273.463461 
L 56.268121 273.385771 
L 58.064681 273.304466 
L 59.861242 273.21938 
L 61.657802 273.130339 
L 63.454363 273.037162 
L 65.250923 272.939661 
L 67.047484 272.837638 
L 68.844044 272.730886 
L 70.640605 272.619191 
L 72.437165 272.502327 
L 74.233726 272.38006 
L 76.030286 272.252146 
L 77.826847 272.118329 
L 79.623407 271.978344 
L 81.419968 271.831911 
L 83.216528 271.678743 
L 85.013088 271.518536 
L 86.809649 271.350977 
L 88.606209 271.175737 
L 90.40277 270.992476 
L 92.19933 270.800836 
L 93.995891 270.600448 
L 95.792451 270.390927 
L 97.589012 270.17187 
L 99.385572 269.94286 
L 101.182133 269.703464 
L 102.978693 269.453229 
L 104.775254 269.191687 
L 106.571814 268.918349 
L 108.368375 268.632709 
L 110.164935 268.334242 
L 111.961496 268.022402 
L 113.758056 267.696622 
L 115.554616 267.356317 
L 117.351177 267.000878 
L 119.147737 266.629675 
L 120.944298 266.242056 
L 122.740858 265.837346 
L 124.537419 265.414849 
L 126.333979 264.973842 
L 128.13054 264.513581 
L 129.9271 264.033299 
L 131.723661 263.532126 
L 133.520221 263.009293 
L 135.316782 262.463976 
L 137.113342 261.895307 
L 138.909903 261.302397 
L 140.706463 260.684333 
L 142.503023 260.040176 
L 144.299584 259.368966 
L 146.096144 258.669719 
L 147.892705 257.941431 
L 149.689265 257.183074 
L 151.485826 256.393603 
L 153.282386 255.571952 
L 155.078947 254.717039 
L 156.875507 253.827764 
L 158.672068 252.903014 
L 160.468628 251.941663 
L 162.265189 250.942576 
L 164.061749 249.904609 
L 165.85831 248.823284 
L 167.65487 247.699684 
L 169.451431 246.533216 
L 171.247991 245.322688 
L 173.044551 244.066914 
L 174.841112 242.773211 
L 176.637672 241.433293 
L 178.434233 240.045795 
L 180.230793 238.609686 
L 182.027354 237.123969 
L 183.823914 235.587689 
L 185.620475 233.999931 
L 187.417035 232.359834 
L 189.213596 230.666448 
L 191.010156 228.914351 
L 192.806717 227.101917 
L 194.603277 225.230376 
L 196.399838 223.301622 
L 198.196398 221.315129 
L 199.992959 219.270468 
L 201.789519 217.18871 
L 203.586079 215.062024 
L 205.38264 212.870337 
L 207.1792 210.608284 
L 208.975761 208.303367 
L 210.772321 205.98017 
L 212.568882 203.602921 
L 214.365442 201.131056 
L 216.162003 198.605135 
L 217.958563 196.026481 
L 219.755124 193.396244 
L 221.551684 190.715732 
L 223.348245 187.985517 
L 225.144805 185.206081 
L 226.941366 182.389782 
L 228.737926 179.566825 
L 230.534487 176.661672 
L 232.331047 173.715003 
L 234.127607 170.773101 
L 235.924168 167.806001 
L 237.720728 164.848291 
L 239.517289 161.863651 
L 241.313849 158.855011 
L 243.11041 155.828681 
L 244.90697 152.783806 
L 246.703531 149.650248 
L 248.500091 146.455341 
L 250.296652 143.554708 
L 252.093212 140.447102 
L 253.889773 137.255881 
L 255.686333 134.060978 
L 257.482894 130.871253 
L 259.279454 127.771334 
L 261.076015 124.804666 
L 262.872575 121.714561 
L 264.669135 118.659082 
L 266.465696 115.665428 
L 268.262256 112.529088 
L 270.058817 109.68706 
L 271.855377 106.850405 
L 273.651938 104.244726 
L 275.448498 101.649966 
L 277.245059 99.127763 
L 279.041619 96.583309 
L 280.83818 94.097561 
L 282.63474 91.416532 
L 284.431301 88.805898 
L 286.227861 86.466223 
L 288.024422 84.145307 
L 289.820982 81.983763 
L 291.617542 79.791743 
L 293.414103 77.671367 
L 295.210663 75.598537 
L 297.007224 73.584703 
L 298.803784 71.619479 
L 300.600345 69.577884 
L 302.396905 67.664544 
L 304.193466 65.877952 
L 305.990026 64.142806 
L 307.786587 62.458677 
L 309.583147 60.825054 
L 311.379708 59.238003 
L 313.176268 57.698638 
L 314.972829 56.226094 
L 316.769389 54.864936 
L 318.56595 53.568432 
L 320.36251 52.315951 
L 322.15907 51.10655 
L 323.955631 49.938899 
L 325.752191 48.72746 
L 327.548752 47.544734 
L 329.345312 46.403642 
L 331.141873 45.303171 
L 332.938433 44.254058 
L 334.734994 43.386082 
L 336.531554 42.551055 
L 338.328115 41.747971 
L 340.124675 40.975835 
L 341.921236 40.233666 
L 343.717796 39.520492 
L 345.514357 38.83536 
L 347.310917 38.111248 
L 349.107478 37.372736 
L 350.904038 36.663153 
L 352.700598 35.980223 
L 354.497159 35.324007 
L 356.293719 34.693955 
L 358.09028 34.089162 
L 359.88684 33.508741 
L 361.683401 32.951829 
L 363.479961 32.417579 
L 365.276522 31.905169 
L 367.073082 31.413798 
L 368.869643 30.942685 
L 370.666203 30.491072 
L 372.462764 30.058222 
L 374.259324 29.643422 
L 376.055885 29.245978 
L 377.852445 28.865218 
L 379.649006 28.500493 
L 381.445566 28.151174 
L 383.242126 27.816651 
L 385.038687 27.496337 
L 386.835247 27.189664 
L 388.631808 26.896084 
L 390.428368 26.615067 
L 392.224929 26.346103 
L 394.021489 26.088701 
L 395.81805 25.842386 
L 397.61461 25.606701 
L 399.411171 25.381208 
L 401.207731 25.165483 
L 403.004292 24.970104 
L 404.800852 24.78598 
L 406.597413 24.609889 
L 408.393973 24.441492 
L 410.190534 24.280463 
L 411.987094 24.126489 
L 413.783654 23.979267 
L 415.580215 23.83851 
L 417.376775 23.703941 
L 419.173336 23.575294 
L 420.969896 23.452315 
L 422.766457 23.334757 
L 424.563017 23.222389 
L 426.359578 23.114984 
L 428.156138 23.012327 
L 429.952699 22.914213 
L 431.749259 22.820443 
L 433.54582 22.730828 
L 435.34238 22.645187 
L 437.138941 22.563347 
L 438.935501 22.485029 
L 440.732061 22.409939 
L 442.528622 22.338186 
L 444.325182 22.269625 
L 446.121743 22.204115 
L 447.918303 22.141522 
L 449.714864 22.081717 
L 451.511424 22.024577 
L 453.307985 21.969985 
L 455.104545 21.917827 
L 456.901106 21.867997 
L 458.697666 21.820392 
L 460.494227 21.774912 
L 462.290787 21.731464 
L 464.087348 21.689958 
L 465.883908 21.650307 
L 467.680469 21.612429 
L 469.477029 21.576245 
L 471.273589 21.54168 
L 473.07015 21.508662 
L 474.86671 21.477122 
L 476.663271 21.446994 
L 478.459831 21.418216 
L 480.256392 21.390727 
L 482.052952 21.364469 
L 483.849513 21.339388 
L 485.646073 21.315431 
L 487.442634 21.292548 
L 489.239194 21.270691 
L 491.035755 21.249815 
L 492.832315 21.229875 
L 494.628876 21.210829 
L 496.425436 21.192638 
L 498.221997 21.175263 
L 500.018557 21.158668 
L 501.815117 21.142818 
L 501.815117 -8.747136 
L 501.815117 -8.747136 
L 500.018557 -8.724899 
L 498.221997 -8.701618 
L 496.425436 -8.677243 
L 494.628876 -8.651724 
L 492.832315 -8.625008 
L 491.035755 -8.597037 
L 489.239194 -8.567755 
L 487.442634 -8.537099 
L 485.646073 -8.505005 
L 483.849513 -8.471406 
L 482.052952 -8.436233 
L 480.256392 -8.399411 
L 478.459831 -8.360864 
L 476.663271 -8.320512 
L 474.86671 -8.27827 
L 473.07015 -8.234051 
L 471.273589 -8.187763 
L 469.477029 -8.139309 
L 467.680469 -8.08859 
L 465.883908 -8.035499 
L 464.087348 -7.979928 
L 462.290787 -7.921762 
L 460.494227 -7.86088 
L 458.697666 -7.797156 
L 456.901106 -7.73046 
L 455.104545 -7.660655 
L 453.307985 -7.587596 
L 451.511424 -7.511135 
L 449.714864 -7.431115 
L 447.918303 -7.347372 
L 446.121743 -7.259736 
L 444.325182 -7.168027 
L 442.528622 -7.072061 
L 440.732061 -6.971641 
L 438.935501 -6.866566 
L 437.138941 -6.756622 
L 435.34238 -6.641588 
L 433.54582 -6.521234 
L 431.749259 -6.395318 
L 429.952699 -6.263589 
L 428.156138 -6.125783 
L 426.359578 -5.981627 
L 424.563017 -5.830835 
L 422.766457 -5.673111 
L 420.969896 -5.508142 
L 419.173336 -5.335607 
L 417.376775 -5.155168 
L 415.580215 -4.96531 
L 413.783654 -4.766277 
L 411.987094 -4.558167 
L 410.190534 -4.340582 
L 408.393973 -4.113104 
L 406.597413 -3.875303 
L 404.800852 -3.626729 
L 403.004292 -3.366915 
L 401.207731 -3.095375 
L 399.411171 -2.811606 
L 397.61461 -2.515083 
L 395.81805 -2.205264 
L 394.021489 -1.881584 
L 392.224929 -1.543459 
L 390.428368 -1.190283 
L 388.631808 -0.821429 
L 386.835247 -0.436246 
L 385.038687 -0.034062 
L 383.242126 0.385818 
L 381.445566 0.824115 
L 379.649006 1.28157 
L 377.852445 1.75895 
L 376.055885 2.257046 
L 374.259324 2.776673 
L 372.462764 3.31867 
L 370.666203 3.883901 
L 368.869643 4.473254 
L 367.073082 5.087642 
L 365.276522 5.727999 
L 363.479961 6.395285 
L 361.683401 7.093932 
L 359.88684 7.907435 
L 358.09028 8.753997 
L 356.293719 9.634723 
L 354.497159 10.550731 
L 352.700598 11.425646 
L 350.904038 12.187532 
L 349.107478 12.980964 
L 347.310917 13.924533 
L 345.514357 15.016896 
L 343.717796 16.154315 
L 341.921236 17.327289 
L 340.124675 18.448677 
L 338.328115 19.585611 
L 336.531554 20.746178 
L 334.734994 21.897114 
L 332.938433 23.000626 
L 331.141873 24.145869 
L 329.345312 25.477494 
L 327.548752 26.89914 
L 325.752191 28.378353 
L 323.955631 29.908496 
L 322.15907 31.546235 
L 320.36251 33.2725 
L 318.56595 34.970722 
L 316.769389 36.816487 
L 314.972829 38.641908 
L 313.176268 40.390177 
L 311.379708 42.188248 
L 309.583147 44.048688 
L 307.786587 46.05886 
L 305.990026 48.138798 
L 304.193466 50.269883 
L 302.396905 52.289572 
L 300.600345 54.39573 
L 298.803784 56.647041 
L 297.007224 58.962659 
L 295.210663 61.342036 
L 293.414103 63.669976 
L 291.617542 66.277532 
L 289.820982 68.751098 
L 288.024422 71.271444 
L 286.227861 73.839026 
L 284.431301 76.459183 
L 282.63474 79.098943 
L 280.83818 81.534998 
L 279.041619 84.113209 
L 277.245059 86.931858 
L 275.448498 89.805808 
L 273.651938 92.464487 
L 271.855377 95.251064 
L 270.058817 98.208511 
L 268.262256 101.242722 
L 266.465696 104.286495 
L 264.669135 107.354574 
L 262.872575 110.426439 
L 261.076015 113.374686 
L 259.279454 116.325405 
L 257.482894 119.304337 
L 255.686333 122.310162 
L 253.889773 125.327865 
L 252.093212 128.344077 
L 250.296652 131.388702 
L 248.500091 134.503811 
L 246.703531 137.575157 
L 244.90697 140.652855 
L 243.11041 143.731617 
L 241.313849 146.80791 
L 239.517289 149.878483 
L 237.720728 152.940108 
L 235.924168 155.945455 
L 234.127607 158.911699 
L 232.331047 161.863498 
L 230.534487 164.797854 
L 228.737926 167.712541 
L 226.941366 170.693073 
L 225.144805 173.659631 
L 223.348245 176.475831 
L 221.551684 179.261447 
L 219.755124 182.021765 
L 217.958563 184.782379 
L 216.162003 187.502907 
L 214.365442 190.17013 
L 212.568882 192.783824 
L 210.772321 195.353699 
L 208.975761 197.878195 
L 207.1792 200.355896 
L 205.38264 202.785539 
L 203.586079 205.166253 
L 201.789519 207.497081 
L 199.992959 209.776898 
L 198.196398 212.005023 
L 196.399838 214.180912 
L 194.603277 216.272004 
L 192.806717 218.310902 
L 191.010156 220.299768 
L 189.213596 222.23962 
L 187.417035 224.163322 
L 185.620475 226.047052 
L 183.823914 227.876449 
L 182.027354 229.65137 
L 180.230793 231.372414 
L 178.434233 233.035905 
L 176.637672 234.6364 
L 174.841112 236.18685 
L 173.044551 237.687998 
L 171.247991 239.140641 
L 169.451431 240.545628 
L 167.65487 241.903849 
L 165.85831 243.21623 
L 164.061749 244.483733 
L 162.265189 245.707345 
L 160.468628 246.888075 
L 158.672068 248.030933 
L 156.875507 249.134756 
L 155.078947 250.198137 
L 153.282386 251.222192 
L 151.485826 252.208036 
L 149.689265 253.152986 
L 147.892705 254.058367 
L 146.096144 254.929744 
L 144.299584 255.76823 
L 142.503023 256.574834 
L 140.706463 257.353655 
L 138.909903 258.10458 
L 137.113342 258.82575 
L 135.316782 259.518188 
L 133.520221 260.18296 
L 131.723661 260.820944 
L 129.9271 261.433092 
L 128.13054 262.020332 
L 126.333979 262.583568 
L 124.537419 263.123681 
L 122.740858 263.641539 
L 120.944298 264.138026 
L 119.147737 264.61388 
L 117.351177 265.069888 
L 115.554616 265.506812 
L 113.758056 265.925238 
L 111.961496 266.324934 
L 110.164935 266.707851 
L 108.368375 267.074644 
L 106.571814 267.425946 
L 104.775254 267.762367 
L 102.978693 268.0845 
L 101.182133 268.392915 
L 99.385572 268.688163 
L 97.589012 268.970778 
L 95.792451 269.241271 
L 93.995891 269.500138 
L 92.19933 269.747854 
L 90.40277 269.984881 
L 88.606209 270.211658 
L 86.809649 270.428612 
L 85.013088 270.636152 
L 83.216528 270.834671 
L 81.419968 271.024549 
L 79.623407 271.206149 
L 77.826847 271.37982 
L 76.030286 271.545898 
L 74.233726 271.704706 
L 72.437165 271.856553 
L 70.640605 272.001736 
L 68.844044 272.140541 
L 67.047484 272.273242 
L 65.250923 272.400099 
L 63.454363 272.521367 
L 61.657802 272.637284 
L 59.861242 272.748084 
L 58.064681 272.853987 
L 56.268121 272.955207 
L 54.47156 273.051946 
L 52.675 273.144401 
L 50.87844 273.23276 
L 49.081879 273.317244 
L 47.285319 273.397974 
L 45.488758 273.475114 
L 43.692198 273.548823 
L 41.895637 273.619251 
L 40.099077 273.686543 
L 38.302516 273.750837 
L 36.505956 273.812265 
L 34.709395 273.870954 
L 32.912835 273.927025 
L 31.116274 273.980593 
L 29.319714 274.03177 
L 27.523153 274.080661 
L 25.726593 274.127368 
L 23.930032 274.171988 
L 22.133472 274.214612 
L 20.336912 274.255331 
L 18.540351 274.294228 
L 16.743791 274.331385 
L 14.94723 274.366878 
L 13.15067 274.400783 
L 11.354109 274.433169 
L 9.557549 274.464105 
L 7.760988 274.493655 
L 5.964428 274.521881 
L 4.167867 274.548842 
L 2.371307 274.574594 
L 0.574746 274.599192 
L -1.221814 274.622687 
L -3.018375 274.645128 
L -4.814935 274.666563 
L -6.611496 274.687035 
L -8.408056 274.70659 
L -10.204616 274.725266 
L -12.001177 274.743105 
L -13.797737 274.760143 
L -15.594298 274.776416 
L -17.390858 274.791958 
L -19.187419 274.806802 
L -20.983979 274.82098 
L -22.78054 274.834521 
L -24.5771 274.847454 
L -26.373661 274.859806 
L -28.170221 274.871603 
L -29.966782 274.88287 
L -31.763342 274.89363 
L -33.559903 274.903907 
L -35.356463 274.913723 
L -37.153023 274.923097 
z
" style="fill:#8f84ae;fill-opacity:0.9;stroke:#8f84ae;stroke-opacity:0.9;"/>
   </g>
   <g id="PolyCollection_3">
    <path clip-path="url(#p811487c6aa)" d="M -37.153023 275.105965 
L -37.153023 275.107152 
L -35.356463 275.106445 
L -33.559903 275.105704 
L -31.763342 275.104929 
L -29.966782 275.104117 
L -28.170221 275.103267 
L -26.373661 275.102377 
L -24.5771 275.101445 
L -22.78054 275.100469 
L -20.983979 275.099447 
L -19.187419 275.098377 
L -17.390858 275.097257 
L -15.594298 275.096084 
L -13.797737 275.094855 
L -12.001177 275.093568 
L -10.204616 275.092221 
L -8.408056 275.090811 
L -6.611496 275.089334 
L -4.814935 275.087787 
L -3.018375 275.086167 
L -1.221814 275.084471 
L 0.574746 275.082696 
L 2.371307 275.080836 
L 4.167867 275.078889 
L 5.964428 275.07685 
L 7.760988 275.074715 
L 9.557549 275.07248 
L 11.354109 275.070139 
L 13.15067 275.067688 
L 14.94723 275.065121 
L 16.743791 275.062433 
L 18.540351 275.059619 
L 20.336912 275.056672 
L 22.133472 275.053586 
L 23.930032 275.050355 
L 25.726593 275.046972 
L 27.523153 275.043429 
L 29.319714 275.039719 
L 31.116274 275.035834 
L 32.912835 275.031767 
L 34.709395 275.027508 
L 36.505956 275.023048 
L 38.302516 275.018378 
L 40.099077 275.013487 
L 41.895637 275.008367 
L 43.692198 275.003005 
L 45.488758 274.997391 
L 47.285319 274.991512 
L 49.081879 274.985356 
L 50.87844 274.978911 
L 52.675 274.972161 
L 54.47156 274.965094 
L 56.268121 274.957693 
L 58.064681 274.949945 
L 59.861242 274.941831 
L 61.657802 274.933334 
L 63.454363 274.924438 
L 65.250923 274.915123 
L 67.047484 274.905369 
L 68.844044 274.895155 
L 70.640605 274.884461 
L 72.437165 274.873262 
L 74.233726 274.861537 
L 76.030286 274.849259 
L 77.826847 274.836403 
L 79.623407 274.822941 
L 81.419968 274.808846 
L 83.216528 274.794087 
L 85.013088 274.778633 
L 86.809649 274.762452 
L 88.606209 274.745508 
L 90.40277 274.727768 
L 92.19933 274.709191 
L 93.995891 274.689741 
L 95.792451 274.669375 
L 97.589012 274.64805 
L 99.385572 274.625722 
L 101.182133 274.602343 
L 102.978693 274.577863 
L 104.775254 274.552232 
L 106.571814 274.525395 
L 108.368375 274.497295 
L 110.164935 274.467873 
L 111.961496 274.437067 
L 113.758056 274.404813 
L 115.554616 274.371041 
L 117.351177 274.335681 
L 119.147737 274.298658 
L 120.944298 274.259895 
L 122.740858 274.219309 
L 124.537419 274.176816 
L 126.333979 274.132325 
L 128.13054 274.085743 
L 129.9271 274.036973 
L 131.723661 273.985911 
L 133.520221 273.93245 
L 135.316782 273.876479 
L 137.113342 273.817879 
L 138.909903 273.756528 
L 140.706463 273.692296 
L 142.503023 273.62505 
L 144.299584 273.554648 
L 146.096144 273.480944 
L 147.892705 273.403781 
L 149.689265 273.323001 
L 151.485826 273.238432 
L 153.282386 273.1499 
L 155.078947 273.057218 
L 156.875507 272.960195 
L 158.672068 272.858627 
L 160.468628 272.752304 
L 162.265189 272.641003 
L 164.061749 272.524495 
L 165.85831 272.402536 
L 167.65487 272.274874 
L 169.451431 272.141245 
L 171.247991 272.001371 
L 173.044551 271.854965 
L 174.841112 271.701723 
L 176.637672 271.541329 
L 178.434233 271.373454 
L 180.230793 271.197752 
L 182.027354 271.013862 
L 183.823914 270.821407 
L 185.620475 270.619994 
L 187.417035 270.409211 
L 189.213596 270.188628 
L 191.010156 269.957796 
L 192.806717 269.716245 
L 194.603277 269.463487 
L 196.399838 269.199009 
L 198.196398 268.922278 
L 199.992959 268.632736 
L 201.789519 268.329801 
L 203.586079 268.012867 
L 205.38264 267.681299 
L 207.1792 267.334438 
L 208.975761 266.971594 
L 210.772321 266.592047 
L 212.568882 266.19505 
L 214.365442 265.77982 
L 216.162003 265.345543 
L 217.958563 264.891371 
L 219.755124 264.416421 
L 221.551684 263.919425 
L 223.348245 263.399541 
L 225.144805 262.855922 
L 226.941366 262.287524 
L 228.737926 261.693256 
L 230.534487 261.071986 
L 232.331047 260.422536 
L 234.127607 259.74368 
L 235.924168 259.03409 
L 237.720728 258.29248 
L 239.517289 257.517483 
L 241.313849 256.707672 
L 243.11041 255.861565 
L 244.90697 254.977624 
L 246.703531 254.054257 
L 248.500091 253.08981 
L 250.296652 252.082573 
L 252.093212 251.030775 
L 253.889773 249.932582 
L 255.686333 248.786098 
L 257.482894 247.589365 
L 259.279454 246.34036 
L 261.076015 245.036993 
L 262.872575 243.677113 
L 264.669135 242.258498 
L 266.465696 240.778865 
L 268.262256 239.235862 
L 270.058817 237.627073 
L 271.855377 235.950016 
L 273.651938 234.202145 
L 275.448498 232.380852 
L 277.245059 230.483467 
L 279.041619 228.50726 
L 280.83818 226.450017 
L 282.63474 224.328144 
L 284.431301 222.116273 
L 286.227861 219.798119 
L 288.024422 217.386768 
L 289.820982 214.879197 
L 291.617542 212.27235 
L 293.414103 209.583537 
L 295.210663 206.799238 
L 297.007224 203.910072 
L 298.803784 200.913239 
L 300.600345 197.805965 
L 302.396905 194.555631 
L 304.193466 191.171455 
L 305.990026 187.706835 
L 307.786587 184.168739 
L 309.583147 180.506845 
L 311.379708 176.630337 
L 313.176268 172.673378 
L 314.972829 168.520977 
L 316.769389 164.225615 
L 318.56595 159.896646 
L 320.36251 155.42122 
L 322.15907 150.817927 
L 323.955631 146.156768 
L 325.752191 141.166694 
L 327.548752 136.019034 
L 329.345312 130.727285 
L 331.141873 125.285431 
L 332.938433 120.171535 
L 334.734994 114.6247 
L 336.531554 108.83147 
L 338.328115 103.073385 
L 340.124675 96.956885 
L 341.921236 90.944171 
L 343.717796 84.768596 
L 345.514357 78.362603 
L 347.310917 72.149787 
L 349.107478 65.534026 
L 350.904038 58.647982 
L 352.700598 51.68646 
L 354.497159 44.914461 
L 356.293719 38.254356 
L 358.09028 31.200437 
L 359.88684 24.13426 
L 361.683401 17.081201 
L 363.479961 9.856256 
L 365.276522 2.650715 
L 367.073082 -4.662135 
L 368.869643 -11.91865 
L 370.666203 -19.241318 
L 372.462764 -26.593862 
L 374.259324 -33.843891 
L 376.055885 -41.088817 
L 377.852445 -48.344401 
L 379.649006 -55.591259 
L 381.445566 -62.821745 
L 383.242126 -70.372752 
L 385.038687 -77.806559 
L 386.835247 -84.985684 
L 388.631808 -92.119744 
L 390.428368 -99.201676 
L 392.224929 -106.224627 
L 394.021489 -113.181983 
L 395.81805 -120.084109 
L 397.61461 -126.917614 
L 399.411171 -133.7872 
L 401.207731 -140.869259 
L 403.004292 -147.467548 
L 404.800852 -153.793573 
L 406.597413 -160.01425 
L 408.393973 -166.125761 
L 410.190534 -172.124649 
L 411.987094 -178.007815 
L 413.783654 -183.876467 
L 415.580215 -189.639231 
L 417.376775 -195.292823 
L 419.173336 -200.912599 
L 420.969896 -206.347683 
L 422.766457 -211.510571 
L 424.563017 -216.621343 
L 426.359578 -221.627214 
L 428.156138 -226.482956 
L 429.952699 -231.257895 
L 431.749259 -235.871936 
L 433.54582 -240.359477 
L 435.34238 -244.721527 
L 437.138941 -248.956731 
L 438.935501 -253.066246 
L 440.732061 -257.051421 
L 442.528622 -260.91378 
L 444.325182 -264.655007 
L 446.121743 -268.276929 
L 447.918303 -271.75754 
L 449.714864 -275.096356 
L 451.511424 -278.323182 
L 453.307985 -281.440307 
L 455.104545 -284.450093 
L 456.901106 -287.354962 
L 458.697666 -290.157385 
L 460.494227 -292.859872 
L 462.290787 -295.464958 
L 464.087348 -297.975203 
L 465.883908 -300.393173 
L 467.680469 -302.721441 
L 469.477029 -304.962572 
L 471.273589 -307.119125 
L 473.07015 -309.193639 
L 474.86671 -311.188632 
L 476.663271 -313.106593 
L 478.459831 -314.949983 
L 480.256392 -316.721224 
L 482.052952 -318.422701 
L 483.849513 -320.056756 
L 485.646073 -321.625689 
L 487.442634 -323.131748 
L 489.239194 -324.577138 
L 491.035755 -325.964009 
L 492.832315 -327.294462 
L 494.628876 -328.570544 
L 496.425436 -329.79425 
L 498.221997 -330.967521 
L 500.018557 -332.092242 
L 501.815117 -333.170245 
L 501.815117 -465.071975 
L 501.815117 -465.071975 
L 500.018557 -463.438759 
L 498.221997 -461.736278 
L 496.425436 -459.982975 
L 494.628876 -458.138892 
L 492.832315 -456.191089 
L 491.035755 -454.186261 
L 489.239194 -452.09042 
L 487.442634 -449.848415 
L 485.646073 -447.529827 
L 483.849513 -445.142435 
L 482.052952 -442.659378 
L 480.256392 -440.077581 
L 478.459831 -437.39394 
L 476.663271 -434.605325 
L 474.86671 -431.708586 
L 473.07015 -428.697978 
L 471.273589 -425.571621 
L 469.477029 -422.327556 
L 467.680469 -418.962642 
L 465.883908 -415.47377 
L 464.087348 -411.857869 
L 462.290787 -408.111918 
L 460.494227 -404.232963 
L 458.697666 -400.218126 
L 456.901106 -396.087874 
L 455.104545 -391.769782 
L 453.307985 -387.295363 
L 451.511424 -382.672274 
L 449.714864 -377.899967 
L 447.918303 -372.976407 
L 446.121743 -367.899759 
L 444.325182 -362.668179 
L 442.528622 -357.277542 
L 440.732061 -351.729662 
L 438.935501 -346.023699 
L 437.138941 -340.159107 
L 435.34238 -334.135658 
L 433.54582 -327.953453 
L 431.749259 -321.612948 
L 429.952699 -315.114965 
L 428.156138 -308.460709 
L 426.359578 -301.675418 
L 424.563017 -294.732199 
L 422.766457 -287.62634 
L 420.969896 -280.432624 
L 419.173336 -273.041909 
L 417.376775 -265.487655 
L 415.580215 -257.945284 
L 413.783654 -250.124123 
L 411.987094 -242.394651 
L 410.190534 -234.451368 
L 408.393973 -226.432715 
L 406.597413 -218.219743 
L 404.800852 -209.898823 
L 403.004292 -201.477032 
L 401.207731 -192.985294 
L 399.411171 -184.393372 
L 397.61461 -175.730002 
L 395.81805 -167.175961 
L 394.021489 -158.476558 
L 392.224929 -149.626538 
L 390.428368 -140.735731 
L 388.631808 -131.852032 
L 386.835247 -122.993499 
L 385.038687 -114.076488 
L 383.242126 -105.314929 
L 381.445566 -96.466967 
L 379.649006 -87.99758 
L 377.852445 -79.32967 
L 376.055885 -70.616069 
L 374.259324 -61.93799 
L 372.462764 -53.29642 
L 370.666203 -44.656092 
L 368.869643 -36.082774 
L 367.073082 -27.584668 
L 365.276522 -19.169674 
L 363.479961 -10.845364 
L 361.683401 -2.741791 
L 359.88684 5.202708 
L 358.09028 13.081048 
L 356.293719 20.970064 
L 354.497159 28.786007 
L 352.700598 36.395881 
L 350.904038 43.84574 
L 349.107478 51.164112 
L 347.310917 58.346896 
L 345.514357 65.407766 
L 343.717796 72.332017 
L 341.921236 79.1089 
L 340.124675 85.726625 
L 338.328115 92.139212 
L 336.531554 98.413802 
L 334.734994 104.565684 
L 332.938433 110.525178 
L 331.141873 116.31031 
L 329.345312 121.976023 
L 327.548752 127.532469 
L 325.752191 132.937623 
L 323.955631 138.189122 
L 322.15907 143.284266 
L 320.36251 148.160117 
L 318.56595 152.938184 
L 316.769389 157.591785 
L 314.972829 162.076041 
L 313.176268 166.352776 
L 311.379708 170.495699 
L 309.583147 174.535754 
L 307.786587 178.468407 
L 305.990026 182.272022 
L 304.193466 185.924006 
L 302.396905 189.48612 
L 300.600345 192.915137 
L 298.803784 196.218917 
L 297.007224 199.307525 
L 295.210663 202.376419 
L 293.414103 205.302484 
L 291.617542 208.171745 
L 289.820982 210.91714 
L 288.024422 213.561849 
L 286.227861 216.121692 
L 284.431301 218.58352 
L 282.63474 220.950394 
L 280.83818 223.225338 
L 279.041619 225.411329 
L 277.245059 227.504187 
L 275.448498 229.498555 
L 273.651938 231.415384 
L 271.855377 233.257192 
L 270.058817 235.026458 
L 268.262256 236.72562 
L 266.465696 238.361487 
L 264.669135 239.922481 
L 262.872575 241.434925 
L 261.076015 242.885526 
L 259.279454 244.27685 
L 257.482894 245.60689 
L 255.686333 246.876135 
L 253.889773 248.099122 
L 252.093212 249.268712 
L 250.296652 250.391137 
L 248.500091 251.464841 
L 246.703531 252.496082 
L 244.90697 253.483769 
L 243.11041 254.42941 
L 241.313849 255.331787 
L 239.517289 256.19604 
L 237.720728 257.023822 
L 235.924168 257.816405 
L 234.127607 258.5752 
L 232.331047 259.301568 
L 230.534487 259.998195 
L 228.737926 260.665461 
L 226.941366 261.303855 
L 225.144805 261.914575 
L 223.348245 262.498778 
L 221.551684 263.057573 
L 219.755124 263.592028 
L 217.958563 264.103168 
L 216.162003 264.59198 
L 214.365442 265.05941 
L 212.568882 265.506367 
L 210.772321 265.93357 
L 208.975761 266.341731 
L 207.1792 266.73199 
L 205.38264 267.105113 
L 203.586079 267.461833 
L 201.789519 267.802856 
L 199.992959 268.128857 
L 198.196398 268.440483 
L 196.399838 268.738356 
L 194.603277 269.023071 
L 192.806717 269.295199 
L 191.010156 269.555287 
L 189.213596 269.803858 
L 187.417035 270.041414 
L 185.620475 270.268436 
L 183.823914 270.485385 
L 182.027354 270.692701 
L 180.230793 270.890806 
L 178.434233 271.080105 
L 176.637672 271.260984 
L 174.841112 271.433813 
L 173.044551 271.598947 
L 171.247991 271.756724 
L 169.451431 271.90747 
L 167.65487 272.051495 
L 165.85831 272.189095 
L 164.061749 272.320555 
L 162.265189 272.446147 
L 160.468628 272.56613 
L 158.672068 272.680753 
L 156.875507 272.790253 
L 155.078947 272.894859 
L 153.282386 272.994787 
L 151.485826 273.090245 
L 149.689265 273.181432 
L 147.892705 273.268539 
L 146.096144 273.351746 
L 144.299584 273.431227 
L 142.503023 273.507149 
L 140.706463 273.579669 
L 138.909903 273.648941 
L 137.113342 273.715108 
L 135.316782 273.778309 
L 133.520221 273.838676 
L 131.723661 273.896337 
L 129.9271 273.951412 
L 128.13054 274.004017 
L 126.333979 274.054261 
L 124.537419 274.102252 
L 122.740858 274.148088 
L 120.944298 274.191868 
L 119.147737 274.233682 
L 117.351177 274.27362 
L 115.554616 274.311764 
L 113.758056 274.348196 
L 111.961496 274.382991 
L 110.164935 274.416224 
L 108.368375 274.447965 
L 106.571814 274.478279 
L 104.775254 274.507232 
L 102.978693 274.534884 
L 101.182133 274.561293 
L 99.385572 274.586516 
L 97.589012 274.610605 
L 95.792451 274.633612 
L 93.995891 274.655585 
L 92.19933 274.67657 
L 90.40277 274.696612 
L 88.606209 274.715753 
L 86.809649 274.734033 
L 85.013088 274.751492 
L 83.216528 274.768166 
L 81.419968 274.78409 
L 79.623407 274.799298 
L 77.826847 274.813822 
L 76.030286 274.827693 
L 74.233726 274.840941 
L 72.437165 274.853592 
L 70.640605 274.865675 
L 68.844044 274.877214 
L 67.047484 274.888235 
L 65.250923 274.898759 
L 63.454363 274.90881 
L 61.657802 274.91841 
L 59.861242 274.927577 
L 58.064681 274.936332 
L 56.268121 274.944693 
L 54.47156 274.952678 
L 52.675 274.960304 
L 50.87844 274.967587 
L 49.081879 274.974542 
L 47.285319 274.981184 
L 45.488758 274.987527 
L 43.692198 274.993586 
L 41.895637 274.999371 
L 40.099077 275.004896 
L 38.302516 275.010173 
L 36.505956 275.015212 
L 34.709395 275.020024 
L 32.912835 275.02462 
L 31.116274 275.029009 
L 29.319714 275.033201 
L 27.523153 275.037204 
L 25.726593 275.041027 
L 23.930032 275.044678 
L 22.133472 275.048164 
L 20.336912 275.051494 
L 18.540351 275.054674 
L 16.743791 275.057711 
L 14.94723 275.060611 
L 13.15067 275.063381 
L 11.354109 275.066026 
L 9.557549 275.068552 
L 7.760988 275.070964 
L 5.964428 275.073268 
L 4.167867 275.075468 
L 2.371307 275.077569 
L 0.574746 275.079575 
L -1.221814 275.081492 
L -3.018375 275.083322 
L -4.814935 275.085069 
L -6.611496 275.086738 
L -8.408056 275.088332 
L -10.204616 275.089854 
L -12.001177 275.091308 
L -13.797737 275.092696 
L -15.594298 275.094022 
L -17.390858 275.095288 
L -19.187419 275.096497 
L -20.983979 275.097652 
L -22.78054 275.098755 
L -24.5771 275.099808 
L -26.373661 275.100813 
L -28.170221 275.101774 
L -29.966782 275.102691 
L -31.763342 275.103567 
L -33.559903 275.104404 
L -35.356463 275.105202 
L -37.153023 275.105965 
z
" style="fill:#8b4820;fill-opacity:0.9;stroke:#8b4820;stroke-opacity:0.9;"/>
   </g>
   <g id="PolyCollection_4">
    <path clip-path="url(#p811487c6aa)" d="M -37.153023 275.121897 
L -37.153023 275.122054 
L -35.356463 275.122049 
L -33.559903 275.122044 
L -31.763342 275.122039 
L -29.966782 275.122033 
L -28.170221 275.122028 
L -26.373661 275.122022 
L -24.5771 275.122015 
L -22.78054 275.122009 
L -20.983979 275.122002 
L -19.187419 275.121995 
L -17.390858 275.121987 
L -15.594298 275.12198 
L -13.797737 275.121971 
L -12.001177 275.121963 
L -10.204616 275.121954 
L -8.408056 275.121944 
L -6.611496 275.121935 
L -4.814935 275.121924 
L -3.018375 275.121913 
L -1.221814 275.121902 
L 0.574746 275.12189 
L 2.371307 275.121878 
L 4.167867 275.121865 
L 5.964428 275.121851 
L 7.760988 275.121837 
L 9.557549 275.121822 
L 11.354109 275.121806 
L 13.15067 275.12179 
L 14.94723 275.121773 
L 16.743791 275.121755 
L 18.540351 275.121736 
L 20.336912 275.121716 
L 22.133472 275.121696 
L 23.930032 275.121674 
L 25.726593 275.121651 
L 27.523153 275.121628 
L 29.319714 275.121603 
L 31.116274 275.121577 
L 32.912835 275.12155 
L 34.709395 275.121521 
L 36.505956 275.121492 
L 38.302516 275.12146 
L 40.099077 275.121428 
L 41.895637 275.121393 
L 43.692198 275.121358 
L 45.488758 275.12132 
L 47.285319 275.121281 
L 49.081879 275.12124 
L 50.87844 275.121197 
L 52.675 275.121151 
L 54.47156 275.121104 
L 56.268121 275.121055 
L 58.064681 275.121003 
L 59.861242 275.120949 
L 61.657802 275.120892 
L 63.454363 275.120832 
L 65.250923 275.12077 
L 67.047484 275.120705 
L 68.844044 275.120637 
L 70.640605 275.120565 
L 72.437165 275.12049 
L 74.233726 275.120412 
L 76.030286 275.12033 
L 77.826847 275.120244 
L 79.623407 275.120154 
L 81.419968 275.12006 
L 83.216528 275.119961 
L 85.013088 275.119858 
L 86.809649 275.11975 
L 88.606209 275.119637 
L 90.40277 275.119518 
L 92.19933 275.119394 
L 93.995891 275.119264 
L 95.792451 275.119128 
L 97.589012 275.118985 
L 99.385572 275.118836 
L 101.182133 275.118679 
L 102.978693 275.118516 
L 104.775254 275.118344 
L 106.571814 275.118165 
L 108.368375 275.117977 
L 110.164935 275.117781 
L 111.961496 275.117575 
L 113.758056 275.117359 
L 115.554616 275.117133 
L 117.351177 275.116897 
L 119.147737 275.116649 
L 120.944298 275.11639 
L 122.740858 275.116119 
L 124.537419 275.115834 
L 126.333979 275.115537 
L 128.13054 275.115225 
L 129.9271 275.114899 
L 131.723661 275.114558 
L 133.520221 275.1142 
L 135.316782 275.113826 
L 137.113342 275.113434 
L 138.909903 275.113024 
L 140.706463 275.112594 
L 142.503023 275.112144 
L 144.299584 275.111673 
L 146.096144 275.11118 
L 147.892705 275.110664 
L 149.689265 275.110123 
L 151.485826 275.109557 
L 153.282386 275.108965 
L 155.078947 275.108345 
L 156.875507 275.107696 
L 158.672068 275.107016 
L 160.468628 275.106304 
L 162.265189 275.105559 
L 164.061749 275.104779 
L 165.85831 275.103963 
L 167.65487 275.103108 
L 169.451431 275.102213 
L 171.247991 275.101277 
L 173.044551 275.100296 
L 174.841112 275.09927 
L 176.637672 275.098195 
L 178.434233 275.097071 
L 180.230793 275.095893 
L 182.027354 275.094661 
L 183.823914 275.093371 
L 185.620475 275.092021 
L 187.417035 275.090608 
L 189.213596 275.08913 
L 191.010156 275.087582 
L 192.806717 275.085962 
L 194.603277 275.084266 
L 196.399838 275.082492 
L 198.196398 275.080635 
L 199.992959 275.078692 
L 201.789519 275.076658 
L 203.586079 275.07453 
L 205.38264 275.072304 
L 207.1792 275.069974 
L 208.975761 275.067536 
L 210.772321 275.064985 
L 212.568882 275.062316 
L 214.365442 275.059524 
L 216.162003 275.056603 
L 217.958563 275.053548 
L 219.755124 275.050351 
L 221.551684 275.047008 
L 223.348245 275.04351 
L 225.144805 275.039852 
L 226.941366 275.036026 
L 228.737926 275.032025 
L 230.534487 275.027841 
L 232.331047 275.023466 
L 234.127607 275.018891 
L 235.924168 275.014108 
L 237.720728 275.009107 
L 239.517289 275.003879 
L 241.313849 274.998415 
L 243.11041 274.992703 
L 244.90697 274.986725 
L 246.703531 274.980463 
L 248.500091 274.973916 
L 250.296652 274.967073 
L 252.093212 274.96001 
L 253.889773 274.952627 
L 255.686333 274.944873 
L 257.482894 274.936776 
L 259.279454 274.928306 
L 261.076015 274.919461 
L 262.872575 274.910227 
L 264.669135 274.900587 
L 266.465696 274.890526 
L 268.262256 274.879923 
L 270.058817 274.868815 
L 271.855377 274.857212 
L 273.651938 274.845095 
L 275.448498 274.83244 
L 277.245059 274.819227 
L 279.041619 274.805662 
L 280.83818 274.791524 
L 282.63474 274.776791 
L 284.431301 274.76144 
L 286.227861 274.74545 
L 288.024422 274.728797 
L 289.820982 274.711459 
L 291.617542 274.693412 
L 293.414103 274.674632 
L 295.210663 274.655095 
L 297.007224 274.634774 
L 298.803784 274.613646 
L 300.600345 274.591686 
L 302.396905 274.568867 
L 304.193466 274.545163 
L 305.990026 274.52055 
L 307.786587 274.495001 
L 309.583147 274.46849 
L 311.379708 274.444118 
L 313.176268 274.415744 
L 314.972829 274.386337 
L 316.769389 274.355689 
L 318.56595 274.323407 
L 320.36251 274.2899 
L 322.15907 274.255125 
L 323.955631 274.219417 
L 325.752191 274.188026 
L 327.548752 274.166685 
L 329.345312 274.129057 
L 331.141873 274.092825 
L 332.938433 274.053057 
L 334.734994 274.029716 
L 336.531554 274.025482 
L 338.328115 273.989367 
L 340.124675 273.953569 
L 341.921236 273.907064 
L 343.717796 273.868725 
L 345.514357 273.834752 
L 347.310917 273.789604 
L 349.107478 273.760512 
L 350.904038 273.743 
L 352.700598 273.722118 
L 354.497159 273.683441 
L 356.293719 273.637496 
L 358.09028 273.595011 
L 359.88684 273.570732 
L 361.683401 273.546797 
L 363.479961 273.523223 
L 365.276522 273.493948 
L 367.073082 273.455346 
L 368.869643 273.416714 
L 370.666203 273.378095 
L 372.462764 273.339134 
L 374.259324 273.29913 
L 376.055885 273.259204 
L 377.852445 273.219399 
L 379.649006 273.179754 
L 381.445566 273.14031 
L 383.242126 273.09507 
L 385.038687 273.049511 
L 386.835247 273.017938 
L 388.631808 272.986873 
L 390.428368 272.952462 
L 392.224929 272.927935 
L 394.021489 272.900025 
L 395.81805 272.872678 
L 397.61461 272.845905 
L 399.411171 272.819715 
L 401.207731 272.793735 
L 403.004292 272.767494 
L 404.800852 272.741875 
L 406.597413 272.716883 
L 408.393973 272.692519 
L 410.190534 272.668786 
L 411.987094 272.645684 
L 413.783654 272.62321 
L 415.580215 272.601557 
L 417.376775 272.590984 
L 419.173336 272.580794 
L 420.969896 272.570979 
L 422.766457 272.561527 
L 424.563017 272.552427 
L 426.359578 272.54367 
L 428.156138 272.535244 
L 429.952699 272.516414 
L 431.749259 272.497554 
L 433.54582 272.479282 
L 435.34238 272.461588 
L 437.138941 272.451236 
L 438.935501 272.44555 
L 440.732061 272.440098 
L 442.528622 272.434871 
L 444.325182 272.429859 
L 446.121743 272.425056 
L 447.918303 272.420453 
L 449.714864 272.416042 
L 451.511424 272.411817 
L 453.307985 272.407769 
L 455.104545 272.403892 
L 456.901106 272.400179 
L 458.697666 272.396624 
L 460.494227 272.393221 
L 462.290787 272.389962 
L 464.087348 272.386843 
L 465.883908 272.383857 
L 467.680469 272.381 
L 469.477029 272.378266 
L 471.273589 272.37565 
L 473.07015 272.373147 
L 474.86671 272.370752 
L 476.663271 272.368461 
L 478.459831 272.36627 
L 480.256392 272.364174 
L 482.052952 272.362169 
L 483.849513 272.360252 
L 485.646073 272.358419 
L 487.442634 272.356666 
L 489.239194 272.35499 
L 491.035755 272.353387 
L 492.832315 272.351855 
L 494.628876 272.35039 
L 496.425436 272.34899 
L 498.221997 272.347651 
L 500.018557 272.346371 
L 501.815117 272.345148 
L 501.815117 261.601486 
L 501.815117 261.601486 
L 500.018557 261.65475 
L 498.221997 261.710076 
L 496.425436 261.767525 
L 494.628876 261.827155 
L 492.832315 261.889028 
L 491.035755 261.953202 
L 489.239194 262.019737 
L 487.442634 262.08869 
L 485.646073 262.160119 
L 483.849513 262.238298 
L 482.052952 262.319929 
L 480.256392 262.404307 
L 478.459831 262.491477 
L 476.663271 262.581483 
L 474.86671 262.674366 
L 473.07015 262.770163 
L 471.273589 262.868906 
L 469.477029 262.970625 
L 467.680469 263.075343 
L 465.883908 263.183078 
L 464.087348 263.293844 
L 462.290787 263.407649 
L 460.494227 263.524492 
L 458.697666 263.64437 
L 456.901106 263.762479 
L 455.104545 263.880355 
L 453.307985 264.001192 
L 451.511424 264.124971 
L 449.714864 264.251787 
L 447.918303 264.372785 
L 446.121743 264.494022 
L 444.325182 264.618072 
L 442.528622 264.748991 
L 440.732061 264.898928 
L 438.935501 265.051609 
L 437.138941 265.207358 
L 435.34238 265.365295 
L 433.54582 265.515924 
L 431.749259 265.668745 
L 429.952699 265.823642 
L 428.156138 265.978632 
L 426.359578 266.12208 
L 424.563017 266.286797 
L 422.766457 266.453918 
L 420.969896 266.621786 
L 419.173336 266.781338 
L 417.376775 266.936922 
L 415.580215 267.093736 
L 413.783654 267.251625 
L 411.987094 267.410432 
L 410.190534 267.576746 
L 408.393973 267.746042 
L 406.597413 267.907063 
L 404.800852 268.06651 
L 403.004292 268.235428 
L 401.207731 268.397209 
L 399.411171 268.553976 
L 397.61461 268.710944 
L 395.81805 268.883729 
L 394.021489 269.054949 
L 392.224929 269.224443 
L 390.428368 269.392059 
L 388.631808 269.528381 
L 386.835247 269.635761 
L 385.038687 269.787204 
L 383.242126 269.935042 
L 381.445566 270.080829 
L 379.649006 270.225453 
L 377.852445 270.369354 
L 376.055885 270.514858 
L 374.259324 270.659718 
L 372.462764 270.798904 
L 370.666203 270.935009 
L 368.869643 271.068635 
L 367.073082 271.199714 
L 365.276522 271.328182 
L 363.479961 271.453983 
L 361.683401 271.572032 
L 359.88684 271.692036 
L 358.09028 271.809346 
L 356.293719 271.923882 
L 354.497159 272.035624 
L 352.700598 272.131689 
L 350.904038 272.236648 
L 349.107478 272.340115 
L 347.310917 272.440908 
L 345.514357 272.538909 
L 343.717796 272.634133 
L 341.921236 272.719239 
L 340.124675 272.811731 
L 338.328115 272.897384 
L 336.531554 272.977608 
L 334.734994 273.055637 
L 332.938433 273.122384 
L 331.141873 273.200061 
L 329.345312 273.275816 
L 327.548752 273.335712 
L 325.752191 273.39465 
L 323.955631 273.422772 
L 322.15907 273.49042 
L 320.36251 273.556282 
L 318.56595 273.61978 
L 316.769389 273.669029 
L 314.972829 273.724765 
L 313.176268 273.777398 
L 311.379708 273.824934 
L 309.583147 273.867401 
L 307.786587 273.915733 
L 305.990026 273.959663 
L 304.193466 274.003145 
L 302.396905 274.049185 
L 300.600345 274.093499 
L 298.803784 274.12119 
L 297.007224 274.158287 
L 295.210663 274.175845 
L 293.414103 274.212035 
L 291.617542 274.250874 
L 289.820982 274.285892 
L 288.024422 274.308242 
L 286.227861 274.3416 
L 284.431301 274.37372 
L 282.63474 274.403926 
L 280.83818 274.42836 
L 279.041619 274.452903 
L 277.245059 274.475138 
L 275.448498 274.499235 
L 273.651938 274.519604 
L 271.855377 274.541146 
L 270.058817 274.565086 
L 268.262256 274.589058 
L 266.465696 274.610583 
L 264.669135 274.62391 
L 262.872575 274.639696 
L 261.076015 274.657497 
L 259.279454 274.675017 
L 257.482894 274.692144 
L 255.686333 274.706909 
L 253.889773 274.724398 
L 252.093212 274.73976 
L 250.296652 274.754525 
L 248.500091 274.76881 
L 246.703531 274.782622 
L 244.90697 274.796145 
L 243.11041 274.809219 
L 241.313849 274.82183 
L 239.517289 274.83399 
L 237.720728 274.84571 
L 235.924168 274.857003 
L 234.127607 274.867879 
L 232.331047 274.87835 
L 230.534487 274.888428 
L 228.737926 274.898126 
L 226.941366 274.907454 
L 225.144805 274.916423 
L 223.348245 274.925045 
L 221.551684 274.933332 
L 219.755124 274.941294 
L 217.958563 274.948942 
L 216.162003 274.956286 
L 214.365442 274.963471 
L 212.568882 274.97048 
L 210.772321 274.977184 
L 208.975761 274.983598 
L 207.1792 274.989732 
L 205.38264 274.9956 
L 203.586079 275.001211 
L 201.789519 275.006577 
L 199.992959 275.011708 
L 198.196398 275.016614 
L 196.399838 275.021305 
L 194.603277 275.02579 
L 192.806717 275.030078 
L 191.010156 275.034177 
L 189.213596 275.038096 
L 187.417035 275.041841 
L 185.620475 275.045422 
L 183.823914 275.048844 
L 182.027354 275.052115 
L 180.230793 275.055241 
L 178.434233 275.058229 
L 176.637672 275.061084 
L 174.841112 275.063813 
L 173.044551 275.066421 
L 171.247991 275.068913 
L 169.451431 275.071294 
L 167.65487 275.073569 
L 165.85831 275.075743 
L 164.061749 275.077821 
L 162.265189 275.079806 
L 160.468628 275.081702 
L 158.672068 275.083514 
L 156.875507 275.085245 
L 155.078947 275.086899 
L 153.282386 275.088479 
L 151.485826 275.089989 
L 149.689265 275.091431 
L 147.892705 275.092809 
L 146.096144 275.094125 
L 144.299584 275.095382 
L 142.503023 275.096583 
L 140.706463 275.097731 
L 138.909903 275.098827 
L 137.113342 275.099874 
L 135.316782 275.100874 
L 133.520221 275.101829 
L 131.723661 275.102742 
L 129.9271 275.103613 
L 128.13054 275.104446 
L 126.333979 275.105241 
L 124.537419 275.106001 
L 122.740858 275.106727 
L 120.944298 275.10742 
L 119.147737 275.108082 
L 117.351177 275.108714 
L 115.554616 275.109318 
L 113.758056 275.109895 
L 111.961496 275.110446 
L 110.164935 275.110972 
L 108.368375 275.111475 
L 106.571814 275.111955 
L 104.775254 275.112413 
L 102.978693 275.112851 
L 101.182133 275.113269 
L 99.385572 275.113669 
L 97.589012 275.11405 
L 95.792451 275.114415 
L 93.995891 275.114763 
L 92.19933 275.115095 
L 90.40277 275.115412 
L 88.606209 275.115716 
L 86.809649 275.116005 
L 85.013088 275.116282 
L 83.216528 275.116546 
L 81.419968 275.116798 
L 79.623407 275.117039 
L 77.826847 275.117269 
L 76.030286 275.117489 
L 74.233726 275.117699 
L 72.437165 275.117899 
L 70.640605 275.11809 
L 68.844044 275.118273 
L 67.047484 275.118448 
L 65.250923 275.118614 
L 63.454363 275.118774 
L 61.657802 275.118926 
L 59.861242 275.119071 
L 58.064681 275.11921 
L 56.268121 275.119342 
L 54.47156 275.119469 
L 52.675 275.119589 
L 50.87844 275.119705 
L 49.081879 275.119815 
L 47.285319 275.11992 
L 45.488758 275.120021 
L 43.692198 275.120117 
L 41.895637 275.120208 
L 40.099077 275.120296 
L 38.302516 275.12038 
L 36.505956 275.120459 
L 34.709395 275.120536 
L 32.912835 275.120608 
L 31.116274 275.120678 
L 29.319714 275.120744 
L 27.523153 275.120808 
L 25.726593 275.120868 
L 23.930032 275.120926 
L 22.133472 275.120982 
L 20.336912 275.121034 
L 18.540351 275.121085 
L 16.743791 275.121133 
L 14.94723 275.121179 
L 13.15067 275.121223 
L 11.354109 275.121265 
L 9.557549 275.121305 
L 7.760988 275.121343 
L 5.964428 275.121379 
L 4.167867 275.121414 
L 2.371307 275.121447 
L 0.574746 275.121479 
L -1.221814 275.12151 
L -3.018375 275.121539 
L -4.814935 275.121566 
L -6.611496 275.121593 
L -8.408056 275.121618 
L -10.204616 275.121642 
L -12.001177 275.121665 
L -13.797737 275.121687 
L -15.594298 275.121708 
L -17.390858 275.121728 
L -19.187419 275.121747 
L -20.983979 275.121766 
L -22.78054 275.121783 
L -24.5771 275.1218 
L -26.373661 275.121816 
L -28.170221 275.121831 
L -29.966782 275.121845 
L -31.763342 275.121859 
L -33.559903 275.121873 
L -35.356463 275.121885 
L -37.153023 275.121897 
z
" style="fill-opacity:0.9;stroke:#000000;stroke-opacity:0.9;"/>
   </g>
   <g id="matplotlib.axis_1">
    <g id="xtick_1">
     <g id="line2d_1">
      <defs>
       <path d="M 0 0 
L 0 3.5 
" id="mc855fe6244" style="stroke:#000000;stroke-width:0.8;"/>
      </defs>
      <g>
       <use style="stroke:#000000;stroke-width:0.8;" x="52.675" xlink:href="#mc855fe6244" y="296.649"/>
      </g>
     </g>
     <g id="text_1">
      <!-- $\mathdefault{10^{0}}$ -->
      <g transform="translate(40.115 320.149)scale(0.16 -0.16)">
       <defs>
        <path d="M 37.25 0 
L 28.46875 0 
L 28.46875 56 
Q 25.296875 52.984375 20.140625 49.953125 
Q 14.984375 46.921875 10.890625 45.40625 
L 10.890625 53.90625 
Q 18.265625 57.375 23.78125 62.296875 
Q 29.296875 67.234375 31.59375 71.875 
L 37.25 71.875 
z
" id="ArialMT-49"/>
        <path d="M 4.15625 35.296875 
Q 4.15625 48 6.765625 55.734375 
Q 9.375 63.484375 14.515625 67.671875 
Q 19.671875 71.875 27.484375 71.875 
Q 33.25 71.875 37.59375 69.546875 
Q 41.9375 67.234375 44.765625 62.859375 
Q 47.609375 58.5 49.21875 52.21875 
Q 50.828125 45.953125 50.828125 35.296875 
Q 50.828125 22.703125 48.234375 14.96875 
Q 45.65625 7.234375 40.5 3 
Q 35.359375 -1.21875 27.484375 -1.21875 
Q 17.140625 -1.21875 11.234375 6.203125 
Q 4.15625 15.140625 4.15625 35.296875 
z
M 13.1875 35.296875 
Q 13.1875 17.671875 17.3125 11.828125 
Q 21.4375 6 27.484375 6 
Q 33.546875 6 37.671875 11.859375 
Q 41.796875 17.71875 41.796875 35.296875 
Q 41.796875 52.984375 37.671875 58.78125 
Q 33.546875 64.59375 27.390625 64.59375 
Q 21.34375 64.59375 17.71875 59.46875 
Q 13.1875 52.9375 13.1875 35.296875 
z
" id="ArialMT-48"/>
       </defs>
       <use transform="translate(0 0.99375)" xlink:href="#ArialMT-49"/>
       <use transform="translate(55.615234 0.99375)" xlink:href="#ArialMT-48"/>
       <use transform="translate(112.972813 70.6875)scale(0.7)" xlink:href="#ArialMT-48"/>
      </g>
     </g>
    </g>
    <g id="xtick_2">
     <g id="line2d_2">
      <g>
       <use style="stroke:#000000;stroke-width:0.8;" x="142.503023" xlink:href="#mc855fe6244" y="296.649"/>
      </g>
     </g>
     <g id="text_2">
      <!-- $\mathdefault{10^{1}}$ -->
      <g transform="translate(129.943023 320.149)scale(0.16 -0.16)">
       <use transform="translate(0 0.99375)" xlink:href="#ArialMT-49"/>
       <use transform="translate(55.615234 0.99375)" xlink:href="#ArialMT-48"/>
       <use transform="translate(112.972813 70.6875)scale(0.7)" xlink:href="#ArialMT-49"/>
      </g>
     </g>
    </g>
    <g id="xtick_3">
     <g id="line2d_3">
      <g>
       <use style="stroke:#000000;stroke-width:0.8;" x="232.331047" xlink:href="#mc855fe6244" y="296.649"/>
      </g>
     </g>
     <g id="text_3">
      <!-- $\mathdefault{10^{2}}$ -->
      <g transform="translate(219.771047 320.149)scale(0.16 -0.16)">
       <defs>
        <path d="M 50.34375 8.453125 
L 50.34375 0 
L 3.03125 0 
Q 2.9375 3.171875 4.046875 6.109375 
Q 5.859375 10.9375 9.828125 15.625 
Q 13.8125 20.3125 21.34375 26.46875 
Q 33.015625 36.03125 37.109375 41.625 
Q 41.21875 47.21875 41.21875 52.203125 
Q 41.21875 57.421875 37.46875 61 
Q 33.734375 64.59375 27.734375 64.59375 
Q 21.390625 64.59375 17.578125 60.78125 
Q 13.765625 56.984375 13.71875 50.25 
L 4.6875 51.171875 
Q 5.609375 61.28125 11.65625 66.578125 
Q 17.71875 71.875 27.9375 71.875 
Q 38.234375 71.875 44.234375 66.15625 
Q 50.25 60.453125 50.25 52 
Q 50.25 47.703125 48.484375 43.546875 
Q 46.734375 39.40625 42.65625 34.8125 
Q 38.578125 30.21875 29.109375 22.21875 
Q 21.1875 15.578125 18.9375 13.203125 
Q 16.703125 10.84375 15.234375 8.453125 
z
" id="ArialMT-50"/>
       </defs>
       <use transform="translate(0 0.99375)" xlink:href="#ArialMT-49"/>
       <use transform="translate(55.615234 0.99375)" xlink:href="#ArialMT-48"/>
       <use transform="translate(112.972813 70.6875)scale(0.7)" xlink:href="#ArialMT-50"/>
      </g>
     </g>
    </g>
    <g id="xtick_4">
     <g id="line2d_4">
      <g>
       <use style="stroke:#000000;stroke-width:0.8;" x="322.15907" xlink:href="#mc855fe6244" y="296.649"/>
      </g>
     </g>
     <g id="text_4">
      <!-- $\mathdefault{10^{3}}$ -->
      <g transform="translate(309.59907 320.149)scale(0.16 -0.16)">
       <defs>
        <path d="M 4.203125 18.890625 
L 12.984375 20.0625 
Q 14.5 12.59375 18.140625 9.296875 
Q 21.78125 6 27 6 
Q 33.203125 6 37.46875 10.296875 
Q 41.75 14.59375 41.75 20.953125 
Q 41.75 27 37.796875 30.921875 
Q 33.84375 34.859375 27.734375 34.859375 
Q 25.25 34.859375 21.53125 33.890625 
L 22.515625 41.609375 
Q 23.390625 41.5 23.921875 41.5 
Q 29.546875 41.5 34.03125 44.421875 
Q 38.53125 47.359375 38.53125 53.46875 
Q 38.53125 58.296875 35.25 61.46875 
Q 31.984375 64.65625 26.8125 64.65625 
Q 21.6875 64.65625 18.265625 61.421875 
Q 14.84375 58.203125 13.875 51.765625 
L 5.078125 53.328125 
Q 6.6875 62.15625 12.390625 67.015625 
Q 18.109375 71.875 26.609375 71.875 
Q 32.46875 71.875 37.390625 69.359375 
Q 42.328125 66.84375 44.9375 62.5 
Q 47.5625 58.15625 47.5625 53.265625 
Q 47.5625 48.640625 45.0625 44.828125 
Q 42.578125 41.015625 37.703125 38.765625 
Q 44.046875 37.3125 47.5625 32.6875 
Q 51.078125 28.078125 51.078125 21.140625 
Q 51.078125 11.765625 44.234375 5.25 
Q 37.40625 -1.265625 26.953125 -1.265625 
Q 17.53125 -1.265625 11.296875 4.34375 
Q 5.078125 9.96875 4.203125 18.890625 
z
" id="ArialMT-51"/>
       </defs>
       <use transform="translate(0 0.99375)" xlink:href="#ArialMT-49"/>
       <use transform="translate(55.615234 0.99375)" xlink:href="#ArialMT-48"/>
       <use transform="translate(112.972813 70.6875)scale(0.7)" xlink:href="#ArialMT-51"/>
      </g>
     </g>
    </g>
    <g id="xtick_5">
     <g id="line2d_5">
      <defs>
       <path d="M 0 0 
L 0 2 
" id="mede71860dd" style="stroke:#000000;stroke-width:0.6;"/>
      </defs>
      <g>
       <use style="stroke:#000000;stroke-width:0.6;" x="79.71593" xlink:href="#mede71860dd" y="296.649"/>
      </g>
     </g>
    </g>
    <g id="xtick_6">
     <g id="line2d_6">
      <g>
       <use style="stroke:#000000;stroke-width:0.6;" x="95.533859" xlink:href="#mede71860dd" y="296.649"/>
      </g>
     </g>
    </g>
    <g id="xtick_7">
     <g id="line2d_7">
      <g>
       <use style="stroke:#000000;stroke-width:0.6;" x="106.756859" xlink:href="#mede71860dd" y="296.649"/>
      </g>
     </g>
    </g>
    <g id="xtick_8">
     <g id="line2d_8">
      <g>
       <use style="stroke:#000000;stroke-width:0.6;" x="115.462094" xlink:href="#mede71860dd" y="296.649"/>
      </g>
     </g>
    </g>
    <g id="xtick_9">
     <g id="line2d_9">
      <g>
       <use style="stroke:#000000;stroke-width:0.6;" x="122.574789" xlink:href="#mede71860dd" y="296.649"/>
      </g>
     </g>
    </g>
    <g id="xtick_10">
     <g id="line2d_10">
      <g>
       <use style="stroke:#000000;stroke-width:0.6;" x="128.588487" xlink:href="#mede71860dd" y="296.649"/>
      </g>
     </g>
    </g>
    <g id="xtick_11">
     <g id="line2d_11">
      <g>
       <use style="stroke:#000000;stroke-width:0.6;" x="133.797789" xlink:href="#mede71860dd" y="296.649"/>
      </g>
     </g>
    </g>
    <g id="xtick_12">
     <g id="line2d_12">
      <g>
       <use style="stroke:#000000;stroke-width:0.6;" x="138.392719" xlink:href="#mede71860dd" y="296.649"/>
      </g>
     </g>
    </g>
    <g id="xtick_13">
     <g id="line2d_13">
      <g>
       <use style="stroke:#000000;stroke-width:0.6;" x="169.543953" xlink:href="#mede71860dd" y="296.649"/>
      </g>
     </g>
    </g>
    <g id="xtick_14">
     <g id="line2d_14">
      <g>
       <use style="stroke:#000000;stroke-width:0.6;" x="185.361883" xlink:href="#mede71860dd" y="296.649"/>
      </g>
     </g>
    </g>
    <g id="xtick_15">
     <g id="line2d_15">
      <g>
       <use style="stroke:#000000;stroke-width:0.6;" x="196.584883" xlink:href="#mede71860dd" y="296.649"/>
      </g>
     </g>
    </g>
    <g id="xtick_16">
     <g id="line2d_16">
      <g>
       <use style="stroke:#000000;stroke-width:0.6;" x="205.290117" xlink:href="#mede71860dd" y="296.649"/>
      </g>
     </g>
    </g>
    <g id="xtick_17">
     <g id="line2d_17">
      <g>
       <use style="stroke:#000000;stroke-width:0.6;" x="212.402812" xlink:href="#mede71860dd" y="296.649"/>
      </g>
     </g>
    </g>
    <g id="xtick_18">
     <g id="line2d_18">
      <g>
       <use style="stroke:#000000;stroke-width:0.6;" x="218.41651" xlink:href="#mede71860dd" y="296.649"/>
      </g>
     </g>
    </g>
    <g id="xtick_19">
     <g id="line2d_19">
      <g>
       <use style="stroke:#000000;stroke-width:0.6;" x="223.625812" xlink:href="#mede71860dd" y="296.649"/>
      </g>
     </g>
    </g>
    <g id="xtick_20">
     <g id="line2d_20">
      <g>
       <use style="stroke:#000000;stroke-width:0.6;" x="228.220742" xlink:href="#mede71860dd" y="296.649"/>
      </g>
     </g>
    </g>
    <g id="xtick_21">
     <g id="line2d_21">
      <g>
       <use style="stroke:#000000;stroke-width:0.6;" x="259.371977" xlink:href="#mede71860dd" y="296.649"/>
      </g>
     </g>
    </g>
    <g id="xtick_22">
     <g id="line2d_22">
      <g>
       <use style="stroke:#000000;stroke-width:0.6;" x="275.189906" xlink:href="#mede71860dd" y="296.649"/>
      </g>
     </g>
    </g>
    <g id="xtick_23">
     <g id="line2d_23">
      <g>
       <use style="stroke:#000000;stroke-width:0.6;" x="286.412906" xlink:href="#mede71860dd" y="296.649"/>
      </g>
     </g>
    </g>
    <g id="xtick_24">
     <g id="line2d_24">
      <g>
       <use style="stroke:#000000;stroke-width:0.6;" x="295.118141" xlink:href="#mede71860dd" y="296.649"/>
      </g>
     </g>
    </g>
    <g id="xtick_25">
     <g id="line2d_25">
      <g>
       <use style="stroke:#000000;stroke-width:0.6;" x="302.230836" xlink:href="#mede71860dd" y="296.649"/>
      </g>
     </g>
    </g>
    <g id="xtick_26">
     <g id="line2d_26">
      <g>
       <use style="stroke:#000000;stroke-width:0.6;" x="308.244534" xlink:href="#mede71860dd" y="296.649"/>
      </g>
     </g>
    </g>
    <g id="xtick_27">
     <g id="line2d_27">
      <g>
       <use style="stroke:#000000;stroke-width:0.6;" x="313.453836" xlink:href="#mede71860dd" y="296.649"/>
      </g>
     </g>
    </g>
    <g id="xtick_28">
     <g id="line2d_28">
      <g>
       <use style="stroke:#000000;stroke-width:0.6;" x="318.048766" xlink:href="#mede71860dd" y="296.649"/>
      </g>
     </g>
    </g>
    <g id="xtick_29">
     <g id="line2d_29">
      <g>
       <use style="stroke:#000000;stroke-width:0.6;" x="349.2" xlink:href="#mede71860dd" y="296.649"/>
      </g>
     </g>
    </g>
    <g id="text_5">
     <!-- TF concentration (nM) -->
     <g transform="translate(112.416875 340.432437)scale(0.18 -0.18)">
      <defs>
       <path d="M 25.921875 0 
L 25.921875 63.140625 
L 2.34375 63.140625 
L 2.34375 71.578125 
L 59.078125 71.578125 
L 59.078125 63.140625 
L 35.40625 63.140625 
L 35.40625 0 
z
" id="ArialMT-84"/>
       <path d="M 8.203125 0 
L 8.203125 71.578125 
L 56.5 71.578125 
L 56.5 63.140625 
L 17.671875 63.140625 
L 17.671875 40.96875 
L 51.265625 40.96875 
L 51.265625 32.515625 
L 17.671875 32.515625 
L 17.671875 0 
z
" id="ArialMT-70"/>
       <path id="ArialMT-32"/>
       <path d="M 40.4375 19 
L 49.078125 17.875 
Q 47.65625 8.9375 41.8125 3.875 
Q 35.984375 -1.171875 27.484375 -1.171875 
Q 16.84375 -1.171875 10.375 5.78125 
Q 3.90625 12.75 3.90625 25.734375 
Q 3.90625 34.125 6.6875 40.421875 
Q 9.46875 46.734375 15.15625 49.875 
Q 20.84375 53.03125 27.546875 53.03125 
Q 35.984375 53.03125 41.359375 48.75 
Q 46.734375 44.484375 48.25 36.625 
L 39.703125 35.296875 
Q 38.484375 40.53125 35.375 43.15625 
Q 32.28125 45.796875 27.875 45.796875 
Q 21.234375 45.796875 17.078125 41.03125 
Q 12.9375 36.28125 12.9375 25.984375 
Q 12.9375 15.53125 16.9375 10.796875 
Q 20.953125 6.0625 27.390625 6.0625 
Q 32.5625 6.0625 36.03125 9.234375 
Q 39.5 12.40625 40.4375 19 
z
" id="ArialMT-99"/>
       <path d="M 3.328125 25.921875 
Q 3.328125 40.328125 11.328125 47.265625 
Q 18.015625 53.03125 27.640625 53.03125 
Q 38.328125 53.03125 45.109375 46.015625 
Q 51.90625 39.015625 51.90625 26.65625 
Q 51.90625 16.65625 48.90625 10.90625 
Q 45.90625 5.171875 40.15625 2 
Q 34.421875 -1.171875 27.640625 -1.171875 
Q 16.75 -1.171875 10.03125 5.8125 
Q 3.328125 12.796875 3.328125 25.921875 
z
M 12.359375 25.921875 
Q 12.359375 15.96875 16.703125 11.015625 
Q 21.046875 6.0625 27.640625 6.0625 
Q 34.1875 6.0625 38.53125 11.03125 
Q 42.875 16.015625 42.875 26.21875 
Q 42.875 35.84375 38.5 40.796875 
Q 34.125 45.75 27.640625 45.75 
Q 21.046875 45.75 16.703125 40.8125 
Q 12.359375 35.890625 12.359375 25.921875 
z
" id="ArialMT-111"/>
       <path d="M 6.59375 0 
L 6.59375 51.859375 
L 14.5 51.859375 
L 14.5 44.484375 
Q 20.21875 53.03125 31 53.03125 
Q 35.6875 53.03125 39.625 51.34375 
Q 43.5625 49.65625 45.515625 46.921875 
Q 47.46875 44.1875 48.25 40.4375 
Q 48.734375 37.984375 48.734375 31.890625 
L 48.734375 0 
L 39.9375 0 
L 39.9375 31.546875 
Q 39.9375 36.921875 38.90625 39.578125 
Q 37.890625 42.234375 35.28125 43.8125 
Q 32.671875 45.40625 29.15625 45.40625 
Q 23.53125 45.40625 19.453125 41.84375 
Q 15.375 38.28125 15.375 28.328125 
L 15.375 0 
z
" id="ArialMT-110"/>
       <path d="M 42.09375 16.703125 
L 51.171875 15.578125 
Q 49.03125 7.625 43.21875 3.21875 
Q 37.40625 -1.171875 28.375 -1.171875 
Q 17 -1.171875 10.328125 5.828125 
Q 3.65625 12.84375 3.65625 25.484375 
Q 3.65625 38.578125 10.390625 45.796875 
Q 17.140625 53.03125 27.875 53.03125 
Q 38.28125 53.03125 44.875 45.953125 
Q 51.46875 38.875 51.46875 26.03125 
Q 51.46875 25.25 51.421875 23.6875 
L 12.75 23.6875 
Q 13.234375 15.140625 17.578125 10.59375 
Q 21.921875 6.0625 28.421875 6.0625 
Q 33.25 6.0625 36.671875 8.59375 
Q 40.09375 11.140625 42.09375 16.703125 
z
M 13.234375 30.90625 
L 42.1875 30.90625 
Q 41.609375 37.453125 38.875 40.71875 
Q 34.671875 45.796875 27.984375 45.796875 
Q 21.921875 45.796875 17.796875 41.75 
Q 13.671875 37.703125 13.234375 30.90625 
z
" id="ArialMT-101"/>
       <path d="M 25.78125 7.859375 
L 27.046875 0.09375 
Q 23.34375 -0.6875 20.40625 -0.6875 
Q 15.625 -0.6875 12.984375 0.828125 
Q 10.359375 2.34375 9.28125 4.8125 
Q 8.203125 7.28125 8.203125 15.1875 
L 8.203125 45.015625 
L 1.765625 45.015625 
L 1.765625 51.859375 
L 8.203125 51.859375 
L 8.203125 64.703125 
L 16.9375 69.96875 
L 16.9375 51.859375 
L 25.78125 51.859375 
L 25.78125 45.015625 
L 16.9375 45.015625 
L 16.9375 14.703125 
Q 16.9375 10.9375 17.40625 9.859375 
Q 17.875 8.796875 18.921875 8.15625 
Q 19.96875 7.515625 21.921875 7.515625 
Q 23.390625 7.515625 25.78125 7.859375 
z
" id="ArialMT-116"/>
       <path d="M 6.5 0 
L 6.5 51.859375 
L 14.40625 51.859375 
L 14.40625 44 
Q 17.4375 49.515625 20 51.265625 
Q 22.5625 53.03125 25.640625 53.03125 
Q 30.078125 53.03125 34.671875 50.203125 
L 31.640625 42.046875 
Q 28.421875 43.953125 25.203125 43.953125 
Q 22.3125 43.953125 20.015625 42.21875 
Q 17.71875 40.484375 16.75 37.40625 
Q 15.28125 32.71875 15.28125 27.15625 
L 15.28125 0 
z
" id="ArialMT-114"/>
       <path d="M 40.4375 6.390625 
Q 35.546875 2.25 31.03125 0.53125 
Q 26.515625 -1.171875 21.34375 -1.171875 
Q 12.796875 -1.171875 8.203125 3 
Q 3.609375 7.171875 3.609375 13.671875 
Q 3.609375 17.484375 5.34375 20.625 
Q 7.078125 23.78125 9.890625 25.6875 
Q 12.703125 27.59375 16.21875 28.5625 
Q 18.796875 29.25 24.03125 29.890625 
Q 34.671875 31.15625 39.703125 32.90625 
Q 39.75 34.71875 39.75 35.203125 
Q 39.75 40.578125 37.25 42.78125 
Q 33.890625 45.75 27.25 45.75 
Q 21.046875 45.75 18.09375 43.578125 
Q 15.140625 41.40625 13.71875 35.890625 
L 5.125 37.0625 
Q 6.296875 42.578125 8.984375 45.96875 
Q 11.671875 49.359375 16.75 51.1875 
Q 21.828125 53.03125 28.515625 53.03125 
Q 35.15625 53.03125 39.296875 51.46875 
Q 43.453125 49.90625 45.40625 47.53125 
Q 47.359375 45.171875 48.140625 41.546875 
Q 48.578125 39.3125 48.578125 33.453125 
L 48.578125 21.734375 
Q 48.578125 9.46875 49.140625 6.21875 
Q 49.703125 2.984375 51.375 0 
L 42.1875 0 
Q 40.828125 2.734375 40.4375 6.390625 
z
M 39.703125 26.03125 
Q 34.90625 24.078125 25.34375 22.703125 
Q 19.921875 21.921875 17.671875 20.9375 
Q 15.4375 19.96875 14.203125 18.09375 
Q 12.984375 16.21875 12.984375 13.921875 
Q 12.984375 10.40625 15.640625 8.0625 
Q 18.3125 5.71875 23.4375 5.71875 
Q 28.515625 5.71875 32.46875 7.9375 
Q 36.421875 10.15625 38.28125 14.015625 
Q 39.703125 17 39.703125 22.796875 
z
" id="ArialMT-97"/>
       <path d="M 6.640625 61.46875 
L 6.640625 71.578125 
L 15.4375 71.578125 
L 15.4375 61.46875 
z
M 6.640625 0 
L 6.640625 51.859375 
L 15.4375 51.859375 
L 15.4375 0 
z
" id="ArialMT-105"/>
       <path d="M 23.390625 -21.046875 
Q 16.109375 -11.859375 11.078125 0.4375 
Q 6.0625 12.75 6.0625 25.921875 
Q 6.0625 37.546875 9.8125 48.1875 
Q 14.203125 60.546875 23.390625 72.796875 
L 29.6875 72.796875 
Q 23.78125 62.640625 21.875 58.296875 
Q 18.890625 51.5625 17.1875 44.234375 
Q 15.09375 35.109375 15.09375 25.875 
Q 15.09375 2.390625 29.6875 -21.046875 
z
" id="ArialMT-40"/>
       <path d="M 7.421875 0 
L 7.421875 71.578125 
L 21.6875 71.578125 
L 38.625 20.90625 
Q 40.96875 13.8125 42.046875 10.296875 
Q 43.265625 14.203125 45.84375 21.78125 
L 62.984375 71.578125 
L 75.734375 71.578125 
L 75.734375 0 
L 66.609375 0 
L 66.609375 59.90625 
L 45.796875 0 
L 37.25 0 
L 16.546875 60.9375 
L 16.546875 0 
z
" id="ArialMT-77"/>
       <path d="M 12.359375 -21.046875 
L 6.0625 -21.046875 
Q 20.65625 2.390625 20.65625 25.875 
Q 20.65625 35.0625 18.5625 44.09375 
Q 16.890625 51.421875 13.921875 58.15625 
Q 12.015625 62.546875 6.0625 72.796875 
L 12.359375 72.796875 
Q 21.53125 60.546875 25.921875 48.1875 
Q 29.6875 37.546875 29.6875 25.921875 
Q 29.6875 12.75 24.625 0.4375 
Q 19.578125 -11.859375 12.359375 -21.046875 
z
" id="ArialMT-41"/>
      </defs>
      <use xlink:href="#ArialMT-84"/>
      <use x="61.083984" xlink:href="#ArialMT-70"/>
      <use x="122.167969" xlink:href="#ArialMT-32"/>
      <use x="149.951172" xlink:href="#ArialMT-99"/>
      <use x="199.951172" xlink:href="#ArialMT-111"/>
      <use x="255.566406" xlink:href="#ArialMT-110"/>
      <use x="311.181641" xlink:href="#ArialMT-99"/>
      <use x="361.181641" xlink:href="#ArialMT-101"/>
      <use x="416.796875" xlink:href="#ArialMT-110"/>
      <use x="472.412109" xlink:href="#ArialMT-116"/>
      <use x="500.195312" xlink:href="#ArialMT-114"/>
      <use x="533.496094" xlink:href="#ArialMT-97"/>
      <use x="589.111328" xlink:href="#ArialMT-116"/>
      <use x="616.894531" xlink:href="#ArialMT-105"/>
      <use x="639.111328" xlink:href="#ArialMT-111"/>
      <use x="694.726562" xlink:href="#ArialMT-110"/>
      <use x="750.341797" xlink:href="#ArialMT-32"/>
      <use x="778.125" xlink:href="#ArialMT-40"/>
      <use x="811.425781" xlink:href="#ArialMT-110"/>
      <use x="867.041016" xlink:href="#ArialMT-77"/>
      <use x="950.341797" xlink:href="#ArialMT-41"/>
     </g>
    </g>
   </g>
   <g id="matplotlib.axis_2">
    <g id="ytick_1">
     <g id="line2d_30">
      <defs>
       <path d="M 0 0 
L -3.5 0 
" id="m8e879c7478" style="stroke:#000000;stroke-width:0.8;"/>
      </defs>
      <g>
       <use style="stroke:#000000;stroke-width:0.8;" x="52.675" xlink:href="#m8e879c7478" y="275.122154"/>
      </g>
     </g>
     <g id="text_6">
      <!-- 0 -->
      <g transform="translate(36.7775 280.848404)scale(0.16 -0.16)">
       <use xlink:href="#ArialMT-48"/>
      </g>
     </g>
    </g>
    <g id="ytick_2">
     <g id="line2d_31">
      <g>
       <use style="stroke:#000000;stroke-width:0.8;" x="52.675" xlink:href="#m8e879c7478" y="232.068462"/>
      </g>
     </g>
     <g id="text_7">
      <!-- 1 -->
      <g transform="translate(36.7775 237.794712)scale(0.16 -0.16)">
       <use xlink:href="#ArialMT-49"/>
      </g>
     </g>
    </g>
    <g id="ytick_3">
     <g id="line2d_32">
      <g>
       <use style="stroke:#000000;stroke-width:0.8;" x="52.675" xlink:href="#m8e879c7478" y="189.014769"/>
      </g>
     </g>
     <g id="text_8">
      <!-- 2 -->
      <g transform="translate(36.7775 194.741019)scale(0.16 -0.16)">
       <use xlink:href="#ArialMT-50"/>
      </g>
     </g>
    </g>
    <g id="ytick_4">
     <g id="line2d_33">
      <g>
       <use style="stroke:#000000;stroke-width:0.8;" x="52.675" xlink:href="#m8e879c7478" y="145.961077"/>
      </g>
     </g>
     <g id="text_9">
      <!-- 3 -->
      <g transform="translate(36.7775 151.687327)scale(0.16 -0.16)">
       <use xlink:href="#ArialMT-51"/>
      </g>
     </g>
    </g>
    <g id="ytick_5">
     <g id="line2d_34">
      <g>
       <use style="stroke:#000000;stroke-width:0.8;" x="52.675" xlink:href="#m8e879c7478" y="102.907385"/>
      </g>
     </g>
     <g id="text_10">
      <!-- 4 -->
      <g transform="translate(36.7775 108.633635)scale(0.16 -0.16)">
       <defs>
        <path d="M 32.328125 0 
L 32.328125 17.140625 
L 1.265625 17.140625 
L 1.265625 25.203125 
L 33.9375 71.578125 
L 41.109375 71.578125 
L 41.109375 25.203125 
L 50.78125 25.203125 
L 50.78125 17.140625 
L 41.109375 17.140625 
L 41.109375 0 
z
M 32.328125 25.203125 
L 32.328125 57.46875 
L 9.90625 25.203125 
z
" id="ArialMT-52"/>
       </defs>
       <use xlink:href="#ArialMT-52"/>
      </g>
     </g>
    </g>
    <g id="ytick_6">
     <g id="line2d_35">
      <g>
       <use style="stroke:#000000;stroke-width:0.8;" x="52.675" xlink:href="#m8e879c7478" y="59.853692"/>
      </g>
     </g>
     <g id="text_11">
      <!-- 5 -->
      <g transform="translate(36.7775 65.579942)scale(0.16 -0.16)">
       <defs>
        <path d="M 4.15625 18.75 
L 13.375 19.53125 
Q 14.40625 12.796875 18.140625 9.390625 
Q 21.875 6 27.15625 6 
Q 33.5 6 37.890625 10.78125 
Q 42.28125 15.578125 42.28125 23.484375 
Q 42.28125 31 38.0625 35.34375 
Q 33.84375 39.703125 27 39.703125 
Q 22.75 39.703125 19.328125 37.765625 
Q 15.921875 35.84375 13.96875 32.765625 
L 5.71875 33.84375 
L 12.640625 70.609375 
L 48.25 70.609375 
L 48.25 62.203125 
L 19.671875 62.203125 
L 15.828125 42.96875 
Q 22.265625 47.46875 29.34375 47.46875 
Q 38.71875 47.46875 45.15625 40.96875 
Q 51.609375 34.46875 51.609375 24.265625 
Q 51.609375 14.546875 45.953125 7.46875 
Q 39.0625 -1.21875 27.15625 -1.21875 
Q 17.390625 -1.21875 11.203125 4.25 
Q 5.03125 9.71875 4.15625 18.75 
z
" id="ArialMT-53"/>
       </defs>
       <use xlink:href="#ArialMT-53"/>
      </g>
     </g>
    </g>
    <g id="ytick_7">
     <g id="line2d_36">
      <g>
       <use style="stroke:#000000;stroke-width:0.8;" x="52.675" xlink:href="#m8e879c7478" y="16.8"/>
      </g>
     </g>
     <g id="text_12">
      <!-- 6 -->
      <g transform="translate(36.7775 22.52625)scale(0.16 -0.16)">
       <defs>
        <path d="M 49.75 54.046875 
L 41.015625 53.375 
Q 39.84375 58.546875 37.703125 60.890625 
Q 34.125 64.65625 28.90625 64.65625 
Q 24.703125 64.65625 21.53125 62.3125 
Q 17.390625 59.28125 14.984375 53.46875 
Q 12.59375 47.65625 12.5 36.921875 
Q 15.671875 41.75 20.265625 44.09375 
Q 24.859375 46.4375 29.890625 46.4375 
Q 38.671875 46.4375 44.84375 39.96875 
Q 51.03125 33.5 51.03125 23.25 
Q 51.03125 16.5 48.125 10.71875 
Q 45.21875 4.9375 40.140625 1.859375 
Q 35.0625 -1.21875 28.609375 -1.21875 
Q 17.625 -1.21875 10.6875 6.859375 
Q 3.765625 14.9375 3.765625 33.5 
Q 3.765625 54.25 11.421875 63.671875 
Q 18.109375 71.875 29.4375 71.875 
Q 37.890625 71.875 43.28125 67.140625 
Q 48.6875 62.40625 49.75 54.046875 
z
M 13.875 23.1875 
Q 13.875 18.65625 15.796875 14.5 
Q 17.71875 10.359375 21.1875 8.171875 
Q 24.65625 6 28.46875 6 
Q 34.03125 6 38.03125 10.484375 
Q 42.046875 14.984375 42.046875 22.703125 
Q 42.046875 30.125 38.078125 34.390625 
Q 34.125 38.671875 28.125 38.671875 
Q 22.171875 38.671875 18.015625 34.390625 
Q 13.875 30.125 13.875 23.1875 
z
" id="ArialMT-54"/>
       </defs>
       <use xlink:href="#ArialMT-54"/>
      </g>
     </g>
    </g>
    <g id="text_13">
     <!-- $\langle$N$\rangle$, Mean occupancy -->
     <g transform="translate(28.8175 243.3045)rotate(-90)scale(0.18 -0.18)">
      <defs>
       <path d="M 8.9375 31.34375 
L 22.703125 75.875 
L 31 75.875 
L 17.234375 31.34375 
L 31 -13.1875 
L 22.703125 -13.1875 
z
" id="DejaVuSans-10216"/>
       <path d="M 7.625 0 
L 7.625 71.578125 
L 17.328125 71.578125 
L 54.9375 15.375 
L 54.9375 71.578125 
L 64.015625 71.578125 
L 64.015625 0 
L 54.296875 0 
L 16.703125 56.25 
L 16.703125 0 
z
" id="ArialMT-78"/>
       <path d="M 30.078125 31.34375 
L 16.3125 -13.1875 
L 8.015625 -13.1875 
L 21.78125 31.34375 
L 8.015625 75.875 
L 16.3125 75.875 
z
" id="DejaVuSans-10217"/>
       <path d="M 8.890625 0 
L 8.890625 10.015625 
L 18.890625 10.015625 
L 18.890625 0 
Q 18.890625 -5.515625 16.9375 -8.90625 
Q 14.984375 -12.3125 10.75 -14.15625 
L 8.296875 -10.40625 
Q 11.078125 -9.1875 12.390625 -6.8125 
Q 13.71875 -4.4375 13.875 0 
z
" id="ArialMT-44"/>
       <path d="M 40.578125 0 
L 40.578125 7.625 
Q 34.515625 -1.171875 24.125 -1.171875 
Q 19.53125 -1.171875 15.546875 0.578125 
Q 11.578125 2.34375 9.640625 5 
Q 7.71875 7.671875 6.9375 11.53125 
Q 6.390625 14.109375 6.390625 19.734375 
L 6.390625 51.859375 
L 15.1875 51.859375 
L 15.1875 23.09375 
Q 15.1875 16.21875 15.71875 13.8125 
Q 16.546875 10.359375 19.234375 8.375 
Q 21.921875 6.390625 25.875 6.390625 
Q 29.828125 6.390625 33.296875 8.421875 
Q 36.765625 10.453125 38.203125 13.9375 
Q 39.65625 17.4375 39.65625 24.078125 
L 39.65625 51.859375 
L 48.4375 51.859375 
L 48.4375 0 
z
" id="ArialMT-117"/>
       <path d="M 6.59375 -19.875 
L 6.59375 51.859375 
L 14.59375 51.859375 
L 14.59375 45.125 
Q 17.4375 49.078125 21 51.046875 
Q 24.5625 53.03125 29.640625 53.03125 
Q 36.28125 53.03125 41.359375 49.609375 
Q 46.4375 46.1875 49.015625 39.953125 
Q 51.609375 33.734375 51.609375 26.3125 
Q 51.609375 18.359375 48.75 11.984375 
Q 45.90625 5.609375 40.453125 2.21875 
Q 35.015625 -1.171875 29 -1.171875 
Q 24.609375 -1.171875 21.109375 0.6875 
Q 17.625 2.546875 15.375 5.375 
L 15.375 -19.875 
z
M 14.546875 25.640625 
Q 14.546875 15.625 18.59375 10.84375 
Q 22.65625 6.0625 28.421875 6.0625 
Q 34.28125 6.0625 38.453125 11.015625 
Q 42.625 15.96875 42.625 26.375 
Q 42.625 36.28125 38.546875 41.203125 
Q 34.46875 46.140625 28.8125 46.140625 
Q 23.1875 46.140625 18.859375 40.890625 
Q 14.546875 35.640625 14.546875 25.640625 
z
" id="ArialMT-112"/>
       <path d="M 6.203125 -19.96875 
L 5.21875 -11.71875 
Q 8.109375 -12.5 10.25 -12.5 
Q 13.1875 -12.5 14.9375 -11.515625 
Q 16.703125 -10.546875 17.828125 -8.796875 
Q 18.65625 -7.46875 20.515625 -2.25 
Q 20.75 -1.515625 21.296875 -0.09375 
L 1.609375 51.859375 
L 11.078125 51.859375 
L 21.875 21.828125 
Q 23.96875 16.109375 25.640625 9.8125 
Q 27.15625 15.875 29.25 21.625 
L 40.328125 51.859375 
L 49.125 51.859375 
L 29.390625 -0.875 
Q 26.21875 -9.421875 24.46875 -12.640625 
Q 22.125 -17 19.09375 -19.015625 
Q 16.0625 -21.046875 11.859375 -21.046875 
Q 9.328125 -21.046875 6.203125 -19.96875 
z
" id="ArialMT-121"/>
      </defs>
      <use transform="translate(0 0.125)" xlink:href="#DejaVuSans-10216"/>
      <use transform="translate(39.013672 0.125)" xlink:href="#ArialMT-78"/>
      <use transform="translate(111.230469 0.125)" xlink:href="#DejaVuSans-10217"/>
      <use transform="translate(150.244141 0.125)" xlink:href="#ArialMT-44"/>
      <use transform="translate(178.027344 0.125)" xlink:href="#ArialMT-32"/>
      <use transform="translate(205.810547 0.125)" xlink:href="#ArialMT-77"/>
      <use transform="translate(289.111328 0.125)" xlink:href="#ArialMT-101"/>
      <use transform="translate(344.726562 0.125)" xlink:href="#ArialMT-97"/>
      <use transform="translate(400.341797 0.125)" xlink:href="#ArialMT-110"/>
      <use transform="translate(455.957031 0.125)" xlink:href="#ArialMT-32"/>
      <use transform="translate(483.740234 0.125)" xlink:href="#ArialMT-111"/>
      <use transform="translate(539.355469 0.125)" xlink:href="#ArialMT-99"/>
      <use transform="translate(589.355469 0.125)" xlink:href="#ArialMT-99"/>
      <use transform="translate(639.355469 0.125)" xlink:href="#ArialMT-117"/>
      <use transform="translate(694.970703 0.125)" xlink:href="#ArialMT-112"/>
      <use transform="translate(750.585938 0.125)" xlink:href="#ArialMT-97"/>
      <use transform="translate(806.201172 0.125)" xlink:href="#ArialMT-110"/>
      <use transform="translate(861.816406 0.125)" xlink:href="#ArialMT-99"/>
      <use transform="translate(911.816406 0.125)" xlink:href="#ArialMT-121"/>
     </g>
    </g>
   </g>
   <g id="patch_3">
    <path d="M 52.675 296.649 
L 52.675 16.8 
" style="fill:none;stroke:#000000;stroke-linecap:square;stroke-linejoin:miter;stroke-width:0.8;"/>
   </g>
   <g id="patch_4">
    <path d="M 349.2 296.649 
L 349.2 16.8 
" style="fill:none;stroke:#000000;stroke-linecap:square;stroke-linejoin:miter;stroke-width:0.8;"/>
   </g>
   <g id="patch_5">
    <path d="M 52.675 296.649 
L 349.2 296.649 
" style="fill:none;stroke:#000000;stroke-linecap:square;stroke-linejoin:miter;stroke-width:0.8;"/>
   </g>
   <g id="patch_6">
    <path d="M 52.675 16.8 
L 349.2 16.8 
" style="fill:none;stroke:#000000;stroke-linecap:square;stroke-linejoin:miter;stroke-width:0.8;"/>
   </g>
  </g>
 </g>
 <defs>
  <clipPath id="p811487c6aa">
   <rect height="279.849" width="296.525" x="52.675" y="16.8"/>
  </clipPath>
 </defs>
</svg>
