<?xml version="1.0" encoding="utf-8" standalone="no"?>
<!DOCTYPE svg PUBLIC "-//W3C//DTD SVG 1.1//EN"
  "http://www.w3.org/Graphics/SVG/1.1/DTD/svg11.dtd">
<!-- Created with matplotlib (https://matplotlib.org/) -->
<svg height="360pt" version="1.1" viewBox="0 0 432 360" width="432pt" xmlns="http://www.w3.org/2000/svg" xmlns:xlink="http://www.w3.org/1999/xlink">
 <metadata>
  <rdf:RDF xmlns:cc="http://creativecommons.org/ns#" xmlns:dc="http://purl.org/dc/elements/1.1/" xmlns:rdf="http://www.w3.org/1999/02/22-rdf-syntax-ns#">
   <cc:Work>
    <dc:type rdf:resource="http://purl.org/dc/dcmitype/StillImage"/>
    <dc:date>2022-02-14T00:07:11.051479</dc:date>
    <dc:format>image/svg+xml</dc:format>
    <dc:creator>
     <cc:Agent>
      <dc:title>Matplotlib v3.3.4, https://matplotlib.org/</dc:title>
     </cc:Agent>
    </dc:creator>
   </cc:Work>
  </rdf:RDF>
 </metadata>
 <defs>
  <style type="text/css">*{stroke-linecap:butt;stroke-linejoin:round;}</style>
 </defs>
 <g id="figure_1">
  <g id="patch_1">
   <path d="M 0 360 
L 432 360 
L 432 0 
L 0 0 
z
" style="fill:#ffffff;"/>
  </g>
  <g id="axes_1">
   <g id="patch_2">
    <path d="M 54 315 
L 388.8 315 
L 388.8 43.2 
L 54 43.2 
z
" style="fill:#ffffff;"/>
   </g>
   <g id="matplotlib.axis_1">
    <g id="xtick_1">
     <g id="line2d_1">
      <defs>
       <path d="M 0 0 
L 0 6 
" id="mc24ef5f3f5" style="stroke:#262626;stroke-width:1.25;"/>
      </defs>
      <g>
       <use style="fill:#262626;stroke:#262626;stroke-width:1.25;" x="106.863158" xlink:href="#mc24ef5f3f5" y="315"/>
      </g>
     </g>
     <g id="text_1">
      <!-- 2 -->
      <g style="fill:#262626;" transform="translate(102.414408 335.9525)scale(0.16 -0.16)">
       <defs>
        <path d="M 50.34375 8.453125 
L 50.34375 0 
L 3.03125 0 
Q 2.9375 3.171875 4.046875 6.109375 
Q 5.859375 10.9375 9.828125 15.625 
Q 13.8125 20.3125 21.34375 26.46875 
Q 33.015625 36.03125 37.109375 41.625 
Q 41.21875 47.21875 41.21875 52.203125 
Q 41.21875 57.421875 37.46875 61 
Q 33.734375 64.59375 27.734375 64.59375 
Q 21.390625 64.59375 17.578125 60.78125 
Q 13.765625 56.984375 13.71875 50.25 
L 4.6875 51.171875 
Q 5.609375 61.28125 11.65625 66.578125 
Q 17.71875 71.875 27.9375 71.875 
Q 38.234375 71.875 44.234375 66.15625 
Q 50.25 60.453125 50.25 52 
Q 50.25 47.703125 48.484375 43.546875 
Q 46.734375 39.40625 42.65625 34.8125 
Q 38.578125 30.21875 29.109375 22.21875 
Q 21.1875 15.578125 18.9375 13.203125 
Q 16.703125 10.84375 15.234375 8.453125 
z
" id="ArialMT-50"/>
       </defs>
       <use xlink:href="#ArialMT-50"/>
      </g>
     </g>
    </g>
    <g id="xtick_2">
     <g id="line2d_2">
      <g>
       <use style="fill:#262626;stroke:#262626;stroke-width:1.25;" x="177.347368" xlink:href="#mc24ef5f3f5" y="315"/>
      </g>
     </g>
     <g id="text_2">
      <!-- 4 -->
      <g style="fill:#262626;" transform="translate(172.898618 335.9525)scale(0.16 -0.16)">
       <defs>
        <path d="M 32.328125 0 
L 32.328125 17.140625 
L 1.265625 17.140625 
L 1.265625 25.203125 
L 33.9375 71.578125 
L 41.109375 71.578125 
L 41.109375 25.203125 
L 50.78125 25.203125 
L 50.78125 17.140625 
L 41.109375 17.140625 
L 41.109375 0 
z
M 32.328125 25.203125 
L 32.328125 57.46875 
L 9.90625 25.203125 
z
" id="ArialMT-52"/>
       </defs>
       <use xlink:href="#ArialMT-52"/>
      </g>
     </g>
    </g>
    <g id="xtick_3">
     <g id="line2d_3">
      <g>
       <use style="fill:#262626;stroke:#262626;stroke-width:1.25;" x="247.831579" xlink:href="#mc24ef5f3f5" y="315"/>
      </g>
     </g>
     <g id="text_3">
      <!-- 6 -->
      <g style="fill:#262626;" transform="translate(243.382829 335.9525)scale(0.16 -0.16)">
       <defs>
        <path d="M 49.75 54.046875 
L 41.015625 53.375 
Q 39.84375 58.546875 37.703125 60.890625 
Q 34.125 64.65625 28.90625 64.65625 
Q 24.703125 64.65625 21.53125 62.3125 
Q 17.390625 59.28125 14.984375 53.46875 
Q 12.59375 47.65625 12.5 36.921875 
Q 15.671875 41.75 20.265625 44.09375 
Q 24.859375 46.4375 29.890625 46.4375 
Q 38.671875 46.4375 44.84375 39.96875 
Q 51.03125 33.5 51.03125 23.25 
Q 51.03125 16.5 48.125 10.71875 
Q 45.21875 4.9375 40.140625 1.859375 
Q 35.0625 -1.21875 28.609375 -1.21875 
Q 17.625 -1.21875 10.6875 6.859375 
Q 3.765625 14.9375 3.765625 33.5 
Q 3.765625 54.25 11.421875 63.671875 
Q 18.109375 71.875 29.4375 71.875 
Q 37.890625 71.875 43.28125 67.140625 
Q 48.6875 62.40625 49.75 54.046875 
z
M 13.875 23.1875 
Q 13.875 18.65625 15.796875 14.5 
Q 17.71875 10.359375 21.1875 8.171875 
Q 24.65625 6 28.46875 6 
Q 34.03125 6 38.03125 10.484375 
Q 42.046875 14.984375 42.046875 22.703125 
Q 42.046875 30.125 38.078125 34.390625 
Q 34.125 38.671875 28.125 38.671875 
Q 22.171875 38.671875 18.015625 34.390625 
Q 13.875 30.125 13.875 23.1875 
z
" id="ArialMT-54"/>
       </defs>
       <use xlink:href="#ArialMT-54"/>
      </g>
     </g>
    </g>
    <g id="xtick_4">
     <g id="line2d_4">
      <g>
       <use style="fill:#262626;stroke:#262626;stroke-width:1.25;" x="318.315789" xlink:href="#mc24ef5f3f5" y="315"/>
      </g>
     </g>
     <g id="text_4">
      <!-- 8 -->
      <g style="fill:#262626;" transform="translate(313.867039 335.9525)scale(0.16 -0.16)">
       <defs>
        <path d="M 17.671875 38.8125 
Q 12.203125 40.828125 9.5625 44.53125 
Q 6.9375 48.25 6.9375 53.421875 
Q 6.9375 61.234375 12.546875 66.546875 
Q 18.171875 71.875 27.484375 71.875 
Q 36.859375 71.875 42.578125 66.421875 
Q 48.296875 60.984375 48.296875 53.171875 
Q 48.296875 48.1875 45.671875 44.5 
Q 43.0625 40.828125 37.75 38.8125 
Q 44.34375 36.671875 47.78125 31.875 
Q 51.21875 27.09375 51.21875 20.453125 
Q 51.21875 11.28125 44.71875 5.03125 
Q 38.234375 -1.21875 27.640625 -1.21875 
Q 17.046875 -1.21875 10.546875 5.046875 
Q 4.046875 11.328125 4.046875 20.703125 
Q 4.046875 27.6875 7.59375 32.390625 
Q 11.140625 37.109375 17.671875 38.8125 
z
M 15.921875 53.71875 
Q 15.921875 48.640625 19.1875 45.40625 
Q 22.46875 42.1875 27.6875 42.1875 
Q 32.765625 42.1875 36.015625 45.375 
Q 39.265625 48.578125 39.265625 53.21875 
Q 39.265625 58.0625 35.90625 61.359375 
Q 32.5625 64.65625 27.59375 64.65625 
Q 22.5625 64.65625 19.234375 61.421875 
Q 15.921875 58.203125 15.921875 53.71875 
z
M 13.09375 20.65625 
Q 13.09375 16.890625 14.875 13.375 
Q 16.65625 9.859375 20.171875 7.921875 
Q 23.6875 6 27.734375 6 
Q 34.03125 6 38.125 10.046875 
Q 42.234375 14.109375 42.234375 20.359375 
Q 42.234375 26.703125 38.015625 30.859375 
Q 33.796875 35.015625 27.4375 35.015625 
Q 21.234375 35.015625 17.15625 30.90625 
Q 13.09375 26.8125 13.09375 20.65625 
z
" id="ArialMT-56"/>
       </defs>
       <use xlink:href="#ArialMT-56"/>
      </g>
     </g>
    </g>
    <g id="xtick_5">
     <g id="line2d_5">
      <g>
       <use style="fill:#262626;stroke:#262626;stroke-width:1.25;" x="388.8" xlink:href="#mc24ef5f3f5" y="315"/>
      </g>
     </g>
     <g id="text_5">
      <!-- 10 -->
      <g style="fill:#262626;" transform="translate(379.9025 335.9525)scale(0.16 -0.16)">
       <defs>
        <path d="M 37.25 0 
L 28.46875 0 
L 28.46875 56 
Q 25.296875 52.984375 20.140625 49.953125 
Q 14.984375 46.921875 10.890625 45.40625 
L 10.890625 53.90625 
Q 18.265625 57.375 23.78125 62.296875 
Q 29.296875 67.234375 31.59375 71.875 
L 37.25 71.875 
z
" id="ArialMT-49"/>
        <path d="M 4.15625 35.296875 
Q 4.15625 48 6.765625 55.734375 
Q 9.375 63.484375 14.515625 67.671875 
Q 19.671875 71.875 27.484375 71.875 
Q 33.25 71.875 37.59375 69.546875 
Q 41.9375 67.234375 44.765625 62.859375 
Q 47.609375 58.5 49.21875 52.21875 
Q 50.828125 45.953125 50.828125 35.296875 
Q 50.828125 22.703125 48.234375 14.96875 
Q 45.65625 7.234375 40.5 3 
Q 35.359375 -1.21875 27.484375 -1.21875 
Q 17.140625 -1.21875 11.234375 6.203125 
Q 4.15625 15.140625 4.15625 35.296875 
z
M 13.1875 35.296875 
Q 13.1875 17.671875 17.3125 11.828125 
Q 21.4375 6 27.484375 6 
Q 33.546875 6 37.671875 11.859375 
Q 41.796875 17.71875 41.796875 35.296875 
Q 41.796875 52.984375 37.671875 58.78125 
Q 33.546875 64.59375 27.390625 64.59375 
Q 21.34375 64.59375 17.71875 59.46875 
Q 13.1875 52.9375 13.1875 35.296875 
z
" id="ArialMT-48"/>
       </defs>
       <use xlink:href="#ArialMT-49"/>
       <use x="55.615234" xlink:href="#ArialMT-48"/>
      </g>
     </g>
    </g>
    <g id="text_6">
     <!-- Time (hours) -->
     <g style="fill:#262626;" transform="translate(170.734219 356.235937)scale(0.18 -0.18)">
      <defs>
       <path d="M 25.921875 0 
L 25.921875 63.140625 
L 2.34375 63.140625 
L 2.34375 71.578125 
L 59.078125 71.578125 
L 59.078125 63.140625 
L 35.40625 63.140625 
L 35.40625 0 
z
" id="ArialMT-84"/>
       <path d="M 6.640625 61.46875 
L 6.640625 71.578125 
L 15.4375 71.578125 
L 15.4375 61.46875 
z
M 6.640625 0 
L 6.640625 51.859375 
L 15.4375 51.859375 
L 15.4375 0 
z
" id="ArialMT-105"/>
       <path d="M 6.59375 0 
L 6.59375 51.859375 
L 14.453125 51.859375 
L 14.453125 44.578125 
Q 16.890625 48.390625 20.9375 50.703125 
Q 25 53.03125 30.171875 53.03125 
Q 35.9375 53.03125 39.625 50.640625 
Q 43.3125 48.25 44.828125 43.953125 
Q 50.984375 53.03125 60.84375 53.03125 
Q 68.5625 53.03125 72.703125 48.75 
Q 76.859375 44.484375 76.859375 35.59375 
L 76.859375 0 
L 68.109375 0 
L 68.109375 32.671875 
Q 68.109375 37.9375 67.25 40.25 
Q 66.40625 42.578125 64.15625 43.984375 
Q 61.921875 45.40625 58.890625 45.40625 
Q 53.421875 45.40625 49.796875 41.765625 
Q 46.1875 38.140625 46.1875 30.125 
L 46.1875 0 
L 37.40625 0 
L 37.40625 33.6875 
Q 37.40625 39.546875 35.25 42.46875 
Q 33.109375 45.40625 28.21875 45.40625 
Q 24.515625 45.40625 21.359375 43.453125 
Q 18.21875 41.5 16.796875 37.734375 
Q 15.375 33.984375 15.375 26.90625 
L 15.375 0 
z
" id="ArialMT-109"/>
       <path d="M 42.09375 16.703125 
L 51.171875 15.578125 
Q 49.03125 7.625 43.21875 3.21875 
Q 37.40625 -1.171875 28.375 -1.171875 
Q 17 -1.171875 10.328125 5.828125 
Q 3.65625 12.84375 3.65625 25.484375 
Q 3.65625 38.578125 10.390625 45.796875 
Q 17.140625 53.03125 27.875 53.03125 
Q 38.28125 53.03125 44.875 45.953125 
Q 51.46875 38.875 51.46875 26.03125 
Q 51.46875 25.25 51.421875 23.6875 
L 12.75 23.6875 
Q 13.234375 15.140625 17.578125 10.59375 
Q 21.921875 6.0625 28.421875 6.0625 
Q 33.25 6.0625 36.671875 8.59375 
Q 40.09375 11.140625 42.09375 16.703125 
z
M 13.234375 30.90625 
L 42.1875 30.90625 
Q 41.609375 37.453125 38.875 40.71875 
Q 34.671875 45.796875 27.984375 45.796875 
Q 21.921875 45.796875 17.796875 41.75 
Q 13.671875 37.703125 13.234375 30.90625 
z
" id="ArialMT-101"/>
       <path id="ArialMT-32"/>
       <path d="M 23.390625 -21.046875 
Q 16.109375 -11.859375 11.078125 0.4375 
Q 6.0625 12.75 6.0625 25.921875 
Q 6.0625 37.546875 9.8125 48.1875 
Q 14.203125 60.546875 23.390625 72.796875 
L 29.6875 72.796875 
Q 23.78125 62.640625 21.875 58.296875 
Q 18.890625 51.5625 17.1875 44.234375 
Q 15.09375 35.109375 15.09375 25.875 
Q 15.09375 2.390625 29.6875 -21.046875 
z
" id="ArialMT-40"/>
       <path d="M 6.59375 0 
L 6.59375 71.578125 
L 15.375 71.578125 
L 15.375 45.90625 
Q 21.53125 53.03125 30.90625 53.03125 
Q 36.671875 53.03125 40.921875 50.75 
Q 45.171875 48.484375 47 44.484375 
Q 48.828125 40.484375 48.828125 32.859375 
L 48.828125 0 
L 40.046875 0 
L 40.046875 32.859375 
Q 40.046875 39.453125 37.1875 42.453125 
Q 34.328125 45.453125 29.109375 45.453125 
Q 25.203125 45.453125 21.75 43.421875 
Q 18.3125 41.40625 16.84375 37.9375 
Q 15.375 34.46875 15.375 28.375 
L 15.375 0 
z
" id="ArialMT-104"/>
       <path d="M 3.328125 25.921875 
Q 3.328125 40.328125 11.328125 47.265625 
Q 18.015625 53.03125 27.640625 53.03125 
Q 38.328125 53.03125 45.109375 46.015625 
Q 51.90625 39.015625 51.90625 26.65625 
Q 51.90625 16.65625 48.90625 10.90625 
Q 45.90625 5.171875 40.15625 2 
Q 34.421875 -1.171875 27.640625 -1.171875 
Q 16.75 -1.171875 10.03125 5.8125 
Q 3.328125 12.796875 3.328125 25.921875 
z
M 12.359375 25.921875 
Q 12.359375 15.96875 16.703125 11.015625 
Q 21.046875 6.0625 27.640625 6.0625 
Q 34.1875 6.0625 38.53125 11.03125 
Q 42.875 16.015625 42.875 26.21875 
Q 42.875 35.84375 38.5 40.796875 
Q 34.125 45.75 27.640625 45.75 
Q 21.046875 45.75 16.703125 40.8125 
Q 12.359375 35.890625 12.359375 25.921875 
z
" id="ArialMT-111"/>
       <path d="M 40.578125 0 
L 40.578125 7.625 
Q 34.515625 -1.171875 24.125 -1.171875 
Q 19.53125 -1.171875 15.546875 0.578125 
Q 11.578125 2.34375 9.640625 5 
Q 7.71875 7.671875 6.9375 11.53125 
Q 6.390625 14.109375 6.390625 19.734375 
L 6.390625 51.859375 
L 15.1875 51.859375 
L 15.1875 23.09375 
Q 15.1875 16.21875 15.71875 13.8125 
Q 16.546875 10.359375 19.234375 8.375 
Q 21.921875 6.390625 25.875 6.390625 
Q 29.828125 6.390625 33.296875 8.421875 
Q 36.765625 10.453125 38.203125 13.9375 
Q 39.65625 17.4375 39.65625 24.078125 
L 39.65625 51.859375 
L 48.4375 51.859375 
L 48.4375 0 
z
" id="ArialMT-117"/>
       <path d="M 6.5 0 
L 6.5 51.859375 
L 14.40625 51.859375 
L 14.40625 44 
Q 17.4375 49.515625 20 51.265625 
Q 22.5625 53.03125 25.640625 53.03125 
Q 30.078125 53.03125 34.671875 50.203125 
L 31.640625 42.046875 
Q 28.421875 43.953125 25.203125 43.953125 
Q 22.3125 43.953125 20.015625 42.21875 
Q 17.71875 40.484375 16.75 37.40625 
Q 15.28125 32.71875 15.28125 27.15625 
L 15.28125 0 
z
" id="ArialMT-114"/>
       <path d="M 3.078125 15.484375 
L 11.765625 16.84375 
Q 12.5 11.625 15.84375 8.84375 
Q 19.1875 6.0625 25.203125 6.0625 
Q 31.25 6.0625 34.171875 8.515625 
Q 37.109375 10.984375 37.109375 14.3125 
Q 37.109375 17.28125 34.515625 19 
Q 32.71875 20.171875 25.53125 21.96875 
Q 15.875 24.421875 12.140625 26.203125 
Q 8.40625 27.984375 6.46875 31.125 
Q 4.546875 34.28125 4.546875 38.09375 
Q 4.546875 41.546875 6.125 44.5 
Q 7.71875 47.46875 10.453125 49.421875 
Q 12.5 50.921875 16.03125 51.96875 
Q 19.578125 53.03125 23.640625 53.03125 
Q 29.734375 53.03125 34.34375 51.265625 
Q 38.96875 49.515625 41.15625 46.5 
Q 43.359375 43.5 44.1875 38.484375 
L 35.59375 37.3125 
Q 35.015625 41.3125 32.203125 43.546875 
Q 29.390625 45.796875 24.265625 45.796875 
Q 18.21875 45.796875 15.625 43.796875 
Q 13.03125 41.796875 13.03125 39.109375 
Q 13.03125 37.40625 14.109375 36.03125 
Q 15.1875 34.625 17.484375 33.6875 
Q 18.796875 33.203125 25.25 31.453125 
Q 34.578125 28.953125 38.25 27.359375 
Q 41.9375 25.78125 44.03125 22.75 
Q 46.140625 19.734375 46.140625 15.234375 
Q 46.140625 10.84375 43.578125 6.953125 
Q 41.015625 3.078125 36.171875 0.953125 
Q 31.34375 -1.171875 25.25 -1.171875 
Q 15.140625 -1.171875 9.84375 3.03125 
Q 4.546875 7.234375 3.078125 15.484375 
z
" id="ArialMT-115"/>
       <path d="M 12.359375 -21.046875 
L 6.0625 -21.046875 
Q 20.65625 2.390625 20.65625 25.875 
Q 20.65625 35.0625 18.5625 44.09375 
Q 16.890625 51.421875 13.921875 58.15625 
Q 12.015625 62.546875 6.0625 72.796875 
L 12.359375 72.796875 
Q 21.53125 60.546875 25.921875 48.1875 
Q 29.6875 37.546875 29.6875 25.921875 
Q 29.6875 12.75 24.625 0.4375 
Q 19.578125 -11.859375 12.359375 -21.046875 
z
" id="ArialMT-41"/>
      </defs>
      <use xlink:href="#ArialMT-84"/>
      <use x="57.333984" xlink:href="#ArialMT-105"/>
      <use x="79.550781" xlink:href="#ArialMT-109"/>
      <use x="162.851562" xlink:href="#ArialMT-101"/>
      <use x="218.466797" xlink:href="#ArialMT-32"/>
      <use x="246.25" xlink:href="#ArialMT-40"/>
      <use x="279.550781" xlink:href="#ArialMT-104"/>
      <use x="335.166016" xlink:href="#ArialMT-111"/>
      <use x="390.78125" xlink:href="#ArialMT-117"/>
      <use x="446.396484" xlink:href="#ArialMT-114"/>
      <use x="479.697266" xlink:href="#ArialMT-115"/>
      <use x="529.697266" xlink:href="#ArialMT-41"/>
     </g>
    </g>
   </g>
   <g id="matplotlib.axis_2">
    <g id="ytick_1">
     <g id="line2d_6">
      <path clip-path="url(#pd090b765a4)" d="M 54 315 
L 388.8 315 
" style="fill:none;stroke:#cccccc;stroke-linecap:round;"/>
     </g>
     <g id="line2d_7">
      <defs>
       <path d="M 0 0 
L -6 0 
" id="mb531d6de2e" style="stroke:#262626;stroke-width:1.25;"/>
      </defs>
      <g>
       <use style="fill:#262626;stroke:#262626;stroke-width:1.25;" x="54" xlink:href="#mb531d6de2e" y="315"/>
      </g>
     </g>
     <g id="text_7">
      <!-- $\mathdefault{10^{-2}}$ -->
      <g style="fill:#262626;" transform="translate(12.82 323.25)scale(0.16 -0.16)">
       <defs>
        <path d="M 52.828125 31.203125 
L 5.5625 31.203125 
L 5.5625 39.40625 
L 52.828125 39.40625 
z
" id="ArialMT-8722"/>
       </defs>
       <use transform="translate(0 0.99375)" xlink:href="#ArialMT-49"/>
       <use transform="translate(55.615234 0.99375)" xlink:href="#ArialMT-48"/>
       <use transform="translate(112.972813 70.6875)scale(0.7)" xlink:href="#ArialMT-8722"/>
       <use transform="translate(153.851719 70.6875)scale(0.7)" xlink:href="#ArialMT-50"/>
      </g>
     </g>
    </g>
    <g id="ytick_2">
     <g id="line2d_8">
      <path clip-path="url(#pd090b765a4)" d="M 54 196.878984 
L 388.8 196.878984 
" style="fill:none;stroke:#cccccc;stroke-linecap:round;"/>
     </g>
     <g id="line2d_9">
      <g>
       <use style="fill:#262626;stroke:#262626;stroke-width:1.25;" x="54" xlink:href="#mb531d6de2e" y="196.878984"/>
      </g>
     </g>
     <g id="text_8">
      <!-- $\mathdefault{10^{-1}}$ -->
      <g style="fill:#262626;" transform="translate(12.82 205.128984)scale(0.16 -0.16)">
       <use transform="translate(0 0.99375)" xlink:href="#ArialMT-49"/>
       <use transform="translate(55.615234 0.99375)" xlink:href="#ArialMT-48"/>
       <use transform="translate(112.972813 70.6875)scale(0.7)" xlink:href="#ArialMT-8722"/>
       <use transform="translate(153.851719 70.6875)scale(0.7)" xlink:href="#ArialMT-49"/>
      </g>
     </g>
    </g>
    <g id="ytick_3">
     <g id="line2d_10">
      <path clip-path="url(#pd090b765a4)" d="M 54 78.757969 
L 388.8 78.757969 
" style="fill:none;stroke:#cccccc;stroke-linecap:round;"/>
     </g>
     <g id="line2d_11">
      <g>
       <use style="fill:#262626;stroke:#262626;stroke-width:1.25;" x="54" xlink:href="#mb531d6de2e" y="78.757969"/>
      </g>
     </g>
     <g id="text_9">
      <!-- $\mathdefault{10^{0}}$ -->
      <g style="fill:#262626;" transform="translate(19.38 87.007969)scale(0.16 -0.16)">
       <use transform="translate(0 0.99375)" xlink:href="#ArialMT-49"/>
       <use transform="translate(55.615234 0.99375)" xlink:href="#ArialMT-48"/>
       <use transform="translate(112.972813 70.6875)scale(0.7)" xlink:href="#ArialMT-48"/>
      </g>
     </g>
    </g>
    <g id="ytick_4">
     <g id="line2d_12">
      <path clip-path="url(#pd090b765a4)" d="M 54 279.442031 
L 388.8 279.442031 
" style="fill:none;stroke:#cccccc;stroke-linecap:round;"/>
     </g>
     <g id="line2d_13">
      <defs>
       <path d="M 0 0 
L -4 0 
" id="mb7b203a68f" style="stroke:#262626;"/>
      </defs>
      <g>
       <use style="fill:#262626;stroke:#262626;" x="54" xlink:href="#mb7b203a68f" y="279.442031"/>
      </g>
     </g>
    </g>
    <g id="ytick_5">
     <g id="line2d_14">
      <path clip-path="url(#pd090b765a4)" d="M 54 258.641953 
L 388.8 258.641953 
" style="fill:none;stroke:#cccccc;stroke-linecap:round;"/>
     </g>
     <g id="line2d_15">
      <g>
       <use style="fill:#262626;stroke:#262626;" x="54" xlink:href="#mb7b203a68f" y="258.641953"/>
      </g>
     </g>
    </g>
    <g id="ytick_6">
     <g id="line2d_16">
      <path clip-path="url(#pd090b765a4)" d="M 54 243.884062 
L 388.8 243.884062 
" style="fill:none;stroke:#cccccc;stroke-linecap:round;"/>
     </g>
     <g id="line2d_17">
      <g>
       <use style="fill:#262626;stroke:#262626;" x="54" xlink:href="#mb7b203a68f" y="243.884062"/>
      </g>
     </g>
    </g>
    <g id="ytick_7">
     <g id="line2d_18">
      <path clip-path="url(#pd090b765a4)" d="M 54 232.436953 
L 388.8 232.436953 
" style="fill:none;stroke:#cccccc;stroke-linecap:round;"/>
     </g>
     <g id="line2d_19">
      <g>
       <use style="fill:#262626;stroke:#262626;" x="54" xlink:href="#mb7b203a68f" y="232.436953"/>
      </g>
     </g>
    </g>
    <g id="ytick_8">
     <g id="line2d_20">
      <path clip-path="url(#pd090b765a4)" d="M 54 223.083984 
L 388.8 223.083984 
" style="fill:none;stroke:#cccccc;stroke-linecap:round;"/>
     </g>
     <g id="line2d_21">
      <g>
       <use style="fill:#262626;stroke:#262626;" x="54" xlink:href="#mb7b203a68f" y="223.083984"/>
      </g>
     </g>
    </g>
    <g id="ytick_9">
     <g id="line2d_22">
      <path clip-path="url(#pd090b765a4)" d="M 54 215.176161 
L 388.8 215.176161 
" style="fill:none;stroke:#cccccc;stroke-linecap:round;"/>
     </g>
     <g id="line2d_23">
      <g>
       <use style="fill:#262626;stroke:#262626;" x="54" xlink:href="#mb7b203a68f" y="215.176161"/>
      </g>
     </g>
    </g>
    <g id="ytick_10">
     <g id="line2d_24">
      <path clip-path="url(#pd090b765a4)" d="M 54 208.326094 
L 388.8 208.326094 
" style="fill:none;stroke:#cccccc;stroke-linecap:round;"/>
     </g>
     <g id="line2d_25">
      <g>
       <use style="fill:#262626;stroke:#262626;" x="54" xlink:href="#mb7b203a68f" y="208.326094"/>
      </g>
     </g>
    </g>
    <g id="ytick_11">
     <g id="line2d_26">
      <path clip-path="url(#pd090b765a4)" d="M 54 202.283906 
L 388.8 202.283906 
" style="fill:none;stroke:#cccccc;stroke-linecap:round;"/>
     </g>
     <g id="line2d_27">
      <g>
       <use style="fill:#262626;stroke:#262626;" x="54" xlink:href="#mb7b203a68f" y="202.283906"/>
      </g>
     </g>
    </g>
    <g id="ytick_12">
     <g id="line2d_28">
      <path clip-path="url(#pd090b765a4)" d="M 54 161.321016 
L 388.8 161.321016 
" style="fill:none;stroke:#cccccc;stroke-linecap:round;"/>
     </g>
     <g id="line2d_29">
      <g>
       <use style="fill:#262626;stroke:#262626;" x="54" xlink:href="#mb7b203a68f" y="161.321016"/>
      </g>
     </g>
    </g>
    <g id="ytick_13">
     <g id="line2d_30">
      <path clip-path="url(#pd090b765a4)" d="M 54 140.520937 
L 388.8 140.520937 
" style="fill:none;stroke:#cccccc;stroke-linecap:round;"/>
     </g>
     <g id="line2d_31">
      <g>
       <use style="fill:#262626;stroke:#262626;" x="54" xlink:href="#mb7b203a68f" y="140.520937"/>
      </g>
     </g>
    </g>
    <g id="ytick_14">
     <g id="line2d_32">
      <path clip-path="url(#pd090b765a4)" d="M 54 125.763047 
L 388.8 125.763047 
" style="fill:none;stroke:#cccccc;stroke-linecap:round;"/>
     </g>
     <g id="line2d_33">
      <g>
       <use style="fill:#262626;stroke:#262626;" x="54" xlink:href="#mb7b203a68f" y="125.763047"/>
      </g>
     </g>
    </g>
    <g id="ytick_15">
     <g id="line2d_34">
      <path clip-path="url(#pd090b765a4)" d="M 54 114.315938 
L 388.8 114.315938 
" style="fill:none;stroke:#cccccc;stroke-linecap:round;"/>
     </g>
     <g id="line2d_35">
      <g>
       <use style="fill:#262626;stroke:#262626;" x="54" xlink:href="#mb7b203a68f" y="114.315938"/>
      </g>
     </g>
    </g>
    <g id="ytick_16">
     <g id="line2d_36">
      <path clip-path="url(#pd090b765a4)" d="M 54 104.962968 
L 388.8 104.962968 
" style="fill:none;stroke:#cccccc;stroke-linecap:round;"/>
     </g>
     <g id="line2d_37">
      <g>
       <use style="fill:#262626;stroke:#262626;" x="54" xlink:href="#mb7b203a68f" y="104.962968"/>
      </g>
     </g>
    </g>
    <g id="ytick_17">
     <g id="line2d_38">
      <path clip-path="url(#pd090b765a4)" d="M 54 97.055146 
L 388.8 97.055146 
" style="fill:none;stroke:#cccccc;stroke-linecap:round;"/>
     </g>
     <g id="line2d_39">
      <g>
       <use style="fill:#262626;stroke:#262626;" x="54" xlink:href="#mb7b203a68f" y="97.055146"/>
      </g>
     </g>
    </g>
    <g id="ytick_18">
     <g id="line2d_40">
      <path clip-path="url(#pd090b765a4)" d="M 54 90.205078 
L 388.8 90.205078 
" style="fill:none;stroke:#cccccc;stroke-linecap:round;"/>
     </g>
     <g id="line2d_41">
      <g>
       <use style="fill:#262626;stroke:#262626;" x="54" xlink:href="#mb7b203a68f" y="90.205078"/>
      </g>
     </g>
    </g>
    <g id="ytick_19">
     <g id="line2d_42">
      <path clip-path="url(#pd090b765a4)" d="M 54 84.16289 
L 388.8 84.16289 
" style="fill:none;stroke:#cccccc;stroke-linecap:round;"/>
     </g>
     <g id="line2d_43">
      <g>
       <use style="fill:#262626;stroke:#262626;" x="54" xlink:href="#mb7b203a68f" y="84.16289"/>
      </g>
     </g>
    </g>
    <g id="ytick_20">
     <g id="line2d_44">
      <path clip-path="url(#pd090b765a4)" d="M 54 43.2 
L 388.8 43.2 
" style="fill:none;stroke:#cccccc;stroke-linecap:round;"/>
     </g>
     <g id="line2d_45">
      <g>
       <use style="fill:#262626;stroke:#262626;" x="54" xlink:href="#mb7b203a68f" y="43.2"/>
      </g>
     </g>
    </g>
    <g id="text_10">
     <!-- Absorbance (OD600) -->
     <g style="fill:#262626;" transform="translate(5.031562 264.137344)rotate(-90)scale(0.18 -0.18)">
      <defs>
       <path d="M -0.140625 0 
L 27.34375 71.578125 
L 37.546875 71.578125 
L 66.84375 0 
L 56.0625 0 
L 47.703125 21.6875 
L 17.78125 21.6875 
L 9.90625 0 
z
M 20.515625 29.390625 
L 44.78125 29.390625 
L 37.3125 49.21875 
Q 33.890625 58.25 32.234375 64.0625 
Q 30.859375 57.171875 28.375 50.390625 
z
" id="ArialMT-65"/>
       <path d="M 14.703125 0 
L 6.546875 0 
L 6.546875 71.578125 
L 15.328125 71.578125 
L 15.328125 46.046875 
Q 20.90625 53.03125 29.546875 53.03125 
Q 34.328125 53.03125 38.59375 51.09375 
Q 42.875 49.171875 45.625 45.671875 
Q 48.390625 42.1875 49.953125 37.25 
Q 51.515625 32.328125 51.515625 26.703125 
Q 51.515625 13.375 44.921875 6.09375 
Q 38.328125 -1.171875 29.109375 -1.171875 
Q 19.921875 -1.171875 14.703125 6.5 
z
M 14.59375 26.3125 
Q 14.59375 17 17.140625 12.84375 
Q 21.296875 6.0625 28.375 6.0625 
Q 34.125 6.0625 38.328125 11.0625 
Q 42.53125 16.0625 42.53125 25.984375 
Q 42.53125 36.140625 38.5 40.96875 
Q 34.46875 45.796875 28.765625 45.796875 
Q 23 45.796875 18.796875 40.796875 
Q 14.59375 35.796875 14.59375 26.3125 
z
" id="ArialMT-98"/>
       <path d="M 40.4375 6.390625 
Q 35.546875 2.25 31.03125 0.53125 
Q 26.515625 -1.171875 21.34375 -1.171875 
Q 12.796875 -1.171875 8.203125 3 
Q 3.609375 7.171875 3.609375 13.671875 
Q 3.609375 17.484375 5.34375 20.625 
Q 7.078125 23.78125 9.890625 25.6875 
Q 12.703125 27.59375 16.21875 28.5625 
Q 18.796875 29.25 24.03125 29.890625 
Q 34.671875 31.15625 39.703125 32.90625 
Q 39.75 34.71875 39.75 35.203125 
Q 39.75 40.578125 37.25 42.78125 
Q 33.890625 45.75 27.25 45.75 
Q 21.046875 45.75 18.09375 43.578125 
Q 15.140625 41.40625 13.71875 35.890625 
L 5.125 37.0625 
Q 6.296875 42.578125 8.984375 45.96875 
Q 11.671875 49.359375 16.75 51.1875 
Q 21.828125 53.03125 28.515625 53.03125 
Q 35.15625 53.03125 39.296875 51.46875 
Q 43.453125 49.90625 45.40625 47.53125 
Q 47.359375 45.171875 48.140625 41.546875 
Q 48.578125 39.3125 48.578125 33.453125 
L 48.578125 21.734375 
Q 48.578125 9.46875 49.140625 6.21875 
Q 49.703125 2.984375 51.375 0 
L 42.1875 0 
Q 40.828125 2.734375 40.4375 6.390625 
z
M 39.703125 26.03125 
Q 34.90625 24.078125 25.34375 22.703125 
Q 19.921875 21.921875 17.671875 20.9375 
Q 15.4375 19.96875 14.203125 18.09375 
Q 12.984375 16.21875 12.984375 13.921875 
Q 12.984375 10.40625 15.640625 8.0625 
Q 18.3125 5.71875 23.4375 5.71875 
Q 28.515625 5.71875 32.46875 7.9375 
Q 36.421875 10.15625 38.28125 14.015625 
Q 39.703125 17 39.703125 22.796875 
z
" id="ArialMT-97"/>
       <path d="M 6.59375 0 
L 6.59375 51.859375 
L 14.5 51.859375 
L 14.5 44.484375 
Q 20.21875 53.03125 31 53.03125 
Q 35.6875 53.03125 39.625 51.34375 
Q 43.5625 49.65625 45.515625 46.921875 
Q 47.46875 44.1875 48.25 40.4375 
Q 48.734375 37.984375 48.734375 31.890625 
L 48.734375 0 
L 39.9375 0 
L 39.9375 31.546875 
Q 39.9375 36.921875 38.90625 39.578125 
Q 37.890625 42.234375 35.28125 43.8125 
Q 32.671875 45.40625 29.15625 45.40625 
Q 23.53125 45.40625 19.453125 41.84375 
Q 15.375 38.28125 15.375 28.328125 
L 15.375 0 
z
" id="ArialMT-110"/>
       <path d="M 40.4375 19 
L 49.078125 17.875 
Q 47.65625 8.9375 41.8125 3.875 
Q 35.984375 -1.171875 27.484375 -1.171875 
Q 16.84375 -1.171875 10.375 5.78125 
Q 3.90625 12.75 3.90625 25.734375 
Q 3.90625 34.125 6.6875 40.421875 
Q 9.46875 46.734375 15.15625 49.875 
Q 20.84375 53.03125 27.546875 53.03125 
Q 35.984375 53.03125 41.359375 48.75 
Q 46.734375 44.484375 48.25 36.625 
L 39.703125 35.296875 
Q 38.484375 40.53125 35.375 43.15625 
Q 32.28125 45.796875 27.875 45.796875 
Q 21.234375 45.796875 17.078125 41.03125 
Q 12.9375 36.28125 12.9375 25.984375 
Q 12.9375 15.53125 16.9375 10.796875 
Q 20.953125 6.0625 27.390625 6.0625 
Q 32.5625 6.0625 36.03125 9.234375 
Q 39.5 12.40625 40.4375 19 
z
" id="ArialMT-99"/>
       <path d="M 4.828125 34.859375 
Q 4.828125 52.6875 14.390625 62.765625 
Q 23.96875 72.859375 39.109375 72.859375 
Q 49.03125 72.859375 56.984375 68.109375 
Q 64.9375 63.375 69.109375 54.90625 
Q 73.296875 46.4375 73.296875 35.6875 
Q 73.296875 24.8125 68.890625 16.21875 
Q 64.5 7.625 56.4375 3.203125 
Q 48.390625 -1.21875 39.0625 -1.21875 
Q 28.953125 -1.21875 20.984375 3.65625 
Q 13.03125 8.546875 8.921875 16.984375 
Q 4.828125 25.4375 4.828125 34.859375 
z
M 14.59375 34.71875 
Q 14.59375 21.78125 21.546875 14.328125 
Q 28.515625 6.890625 39.015625 6.890625 
Q 49.703125 6.890625 56.609375 14.40625 
Q 63.53125 21.921875 63.53125 35.75 
Q 63.53125 44.484375 60.578125 51 
Q 57.625 57.515625 51.921875 61.109375 
Q 46.234375 64.703125 39.15625 64.703125 
Q 29.109375 64.703125 21.84375 57.78125 
Q 14.59375 50.875 14.59375 34.71875 
z
" id="ArialMT-79"/>
       <path d="M 7.71875 0 
L 7.71875 71.578125 
L 32.375 71.578125 
Q 40.71875 71.578125 45.125 70.5625 
Q 51.265625 69.140625 55.609375 65.4375 
Q 61.28125 60.640625 64.078125 53.1875 
Q 66.890625 45.75 66.890625 36.1875 
Q 66.890625 28.03125 64.984375 21.734375 
Q 63.09375 15.4375 60.109375 11.296875 
Q 57.125 7.171875 53.578125 4.796875 
Q 50.046875 2.4375 45.046875 1.21875 
Q 40.046875 0 33.546875 0 
z
M 17.1875 8.453125 
L 32.46875 8.453125 
Q 39.546875 8.453125 43.578125 9.765625 
Q 47.609375 11.078125 50 13.484375 
Q 53.375 16.84375 55.25 22.53125 
Q 57.125 28.21875 57.125 36.328125 
Q 57.125 47.5625 53.4375 53.59375 
Q 49.75 59.625 44.484375 61.671875 
Q 40.671875 63.140625 32.234375 63.140625 
L 17.1875 63.140625 
z
" id="ArialMT-68"/>
      </defs>
      <use xlink:href="#ArialMT-65"/>
      <use x="66.699219" xlink:href="#ArialMT-98"/>
      <use x="122.314453" xlink:href="#ArialMT-115"/>
      <use x="172.314453" xlink:href="#ArialMT-111"/>
      <use x="227.929688" xlink:href="#ArialMT-114"/>
      <use x="261.230469" xlink:href="#ArialMT-98"/>
      <use x="316.845703" xlink:href="#ArialMT-97"/>
      <use x="372.460938" xlink:href="#ArialMT-110"/>
      <use x="428.076172" xlink:href="#ArialMT-99"/>
      <use x="478.076172" xlink:href="#ArialMT-101"/>
      <use x="533.691406" xlink:href="#ArialMT-32"/>
      <use x="561.474609" xlink:href="#ArialMT-40"/>
      <use x="594.775391" xlink:href="#ArialMT-79"/>
      <use x="672.558594" xlink:href="#ArialMT-68"/>
      <use x="744.775391" xlink:href="#ArialMT-54"/>
      <use x="800.390625" xlink:href="#ArialMT-48"/>
      <use x="856.005859" xlink:href="#ArialMT-48"/>
      <use x="911.621094" xlink:href="#ArialMT-41"/>
     </g>
    </g>
   </g>
   <g id="line2d_46">
    <path clip-path="url(#pd090b765a4)" d="M 40.324105 271.744022 
L 46.197789 269.181086 
L 52.071474 267.026982 
L 57.945158 261.487995 
L 63.818842 256.802498 
L 69.692526 250.87391 
L 75.566211 245.308275 
L 81.439895 238.60755 
L 87.313579 236.238641 
L 93.187263 232.977209 
L 99.060947 229.401728 
L 104.934632 226.14566 
L 110.808316 221.956481 
L 116.682 218.342902 
L 122.555684 212.62343 
L 128.429368 208.940464 
L 134.303053 204.135469 
L 140.176737 199.742244 
L 146.050421 195.102415 
L 151.924105 190.978132 
L 157.797789 186.558075 
L 163.671474 182.470383 
L 169.545158 178.054435 
L 175.418842 174.035602 
L 181.292526 169.715634 
L 187.166211 165.651567 
L 193.039895 161.688754 
L 198.913579 157.667857 
L 204.787263 154.013438 
L 210.660947 150.443795 
L 216.534632 147.032456 
L 222.408316 143.573971 
L 228.282 140.277235 
L 234.155684 136.822301 
L 240.029368 133.429193 
L 245.903053 130.027191 
L 251.776737 126.61903 
L 257.650421 123.033812 
L 263.524105 119.579912 
L 269.397789 116.201843 
L 275.271474 113.204369 
L 281.145158 110.119685 
L 287.018842 107.184497 
L 292.892526 104.609976 
L 298.766211 102.208647 
L 304.639895 99.75262 
L 310.513579 97.605983 
L 316.387263 95.606607 
L 322.260947 93.947608 
L 328.134632 92.679132 
L 334.008316 91.400618 
L 339.882 90.18676 
L 345.755684 89.300102 
L 351.629368 88.44916 
L 357.503053 87.441111 
L 363.376737 86.788487 
L 369.250421 85.840281 
L 375.124105 85.083082 
L 380.997789 84.421394 
L 386.871474 83.456641 
L 392.745158 82.871026 
L 398.618842 82.381078 
L 404.492526 81.895764 
L 410.366211 81.433012 
L 416.239895 80.953994 
L 422.113579 80.537544 
L 427.987263 80.2601 
L 433 80.052362 
" style="fill:none;stroke:#1a1a1a;stroke-linecap:round;stroke-width:2;"/>
   </g>
   <g id="line2d_47">
    <path clip-path="url(#pd090b765a4)" d="M 40.324105 285.805846 
L 46.197789 278.384276 
L 52.071474 276.533599 
L 57.945158 272.272341 
L 63.818842 261.725242 
L 69.692526 257.65404 
L 75.566211 249.646472 
L 81.439895 246.740865 
L 87.313579 241.585134 
L 93.187263 233.735739 
L 99.060947 229.528521 
L 104.934632 225.416172 
L 110.808316 224.970734 
L 116.682 221.195453 
L 122.555684 215.790532 
L 128.429368 212.789717 
L 134.303053 208.272685 
L 140.176737 203.631432 
L 146.050421 198.397468 
L 151.924105 194.661874 
L 157.797789 190.007546 
L 163.671474 185.363522 
L 169.545158 181.042405 
L 175.418842 176.652089 
L 181.292526 172.421956 
L 187.166211 168.342367 
L 193.039895 163.974831 
L 198.913579 160.578303 
L 204.787263 156.606852 
L 210.660947 152.866481 
L 216.534632 149.177564 
L 222.408316 145.862565 
L 228.282 141.746699 
L 234.155684 138.072349 
L 240.029368 134.592875 
L 245.903053 130.589376 
L 251.776737 127.446923 
L 257.650421 123.740776 
L 263.524105 120.025759 
L 269.397789 116.67796 
L 275.271474 113.007534 
L 281.145158 109.840204 
L 287.018842 106.990356 
L 292.892526 104.339778 
L 298.766211 101.759172 
L 304.639895 99.053951 
L 310.513579 96.969718 
L 316.387263 94.861435 
L 322.260947 92.937737 
L 328.134632 91.641065 
L 334.008316 90.205078 
L 339.882 88.792598 
L 345.755684 87.768379 
L 351.629368 86.639436 
L 357.503053 85.559203 
L 363.376737 84.496468 
L 369.250421 83.375721 
L 375.124105 82.628101 
L 380.997789 82.201159 
L 386.871474 81.402781 
L 392.745158 80.785356 
L 398.618842 80.294069 
L 404.492526 79.733319 
L 410.366211 79.053791 
L 416.239895 78.514874 
L 422.113579 78.226365 
L 427.987263 77.792426 
L 433 77.386162 
" style="fill:none;stroke:#cbb6a2;stroke-linecap:round;stroke-width:2;"/>
   </g>
   <g id="line2d_48">
    <path clip-path="url(#pd090b765a4)" d="M 40.324105 272.37866 
L 46.197789 270.395327 
L 52.071474 266.931185 
L 57.945158 262.531406 
L 63.818842 256.255508 
L 69.692526 251.225036 
L 75.566211 246.258876 
L 81.439895 243.701177 
L 87.313579 238.883799 
L 93.187263 234.277261 
L 99.060947 231.757482 
L 104.934632 227.503211 
L 110.808316 223.822116 
L 116.682 218.752851 
L 122.555684 214.276757 
L 128.429368 209.531011 
L 134.303053 205.677992 
L 140.176737 199.690609 
L 146.050421 195.505137 
L 151.924105 191.790159 
L 157.797789 187.546376 
L 163.671474 183.363538 
L 169.545158 179.461394 
L 175.418842 175.351244 
L 181.292526 171.39725 
L 187.166211 167.326574 
L 193.039895 163.377001 
L 198.913579 159.544447 
L 204.787263 155.758774 
L 210.660947 152.039345 
L 216.534632 148.542885 
L 222.408316 144.93129 
L 228.282 141.532401 
L 234.155684 138.11895 
L 240.029368 134.460658 
L 245.903053 131.113712 
L 251.776737 127.18098 
L 257.650421 123.569336 
L 263.524105 120.102268 
L 269.397789 116.349043 
L 275.271474 112.700078 
L 281.145158 109.138704 
L 287.018842 105.874871 
L 292.892526 102.900106 
L 298.766211 99.815187 
L 304.639895 96.967976 
L 310.513579 94.842213 
L 316.387263 92.570298 
L 322.260947 90.763853 
L 328.134632 89.36014 
L 334.008316 87.90907 
L 339.882 86.463842 
L 345.755684 85.335167 
L 351.629368 84.342344 
L 357.503053 83.437904 
L 363.376737 82.794328 
L 369.250421 81.727243 
L 375.124105 81.171175 
L 380.997789 80.773286 
L 386.871474 79.846727 
L 392.745158 79.106028 
L 398.618842 78.653035 
L 404.492526 78.220926 
L 410.366211 77.72774 
L 416.239895 77.274837 
L 422.113579 76.986119 
L 427.987263 76.364529 
L 433 76.130369 
" style="fill:none;stroke:#579e7c;stroke-linecap:round;stroke-width:2;"/>
   </g>
   <g id="line2d_49">
    <path clip-path="url(#pd090b765a4)" d="M 40.324105 288.284555 
L 46.197789 285.085001 
L 52.071474 282.752812 
L 57.945158 278.384276 
L 63.818842 273.973026 
L 69.692526 268.857116 
L 75.566211 264.684141 
L 81.439895 260.676753 
L 87.313579 254.931953 
L 93.187263 251.3485 
L 99.060947 243.884062 
L 104.934632 240.174063 
L 110.808316 236.436326 
L 116.682 232.181096 
L 122.555684 227.083357 
L 128.429368 222.658261 
L 134.303053 217.550975 
L 140.176737 212.037429 
L 146.050421 207.05938 
L 151.924105 202.761112 
L 157.797789 198.17777 
L 163.671474 193.608296 
L 169.545158 188.897929 
L 175.418842 184.718666 
L 181.292526 180.667042 
L 187.166211 176.912125 
L 193.039895 172.848343 
L 198.913579 168.934004 
L 204.787263 165.043842 
L 210.660947 161.470857 
L 216.534632 157.730456 
L 222.408316 153.633519 
L 228.282 149.245085 
L 234.155684 145.374671 
L 240.029368 141.007733 
L 245.903053 137.050096 
L 251.776737 132.808914 
L 257.650421 128.994091 
L 263.524105 125.720315 
L 269.397789 121.745776 
L 275.271474 118.343047 
L 281.145158 114.952563 
L 287.018842 112.452135 
L 292.892526 109.636883 
L 298.766211 107.042267 
L 304.639895 104.417264 
L 310.513579 102.148874 
L 316.387263 99.957165 
L 322.260947 97.762309 
L 328.134632 95.967487 
L 334.008316 94.268037 
L 339.882 92.55591 
L 345.755684 91.040107 
L 351.629368 89.231145 
L 357.503053 87.860185 
L 363.376737 86.759213 
L 369.250421 85.568966 
L 375.124105 84.453458 
L 380.997789 83.549085 
L 386.871474 82.361419 
L 392.745158 81.537993 
L 398.618842 80.874379 
L 404.492526 79.999787 
L 410.366211 79.338357 
L 416.239895 78.438346 
L 422.113579 77.666723 
L 427.987263 77.108981 
L 433 76.711569 
" style="fill:none;stroke:#af7cb5;stroke-linecap:round;stroke-width:2;"/>
   </g>
   <g id="line2d_50">
    <path clip-path="url(#pd090b765a4)" d="M 40.324105 287.779139 
L 46.197789 284.491939 
L 52.071474 280.087314 
L 57.945158 276.93913 
L 63.818842 272.551902 
L 69.692526 266.230153 
L 75.566211 261.725242 
L 81.439895 256.139051 
L 87.313579 250.369009 
L 93.187263 244.855056 
L 99.060947 237.699574 
L 104.934632 234.798975 
L 110.808316 230.672184 
L 116.682 224.38277 
L 122.555684 220.074669 
L 128.429368 214.993276 
L 134.303053 210.370161 
L 140.176737 204.616094 
L 146.050421 199.713193 
L 151.924105 195.176208 
L 157.797789 190.609305 
L 163.671474 185.895659 
L 169.545158 181.246879 
L 175.418842 176.9411 
L 181.292526 172.648033 
L 187.166211 168.538822 
L 193.039895 164.358928 
L 198.913579 160.336598 
L 204.787263 156.083089 
L 210.660947 152.694563 
L 216.534632 148.983933 
L 222.408316 145.618038 
L 228.282 142.41508 
L 234.155684 139.337705 
L 240.029368 135.670469 
L 245.903053 132.211624 
L 251.776737 128.512617 
L 257.650421 124.731471 
L 263.524105 120.322869 
L 269.397789 115.627879 
L 275.271474 112.021098 
L 281.145158 107.628039 
L 287.018842 104.431365 
L 292.892526 100.797676 
L 298.766211 97.432111 
L 304.639895 94.499925 
L 310.513579 92.190789 
L 316.387263 90.045018 
L 322.260947 88.35519 
L 328.134632 86.801701 
L 334.008316 85.119364 
L 339.882 84.02059 
L 345.755684 83.112115 
L 351.629368 82.137195 
L 357.503053 80.979178 
L 363.376737 80.175275 
L 369.250421 79.344843 
L 375.124105 78.950703 
L 380.997789 78.610695 
L 386.871474 77.918438 
L 392.745158 77.503768 
L 398.618842 77.01179 
L 404.492526 76.316174 
L 410.366211 75.811178 
L 416.239895 75.018153 
L 422.113579 74.857442 
L 427.987263 74.431326 
L 433 74.155554 
" style="fill:none;stroke:#cbb6a2;stroke-linecap:round;stroke-width:2;"/>
   </g>
   <g id="line2d_51">
    <path clip-path="url(#pd090b765a4)" d="M 40.324105 273.590193 
L 46.197789 269.381474 
L 52.071474 265.982927 
L 57.945158 263.261264 
L 63.818842 258.075104 
L 69.692526 254.931953 
L 75.566211 250.856417 
L 81.439895 245.955942 
L 87.313579 240.473185 
L 93.187263 236.159779 
L 99.060947 231.337338 
L 104.934632 226.318823 
L 110.808316 222.166009 
L 116.682 217.807472 
L 122.555684 213.376001 
L 128.429368 208.917292 
L 134.303053 204.072193 
L 140.176737 198.928613 
L 146.050421 194.172917 
L 151.924105 190.007546 
L 157.797789 185.603159 
L 163.671474 181.452171 
L 169.545158 177.115291 
L 175.418842 173.009156 
L 181.292526 168.810182 
L 187.166211 164.677417 
L 193.039895 160.747121 
L 198.913579 156.841364 
L 204.787263 153.102674 
L 210.660947 149.584031 
L 216.534632 146.020945 
L 222.408316 142.644773 
L 228.282 139.240323 
L 234.155684 135.424739 
L 240.029368 131.69314 
L 245.903053 127.879457 
L 251.776737 123.494785 
L 257.650421 119.351695 
L 263.524105 114.667686 
L 269.397789 110.941072 
L 275.271474 107.138813 
L 281.145158 103.807593 
L 287.018842 100.850257 
L 292.892526 97.811868 
L 298.766211 95.716984 
L 304.639895 93.65284 
L 310.513579 91.828248 
L 316.387263 90.045018 
L 322.260947 88.579899 
L 328.134632 87.499011 
L 334.008316 86.247135 
L 339.882 85.063742 
L 345.755684 84.15814 
L 351.629368 83.324293 
L 357.503053 82.228597 
L 363.376737 81.429795 
L 369.250421 80.73646 
L 375.124105 80.087456 
L 380.997789 79.75075 
L 386.871474 78.830694 
L 392.745158 78.323767 
L 398.618842 77.838594 
L 404.492526 77.437065 
L 410.366211 76.684353 
L 416.239895 76.055957 
L 422.113579 75.752685 
L 427.987263 75.239206 
L 433 75.004788 
" style="fill:none;stroke:#af7cb5;stroke-linecap:round;stroke-width:2;"/>
   </g>
   <g id="line2d_52">
    <path clip-path="url(#pd090b765a4)" d="M 40.324105 290.093786 
L 46.197789 285.085001 
L 52.071474 281.848837 
L 57.945158 277.143103 
L 63.818842 273.021249 
L 69.692526 268.338062 
L 75.566211 263.574066 
L 81.439895 258.075104 
L 87.313579 253.36544 
L 93.187263 248.93397 
L 99.060947 235.158341 
L 104.934632 236.993933 
L 110.808316 232.096093 
L 116.682 227.547607 
L 122.555684 223.369775 
L 128.429368 218.324346 
L 134.303053 213.790423 
L 140.176737 208.219331 
L 146.050421 203.146099 
L 151.924105 198.441521 
L 157.797789 194.091875 
L 163.671474 189.560815 
L 169.545158 184.88758 
L 175.418842 180.511448 
L 181.292526 176.422046 
L 187.166211 172.210085 
L 193.039895 168.146661 
L 198.913579 164.110066 
L 204.787263 160.054302 
L 210.660947 155.032424 
L 216.534632 152.253837 
L 222.408316 146.611241 
L 228.282 145.218271 
L 234.155684 142.054101 
L 240.029368 138.646143 
L 245.903053 135.28301 
L 251.776737 131.777188 
L 257.650421 128.158653 
L 263.524105 124.569372 
L 269.397789 119.911209 
L 275.271474 115.343599 
L 281.145158 111.375202 
L 287.018842 107.369774 
L 292.892526 104.129045 
L 298.766211 100.929229 
L 304.639895 97.880089 
L 310.513579 95.562522 
L 316.387263 93.698582 
L 322.260947 91.806191 
L 328.134632 90.199735 
L 334.008316 88.548846 
L 339.882 87.185685 
L 345.755684 86.351125 
L 351.629368 85.25747 
L 357.503053 83.940127 
L 363.376737 82.840597 
L 369.250421 81.882132 
L 375.124105 81.407282 
L 380.997789 80.896659 
L 386.871474 80.276452 
L 392.745158 79.54631 
L 398.618842 79.058091 
L 404.492526 78.852104 
L 410.366211 78.17562 
L 416.239895 77.545502 
L 422.113579 77.0676 
L 427.987263 76.688458 
L 433 76.28386 
" style="fill:none;stroke:#cbb6a2;stroke-linecap:round;stroke-width:2;"/>
   </g>
   <g id="line2d_53">
    <path clip-path="url(#pd090b765a4)" d="M 40.324105 273.920653 
L 46.197789 270.089062 
L 52.071474 265.093835 
L 57.945158 262.014953 
L 63.818842 259.583251 
L 69.692526 255.917456 
L 75.566211 251.404719 
L 81.439895 246.638245 
L 87.313579 241.381161 
L 93.187263 235.90966 
L 99.060947 231.788173 
L 104.934632 226.790098 
L 110.808316 222.312551 
L 116.682 217.492858 
L 122.555684 213.151355 
L 128.429368 208.559804 
L 134.303053 203.70241 
L 140.176737 198.585958 
L 146.050421 193.714147 
L 151.924105 189.144673 
L 157.797789 184.470909 
L 163.671474 180.457807 
L 169.545158 175.985719 
L 175.418842 171.843788 
L 181.292526 167.852288 
L 187.166211 163.780797 
L 193.039895 159.578781 
L 198.913579 155.67416 
L 204.787263 152.006924 
L 210.660947 148.294211 
L 216.534632 144.882911 
L 222.408316 141.620811 
L 228.282 138.27034 
L 234.155684 134.679503 
L 240.029368 130.870879 
L 245.903053 126.219772 
L 251.776737 121.782623 
L 257.650421 117.470262 
L 263.524105 113.602728 
L 269.397789 109.639011 
L 275.271474 106.661907 
L 281.145158 102.794266 
L 287.018842 100.144331 
L 292.892526 96.769466 
L 298.766211 94.368568 
L 304.639895 91.990459 
L 310.513579 90.129351 
L 316.387263 88.041964 
L 322.260947 86.565623 
L 328.134632 85.437766 
L 334.008316 83.961199 
L 339.882 82.691841 
L 345.755684 81.996671 
L 351.629368 80.852109 
L 357.503053 79.87055 
L 363.376737 79.019796 
L 369.250421 77.975818 
L 375.124105 77.514009 
L 380.997789 77.377635 
L 386.871474 76.772886 
L 392.745158 76.317286 
L 398.618842 75.804023 
L 404.492526 75.304564 
L 410.366211 74.766758 
L 416.239895 74.072529 
L 422.113579 73.953485 
L 427.987263 73.703544 
L 433 73.412383 
" style="fill:none;stroke:#af7cb5;stroke-linecap:round;stroke-width:2;"/>
   </g>
   <g id="line2d_54">
    <path clip-path="url(#pd090b765a4)" d="M 40.324105 261.373359 
L 46.197789 259.407628 
L 52.071474 258.075104 
L 57.945158 256.229606 
L 63.818842 254.623584 
L 69.692526 249.288984 
L 75.566211 246.067341 
L 81.439895 245.329209 
L 87.313579 241.517053 
L 93.187263 237.46328 
L 99.060947 234.649979 
L 104.934632 231.198051 
L 110.808316 227.134733 
L 116.682 224.042877 
L 122.555684 219.951635 
L 128.429368 216.329003 
L 134.303053 212.094907 
L 140.176737 207.548281 
L 146.050421 203.566455 
L 151.924105 199.510295 
L 157.797789 195.863123 
L 163.671474 191.782786 
L 169.545158 187.336369 
L 175.418842 183.332264 
L 181.292526 179.131939 
L 187.166211 175.324491 
L 193.039895 171.85015 
L 198.913579 168.008486 
L 204.787263 164.102544 
L 210.660947 160.082114 
L 216.534632 156.561377 
L 222.408316 152.83024 
L 228.282 149.261979 
L 234.155684 146.031521 
L 240.029368 142.833246 
L 245.903053 139.635633 
L 251.776737 136.047815 
L 257.650421 132.759894 
L 263.524105 129.42462 
L 269.397789 126.134886 
L 275.271474 122.559251 
L 281.145158 118.916542 
L 287.018842 115.433815 
L 292.892526 112.303942 
L 298.766211 109.271374 
L 304.639895 106.643164 
L 310.513579 104.189834 
L 316.387263 101.509887 
L 322.260947 99.438488 
L 328.134632 97.014448 
L 334.008316 95.192128 
L 339.882 93.333785 
L 345.755684 91.745583 
L 351.629368 90.297785 
L 357.503053 88.945316 
L 363.376737 87.872098 
L 369.250421 86.767541 
L 375.124105 86.151584 
L 380.997789 85.361092 
L 386.871474 84.736073 
L 392.745158 84.207242 
L 398.618842 83.577254 
L 404.492526 82.75118 
L 410.366211 82.132629 
L 416.239895 81.750543 
L 422.113579 81.084192 
L 427.987263 80.467621 
L 433 80.301968 
" style="fill:none;stroke:#af7cb5;stroke-linecap:round;stroke-width:2;"/>
   </g>
   <g id="line2d_55">
    <path clip-path="url(#pd090b765a4)" d="M 40.324105 253.066318 
L 46.197789 250.40945 
L 52.071474 248.503374 
L 57.945158 246.816249 
L 63.818842 244.457245 
L 69.692526 242.340054 
L 75.566211 238.351053 
L 81.439895 235.248578 
L 87.313579 231.309451 
L 93.187263 227.651347 
L 99.060947 224.236826 
L 104.934632 220.671637 
L 110.808316 216.329003 
L 116.682 212.094907 
L 122.555684 208.540287 
L 128.429368 203.631432 
L 134.303053 199.992548 
L 140.176737 194.866989 
L 146.050421 190.357714 
L 151.924105 186.91221 
L 157.797789 182.896413 
L 163.671474 179.172285 
L 169.545158 174.914243 
L 175.418842 171.327926 
L 181.292526 167.523765 
L 187.166211 163.653204 
L 193.039895 159.694111 
L 198.913579 155.634721 
L 204.787263 151.968046 
L 210.660947 148.457268 
L 216.534632 145.109073 
L 222.408316 141.790501 
L 228.282 138.710295 
L 234.155684 135.5798 
L 240.029368 132.142996 
L 245.903053 128.514496 
L 251.776737 125.013312 
L 257.650421 121.459985 
L 263.524105 118.420173 
L 269.397789 114.716492 
L 275.271474 111.14428 
L 281.145158 107.824793 
L 287.018842 105.210562 
L 292.892526 102.432932 
L 298.766211 100.160058 
L 304.639895 98.18301 
L 310.513579 96.504406 
L 316.387263 94.567756 
L 322.260947 93.24299 
L 328.134632 91.540415 
L 334.008316 90.44074 
L 339.882 89.871296 
L 345.755684 88.723331 
L 351.629368 88.206786 
L 357.503053 87.021366 
L 363.376737 86.435463 
L 369.250421 85.296304 
L 375.124105 84.787333 
L 380.997789 84.569828 
L 386.871474 84.093272 
L 392.745158 83.371044 
L 398.618842 83.190511 
L 404.492526 82.181352 
L 410.366211 81.883647 
L 416.239895 81.569593 
L 422.113579 81.155814 
L 427.987263 80.544288 
L 433 80.57452 
" style="fill:none;stroke:#af7cb5;stroke-linecap:round;stroke-width:2;"/>
   </g>
   <g id="line2d_56">
    <path clip-path="url(#pd090b765a4)" d="M 40.324105 260.578005 
L 46.197789 256.048656 
L 52.071474 258.452306 
L 57.945158 254.623584 
L 63.818842 256.048656 
L 69.692526 247.270899 
L 75.566211 249.130896 
L 81.439895 244.746256 
L 87.313579 242.201967 
L 93.187263 239.515526 
L 99.060947 234.412482 
L 104.934632 229.01941 
L 110.808316 226.016171 
L 116.682 222.049499 
L 122.555684 217.764633 
L 128.429368 214.208221 
L 134.303053 210.06522 
L 140.176737 205.485028 
L 146.050421 201.156403 
L 151.924105 197.509839 
L 157.797789 193.943631 
L 163.671474 190.157326 
L 169.545158 185.935937 
L 175.418842 181.907791 
L 181.292526 177.465458 
L 187.166211 173.521748 
L 193.039895 170.12969 
L 198.913579 166.567849 
L 204.787263 162.795484 
L 210.660947 158.655517 
L 216.534632 154.925386 
L 222.408316 150.910291 
L 228.282 146.884752 
L 234.155684 143.232309 
L 240.029368 139.189387 
L 245.903053 135.424739 
L 251.776737 131.597253 
L 257.650421 127.694167 
L 263.524105 123.943235 
L 269.397789 120.460827 
L 275.271474 117.417389 
L 281.145158 114.441489 
L 287.018842 111.251556 
L 292.892526 108.747121 
L 298.766211 106.11581 
L 304.639895 103.391313 
L 310.513579 101.138215 
L 316.387263 98.819549 
L 322.260947 96.730465 
L 328.134632 95.105825 
L 334.008316 93.159902 
L 339.882 91.77496 
L 345.755684 90.426427 
L 351.629368 89.091517 
L 357.503053 87.940225 
L 363.376737 87.068261 
L 369.250421 85.987258 
L 375.124105 85.128237 
L 380.997789 84.588982 
L 386.871474 83.910184 
L 392.745158 83.23403 
L 398.618842 82.603521 
L 404.492526 82.047475 
L 410.366211 81.551533 
L 416.239895 81.048419 
L 422.113579 80.502992 
L 427.987263 79.916641 
L 433 79.742841 
" style="fill:none;stroke:#af7cb5;stroke-linecap:round;stroke-width:2;"/>
   </g>
   <g id="line2d_57">
    <path clip-path="url(#pd090b765a4)" d="M 40.324105 252.221171 
L 46.197789 252.896171 
L 52.071474 250.247877 
L 57.945158 246.216251 
L 63.818842 243.036121 
L 69.692526 239.646559 
L 75.566211 237.589168 
L 81.439895 233.357145 
L 87.313579 229.555457 
L 93.187263 225.615393 
L 99.060947 221.678436 
L 104.934632 217.764633 
L 110.808316 213.494066 
L 116.682 209.698008 
L 122.555684 206.231954 
L 128.429368 201.779732 
L 134.303053 197.39456 
L 140.176737 192.720261 
L 146.050421 188.147253 
L 151.924105 184.12625 
L 157.797789 180.273784 
L 163.671474 176.269256 
L 169.545158 172.625824 
L 175.418842 168.92574 
L 181.292526 165.443778 
L 187.166211 161.664156 
L 193.039895 157.717171 
L 198.913579 154.126549 
L 204.787263 150.102412 
L 210.660947 146.222265 
L 216.534632 142.59529 
L 222.408316 138.600368 
L 228.282 134.707254 
L 234.155684 130.726545 
L 240.029368 127.193538 
L 245.903053 123.23301 
L 251.776737 119.44295 
L 257.650421 115.819745 
L 263.524105 112.534649 
L 269.397789 109.230062 
L 275.271474 106.096382 
L 281.145158 102.887071 
L 287.018842 100.246639 
L 292.892526 97.562497 
L 298.766211 95.011842 
L 304.639895 92.896423 
L 310.513579 91.096262 
L 316.387263 89.168266 
L 322.260947 87.675041 
L 328.134632 86.336257 
L 334.008316 85.186352 
L 339.882 84.200904 
L 345.755684 83.364808 
L 351.629368 82.493054 
L 357.503053 81.750543 
L 363.376737 81.167761 
L 369.250421 80.396953 
L 375.124105 79.829263 
L 380.997789 79.423458 
L 386.871474 78.655473 
L 392.745158 78.236238 
L 398.618842 77.842793 
L 404.492526 77.602594 
L 410.366211 77.213961 
L 416.239895 76.883174 
L 422.113579 76.363752 
L 427.987263 75.758061 
L 433 75.606914 
" style="fill:none;stroke:#897a77;stroke-linecap:round;stroke-width:2;"/>
   </g>
   <g id="line2d_58">
    <path clip-path="url(#pd090b765a4)" d="M 40.324105 264.470838 
L 46.197789 261.57414 
L 52.071474 257.51445 
L 57.945158 256.776318 
L 63.818842 253.580172 
L 69.692526 250.73413 
L 75.566211 247.270899 
L 81.439895 243.036121 
L 87.313579 239.777927 
L 93.187263 235.97624 
L 99.060947 231.870104 
L 104.934632 227.755297 
L 110.808316 223.56119 
L 116.682 219.862341 
L 122.555684 215.667067 
L 128.429368 210.509372 
L 134.303053 206.300398 
L 140.176737 201.529491 
L 146.050421 196.936015 
L 151.924105 192.825491 
L 157.797789 188.873542 
L 163.671474 184.483116 
L 169.545158 180.315037 
L 175.418842 176.575293 
L 181.292526 172.625824 
L 187.166211 168.268889 
L 193.039895 164.646999 
L 198.913579 160.838796 
L 204.787263 157.478631 
L 210.660947 153.731747 
L 216.534632 150.377968 
L 222.408316 146.755859 
L 228.282 143.312495 
L 234.155684 139.972883 
L 240.029368 136.819775 
L 245.903053 133.104021 
L 251.776737 129.348157 
L 257.650421 125.578133 
L 263.524105 121.564918 
L 269.397789 117.441616 
L 275.271474 113.199588 
L 281.145158 109.74887 
L 287.018842 106.164412 
L 292.892526 102.550622 
L 298.766211 99.438488 
L 304.639895 96.884432 
L 310.513579 94.832186 
L 316.387263 92.462757 
L 322.260947 90.347774 
L 328.134632 89.427265 
L 334.008316 87.75649 
L 339.882 86.013515 
L 345.755684 85.005765 
L 351.629368 83.998489 
L 357.503053 83.840907 
L 363.376737 83.23403 
L 369.250421 82.333911 
L 375.124105 80.911517 
L 380.997789 81.119991 
L 386.871474 80.573806 
L 392.745158 79.533288 
L 398.618842 78.952133 
L 404.492526 79.089634 
L 410.366211 78.213674 
L 416.239895 78.445427 
L 422.113579 77.114501 
L 427.987263 77.164207 
L 433 76.513591 
" style="fill:none;stroke:#897a77;stroke-linecap:round;stroke-width:2;"/>
   </g>
   <g id="line2d_59">
    <path clip-path="url(#pd090b765a4)" d="M 40.324105 245.918862 
L 46.197789 244.891374 
L 52.071474 243.741762 
L 57.945158 241.926903 
L 63.818842 239.515526 
L 69.692526 236.962795 
L 75.566211 233.589795 
L 81.439895 230.644655 
L 87.313579 227.755297 
L 93.187263 224.13976 
L 99.060947 220.944265 
L 104.934632 216.999592 
L 110.808316 213.023427 
L 116.682 209.333405 
L 122.555684 205.015312 
L 128.429368 200.847556 
L 134.303053 196.708271 
L 140.176737 191.576764 
L 146.050421 187.811806 
L 151.924105 183.551586 
L 157.797789 179.985931 
L 163.671474 176.23113 
L 169.545158 172.166055 
L 175.418842 167.976029 
L 181.292526 164.343811 
L 187.166211 160.895293 
L 193.039895 157.18858 
L 198.913579 153.658059 
L 204.787263 150.608734 
L 210.660947 146.712967 
L 216.534632 143.252344 
L 222.408316 139.412025 
L 228.282 135.648867 
L 234.155684 132.353206 
L 240.029368 128.634917 
L 245.903053 125.055459 
L 251.776737 121.960341 
L 257.650421 118.136921 
L 263.524105 115.15495 
L 269.397789 112.32587 
L 275.271474 109.30238 
L 281.145158 106.154688 
L 287.018842 103.742616 
L 292.892526 101.527653 
L 298.766211 99.40438 
L 304.639895 97.112177 
L 310.513579 95.396696 
L 316.387263 93.318642 
L 322.260947 91.944204 
L 328.134632 90.533875 
L 334.008316 89.294102 
L 339.882 88.206786 
L 345.755684 87.471983 
L 351.629368 86.941075 
L 357.503053 86.19769 
L 363.376737 85.464924 
L 369.250421 84.742477 
L 375.124105 84.277015 
L 380.997789 83.878683 
L 386.871474 83.464673 
L 392.745158 82.763504 
L 398.618842 82.425664 
L 404.492526 81.986737 
L 410.366211 81.581637 
L 416.239895 81.311339 
L 422.113579 80.745346 
L 427.987263 80.244171 
L 433 80.049315 
" style="fill:none;stroke:#efdae6;stroke-linecap:round;stroke-width:2;"/>
   </g>
   <g id="line2d_60">
    <path clip-path="url(#pd090b765a4)" d="M 40.324105 269.852113 
L 46.197789 267.090946 
L 52.071474 264.898334 
L 57.945158 264.684141 
L 63.818842 260.578005 
L 69.692526 256.593433 
L 75.566211 251.554936 
L 81.439895 246.66559 
L 87.313579 242.89615 
L 93.187263 241.245628 
L 99.060947 235.128298 
L 104.934632 231.645107 
L 110.808316 226.420105 
L 116.682 221.77095 
L 122.555684 216.412349 
L 128.429368 212.018284 
L 134.303053 208.326094 
L 140.176737 203.631432 
L 146.050421 199.151557 
L 151.924105 194.648228 
L 157.797789 190.81147 
L 163.671474 186.678074 
L 169.545158 182.723104 
L 175.418842 178.530534 
L 181.292526 174.58101 
L 187.166211 170.401116 
L 193.039895 166.378786 
L 198.913579 162.241207 
L 204.787263 158.763858 
L 210.660947 155.202885 
L 216.534632 151.213631 
L 222.408316 147.425319 
L 228.282 143.897627 
L 234.155684 140.350224 
L 240.029368 136.625694 
L 245.903053 133.005463 
L 251.776737 129.62396 
L 257.650421 125.777299 
L 263.524105 122.013296 
L 269.397789 118.222963 
L 275.271474 114.49866 
L 281.145158 111.090726 
L 287.018842 108.046258 
L 292.892526 104.953469 
L 298.766211 102.668583 
L 304.639895 99.089946 
L 310.513579 96.585027 
L 316.387263 94.521234 
L 322.260947 92.994128 
L 328.134632 90.835933 
L 334.008316 89.119412 
L 339.882 87.749698 
L 345.755684 86.774205 
L 351.629368 85.679743 
L 357.503053 84.608144 
L 363.376737 84.036381 
L 369.250421 83.16566 
L 375.124105 82.505317 
L 380.997789 81.901824 
L 386.871474 81.341302 
L 392.745158 80.846172 
L 398.618842 80.361655 
L 404.492526 79.654953 
L 410.366211 79.083898 
L 416.239895 78.89495 
L 422.113579 78.445427 
L 427.987263 77.786833 
L 433 77.677186 
" style="fill:none;stroke:#efdae6;stroke-linecap:round;stroke-width:2;"/>
   </g>
   <g id="line2d_61">
    <path clip-path="url(#pd090b765a4)" d="M 40.324105 273.526665 
L 46.197789 271.290506 
L 52.071474 268.223427 
L 57.945158 265.764166 
L 63.818842 262.181239 
L 69.692526 259.215135 
L 75.566211 256.048656 
L 81.439895 252.557561 
L 87.313579 248.037719 
L 93.187263 243.176475 
L 99.060947 235.97624 
L 104.934632 229.771455 
L 110.808316 229.447799 
L 116.682 225.915683 
L 122.555684 220.671637 
L 128.429368 216.663202 
L 134.303053 212.634499 
L 140.176737 207.829759 
L 146.050421 203.50156 
L 151.924105 199.510295 
L 157.797789 194.97672 
L 163.671474 190.81147 
L 169.545158 186.7716 
L 175.418842 183.02678 
L 181.292526 178.650252 
L 187.166211 174.691847 
L 193.039895 170.776686 
L 198.913579 166.852758 
L 204.787263 163.683038 
L 210.660947 160.305155 
L 216.534632 157.031059 
L 222.408316 153.145183 
L 228.282 148.791031 
L 234.155684 144.839676 
L 240.029368 140.520937 
L 245.903053 136.731465 
L 251.776737 132.239909 
L 257.650421 128.559621 
L 263.524105 124.593741 
L 269.397789 121.146466 
L 275.271474 117.538636 
L 281.145158 113.647718 
L 287.018842 109.780166 
L 292.892526 106.252012 
L 298.766211 103.079016 
L 304.639895 99.944242 
L 310.513579 97.884227 
L 316.387263 95.713018 
L 322.260947 93.790188 
L 328.134632 92.09922 
L 334.008316 90.462218 
L 339.882 89.091517 
L 345.755684 87.810861 
L 351.629368 86.974515 
L 357.503053 85.797297 
L 363.376737 85.005765 
L 369.250421 83.966934 
L 375.124105 83.314948 
L 380.997789 82.837511 
L 386.871474 82.004951 
L 392.745158 81.335308 
L 398.618842 80.644719 
L 404.492526 80.13281 
L 410.366211 79.771094 
L 416.239895 79.181507 
L 422.113579 78.826414 
L 427.987263 78.241881 
L 433 77.973026 
" style="fill:none;stroke:#579e7c;stroke-linecap:round;stroke-width:2;"/>
   </g>
   <g id="line2d_62">
    <path clip-path="url(#pd090b765a4)" d="M 40.324105 262.385213 
L 46.197789 259.794795 
L 52.071474 256.048656 
L 57.945158 254.799568 
L 63.818842 251.554936 
L 69.692526 248.192468 
L 75.566211 245.182848 
L 81.439895 240.975631 
L 87.313579 237.968696 
L 93.187263 233.357145 
L 99.060947 228.488905 
L 104.934632 224.82311 
L 110.808316 220.762352 
L 116.682 216.245793 
L 122.555684 212.018284 
L 128.429368 207.829759 
L 134.303053 203.631432 
L 140.176737 198.55918 
L 146.050421 194.430397 
L 151.924105 190.107351 
L 157.797789 185.935937 
L 163.671474 181.907791 
L 169.545158 177.936097 
L 175.418842 174.066911 
L 181.292526 170.231306 
L 187.166211 166.378786 
L 193.039895 162.736856 
L 198.913579 158.736751 
L 204.787263 155.026121 
L 210.660947 151.377714 
L 216.534632 147.490571 
L 222.408316 144.100954 
L 228.282 139.635633 
L 234.155684 135.493597 
L 240.029368 132.078489 
L 245.903053 127.164241 
L 251.776737 122.881551 
L 257.650421 119.103925 
L 263.524105 115.178131 
L 269.397789 110.781211 
L 275.271474 107.166077 
L 281.145158 103.603657 
L 287.018842 100.813006 
L 292.892526 97.90078 
L 298.766211 95.207835 
L 304.639895 92.836388 
L 310.513579 90.6703 
L 316.387263 88.399022 
L 322.260947 86.680994 
L 328.134632 85.173431 
L 334.008316 84.023747 
L 339.882 83.060176 
L 345.755684 82.035321 
L 351.629368 81.227537 
L 357.503053 80.279388 
L 363.376737 79.695573 
L 369.250421 78.604301 
L 375.124105 78.146041 
L 380.997789 77.703006 
L 386.871474 77.169732 
L 392.745158 76.636477 
L 398.618842 76.47812 
L 404.492526 75.898032 
L 410.366211 75.580954 
L 416.239895 74.942033 
L 422.113579 74.499477 
L 427.987263 74.222197 
L 433 74.133232 
" style="fill:none;stroke:#579e7c;stroke-linecap:round;stroke-width:2;"/>
   </g>
   <g id="line2d_63">
    <path clip-path="url(#pd090b765a4)" d="M 40.324105 253.925623 
L 46.197789 251.720686 
L 52.071474 250.086812 
L 57.945158 248.037719 
L 63.818842 245.329209 
L 69.692526 243.45834 
L 75.566211 240.707047 
L 81.439895 237.841874 
L 87.313579 234.769141 
L 93.187263 230.865298 
L 99.060947 226.116857 
L 104.934632 222.894338 
L 110.808316 219.329818 
L 116.682 215.094798 
L 122.555684 211.107622 
L 128.429368 207.198591 
L 134.303053 203.178312 
L 140.176737 198.382792 
L 146.050421 193.88983 
L 151.924105 189.560815 
L 157.797789 185.706204 
L 163.671474 181.822717 
L 169.545158 177.582714 
L 175.418842 173.485609 
L 181.292526 169.423956 
L 187.166211 165.753558 
L 193.039895 161.578156 
L 198.913579 157.637534 
L 204.787263 154.176113 
L 210.660947 150.516303 
L 216.534632 146.392412 
L 222.408316 143.372718 
L 228.282 139.710386 
L 234.155684 136.961388 
L 240.029368 134.033141 
L 245.903053 131.136312 
L 251.776737 127.208193 
L 257.650421 123.056979 
L 263.524105 119.091412 
L 269.397789 114.613193 
L 275.271474 110.55824 
L 281.145158 106.339761 
L 287.018842 102.623181 
L 292.892526 99.652182 
L 298.766211 96.900666 
L 304.639895 94.552244 
L 310.513579 92.440426 
L 316.387263 90.19083 
L 322.260947 88.667984 
L 328.134632 87.121907 
L 334.008316 85.816915 
L 339.882 84.922137 
L 345.755684 83.627369 
L 351.629368 83.078775 
L 357.503053 82.144805 
L 363.376737 81.829154 
L 369.250421 80.680212 
L 375.124105 80.332259 
L 380.997789 79.945799 
L 386.871474 79.620162 
L 392.745158 79.038028 
L 398.618842 78.826414 
L 404.492526 78.281396 
L 410.366211 77.831596 
L 416.239895 77.898815 
L 422.113579 77.742108 
L 427.987263 76.620072 
L 433 76.858681 
" style="fill:none;stroke:#b79c97;stroke-linecap:round;stroke-width:2;"/>
   </g>
   <g id="line2d_64">
    <path clip-path="url(#pd090b765a4)" d="M 40.324105 277.211275 
L 46.197789 271.290506 
L 52.071474 267.76743 
L 57.945158 263.417427 
L 63.818842 260.974141 
L 69.692526 258.263358 
L 75.566211 253.752607 
L 81.439895 251.225036 
L 87.313579 247.883435 
L 93.187263 244.457245 
L 99.060947 240.707047 
L 104.934632 235.854244 
L 110.808316 232.780094 
L 116.682 227.444077 
L 122.555684 222.423266 
L 128.429368 220.130691 
L 134.303053 215.094798 
L 140.176737 209.844577 
L 146.050421 205.015312 
L 151.924105 201.156403 
L 157.797789 196.651493 
L 163.671474 192.772849 
L 169.545158 187.955301 
L 175.418842 183.727721 
L 181.292526 179.699685 
L 187.166211 175.813597 
L 193.039895 171.885154 
L 198.913579 167.523765 
L 204.787263 163.207766 
L 210.660947 158.872428 
L 216.534632 155.788006 
L 222.408316 152.46923 
L 228.282 149.014753 
L 234.155684 145.652149 
L 240.029368 142.240412 
L 245.903053 138.710295 
L 251.776737 134.894199 
L 257.650421 130.679475 
L 263.524105 126.62524 
L 269.397789 123.696274 
L 275.271474 118.816883 
L 281.145158 114.22482 
L 287.018842 109.790602 
L 292.892526 106.672621 
L 298.766211 103.928484 
L 304.639895 102.759507 
L 310.513579 99.293683 
L 316.387263 96.295382 
L 322.260947 94.715358 
L 328.134632 93.912584 
L 334.008316 91.183333 
L 339.882 89.518576 
L 345.755684 88.41278 
L 351.629368 87.559876 
L 357.503053 86.661042 
L 363.376737 86.834215 
L 369.250421 85.974135 
L 375.124105 84.569828 
L 380.997789 83.884981 
L 386.871474 83.358573 
L 392.745158 82.628101 
L 398.618842 82.560533 
L 404.492526 82.413421 
L 410.366211 82.011023 
L 416.239895 82.175259 
L 422.113579 81.173736 
L 427.987263 81.131929 
L 433 80.319249 
" style="fill:none;stroke:#af7cb5;stroke-linecap:round;stroke-width:2;"/>
   </g>
   <g id="line2d_65">
    <path clip-path="url(#pd090b765a4)" d="M 40.324105 256.959858 
L 46.197789 254.198691 
L 52.071474 250.10979 
L 57.945158 247.097224 
L 63.818842 246.902539 
L 69.692526 245.371103 
L 75.566211 240.516059 
L 81.439895 237.679277 
L 87.313579 232.144649 
L 93.187263 229.586258 
L 99.060947 225.331028 
L 104.934632 220.814262 
L 110.808316 216.44811 
L 116.682 212.62343 
L 122.555684 208.509633 
L 128.429368 203.938865 
L 134.303053 199.510295 
L 140.176737 194.515863 
L 146.050421 190.544492 
L 151.924105 185.962258 
L 157.797789 181.865237 
L 163.671474 177.919214 
L 169.545158 173.739119 
L 175.418842 169.960775 
L 181.292526 165.998275 
L 187.166211 162.021988 
L 193.039895 158.609155 
L 198.913579 154.278935 
L 204.787263 149.552463 
L 210.660947 146.198004 
L 216.534632 142.260063 
L 222.408316 138.297978 
L 228.282 133.777855 
L 234.155684 130.661554 
L 240.029368 127.005491 
L 245.903053 122.860386 
L 251.776737 118.689034 
L 257.650421 114.74276 
L 263.524105 111.395966 
L 269.397789 107.658604 
L 275.271474 104.500919 
L 281.145158 101.389494 
L 287.018842 98.166365 
L 292.892526 95.813973 
L 298.766211 93.584304 
L 304.639895 91.485076 
L 310.513579 89.558765 
L 316.387263 88.14906 
L 322.260947 86.897159 
L 328.134632 85.666698 
L 334.008316 84.744308 
L 339.882 84.06527 
L 345.755684 83.387082 
L 351.629368 82.725661 
L 357.503053 82.025774 
L 363.376737 81.597986 
L 369.250421 80.768205 
L 375.124105 80.07179 
L 380.997789 79.697231 
L 386.871474 79.251341 
L 392.745158 78.95622 
L 398.618842 78.853328 
L 404.492526 78.1388 
L 410.366211 77.785235 
L 416.239895 77.534171 
L 422.113579 77.035701 
L 427.987263 76.682593 
L 433 76.664578 
" style="fill:none;stroke:#b79c97;stroke-linecap:round;stroke-width:2;"/>
   </g>
   <g id="patch_3">
    <path d="M 54 315 
L 54 43.2 
" style="fill:none;stroke:#262626;stroke-linecap:square;stroke-linejoin:miter;stroke-width:1.25;"/>
   </g>
   <g id="patch_4">
    <path d="M 388.8 315 
L 388.8 43.2 
" style="fill:none;stroke:#262626;stroke-linecap:square;stroke-linejoin:miter;stroke-width:1.25;"/>
   </g>
   <g id="patch_5">
    <path d="M 54 315 
L 388.8 315 
" style="fill:none;stroke:#262626;stroke-linecap:square;stroke-linejoin:miter;stroke-width:1.25;"/>
   </g>
   <g id="patch_6">
    <path d="M 54 43.2 
L 388.8 43.2 
" style="fill:none;stroke:#262626;stroke-linecap:square;stroke-linejoin:miter;stroke-width:1.25;"/>
   </g>
  </g>
 </g>
 <defs>
  <clipPath id="pd090b765a4">
   <rect height="271.8" width="334.8" x="54" y="43.2"/>
  </clipPath>
 </defs>
</svg>
