<?xml version="1.0" encoding="utf-8" standalone="no"?>
<!DOCTYPE svg PUBLIC "-//W3C//DTD SVG 1.1//EN"
  "http://www.w3.org/Graphics/SVG/1.1/DTD/svg11.dtd">
<!-- Created with matplotlib (https://matplotlib.org/) -->
<svg height="360pt" version="1.1" viewBox="0 0 432 360" width="432pt" xmlns="http://www.w3.org/2000/svg" xmlns:xlink="http://www.w3.org/1999/xlink">
 <metadata>
  <rdf:RDF xmlns:cc="http://creativecommons.org/ns#" xmlns:dc="http://purl.org/dc/elements/1.1/" xmlns:rdf="http://www.w3.org/1999/02/22-rdf-syntax-ns#">
   <cc:Work>
    <dc:type rdf:resource="http://purl.org/dc/dcmitype/StillImage"/>
    <dc:date>2022-02-14T00:04:29.972991</dc:date>
    <dc:format>image/svg+xml</dc:format>
    <dc:creator>
     <cc:Agent>
      <dc:title>Matplotlib v3.3.4, https://matplotlib.org/</dc:title>
     </cc:Agent>
    </dc:creator>
   </cc:Work>
  </rdf:RDF>
 </metadata>
 <defs>
  <style type="text/css">*{stroke-linecap:butt;stroke-linejoin:round;}</style>
 </defs>
 <g id="figure_1">
  <g id="patch_1">
   <path d="M 0 360 
L 432 360 
L 432 0 
L 0 0 
z
" style="fill:#ffffff;"/>
  </g>
  <g id="axes_1">
   <g id="patch_2">
    <path d="M 54 315 
L 388.8 315 
L 388.8 43.2 
L 54 43.2 
z
" style="fill:#ffffff;"/>
   </g>
   <g id="matplotlib.axis_1">
    <g id="xtick_1">
     <g id="line2d_1">
      <defs>
       <path d="M 0 0 
L 0 6 
" id="mf56b2130bc" style="stroke:#262626;stroke-width:1.25;"/>
      </defs>
      <g>
       <use style="fill:#262626;stroke:#262626;stroke-width:1.25;" x="115.493878" xlink:href="#mf56b2130bc" y="315"/>
      </g>
     </g>
     <g id="text_1">
      <!-- 2 -->
      <g style="fill:#262626;" transform="translate(111.045128 335.9525)scale(0.16 -0.16)">
       <defs>
        <path d="M 50.34375 8.453125 
L 50.34375 0 
L 3.03125 0 
Q 2.9375 3.171875 4.046875 6.109375 
Q 5.859375 10.9375 9.828125 15.625 
Q 13.8125 20.3125 21.34375 26.46875 
Q 33.015625 36.03125 37.109375 41.625 
Q 41.21875 47.21875 41.21875 52.203125 
Q 41.21875 57.421875 37.46875 61 
Q 33.734375 64.59375 27.734375 64.59375 
Q 21.390625 64.59375 17.578125 60.78125 
Q 13.765625 56.984375 13.71875 50.25 
L 4.6875 51.171875 
Q 5.609375 61.28125 11.65625 66.578125 
Q 17.71875 71.875 27.9375 71.875 
Q 38.234375 71.875 44.234375 66.15625 
Q 50.25 60.453125 50.25 52 
Q 50.25 47.703125 48.484375 43.546875 
Q 46.734375 39.40625 42.65625 34.8125 
Q 38.578125 30.21875 29.109375 22.21875 
Q 21.1875 15.578125 18.9375 13.203125 
Q 16.703125 10.84375 15.234375 8.453125 
z
" id="ArialMT-50"/>
       </defs>
       <use xlink:href="#ArialMT-50"/>
      </g>
     </g>
    </g>
    <g id="xtick_2">
     <g id="line2d_2">
      <g>
       <use style="fill:#262626;stroke:#262626;stroke-width:1.25;" x="183.820408" xlink:href="#mf56b2130bc" y="315"/>
      </g>
     </g>
     <g id="text_2">
      <!-- 4 -->
      <g style="fill:#262626;" transform="translate(179.371658 335.9525)scale(0.16 -0.16)">
       <defs>
        <path d="M 32.328125 0 
L 32.328125 17.140625 
L 1.265625 17.140625 
L 1.265625 25.203125 
L 33.9375 71.578125 
L 41.109375 71.578125 
L 41.109375 25.203125 
L 50.78125 25.203125 
L 50.78125 17.140625 
L 41.109375 17.140625 
L 41.109375 0 
z
M 32.328125 25.203125 
L 32.328125 57.46875 
L 9.90625 25.203125 
z
" id="ArialMT-52"/>
       </defs>
       <use xlink:href="#ArialMT-52"/>
      </g>
     </g>
    </g>
    <g id="xtick_3">
     <g id="line2d_3">
      <g>
       <use style="fill:#262626;stroke:#262626;stroke-width:1.25;" x="252.146939" xlink:href="#mf56b2130bc" y="315"/>
      </g>
     </g>
     <g id="text_3">
      <!-- 6 -->
      <g style="fill:#262626;" transform="translate(247.698189 335.9525)scale(0.16 -0.16)">
       <defs>
        <path d="M 49.75 54.046875 
L 41.015625 53.375 
Q 39.84375 58.546875 37.703125 60.890625 
Q 34.125 64.65625 28.90625 64.65625 
Q 24.703125 64.65625 21.53125 62.3125 
Q 17.390625 59.28125 14.984375 53.46875 
Q 12.59375 47.65625 12.5 36.921875 
Q 15.671875 41.75 20.265625 44.09375 
Q 24.859375 46.4375 29.890625 46.4375 
Q 38.671875 46.4375 44.84375 39.96875 
Q 51.03125 33.5 51.03125 23.25 
Q 51.03125 16.5 48.125 10.71875 
Q 45.21875 4.9375 40.140625 1.859375 
Q 35.0625 -1.21875 28.609375 -1.21875 
Q 17.625 -1.21875 10.6875 6.859375 
Q 3.765625 14.9375 3.765625 33.5 
Q 3.765625 54.25 11.421875 63.671875 
Q 18.109375 71.875 29.4375 71.875 
Q 37.890625 71.875 43.28125 67.140625 
Q 48.6875 62.40625 49.75 54.046875 
z
M 13.875 23.1875 
Q 13.875 18.65625 15.796875 14.5 
Q 17.71875 10.359375 21.1875 8.171875 
Q 24.65625 6 28.46875 6 
Q 34.03125 6 38.03125 10.484375 
Q 42.046875 14.984375 42.046875 22.703125 
Q 42.046875 30.125 38.078125 34.390625 
Q 34.125 38.671875 28.125 38.671875 
Q 22.171875 38.671875 18.015625 34.390625 
Q 13.875 30.125 13.875 23.1875 
z
" id="ArialMT-54"/>
       </defs>
       <use xlink:href="#ArialMT-54"/>
      </g>
     </g>
    </g>
    <g id="xtick_4">
     <g id="line2d_4">
      <g>
       <use style="fill:#262626;stroke:#262626;stroke-width:1.25;" x="320.473469" xlink:href="#mf56b2130bc" y="315"/>
      </g>
     </g>
     <g id="text_4">
      <!-- 8 -->
      <g style="fill:#262626;" transform="translate(316.024719 335.9525)scale(0.16 -0.16)">
       <defs>
        <path d="M 17.671875 38.8125 
Q 12.203125 40.828125 9.5625 44.53125 
Q 6.9375 48.25 6.9375 53.421875 
Q 6.9375 61.234375 12.546875 66.546875 
Q 18.171875 71.875 27.484375 71.875 
Q 36.859375 71.875 42.578125 66.421875 
Q 48.296875 60.984375 48.296875 53.171875 
Q 48.296875 48.1875 45.671875 44.5 
Q 43.0625 40.828125 37.75 38.8125 
Q 44.34375 36.671875 47.78125 31.875 
Q 51.21875 27.09375 51.21875 20.453125 
Q 51.21875 11.28125 44.71875 5.03125 
Q 38.234375 -1.21875 27.640625 -1.21875 
Q 17.046875 -1.21875 10.546875 5.046875 
Q 4.046875 11.328125 4.046875 20.703125 
Q 4.046875 27.6875 7.59375 32.390625 
Q 11.140625 37.109375 17.671875 38.8125 
z
M 15.921875 53.71875 
Q 15.921875 48.640625 19.1875 45.40625 
Q 22.46875 42.1875 27.6875 42.1875 
Q 32.765625 42.1875 36.015625 45.375 
Q 39.265625 48.578125 39.265625 53.21875 
Q 39.265625 58.0625 35.90625 61.359375 
Q 32.5625 64.65625 27.59375 64.65625 
Q 22.5625 64.65625 19.234375 61.421875 
Q 15.921875 58.203125 15.921875 53.71875 
z
M 13.09375 20.65625 
Q 13.09375 16.890625 14.875 13.375 
Q 16.65625 9.859375 20.171875 7.921875 
Q 23.6875 6 27.734375 6 
Q 34.03125 6 38.125 10.046875 
Q 42.234375 14.109375 42.234375 20.359375 
Q 42.234375 26.703125 38.015625 30.859375 
Q 33.796875 35.015625 27.4375 35.015625 
Q 21.234375 35.015625 17.15625 30.90625 
Q 13.09375 26.8125 13.09375 20.65625 
z
" id="ArialMT-56"/>
       </defs>
       <use xlink:href="#ArialMT-56"/>
      </g>
     </g>
    </g>
    <g id="xtick_5">
     <g id="line2d_5">
      <g>
       <use style="fill:#262626;stroke:#262626;stroke-width:1.25;" x="388.8" xlink:href="#mf56b2130bc" y="315"/>
      </g>
     </g>
     <g id="text_5">
      <!-- 10 -->
      <g style="fill:#262626;" transform="translate(379.9025 335.9525)scale(0.16 -0.16)">
       <defs>
        <path d="M 37.25 0 
L 28.46875 0 
L 28.46875 56 
Q 25.296875 52.984375 20.140625 49.953125 
Q 14.984375 46.921875 10.890625 45.40625 
L 10.890625 53.90625 
Q 18.265625 57.375 23.78125 62.296875 
Q 29.296875 67.234375 31.59375 71.875 
L 37.25 71.875 
z
" id="ArialMT-49"/>
        <path d="M 4.15625 35.296875 
Q 4.15625 48 6.765625 55.734375 
Q 9.375 63.484375 14.515625 67.671875 
Q 19.671875 71.875 27.484375 71.875 
Q 33.25 71.875 37.59375 69.546875 
Q 41.9375 67.234375 44.765625 62.859375 
Q 47.609375 58.5 49.21875 52.21875 
Q 50.828125 45.953125 50.828125 35.296875 
Q 50.828125 22.703125 48.234375 14.96875 
Q 45.65625 7.234375 40.5 3 
Q 35.359375 -1.21875 27.484375 -1.21875 
Q 17.140625 -1.21875 11.234375 6.203125 
Q 4.15625 15.140625 4.15625 35.296875 
z
M 13.1875 35.296875 
Q 13.1875 17.671875 17.3125 11.828125 
Q 21.4375 6 27.484375 6 
Q 33.546875 6 37.671875 11.859375 
Q 41.796875 17.71875 41.796875 35.296875 
Q 41.796875 52.984375 37.671875 58.78125 
Q 33.546875 64.59375 27.390625 64.59375 
Q 21.34375 64.59375 17.71875 59.46875 
Q 13.1875 52.9375 13.1875 35.296875 
z
" id="ArialMT-48"/>
       </defs>
       <use xlink:href="#ArialMT-49"/>
       <use x="55.615234" xlink:href="#ArialMT-48"/>
      </g>
     </g>
    </g>
    <g id="text_6">
     <!-- Time (hours) -->
     <g style="fill:#262626;" transform="translate(170.734219 356.235937)scale(0.18 -0.18)">
      <defs>
       <path d="M 25.921875 0 
L 25.921875 63.140625 
L 2.34375 63.140625 
L 2.34375 71.578125 
L 59.078125 71.578125 
L 59.078125 63.140625 
L 35.40625 63.140625 
L 35.40625 0 
z
" id="ArialMT-84"/>
       <path d="M 6.640625 61.46875 
L 6.640625 71.578125 
L 15.4375 71.578125 
L 15.4375 61.46875 
z
M 6.640625 0 
L 6.640625 51.859375 
L 15.4375 51.859375 
L 15.4375 0 
z
" id="ArialMT-105"/>
       <path d="M 6.59375 0 
L 6.59375 51.859375 
L 14.453125 51.859375 
L 14.453125 44.578125 
Q 16.890625 48.390625 20.9375 50.703125 
Q 25 53.03125 30.171875 53.03125 
Q 35.9375 53.03125 39.625 50.640625 
Q 43.3125 48.25 44.828125 43.953125 
Q 50.984375 53.03125 60.84375 53.03125 
Q 68.5625 53.03125 72.703125 48.75 
Q 76.859375 44.484375 76.859375 35.59375 
L 76.859375 0 
L 68.109375 0 
L 68.109375 32.671875 
Q 68.109375 37.9375 67.25 40.25 
Q 66.40625 42.578125 64.15625 43.984375 
Q 61.921875 45.40625 58.890625 45.40625 
Q 53.421875 45.40625 49.796875 41.765625 
Q 46.1875 38.140625 46.1875 30.125 
L 46.1875 0 
L 37.40625 0 
L 37.40625 33.6875 
Q 37.40625 39.546875 35.25 42.46875 
Q 33.109375 45.40625 28.21875 45.40625 
Q 24.515625 45.40625 21.359375 43.453125 
Q 18.21875 41.5 16.796875 37.734375 
Q 15.375 33.984375 15.375 26.90625 
L 15.375 0 
z
" id="ArialMT-109"/>
       <path d="M 42.09375 16.703125 
L 51.171875 15.578125 
Q 49.03125 7.625 43.21875 3.21875 
Q 37.40625 -1.171875 28.375 -1.171875 
Q 17 -1.171875 10.328125 5.828125 
Q 3.65625 12.84375 3.65625 25.484375 
Q 3.65625 38.578125 10.390625 45.796875 
Q 17.140625 53.03125 27.875 53.03125 
Q 38.28125 53.03125 44.875 45.953125 
Q 51.46875 38.875 51.46875 26.03125 
Q 51.46875 25.25 51.421875 23.6875 
L 12.75 23.6875 
Q 13.234375 15.140625 17.578125 10.59375 
Q 21.921875 6.0625 28.421875 6.0625 
Q 33.25 6.0625 36.671875 8.59375 
Q 40.09375 11.140625 42.09375 16.703125 
z
M 13.234375 30.90625 
L 42.1875 30.90625 
Q 41.609375 37.453125 38.875 40.71875 
Q 34.671875 45.796875 27.984375 45.796875 
Q 21.921875 45.796875 17.796875 41.75 
Q 13.671875 37.703125 13.234375 30.90625 
z
" id="ArialMT-101"/>
       <path id="ArialMT-32"/>
       <path d="M 23.390625 -21.046875 
Q 16.109375 -11.859375 11.078125 0.4375 
Q 6.0625 12.75 6.0625 25.921875 
Q 6.0625 37.546875 9.8125 48.1875 
Q 14.203125 60.546875 23.390625 72.796875 
L 29.6875 72.796875 
Q 23.78125 62.640625 21.875 58.296875 
Q 18.890625 51.5625 17.1875 44.234375 
Q 15.09375 35.109375 15.09375 25.875 
Q 15.09375 2.390625 29.6875 -21.046875 
z
" id="ArialMT-40"/>
       <path d="M 6.59375 0 
L 6.59375 71.578125 
L 15.375 71.578125 
L 15.375 45.90625 
Q 21.53125 53.03125 30.90625 53.03125 
Q 36.671875 53.03125 40.921875 50.75 
Q 45.171875 48.484375 47 44.484375 
Q 48.828125 40.484375 48.828125 32.859375 
L 48.828125 0 
L 40.046875 0 
L 40.046875 32.859375 
Q 40.046875 39.453125 37.1875 42.453125 
Q 34.328125 45.453125 29.109375 45.453125 
Q 25.203125 45.453125 21.75 43.421875 
Q 18.3125 41.40625 16.84375 37.9375 
Q 15.375 34.46875 15.375 28.375 
L 15.375 0 
z
" id="ArialMT-104"/>
       <path d="M 3.328125 25.921875 
Q 3.328125 40.328125 11.328125 47.265625 
Q 18.015625 53.03125 27.640625 53.03125 
Q 38.328125 53.03125 45.109375 46.015625 
Q 51.90625 39.015625 51.90625 26.65625 
Q 51.90625 16.65625 48.90625 10.90625 
Q 45.90625 5.171875 40.15625 2 
Q 34.421875 -1.171875 27.640625 -1.171875 
Q 16.75 -1.171875 10.03125 5.8125 
Q 3.328125 12.796875 3.328125 25.921875 
z
M 12.359375 25.921875 
Q 12.359375 15.96875 16.703125 11.015625 
Q 21.046875 6.0625 27.640625 6.0625 
Q 34.1875 6.0625 38.53125 11.03125 
Q 42.875 16.015625 42.875 26.21875 
Q 42.875 35.84375 38.5 40.796875 
Q 34.125 45.75 27.640625 45.75 
Q 21.046875 45.75 16.703125 40.8125 
Q 12.359375 35.890625 12.359375 25.921875 
z
" id="ArialMT-111"/>
       <path d="M 40.578125 0 
L 40.578125 7.625 
Q 34.515625 -1.171875 24.125 -1.171875 
Q 19.53125 -1.171875 15.546875 0.578125 
Q 11.578125 2.34375 9.640625 5 
Q 7.71875 7.671875 6.9375 11.53125 
Q 6.390625 14.109375 6.390625 19.734375 
L 6.390625 51.859375 
L 15.1875 51.859375 
L 15.1875 23.09375 
Q 15.1875 16.21875 15.71875 13.8125 
Q 16.546875 10.359375 19.234375 8.375 
Q 21.921875 6.390625 25.875 6.390625 
Q 29.828125 6.390625 33.296875 8.421875 
Q 36.765625 10.453125 38.203125 13.9375 
Q 39.65625 17.4375 39.65625 24.078125 
L 39.65625 51.859375 
L 48.4375 51.859375 
L 48.4375 0 
z
" id="ArialMT-117"/>
       <path d="M 6.5 0 
L 6.5 51.859375 
L 14.40625 51.859375 
L 14.40625 44 
Q 17.4375 49.515625 20 51.265625 
Q 22.5625 53.03125 25.640625 53.03125 
Q 30.078125 53.03125 34.671875 50.203125 
L 31.640625 42.046875 
Q 28.421875 43.953125 25.203125 43.953125 
Q 22.3125 43.953125 20.015625 42.21875 
Q 17.71875 40.484375 16.75 37.40625 
Q 15.28125 32.71875 15.28125 27.15625 
L 15.28125 0 
z
" id="ArialMT-114"/>
       <path d="M 3.078125 15.484375 
L 11.765625 16.84375 
Q 12.5 11.625 15.84375 8.84375 
Q 19.1875 6.0625 25.203125 6.0625 
Q 31.25 6.0625 34.171875 8.515625 
Q 37.109375 10.984375 37.109375 14.3125 
Q 37.109375 17.28125 34.515625 19 
Q 32.71875 20.171875 25.53125 21.96875 
Q 15.875 24.421875 12.140625 26.203125 
Q 8.40625 27.984375 6.46875 31.125 
Q 4.546875 34.28125 4.546875 38.09375 
Q 4.546875 41.546875 6.125 44.5 
Q 7.71875 47.46875 10.453125 49.421875 
Q 12.5 50.921875 16.03125 51.96875 
Q 19.578125 53.03125 23.640625 53.03125 
Q 29.734375 53.03125 34.34375 51.265625 
Q 38.96875 49.515625 41.15625 46.5 
Q 43.359375 43.5 44.1875 38.484375 
L 35.59375 37.3125 
Q 35.015625 41.3125 32.203125 43.546875 
Q 29.390625 45.796875 24.265625 45.796875 
Q 18.21875 45.796875 15.625 43.796875 
Q 13.03125 41.796875 13.03125 39.109375 
Q 13.03125 37.40625 14.109375 36.03125 
Q 15.1875 34.625 17.484375 33.6875 
Q 18.796875 33.203125 25.25 31.453125 
Q 34.578125 28.953125 38.25 27.359375 
Q 41.9375 25.78125 44.03125 22.75 
Q 46.140625 19.734375 46.140625 15.234375 
Q 46.140625 10.84375 43.578125 6.953125 
Q 41.015625 3.078125 36.171875 0.953125 
Q 31.34375 -1.171875 25.25 -1.171875 
Q 15.140625 -1.171875 9.84375 3.03125 
Q 4.546875 7.234375 3.078125 15.484375 
z
" id="ArialMT-115"/>
       <path d="M 12.359375 -21.046875 
L 6.0625 -21.046875 
Q 20.65625 2.390625 20.65625 25.875 
Q 20.65625 35.0625 18.5625 44.09375 
Q 16.890625 51.421875 13.921875 58.15625 
Q 12.015625 62.546875 6.0625 72.796875 
L 12.359375 72.796875 
Q 21.53125 60.546875 25.921875 48.1875 
Q 29.6875 37.546875 29.6875 25.921875 
Q 29.6875 12.75 24.625 0.4375 
Q 19.578125 -11.859375 12.359375 -21.046875 
z
" id="ArialMT-41"/>
      </defs>
      <use xlink:href="#ArialMT-84"/>
      <use x="57.333984" xlink:href="#ArialMT-105"/>
      <use x="79.550781" xlink:href="#ArialMT-109"/>
      <use x="162.851562" xlink:href="#ArialMT-101"/>
      <use x="218.466797" xlink:href="#ArialMT-32"/>
      <use x="246.25" xlink:href="#ArialMT-40"/>
      <use x="279.550781" xlink:href="#ArialMT-104"/>
      <use x="335.166016" xlink:href="#ArialMT-111"/>
      <use x="390.78125" xlink:href="#ArialMT-117"/>
      <use x="446.396484" xlink:href="#ArialMT-114"/>
      <use x="479.697266" xlink:href="#ArialMT-115"/>
      <use x="529.697266" xlink:href="#ArialMT-41"/>
     </g>
    </g>
   </g>
   <g id="matplotlib.axis_2">
    <g id="ytick_1">
     <g id="line2d_6">
      <path clip-path="url(#p55adb33a06)" d="M 54 315 
L 388.8 315 
" style="fill:none;stroke:#cccccc;stroke-linecap:round;"/>
     </g>
     <g id="line2d_7">
      <defs>
       <path d="M 0 0 
L -6 0 
" id="m7cf1039aff" style="stroke:#262626;stroke-width:1.25;"/>
      </defs>
      <g>
       <use style="fill:#262626;stroke:#262626;stroke-width:1.25;" x="54" xlink:href="#m7cf1039aff" y="315"/>
      </g>
     </g>
     <g id="text_7">
      <!-- $\mathdefault{10^{1}}$ -->
      <g style="fill:#262626;" transform="translate(19.38 323.25)scale(0.16 -0.16)">
       <use transform="translate(0 0.99375)" xlink:href="#ArialMT-49"/>
       <use transform="translate(55.615234 0.99375)" xlink:href="#ArialMT-48"/>
       <use transform="translate(112.972813 70.6875)scale(0.7)" xlink:href="#ArialMT-49"/>
      </g>
     </g>
    </g>
    <g id="ytick_2">
     <g id="line2d_8">
      <path clip-path="url(#p55adb33a06)" d="M 54 210.544299 
L 388.8 210.544299 
" style="fill:none;stroke:#cccccc;stroke-linecap:round;"/>
     </g>
     <g id="line2d_9">
      <g>
       <use style="fill:#262626;stroke:#262626;stroke-width:1.25;" x="54" xlink:href="#m7cf1039aff" y="210.544299"/>
      </g>
     </g>
     <g id="text_8">
      <!-- $\mathdefault{10^{2}}$ -->
      <g style="fill:#262626;" transform="translate(19.38 218.794299)scale(0.16 -0.16)">
       <use transform="translate(0 0.99375)" xlink:href="#ArialMT-49"/>
       <use transform="translate(55.615234 0.99375)" xlink:href="#ArialMT-48"/>
       <use transform="translate(112.972813 70.6875)scale(0.7)" xlink:href="#ArialMT-50"/>
      </g>
     </g>
    </g>
    <g id="ytick_3">
     <g id="line2d_10">
      <path clip-path="url(#p55adb33a06)" d="M 54 106.088598 
L 388.8 106.088598 
" style="fill:none;stroke:#cccccc;stroke-linecap:round;"/>
     </g>
     <g id="line2d_11">
      <g>
       <use style="fill:#262626;stroke:#262626;stroke-width:1.25;" x="54" xlink:href="#m7cf1039aff" y="106.088598"/>
      </g>
     </g>
     <g id="text_9">
      <!-- $\mathdefault{10^{3}}$ -->
      <g style="fill:#262626;" transform="translate(19.38 114.338598)scale(0.16 -0.16)">
       <defs>
        <path d="M 4.203125 18.890625 
L 12.984375 20.0625 
Q 14.5 12.59375 18.140625 9.296875 
Q 21.78125 6 27 6 
Q 33.203125 6 37.46875 10.296875 
Q 41.75 14.59375 41.75 20.953125 
Q 41.75 27 37.796875 30.921875 
Q 33.84375 34.859375 27.734375 34.859375 
Q 25.25 34.859375 21.53125 33.890625 
L 22.515625 41.609375 
Q 23.390625 41.5 23.921875 41.5 
Q 29.546875 41.5 34.03125 44.421875 
Q 38.53125 47.359375 38.53125 53.46875 
Q 38.53125 58.296875 35.25 61.46875 
Q 31.984375 64.65625 26.8125 64.65625 
Q 21.6875 64.65625 18.265625 61.421875 
Q 14.84375 58.203125 13.875 51.765625 
L 5.078125 53.328125 
Q 6.6875 62.15625 12.390625 67.015625 
Q 18.109375 71.875 26.609375 71.875 
Q 32.46875 71.875 37.390625 69.359375 
Q 42.328125 66.84375 44.9375 62.5 
Q 47.5625 58.15625 47.5625 53.265625 
Q 47.5625 48.640625 45.0625 44.828125 
Q 42.578125 41.015625 37.703125 38.765625 
Q 44.046875 37.3125 47.5625 32.6875 
Q 51.078125 28.078125 51.078125 21.140625 
Q 51.078125 11.765625 44.234375 5.25 
Q 37.40625 -1.265625 26.953125 -1.265625 
Q 17.53125 -1.265625 11.296875 4.34375 
Q 5.078125 9.96875 4.203125 18.890625 
z
" id="ArialMT-51"/>
       </defs>
       <use transform="translate(0 0.99375)" xlink:href="#ArialMT-49"/>
       <use transform="translate(55.615234 0.99375)" xlink:href="#ArialMT-48"/>
       <use transform="translate(112.972813 70.6875)scale(0.7)" xlink:href="#ArialMT-51"/>
      </g>
     </g>
    </g>
    <g id="ytick_4">
     <g id="line2d_12">
      <path clip-path="url(#p55adb33a06)" d="M 54 283.555701 
L 388.8 283.555701 
" style="fill:none;stroke:#cccccc;stroke-linecap:round;"/>
     </g>
     <g id="line2d_13">
      <defs>
       <path d="M 0 0 
L -4 0 
" id="m7c384bcade" style="stroke:#262626;"/>
      </defs>
      <g>
       <use style="fill:#262626;stroke:#262626;" x="54" xlink:href="#m7c384bcade" y="283.555701"/>
      </g>
     </g>
    </g>
    <g id="ytick_5">
     <g id="line2d_14">
      <path clip-path="url(#p55adb33a06)" d="M 54 265.161965 
L 388.8 265.161965 
" style="fill:none;stroke:#cccccc;stroke-linecap:round;"/>
     </g>
     <g id="line2d_15">
      <g>
       <use style="fill:#262626;stroke:#262626;" x="54" xlink:href="#m7c384bcade" y="265.161965"/>
      </g>
     </g>
    </g>
    <g id="ytick_6">
     <g id="line2d_16">
      <path clip-path="url(#p55adb33a06)" d="M 54 252.111402 
L 388.8 252.111402 
" style="fill:none;stroke:#cccccc;stroke-linecap:round;"/>
     </g>
     <g id="line2d_17">
      <g>
       <use style="fill:#262626;stroke:#262626;" x="54" xlink:href="#m7c384bcade" y="252.111402"/>
      </g>
     </g>
    </g>
    <g id="ytick_7">
     <g id="line2d_18">
      <path clip-path="url(#p55adb33a06)" d="M 54 241.988598 
L 388.8 241.988598 
" style="fill:none;stroke:#cccccc;stroke-linecap:round;"/>
     </g>
     <g id="line2d_19">
      <g>
       <use style="fill:#262626;stroke:#262626;" x="54" xlink:href="#m7c384bcade" y="241.988598"/>
      </g>
     </g>
    </g>
    <g id="ytick_8">
     <g id="line2d_20">
      <path clip-path="url(#p55adb33a06)" d="M 54 233.717666 
L 388.8 233.717666 
" style="fill:none;stroke:#cccccc;stroke-linecap:round;"/>
     </g>
     <g id="line2d_21">
      <g>
       <use style="fill:#262626;stroke:#262626;" x="54" xlink:href="#m7c384bcade" y="233.717666"/>
      </g>
     </g>
    </g>
    <g id="ytick_9">
     <g id="line2d_22">
      <path clip-path="url(#p55adb33a06)" d="M 54 226.724692 
L 388.8 226.724692 
" style="fill:none;stroke:#cccccc;stroke-linecap:round;"/>
     </g>
     <g id="line2d_23">
      <g>
       <use style="fill:#262626;stroke:#262626;" x="54" xlink:href="#m7c384bcade" y="226.724692"/>
      </g>
     </g>
    </g>
    <g id="ytick_10">
     <g id="line2d_24">
      <path clip-path="url(#p55adb33a06)" d="M 54 220.667102 
L 388.8 220.667102 
" style="fill:none;stroke:#cccccc;stroke-linecap:round;"/>
     </g>
     <g id="line2d_25">
      <g>
       <use style="fill:#262626;stroke:#262626;" x="54" xlink:href="#m7c384bcade" y="220.667102"/>
      </g>
     </g>
    </g>
    <g id="ytick_11">
     <g id="line2d_26">
      <path clip-path="url(#p55adb33a06)" d="M 54 215.32393 
L 388.8 215.32393 
" style="fill:none;stroke:#cccccc;stroke-linecap:round;"/>
     </g>
     <g id="line2d_27">
      <g>
       <use style="fill:#262626;stroke:#262626;" x="54" xlink:href="#m7c384bcade" y="215.32393"/>
      </g>
     </g>
    </g>
    <g id="ytick_12">
     <g id="line2d_28">
      <path clip-path="url(#p55adb33a06)" d="M 54 179.1 
L 388.8 179.1 
" style="fill:none;stroke:#cccccc;stroke-linecap:round;"/>
     </g>
     <g id="line2d_29">
      <g>
       <use style="fill:#262626;stroke:#262626;" x="54" xlink:href="#m7c384bcade" y="179.1"/>
      </g>
     </g>
    </g>
    <g id="ytick_13">
     <g id="line2d_30">
      <path clip-path="url(#p55adb33a06)" d="M 54 160.706264 
L 388.8 160.706264 
" style="fill:none;stroke:#cccccc;stroke-linecap:round;"/>
     </g>
     <g id="line2d_31">
      <g>
       <use style="fill:#262626;stroke:#262626;" x="54" xlink:href="#m7c384bcade" y="160.706264"/>
      </g>
     </g>
    </g>
    <g id="ytick_14">
     <g id="line2d_32">
      <path clip-path="url(#p55adb33a06)" d="M 54 147.655701 
L 388.8 147.655701 
" style="fill:none;stroke:#cccccc;stroke-linecap:round;"/>
     </g>
     <g id="line2d_33">
      <g>
       <use style="fill:#262626;stroke:#262626;" x="54" xlink:href="#m7c384bcade" y="147.655701"/>
      </g>
     </g>
    </g>
    <g id="ytick_15">
     <g id="line2d_34">
      <path clip-path="url(#p55adb33a06)" d="M 54 137.532898 
L 388.8 137.532898 
" style="fill:none;stroke:#cccccc;stroke-linecap:round;"/>
     </g>
     <g id="line2d_35">
      <g>
       <use style="fill:#262626;stroke:#262626;" x="54" xlink:href="#m7c384bcade" y="137.532898"/>
      </g>
     </g>
    </g>
    <g id="ytick_16">
     <g id="line2d_36">
      <path clip-path="url(#p55adb33a06)" d="M 54 129.261965 
L 388.8 129.261965 
" style="fill:none;stroke:#cccccc;stroke-linecap:round;"/>
     </g>
     <g id="line2d_37">
      <g>
       <use style="fill:#262626;stroke:#262626;" x="54" xlink:href="#m7c384bcade" y="129.261965"/>
      </g>
     </g>
    </g>
    <g id="ytick_17">
     <g id="line2d_38">
      <path clip-path="url(#p55adb33a06)" d="M 54 122.268991 
L 388.8 122.268991 
" style="fill:none;stroke:#cccccc;stroke-linecap:round;"/>
     </g>
     <g id="line2d_39">
      <g>
       <use style="fill:#262626;stroke:#262626;" x="54" xlink:href="#m7c384bcade" y="122.268991"/>
      </g>
     </g>
    </g>
    <g id="ytick_18">
     <g id="line2d_40">
      <path clip-path="url(#p55adb33a06)" d="M 54 116.211402 
L 388.8 116.211402 
" style="fill:none;stroke:#cccccc;stroke-linecap:round;"/>
     </g>
     <g id="line2d_41">
      <g>
       <use style="fill:#262626;stroke:#262626;" x="54" xlink:href="#m7c384bcade" y="116.211402"/>
      </g>
     </g>
    </g>
    <g id="ytick_19">
     <g id="line2d_42">
      <path clip-path="url(#p55adb33a06)" d="M 54 110.868229 
L 388.8 110.868229 
" style="fill:none;stroke:#cccccc;stroke-linecap:round;"/>
     </g>
     <g id="line2d_43">
      <g>
       <use style="fill:#262626;stroke:#262626;" x="54" xlink:href="#m7c384bcade" y="110.868229"/>
      </g>
     </g>
    </g>
    <g id="ytick_20">
     <g id="line2d_44">
      <path clip-path="url(#p55adb33a06)" d="M 54 74.644299 
L 388.8 74.644299 
" style="fill:none;stroke:#cccccc;stroke-linecap:round;"/>
     </g>
     <g id="line2d_45">
      <g>
       <use style="fill:#262626;stroke:#262626;" x="54" xlink:href="#m7c384bcade" y="74.644299"/>
      </g>
     </g>
    </g>
    <g id="ytick_21">
     <g id="line2d_46">
      <path clip-path="url(#p55adb33a06)" d="M 54 56.250563 
L 388.8 56.250563 
" style="fill:none;stroke:#cccccc;stroke-linecap:round;"/>
     </g>
     <g id="line2d_47">
      <g>
       <use style="fill:#262626;stroke:#262626;" x="54" xlink:href="#m7c384bcade" y="56.250563"/>
      </g>
     </g>
    </g>
    <g id="ytick_22">
     <g id="line2d_48">
      <path clip-path="url(#p55adb33a06)" d="M 54 43.2 
L 388.8 43.2 
" style="fill:none;stroke:#cccccc;stroke-linecap:round;"/>
     </g>
     <g id="line2d_49">
      <g>
       <use style="fill:#262626;stroke:#262626;" x="54" xlink:href="#m7c384bcade" y="43.2"/>
      </g>
     </g>
    </g>
    <g id="text_10">
     <!-- Relative Fluorescence Units (RFU) -->
     <g style="fill:#262626;" transform="translate(11.591562 318.131719)rotate(-90)scale(0.18 -0.18)">
      <defs>
       <path d="M 7.859375 0 
L 7.859375 71.578125 
L 39.59375 71.578125 
Q 49.171875 71.578125 54.140625 69.640625 
Q 59.125 67.71875 62.109375 62.828125 
Q 65.09375 57.953125 65.09375 52.046875 
Q 65.09375 44.4375 60.15625 39.203125 
Q 55.21875 33.984375 44.921875 32.5625 
Q 48.6875 30.765625 50.640625 29 
Q 54.78125 25.203125 58.5 19.484375 
L 70.953125 0 
L 59.03125 0 
L 49.5625 14.890625 
Q 45.40625 21.34375 42.71875 24.75 
Q 40.046875 28.171875 37.921875 29.53125 
Q 35.796875 30.90625 33.59375 31.453125 
Q 31.984375 31.78125 28.328125 31.78125 
L 17.328125 31.78125 
L 17.328125 0 
z
M 17.328125 39.984375 
L 37.703125 39.984375 
Q 44.1875 39.984375 47.84375 41.328125 
Q 51.515625 42.671875 53.421875 45.625 
Q 55.328125 48.578125 55.328125 52.046875 
Q 55.328125 57.125 51.640625 60.390625 
Q 47.953125 63.671875 39.984375 63.671875 
L 17.328125 63.671875 
z
" id="ArialMT-82"/>
       <path d="M 6.390625 0 
L 6.390625 71.578125 
L 15.1875 71.578125 
L 15.1875 0 
z
" id="ArialMT-108"/>
       <path d="M 40.4375 6.390625 
Q 35.546875 2.25 31.03125 0.53125 
Q 26.515625 -1.171875 21.34375 -1.171875 
Q 12.796875 -1.171875 8.203125 3 
Q 3.609375 7.171875 3.609375 13.671875 
Q 3.609375 17.484375 5.34375 20.625 
Q 7.078125 23.78125 9.890625 25.6875 
Q 12.703125 27.59375 16.21875 28.5625 
Q 18.796875 29.25 24.03125 29.890625 
Q 34.671875 31.15625 39.703125 32.90625 
Q 39.75 34.71875 39.75 35.203125 
Q 39.75 40.578125 37.25 42.78125 
Q 33.890625 45.75 27.25 45.75 
Q 21.046875 45.75 18.09375 43.578125 
Q 15.140625 41.40625 13.71875 35.890625 
L 5.125 37.0625 
Q 6.296875 42.578125 8.984375 45.96875 
Q 11.671875 49.359375 16.75 51.1875 
Q 21.828125 53.03125 28.515625 53.03125 
Q 35.15625 53.03125 39.296875 51.46875 
Q 43.453125 49.90625 45.40625 47.53125 
Q 47.359375 45.171875 48.140625 41.546875 
Q 48.578125 39.3125 48.578125 33.453125 
L 48.578125 21.734375 
Q 48.578125 9.46875 49.140625 6.21875 
Q 49.703125 2.984375 51.375 0 
L 42.1875 0 
Q 40.828125 2.734375 40.4375 6.390625 
z
M 39.703125 26.03125 
Q 34.90625 24.078125 25.34375 22.703125 
Q 19.921875 21.921875 17.671875 20.9375 
Q 15.4375 19.96875 14.203125 18.09375 
Q 12.984375 16.21875 12.984375 13.921875 
Q 12.984375 10.40625 15.640625 8.0625 
Q 18.3125 5.71875 23.4375 5.71875 
Q 28.515625 5.71875 32.46875 7.9375 
Q 36.421875 10.15625 38.28125 14.015625 
Q 39.703125 17 39.703125 22.796875 
z
" id="ArialMT-97"/>
       <path d="M 25.78125 7.859375 
L 27.046875 0.09375 
Q 23.34375 -0.6875 20.40625 -0.6875 
Q 15.625 -0.6875 12.984375 0.828125 
Q 10.359375 2.34375 9.28125 4.8125 
Q 8.203125 7.28125 8.203125 15.1875 
L 8.203125 45.015625 
L 1.765625 45.015625 
L 1.765625 51.859375 
L 8.203125 51.859375 
L 8.203125 64.703125 
L 16.9375 69.96875 
L 16.9375 51.859375 
L 25.78125 51.859375 
L 25.78125 45.015625 
L 16.9375 45.015625 
L 16.9375 14.703125 
Q 16.9375 10.9375 17.40625 9.859375 
Q 17.875 8.796875 18.921875 8.15625 
Q 19.96875 7.515625 21.921875 7.515625 
Q 23.390625 7.515625 25.78125 7.859375 
z
" id="ArialMT-116"/>
       <path d="M 21 0 
L 1.265625 51.859375 
L 10.546875 51.859375 
L 21.6875 20.796875 
Q 23.484375 15.765625 25 10.359375 
Q 26.171875 14.453125 28.265625 20.21875 
L 39.796875 51.859375 
L 48.828125 51.859375 
L 29.203125 0 
z
" id="ArialMT-118"/>
       <path d="M 8.203125 0 
L 8.203125 71.578125 
L 56.5 71.578125 
L 56.5 63.140625 
L 17.671875 63.140625 
L 17.671875 40.96875 
L 51.265625 40.96875 
L 51.265625 32.515625 
L 17.671875 32.515625 
L 17.671875 0 
z
" id="ArialMT-70"/>
       <path d="M 40.4375 19 
L 49.078125 17.875 
Q 47.65625 8.9375 41.8125 3.875 
Q 35.984375 -1.171875 27.484375 -1.171875 
Q 16.84375 -1.171875 10.375 5.78125 
Q 3.90625 12.75 3.90625 25.734375 
Q 3.90625 34.125 6.6875 40.421875 
Q 9.46875 46.734375 15.15625 49.875 
Q 20.84375 53.03125 27.546875 53.03125 
Q 35.984375 53.03125 41.359375 48.75 
Q 46.734375 44.484375 48.25 36.625 
L 39.703125 35.296875 
Q 38.484375 40.53125 35.375 43.15625 
Q 32.28125 45.796875 27.875 45.796875 
Q 21.234375 45.796875 17.078125 41.03125 
Q 12.9375 36.28125 12.9375 25.984375 
Q 12.9375 15.53125 16.9375 10.796875 
Q 20.953125 6.0625 27.390625 6.0625 
Q 32.5625 6.0625 36.03125 9.234375 
Q 39.5 12.40625 40.4375 19 
z
" id="ArialMT-99"/>
       <path d="M 6.59375 0 
L 6.59375 51.859375 
L 14.5 51.859375 
L 14.5 44.484375 
Q 20.21875 53.03125 31 53.03125 
Q 35.6875 53.03125 39.625 51.34375 
Q 43.5625 49.65625 45.515625 46.921875 
Q 47.46875 44.1875 48.25 40.4375 
Q 48.734375 37.984375 48.734375 31.890625 
L 48.734375 0 
L 39.9375 0 
L 39.9375 31.546875 
Q 39.9375 36.921875 38.90625 39.578125 
Q 37.890625 42.234375 35.28125 43.8125 
Q 32.671875 45.40625 29.15625 45.40625 
Q 23.53125 45.40625 19.453125 41.84375 
Q 15.375 38.28125 15.375 28.328125 
L 15.375 0 
z
" id="ArialMT-110"/>
       <path d="M 54.6875 71.578125 
L 64.15625 71.578125 
L 64.15625 30.21875 
Q 64.15625 19.4375 61.71875 13.078125 
Q 59.28125 6.734375 52.90625 2.75 
Q 46.53125 -1.21875 36.1875 -1.21875 
Q 26.125 -1.21875 19.71875 2.25 
Q 13.328125 5.71875 10.59375 12.28125 
Q 7.859375 18.84375 7.859375 30.21875 
L 7.859375 71.578125 
L 17.328125 71.578125 
L 17.328125 30.28125 
Q 17.328125 20.953125 19.0625 16.53125 
Q 20.796875 12.109375 25.015625 9.71875 
Q 29.25 7.328125 35.359375 7.328125 
Q 45.796875 7.328125 50.234375 12.0625 
Q 54.6875 16.796875 54.6875 30.28125 
z
" id="ArialMT-85"/>
      </defs>
      <use xlink:href="#ArialMT-82"/>
      <use x="72.216797" xlink:href="#ArialMT-101"/>
      <use x="127.832031" xlink:href="#ArialMT-108"/>
      <use x="150.048828" xlink:href="#ArialMT-97"/>
      <use x="205.664062" xlink:href="#ArialMT-116"/>
      <use x="233.447266" xlink:href="#ArialMT-105"/>
      <use x="255.664062" xlink:href="#ArialMT-118"/>
      <use x="305.664062" xlink:href="#ArialMT-101"/>
      <use x="361.279297" xlink:href="#ArialMT-32"/>
      <use x="389.0625" xlink:href="#ArialMT-70"/>
      <use x="450.146484" xlink:href="#ArialMT-108"/>
      <use x="472.363281" xlink:href="#ArialMT-117"/>
      <use x="527.978516" xlink:href="#ArialMT-111"/>
      <use x="583.59375" xlink:href="#ArialMT-114"/>
      <use x="616.894531" xlink:href="#ArialMT-101"/>
      <use x="672.509766" xlink:href="#ArialMT-115"/>
      <use x="722.509766" xlink:href="#ArialMT-99"/>
      <use x="772.509766" xlink:href="#ArialMT-101"/>
      <use x="828.125" xlink:href="#ArialMT-110"/>
      <use x="883.740234" xlink:href="#ArialMT-99"/>
      <use x="933.740234" xlink:href="#ArialMT-101"/>
      <use x="989.355469" xlink:href="#ArialMT-32"/>
      <use x="1017.138672" xlink:href="#ArialMT-85"/>
      <use x="1089.355469" xlink:href="#ArialMT-110"/>
      <use x="1144.970703" xlink:href="#ArialMT-105"/>
      <use x="1167.1875" xlink:href="#ArialMT-116"/>
      <use x="1194.970703" xlink:href="#ArialMT-115"/>
      <use x="1244.970703" xlink:href="#ArialMT-32"/>
      <use x="1272.753906" xlink:href="#ArialMT-40"/>
      <use x="1306.054688" xlink:href="#ArialMT-82"/>
      <use x="1378.271484" xlink:href="#ArialMT-70"/>
      <use x="1439.355469" xlink:href="#ArialMT-85"/>
      <use x="1511.572266" xlink:href="#ArialMT-41"/>
     </g>
    </g>
   </g>
   <g id="line2d_50">
    <path clip-path="url(#p55adb33a06)" d="M 56.432884 361 
L 57.757959 341.149157 
L 63.451837 333.393736 
L 69.145714 321.491703 
L 73.289567 361 
M 86.225576 361 
L 86.227347 328.484677 
L 91.921224 334.3764 
L 97.615102 310.873108 
L 103.30898 330.567349 
L 109.002857 278.743678 
L 114.696735 292.875571 
L 120.390612 319.065214 
L 126.08449 295.328305 
L 131.778367 297.92127 
L 137.472245 290.928296 
L 143.166122 277.215465 
L 148.86 281.755705 
L 154.553878 275.828063 
L 160.247755 274.129488 
L 165.941633 278.356772 
L 171.63551 287.857806 
L 177.329388 264.518486 
L 183.023265 271.73683 
L 188.717143 269.148489 
L 194.41102 269.543309 
L 200.104898 261.897921 
L 205.798776 263.604839 
L 211.492653 257.192059 
L 217.186531 255.648091 
L 222.880408 253.761203 
L 228.574286 250.155959 
L 234.268163 246.86434 
L 239.962041 247.836822 
L 245.655918 245.350472 
L 251.349796 249.032005 
L 257.043673 248.132679 
L 262.737551 238.337562 
L 268.431429 239.631469 
L 274.125306 233.003249 
L 279.819184 232.509768 
L 285.513061 225.74776 
L 291.206939 226.663013 
L 296.900816 225.237197 
L 302.594694 221.898794 
L 308.288571 220.829409 
L 313.982449 216.123006 
L 319.676327 218.789317 
L 325.370204 213.929443 
L 331.064082 213.351248 
L 336.757959 210.522702 
L 342.451837 212.418678 
L 348.145714 207.535603 
L 353.839592 205.94649 
L 359.533469 204.505616 
L 365.227347 206.555683 
L 370.921224 203.090768 
L 376.615102 197.235248 
L 382.30898 201.38209 
L 388.002857 201.754295 
L 393.696735 202.291372 
L 399.390612 197.493736 
L 405.08449 199.701409 
L 410.778367 199.684402 
L 416.472245 196.579518 
L 422.166122 196.405191 
L 427.86 194.515374 
L 433 196.912541 
" style="fill:none;stroke:#1a1a1a;stroke-linecap:round;stroke-width:2;"/>
   </g>
   <g id="line2d_51">
    <path clip-path="url(#p55adb33a06)" d="M 55.320378 361 
L 57.757959 308.007026 
L 62.374341 361 
M 67.783543 361 
L 69.145714 357.110397 
L 74.839592 308.565939 
L 80.533469 350.984539 
L 86.227347 308.378869 
L 91.921224 316.093174 
L 97.615102 295.049138 
L 103.30898 291.826633 
L 109.002857 280.124445 
L 114.696735 290.297347 
L 120.390612 304.618709 
L 126.08449 271.487801 
L 131.778367 273.346571 
L 137.472245 263.189283 
L 143.166122 251.308469 
L 148.86 264.024237 
L 154.553878 264.094515 
L 160.247755 260.512133 
L 165.941633 255.882231 
L 171.63551 251.788521 
L 177.329388 243.348101 
L 183.023265 243.705656 
L 188.717143 243.037536 
L 194.41102 240.668655 
L 200.104898 235.893221 
L 205.798776 234.079138 
L 211.492653 228.582992 
L 217.186531 232.579938 
L 222.880408 224.291452 
L 228.574286 218.71166 
L 234.268163 218.556744 
L 239.962041 220.937936 
L 245.655918 214.444422 
L 251.349796 207.093019 
L 257.043673 207.758525 
L 262.737551 205.693437 
L 268.431429 202.671145 
L 274.125306 199.177153 
L 279.819184 198.37717 
L 285.513061 191.36532 
L 291.206939 192.847153 
L 296.900816 192.454006 
L 302.594694 188.993859 
L 308.288571 187.138227 
L 313.982449 181.87249 
L 319.676327 182.183563 
L 325.370204 178.873743 
L 331.064082 180.082664 
L 336.757959 176.958721 
L 342.451837 175.728869 
L 348.145714 173.212847 
L 353.839592 172.385622 
L 359.533469 169.211102 
L 365.227347 171.673971 
L 370.921224 167.632081 
L 376.615102 167.47298 
L 382.30898 167.732854 
L 388.002857 166.644684 
L 393.696735 166.636477 
L 399.390612 165.111407 
L 405.08449 166.620067 
L 410.778367 164.465357 
L 416.472245 162.400892 
L 422.166122 162.715925 
L 427.86 164.161289 
L 433 162.836145 
" style="fill:none;stroke:#579e7c;stroke-linecap:round;stroke-width:2;"/>
   </g>
   <g id="line2d_52">
    <path clip-path="url(#p55adb33a06)" d="M 71.952885 361 
L 74.839592 335.127623 
L 74.841001 361 
M 86.224324 361 
L 86.227347 305.486126 
L 91.921224 300.553495 
L 97.615102 335.127623 
L 103.30898 299.466867 
L 109.002857 298.144192 
L 114.696735 316.537928 
L 114.699156 361 
M 126.080173 361 
L 126.08449 281.70383 
L 131.778367 283.935323 
L 137.472245 306.415125 
L 143.166122 272.534561 
L 148.86 297.625735 
L 154.553878 283.745115 
L 160.247755 290.485712 
L 165.941633 276.725033 
L 171.63551 285.684065 
L 177.329388 278.380857 
L 183.023265 285.684065 
L 188.717143 270.932436 
L 194.41102 278.212528 
L 200.104898 271.799301 
L 205.798776 284.510779 
L 211.492653 268.156981 
L 217.186531 262.828768 
L 222.880408 258.712285 
L 228.574286 255.852897 
L 234.268163 252.777839 
L 239.962041 248.046188 
L 245.655918 248.219335 
L 251.349796 254.042099 
L 257.043673 244.07736 
L 262.737551 253.551667 
L 268.431429 247.105513 
L 274.125306 239.060838 
L 279.819184 244.07736 
L 285.513061 230.730876 
L 291.206939 226.401811 
L 296.900816 224.821006 
L 302.594694 227.542093 
L 308.288571 226.562964 
L 313.982449 221.285611 
L 319.676327 218.815232 
L 325.370204 217.650826 
L 331.064082 212.950852 
L 336.757959 211.153228 
L 342.451837 207.15813 
L 348.145714 209.387264 
L 353.839592 209.350427 
L 359.533469 204.567114 
L 365.227347 209.571898 
L 370.921224 206.77383 
L 376.615102 201.061087 
L 382.30898 203.876521 
L 388.002857 201.09177 
L 393.696735 201.214709 
L 399.390612 196.874223 
L 405.08449 197.465392 
L 410.778367 196.9022 
L 416.472245 195.118665 
L 422.166122 196.04284 
L 427.86 194.903921 
L 433 192.1237 
" style="fill:none;stroke:#af7cb5;stroke-linecap:round;stroke-width:2;"/>
   </g>
   <g id="line2d_53">
    <path clip-path="url(#p55adb33a06)" d="M 54.198236 361 
L 57.757959 332.830194 
L 58.713218 361 
M 74.835613 361 
L 74.839592 287.917222 
L 80.533469 332.273567 
L 86.227347 298.668644 
L 91.921224 321.491703 
L 97.615102 281.162696 
L 103.30898 280.274908 
L 109.002857 274.195345 
L 114.696735 256.058632 
L 120.390612 289.61329 
L 126.08449 285.882597 
L 131.778367 254.239766 
L 137.472245 252.682032 
L 143.166122 238.848689 
L 148.86 252.491023 
L 154.553878 241.313183 
L 160.247755 236.780039 
L 165.941633 237.733683 
L 171.63551 238.848689 
L 177.329388 232.047617 
L 183.023265 225.762864 
L 188.717143 223.443899 
L 194.41102 221.864125 
L 200.104898 218.498786 
L 205.798776 218.095145 
L 211.492653 214.989135 
L 217.186531 213.0706 
L 222.880408 204.533989 
L 228.574286 206.220597 
L 234.268163 200.36105 
L 239.962041 199.850487 
L 245.655918 196.373567 
L 251.349796 194.08126 
L 257.043673 188.426503 
L 262.737551 182.128682 
L 268.431429 180.113027 
L 274.125306 177.211852 
L 279.819184 172.513886 
L 285.513061 169.478971 
L 291.206939 165.09554 
L 296.900816 163.540032 
L 302.594694 160.530189 
L 308.288571 161.443089 
L 313.982449 156.773737 
L 319.676327 156.704461 
L 325.370204 154.673884 
L 331.064082 154.453774 
L 336.757959 153.734898 
L 342.451837 152.05886 
L 348.145714 149.843534 
L 353.839592 148.746109 
L 359.533469 148.044854 
L 365.227347 148.235903 
L 370.921224 145.740364 
L 376.615102 144.462909 
L 382.30898 145.262696 
L 388.002857 144.657114 
L 393.696735 144.007156 
L 399.390612 143.590487 
L 405.08449 143.297645 
L 410.778367 141.986073 
L 416.472245 142.371372 
L 422.166122 140.275545 
L 427.86 140.695142 
L 433 141.292233 
" style="fill:none;stroke:#af7cb5;stroke-linecap:round;stroke-width:2;"/>
   </g>
   <g id="line2d_54">
    <path clip-path="url(#p55adb33a06)" d="M 58.542499 361 
L 63.451837 307.074047 
L 69.145714 268.439322 
L 74.839592 272.132033 
L 80.533469 291.171538 
L 86.227347 250.991233 
L 91.921224 254.655874 
L 97.615102 244.620394 
L 103.30898 226.901782 
L 109.002857 228.039698 
L 114.696735 218.40469 
L 120.390612 220.154503 
L 126.08449 207.091199 
L 131.778367 200.819142 
L 137.472245 195.30986 
L 143.166122 191.037101 
L 148.86 182.882568 
L 154.553878 177.380291 
L 160.247755 173.848566 
L 165.941633 169.474802 
L 171.63551 168.387187 
L 177.329388 162.144755 
L 183.023265 160.282102 
L 188.717143 154.103805 
L 194.41102 151.393464 
L 200.104898 147.583587 
L 205.798776 145.256176 
L 211.492653 141.225901 
L 217.186531 138.407321 
L 222.880408 135.09232 
L 228.574286 131.828253 
L 234.268163 128.974196 
L 239.962041 125.599152 
L 245.655918 121.567464 
L 251.349796 116.293958 
L 257.043673 110.877395 
L 262.737551 106.996669 
L 268.431429 103.340331 
L 274.125306 99.412513 
L 279.819184 97.567477 
L 285.513061 92.987544 
L 291.206939 91.034324 
L 296.900816 88.493672 
L 302.594694 85.926209 
L 308.288571 84.607576 
L 313.982449 82.138353 
L 319.676327 80.71603 
L 325.370204 79.396445 
L 331.064082 78.945325 
L 336.757959 77.119034 
L 342.451837 75.994191 
L 348.145714 75.352956 
L 353.839592 74.463203 
L 359.533469 73.383527 
L 365.227347 73.143503 
L 370.921224 72.084683 
L 376.615102 70.945362 
L 382.30898 71.911561 
L 388.002857 71.294505 
L 393.696735 71.008124 
L 399.390612 70.264395 
L 405.08449 70.253163 
L 410.778367 69.413072 
L 416.472245 68.508935 
L 422.166122 68.109039 
L 427.86 67.9967 
L 433 68.067501 
" style="fill:none;stroke:#af7cb5;stroke-linecap:round;stroke-width:2;"/>
   </g>
   <g id="line2d_55">
    <path clip-path="url(#p55adb33a06)" d="M 63.449782 361 
L 63.451837 323.270933 
L 69.145714 288.056164 
L 74.839592 294.633582 
L 80.533469 290.339138 
L 86.227347 266.009925 
L 91.921224 274.866659 
L 97.615102 247.445324 
L 103.30898 245.552542 
L 109.002857 234.05495 
L 114.696735 230.475963 
L 120.390612 234.995625 
L 126.08449 223.729475 
L 131.778367 215.774202 
L 137.472245 213.083925 
L 143.166122 205.855488 
L 148.86 204.55607 
L 154.553878 200.260486 
L 160.247755 190.760731 
L 165.941633 190.339034 
L 171.63551 185.157589 
L 177.329388 180.403889 
L 183.023265 176.790749 
L 188.717143 174.570563 
L 194.41102 173.846525 
L 200.104898 166.792666 
L 205.798776 165.169635 
L 211.492653 161.588474 
L 217.186531 158.991703 
L 222.880408 154.089282 
L 228.574286 150.974944 
L 234.268163 145.036141 
L 239.962041 142.717571 
L 245.655918 137.724842 
L 251.349796 133.154242 
L 257.043673 129.12775 
L 262.737551 125.73956 
L 268.431429 122.601439 
L 274.125306 119.802615 
L 279.819184 116.4198 
L 285.513061 113.704978 
L 291.206939 111.098435 
L 296.900816 107.788459 
L 302.594694 106.240066 
L 308.288571 103.961746 
L 313.982449 101.200223 
L 319.676327 99.730834 
L 325.370204 97.990211 
L 331.064082 96.927566 
L 336.757959 95.392795 
L 342.451837 94.4783 
L 348.145714 93.421469 
L 353.839592 92.418522 
L 359.533469 91.521282 
L 365.227347 91.088283 
L 370.921224 90.135091 
L 376.615102 89.30585 
L 382.30898 88.862353 
L 388.002857 88.512019 
L 393.696735 87.920566 
L 399.390612 86.474813 
L 405.08449 86.951629 
L 410.778367 86.638667 
L 416.472245 85.452726 
L 422.166122 85.596877 
L 427.86 85.25168 
L 433 84.556263 
" style="fill:none;stroke:#579e7c;stroke-linecap:round;stroke-width:2;"/>
   </g>
   <g id="line2d_56">
    <path clip-path="url(#p55adb33a06)" d="M 52.064082 294.312984 
L 57.757959 260.991263 
L 63.451837 262.550335 
L 69.145714 242.699815 
L 74.839592 244.474948 
L 80.533469 230.711216 
L 86.227347 226.509183 
L 91.921224 223.326829 
L 97.615102 213.351248 
L 103.30898 208.66824 
L 109.002857 202.022039 
L 114.696735 196.632477 
L 120.390612 196.079469 
L 126.08449 185.79572 
L 131.778367 182.636689 
L 137.472245 179.175671 
L 143.166122 172.606617 
L 148.86 167.921001 
L 154.553878 162.001508 
L 160.247755 160.338125 
L 165.941633 154.600396 
L 171.63551 151.451968 
L 177.329388 145.719229 
L 183.023265 144.164399 
L 188.717143 139.722053 
L 194.41102 137.887112 
L 200.104898 134.34128 
L 205.798776 132.015323 
L 211.492653 126.841077 
L 217.186531 124.195931 
L 222.880408 118.544931 
L 228.574286 114.699524 
L 234.268163 110.101862 
L 239.962041 106.886941 
L 245.655918 103.288606 
L 251.349796 99.32953 
L 257.043673 95.885219 
L 262.737551 92.110058 
L 268.431429 87.856446 
L 274.125306 84.011061 
L 279.819184 81.037238 
L 285.513061 77.429804 
L 291.206939 75.434948 
L 296.900816 73.261801 
L 302.594694 71.00622 
L 308.288571 69.611336 
L 313.982449 67.627569 
L 319.676327 65.524473 
L 325.370204 63.380678 
L 331.064082 62.310073 
L 336.757959 61.05447 
L 342.451837 60.291369 
L 348.145714 59.42542 
L 353.839592 58.595149 
L 359.533469 57.81457 
L 365.227347 57.074563 
L 370.921224 56.412147 
L 376.615102 55.50733 
L 382.30898 55.69117 
L 388.002857 55.174674 
L 393.696735 54.49719 
L 399.390612 54.701323 
L 405.08449 53.738973 
L 410.778367 53.393741 
L 416.472245 52.924467 
L 422.166122 52.484733 
L 427.86 52.03697 
L 433 52.144923 
" style="fill:none;stroke:#579e7c;stroke-linecap:round;stroke-width:2;"/>
   </g>
   <g id="patch_3">
    <path d="M 54 315 
L 54 43.2 
" style="fill:none;stroke:#262626;stroke-linecap:square;stroke-linejoin:miter;stroke-width:1.25;"/>
   </g>
   <g id="patch_4">
    <path d="M 388.8 315 
L 388.8 43.2 
" style="fill:none;stroke:#262626;stroke-linecap:square;stroke-linejoin:miter;stroke-width:1.25;"/>
   </g>
   <g id="patch_5">
    <path d="M 54 315 
L 388.8 315 
" style="fill:none;stroke:#262626;stroke-linecap:square;stroke-linejoin:miter;stroke-width:1.25;"/>
   </g>
   <g id="patch_6">
    <path d="M 54 43.2 
L 388.8 43.2 
" style="fill:none;stroke:#262626;stroke-linecap:square;stroke-linejoin:miter;stroke-width:1.25;"/>
   </g>
  </g>
 </g>
 <defs>
  <clipPath id="p55adb33a06">
   <rect height="271.8" width="334.8" x="54" y="43.2"/>
  </clipPath>
 </defs>
</svg>
