<?xml version="1.0" encoding="utf-8" standalone="no"?>
<!DOCTYPE svg PUBLIC "-//W3C//DTD SVG 1.1//EN"
  "http://www.w3.org/Graphics/SVG/1.1/DTD/svg11.dtd">
<!-- Created with matplotlib (https://matplotlib.org/) -->
<svg height="360pt" version="1.1" viewBox="0 0 432 360" width="432pt" xmlns="http://www.w3.org/2000/svg" xmlns:xlink="http://www.w3.org/1999/xlink">
 <metadata>
  <rdf:RDF xmlns:cc="http://creativecommons.org/ns#" xmlns:dc="http://purl.org/dc/elements/1.1/" xmlns:rdf="http://www.w3.org/1999/02/22-rdf-syntax-ns#">
   <cc:Work>
    <dc:type rdf:resource="http://purl.org/dc/dcmitype/StillImage"/>
    <dc:date>2022-02-14T00:09:03.520607</dc:date>
    <dc:format>image/svg+xml</dc:format>
    <dc:creator>
     <cc:Agent>
      <dc:title>Matplotlib v3.3.4, https://matplotlib.org/</dc:title>
     </cc:Agent>
    </dc:creator>
   </cc:Work>
  </rdf:RDF>
 </metadata>
 <defs>
  <style type="text/css">*{stroke-linecap:butt;stroke-linejoin:round;}</style>
 </defs>
 <g id="figure_1">
  <g id="patch_1">
   <path d="M 0 360 
L 432 360 
L 432 0 
L 0 0 
z
" style="fill:#ffffff;"/>
  </g>
  <g id="axes_1">
   <g id="patch_2">
    <path d="M 54 315 
L 388.8 315 
L 388.8 43.2 
L 54 43.2 
z
" style="fill:#ffffff;"/>
   </g>
   <g id="matplotlib.axis_1">
    <g id="xtick_1">
     <g id="line2d_1">
      <defs>
       <path d="M 0 0 
L 0 6 
" id="mf26908581a" style="stroke:#262626;stroke-width:1.25;"/>
      </defs>
      <g>
       <use style="fill:#262626;stroke:#262626;stroke-width:1.25;" x="106.863158" xlink:href="#mf26908581a" y="315"/>
      </g>
     </g>
     <g id="text_1">
      <!-- 2 -->
      <g style="fill:#262626;" transform="translate(102.414408 335.9525)scale(0.16 -0.16)">
       <defs>
        <path d="M 50.34375 8.453125 
L 50.34375 0 
L 3.03125 0 
Q 2.9375 3.171875 4.046875 6.109375 
Q 5.859375 10.9375 9.828125 15.625 
Q 13.8125 20.3125 21.34375 26.46875 
Q 33.015625 36.03125 37.109375 41.625 
Q 41.21875 47.21875 41.21875 52.203125 
Q 41.21875 57.421875 37.46875 61 
Q 33.734375 64.59375 27.734375 64.59375 
Q 21.390625 64.59375 17.578125 60.78125 
Q 13.765625 56.984375 13.71875 50.25 
L 4.6875 51.171875 
Q 5.609375 61.28125 11.65625 66.578125 
Q 17.71875 71.875 27.9375 71.875 
Q 38.234375 71.875 44.234375 66.15625 
Q 50.25 60.453125 50.25 52 
Q 50.25 47.703125 48.484375 43.546875 
Q 46.734375 39.40625 42.65625 34.8125 
Q 38.578125 30.21875 29.109375 22.21875 
Q 21.1875 15.578125 18.9375 13.203125 
Q 16.703125 10.84375 15.234375 8.453125 
z
" id="ArialMT-50"/>
       </defs>
       <use xlink:href="#ArialMT-50"/>
      </g>
     </g>
    </g>
    <g id="xtick_2">
     <g id="line2d_2">
      <g>
       <use style="fill:#262626;stroke:#262626;stroke-width:1.25;" x="177.347368" xlink:href="#mf26908581a" y="315"/>
      </g>
     </g>
     <g id="text_2">
      <!-- 4 -->
      <g style="fill:#262626;" transform="translate(172.898618 335.9525)scale(0.16 -0.16)">
       <defs>
        <path d="M 32.328125 0 
L 32.328125 17.140625 
L 1.265625 17.140625 
L 1.265625 25.203125 
L 33.9375 71.578125 
L 41.109375 71.578125 
L 41.109375 25.203125 
L 50.78125 25.203125 
L 50.78125 17.140625 
L 41.109375 17.140625 
L 41.109375 0 
z
M 32.328125 25.203125 
L 32.328125 57.46875 
L 9.90625 25.203125 
z
" id="ArialMT-52"/>
       </defs>
       <use xlink:href="#ArialMT-52"/>
      </g>
     </g>
    </g>
    <g id="xtick_3">
     <g id="line2d_3">
      <g>
       <use style="fill:#262626;stroke:#262626;stroke-width:1.25;" x="247.831579" xlink:href="#mf26908581a" y="315"/>
      </g>
     </g>
     <g id="text_3">
      <!-- 6 -->
      <g style="fill:#262626;" transform="translate(243.382829 335.9525)scale(0.16 -0.16)">
       <defs>
        <path d="M 49.75 54.046875 
L 41.015625 53.375 
Q 39.84375 58.546875 37.703125 60.890625 
Q 34.125 64.65625 28.90625 64.65625 
Q 24.703125 64.65625 21.53125 62.3125 
Q 17.390625 59.28125 14.984375 53.46875 
Q 12.59375 47.65625 12.5 36.921875 
Q 15.671875 41.75 20.265625 44.09375 
Q 24.859375 46.4375 29.890625 46.4375 
Q 38.671875 46.4375 44.84375 39.96875 
Q 51.03125 33.5 51.03125 23.25 
Q 51.03125 16.5 48.125 10.71875 
Q 45.21875 4.9375 40.140625 1.859375 
Q 35.0625 -1.21875 28.609375 -1.21875 
Q 17.625 -1.21875 10.6875 6.859375 
Q 3.765625 14.9375 3.765625 33.5 
Q 3.765625 54.25 11.421875 63.671875 
Q 18.109375 71.875 29.4375 71.875 
Q 37.890625 71.875 43.28125 67.140625 
Q 48.6875 62.40625 49.75 54.046875 
z
M 13.875 23.1875 
Q 13.875 18.65625 15.796875 14.5 
Q 17.71875 10.359375 21.1875 8.171875 
Q 24.65625 6 28.46875 6 
Q 34.03125 6 38.03125 10.484375 
Q 42.046875 14.984375 42.046875 22.703125 
Q 42.046875 30.125 38.078125 34.390625 
Q 34.125 38.671875 28.125 38.671875 
Q 22.171875 38.671875 18.015625 34.390625 
Q 13.875 30.125 13.875 23.1875 
z
" id="ArialMT-54"/>
       </defs>
       <use xlink:href="#ArialMT-54"/>
      </g>
     </g>
    </g>
    <g id="xtick_4">
     <g id="line2d_4">
      <g>
       <use style="fill:#262626;stroke:#262626;stroke-width:1.25;" x="318.315789" xlink:href="#mf26908581a" y="315"/>
      </g>
     </g>
     <g id="text_4">
      <!-- 8 -->
      <g style="fill:#262626;" transform="translate(313.867039 335.9525)scale(0.16 -0.16)">
       <defs>
        <path d="M 17.671875 38.8125 
Q 12.203125 40.828125 9.5625 44.53125 
Q 6.9375 48.25 6.9375 53.421875 
Q 6.9375 61.234375 12.546875 66.546875 
Q 18.171875 71.875 27.484375 71.875 
Q 36.859375 71.875 42.578125 66.421875 
Q 48.296875 60.984375 48.296875 53.171875 
Q 48.296875 48.1875 45.671875 44.5 
Q 43.0625 40.828125 37.75 38.8125 
Q 44.34375 36.671875 47.78125 31.875 
Q 51.21875 27.09375 51.21875 20.453125 
Q 51.21875 11.28125 44.71875 5.03125 
Q 38.234375 -1.21875 27.640625 -1.21875 
Q 17.046875 -1.21875 10.546875 5.046875 
Q 4.046875 11.328125 4.046875 20.703125 
Q 4.046875 27.6875 7.59375 32.390625 
Q 11.140625 37.109375 17.671875 38.8125 
z
M 15.921875 53.71875 
Q 15.921875 48.640625 19.1875 45.40625 
Q 22.46875 42.1875 27.6875 42.1875 
Q 32.765625 42.1875 36.015625 45.375 
Q 39.265625 48.578125 39.265625 53.21875 
Q 39.265625 58.0625 35.90625 61.359375 
Q 32.5625 64.65625 27.59375 64.65625 
Q 22.5625 64.65625 19.234375 61.421875 
Q 15.921875 58.203125 15.921875 53.71875 
z
M 13.09375 20.65625 
Q 13.09375 16.890625 14.875 13.375 
Q 16.65625 9.859375 20.171875 7.921875 
Q 23.6875 6 27.734375 6 
Q 34.03125 6 38.125 10.046875 
Q 42.234375 14.109375 42.234375 20.359375 
Q 42.234375 26.703125 38.015625 30.859375 
Q 33.796875 35.015625 27.4375 35.015625 
Q 21.234375 35.015625 17.15625 30.90625 
Q 13.09375 26.8125 13.09375 20.65625 
z
" id="ArialMT-56"/>
       </defs>
       <use xlink:href="#ArialMT-56"/>
      </g>
     </g>
    </g>
    <g id="xtick_5">
     <g id="line2d_5">
      <g>
       <use style="fill:#262626;stroke:#262626;stroke-width:1.25;" x="388.8" xlink:href="#mf26908581a" y="315"/>
      </g>
     </g>
     <g id="text_5">
      <!-- 10 -->
      <g style="fill:#262626;" transform="translate(379.9025 335.9525)scale(0.16 -0.16)">
       <defs>
        <path d="M 37.25 0 
L 28.46875 0 
L 28.46875 56 
Q 25.296875 52.984375 20.140625 49.953125 
Q 14.984375 46.921875 10.890625 45.40625 
L 10.890625 53.90625 
Q 18.265625 57.375 23.78125 62.296875 
Q 29.296875 67.234375 31.59375 71.875 
L 37.25 71.875 
z
" id="ArialMT-49"/>
        <path d="M 4.15625 35.296875 
Q 4.15625 48 6.765625 55.734375 
Q 9.375 63.484375 14.515625 67.671875 
Q 19.671875 71.875 27.484375 71.875 
Q 33.25 71.875 37.59375 69.546875 
Q 41.9375 67.234375 44.765625 62.859375 
Q 47.609375 58.5 49.21875 52.21875 
Q 50.828125 45.953125 50.828125 35.296875 
Q 50.828125 22.703125 48.234375 14.96875 
Q 45.65625 7.234375 40.5 3 
Q 35.359375 -1.21875 27.484375 -1.21875 
Q 17.140625 -1.21875 11.234375 6.203125 
Q 4.15625 15.140625 4.15625 35.296875 
z
M 13.1875 35.296875 
Q 13.1875 17.671875 17.3125 11.828125 
Q 21.4375 6 27.484375 6 
Q 33.546875 6 37.671875 11.859375 
Q 41.796875 17.71875 41.796875 35.296875 
Q 41.796875 52.984375 37.671875 58.78125 
Q 33.546875 64.59375 27.390625 64.59375 
Q 21.34375 64.59375 17.71875 59.46875 
Q 13.1875 52.9375 13.1875 35.296875 
z
" id="ArialMT-48"/>
       </defs>
       <use xlink:href="#ArialMT-49"/>
       <use x="55.615234" xlink:href="#ArialMT-48"/>
      </g>
     </g>
    </g>
    <g id="text_6">
     <!-- Time (hours) -->
     <g style="fill:#262626;" transform="translate(170.734219 356.235937)scale(0.18 -0.18)">
      <defs>
       <path d="M 25.921875 0 
L 25.921875 63.140625 
L 2.34375 63.140625 
L 2.34375 71.578125 
L 59.078125 71.578125 
L 59.078125 63.140625 
L 35.40625 63.140625 
L 35.40625 0 
z
" id="ArialMT-84"/>
       <path d="M 6.640625 61.46875 
L 6.640625 71.578125 
L 15.4375 71.578125 
L 15.4375 61.46875 
z
M 6.640625 0 
L 6.640625 51.859375 
L 15.4375 51.859375 
L 15.4375 0 
z
" id="ArialMT-105"/>
       <path d="M 6.59375 0 
L 6.59375 51.859375 
L 14.453125 51.859375 
L 14.453125 44.578125 
Q 16.890625 48.390625 20.9375 50.703125 
Q 25 53.03125 30.171875 53.03125 
Q 35.9375 53.03125 39.625 50.640625 
Q 43.3125 48.25 44.828125 43.953125 
Q 50.984375 53.03125 60.84375 53.03125 
Q 68.5625 53.03125 72.703125 48.75 
Q 76.859375 44.484375 76.859375 35.59375 
L 76.859375 0 
L 68.109375 0 
L 68.109375 32.671875 
Q 68.109375 37.9375 67.25 40.25 
Q 66.40625 42.578125 64.15625 43.984375 
Q 61.921875 45.40625 58.890625 45.40625 
Q 53.421875 45.40625 49.796875 41.765625 
Q 46.1875 38.140625 46.1875 30.125 
L 46.1875 0 
L 37.40625 0 
L 37.40625 33.6875 
Q 37.40625 39.546875 35.25 42.46875 
Q 33.109375 45.40625 28.21875 45.40625 
Q 24.515625 45.40625 21.359375 43.453125 
Q 18.21875 41.5 16.796875 37.734375 
Q 15.375 33.984375 15.375 26.90625 
L 15.375 0 
z
" id="ArialMT-109"/>
       <path d="M 42.09375 16.703125 
L 51.171875 15.578125 
Q 49.03125 7.625 43.21875 3.21875 
Q 37.40625 -1.171875 28.375 -1.171875 
Q 17 -1.171875 10.328125 5.828125 
Q 3.65625 12.84375 3.65625 25.484375 
Q 3.65625 38.578125 10.390625 45.796875 
Q 17.140625 53.03125 27.875 53.03125 
Q 38.28125 53.03125 44.875 45.953125 
Q 51.46875 38.875 51.46875 26.03125 
Q 51.46875 25.25 51.421875 23.6875 
L 12.75 23.6875 
Q 13.234375 15.140625 17.578125 10.59375 
Q 21.921875 6.0625 28.421875 6.0625 
Q 33.25 6.0625 36.671875 8.59375 
Q 40.09375 11.140625 42.09375 16.703125 
z
M 13.234375 30.90625 
L 42.1875 30.90625 
Q 41.609375 37.453125 38.875 40.71875 
Q 34.671875 45.796875 27.984375 45.796875 
Q 21.921875 45.796875 17.796875 41.75 
Q 13.671875 37.703125 13.234375 30.90625 
z
" id="ArialMT-101"/>
       <path id="ArialMT-32"/>
       <path d="M 23.390625 -21.046875 
Q 16.109375 -11.859375 11.078125 0.4375 
Q 6.0625 12.75 6.0625 25.921875 
Q 6.0625 37.546875 9.8125 48.1875 
Q 14.203125 60.546875 23.390625 72.796875 
L 29.6875 72.796875 
Q 23.78125 62.640625 21.875 58.296875 
Q 18.890625 51.5625 17.1875 44.234375 
Q 15.09375 35.109375 15.09375 25.875 
Q 15.09375 2.390625 29.6875 -21.046875 
z
" id="ArialMT-40"/>
       <path d="M 6.59375 0 
L 6.59375 71.578125 
L 15.375 71.578125 
L 15.375 45.90625 
Q 21.53125 53.03125 30.90625 53.03125 
Q 36.671875 53.03125 40.921875 50.75 
Q 45.171875 48.484375 47 44.484375 
Q 48.828125 40.484375 48.828125 32.859375 
L 48.828125 0 
L 40.046875 0 
L 40.046875 32.859375 
Q 40.046875 39.453125 37.1875 42.453125 
Q 34.328125 45.453125 29.109375 45.453125 
Q 25.203125 45.453125 21.75 43.421875 
Q 18.3125 41.40625 16.84375 37.9375 
Q 15.375 34.46875 15.375 28.375 
L 15.375 0 
z
" id="ArialMT-104"/>
       <path d="M 3.328125 25.921875 
Q 3.328125 40.328125 11.328125 47.265625 
Q 18.015625 53.03125 27.640625 53.03125 
Q 38.328125 53.03125 45.109375 46.015625 
Q 51.90625 39.015625 51.90625 26.65625 
Q 51.90625 16.65625 48.90625 10.90625 
Q 45.90625 5.171875 40.15625 2 
Q 34.421875 -1.171875 27.640625 -1.171875 
Q 16.75 -1.171875 10.03125 5.8125 
Q 3.328125 12.796875 3.328125 25.921875 
z
M 12.359375 25.921875 
Q 12.359375 15.96875 16.703125 11.015625 
Q 21.046875 6.0625 27.640625 6.0625 
Q 34.1875 6.0625 38.53125 11.03125 
Q 42.875 16.015625 42.875 26.21875 
Q 42.875 35.84375 38.5 40.796875 
Q 34.125 45.75 27.640625 45.75 
Q 21.046875 45.75 16.703125 40.8125 
Q 12.359375 35.890625 12.359375 25.921875 
z
" id="ArialMT-111"/>
       <path d="M 40.578125 0 
L 40.578125 7.625 
Q 34.515625 -1.171875 24.125 -1.171875 
Q 19.53125 -1.171875 15.546875 0.578125 
Q 11.578125 2.34375 9.640625 5 
Q 7.71875 7.671875 6.9375 11.53125 
Q 6.390625 14.109375 6.390625 19.734375 
L 6.390625 51.859375 
L 15.1875 51.859375 
L 15.1875 23.09375 
Q 15.1875 16.21875 15.71875 13.8125 
Q 16.546875 10.359375 19.234375 8.375 
Q 21.921875 6.390625 25.875 6.390625 
Q 29.828125 6.390625 33.296875 8.421875 
Q 36.765625 10.453125 38.203125 13.9375 
Q 39.65625 17.4375 39.65625 24.078125 
L 39.65625 51.859375 
L 48.4375 51.859375 
L 48.4375 0 
z
" id="ArialMT-117"/>
       <path d="M 6.5 0 
L 6.5 51.859375 
L 14.40625 51.859375 
L 14.40625 44 
Q 17.4375 49.515625 20 51.265625 
Q 22.5625 53.03125 25.640625 53.03125 
Q 30.078125 53.03125 34.671875 50.203125 
L 31.640625 42.046875 
Q 28.421875 43.953125 25.203125 43.953125 
Q 22.3125 43.953125 20.015625 42.21875 
Q 17.71875 40.484375 16.75 37.40625 
Q 15.28125 32.71875 15.28125 27.15625 
L 15.28125 0 
z
" id="ArialMT-114"/>
       <path d="M 3.078125 15.484375 
L 11.765625 16.84375 
Q 12.5 11.625 15.84375 8.84375 
Q 19.1875 6.0625 25.203125 6.0625 
Q 31.25 6.0625 34.171875 8.515625 
Q 37.109375 10.984375 37.109375 14.3125 
Q 37.109375 17.28125 34.515625 19 
Q 32.71875 20.171875 25.53125 21.96875 
Q 15.875 24.421875 12.140625 26.203125 
Q 8.40625 27.984375 6.46875 31.125 
Q 4.546875 34.28125 4.546875 38.09375 
Q 4.546875 41.546875 6.125 44.5 
Q 7.71875 47.46875 10.453125 49.421875 
Q 12.5 50.921875 16.03125 51.96875 
Q 19.578125 53.03125 23.640625 53.03125 
Q 29.734375 53.03125 34.34375 51.265625 
Q 38.96875 49.515625 41.15625 46.5 
Q 43.359375 43.5 44.1875 38.484375 
L 35.59375 37.3125 
Q 35.015625 41.3125 32.203125 43.546875 
Q 29.390625 45.796875 24.265625 45.796875 
Q 18.21875 45.796875 15.625 43.796875 
Q 13.03125 41.796875 13.03125 39.109375 
Q 13.03125 37.40625 14.109375 36.03125 
Q 15.1875 34.625 17.484375 33.6875 
Q 18.796875 33.203125 25.25 31.453125 
Q 34.578125 28.953125 38.25 27.359375 
Q 41.9375 25.78125 44.03125 22.75 
Q 46.140625 19.734375 46.140625 15.234375 
Q 46.140625 10.84375 43.578125 6.953125 
Q 41.015625 3.078125 36.171875 0.953125 
Q 31.34375 -1.171875 25.25 -1.171875 
Q 15.140625 -1.171875 9.84375 3.03125 
Q 4.546875 7.234375 3.078125 15.484375 
z
" id="ArialMT-115"/>
       <path d="M 12.359375 -21.046875 
L 6.0625 -21.046875 
Q 20.65625 2.390625 20.65625 25.875 
Q 20.65625 35.0625 18.5625 44.09375 
Q 16.890625 51.421875 13.921875 58.15625 
Q 12.015625 62.546875 6.0625 72.796875 
L 12.359375 72.796875 
Q 21.53125 60.546875 25.921875 48.1875 
Q 29.6875 37.546875 29.6875 25.921875 
Q 29.6875 12.75 24.625 0.4375 
Q 19.578125 -11.859375 12.359375 -21.046875 
z
" id="ArialMT-41"/>
      </defs>
      <use xlink:href="#ArialMT-84"/>
      <use x="57.333984" xlink:href="#ArialMT-105"/>
      <use x="79.550781" xlink:href="#ArialMT-109"/>
      <use x="162.851562" xlink:href="#ArialMT-101"/>
      <use x="218.466797" xlink:href="#ArialMT-32"/>
      <use x="246.25" xlink:href="#ArialMT-40"/>
      <use x="279.550781" xlink:href="#ArialMT-104"/>
      <use x="335.166016" xlink:href="#ArialMT-111"/>
      <use x="390.78125" xlink:href="#ArialMT-117"/>
      <use x="446.396484" xlink:href="#ArialMT-114"/>
      <use x="479.697266" xlink:href="#ArialMT-115"/>
      <use x="529.697266" xlink:href="#ArialMT-41"/>
     </g>
    </g>
   </g>
   <g id="matplotlib.axis_2">
    <g id="ytick_1">
     <g id="line2d_6">
      <path clip-path="url(#pa05504c6e7)" d="M 54 251.673318 
L 388.8 251.673318 
" style="fill:none;stroke:#cccccc;stroke-linecap:round;"/>
     </g>
     <g id="line2d_7">
      <defs>
       <path d="M 0 0 
L -6 0 
" id="m509042fc1e" style="stroke:#262626;stroke-width:1.25;"/>
      </defs>
      <g>
       <use style="fill:#262626;stroke:#262626;stroke-width:1.25;" x="54" xlink:href="#m509042fc1e" y="251.673318"/>
      </g>
     </g>
     <g id="text_7">
      <!-- $\mathdefault{10^{2}}$ -->
      <g style="fill:#262626;" transform="translate(19.38 259.923318)scale(0.16 -0.16)">
       <use transform="translate(0 0.99375)" xlink:href="#ArialMT-49"/>
       <use transform="translate(55.615234 0.99375)" xlink:href="#ArialMT-48"/>
       <use transform="translate(112.972813 70.6875)scale(0.7)" xlink:href="#ArialMT-50"/>
      </g>
     </g>
    </g>
    <g id="ytick_2">
     <g id="line2d_8">
      <path clip-path="url(#pa05504c6e7)" d="M 54 161.073318 
L 388.8 161.073318 
" style="fill:none;stroke:#cccccc;stroke-linecap:round;"/>
     </g>
     <g id="line2d_9">
      <g>
       <use style="fill:#262626;stroke:#262626;stroke-width:1.25;" x="54" xlink:href="#m509042fc1e" y="161.073318"/>
      </g>
     </g>
     <g id="text_8">
      <!-- $\mathdefault{10^{3}}$ -->
      <g style="fill:#262626;" transform="translate(19.38 169.323318)scale(0.16 -0.16)">
       <defs>
        <path d="M 4.203125 18.890625 
L 12.984375 20.0625 
Q 14.5 12.59375 18.140625 9.296875 
Q 21.78125 6 27 6 
Q 33.203125 6 37.46875 10.296875 
Q 41.75 14.59375 41.75 20.953125 
Q 41.75 27 37.796875 30.921875 
Q 33.84375 34.859375 27.734375 34.859375 
Q 25.25 34.859375 21.53125 33.890625 
L 22.515625 41.609375 
Q 23.390625 41.5 23.921875 41.5 
Q 29.546875 41.5 34.03125 44.421875 
Q 38.53125 47.359375 38.53125 53.46875 
Q 38.53125 58.296875 35.25 61.46875 
Q 31.984375 64.65625 26.8125 64.65625 
Q 21.6875 64.65625 18.265625 61.421875 
Q 14.84375 58.203125 13.875 51.765625 
L 5.078125 53.328125 
Q 6.6875 62.15625 12.390625 67.015625 
Q 18.109375 71.875 26.609375 71.875 
Q 32.46875 71.875 37.390625 69.359375 
Q 42.328125 66.84375 44.9375 62.5 
Q 47.5625 58.15625 47.5625 53.265625 
Q 47.5625 48.640625 45.0625 44.828125 
Q 42.578125 41.015625 37.703125 38.765625 
Q 44.046875 37.3125 47.5625 32.6875 
Q 51.078125 28.078125 51.078125 21.140625 
Q 51.078125 11.765625 44.234375 5.25 
Q 37.40625 -1.265625 26.953125 -1.265625 
Q 17.53125 -1.265625 11.296875 4.34375 
Q 5.078125 9.96875 4.203125 18.890625 
z
" id="ArialMT-51"/>
       </defs>
       <use transform="translate(0 0.99375)" xlink:href="#ArialMT-49"/>
       <use transform="translate(55.615234 0.99375)" xlink:href="#ArialMT-48"/>
       <use transform="translate(112.972813 70.6875)scale(0.7)" xlink:href="#ArialMT-51"/>
      </g>
     </g>
    </g>
    <g id="ytick_3">
     <g id="line2d_10">
      <path clip-path="url(#pa05504c6e7)" d="M 54 70.473318 
L 388.8 70.473318 
" style="fill:none;stroke:#cccccc;stroke-linecap:round;"/>
     </g>
     <g id="line2d_11">
      <g>
       <use style="fill:#262626;stroke:#262626;stroke-width:1.25;" x="54" xlink:href="#m509042fc1e" y="70.473318"/>
      </g>
     </g>
     <g id="text_9">
      <!-- $\mathdefault{10^{4}}$ -->
      <g style="fill:#262626;" transform="translate(19.38 78.643318)scale(0.16 -0.16)">
       <use transform="translate(0 0.201563)" xlink:href="#ArialMT-49"/>
       <use transform="translate(55.615234 0.201563)" xlink:href="#ArialMT-48"/>
       <use transform="translate(112.972813 69.895313)scale(0.7)" xlink:href="#ArialMT-52"/>
      </g>
     </g>
    </g>
    <g id="ytick_4">
     <g id="line2d_12">
      <path clip-path="url(#pa05504c6e7)" d="M 54 315 
L 388.8 315 
" style="fill:none;stroke:#cccccc;stroke-linecap:round;"/>
     </g>
     <g id="line2d_13">
      <defs>
       <path d="M 0 0 
L -4 0 
" id="m2a47ff04c6" style="stroke:#262626;"/>
      </defs>
      <g>
       <use style="fill:#262626;stroke:#262626;" x="54" xlink:href="#m2a47ff04c6" y="315"/>
      </g>
     </g>
    </g>
    <g id="ytick_5">
     <g id="line2d_14">
      <path clip-path="url(#pa05504c6e7)" d="M 54 299.046132 
L 388.8 299.046132 
" style="fill:none;stroke:#cccccc;stroke-linecap:round;"/>
     </g>
     <g id="line2d_15">
      <g>
       <use style="fill:#262626;stroke:#262626;" x="54" xlink:href="#m2a47ff04c6" y="299.046132"/>
      </g>
     </g>
    </g>
    <g id="ytick_6">
     <g id="line2d_16">
      <path clip-path="url(#pa05504c6e7)" d="M 54 287.726682 
L 388.8 287.726682 
" style="fill:none;stroke:#cccccc;stroke-linecap:round;"/>
     </g>
     <g id="line2d_17">
      <g>
       <use style="fill:#262626;stroke:#262626;" x="54" xlink:href="#m2a47ff04c6" y="287.726682"/>
      </g>
     </g>
    </g>
    <g id="ytick_7">
     <g id="line2d_18">
      <path clip-path="url(#pa05504c6e7)" d="M 54 278.946635 
L 388.8 278.946635 
" style="fill:none;stroke:#cccccc;stroke-linecap:round;"/>
     </g>
     <g id="line2d_19">
      <g>
       <use style="fill:#262626;stroke:#262626;" x="54" xlink:href="#m2a47ff04c6" y="278.946635"/>
      </g>
     </g>
    </g>
    <g id="ytick_8">
     <g id="line2d_20">
      <path clip-path="url(#pa05504c6e7)" d="M 54 271.772814 
L 388.8 271.772814 
" style="fill:none;stroke:#cccccc;stroke-linecap:round;"/>
     </g>
     <g id="line2d_21">
      <g>
       <use style="fill:#262626;stroke:#262626;" x="54" xlink:href="#m2a47ff04c6" y="271.772814"/>
      </g>
     </g>
    </g>
    <g id="ytick_9">
     <g id="line2d_22">
      <path clip-path="url(#pa05504c6e7)" d="M 54 265.707435 
L 388.8 265.707435 
" style="fill:none;stroke:#cccccc;stroke-linecap:round;"/>
     </g>
     <g id="line2d_23">
      <g>
       <use style="fill:#262626;stroke:#262626;" x="54" xlink:href="#m2a47ff04c6" y="265.707435"/>
      </g>
     </g>
    </g>
    <g id="ytick_10">
     <g id="line2d_24">
      <path clip-path="url(#pa05504c6e7)" d="M 54 260.453365 
L 388.8 260.453365 
" style="fill:none;stroke:#cccccc;stroke-linecap:round;"/>
     </g>
     <g id="line2d_25">
      <g>
       <use style="fill:#262626;stroke:#262626;" x="54" xlink:href="#m2a47ff04c6" y="260.453365"/>
      </g>
     </g>
    </g>
    <g id="ytick_11">
     <g id="line2d_26">
      <path clip-path="url(#pa05504c6e7)" d="M 54 255.818946 
L 388.8 255.818946 
" style="fill:none;stroke:#cccccc;stroke-linecap:round;"/>
     </g>
     <g id="line2d_27">
      <g>
       <use style="fill:#262626;stroke:#262626;" x="54" xlink:href="#m2a47ff04c6" y="255.818946"/>
      </g>
     </g>
    </g>
    <g id="ytick_12">
     <g id="line2d_28">
      <path clip-path="url(#pa05504c6e7)" d="M 54 224.4 
L 388.8 224.4 
" style="fill:none;stroke:#cccccc;stroke-linecap:round;"/>
     </g>
     <g id="line2d_29">
      <g>
       <use style="fill:#262626;stroke:#262626;" x="54" xlink:href="#m2a47ff04c6" y="224.4"/>
      </g>
     </g>
    </g>
    <g id="ytick_13">
     <g id="line2d_30">
      <path clip-path="url(#pa05504c6e7)" d="M 54 208.446132 
L 388.8 208.446132 
" style="fill:none;stroke:#cccccc;stroke-linecap:round;"/>
     </g>
     <g id="line2d_31">
      <g>
       <use style="fill:#262626;stroke:#262626;" x="54" xlink:href="#m2a47ff04c6" y="208.446132"/>
      </g>
     </g>
    </g>
    <g id="ytick_14">
     <g id="line2d_32">
      <path clip-path="url(#pa05504c6e7)" d="M 54 197.126682 
L 388.8 197.126682 
" style="fill:none;stroke:#cccccc;stroke-linecap:round;"/>
     </g>
     <g id="line2d_33">
      <g>
       <use style="fill:#262626;stroke:#262626;" x="54" xlink:href="#m2a47ff04c6" y="197.126682"/>
      </g>
     </g>
    </g>
    <g id="ytick_15">
     <g id="line2d_34">
      <path clip-path="url(#pa05504c6e7)" d="M 54 188.346635 
L 388.8 188.346635 
" style="fill:none;stroke:#cccccc;stroke-linecap:round;"/>
     </g>
     <g id="line2d_35">
      <g>
       <use style="fill:#262626;stroke:#262626;" x="54" xlink:href="#m2a47ff04c6" y="188.346635"/>
      </g>
     </g>
    </g>
    <g id="ytick_16">
     <g id="line2d_36">
      <path clip-path="url(#pa05504c6e7)" d="M 54 181.172814 
L 388.8 181.172814 
" style="fill:none;stroke:#cccccc;stroke-linecap:round;"/>
     </g>
     <g id="line2d_37">
      <g>
       <use style="fill:#262626;stroke:#262626;" x="54" xlink:href="#m2a47ff04c6" y="181.172814"/>
      </g>
     </g>
    </g>
    <g id="ytick_17">
     <g id="line2d_38">
      <path clip-path="url(#pa05504c6e7)" d="M 54 175.107435 
L 388.8 175.107435 
" style="fill:none;stroke:#cccccc;stroke-linecap:round;"/>
     </g>
     <g id="line2d_39">
      <g>
       <use style="fill:#262626;stroke:#262626;" x="54" xlink:href="#m2a47ff04c6" y="175.107435"/>
      </g>
     </g>
    </g>
    <g id="ytick_18">
     <g id="line2d_40">
      <path clip-path="url(#pa05504c6e7)" d="M 54 169.853365 
L 388.8 169.853365 
" style="fill:none;stroke:#cccccc;stroke-linecap:round;"/>
     </g>
     <g id="line2d_41">
      <g>
       <use style="fill:#262626;stroke:#262626;" x="54" xlink:href="#m2a47ff04c6" y="169.853365"/>
      </g>
     </g>
    </g>
    <g id="ytick_19">
     <g id="line2d_42">
      <path clip-path="url(#pa05504c6e7)" d="M 54 165.218946 
L 388.8 165.218946 
" style="fill:none;stroke:#cccccc;stroke-linecap:round;"/>
     </g>
     <g id="line2d_43">
      <g>
       <use style="fill:#262626;stroke:#262626;" x="54" xlink:href="#m2a47ff04c6" y="165.218946"/>
      </g>
     </g>
    </g>
    <g id="ytick_20">
     <g id="line2d_44">
      <path clip-path="url(#pa05504c6e7)" d="M 54 133.8 
L 388.8 133.8 
" style="fill:none;stroke:#cccccc;stroke-linecap:round;"/>
     </g>
     <g id="line2d_45">
      <g>
       <use style="fill:#262626;stroke:#262626;" x="54" xlink:href="#m2a47ff04c6" y="133.8"/>
      </g>
     </g>
    </g>
    <g id="ytick_21">
     <g id="line2d_46">
      <path clip-path="url(#pa05504c6e7)" d="M 54 117.846132 
L 388.8 117.846132 
" style="fill:none;stroke:#cccccc;stroke-linecap:round;"/>
     </g>
     <g id="line2d_47">
      <g>
       <use style="fill:#262626;stroke:#262626;" x="54" xlink:href="#m2a47ff04c6" y="117.846132"/>
      </g>
     </g>
    </g>
    <g id="ytick_22">
     <g id="line2d_48">
      <path clip-path="url(#pa05504c6e7)" d="M 54 106.526682 
L 388.8 106.526682 
" style="fill:none;stroke:#cccccc;stroke-linecap:round;"/>
     </g>
     <g id="line2d_49">
      <g>
       <use style="fill:#262626;stroke:#262626;" x="54" xlink:href="#m2a47ff04c6" y="106.526682"/>
      </g>
     </g>
    </g>
    <g id="ytick_23">
     <g id="line2d_50">
      <path clip-path="url(#pa05504c6e7)" d="M 54 97.746635 
L 388.8 97.746635 
" style="fill:none;stroke:#cccccc;stroke-linecap:round;"/>
     </g>
     <g id="line2d_51">
      <g>
       <use style="fill:#262626;stroke:#262626;" x="54" xlink:href="#m2a47ff04c6" y="97.746635"/>
      </g>
     </g>
    </g>
    <g id="ytick_24">
     <g id="line2d_52">
      <path clip-path="url(#pa05504c6e7)" d="M 54 90.572814 
L 388.8 90.572814 
" style="fill:none;stroke:#cccccc;stroke-linecap:round;"/>
     </g>
     <g id="line2d_53">
      <g>
       <use style="fill:#262626;stroke:#262626;" x="54" xlink:href="#m2a47ff04c6" y="90.572814"/>
      </g>
     </g>
    </g>
    <g id="ytick_25">
     <g id="line2d_54">
      <path clip-path="url(#pa05504c6e7)" d="M 54 84.507435 
L 388.8 84.507435 
" style="fill:none;stroke:#cccccc;stroke-linecap:round;"/>
     </g>
     <g id="line2d_55">
      <g>
       <use style="fill:#262626;stroke:#262626;" x="54" xlink:href="#m2a47ff04c6" y="84.507435"/>
      </g>
     </g>
    </g>
    <g id="ytick_26">
     <g id="line2d_56">
      <path clip-path="url(#pa05504c6e7)" d="M 54 79.253365 
L 388.8 79.253365 
" style="fill:none;stroke:#cccccc;stroke-linecap:round;"/>
     </g>
     <g id="line2d_57">
      <g>
       <use style="fill:#262626;stroke:#262626;" x="54" xlink:href="#m2a47ff04c6" y="79.253365"/>
      </g>
     </g>
    </g>
    <g id="ytick_27">
     <g id="line2d_58">
      <path clip-path="url(#pa05504c6e7)" d="M 54 74.618946 
L 388.8 74.618946 
" style="fill:none;stroke:#cccccc;stroke-linecap:round;"/>
     </g>
     <g id="line2d_59">
      <g>
       <use style="fill:#262626;stroke:#262626;" x="54" xlink:href="#m2a47ff04c6" y="74.618946"/>
      </g>
     </g>
    </g>
    <g id="ytick_28">
     <g id="line2d_60">
      <path clip-path="url(#pa05504c6e7)" d="M 54 43.2 
L 388.8 43.2 
" style="fill:none;stroke:#cccccc;stroke-linecap:round;"/>
     </g>
     <g id="line2d_61">
      <g>
       <use style="fill:#262626;stroke:#262626;" x="54" xlink:href="#m2a47ff04c6" y="43.2"/>
      </g>
     </g>
    </g>
    <g id="text_10">
     <!-- mScarlet (RFU) -->
     <g style="fill:#262626;" transform="translate(11.591562 241.596563)rotate(-90)scale(0.18 -0.18)">
      <defs>
       <path d="M 4.5 23 
L 13.421875 23.78125 
Q 14.0625 18.40625 16.375 14.96875 
Q 18.703125 11.53125 23.578125 9.40625 
Q 28.46875 7.28125 34.578125 7.28125 
Q 39.984375 7.28125 44.140625 8.890625 
Q 48.296875 10.5 50.3125 13.296875 
Q 52.34375 16.109375 52.34375 19.4375 
Q 52.34375 22.796875 50.390625 25.3125 
Q 48.4375 27.828125 43.953125 29.546875 
Q 41.0625 30.671875 31.203125 33.03125 
Q 21.34375 35.40625 17.390625 37.5 
Q 12.25 40.1875 9.734375 44.15625 
Q 7.234375 48.140625 7.234375 53.078125 
Q 7.234375 58.5 10.296875 63.203125 
Q 13.375 67.921875 19.28125 70.359375 
Q 25.203125 72.796875 32.421875 72.796875 
Q 40.375 72.796875 46.453125 70.234375 
Q 52.546875 67.671875 55.8125 62.6875 
Q 59.078125 57.71875 59.328125 51.421875 
L 50.25 50.734375 
Q 49.515625 57.515625 45.28125 60.984375 
Q 41.0625 64.453125 32.8125 64.453125 
Q 24.21875 64.453125 20.28125 61.296875 
Q 16.359375 58.15625 16.359375 53.71875 
Q 16.359375 49.859375 19.140625 47.359375 
Q 21.875 44.875 33.421875 42.265625 
Q 44.96875 39.65625 49.265625 37.703125 
Q 55.515625 34.8125 58.484375 30.390625 
Q 61.46875 25.984375 61.46875 20.21875 
Q 61.46875 14.5 58.203125 9.4375 
Q 54.9375 4.390625 48.796875 1.578125 
Q 42.671875 -1.21875 35.015625 -1.21875 
Q 25.296875 -1.21875 18.71875 1.609375 
Q 12.15625 4.4375 8.421875 10.125 
Q 4.6875 15.828125 4.5 23 
z
" id="ArialMT-83"/>
       <path d="M 40.4375 19 
L 49.078125 17.875 
Q 47.65625 8.9375 41.8125 3.875 
Q 35.984375 -1.171875 27.484375 -1.171875 
Q 16.84375 -1.171875 10.375 5.78125 
Q 3.90625 12.75 3.90625 25.734375 
Q 3.90625 34.125 6.6875 40.421875 
Q 9.46875 46.734375 15.15625 49.875 
Q 20.84375 53.03125 27.546875 53.03125 
Q 35.984375 53.03125 41.359375 48.75 
Q 46.734375 44.484375 48.25 36.625 
L 39.703125 35.296875 
Q 38.484375 40.53125 35.375 43.15625 
Q 32.28125 45.796875 27.875 45.796875 
Q 21.234375 45.796875 17.078125 41.03125 
Q 12.9375 36.28125 12.9375 25.984375 
Q 12.9375 15.53125 16.9375 10.796875 
Q 20.953125 6.0625 27.390625 6.0625 
Q 32.5625 6.0625 36.03125 9.234375 
Q 39.5 12.40625 40.4375 19 
z
" id="ArialMT-99"/>
       <path d="M 40.4375 6.390625 
Q 35.546875 2.25 31.03125 0.53125 
Q 26.515625 -1.171875 21.34375 -1.171875 
Q 12.796875 -1.171875 8.203125 3 
Q 3.609375 7.171875 3.609375 13.671875 
Q 3.609375 17.484375 5.34375 20.625 
Q 7.078125 23.78125 9.890625 25.6875 
Q 12.703125 27.59375 16.21875 28.5625 
Q 18.796875 29.25 24.03125 29.890625 
Q 34.671875 31.15625 39.703125 32.90625 
Q 39.75 34.71875 39.75 35.203125 
Q 39.75 40.578125 37.25 42.78125 
Q 33.890625 45.75 27.25 45.75 
Q 21.046875 45.75 18.09375 43.578125 
Q 15.140625 41.40625 13.71875 35.890625 
L 5.125 37.0625 
Q 6.296875 42.578125 8.984375 45.96875 
Q 11.671875 49.359375 16.75 51.1875 
Q 21.828125 53.03125 28.515625 53.03125 
Q 35.15625 53.03125 39.296875 51.46875 
Q 43.453125 49.90625 45.40625 47.53125 
Q 47.359375 45.171875 48.140625 41.546875 
Q 48.578125 39.3125 48.578125 33.453125 
L 48.578125 21.734375 
Q 48.578125 9.46875 49.140625 6.21875 
Q 49.703125 2.984375 51.375 0 
L 42.1875 0 
Q 40.828125 2.734375 40.4375 6.390625 
z
M 39.703125 26.03125 
Q 34.90625 24.078125 25.34375 22.703125 
Q 19.921875 21.921875 17.671875 20.9375 
Q 15.4375 19.96875 14.203125 18.09375 
Q 12.984375 16.21875 12.984375 13.921875 
Q 12.984375 10.40625 15.640625 8.0625 
Q 18.3125 5.71875 23.4375 5.71875 
Q 28.515625 5.71875 32.46875 7.9375 
Q 36.421875 10.15625 38.28125 14.015625 
Q 39.703125 17 39.703125 22.796875 
z
" id="ArialMT-97"/>
       <path d="M 6.390625 0 
L 6.390625 71.578125 
L 15.1875 71.578125 
L 15.1875 0 
z
" id="ArialMT-108"/>
       <path d="M 25.78125 7.859375 
L 27.046875 0.09375 
Q 23.34375 -0.6875 20.40625 -0.6875 
Q 15.625 -0.6875 12.984375 0.828125 
Q 10.359375 2.34375 9.28125 4.8125 
Q 8.203125 7.28125 8.203125 15.1875 
L 8.203125 45.015625 
L 1.765625 45.015625 
L 1.765625 51.859375 
L 8.203125 51.859375 
L 8.203125 64.703125 
L 16.9375 69.96875 
L 16.9375 51.859375 
L 25.78125 51.859375 
L 25.78125 45.015625 
L 16.9375 45.015625 
L 16.9375 14.703125 
Q 16.9375 10.9375 17.40625 9.859375 
Q 17.875 8.796875 18.921875 8.15625 
Q 19.96875 7.515625 21.921875 7.515625 
Q 23.390625 7.515625 25.78125 7.859375 
z
" id="ArialMT-116"/>
       <path d="M 7.859375 0 
L 7.859375 71.578125 
L 39.59375 71.578125 
Q 49.171875 71.578125 54.140625 69.640625 
Q 59.125 67.71875 62.109375 62.828125 
Q 65.09375 57.953125 65.09375 52.046875 
Q 65.09375 44.4375 60.15625 39.203125 
Q 55.21875 33.984375 44.921875 32.5625 
Q 48.6875 30.765625 50.640625 29 
Q 54.78125 25.203125 58.5 19.484375 
L 70.953125 0 
L 59.03125 0 
L 49.5625 14.890625 
Q 45.40625 21.34375 42.71875 24.75 
Q 40.046875 28.171875 37.921875 29.53125 
Q 35.796875 30.90625 33.59375 31.453125 
Q 31.984375 31.78125 28.328125 31.78125 
L 17.328125 31.78125 
L 17.328125 0 
z
M 17.328125 39.984375 
L 37.703125 39.984375 
Q 44.1875 39.984375 47.84375 41.328125 
Q 51.515625 42.671875 53.421875 45.625 
Q 55.328125 48.578125 55.328125 52.046875 
Q 55.328125 57.125 51.640625 60.390625 
Q 47.953125 63.671875 39.984375 63.671875 
L 17.328125 63.671875 
z
" id="ArialMT-82"/>
       <path d="M 8.203125 0 
L 8.203125 71.578125 
L 56.5 71.578125 
L 56.5 63.140625 
L 17.671875 63.140625 
L 17.671875 40.96875 
L 51.265625 40.96875 
L 51.265625 32.515625 
L 17.671875 32.515625 
L 17.671875 0 
z
" id="ArialMT-70"/>
       <path d="M 54.6875 71.578125 
L 64.15625 71.578125 
L 64.15625 30.21875 
Q 64.15625 19.4375 61.71875 13.078125 
Q 59.28125 6.734375 52.90625 2.75 
Q 46.53125 -1.21875 36.1875 -1.21875 
Q 26.125 -1.21875 19.71875 2.25 
Q 13.328125 5.71875 10.59375 12.28125 
Q 7.859375 18.84375 7.859375 30.21875 
L 7.859375 71.578125 
L 17.328125 71.578125 
L 17.328125 30.28125 
Q 17.328125 20.953125 19.0625 16.53125 
Q 20.796875 12.109375 25.015625 9.71875 
Q 29.25 7.328125 35.359375 7.328125 
Q 45.796875 7.328125 50.234375 12.0625 
Q 54.6875 16.796875 54.6875 30.28125 
z
" id="ArialMT-85"/>
      </defs>
      <use xlink:href="#ArialMT-109"/>
      <use x="83.300781" xlink:href="#ArialMT-83"/>
      <use x="150" xlink:href="#ArialMT-99"/>
      <use x="200" xlink:href="#ArialMT-97"/>
      <use x="255.615234" xlink:href="#ArialMT-114"/>
      <use x="288.916016" xlink:href="#ArialMT-108"/>
      <use x="311.132812" xlink:href="#ArialMT-101"/>
      <use x="366.748047" xlink:href="#ArialMT-116"/>
      <use x="394.53125" xlink:href="#ArialMT-32"/>
      <use x="422.314453" xlink:href="#ArialMT-40"/>
      <use x="455.615234" xlink:href="#ArialMT-82"/>
      <use x="527.832031" xlink:href="#ArialMT-70"/>
      <use x="588.916016" xlink:href="#ArialMT-85"/>
      <use x="661.132812" xlink:href="#ArialMT-41"/>
     </g>
    </g>
   </g>
   <g id="line2d_62">
    <path clip-path="url(#pa05504c6e7)" d="M 43.963239 361 
L 46.912421 352.001533 
L 47.657021 361 
M 62.758139 361 
L 64.533474 329.034118 
L 70.407158 335.729063 
L 76.280842 312.460598 
L 82.154526 291.458127 
L 88.028211 271.83532 
L 93.901895 256.916683 
L 99.775579 247.381813 
L 105.649263 235.88217 
L 111.522947 224.937653 
L 117.396632 213.98316 
L 123.270316 205.1988 
L 129.144 198.455764 
L 135.017684 189.545116 
L 140.891368 182.124182 
L 146.765053 176.121466 
L 152.638737 171.871606 
L 158.512421 166.207655 
L 164.386105 160.783965 
L 170.259789 156.579049 
L 176.133474 152.082486 
L 182.007158 147.988328 
L 187.880842 144.124111 
L 193.754526 140.43898 
L 199.628211 136.288471 
L 205.501895 132.980433 
L 211.375579 129.09985 
L 217.249263 125.791934 
L 223.122947 121.939749 
L 228.996632 118.630854 
L 234.870316 115.030748 
L 240.744 112.168094 
L 246.617684 108.94685 
L 252.491368 105.695648 
L 258.365053 102.739475 
L 264.238737 99.263573 
L 270.112421 95.742037 
L 275.986105 92.977543 
L 281.859789 89.664348 
L 287.733474 86.943475 
L 293.607158 84.680998 
L 299.480842 81.877298 
L 305.354526 79.473904 
L 311.228211 76.906999 
L 317.101895 74.684579 
L 322.975579 72.997534 
L 328.849263 70.822617 
L 334.722947 69.229035 
L 340.596632 67.610111 
L 346.470316 66.390526 
L 352.344 65.143413 
L 358.217684 63.996233 
L 364.091368 63.061792 
L 369.965053 62.154184 
L 375.838737 61.510525 
L 381.712421 60.793483 
L 387.586105 60.114322 
L 393.459789 59.565788 
L 399.333474 59.045672 
L 405.207158 58.287168 
L 411.080842 58.054718 
L 416.954526 57.554208 
L 422.828211 57.366434 
L 428.701895 57.192384 
L 433 56.729477 
" style="fill:none;stroke:#1a1a1a;stroke-linecap:round;stroke-width:2;"/>
   </g>
   <g id="line2d_63">
    <path clip-path="url(#pa05504c6e7)" d="M 41.701816 361 
L 46.912421 354.477008 
L 52.786105 325.884671 
L 52.788379 361 
M 64.531592 361 
L 64.533474 331.95005 
L 70.407158 310.952862 
L 76.280842 336.207938 
L 82.154526 281.103179 
L 88.028211 277.52973 
L 93.901895 258.611761 
L 99.775579 250.605884 
L 105.649263 234.029372 
L 111.522947 225.564692 
L 117.396632 214.918004 
L 123.270316 207.570635 
L 129.144 199.093185 
L 135.017684 191.942351 
L 140.891368 184.034136 
L 146.765053 177.847205 
L 152.638737 172.166083 
L 158.512421 167.665192 
L 164.386105 162.07959 
L 170.259789 156.972964 
L 176.133474 153.216878 
L 182.007158 149.766166 
L 187.880842 145.754094 
L 193.754526 140.329892 
L 199.628211 138.293268 
L 205.501895 134.670271 
L 211.375579 130.987959 
L 217.249263 127.003694 
L 223.122947 123.661289 
L 228.996632 120.266798 
L 234.870316 116.561237 
L 240.744 113.120495 
L 246.617684 109.737178 
L 252.491368 106.907232 
L 258.365053 103.735253 
L 264.238737 100.407238 
L 270.112421 98.01775 
L 275.986105 95.019553 
L 281.859789 91.777493 
L 287.733474 89.053773 
L 293.607158 86.198165 
L 299.480842 82.645722 
L 305.354526 80.254171 
L 311.228211 77.701475 
L 317.101895 75.149318 
L 322.975579 72.847982 
L 328.849263 71.188685 
L 334.722947 69.086472 
L 340.596632 67.347183 
L 346.470316 66.104732 
L 352.344 64.499668 
L 358.217684 63.421827 
L 364.091368 62.134852 
L 369.965053 60.545501 
L 375.838737 59.894871 
L 381.712421 59.457022 
L 387.586105 58.522763 
L 393.459789 58.167174 
L 399.333474 57.435348 
L 405.207158 56.716886 
L 411.080842 56.305974 
L 416.954526 55.48672 
L 422.828211 55.322844 
L 428.701895 54.737994 
L 433 54.418875 
" style="fill:none;stroke:#cbb6a2;stroke-linecap:round;stroke-width:2;"/>
   </g>
   <g id="line2d_64">
    <path clip-path="url(#pa05504c6e7)" d="M 50.73883 361 
L 52.786105 346.004763 
L 55.048116 361 
M 63.525592 361 
L 64.533474 356.040674 
L 70.407158 339.210443 
L 76.280842 355.251074 
L 82.154526 300.058331 
L 88.028211 283.133923 
L 93.901895 268.107896 
L 99.775579 247.770138 
L 105.649263 239.163539 
L 111.522947 227.356309 
L 117.396632 216.830025 
L 123.270316 208.240566 
L 129.144 199.85641 
L 135.017684 189.793143 
L 140.891368 183.557631 
L 146.765053 177.007517 
L 152.638737 171.476673 
L 158.512421 166.34238 
L 164.386105 161.27243 
L 170.259789 156.624204 
L 176.133474 152.88072 
L 182.007158 148.55127 
L 187.880842 144.944961 
L 193.754526 141.072875 
L 199.628211 137.547929 
L 205.501895 134.127377 
L 211.375579 130.386819 
L 217.249263 127.023208 
L 223.122947 123.363035 
L 228.996632 119.462769 
L 234.870316 116.367823 
L 240.744 113.14515 
L 246.617684 109.659621 
L 252.491368 106.0527 
L 258.365053 102.398905 
L 264.238737 99.714025 
L 270.112421 96.498904 
L 275.986105 92.933749 
L 281.859789 90.047031 
L 287.733474 87.007599 
L 293.607158 84.140308 
L 299.480842 81.08861 
L 305.354526 78.145151 
L 311.228211 75.60915 
L 317.101895 72.772824 
L 322.975579 70.312138 
L 328.849263 68.335222 
L 334.722947 66.303301 
L 340.596632 64.664448 
L 346.470316 62.930867 
L 352.344 61.863919 
L 358.217684 60.412081 
L 364.091368 59.387127 
L 369.965053 58.426114 
L 375.838737 57.774077 
L 381.712421 57.281255 
L 387.586105 56.423595 
L 393.459789 55.570118 
L 399.333474 54.951508 
L 405.207158 54.652455 
L 411.080842 54.154161 
L 416.954526 53.844873 
L 422.828211 53.448186 
L 428.701895 53.154752 
L 433 52.770011 
" style="fill:none;stroke:#579e7c;stroke-linecap:round;stroke-width:2;"/>
   </g>
   <g id="line2d_65">
    <path clip-path="url(#pa05504c6e7)" d="M 51.466233 361 
L 52.786105 334.021427 
L 58.659789 346.784968 
L 64.533474 352.302583 
L 70.407158 336.774093 
L 76.280842 328.568466 
L 82.154526 310.511582 
L 88.028211 287.318937 
L 93.901895 269.029011 
L 99.775579 262.949072 
L 105.649263 244.200071 
L 111.522947 233.716513 
L 117.396632 223.014737 
L 123.270316 215.580625 
L 129.144 205.90673 
L 135.017684 196.848956 
L 140.891368 191.421284 
L 146.765053 184.051771 
L 152.638737 178.261176 
L 158.512421 172.774973 
L 164.386105 167.015384 
L 170.259789 161.538383 
L 176.133474 157.784888 
L 182.007158 153.981555 
L 187.880842 150.221422 
L 193.754526 145.941143 
L 199.628211 142.465452 
L 205.501895 138.690391 
L 211.375579 135.039066 
L 217.249263 131.217585 
L 223.122947 127.251383 
L 228.996632 123.214036 
L 234.870316 118.913 
L 240.744 114.911155 
L 246.617684 111.914009 
L 252.491368 108.648605 
L 258.365053 105.542306 
L 264.238737 102.609931 
L 270.112421 99.003978 
L 275.986105 95.818766 
L 281.859789 92.668215 
L 287.733474 89.967075 
L 293.607158 87.353815 
L 299.480842 84.733392 
L 305.354526 82.302761 
L 311.228211 79.564863 
L 317.101895 77.003597 
L 322.975579 74.682755 
L 328.849263 72.419833 
L 334.722947 70.347281 
L 340.596632 68.352351 
L 346.470316 66.617463 
L 352.344 64.681506 
L 358.217684 63.029368 
L 364.091368 61.771255 
L 369.965053 60.505013 
L 375.838737 59.413677 
L 381.712421 58.500263 
L 387.586105 57.4337 
L 393.459789 56.252711 
L 399.333474 55.743855 
L 405.207158 54.673423 
L 411.080842 53.872295 
L 416.954526 52.972446 
L 422.828211 52.198496 
L 428.701895 51.534595 
L 433 51.096391 
" style="fill:none;stroke:#af7cb5;stroke-linecap:round;stroke-width:2;"/>
   </g>
   <g id="line2d_66">
    <path clip-path="url(#pa05504c6e7)" d="M 56.001046 361 
L 58.659789 314.754846 
L 64.533474 320.820225 
L 68.637418 361 
M 72.457253 361 
L 76.280842 328.684363 
L 82.154526 306.615404 
L 88.028211 280.348461 
L 93.901895 272.685011 
L 99.775579 265.149311 
L 105.649263 244.499497 
L 111.522947 232.088687 
L 117.396632 218.180346 
L 123.270316 210.464373 
L 129.144 202.776204 
L 135.017684 192.448569 
L 140.891368 184.946771 
L 146.765053 178.167399 
L 152.638737 172.947519 
L 158.512421 166.836559 
L 164.386105 160.686671 
L 170.259789 156.142727 
L 176.133474 152.104856 
L 182.007158 148.938545 
L 187.880842 144.624183 
L 193.754526 140.639809 
L 199.628211 137.271068 
L 205.501895 132.987085 
L 211.375579 130.235819 
L 217.249263 127.3438 
L 223.122947 123.254144 
L 228.996632 121.1983 
L 234.870316 118.0516 
L 240.744 114.204906 
L 246.617684 110.950635 
L 252.491368 108.00631 
L 258.365053 104.026878 
L 264.238737 98.907612 
L 270.112421 95.265066 
L 275.986105 93.097355 
L 281.859789 88.960293 
L 287.733474 86.096831 
L 293.607158 83.214985 
L 299.480842 79.44318 
L 305.354526 75.918403 
L 311.228211 73.112526 
L 317.101895 70.530905 
L 322.975579 67.950672 
L 328.849263 65.792148 
L 334.722947 64.114076 
L 340.596632 62.157142 
L 346.470316 60.981274 
L 352.344 59.411697 
L 358.217684 58.168013 
L 364.091368 57.352336 
L 369.965053 56.476991 
L 375.838737 55.945067 
L 381.712421 55.140101 
L 387.586105 54.498798 
L 393.459789 54.249213 
L 399.333474 53.762783 
L 405.207158 53.303906 
L 411.080842 52.805089 
L 416.954526 52.059744 
L 422.828211 51.678723 
L 428.701895 51.372121 
L 433 51.042661 
" style="fill:none;stroke:#cbb6a2;stroke-linecap:round;stroke-width:2;"/>
   </g>
   <g id="line2d_67">
    <path clip-path="url(#pa05504c6e7)" d="M 41.038737 332.972109 
L 46.912421 336.489998 
L 52.786105 330.708714 
L 58.659789 335.927887 
L 64.004532 361 
M 66.874451 361 
L 70.407158 357.255603 
L 76.280842 344.638232 
L 82.154526 286.041841 
L 88.028211 280.077567 
L 93.901895 258.494599 
L 99.775579 251.804694 
L 105.649263 237.668721 
L 111.522947 226.695335 
L 117.396632 215.52825 
L 123.270316 207.517226 
L 129.144 197.290971 
L 135.017684 188.43198 
L 140.891368 183.858217 
L 146.765053 175.545493 
L 152.638737 170.452204 
L 158.512421 165.489474 
L 164.386105 159.637439 
L 170.259789 155.19387 
L 176.133474 151.699695 
L 182.007158 146.655151 
L 187.880842 143.243442 
L 193.754526 139.829873 
L 199.628211 136.286975 
L 205.501895 132.108876 
L 211.375579 129.487501 
L 217.249263 125.657263 
L 223.122947 122.770572 
L 228.996632 119.668128 
L 234.870316 115.734279 
L 240.744 111.671295 
L 246.617684 107.234704 
L 252.491368 103.579788 
L 258.365053 99.567945 
L 264.238737 94.793201 
L 270.112421 92.016569 
L 275.986105 88.798542 
L 281.859789 85.227859 
L 287.733474 82.159083 
L 293.607158 79.275504 
L 299.480842 76.41996 
L 305.354526 74.118644 
L 311.228211 71.409348 
L 317.101895 68.886297 
L 322.975579 67.309648 
L 328.849263 65.796369 
L 334.722947 64.192682 
L 340.596632 62.708559 
L 346.470316 61.44929 
L 352.344 60.612564 
L 358.217684 59.025462 
L 364.091368 58.150869 
L 369.965053 57.432759 
L 375.838737 56.45586 
L 381.712421 56.531709 
L 387.586105 55.576436 
L 393.459789 55.150095 
L 399.333474 54.973236 
L 405.207158 54.764161 
L 411.080842 54.026558 
L 416.954526 53.537206 
L 422.828211 52.979802 
L 428.701895 52.550182 
L 433 52.343394 
" style="fill:none;stroke:#af7cb5;stroke-linecap:round;stroke-width:2;"/>
   </g>
   <g id="line2d_68">
    <path clip-path="url(#pa05504c6e7)" d="M 52.783383 361 
L 52.786105 318.963887 
L 58.659789 335.649814 
L 58.661431 361 
M 71.351151 361 
L 76.280842 305.828436 
L 82.154526 301.878079 
L 88.028211 285.72894 
L 93.901895 275.736701 
L 99.775579 263.743099 
L 105.649263 246.431545 
L 111.522947 233.841358 
L 117.396632 221.326293 
L 123.270316 212.061013 
L 129.144 204.163029 
L 135.017684 195.269437 
L 140.891368 188.994611 
L 146.765053 181.09638 
L 152.638737 175.507618 
L 158.512421 168.726142 
L 164.386105 163.448679 
L 170.259789 159.041307 
L 176.133474 155.089528 
L 182.007158 151.748819 
L 187.880842 148.20119 
L 193.754526 143.511125 
L 199.628211 139.400345 
L 205.501895 136.171879 
L 211.375579 132.65446 
L 217.249263 129.625855 
L 223.122947 127.186196 
L 228.996632 124.781968 
L 234.870316 121.9226 
L 240.744 118.908508 
L 246.617684 115.95033 
L 252.491368 112.336454 
L 258.365053 109.226422 
L 264.238737 105.827149 
L 270.112421 101.901737 
L 275.986105 98.561633 
L 281.859789 94.627467 
L 287.733474 90.304314 
L 293.607158 87.219092 
L 299.480842 83.665853 
L 305.354526 80.738951 
L 311.228211 78.08514 
L 317.101895 75.291744 
L 322.975579 72.919098 
L 328.849263 70.822758 
L 334.722947 68.824305 
L 340.596632 66.989934 
L 346.470316 65.391151 
L 352.344 64.073787 
L 358.217684 62.423199 
L 364.091368 61.257367 
L 369.965053 60.449569 
L 375.838737 59.80001 
L 381.712421 59.23683 
L 387.586105 58.513568 
L 393.459789 57.870428 
L 399.333474 57.516648 
L 405.207158 57.044165 
L 411.080842 56.557715 
L 416.954526 55.940307 
L 422.828211 55.683016 
L 428.701895 55.309683 
L 433 54.941414 
" style="fill:none;stroke:#cbb6a2;stroke-linecap:round;stroke-width:2;"/>
   </g>
   <g id="line2d_69">
    <path clip-path="url(#pa05504c6e7)" d="M 41.038737 342.632654 
L 46.912421 345.244319 
L 51.958636 361 
M 53.510426 361 
L 58.659789 342.632654 
L 64.533474 326.558642 
L 70.407158 327.776915 
L 76.280842 326.31945 
L 82.154526 294.016262 
L 88.028211 293.806969 
L 93.901895 274.359939 
L 99.775579 255.739537 
L 105.649263 240.050991 
L 111.522947 232.295806 
L 117.396632 219.417375 
L 123.270316 210.577494 
L 129.144 203.46876 
L 135.017684 191.791096 
L 140.891368 183.009487 
L 146.765053 177.902485 
L 152.638737 171.199628 
L 158.512421 164.545118 
L 164.386105 159.910265 
L 170.259789 155.301322 
L 176.133474 150.568866 
L 182.007158 147.306233 
L 187.880842 143.54185 
L 193.754526 138.878678 
L 199.628211 135.654792 
L 205.501895 132.391146 
L 211.375579 128.976851 
L 217.249263 125.81195 
L 223.122947 122.632868 
L 228.996632 119.670314 
L 234.870316 115.684119 
L 240.744 112.179301 
L 246.617684 107.96652 
L 252.491368 103.483589 
L 258.365053 100.219323 
L 264.238737 96.471916 
L 270.112421 93.793418 
L 275.986105 91.261417 
L 281.859789 87.654625 
L 287.733474 84.762226 
L 293.607158 81.591539 
L 299.480842 78.331106 
L 305.354526 75.526364 
L 311.228211 72.865718 
L 317.101895 70.014215 
L 322.975579 67.84225 
L 328.849263 66.398327 
L 334.722947 64.428895 
L 340.596632 62.76216 
L 346.470316 61.630365 
L 352.344 60.499391 
L 358.217684 59.074449 
L 364.091368 58.202532 
L 369.965053 56.794313 
L 375.838737 56.415885 
L 381.712421 56.133626 
L 387.586105 55.717685 
L 393.459789 55.026826 
L 399.333474 54.855449 
L 405.207158 54.059522 
L 411.080842 53.831793 
L 416.954526 52.876154 
L 422.828211 52.677676 
L 428.701895 52.288653 
L 433 52.124734 
" style="fill:none;stroke:#af7cb5;stroke-linecap:round;stroke-width:2;"/>
   </g>
   <g id="line2d_70">
    <path clip-path="url(#pa05504c6e7)" d="M 41.038737 351.053365 
L 41.039381 361 
M 62.387847 361 
L 64.533474 319.634419 
L 70.407158 327.804421 
L 74.350601 361 
M 77.974078 361 
L 82.154526 320.883637 
L 88.028211 287.400149 
L 93.901895 273.031436 
L 99.775579 267.300652 
L 105.649263 246.556107 
L 111.522947 236.603691 
L 117.396632 224.312659 
L 123.270316 215.428058 
L 129.144 207.996943 
L 135.017684 201.442698 
L 140.891368 192.570063 
L 146.765053 186.210965 
L 152.638737 178.531079 
L 158.512421 173.300862 
L 164.386105 168.473378 
L 170.259789 163.179094 
L 176.133474 159.563741 
L 182.007158 155.184459 
L 187.880842 150.864558 
L 193.754526 148.412947 
L 199.628211 144.388881 
L 205.501895 140.063707 
L 211.375579 137.604645 
L 217.249263 133.898491 
L 223.122947 130.203137 
L 228.996632 127.445268 
L 234.870316 124.602473 
L 240.744 121.547374 
L 246.617684 117.812628 
L 252.491368 114.786917 
L 258.365053 111.016275 
L 264.238737 108.544924 
L 270.112421 105.454994 
L 275.986105 102.764584 
L 281.859789 100.142203 
L 287.733474 97.106577 
L 293.607158 94.543149 
L 299.480842 90.827205 
L 305.354526 88.143547 
L 311.228211 85.247583 
L 317.101895 82.988243 
L 322.975579 80.294973 
L 328.849263 77.809583 
L 334.722947 75.542455 
L 340.596632 73.348982 
L 346.470316 71.380816 
L 352.344 69.484678 
L 358.217684 68.016795 
L 364.091368 66.408433 
L 369.965053 65.112336 
L 375.838737 63.884189 
L 381.712421 63.326101 
L 387.586105 62.710802 
L 393.459789 61.946253 
L 399.333474 61.419669 
L 405.207158 60.343899 
L 411.080842 60.055327 
L 416.954526 59.495701 
L 422.828211 58.978509 
L 428.701895 58.580645 
L 433 58.317013 
" style="fill:none;stroke:#af7cb5;stroke-linecap:round;stroke-width:2;"/>
   </g>
   <g id="line2d_71">
    <path clip-path="url(#pa05504c6e7)" d="M 41.038737 326.90673 
L 41.040945 361 
M 54.659666 361 
L 58.659789 351.603683 
L 64.533474 344.987986 
L 66.505727 361 
M 73.174874 361 
L 76.280842 325.454644 
L 82.154526 288.387993 
L 88.028211 288.610924 
L 93.901895 263.757955 
L 99.775579 254.341172 
L 105.649263 236.842884 
L 111.522947 224.707229 
L 117.396632 215.567525 
L 123.270316 205.743124 
L 129.144 196.83268 
L 135.017684 188.56584 
L 140.891368 181.88603 
L 146.765053 176.51897 
L 152.638737 169.613642 
L 158.512421 164.798583 
L 164.386105 159.593204 
L 170.259789 156.47778 
L 176.133474 150.830845 
L 182.007158 148.606736 
L 187.880842 143.877245 
L 193.754526 140.251264 
L 199.628211 136.827405 
L 205.501895 133.315528 
L 211.375579 130.219101 
L 217.249263 127.097144 
L 223.122947 123.54405 
L 228.996632 120.674947 
L 234.870316 117.910305 
L 240.744 115.336798 
L 246.617684 111.469707 
L 252.491368 109.078911 
L 258.365053 105.447549 
L 264.238737 102.171108 
L 270.112421 99.893021 
L 275.986105 96.251367 
L 281.859789 92.985732 
L 287.733474 90.495653 
L 293.607158 87.753651 
L 299.480842 84.613127 
L 305.354526 82.666279 
L 311.228211 80.486227 
L 317.101895 77.635598 
L 322.975579 76.08677 
L 328.849263 73.601894 
L 334.722947 71.695242 
L 340.596632 70.531945 
L 346.470316 69.42759 
L 352.344 68.157104 
L 358.217684 66.905992 
L 364.091368 66.102482 
L 369.965053 65.011748 
L 375.838737 64.475448 
L 381.712421 64.410187 
L 387.586105 63.935252 
L 393.459789 63.20634 
L 399.333474 62.235963 
L 405.207158 62.432553 
L 411.080842 61.821488 
L 416.954526 61.588833 
L 422.828211 61.278213 
L 428.701895 60.955264 
L 433 60.894543 
" style="fill:none;stroke:#af7cb5;stroke-linecap:round;stroke-width:2;"/>
   </g>
   <g id="line2d_72">
    <path clip-path="url(#pa05504c6e7)" d="M 41.038737 358.888497 
L 46.912421 359.561113 
L 46.965321 361 
M 69.433454 361 
L 70.407158 338.127689 
L 76.280842 343.607245 
L 82.154526 306.395219 
L 88.028211 284.779535 
L 93.901895 267.235669 
L 99.775579 269.233412 
L 105.649263 244.354036 
L 111.522947 233.813581 
L 117.396632 222.919886 
L 123.270316 215.21978 
L 129.144 205.431436 
L 135.017684 198.676024 
L 140.891368 190.623436 
L 146.765053 185.261811 
L 152.638737 179.371213 
L 158.512421 173.426333 
L 164.386105 167.912801 
L 170.259789 163.759891 
L 176.133474 159.753529 
L 182.007158 155.139314 
L 187.880842 151.442153 
L 193.754526 147.214466 
L 199.628211 144.936257 
L 205.501895 139.347454 
L 211.375579 135.13845 
L 217.249263 131.569204 
L 223.122947 127.51042 
L 228.996632 123.626671 
L 234.870316 120.467228 
L 240.744 117.115563 
L 246.617684 113.540816 
L 252.491368 110.522011 
L 258.365053 107.25474 
L 264.238737 104.595483 
L 270.112421 101.243795 
L 275.986105 98.73923 
L 281.859789 96.322983 
L 287.733474 93.278896 
L 293.607158 91.077346 
L 299.480842 88.773997 
L 305.354526 85.687248 
L 311.228211 83.72581 
L 317.101895 80.693718 
L 322.975579 78.19923 
L 328.849263 76.307231 
L 334.722947 74.013027 
L 340.596632 71.864724 
L 346.470316 70.231857 
L 352.344 68.204123 
L 358.217684 66.584676 
L 364.091368 65.211269 
L 369.965053 64.060227 
L 375.838737 63.224154 
L 381.712421 62.506751 
L 387.586105 61.801492 
L 393.459789 61.274061 
L 399.333474 60.393272 
L 405.207158 59.783514 
L 411.080842 59.407819 
L 416.954526 59.209978 
L 422.828211 58.538336 
L 428.701895 57.939596 
L 433 57.853877 
" style="fill:none;stroke:#af7cb5;stroke-linecap:round;stroke-width:2;"/>
   </g>
   <g id="line2d_73">
    <path clip-path="url(#pa05504c6e7)" d="M 46.911414 361 
L 46.912421 345.459214 
L 52.786105 344.987986 
L 58.659789 329.347642 
L 62.1275 361 
M 66.683624 361 
L 70.407158 322.968738 
L 76.280842 304.676732 
L 82.154526 283.976505 
L 88.028211 274.099058 
L 93.901895 266.27359 
L 99.775579 255.528561 
L 105.649263 235.371243 
L 111.522947 224.707229 
L 117.396632 217.906019 
L 123.270316 205.620865 
L 129.144 198.223884 
L 135.017684 186.053924 
L 140.891368 180.094745 
L 146.765053 174.151089 
L 152.638737 169.359178 
L 158.512421 163.839545 
L 164.386105 158.276544 
L 170.259789 153.987032 
L 176.133474 149.67198 
L 182.007158 146.335963 
L 187.880842 141.472744 
L 193.754526 137.592608 
L 199.628211 134.197659 
L 205.501895 130.551805 
L 211.375579 126.355689 
L 217.249263 122.892566 
L 223.122947 118.881194 
L 228.996632 115.940263 
L 234.870316 112.363385 
L 240.744 109.194537 
L 246.617684 105.880603 
L 252.491368 102.412544 
L 258.365053 99.230094 
L 264.238737 95.924436 
L 270.112421 93.155765 
L 275.986105 90.697611 
L 281.859789 87.535178 
L 287.733474 83.69888 
L 293.607158 80.464806 
L 299.480842 77.49529 
L 305.354526 75.232862 
L 311.228211 72.684394 
L 317.101895 69.913346 
L 322.975579 67.943753 
L 328.849263 65.821804 
L 334.722947 63.646401 
L 340.596632 62.568928 
L 346.470316 61.25607 
L 352.344 60.024474 
L 358.217684 58.912625 
L 364.091368 58.207246 
L 369.965053 57.398406 
L 375.838737 56.536464 
L 381.712421 56.203171 
L 387.586105 55.44813 
L 393.459789 55.111464 
L 399.333474 54.10024 
L 405.207158 54.211709 
L 411.080842 53.466059 
L 416.954526 53.598799 
L 422.828211 52.954936 
L 428.701895 52.697251 
L 433 52.504453 
" style="fill:none;stroke:#897a77;stroke-linecap:round;stroke-width:2;"/>
   </g>
   <g id="line2d_74">
    <path clip-path="url(#pa05504c6e7)" d="M 45.254967 361 
L 46.912421 356.937002 
L 47.973166 361 
M 54.871171 361 
L 58.659789 327.50291 
L 64.533474 349.975295 
L 70.407158 334.377512 
L 76.280842 355.077739 
L 82.154526 305.698792 
L 88.028211 279.386272 
L 93.901895 273.031436 
L 99.775579 254.906648 
L 105.649263 241.994265 
L 111.522947 231.705197 
L 117.396632 221.149792 
L 123.270316 209.74992 
L 129.144 200.27704 
L 135.017684 193.010575 
L 140.891368 184.76374 
L 146.765053 178.442605 
L 152.638737 172.154493 
L 158.512421 168.436459 
L 164.386105 161.592613 
L 170.259789 157.164483 
L 176.133474 153.245534 
L 182.007158 149.826071 
L 187.880842 146.459407 
L 193.754526 142.528165 
L 199.628211 139.25946 
L 205.501895 135.579662 
L 211.375579 132.045061 
L 217.249263 129.239487 
L 223.122947 125.795246 
L 228.996632 123.577752 
L 234.870316 119.222293 
L 240.744 116.116985 
L 246.617684 112.971508 
L 252.491368 109.385653 
L 258.365053 105.401849 
L 264.238737 100.434144 
L 270.112421 98.225196 
L 275.986105 93.492558 
L 281.859789 91.451094 
L 287.733474 87.727207 
L 293.607158 84.801448 
L 299.480842 81.788687 
L 305.354526 79.01147 
L 311.228211 76.60652 
L 317.101895 74.711837 
L 322.975579 72.334026 
L 328.849263 70.242287 
L 334.722947 68.368717 
L 340.596632 66.493295 
L 346.470316 65.184124 
L 352.344 63.904902 
L 358.217684 62.365965 
L 364.091368 61.578719 
L 369.965053 60.44779 
L 375.838737 59.670395 
L 381.712421 58.886562 
L 387.586105 58.365693 
L 393.459789 57.45552 
L 399.333474 56.66368 
L 405.207158 56.420362 
L 411.080842 56.359232 
L 416.954526 56.132052 
L 422.828211 55.545237 
L 428.701895 55.137214 
L 433 54.595936 
" style="fill:none;stroke:#897a77;stroke-linecap:round;stroke-width:2;"/>
   </g>
   <g id="line2d_75">
    <path clip-path="url(#pa05504c6e7)" d="M 41.038737 349.975295 
L 46.912421 354.477008 
L 47.483616 361 
M 55.939074 361 
L 58.659789 308.747699 
L 64.228888 361 
M 65.076953 361 
L 70.407158 332.972109 
L 76.280842 326.31945 
L 82.154526 290.558629 
L 88.028211 288.722864 
L 93.901895 271.410166 
L 99.775579 249.09295 
L 105.649263 232.691257 
L 111.522947 222.60536 
L 117.396632 213.426353 
L 123.270316 203.844111 
L 129.144 196.67029 
L 135.017684 188.276747 
L 140.891368 181.458019 
L 146.765053 176.51897 
L 152.638737 168.700925 
L 158.512421 164.425486 
L 164.386105 159.387429 
L 170.259789 154.398125 
L 176.133474 150.331905 
L 182.007158 145.718566 
L 187.880842 143.374965 
L 193.754526 138.770298 
L 199.628211 135.763056 
L 205.501895 132.298839 
L 211.375579 128.989159 
L 217.249263 125.72931 
L 223.122947 122.84455 
L 228.996632 120.038098 
L 234.870316 116.86602 
L 240.744 113.669038 
L 246.617684 109.314022 
L 252.491368 106.413177 
L 258.365053 102.702055 
L 264.238737 99.481496 
L 270.112421 96.781025 
L 275.986105 93.684511 
L 281.859789 90.66035 
L 287.733474 88.354413 
L 293.607158 85.990245 
L 299.480842 83.727647 
L 305.354526 81.706589 
L 311.228211 79.402839 
L 317.101895 77.392471 
L 322.975579 75.726389 
L 328.849263 73.951369 
L 334.722947 72.2754 
L 340.596632 71.117737 
L 346.470316 70.274462 
L 352.344 69.182711 
L 358.217684 68.60273 
L 364.091368 67.997496 
L 369.965053 67.120599 
L 375.838737 66.889624 
L 381.712421 66.284038 
L 387.586105 65.965401 
L 393.459789 65.200179 
L 399.333474 64.903446 
L 405.207158 64.714161 
L 411.080842 64.402693 
L 416.954526 63.993054 
L 422.828211 63.353819 
L 428.701895 62.889588 
L 433 62.654419 
" style="fill:none;stroke:#efdae6;stroke-linecap:round;stroke-width:2;"/>
   </g>
   <g id="line2d_76">
    <path clip-path="url(#pa05504c6e7)" d="M 41.038737 318.185896 
L 44.847578 361 
M 58.060344 361 
L 58.659789 353.302381 
L 64.533474 335.465519 
L 70.407158 346.907736 
L 76.280842 327.203691 
L 82.154526 301.60497 
L 88.028211 297.89723 
L 93.901895 270.061802 
L 99.775579 258.899636 
L 105.649263 247.764483 
L 111.522947 235.054738 
L 117.396632 222.127916 
L 123.270316 212.029076 
L 129.144 202.719467 
L 135.017684 193.906676 
L 140.891368 188.093879 
L 146.765053 180.673231 
L 152.638737 174.24874 
L 158.512421 169.256775 
L 164.386105 164.192901 
L 170.259789 159.757757 
L 176.133474 156.017575 
L 182.007158 152.045727 
L 187.880842 147.818507 
L 193.754526 143.775711 
L 199.628211 140.955463 
L 205.501895 137.007235 
L 211.375579 132.858286 
L 217.249263 129.025929 
L 223.122947 126.420872 
L 228.996632 122.37086 
L 234.870316 119.279683 
L 240.744 116.523525 
L 246.617684 113.458608 
L 252.491368 110.538952 
L 258.365053 107.233591 
L 264.238737 103.850214 
L 270.112421 100.038262 
L 275.986105 97.030088 
L 281.859789 93.841759 
L 287.733474 90.66108 
L 293.607158 88.473049 
L 299.480842 85.544635 
L 305.354526 82.321515 
L 311.228211 79.723408 
L 317.101895 77.696484 
L 322.975579 75.250135 
L 328.849263 73.000597 
L 334.722947 71.158644 
L 340.596632 69.367608 
L 346.470316 68.123318 
L 352.344 67.190921 
L 358.217684 65.356107 
L 364.091368 64.633801 
L 369.965053 63.489403 
L 375.838737 62.365609 
L 381.712421 61.979003 
L 387.586105 61.030164 
L 393.459789 60.602952 
L 399.333474 60.325316 
L 405.207158 59.661426 
L 411.080842 59.00104 
L 416.954526 59.083762 
L 422.828211 58.12858 
L 428.701895 57.667439 
L 433 57.465066 
" style="fill:none;stroke:#efdae6;stroke-linecap:round;stroke-width:2;"/>
   </g>
   <g id="line2d_77">
    <path clip-path="url(#pa05504c6e7)" d="M 46.910674 361 
L 46.912421 334.021427 
L 48.443673 361 
M 57.222267 361 
L 58.659789 336.207938 
L 60.496567 361 
M 68.985931 361 
L 70.407158 343.607245 
L 76.280842 314.34962 
L 82.154526 315.219204 
L 88.028211 308.008764 
L 93.901895 271.122435 
L 99.775579 266.527853 
L 105.649263 249.421872 
L 111.522947 236.723105 
L 117.396632 228.11085 
L 123.270316 216.863531 
L 129.144 208.431562 
L 135.017684 200.490754 
L 140.891368 192.755456 
L 146.765053 186.169578 
L 152.638737 181.238447 
L 158.512421 172.991883 
L 164.386105 167.653563 
L 170.259789 163.461452 
L 176.133474 158.813616 
L 182.007158 154.955511 
L 187.880842 150.146008 
L 193.754526 147.079442 
L 199.628211 144.480539 
L 205.501895 140.107304 
L 211.375579 136.346398 
L 217.249263 132.755975 
L 223.122947 128.416897 
L 228.996632 123.606421 
L 234.870316 120.972026 
L 240.744 116.444693 
L 246.617684 112.927758 
L 252.491368 109.053263 
L 258.365053 106.23702 
L 264.238737 103.056706 
L 270.112421 100.753743 
L 275.986105 97.439184 
L 281.859789 94.619794 
L 287.733474 91.111311 
L 293.607158 88.400583 
L 299.480842 85.234857 
L 305.354526 82.511028 
L 311.228211 80.073384 
L 317.101895 78.048419 
L 322.975579 75.584748 
L 328.849263 73.45495 
L 334.722947 71.158199 
L 340.596632 69.353583 
L 346.470316 67.937194 
L 352.344 66.397395 
L 358.217684 64.799226 
L 364.091368 63.71188 
L 369.965053 62.261858 
L 375.838737 61.256762 
L 381.712421 60.937762 
L 387.586105 59.560251 
L 393.459789 59.27406 
L 399.333474 58.061551 
L 405.207158 57.779369 
L 411.080842 56.945695 
L 416.954526 56.304296 
L 422.828211 56.346712 
L 428.701895 55.88716 
L 433 55.271731 
" style="fill:none;stroke:#579e7c;stroke-linecap:round;stroke-width:2;"/>
   </g>
   <g id="line2d_78">
    <path clip-path="url(#pa05504c6e7)" d="M 41.038737 349.447138 
L 41.039485 361 
M 52.784549 361 
L 52.786105 336.964636 
L 58.659789 342.273318 
L 58.661002 361 
M 82.151096 361 
L 82.154526 308.008764 
L 88.028211 299.338677 
L 93.901895 273.637954 
L 99.775579 258.067963 
L 105.649263 247.567056 
L 111.522947 234.769199 
L 117.396632 220.491165 
L 123.270316 212.900622 
L 129.144 203.354521 
L 135.017684 193.585719 
L 140.891368 185.237565 
L 146.765053 179.734828 
L 152.638737 172.433593 
L 158.512421 166.623289 
L 164.386105 160.994702 
L 170.259789 156.70796 
L 176.133474 152.860439 
L 182.007158 148.788684 
L 187.880842 146.045445 
L 193.754526 141.480715 
L 199.628211 138.177047 
L 205.501895 134.294938 
L 211.375579 130.337029 
L 217.249263 125.068949 
L 223.122947 122.126386 
L 228.996632 119.062645 
L 234.870316 114.361814 
L 240.744 111.688427 
L 246.617684 108.616319 
L 252.491368 106.142742 
L 258.365053 102.575317 
L 264.238737 98.538876 
L 270.112421 95.099177 
L 275.986105 92.601028 
L 281.859789 89.65316 
L 287.733474 87.283715 
L 293.607158 84.741716 
L 299.480842 81.588113 
L 305.354526 79.723408 
L 311.228211 75.752378 
L 317.101895 72.93073 
L 322.975579 70.067087 
L 328.849263 67.766636 
L 334.722947 65.9389 
L 340.596632 64.553981 
L 346.470316 62.871925 
L 352.344 61.816576 
L 358.217684 60.619625 
L 364.091368 59.628557 
L 369.965053 58.03509 
L 375.838737 57.560235 
L 381.712421 56.836109 
L 387.586105 56.450044 
L 393.459789 55.788906 
L 399.333474 55.557804 
L 405.207158 55.210412 
L 411.080842 54.590338 
L 416.954526 54.568445 
L 422.828211 53.706285 
L 428.701895 53.338291 
L 433 53.084016 
" style="fill:none;stroke:#579e7c;stroke-linecap:round;stroke-width:2;"/>
   </g>
   <g id="line2d_79">
    <path clip-path="url(#pa05504c6e7)" d="M 41.038737 358.888497 
L 41.461639 361 
M 52.627644 361 
L 52.786105 360.245427 
L 52.786154 361 
M 86.186578 361 
L 88.028211 301.141148 
L 93.901895 278.339281 
L 99.775579 262.934518 
L 105.649263 243.95677 
L 111.522947 235.313507 
L 117.396632 224.861748 
L 123.270316 214.635577 
L 129.144 205.920394 
L 135.017684 197.115754 
L 140.891368 189.563149 
L 146.765053 180.094745 
L 152.638737 176.209453 
L 158.512421 169.87523 
L 164.386105 163.377922 
L 170.259789 160.042067 
L 176.133474 155.320204 
L 182.007158 150.888175 
L 187.880842 146.20092 
L 193.754526 142.296895 
L 199.628211 138.052643 
L 205.501895 135.474597 
L 211.375579 131.844874 
L 217.249263 128.281772 
L 223.122947 126.198607 
L 228.996632 123.101868 
L 234.870316 119.725026 
L 240.744 117.118424 
L 246.617684 114.788265 
L 252.491368 111.619946 
L 258.365053 108.881152 
L 264.238737 105.219579 
L 270.112421 101.588379 
L 275.986105 98.27302 
L 281.859789 94.470674 
L 287.733474 91.22153 
L 293.607158 88.865291 
L 299.480842 85.003322 
L 305.354526 81.77878 
L 311.228211 79.804791 
L 317.101895 76.679651 
L 322.975579 74.938417 
L 328.849263 72.73252 
L 334.722947 70.752798 
L 340.596632 69.923261 
L 346.470316 67.97041 
L 352.344 67.322257 
L 358.217684 65.679889 
L 364.091368 65.584791 
L 369.965053 63.696788 
L 375.838737 63.298768 
L 381.712421 62.898963 
L 387.586105 62.443602 
L 393.459789 61.713911 
L 399.333474 61.236705 
L 405.207158 61.021911 
L 411.080842 60.502383 
L 416.954526 60.039898 
L 422.828211 59.962171 
L 428.701895 59.374501 
L 433 59.30702 
" style="fill:none;stroke:#b79c97;stroke-linecap:round;stroke-width:2;"/>
   </g>
   <g id="line2d_80">
    <path clip-path="url(#pa05504c6e7)" d="M 52.785323 361 
L 52.786105 348.925978 
L 52.786887 361 
M 64.618685 361 
L 70.407158 316.788812 
L 75.57822 361 
M 76.862981 361 
L 82.154526 306.395219 
L 88.028211 296.780926 
L 93.901895 277.996385 
L 99.775579 262.760287 
L 105.649263 251.238539 
L 111.522947 238.123072 
L 117.396632 226.951062 
L 123.270316 218.805849 
L 129.144 212.559389 
L 135.017684 200.455055 
L 140.891368 193.52583 
L 146.765053 185.856447 
L 152.638737 178.749712 
L 158.512421 173.684505 
L 164.386105 168.142353 
L 170.259789 164.159787 
L 176.133474 158.859049 
L 182.007158 155.12052 
L 187.880842 151.013242 
L 193.754526 147.386987 
L 199.628211 143.386119 
L 205.501895 140.127838 
L 211.375579 136.643694 
L 217.249263 133.255117 
L 223.122947 130.50956 
L 228.996632 126.631644 
L 234.870316 124.347218 
L 240.744 122.059827 
L 246.617684 118.663361 
L 252.491368 115.649775 
L 258.365053 112.373528 
L 264.238737 109.362153 
L 270.112421 107.225803 
L 275.986105 103.064712 
L 281.859789 98.706961 
L 287.733474 95.729574 
L 293.607158 92.03358 
L 299.480842 89.139746 
L 305.354526 87.4523 
L 311.228211 83.957933 
L 317.101895 81.232509 
L 322.975579 78.87213 
L 328.849263 77.337258 
L 334.722947 74.849876 
L 340.596632 72.743171 
L 346.470316 71.242815 
L 352.344 69.8066 
L 358.217684 68.164936 
L 364.091368 67.909741 
L 369.965053 66.807091 
L 375.838737 65.666732 
L 381.712421 64.44468 
L 387.586105 64.156175 
L 393.459789 63.289297 
L 399.333474 63.102164 
L 405.207158 62.802432 
L 411.080842 61.992041 
L 416.954526 63.630232 
L 422.828211 61.627921 
L 428.701895 62.026593 
L 433 60.959703 
" style="fill:none;stroke:#af7cb5;stroke-linecap:round;stroke-width:2;"/>
   </g>
   <g id="line2d_81">
    <path clip-path="url(#pa05504c6e7)" d="M 52.784856 361 
L 52.786105 341.715194 
L 54.179896 361 
M 64.738708 361 
L 70.407158 323.083621 
L 76.280842 348.338697 
L 82.154526 303.191761 
L 88.028211 288.722864 
L 93.901895 268.796703 
L 99.775579 265.307969 
L 105.649263 252.353688 
L 111.522947 233.99648 
L 117.396632 224.767073 
L 123.270316 211.625256 
L 129.144 202.606238 
L 135.017684 191.835741 
L 140.891368 184.49439 
L 146.765053 180.384455 
L 152.638737 170.691324 
L 158.512421 167.853396 
L 164.386105 161.423373 
L 170.259789 155.069014 
L 176.133474 151.584696 
L 182.007158 147.46646 
L 187.880842 144.594591 
L 193.754526 140.440089 
L 199.628211 136.474538 
L 205.501895 130.894307 
L 211.375579 126.48357 
L 217.249263 123.811086 
L 223.122947 120.743908 
L 228.996632 116.666711 
L 234.870316 113.73987 
L 240.744 109.693113 
L 246.617684 105.345898 
L 252.491368 101.878526 
L 258.365053 98.745123 
L 264.238737 95.679409 
L 270.112421 92.755097 
L 275.986105 89.530006 
L 281.859789 86.763065 
L 287.733474 83.409925 
L 293.607158 81.686486 
L 299.480842 78.008538 
L 305.354526 75.167997 
L 311.228211 72.795674 
L 317.101895 70.767268 
L 322.975579 68.843176 
L 328.849263 66.735406 
L 334.722947 65.244339 
L 340.596632 63.903211 
L 346.470316 62.395608 
L 352.344 61.755375 
L 358.217684 60.431238 
L 364.091368 60.077045 
L 369.965053 59.050017 
L 375.838737 58.126663 
L 381.712421 57.437803 
L 387.586105 56.204214 
L 393.459789 56.373152 
L 399.333474 56.260577 
L 405.207158 55.743049 
L 411.080842 54.908845 
L 416.954526 55.040011 
L 422.828211 54.47825 
L 428.701895 54.194402 
L 433 54.288654 
" style="fill:none;stroke:#b79c97;stroke-linecap:round;stroke-width:2;"/>
   </g>
   <g id="patch_3">
    <path d="M 54 315 
L 54 43.2 
" style="fill:none;stroke:#262626;stroke-linecap:square;stroke-linejoin:miter;stroke-width:1.25;"/>
   </g>
   <g id="patch_4">
    <path d="M 388.8 315 
L 388.8 43.2 
" style="fill:none;stroke:#262626;stroke-linecap:square;stroke-linejoin:miter;stroke-width:1.25;"/>
   </g>
   <g id="patch_5">
    <path d="M 54 315 
L 388.8 315 
" style="fill:none;stroke:#262626;stroke-linecap:square;stroke-linejoin:miter;stroke-width:1.25;"/>
   </g>
   <g id="patch_6">
    <path d="M 54 43.2 
L 388.8 43.2 
" style="fill:none;stroke:#262626;stroke-linecap:square;stroke-linejoin:miter;stroke-width:1.25;"/>
   </g>
  </g>
 </g>
 <defs>
  <clipPath id="pa05504c6e7">
   <rect height="271.8" width="334.8" x="54" y="43.2"/>
  </clipPath>
 </defs>
</svg>
