<?xml version="1.0" encoding="utf-8" standalone="no"?>
<!DOCTYPE svg PUBLIC "-//W3C//DTD SVG 1.1//EN"
  "http://www.w3.org/Graphics/SVG/1.1/DTD/svg11.dtd">
<!-- Created with matplotlib (https://matplotlib.org/) -->
<svg height="380.324375pt" version="1.1" viewBox="0 0 376.484375 380.324375" width="376.484375pt" xmlns="http://www.w3.org/2000/svg" xmlns:xlink="http://www.w3.org/1999/xlink">
 <metadata>
  <rdf:RDF xmlns:cc="http://creativecommons.org/ns#" xmlns:dc="http://purl.org/dc/elements/1.1/" xmlns:rdf="http://www.w3.org/1999/02/22-rdf-syntax-ns#">
   <cc:Work>
    <dc:type rdf:resource="http://purl.org/dc/dcmitype/StillImage"/>
    <dc:date>2022-02-14T01:03:22.036265</dc:date>
    <dc:format>image/svg+xml</dc:format>
    <dc:creator>
     <cc:Agent>
      <dc:title>Matplotlib v3.3.4, https://matplotlib.org/</dc:title>
     </cc:Agent>
    </dc:creator>
   </cc:Work>
  </rdf:RDF>
 </metadata>
 <defs>
  <style type="text/css">*{stroke-linecap:butt;stroke-linejoin:round;}</style>
 </defs>
 <g id="figure_1">
  <g id="patch_1">
   <path d="M 0 380.324375 
L 376.484375 380.324375 
L 376.484375 -0 
L 0 -0 
z
" style="fill:#ffffff;"/>
  </g>
  <g id="axes_1">
   <g id="patch_2">
    <path d="M 90.284375 302.1 
L 369.284375 302.1 
L 369.284375 24.9 
L 90.284375 24.9 
z
" style="fill:#ffffff;"/>
   </g>
   <g id="matplotlib.axis_1">
    <g id="xtick_1">
     <g id="line2d_1">
      <path clip-path="url(#p22ef82a7e6)" d="M 119.146444 302.1 
L 119.146444 24.9 
" style="fill:none;stroke:#cccccc;stroke-linecap:round;"/>
     </g>
     <g id="line2d_2">
      <defs>
       <path d="M 0 0 
L 0 6 
" id="mf093c83a69" style="stroke:#262626;stroke-width:1.25;"/>
      </defs>
      <g>
       <use style="fill:#262626;stroke:#262626;stroke-width:1.25;" x="119.146444" xlink:href="#mf093c83a69" y="302.1"/>
      </g>
     </g>
     <g id="text_1">
      <!-- 0 -->
      <g style="fill:#262626;" transform="translate(114.697694 323.0525)scale(0.16 -0.16)">
       <defs>
        <path d="M 4.15625 35.296875 
Q 4.15625 48 6.765625 55.734375 
Q 9.375 63.484375 14.515625 67.671875 
Q 19.671875 71.875 27.484375 71.875 
Q 33.25 71.875 37.59375 69.546875 
Q 41.9375 67.234375 44.765625 62.859375 
Q 47.609375 58.5 49.21875 52.21875 
Q 50.828125 45.953125 50.828125 35.296875 
Q 50.828125 22.703125 48.234375 14.96875 
Q 45.65625 7.234375 40.5 3 
Q 35.359375 -1.21875 27.484375 -1.21875 
Q 17.140625 -1.21875 11.234375 6.203125 
Q 4.15625 15.140625 4.15625 35.296875 
z
M 13.1875 35.296875 
Q 13.1875 17.671875 17.3125 11.828125 
Q 21.4375 6 27.484375 6 
Q 33.546875 6 37.671875 11.859375 
Q 41.796875 17.71875 41.796875 35.296875 
Q 41.796875 52.984375 37.671875 58.78125 
Q 33.546875 64.59375 27.390625 64.59375 
Q 21.34375 64.59375 17.71875 59.46875 
Q 13.1875 52.9375 13.1875 35.296875 
z
" id="ArialMT-48"/>
       </defs>
       <use xlink:href="#ArialMT-48"/>
      </g>
     </g>
    </g>
    <g id="xtick_2">
     <g id="line2d_3">
      <path clip-path="url(#p22ef82a7e6)" d="M 196.111961 302.1 
L 196.111961 24.9 
" style="fill:none;stroke:#cccccc;stroke-linecap:round;"/>
     </g>
     <g id="line2d_4">
      <g>
       <use style="fill:#262626;stroke:#262626;stroke-width:1.25;" x="196.111961" xlink:href="#mf093c83a69" y="302.1"/>
      </g>
     </g>
     <g id="text_2">
      <!-- 200 -->
      <g style="fill:#262626;" transform="translate(182.765711 323.0525)scale(0.16 -0.16)">
       <defs>
        <path d="M 50.34375 8.453125 
L 50.34375 0 
L 3.03125 0 
Q 2.9375 3.171875 4.046875 6.109375 
Q 5.859375 10.9375 9.828125 15.625 
Q 13.8125 20.3125 21.34375 26.46875 
Q 33.015625 36.03125 37.109375 41.625 
Q 41.21875 47.21875 41.21875 52.203125 
Q 41.21875 57.421875 37.46875 61 
Q 33.734375 64.59375 27.734375 64.59375 
Q 21.390625 64.59375 17.578125 60.78125 
Q 13.765625 56.984375 13.71875 50.25 
L 4.6875 51.171875 
Q 5.609375 61.28125 11.65625 66.578125 
Q 17.71875 71.875 27.9375 71.875 
Q 38.234375 71.875 44.234375 66.15625 
Q 50.25 60.453125 50.25 52 
Q 50.25 47.703125 48.484375 43.546875 
Q 46.734375 39.40625 42.65625 34.8125 
Q 38.578125 30.21875 29.109375 22.21875 
Q 21.1875 15.578125 18.9375 13.203125 
Q 16.703125 10.84375 15.234375 8.453125 
z
" id="ArialMT-50"/>
       </defs>
       <use xlink:href="#ArialMT-50"/>
       <use x="55.615234" xlink:href="#ArialMT-48"/>
       <use x="111.230469" xlink:href="#ArialMT-48"/>
      </g>
     </g>
    </g>
    <g id="xtick_3">
     <g id="line2d_5">
      <path clip-path="url(#p22ef82a7e6)" d="M 273.077478 302.1 
L 273.077478 24.9 
" style="fill:none;stroke:#cccccc;stroke-linecap:round;"/>
     </g>
     <g id="line2d_6">
      <g>
       <use style="fill:#262626;stroke:#262626;stroke-width:1.25;" x="273.077478" xlink:href="#mf093c83a69" y="302.1"/>
      </g>
     </g>
     <g id="text_3">
      <!-- 400 -->
      <g style="fill:#262626;" transform="translate(259.731228 323.0525)scale(0.16 -0.16)">
       <defs>
        <path d="M 32.328125 0 
L 32.328125 17.140625 
L 1.265625 17.140625 
L 1.265625 25.203125 
L 33.9375 71.578125 
L 41.109375 71.578125 
L 41.109375 25.203125 
L 50.78125 25.203125 
L 50.78125 17.140625 
L 41.109375 17.140625 
L 41.109375 0 
z
M 32.328125 25.203125 
L 32.328125 57.46875 
L 9.90625 25.203125 
z
" id="ArialMT-52"/>
       </defs>
       <use xlink:href="#ArialMT-52"/>
       <use x="55.615234" xlink:href="#ArialMT-48"/>
       <use x="111.230469" xlink:href="#ArialMT-48"/>
      </g>
     </g>
    </g>
    <g id="xtick_4">
     <g id="line2d_7">
      <path clip-path="url(#p22ef82a7e6)" d="M 350.042996 302.1 
L 350.042996 24.9 
" style="fill:none;stroke:#cccccc;stroke-linecap:round;"/>
     </g>
     <g id="line2d_8">
      <g>
       <use style="fill:#262626;stroke:#262626;stroke-width:1.25;" x="350.042996" xlink:href="#mf093c83a69" y="302.1"/>
      </g>
     </g>
     <g id="text_4">
      <!-- 600 -->
      <g style="fill:#262626;" transform="translate(336.696746 323.0525)scale(0.16 -0.16)">
       <defs>
        <path d="M 49.75 54.046875 
L 41.015625 53.375 
Q 39.84375 58.546875 37.703125 60.890625 
Q 34.125 64.65625 28.90625 64.65625 
Q 24.703125 64.65625 21.53125 62.3125 
Q 17.390625 59.28125 14.984375 53.46875 
Q 12.59375 47.65625 12.5 36.921875 
Q 15.671875 41.75 20.265625 44.09375 
Q 24.859375 46.4375 29.890625 46.4375 
Q 38.671875 46.4375 44.84375 39.96875 
Q 51.03125 33.5 51.03125 23.25 
Q 51.03125 16.5 48.125 10.71875 
Q 45.21875 4.9375 40.140625 1.859375 
Q 35.0625 -1.21875 28.609375 -1.21875 
Q 17.625 -1.21875 10.6875 6.859375 
Q 3.765625 14.9375 3.765625 33.5 
Q 3.765625 54.25 11.421875 63.671875 
Q 18.109375 71.875 29.4375 71.875 
Q 37.890625 71.875 43.28125 67.140625 
Q 48.6875 62.40625 49.75 54.046875 
z
M 13.875 23.1875 
Q 13.875 18.65625 15.796875 14.5 
Q 17.71875 10.359375 21.1875 8.171875 
Q 24.65625 6 28.46875 6 
Q 34.03125 6 38.03125 10.484375 
Q 42.046875 14.984375 42.046875 22.703125 
Q 42.046875 30.125 38.078125 34.390625 
Q 34.125 38.671875 28.125 38.671875 
Q 22.171875 38.671875 18.015625 34.390625 
Q 13.875 30.125 13.875 23.1875 
z
" id="ArialMT-54"/>
       </defs>
       <use xlink:href="#ArialMT-54"/>
       <use x="55.615234" xlink:href="#ArialMT-48"/>
       <use x="111.230469" xlink:href="#ArialMT-48"/>
      </g>
     </g>
    </g>
    <g id="text_5">
     <!-- Z3EV Non-specific signal (RFU) -->
     <g style="fill:#262626;" transform="translate(102.255781 369.335938)scale(0.18 -0.18)">
      <defs>
       <path d="M 2 0 
L 2 8.796875 
L 38.671875 54.640625 
Q 42.578125 59.515625 46.09375 63.140625 
L 6.15625 63.140625 
L 6.15625 71.578125 
L 57.421875 71.578125 
L 57.421875 63.140625 
L 17.234375 13.484375 
L 12.890625 8.453125 
L 58.59375 8.453125 
L 58.59375 0 
z
" id="ArialMT-90"/>
       <path d="M 4.203125 18.890625 
L 12.984375 20.0625 
Q 14.5 12.59375 18.140625 9.296875 
Q 21.78125 6 27 6 
Q 33.203125 6 37.46875 10.296875 
Q 41.75 14.59375 41.75 20.953125 
Q 41.75 27 37.796875 30.921875 
Q 33.84375 34.859375 27.734375 34.859375 
Q 25.25 34.859375 21.53125 33.890625 
L 22.515625 41.609375 
Q 23.390625 41.5 23.921875 41.5 
Q 29.546875 41.5 34.03125 44.421875 
Q 38.53125 47.359375 38.53125 53.46875 
Q 38.53125 58.296875 35.25 61.46875 
Q 31.984375 64.65625 26.8125 64.65625 
Q 21.6875 64.65625 18.265625 61.421875 
Q 14.84375 58.203125 13.875 51.765625 
L 5.078125 53.328125 
Q 6.6875 62.15625 12.390625 67.015625 
Q 18.109375 71.875 26.609375 71.875 
Q 32.46875 71.875 37.390625 69.359375 
Q 42.328125 66.84375 44.9375 62.5 
Q 47.5625 58.15625 47.5625 53.265625 
Q 47.5625 48.640625 45.0625 44.828125 
Q 42.578125 41.015625 37.703125 38.765625 
Q 44.046875 37.3125 47.5625 32.6875 
Q 51.078125 28.078125 51.078125 21.140625 
Q 51.078125 11.765625 44.234375 5.25 
Q 37.40625 -1.265625 26.953125 -1.265625 
Q 17.53125 -1.265625 11.296875 4.34375 
Q 5.078125 9.96875 4.203125 18.890625 
z
" id="ArialMT-51"/>
       <path d="M 7.90625 0 
L 7.90625 71.578125 
L 59.671875 71.578125 
L 59.671875 63.140625 
L 17.390625 63.140625 
L 17.390625 41.21875 
L 56.984375 41.21875 
L 56.984375 32.8125 
L 17.390625 32.8125 
L 17.390625 8.453125 
L 61.328125 8.453125 
L 61.328125 0 
z
" id="ArialMT-69"/>
       <path d="M 28.171875 0 
L 0.4375 71.578125 
L 10.6875 71.578125 
L 29.296875 19.578125 
Q 31.546875 13.328125 33.0625 7.859375 
Q 34.71875 13.71875 36.921875 19.578125 
L 56.25 71.578125 
L 65.921875 71.578125 
L 37.890625 0 
z
" id="ArialMT-86"/>
       <path id="ArialMT-32"/>
       <path d="M 7.625 0 
L 7.625 71.578125 
L 17.328125 71.578125 
L 54.9375 15.375 
L 54.9375 71.578125 
L 64.015625 71.578125 
L 64.015625 0 
L 54.296875 0 
L 16.703125 56.25 
L 16.703125 0 
z
" id="ArialMT-78"/>
       <path d="M 3.328125 25.921875 
Q 3.328125 40.328125 11.328125 47.265625 
Q 18.015625 53.03125 27.640625 53.03125 
Q 38.328125 53.03125 45.109375 46.015625 
Q 51.90625 39.015625 51.90625 26.65625 
Q 51.90625 16.65625 48.90625 10.90625 
Q 45.90625 5.171875 40.15625 2 
Q 34.421875 -1.171875 27.640625 -1.171875 
Q 16.75 -1.171875 10.03125 5.8125 
Q 3.328125 12.796875 3.328125 25.921875 
z
M 12.359375 25.921875 
Q 12.359375 15.96875 16.703125 11.015625 
Q 21.046875 6.0625 27.640625 6.0625 
Q 34.1875 6.0625 38.53125 11.03125 
Q 42.875 16.015625 42.875 26.21875 
Q 42.875 35.84375 38.5 40.796875 
Q 34.125 45.75 27.640625 45.75 
Q 21.046875 45.75 16.703125 40.8125 
Q 12.359375 35.890625 12.359375 25.921875 
z
" id="ArialMT-111"/>
       <path d="M 6.59375 0 
L 6.59375 51.859375 
L 14.5 51.859375 
L 14.5 44.484375 
Q 20.21875 53.03125 31 53.03125 
Q 35.6875 53.03125 39.625 51.34375 
Q 43.5625 49.65625 45.515625 46.921875 
Q 47.46875 44.1875 48.25 40.4375 
Q 48.734375 37.984375 48.734375 31.890625 
L 48.734375 0 
L 39.9375 0 
L 39.9375 31.546875 
Q 39.9375 36.921875 38.90625 39.578125 
Q 37.890625 42.234375 35.28125 43.8125 
Q 32.671875 45.40625 29.15625 45.40625 
Q 23.53125 45.40625 19.453125 41.84375 
Q 15.375 38.28125 15.375 28.328125 
L 15.375 0 
z
" id="ArialMT-110"/>
       <path d="M 3.171875 21.484375 
L 3.171875 30.328125 
L 30.171875 30.328125 
L 30.171875 21.484375 
z
" id="ArialMT-45"/>
       <path d="M 3.078125 15.484375 
L 11.765625 16.84375 
Q 12.5 11.625 15.84375 8.84375 
Q 19.1875 6.0625 25.203125 6.0625 
Q 31.25 6.0625 34.171875 8.515625 
Q 37.109375 10.984375 37.109375 14.3125 
Q 37.109375 17.28125 34.515625 19 
Q 32.71875 20.171875 25.53125 21.96875 
Q 15.875 24.421875 12.140625 26.203125 
Q 8.40625 27.984375 6.46875 31.125 
Q 4.546875 34.28125 4.546875 38.09375 
Q 4.546875 41.546875 6.125 44.5 
Q 7.71875 47.46875 10.453125 49.421875 
Q 12.5 50.921875 16.03125 51.96875 
Q 19.578125 53.03125 23.640625 53.03125 
Q 29.734375 53.03125 34.34375 51.265625 
Q 38.96875 49.515625 41.15625 46.5 
Q 43.359375 43.5 44.1875 38.484375 
L 35.59375 37.3125 
Q 35.015625 41.3125 32.203125 43.546875 
Q 29.390625 45.796875 24.265625 45.796875 
Q 18.21875 45.796875 15.625 43.796875 
Q 13.03125 41.796875 13.03125 39.109375 
Q 13.03125 37.40625 14.109375 36.03125 
Q 15.1875 34.625 17.484375 33.6875 
Q 18.796875 33.203125 25.25 31.453125 
Q 34.578125 28.953125 38.25 27.359375 
Q 41.9375 25.78125 44.03125 22.75 
Q 46.140625 19.734375 46.140625 15.234375 
Q 46.140625 10.84375 43.578125 6.953125 
Q 41.015625 3.078125 36.171875 0.953125 
Q 31.34375 -1.171875 25.25 -1.171875 
Q 15.140625 -1.171875 9.84375 3.03125 
Q 4.546875 7.234375 3.078125 15.484375 
z
" id="ArialMT-115"/>
       <path d="M 6.59375 -19.875 
L 6.59375 51.859375 
L 14.59375 51.859375 
L 14.59375 45.125 
Q 17.4375 49.078125 21 51.046875 
Q 24.5625 53.03125 29.640625 53.03125 
Q 36.28125 53.03125 41.359375 49.609375 
Q 46.4375 46.1875 49.015625 39.953125 
Q 51.609375 33.734375 51.609375 26.3125 
Q 51.609375 18.359375 48.75 11.984375 
Q 45.90625 5.609375 40.453125 2.21875 
Q 35.015625 -1.171875 29 -1.171875 
Q 24.609375 -1.171875 21.109375 0.6875 
Q 17.625 2.546875 15.375 5.375 
L 15.375 -19.875 
z
M 14.546875 25.640625 
Q 14.546875 15.625 18.59375 10.84375 
Q 22.65625 6.0625 28.421875 6.0625 
Q 34.28125 6.0625 38.453125 11.015625 
Q 42.625 15.96875 42.625 26.375 
Q 42.625 36.28125 38.546875 41.203125 
Q 34.46875 46.140625 28.8125 46.140625 
Q 23.1875 46.140625 18.859375 40.890625 
Q 14.546875 35.640625 14.546875 25.640625 
z
" id="ArialMT-112"/>
       <path d="M 42.09375 16.703125 
L 51.171875 15.578125 
Q 49.03125 7.625 43.21875 3.21875 
Q 37.40625 -1.171875 28.375 -1.171875 
Q 17 -1.171875 10.328125 5.828125 
Q 3.65625 12.84375 3.65625 25.484375 
Q 3.65625 38.578125 10.390625 45.796875 
Q 17.140625 53.03125 27.875 53.03125 
Q 38.28125 53.03125 44.875 45.953125 
Q 51.46875 38.875 51.46875 26.03125 
Q 51.46875 25.25 51.421875 23.6875 
L 12.75 23.6875 
Q 13.234375 15.140625 17.578125 10.59375 
Q 21.921875 6.0625 28.421875 6.0625 
Q 33.25 6.0625 36.671875 8.59375 
Q 40.09375 11.140625 42.09375 16.703125 
z
M 13.234375 30.90625 
L 42.1875 30.90625 
Q 41.609375 37.453125 38.875 40.71875 
Q 34.671875 45.796875 27.984375 45.796875 
Q 21.921875 45.796875 17.796875 41.75 
Q 13.671875 37.703125 13.234375 30.90625 
z
" id="ArialMT-101"/>
       <path d="M 40.4375 19 
L 49.078125 17.875 
Q 47.65625 8.9375 41.8125 3.875 
Q 35.984375 -1.171875 27.484375 -1.171875 
Q 16.84375 -1.171875 10.375 5.78125 
Q 3.90625 12.75 3.90625 25.734375 
Q 3.90625 34.125 6.6875 40.421875 
Q 9.46875 46.734375 15.15625 49.875 
Q 20.84375 53.03125 27.546875 53.03125 
Q 35.984375 53.03125 41.359375 48.75 
Q 46.734375 44.484375 48.25 36.625 
L 39.703125 35.296875 
Q 38.484375 40.53125 35.375 43.15625 
Q 32.28125 45.796875 27.875 45.796875 
Q 21.234375 45.796875 17.078125 41.03125 
Q 12.9375 36.28125 12.9375 25.984375 
Q 12.9375 15.53125 16.9375 10.796875 
Q 20.953125 6.0625 27.390625 6.0625 
Q 32.5625 6.0625 36.03125 9.234375 
Q 39.5 12.40625 40.4375 19 
z
" id="ArialMT-99"/>
       <path d="M 6.640625 61.46875 
L 6.640625 71.578125 
L 15.4375 71.578125 
L 15.4375 61.46875 
z
M 6.640625 0 
L 6.640625 51.859375 
L 15.4375 51.859375 
L 15.4375 0 
z
" id="ArialMT-105"/>
       <path d="M 8.6875 0 
L 8.6875 45.015625 
L 0.921875 45.015625 
L 0.921875 51.859375 
L 8.6875 51.859375 
L 8.6875 57.375 
Q 8.6875 62.59375 9.625 65.140625 
Q 10.890625 68.5625 14.078125 70.671875 
Q 17.28125 72.796875 23.046875 72.796875 
Q 26.765625 72.796875 31.25 71.921875 
L 29.9375 64.265625 
Q 27.203125 64.75 24.75 64.75 
Q 20.75 64.75 19.09375 63.03125 
Q 17.4375 61.328125 17.4375 56.640625 
L 17.4375 51.859375 
L 27.546875 51.859375 
L 27.546875 45.015625 
L 17.4375 45.015625 
L 17.4375 0 
z
" id="ArialMT-102"/>
       <path d="M 4.984375 -4.296875 
L 13.53125 -5.5625 
Q 14.0625 -9.515625 16.5 -11.328125 
Q 19.78125 -13.765625 25.4375 -13.765625 
Q 31.546875 -13.765625 34.859375 -11.328125 
Q 38.1875 -8.890625 39.359375 -4.5 
Q 40.046875 -1.8125 39.984375 6.78125 
Q 34.234375 0 25.640625 0 
Q 14.9375 0 9.078125 7.71875 
Q 3.21875 15.4375 3.21875 26.21875 
Q 3.21875 33.640625 5.90625 39.90625 
Q 8.59375 46.1875 13.6875 49.609375 
Q 18.796875 53.03125 25.6875 53.03125 
Q 34.859375 53.03125 40.828125 45.609375 
L 40.828125 51.859375 
L 48.921875 51.859375 
L 48.921875 7.03125 
Q 48.921875 -5.078125 46.453125 -10.125 
Q 44 -15.1875 38.640625 -18.109375 
Q 33.296875 -21.046875 25.484375 -21.046875 
Q 16.21875 -21.046875 10.5 -16.875 
Q 4.78125 -12.703125 4.984375 -4.296875 
z
M 12.25 26.859375 
Q 12.25 16.65625 16.296875 11.96875 
Q 20.359375 7.28125 26.46875 7.28125 
Q 32.515625 7.28125 36.609375 11.9375 
Q 40.71875 16.609375 40.71875 26.5625 
Q 40.71875 36.078125 36.5 40.90625 
Q 32.28125 45.75 26.3125 45.75 
Q 20.453125 45.75 16.34375 40.984375 
Q 12.25 36.234375 12.25 26.859375 
z
" id="ArialMT-103"/>
       <path d="M 40.4375 6.390625 
Q 35.546875 2.25 31.03125 0.53125 
Q 26.515625 -1.171875 21.34375 -1.171875 
Q 12.796875 -1.171875 8.203125 3 
Q 3.609375 7.171875 3.609375 13.671875 
Q 3.609375 17.484375 5.34375 20.625 
Q 7.078125 23.78125 9.890625 25.6875 
Q 12.703125 27.59375 16.21875 28.5625 
Q 18.796875 29.25 24.03125 29.890625 
Q 34.671875 31.15625 39.703125 32.90625 
Q 39.75 34.71875 39.75 35.203125 
Q 39.75 40.578125 37.25 42.78125 
Q 33.890625 45.75 27.25 45.75 
Q 21.046875 45.75 18.09375 43.578125 
Q 15.140625 41.40625 13.71875 35.890625 
L 5.125 37.0625 
Q 6.296875 42.578125 8.984375 45.96875 
Q 11.671875 49.359375 16.75 51.1875 
Q 21.828125 53.03125 28.515625 53.03125 
Q 35.15625 53.03125 39.296875 51.46875 
Q 43.453125 49.90625 45.40625 47.53125 
Q 47.359375 45.171875 48.140625 41.546875 
Q 48.578125 39.3125 48.578125 33.453125 
L 48.578125 21.734375 
Q 48.578125 9.46875 49.140625 6.21875 
Q 49.703125 2.984375 51.375 0 
L 42.1875 0 
Q 40.828125 2.734375 40.4375 6.390625 
z
M 39.703125 26.03125 
Q 34.90625 24.078125 25.34375 22.703125 
Q 19.921875 21.921875 17.671875 20.9375 
Q 15.4375 19.96875 14.203125 18.09375 
Q 12.984375 16.21875 12.984375 13.921875 
Q 12.984375 10.40625 15.640625 8.0625 
Q 18.3125 5.71875 23.4375 5.71875 
Q 28.515625 5.71875 32.46875 7.9375 
Q 36.421875 10.15625 38.28125 14.015625 
Q 39.703125 17 39.703125 22.796875 
z
" id="ArialMT-97"/>
       <path d="M 6.390625 0 
L 6.390625 71.578125 
L 15.1875 71.578125 
L 15.1875 0 
z
" id="ArialMT-108"/>
       <path d="M 23.390625 -21.046875 
Q 16.109375 -11.859375 11.078125 0.4375 
Q 6.0625 12.75 6.0625 25.921875 
Q 6.0625 37.546875 9.8125 48.1875 
Q 14.203125 60.546875 23.390625 72.796875 
L 29.6875 72.796875 
Q 23.78125 62.640625 21.875 58.296875 
Q 18.890625 51.5625 17.1875 44.234375 
Q 15.09375 35.109375 15.09375 25.875 
Q 15.09375 2.390625 29.6875 -21.046875 
z
" id="ArialMT-40"/>
       <path d="M 7.859375 0 
L 7.859375 71.578125 
L 39.59375 71.578125 
Q 49.171875 71.578125 54.140625 69.640625 
Q 59.125 67.71875 62.109375 62.828125 
Q 65.09375 57.953125 65.09375 52.046875 
Q 65.09375 44.4375 60.15625 39.203125 
Q 55.21875 33.984375 44.921875 32.5625 
Q 48.6875 30.765625 50.640625 29 
Q 54.78125 25.203125 58.5 19.484375 
L 70.953125 0 
L 59.03125 0 
L 49.5625 14.890625 
Q 45.40625 21.34375 42.71875 24.75 
Q 40.046875 28.171875 37.921875 29.53125 
Q 35.796875 30.90625 33.59375 31.453125 
Q 31.984375 31.78125 28.328125 31.78125 
L 17.328125 31.78125 
L 17.328125 0 
z
M 17.328125 39.984375 
L 37.703125 39.984375 
Q 44.1875 39.984375 47.84375 41.328125 
Q 51.515625 42.671875 53.421875 45.625 
Q 55.328125 48.578125 55.328125 52.046875 
Q 55.328125 57.125 51.640625 60.390625 
Q 47.953125 63.671875 39.984375 63.671875 
L 17.328125 63.671875 
z
" id="ArialMT-82"/>
       <path d="M 8.203125 0 
L 8.203125 71.578125 
L 56.5 71.578125 
L 56.5 63.140625 
L 17.671875 63.140625 
L 17.671875 40.96875 
L 51.265625 40.96875 
L 51.265625 32.515625 
L 17.671875 32.515625 
L 17.671875 0 
z
" id="ArialMT-70"/>
       <path d="M 54.6875 71.578125 
L 64.15625 71.578125 
L 64.15625 30.21875 
Q 64.15625 19.4375 61.71875 13.078125 
Q 59.28125 6.734375 52.90625 2.75 
Q 46.53125 -1.21875 36.1875 -1.21875 
Q 26.125 -1.21875 19.71875 2.25 
Q 13.328125 5.71875 10.59375 12.28125 
Q 7.859375 18.84375 7.859375 30.21875 
L 7.859375 71.578125 
L 17.328125 71.578125 
L 17.328125 30.28125 
Q 17.328125 20.953125 19.0625 16.53125 
Q 20.796875 12.109375 25.015625 9.71875 
Q 29.25 7.328125 35.359375 7.328125 
Q 45.796875 7.328125 50.234375 12.0625 
Q 54.6875 16.796875 54.6875 30.28125 
z
" id="ArialMT-85"/>
       <path d="M 12.359375 -21.046875 
L 6.0625 -21.046875 
Q 20.65625 2.390625 20.65625 25.875 
Q 20.65625 35.0625 18.5625 44.09375 
Q 16.890625 51.421875 13.921875 58.15625 
Q 12.015625 62.546875 6.0625 72.796875 
L 12.359375 72.796875 
Q 21.53125 60.546875 25.921875 48.1875 
Q 29.6875 37.546875 29.6875 25.921875 
Q 29.6875 12.75 24.625 0.4375 
Q 19.578125 -11.859375 12.359375 -21.046875 
z
" id="ArialMT-41"/>
      </defs>
      <use xlink:href="#ArialMT-90"/>
      <use x="61.083984" xlink:href="#ArialMT-51"/>
      <use x="116.699219" xlink:href="#ArialMT-69"/>
      <use x="183.398438" xlink:href="#ArialMT-86"/>
      <use x="250.097656" xlink:href="#ArialMT-32"/>
      <use x="277.880859" xlink:href="#ArialMT-78"/>
      <use x="350.097656" xlink:href="#ArialMT-111"/>
      <use x="405.712891" xlink:href="#ArialMT-110"/>
      <use x="461.328125" xlink:href="#ArialMT-45"/>
      <use x="494.628906" xlink:href="#ArialMT-115"/>
      <use x="544.628906" xlink:href="#ArialMT-112"/>
      <use x="600.244141" xlink:href="#ArialMT-101"/>
      <use x="655.859375" xlink:href="#ArialMT-99"/>
      <use x="705.859375" xlink:href="#ArialMT-105"/>
      <use x="728.076172" xlink:href="#ArialMT-102"/>
      <use x="755.859375" xlink:href="#ArialMT-105"/>
      <use x="778.076172" xlink:href="#ArialMT-99"/>
      <use x="828.076172" xlink:href="#ArialMT-32"/>
      <use x="855.859375" xlink:href="#ArialMT-115"/>
      <use x="905.859375" xlink:href="#ArialMT-105"/>
      <use x="928.076172" xlink:href="#ArialMT-103"/>
      <use x="983.691406" xlink:href="#ArialMT-110"/>
      <use x="1039.306641" xlink:href="#ArialMT-97"/>
      <use x="1094.921875" xlink:href="#ArialMT-108"/>
      <use x="1117.138672" xlink:href="#ArialMT-32"/>
      <use x="1144.921875" xlink:href="#ArialMT-40"/>
      <use x="1178.222656" xlink:href="#ArialMT-82"/>
      <use x="1250.439453" xlink:href="#ArialMT-70"/>
      <use x="1311.523438" xlink:href="#ArialMT-85"/>
      <use x="1383.740234" xlink:href="#ArialMT-41"/>
     </g>
    </g>
   </g>
   <g id="matplotlib.axis_2">
    <g id="ytick_1">
     <g id="line2d_9">
      <path clip-path="url(#p22ef82a7e6)" d="M 90.284375 273.424138 
L 369.284375 273.424138 
" style="fill:none;stroke:#cccccc;stroke-linecap:round;"/>
     </g>
     <g id="line2d_10">
      <defs>
       <path d="M 0 0 
L -6 0 
" id="m68b82499eb" style="stroke:#262626;stroke-width:1.25;"/>
      </defs>
      <g>
       <use style="fill:#262626;stroke:#262626;stroke-width:1.25;" x="90.284375" xlink:href="#m68b82499eb" y="273.424138"/>
      </g>
     </g>
     <g id="text_6">
      <!-- 0 -->
      <g style="fill:#262626;" transform="translate(71.886875 279.150388)scale(0.16 -0.16)">
       <use xlink:href="#ArialMT-48"/>
      </g>
     </g>
    </g>
    <g id="ytick_2">
     <g id="line2d_11">
      <path clip-path="url(#p22ef82a7e6)" d="M 90.284375 235.189655 
L 369.284375 235.189655 
" style="fill:none;stroke:#cccccc;stroke-linecap:round;"/>
     </g>
     <g id="line2d_12">
      <g>
       <use style="fill:#262626;stroke:#262626;stroke-width:1.25;" x="90.284375" xlink:href="#m68b82499eb" y="235.189655"/>
      </g>
     </g>
     <g id="text_7">
      <!-- 100 -->
      <g style="fill:#262626;" transform="translate(54.091875 240.915905)scale(0.16 -0.16)">
       <defs>
        <path d="M 37.25 0 
L 28.46875 0 
L 28.46875 56 
Q 25.296875 52.984375 20.140625 49.953125 
Q 14.984375 46.921875 10.890625 45.40625 
L 10.890625 53.90625 
Q 18.265625 57.375 23.78125 62.296875 
Q 29.296875 67.234375 31.59375 71.875 
L 37.25 71.875 
z
" id="ArialMT-49"/>
       </defs>
       <use xlink:href="#ArialMT-49"/>
       <use x="55.615234" xlink:href="#ArialMT-48"/>
       <use x="111.230469" xlink:href="#ArialMT-48"/>
      </g>
     </g>
    </g>
    <g id="ytick_3">
     <g id="line2d_13">
      <path clip-path="url(#p22ef82a7e6)" d="M 90.284375 196.955172 
L 369.284375 196.955172 
" style="fill:none;stroke:#cccccc;stroke-linecap:round;"/>
     </g>
     <g id="line2d_14">
      <g>
       <use style="fill:#262626;stroke:#262626;stroke-width:1.25;" x="90.284375" xlink:href="#m68b82499eb" y="196.955172"/>
      </g>
     </g>
     <g id="text_8">
      <!-- 200 -->
      <g style="fill:#262626;" transform="translate(54.091875 202.681422)scale(0.16 -0.16)">
       <use xlink:href="#ArialMT-50"/>
       <use x="55.615234" xlink:href="#ArialMT-48"/>
       <use x="111.230469" xlink:href="#ArialMT-48"/>
      </g>
     </g>
    </g>
    <g id="ytick_4">
     <g id="line2d_15">
      <path clip-path="url(#p22ef82a7e6)" d="M 90.284375 158.72069 
L 369.284375 158.72069 
" style="fill:none;stroke:#cccccc;stroke-linecap:round;"/>
     </g>
     <g id="line2d_16">
      <g>
       <use style="fill:#262626;stroke:#262626;stroke-width:1.25;" x="90.284375" xlink:href="#m68b82499eb" y="158.72069"/>
      </g>
     </g>
     <g id="text_9">
      <!-- 300 -->
      <g style="fill:#262626;" transform="translate(54.091875 164.44694)scale(0.16 -0.16)">
       <use xlink:href="#ArialMT-51"/>
       <use x="55.615234" xlink:href="#ArialMT-48"/>
       <use x="111.230469" xlink:href="#ArialMT-48"/>
      </g>
     </g>
    </g>
    <g id="ytick_5">
     <g id="line2d_17">
      <path clip-path="url(#p22ef82a7e6)" d="M 90.284375 120.486207 
L 369.284375 120.486207 
" style="fill:none;stroke:#cccccc;stroke-linecap:round;"/>
     </g>
     <g id="line2d_18">
      <g>
       <use style="fill:#262626;stroke:#262626;stroke-width:1.25;" x="90.284375" xlink:href="#m68b82499eb" y="120.486207"/>
      </g>
     </g>
     <g id="text_10">
      <!-- 400 -->
      <g style="fill:#262626;" transform="translate(54.091875 126.212457)scale(0.16 -0.16)">
       <use xlink:href="#ArialMT-52"/>
       <use x="55.615234" xlink:href="#ArialMT-48"/>
       <use x="111.230469" xlink:href="#ArialMT-48"/>
      </g>
     </g>
    </g>
    <g id="ytick_6">
     <g id="line2d_19">
      <path clip-path="url(#p22ef82a7e6)" d="M 90.284375 82.251724 
L 369.284375 82.251724 
" style="fill:none;stroke:#cccccc;stroke-linecap:round;"/>
     </g>
     <g id="line2d_20">
      <g>
       <use style="fill:#262626;stroke:#262626;stroke-width:1.25;" x="90.284375" xlink:href="#m68b82499eb" y="82.251724"/>
      </g>
     </g>
     <g id="text_11">
      <!-- 500 -->
      <g style="fill:#262626;" transform="translate(54.091875 87.977974)scale(0.16 -0.16)">
       <defs>
        <path d="M 4.15625 18.75 
L 13.375 19.53125 
Q 14.40625 12.796875 18.140625 9.390625 
Q 21.875 6 27.15625 6 
Q 33.5 6 37.890625 10.78125 
Q 42.28125 15.578125 42.28125 23.484375 
Q 42.28125 31 38.0625 35.34375 
Q 33.84375 39.703125 27 39.703125 
Q 22.75 39.703125 19.328125 37.765625 
Q 15.921875 35.84375 13.96875 32.765625 
L 5.71875 33.84375 
L 12.640625 70.609375 
L 48.25 70.609375 
L 48.25 62.203125 
L 19.671875 62.203125 
L 15.828125 42.96875 
Q 22.265625 47.46875 29.34375 47.46875 
Q 38.71875 47.46875 45.15625 40.96875 
Q 51.609375 34.46875 51.609375 24.265625 
Q 51.609375 14.546875 45.953125 7.46875 
Q 39.0625 -1.21875 27.15625 -1.21875 
Q 17.390625 -1.21875 11.203125 4.25 
Q 5.03125 9.71875 4.15625 18.75 
z
" id="ArialMT-53"/>
       </defs>
       <use xlink:href="#ArialMT-53"/>
       <use x="55.615234" xlink:href="#ArialMT-48"/>
       <use x="111.230469" xlink:href="#ArialMT-48"/>
      </g>
     </g>
    </g>
    <g id="ytick_7">
     <g id="line2d_21">
      <path clip-path="url(#p22ef82a7e6)" d="M 90.284375 44.017241 
L 369.284375 44.017241 
" style="fill:none;stroke:#cccccc;stroke-linecap:round;"/>
     </g>
     <g id="line2d_22">
      <g>
       <use style="fill:#262626;stroke:#262626;stroke-width:1.25;" x="90.284375" xlink:href="#m68b82499eb" y="44.017241"/>
      </g>
     </g>
     <g id="text_12">
      <!-- 600 -->
      <g style="fill:#262626;" transform="translate(54.091875 49.743491)scale(0.16 -0.16)">
       <use xlink:href="#ArialMT-54"/>
       <use x="55.615234" xlink:href="#ArialMT-48"/>
       <use x="111.230469" xlink:href="#ArialMT-48"/>
      </g>
     </g>
    </g>
    <g id="text_13">
     <!-- WT Non-specific signal (RFU) -->
     <g style="fill:#262626;" transform="translate(20.303438 282.354844)rotate(-90)scale(0.18 -0.18)">
      <defs>
       <path d="M 20.21875 0 
L 1.21875 71.578125 
L 10.9375 71.578125 
L 21.828125 24.65625 
Q 23.578125 17.28125 24.859375 10.015625 
Q 27.59375 21.484375 28.078125 23.25 
L 41.703125 71.578125 
L 53.125 71.578125 
L 63.375 35.359375 
Q 67.234375 21.875 68.953125 10.015625 
Q 70.3125 16.796875 72.515625 25.59375 
L 83.734375 71.578125 
L 93.265625 71.578125 
L 73.640625 0 
L 64.5 0 
L 49.421875 54.546875 
Q 47.515625 61.375 47.171875 62.9375 
Q 46.046875 58.015625 45.0625 54.546875 
L 29.890625 0 
z
" id="ArialMT-87"/>
       <path d="M 25.921875 0 
L 25.921875 63.140625 
L 2.34375 63.140625 
L 2.34375 71.578125 
L 59.078125 71.578125 
L 59.078125 63.140625 
L 35.40625 63.140625 
L 35.40625 0 
z
" id="ArialMT-84"/>
      </defs>
      <use xlink:href="#ArialMT-87"/>
      <use x="94.384766" xlink:href="#ArialMT-84"/>
      <use x="153.71875" xlink:href="#ArialMT-32"/>
      <use x="181.501953" xlink:href="#ArialMT-78"/>
      <use x="253.71875" xlink:href="#ArialMT-111"/>
      <use x="309.333984" xlink:href="#ArialMT-110"/>
      <use x="364.949219" xlink:href="#ArialMT-45"/>
      <use x="398.25" xlink:href="#ArialMT-115"/>
      <use x="448.25" xlink:href="#ArialMT-112"/>
      <use x="503.865234" xlink:href="#ArialMT-101"/>
      <use x="559.480469" xlink:href="#ArialMT-99"/>
      <use x="609.480469" xlink:href="#ArialMT-105"/>
      <use x="631.697266" xlink:href="#ArialMT-102"/>
      <use x="659.480469" xlink:href="#ArialMT-105"/>
      <use x="681.697266" xlink:href="#ArialMT-99"/>
      <use x="731.697266" xlink:href="#ArialMT-32"/>
      <use x="759.480469" xlink:href="#ArialMT-115"/>
      <use x="809.480469" xlink:href="#ArialMT-105"/>
      <use x="831.697266" xlink:href="#ArialMT-103"/>
      <use x="887.3125" xlink:href="#ArialMT-110"/>
      <use x="942.927734" xlink:href="#ArialMT-97"/>
      <use x="998.542969" xlink:href="#ArialMT-108"/>
      <use x="1020.759766" xlink:href="#ArialMT-32"/>
      <use x="1048.542969" xlink:href="#ArialMT-40"/>
      <use x="1081.84375" xlink:href="#ArialMT-82"/>
      <use x="1154.060547" xlink:href="#ArialMT-70"/>
      <use x="1215.144531" xlink:href="#ArialMT-85"/>
      <use x="1287.361328" xlink:href="#ArialMT-41"/>
     </g>
    </g>
   </g>
   <g id="PathCollection_1">
    <defs>
     <path d="M 0 5 
C 1.326016 5 2.597899 4.473168 3.535534 3.535534 
C 4.473168 2.597899 5 1.326016 5 0 
C 5 -1.326016 4.473168 -2.597899 3.535534 -3.535534 
C 2.597899 -4.473168 1.326016 -5 0 -5 
C -1.326016 -5 -2.597899 -4.473168 -3.535534 -3.535534 
C -4.473168 -2.597899 -5 -1.326016 -5 0 
C -5 1.326016 -4.473168 2.597899 -3.535534 3.535534 
C -2.597899 4.473168 -1.326016 5 0 5 
z
" id="m9e4a152a58" style="stroke:#000000;"/>
    </defs>
    <g clip-path="url(#p22ef82a7e6)">
     <use style="fill:#1a1a1a;stroke:#000000;" x="119.146444" xlink:href="#m9e4a152a58" y="273.424138"/>
    </g>
   </g>
   <g id="PathCollection_2">
    <defs>
     <path d="M 0 5 
C 1.326016 5 2.597899 4.473168 3.535534 3.535534 
C 4.473168 2.597899 5 1.326016 5 0 
C 5 -1.326016 4.473168 -2.597899 3.535534 -3.535534 
C 2.597899 -4.473168 1.326016 -5 0 -5 
C -1.326016 -5 -2.597899 -4.473168 -3.535534 -3.535534 
C -4.473168 -2.597899 -5 -1.326016 -5 0 
C -5 1.326016 -4.473168 2.597899 -3.535534 3.535534 
C -2.597899 4.473168 -1.326016 5 0 5 
z
" id="md16e155486" style="stroke:#000000;"/>
    </defs>
    <g clip-path="url(#p22ef82a7e6)">
     <use style="fill:#cbb6a2;stroke:#000000;" x="115.427598" xlink:href="#md16e155486" y="272.730022"/>
    </g>
   </g>
   <g id="PathCollection_3">
    <defs>
     <path d="M 0 5 
C 1.326016 5 2.597899 4.473168 3.535534 3.535534 
C 4.473168 2.597899 5 1.326016 5 0 
C 5 -1.326016 4.473168 -2.597899 3.535534 -3.535534 
C 2.597899 -4.473168 1.326016 -5 0 -5 
C -1.326016 -5 -2.597899 -4.473168 -3.535534 -3.535534 
C -4.473168 -2.597899 -5 -1.326016 -5 0 
C -5 1.326016 -4.473168 2.597899 -3.535534 3.535534 
C -2.597899 4.473168 -1.326016 5 0 5 
z
" id="m9b4598f02a" style="stroke:#000000;"/>
    </defs>
    <g clip-path="url(#p22ef82a7e6)">
     <use style="fill:#579e7c;stroke:#000000;" x="118.669058" xlink:href="#m9b4598f02a" y="279.112521"/>
    </g>
   </g>
   <g id="PathCollection_4">
    <defs>
     <path d="M 0 5 
C 1.326016 5 2.597899 4.473168 3.535534 3.535534 
C 4.473168 2.597899 5 1.326016 5 0 
C 5 -1.326016 4.473168 -2.597899 3.535534 -3.535534 
C 2.597899 -4.473168 1.326016 -5 0 -5 
C -1.326016 -5 -2.597899 -4.473168 -3.535534 -3.535534 
C -4.473168 -2.597899 -5 -1.326016 -5 0 
C -5 1.326016 -4.473168 2.597899 -3.535534 3.535534 
C -2.597899 4.473168 -1.326016 5 0 5 
z
" id="m3781ba5f2a" style="stroke:#000000;"/>
    </defs>
    <g clip-path="url(#p22ef82a7e6)">
     <use style="fill:#af7cb5;stroke:#000000;" x="113.897183" xlink:href="#m3781ba5f2a" y="275.89581"/>
    </g>
   </g>
   <g id="PathCollection_5">
    <g clip-path="url(#p22ef82a7e6)">
     <use style="fill:#cbb6a2;stroke:#000000;" x="111.135973" xlink:href="#md16e155486" y="281.833553"/>
    </g>
   </g>
   <g id="PathCollection_6">
    <g clip-path="url(#p22ef82a7e6)">
     <use style="fill:#af7cb5;stroke:#000000;" x="161.52868" xlink:href="#m3781ba5f2a" y="230.609701"/>
    </g>
   </g>
   <g id="PathCollection_7">
    <g clip-path="url(#p22ef82a7e6)">
     <use style="fill:#cbb6a2;stroke:#000000;" x="132.472553" xlink:href="#md16e155486" y="275.920107"/>
    </g>
   </g>
   <g id="PathCollection_8">
    <g clip-path="url(#p22ef82a7e6)">
     <use style="fill:#af7cb5;stroke:#000000;" x="278.370395" xlink:href="#m3781ba5f2a" y="130.208665"/>
    </g>
   </g>
   <g id="PathCollection_9">
    <g clip-path="url(#p22ef82a7e6)">
     <use style="fill:#af7cb5;stroke:#000000;" x="130.738656" xlink:href="#m3781ba5f2a" y="289.240829"/>
    </g>
   </g>
   <g id="PathCollection_10">
    <g clip-path="url(#p22ef82a7e6)">
     <use style="fill:#af7cb5;stroke:#000000;" x="180.085887" xlink:href="#m3781ba5f2a" y="259.330259"/>
    </g>
   </g>
   <g id="PathCollection_11">
    <g clip-path="url(#p22ef82a7e6)">
     <use style="fill:#af7cb5;stroke:#000000;" x="232.646687" xlink:href="#m3781ba5f2a" y="168.565568"/>
    </g>
   </g>
   <g id="PathCollection_12">
    <defs>
     <path d="M 0 5 
C 1.326016 5 2.597899 4.473168 3.535534 3.535534 
C 4.473168 2.597899 5 1.326016 5 0 
C 5 -1.326016 4.473168 -2.597899 3.535534 -3.535534 
C 2.597899 -4.473168 1.326016 -5 0 -5 
C -1.326016 -5 -2.597899 -4.473168 -3.535534 -3.535534 
C -4.473168 -2.597899 -5 -1.326016 -5 0 
C -5 1.326016 -4.473168 2.597899 -3.535534 3.535534 
C -2.597899 4.473168 -1.326016 5 0 5 
z
" id="m7d22085fb8" style="stroke:#000000;"/>
    </defs>
    <g clip-path="url(#p22ef82a7e6)">
     <use style="fill:#897a77;stroke:#000000;" x="128.481626" xlink:href="#m7d22085fb8" y="299.189369"/>
    </g>
   </g>
   <g id="PathCollection_13">
    <g clip-path="url(#p22ef82a7e6)">
     <use style="fill:#897a77;stroke:#000000;" x="198.490598" xlink:href="#m7d22085fb8" y="240.272248"/>
    </g>
   </g>
   <g id="PathCollection_14">
    <defs>
     <path d="M 0 5 
C 1.326016 5 2.597899 4.473168 3.535534 3.535534 
C 4.473168 2.597899 5 1.326016 5 0 
C 5 -1.326016 4.473168 -2.597899 3.535534 -3.535534 
C 2.597899 -4.473168 1.326016 -5 0 -5 
C -1.326016 -5 -2.597899 -4.473168 -3.535534 -3.535534 
C -4.473168 -2.597899 -5 -1.326016 -5 0 
C -5 1.326016 -4.473168 2.597899 -3.535534 3.535534 
C -2.597899 4.473168 -1.326016 5 0 5 
z
" id="m4a5647554d" style="stroke:#000000;"/>
    </defs>
    <g clip-path="url(#p22ef82a7e6)">
     <use style="fill:#efdae6;stroke:#000000;" x="126.231184" xlink:href="#m4a5647554d" y="295.610028"/>
    </g>
   </g>
   <g id="PathCollection_15">
    <g clip-path="url(#p22ef82a7e6)">
     <use style="fill:#efdae6;stroke:#000000;" x="188.471153" xlink:href="#m4a5647554d" y="245.281941"/>
    </g>
   </g>
   <g id="PathCollection_16">
    <g clip-path="url(#p22ef82a7e6)">
     <use style="fill:#579e7c;stroke:#000000;" x="132.509824" xlink:href="#m9b4598f02a" y="290.77785"/>
    </g>
   </g>
   <g id="PathCollection_17">
    <g clip-path="url(#p22ef82a7e6)">
     <use style="fill:#579e7c;stroke:#000000;" x="365.187876" xlink:href="#m9b4598f02a" y="119.379196"/>
    </g>
   </g>
   <g id="PathCollection_18">
    <defs>
     <path d="M 0 5 
C 1.326016 5 2.597899 4.473168 3.535534 3.535534 
C 4.473168 2.597899 5 1.326016 5 0 
C 5 -1.326016 4.473168 -2.597899 3.535534 -3.535534 
C 2.597899 -4.473168 1.326016 -5 0 -5 
C -1.326016 -5 -2.597899 -4.473168 -3.535534 -3.535534 
C -4.473168 -2.597899 -5 -1.326016 -5 0 
C -5 1.326016 -4.473168 2.597899 -3.535534 3.535534 
C -2.597899 4.473168 -1.326016 5 0 5 
z
" id="ma42d64593b" style="stroke:#000000;"/>
    </defs>
    <g clip-path="url(#p22ef82a7e6)">
     <use style="fill:#b79c97;stroke:#000000;" x="193.74658" xlink:href="#ma42d64593b" y="251.451042"/>
    </g>
   </g>
   <g id="PathCollection_19">
    <g clip-path="url(#p22ef82a7e6)">
     <use style="fill:#af7cb5;stroke:#000000;" x="169.487735" xlink:href="#m3781ba5f2a" y="247.615736"/>
    </g>
   </g>
   <g id="PathCollection_20">
    <g clip-path="url(#p22ef82a7e6)">
     <use style="fill:#b79c97;stroke:#000000;" x="316.321226" xlink:href="#ma42d64593b" y="140.344846"/>
    </g>
   </g>
   <g id="PolyCollection_1">
    <defs>
     <path d="M 111.135973 -96.502217 
L 111.135973 -78.564102 
L 113.702154 -80.85181 
L 116.268335 -82.79072 
L 118.834516 -84.931306 
L 121.400697 -87.099672 
L 123.966878 -89.301556 
L 126.533058 -91.561898 
L 129.099239 -93.630189 
L 131.66542 -95.866058 
L 134.231601 -98.095799 
L 136.797782 -100.355127 
L 139.363963 -102.304576 
L 141.930143 -104.24555 
L 144.496324 -106.325294 
L 147.062505 -108.32058 
L 149.628686 -110.309108 
L 152.194867 -112.202912 
L 154.761048 -114.194138 
L 157.327228 -116.10436 
L 159.893409 -117.852842 
L 162.45959 -119.742345 
L 165.025771 -121.523036 
L 167.591952 -123.4704 
L 170.158133 -125.157154 
L 172.724313 -126.861376 
L 175.290494 -128.529563 
L 177.856675 -130.218182 
L 180.422856 -132.044487 
L 182.989037 -133.898036 
L 185.555218 -135.755939 
L 188.121398 -137.557045 
L 190.687579 -139.314719 
L 193.25376 -141.026923 
L 195.819941 -142.727116 
L 198.386122 -144.584395 
L 200.952303 -146.423912 
L 203.518483 -148.208688 
L 206.084664 -149.894782 
L 208.650845 -151.632532 
L 211.217026 -153.368295 
L 213.783207 -155.104233 
L 216.349388 -156.839016 
L 218.915568 -158.5738 
L 221.481749 -160.314872 
L 224.04793 -162.049096 
L 226.614111 -163.784172 
L 229.180292 -165.438968 
L 231.746473 -167.135199 
L 234.312653 -168.834489 
L 236.878834 -170.600112 
L 239.445015 -172.371396 
L 242.011196 -174.145952 
L 244.577377 -175.920852 
L 247.143558 -177.577724 
L 249.709738 -179.225505 
L 252.275919 -180.876328 
L 254.8421 -182.528262 
L 257.408281 -184.180197 
L 259.974462 -185.824038 
L 262.540643 -187.481349 
L 265.106823 -189.135213 
L 267.673004 -190.896601 
L 270.239185 -192.598066 
L 272.805366 -194.293697 
L 275.371547 -195.989328 
L 277.937728 -197.658656 
L 280.503908 -199.288521 
L 283.070089 -200.918385 
L 285.63627 -202.54825 
L 288.202451 -204.178344 
L 290.768632 -205.809116 
L 293.334813 -207.442238 
L 295.900993 -209.166257 
L 298.467174 -210.84546 
L 301.033355 -212.471353 
L 303.599536 -214.097295 
L 306.165717 -215.757175 
L 308.731898 -217.441335 
L 311.298078 -219.127217 
L 313.864259 -220.813162 
L 316.43044 -222.499107 
L 318.996621 -224.185052 
L 321.562802 -225.870997 
L 324.128983 -227.519003 
L 326.695163 -229.213477 
L 329.261344 -230.907951 
L 331.827525 -232.602425 
L 334.393706 -234.295396 
L 336.959887 -235.980014 
L 339.526068 -237.60025 
L 342.092248 -239.191032 
L 344.658429 -240.781814 
L 347.22461 -242.372596 
L 349.790791 -243.963378 
L 352.356972 -245.588005 
L 354.923153 -247.259481 
L 357.489333 -248.936561 
L 360.055514 -250.61364 
L 362.621695 -252.29072 
L 365.187876 -253.9678 
L 365.187876 -320.159862 
L 365.187876 -320.159862 
L 362.621695 -317.768928 
L 360.055514 -315.377995 
L 357.489333 -312.987061 
L 354.923153 -310.596128 
L 352.356972 -308.161523 
L 349.790791 -305.691126 
L 347.22461 -303.220729 
L 344.658429 -300.749642 
L 342.092248 -298.384684 
L 339.526068 -296.045767 
L 336.959887 -293.637784 
L 334.393706 -291.182093 
L 331.827525 -288.726402 
L 329.261344 -286.270712 
L 326.695163 -283.813837 
L 324.128983 -281.356821 
L 321.562802 -278.899805 
L 318.996621 -276.442789 
L 316.43044 -273.985774 
L 313.864259 -271.528758 
L 311.298078 -269.071742 
L 308.731898 -266.614727 
L 306.165717 -264.157711 
L 303.599536 -261.720791 
L 301.033355 -259.358083 
L 298.467174 -256.994443 
L 295.900993 -254.630804 
L 293.334813 -252.267164 
L 290.768632 -249.906384 
L 288.202451 -247.582853 
L 285.63627 -245.259321 
L 283.070089 -242.93579 
L 280.503908 -240.612259 
L 277.937728 -238.288727 
L 275.371547 -235.964123 
L 272.805366 -233.576945 
L 270.239185 -231.29034 
L 267.673004 -228.865711 
L 265.106823 -226.440308 
L 262.540643 -224.014904 
L 259.974462 -221.587624 
L 257.408281 -219.185424 
L 254.8421 -216.821212 
L 252.275919 -214.457001 
L 249.709738 -212.092789 
L 247.143558 -209.714667 
L 244.577377 -207.265903 
L 242.011196 -204.974797 
L 239.445015 -202.601482 
L 236.878834 -200.137744 
L 234.312653 -197.814564 
L 231.746473 -195.491384 
L 229.180292 -193.168203 
L 226.614111 -190.833357 
L 224.04793 -188.472366 
L 221.481749 -186.220018 
L 218.915568 -183.881469 
L 216.349388 -181.557214 
L 213.783207 -179.027761 
L 211.217026 -176.665103 
L 208.650845 -174.302445 
L 206.084664 -172.002972 
L 203.518483 -169.758666 
L 200.952303 -167.470645 
L 198.386122 -165.11884 
L 195.819941 -162.73711 
L 193.25376 -160.28866 
L 190.687579 -157.989924 
L 188.121398 -155.504809 
L 185.555218 -153.381438 
L 182.989037 -151.233562 
L 180.422856 -148.945723 
L 177.856675 -146.746905 
L 175.290494 -144.580027 
L 172.724313 -142.471418 
L 170.158133 -140.266256 
L 167.591952 -138.350422 
L 165.025771 -136.228611 
L 162.45959 -134.222763 
L 159.893409 -132.298801 
L 157.327228 -130.187439 
L 154.761048 -128.152308 
L 152.194867 -126.20972 
L 149.628686 -124.220015 
L 147.062505 -122.223277 
L 144.496324 -120.259819 
L 141.930143 -118.275165 
L 139.363963 -116.436894 
L 136.797782 -114.601926 
L 134.231601 -112.757466 
L 131.66542 -110.864672 
L 129.099239 -109.026626 
L 126.533058 -107.231229 
L 123.966878 -105.418583 
L 121.400697 -103.585988 
L 118.834516 -101.821066 
L 116.268335 -100.128806 
L 113.702154 -98.293502 
L 111.135973 -96.502217 
z
" id="m96fb07794e" style="stroke:#ffffff;stroke-opacity:0.15;"/>
    </defs>
    <g clip-path="url(#p22ef82a7e6)">
     <use style="fill:#1a1a1a;fill-opacity:0.15;stroke:#ffffff;stroke-opacity:0.15;" x="0" xlink:href="#m96fb07794e" y="380.324375"/>
    </g>
   </g>
   <g id="line2d_23">
    <path clip-path="url(#p22ef82a7e6)" d="M 111.135973 291.628418 
L 113.702154 289.707701 
L 116.268335 287.786985 
L 118.834516 285.866269 
L 121.400697 283.945552 
L 123.966878 282.024836 
L 126.533058 280.104119 
L 129.099239 278.183403 
L 131.66542 276.262687 
L 134.231601 274.34197 
L 136.797782 272.421254 
L 139.363963 270.500537 
L 141.930143 268.579821 
L 144.496324 266.659104 
L 147.062505 264.738388 
L 149.628686 262.817672 
L 152.194867 260.896955 
L 154.761048 258.976239 
L 157.327228 257.055522 
L 159.893409 255.134806 
L 162.45959 253.21409 
L 165.025771 251.293373 
L 167.591952 249.372657 
L 170.158133 247.45194 
L 172.724313 245.531224 
L 175.290494 243.610507 
L 177.856675 241.689791 
L 180.422856 239.769075 
L 182.989037 237.848358 
L 185.555218 235.927642 
L 188.121398 234.006925 
L 190.687579 232.086209 
L 193.25376 230.165493 
L 195.819941 228.244776 
L 198.386122 226.32406 
L 200.952303 224.403343 
L 203.518483 222.482627 
L 206.084664 220.561911 
L 208.650845 218.641194 
L 211.217026 216.720478 
L 213.783207 214.799761 
L 216.349388 212.879045 
L 218.915568 210.958328 
L 221.481749 209.037612 
L 224.04793 207.116896 
L 226.614111 205.196179 
L 229.180292 203.275463 
L 231.746473 201.354746 
L 234.312653 199.43403 
L 236.878834 197.513314 
L 239.445015 195.592597 
L 242.011196 193.671881 
L 244.577377 191.751164 
L 247.143558 189.830448 
L 249.709738 187.909731 
L 252.275919 185.989015 
L 254.8421 184.068299 
L 257.408281 182.147582 
L 259.974462 180.226866 
L 262.540643 178.306149 
L 265.106823 176.385433 
L 267.673004 174.464717 
L 270.239185 172.544 
L 272.805366 170.623284 
L 275.371547 168.702567 
L 277.937728 166.781851 
L 280.503908 164.861134 
L 283.070089 162.940418 
L 285.63627 161.019702 
L 288.202451 159.098985 
L 290.768632 157.178269 
L 293.334813 155.257552 
L 295.900993 153.336836 
L 298.467174 151.41612 
L 301.033355 149.495403 
L 303.599536 147.574687 
L 306.165717 145.65397 
L 308.731898 143.733254 
L 311.298078 141.812537 
L 313.864259 139.891821 
L 316.43044 137.971105 
L 318.996621 136.050388 
L 321.562802 134.129672 
L 324.128983 132.208955 
L 326.695163 130.288239 
L 329.261344 128.367523 
L 331.827525 126.446806 
L 334.393706 124.52609 
L 336.959887 122.605373 
L 339.526068 120.684657 
L 342.092248 118.763941 
L 344.658429 116.843224 
L 347.22461 114.922508 
L 349.790791 113.001791 
L 352.356972 111.081075 
L 354.923153 109.160358 
L 357.489333 107.239642 
L 360.055514 105.318926 
L 362.621695 103.398209 
L 365.187876 101.477493 
" style="fill:none;stroke:#1a1a1a;stroke-linecap:round;stroke-width:2;"/>
   </g>
   <g id="patch_3">
    <path d="M 90.284375 302.1 
L 90.284375 24.9 
" style="fill:none;stroke:#262626;stroke-linecap:square;stroke-linejoin:miter;stroke-width:1.25;"/>
   </g>
   <g id="patch_4">
    <path d="M 369.284375 302.1 
L 369.284375 24.9 
" style="fill:none;stroke:#262626;stroke-linecap:square;stroke-linejoin:miter;stroke-width:1.25;"/>
   </g>
   <g id="patch_5">
    <path d="M 90.284375 302.1 
L 369.284375 302.1 
" style="fill:none;stroke:#262626;stroke-linecap:square;stroke-linejoin:miter;stroke-width:1.25;"/>
   </g>
   <g id="patch_6">
    <path d="M 90.284375 24.9 
L 369.284375 24.9 
" style="fill:none;stroke:#262626;stroke-linecap:square;stroke-linejoin:miter;stroke-width:1.25;"/>
   </g>
   <g id="text_14">
    <!-- R$^2$ = 0.9004 -->
    <g style="fill:#262626;" transform="translate(186.504375 18.9)scale(0.16 -0.16)">
     <defs>
      <path d="M 19.1875 8.296875 
L 53.609375 8.296875 
L 53.609375 0 
L 7.328125 0 
L 7.328125 8.296875 
Q 12.9375 14.109375 22.625 23.890625 
Q 32.328125 33.6875 34.8125 36.53125 
Q 39.546875 41.84375 41.421875 45.53125 
Q 43.3125 49.21875 43.3125 52.78125 
Q 43.3125 58.59375 39.234375 62.25 
Q 35.15625 65.921875 28.609375 65.921875 
Q 23.96875 65.921875 18.8125 64.3125 
Q 13.671875 62.703125 7.8125 59.421875 
L 7.8125 69.390625 
Q 13.765625 71.78125 18.9375 73 
Q 24.125 74.21875 28.421875 74.21875 
Q 39.75 74.21875 46.484375 68.546875 
Q 53.21875 62.890625 53.21875 53.421875 
Q 53.21875 48.921875 51.53125 44.890625 
Q 49.859375 40.875 45.40625 35.40625 
Q 44.1875 33.984375 37.640625 27.21875 
Q 31.109375 20.453125 19.1875 8.296875 
z
" id="DejaVuSans-50"/>
      <path d="M 52.828125 42.09375 
L 5.5625 42.09375 
L 5.5625 50.296875 
L 52.828125 50.296875 
z
M 52.828125 20.359375 
L 5.5625 20.359375 
L 5.5625 28.5625 
L 52.828125 28.5625 
z
" id="ArialMT-61"/>
      <path d="M 9.078125 0 
L 9.078125 10.015625 
L 19.09375 10.015625 
L 19.09375 0 
z
" id="ArialMT-46"/>
      <path d="M 5.46875 16.546875 
L 13.921875 17.328125 
Q 14.984375 11.375 18.015625 8.6875 
Q 21.046875 6 25.78125 6 
Q 29.828125 6 32.875 7.859375 
Q 35.9375 9.71875 37.890625 12.8125 
Q 39.84375 15.921875 41.15625 21.1875 
Q 42.484375 26.46875 42.484375 31.9375 
Q 42.484375 32.515625 42.4375 33.6875 
Q 39.796875 29.5 35.234375 26.875 
Q 30.671875 24.265625 25.34375 24.265625 
Q 16.453125 24.265625 10.296875 30.703125 
Q 4.15625 37.15625 4.15625 47.703125 
Q 4.15625 58.59375 10.578125 65.234375 
Q 17 71.875 26.65625 71.875 
Q 33.640625 71.875 39.421875 68.109375 
Q 45.21875 64.359375 48.21875 57.390625 
Q 51.21875 50.4375 51.21875 37.25 
Q 51.21875 23.53125 48.234375 15.40625 
Q 45.265625 7.28125 39.375 3.03125 
Q 33.5 -1.21875 25.59375 -1.21875 
Q 17.1875 -1.21875 11.859375 3.4375 
Q 6.546875 8.109375 5.46875 16.546875 
z
M 41.453125 48.140625 
Q 41.453125 55.71875 37.421875 60.15625 
Q 33.40625 64.59375 27.734375 64.59375 
Q 21.875 64.59375 17.53125 59.8125 
Q 13.1875 55.03125 13.1875 47.40625 
Q 13.1875 40.578125 17.3125 36.296875 
Q 21.4375 32.03125 27.484375 32.03125 
Q 33.59375 32.03125 37.515625 36.296875 
Q 41.453125 40.578125 41.453125 48.140625 
z
" id="ArialMT-57"/>
     </defs>
     <use transform="translate(0 0.765625)" xlink:href="#ArialMT-82"/>
     <use transform="translate(73.173828 39.046875)scale(0.7)" xlink:href="#DejaVuSans-50"/>
     <use transform="translate(120.444336 0.765625)" xlink:href="#ArialMT-32"/>
     <use transform="translate(148.227539 0.765625)" xlink:href="#ArialMT-61"/>
     <use transform="translate(206.625977 0.765625)" xlink:href="#ArialMT-32"/>
     <use transform="translate(234.40918 0.765625)" xlink:href="#ArialMT-48"/>
     <use transform="translate(290.024414 0.765625)" xlink:href="#ArialMT-46"/>
     <use transform="translate(317.807617 0.765625)" xlink:href="#ArialMT-57"/>
     <use transform="translate(373.422852 0.765625)" xlink:href="#ArialMT-48"/>
     <use transform="translate(429.038086 0.765625)" xlink:href="#ArialMT-48"/>
     <use transform="translate(484.65332 0.765625)" xlink:href="#ArialMT-52"/>
    </g>
   </g>
  </g>
 </g>
 <defs>
  <clipPath id="p22ef82a7e6">
   <rect height="277.2" width="279" x="90.284375" y="24.9"/>
  </clipPath>
 </defs>
</svg>
