<?xml version="1.0" encoding="utf-8" standalone="no"?>
<!DOCTYPE svg PUBLIC "-//W3C//DTD SVG 1.1//EN"
  "http://www.w3.org/Graphics/SVG/1.1/DTD/svg11.dtd">
<!-- Created with matplotlib (https://matplotlib.org/) -->
<svg height="305.80275pt" version="1.1" viewBox="0 0 402.079688 305.80275" width="402.079688pt" xmlns="http://www.w3.org/2000/svg" xmlns:xlink="http://www.w3.org/1999/xlink">
 <metadata>
  <rdf:RDF xmlns:cc="http://creativecommons.org/ns#" xmlns:dc="http://purl.org/dc/elements/1.1/" xmlns:rdf="http://www.w3.org/1999/02/22-rdf-syntax-ns#">
   <cc:Work>
    <dc:type rdf:resource="http://purl.org/dc/dcmitype/StillImage"/>
    <dc:date>2022-02-14T01:02:12.134689</dc:date>
    <dc:format>image/svg+xml</dc:format>
    <dc:creator>
     <cc:Agent>
      <dc:title>Matplotlib v3.3.4, https://matplotlib.org/</dc:title>
     </cc:Agent>
    </dc:creator>
   </cc:Work>
  </rdf:RDF>
 </metadata>
 <defs>
  <style type="text/css">*{stroke-linecap:butt;stroke-linejoin:round;}</style>
 </defs>
 <g id="figure_1">
  <g id="patch_1">
   <path d="M 0 305.80275 
L 402.079688 305.80275 
L 402.079688 0 
L 0 0 
z
" style="fill:#ffffff;"/>
  </g>
  <g id="axes_1">
   <g id="patch_2">
    <path d="M 60.079688 234.504 
L 394.879687 234.504 
L 394.879687 7.2 
L 60.079688 7.2 
z
" style="fill:#ffffff;"/>
   </g>
   <g id="matplotlib.axis_1">
    <g id="xtick_1">
     <g id="line2d_1">
      <path clip-path="url(#paee48c7710)" d="M 185.381433 234.504 
L 185.381433 7.2 
" style="fill:none;stroke:#b0b0b0;stroke-linecap:square;stroke-width:0.8;"/>
     </g>
     <g id="line2d_2">
      <defs>
       <path d="M 0 0 
L 0 3.5 
" id="ma0d7b30c31" style="stroke:#000000;stroke-width:0.8;"/>
      </defs>
      <g>
       <use style="stroke:#000000;stroke-width:0.8;" x="185.381433" xlink:href="#ma0d7b30c31" y="234.504"/>
      </g>
     </g>
     <g id="text_1">
      <!-- 300 -->
      <g transform="translate(175.837683 249.102438)scale(0.1 -0.1)">
       <defs>
        <path d="M 40.578125 39.3125 
Q 47.65625 37.796875 51.625 33 
Q 55.609375 28.21875 55.609375 21.1875 
Q 55.609375 10.40625 48.1875 4.484375 
Q 40.765625 -1.421875 27.09375 -1.421875 
Q 22.515625 -1.421875 17.65625 -0.515625 
Q 12.796875 0.390625 7.625 2.203125 
L 7.625 11.71875 
Q 11.71875 9.328125 16.59375 8.109375 
Q 21.484375 6.890625 26.8125 6.890625 
Q 36.078125 6.890625 40.9375 10.546875 
Q 45.796875 14.203125 45.796875 21.1875 
Q 45.796875 27.640625 41.28125 31.265625 
Q 36.765625 34.90625 28.71875 34.90625 
L 20.21875 34.90625 
L 20.21875 43.015625 
L 29.109375 43.015625 
Q 36.375 43.015625 40.234375 45.921875 
Q 44.09375 48.828125 44.09375 54.296875 
Q 44.09375 59.90625 40.109375 62.90625 
Q 36.140625 65.921875 28.71875 65.921875 
Q 24.65625 65.921875 20.015625 65.03125 
Q 15.375 64.15625 9.8125 62.3125 
L 9.8125 71.09375 
Q 15.4375 72.65625 20.34375 73.4375 
Q 25.25 74.21875 29.59375 74.21875 
Q 40.828125 74.21875 47.359375 69.109375 
Q 53.90625 64.015625 53.90625 55.328125 
Q 53.90625 49.265625 50.4375 45.09375 
Q 46.96875 40.921875 40.578125 39.3125 
z
" id="DejaVuSans-51"/>
        <path d="M 31.78125 66.40625 
Q 24.171875 66.40625 20.328125 58.90625 
Q 16.5 51.421875 16.5 36.375 
Q 16.5 21.390625 20.328125 13.890625 
Q 24.171875 6.390625 31.78125 6.390625 
Q 39.453125 6.390625 43.28125 13.890625 
Q 47.125 21.390625 47.125 36.375 
Q 47.125 51.421875 43.28125 58.90625 
Q 39.453125 66.40625 31.78125 66.40625 
z
M 31.78125 74.21875 
Q 44.046875 74.21875 50.515625 64.515625 
Q 56.984375 54.828125 56.984375 36.375 
Q 56.984375 17.96875 50.515625 8.265625 
Q 44.046875 -1.421875 31.78125 -1.421875 
Q 19.53125 -1.421875 13.0625 8.265625 
Q 6.59375 17.96875 6.59375 36.375 
Q 6.59375 54.828125 13.0625 64.515625 
Q 19.53125 74.21875 31.78125 74.21875 
z
" id="DejaVuSans-48"/>
       </defs>
       <use xlink:href="#DejaVuSans-51"/>
       <use x="63.623047" xlink:href="#DejaVuSans-48"/>
       <use x="127.246094" xlink:href="#DejaVuSans-48"/>
      </g>
     </g>
    </g>
    <g id="xtick_2">
     <g id="line2d_3">
      <path clip-path="url(#paee48c7710)" d="M 269.577942 234.504 
L 269.577942 7.2 
" style="fill:none;stroke:#b0b0b0;stroke-linecap:square;stroke-width:0.8;"/>
     </g>
     <g id="line2d_4">
      <g>
       <use style="stroke:#000000;stroke-width:0.8;" x="269.577942" xlink:href="#ma0d7b30c31" y="234.504"/>
      </g>
     </g>
     <g id="text_2">
      <!-- 1000 -->
      <g transform="translate(256.852942 249.102438)scale(0.1 -0.1)">
       <defs>
        <path d="M 12.40625 8.296875 
L 28.515625 8.296875 
L 28.515625 63.921875 
L 10.984375 60.40625 
L 10.984375 69.390625 
L 28.421875 72.90625 
L 38.28125 72.90625 
L 38.28125 8.296875 
L 54.390625 8.296875 
L 54.390625 0 
L 12.40625 0 
z
" id="DejaVuSans-49"/>
       </defs>
       <use xlink:href="#DejaVuSans-49"/>
       <use x="63.623047" xlink:href="#DejaVuSans-48"/>
       <use x="127.246094" xlink:href="#DejaVuSans-48"/>
       <use x="190.869141" xlink:href="#DejaVuSans-48"/>
      </g>
     </g>
    </g>
    <g id="xtick_3">
     <g id="line2d_5">
      <path clip-path="url(#paee48c7710)" d="M 346.406356 234.504 
L 346.406356 7.2 
" style="fill:none;stroke:#b0b0b0;stroke-linecap:square;stroke-width:0.8;"/>
     </g>
     <g id="line2d_6">
      <g>
       <use style="stroke:#000000;stroke-width:0.8;" x="346.406356" xlink:href="#ma0d7b30c31" y="234.504"/>
      </g>
     </g>
     <g id="text_3">
      <!-- 3000 -->
      <g transform="translate(333.681356 249.102438)scale(0.1 -0.1)">
       <use xlink:href="#DejaVuSans-51"/>
       <use x="63.623047" xlink:href="#DejaVuSans-48"/>
       <use x="127.246094" xlink:href="#DejaVuSans-48"/>
       <use x="190.869141" xlink:href="#DejaVuSans-48"/>
      </g>
     </g>
    </g>
    <g id="xtick_4">
     <g id="line2d_7">
      <path clip-path="url(#paee48c7710)" d="M 157.026351 234.504 
L 157.026351 7.2 
" style="fill:none;stroke:#b0b0b0;stroke-linecap:square;stroke-width:0.8;"/>
     </g>
     <g id="line2d_8">
      <defs>
       <path d="M 0 0 
L 0 2 
" id="m69aaa5ac77" style="stroke:#000000;stroke-width:0.6;"/>
      </defs>
      <g>
       <use style="stroke:#000000;stroke-width:0.6;" x="157.026351" xlink:href="#m69aaa5ac77" y="234.504"/>
      </g>
     </g>
    </g>
    <g id="xtick_5">
     <g id="line2d_9">
      <path clip-path="url(#paee48c7710)" d="M 205.499683 234.504 
L 205.499683 7.2 
" style="fill:none;stroke:#b0b0b0;stroke-linecap:square;stroke-width:0.8;"/>
     </g>
     <g id="line2d_10">
      <g>
       <use style="stroke:#000000;stroke-width:0.6;" x="205.499683" xlink:href="#m69aaa5ac77" y="234.504"/>
      </g>
     </g>
    </g>
    <g id="xtick_6">
     <g id="line2d_11">
      <path clip-path="url(#paee48c7710)" d="M 221.10461 234.504 
L 221.10461 7.2 
" style="fill:none;stroke:#b0b0b0;stroke-linecap:square;stroke-width:0.8;"/>
     </g>
     <g id="line2d_12">
      <g>
       <use style="stroke:#000000;stroke-width:0.6;" x="221.10461" xlink:href="#m69aaa5ac77" y="234.504"/>
      </g>
     </g>
    </g>
    <g id="xtick_7">
     <g id="line2d_13">
      <path clip-path="url(#paee48c7710)" d="M 233.854765 234.504 
L 233.854765 7.2 
" style="fill:none;stroke:#b0b0b0;stroke-linecap:square;stroke-width:0.8;"/>
     </g>
     <g id="line2d_14">
      <g>
       <use style="stroke:#000000;stroke-width:0.6;" x="233.854765" xlink:href="#m69aaa5ac77" y="234.504"/>
      </g>
     </g>
    </g>
    <g id="xtick_8">
     <g id="line2d_15">
      <path clip-path="url(#paee48c7710)" d="M 244.634866 234.504 
L 244.634866 7.2 
" style="fill:none;stroke:#b0b0b0;stroke-linecap:square;stroke-width:0.8;"/>
     </g>
     <g id="line2d_16">
      <g>
       <use style="stroke:#000000;stroke-width:0.6;" x="244.634866" xlink:href="#m69aaa5ac77" y="234.504"/>
      </g>
     </g>
    </g>
    <g id="xtick_9">
     <g id="line2d_17">
      <path clip-path="url(#paee48c7710)" d="M 253.973015 234.504 
L 253.973015 7.2 
" style="fill:none;stroke:#b0b0b0;stroke-linecap:square;stroke-width:0.8;"/>
     </g>
     <g id="line2d_18">
      <g>
       <use style="stroke:#000000;stroke-width:0.6;" x="253.973015" xlink:href="#m69aaa5ac77" y="234.504"/>
      </g>
     </g>
    </g>
    <g id="xtick_10">
     <g id="line2d_19">
      <path clip-path="url(#paee48c7710)" d="M 262.209846 234.504 
L 262.209846 7.2 
" style="fill:none;stroke:#b0b0b0;stroke-linecap:square;stroke-width:0.8;"/>
     </g>
     <g id="line2d_20">
      <g>
       <use style="stroke:#000000;stroke-width:0.6;" x="262.209846" xlink:href="#m69aaa5ac77" y="234.504"/>
      </g>
     </g>
    </g>
    <g id="xtick_11">
     <g id="line2d_21">
      <path clip-path="url(#paee48c7710)" d="M 318.051274 234.504 
L 318.051274 7.2 
" style="fill:none;stroke:#b0b0b0;stroke-linecap:square;stroke-width:0.8;"/>
     </g>
     <g id="line2d_22">
      <g>
       <use style="stroke:#000000;stroke-width:0.6;" x="318.051274" xlink:href="#m69aaa5ac77" y="234.504"/>
      </g>
     </g>
    </g>
    <g id="xtick_12">
     <g id="line2d_23">
      <path clip-path="url(#paee48c7710)" d="M 366.524606 234.504 
L 366.524606 7.2 
" style="fill:none;stroke:#b0b0b0;stroke-linecap:square;stroke-width:0.8;"/>
     </g>
     <g id="line2d_24">
      <g>
       <use style="stroke:#000000;stroke-width:0.6;" x="366.524606" xlink:href="#m69aaa5ac77" y="234.504"/>
      </g>
     </g>
    </g>
    <g id="xtick_13">
     <g id="line2d_25">
      <path clip-path="url(#paee48c7710)" d="M 382.129533 234.504 
L 382.129533 7.2 
" style="fill:none;stroke:#b0b0b0;stroke-linecap:square;stroke-width:0.8;"/>
     </g>
     <g id="line2d_26">
      <g>
       <use style="stroke:#000000;stroke-width:0.6;" x="382.129533" xlink:href="#m69aaa5ac77" y="234.504"/>
      </g>
     </g>
    </g>
    <g id="text_4">
     <!-- Mean GFP Fluorescence (AU) -->
     <g transform="translate(97.746094 294.859313)scale(0.18 -0.18)">
      <defs>
       <path d="M 9.8125 72.90625 
L 24.515625 72.90625 
L 43.109375 23.296875 
L 61.8125 72.90625 
L 76.515625 72.90625 
L 76.515625 0 
L 66.890625 0 
L 66.890625 64.015625 
L 48.09375 14.015625 
L 38.1875 14.015625 
L 19.390625 64.015625 
L 19.390625 0 
L 9.8125 0 
z
" id="DejaVuSans-77"/>
       <path d="M 56.203125 29.59375 
L 56.203125 25.203125 
L 14.890625 25.203125 
Q 15.484375 15.921875 20.484375 11.0625 
Q 25.484375 6.203125 34.421875 6.203125 
Q 39.59375 6.203125 44.453125 7.46875 
Q 49.3125 8.734375 54.109375 11.28125 
L 54.109375 2.78125 
Q 49.265625 0.734375 44.1875 -0.34375 
Q 39.109375 -1.421875 33.890625 -1.421875 
Q 20.796875 -1.421875 13.15625 6.1875 
Q 5.515625 13.8125 5.515625 26.8125 
Q 5.515625 40.234375 12.765625 48.109375 
Q 20.015625 56 32.328125 56 
Q 43.359375 56 49.78125 48.890625 
Q 56.203125 41.796875 56.203125 29.59375 
z
M 47.21875 32.234375 
Q 47.125 39.59375 43.09375 43.984375 
Q 39.0625 48.390625 32.421875 48.390625 
Q 24.90625 48.390625 20.390625 44.140625 
Q 15.875 39.890625 15.1875 32.171875 
z
" id="DejaVuSans-101"/>
       <path d="M 34.28125 27.484375 
Q 23.390625 27.484375 19.1875 25 
Q 14.984375 22.515625 14.984375 16.5 
Q 14.984375 11.71875 18.140625 8.90625 
Q 21.296875 6.109375 26.703125 6.109375 
Q 34.1875 6.109375 38.703125 11.40625 
Q 43.21875 16.703125 43.21875 25.484375 
L 43.21875 27.484375 
z
M 52.203125 31.203125 
L 52.203125 0 
L 43.21875 0 
L 43.21875 8.296875 
Q 40.140625 3.328125 35.546875 0.953125 
Q 30.953125 -1.421875 24.3125 -1.421875 
Q 15.921875 -1.421875 10.953125 3.296875 
Q 6 8.015625 6 15.921875 
Q 6 25.140625 12.171875 29.828125 
Q 18.359375 34.515625 30.609375 34.515625 
L 43.21875 34.515625 
L 43.21875 35.40625 
Q 43.21875 41.609375 39.140625 45 
Q 35.0625 48.390625 27.6875 48.390625 
Q 23 48.390625 18.546875 47.265625 
Q 14.109375 46.140625 10.015625 43.890625 
L 10.015625 52.203125 
Q 14.9375 54.109375 19.578125 55.046875 
Q 24.21875 56 28.609375 56 
Q 40.484375 56 46.34375 49.84375 
Q 52.203125 43.703125 52.203125 31.203125 
z
" id="DejaVuSans-97"/>
       <path d="M 54.890625 33.015625 
L 54.890625 0 
L 45.90625 0 
L 45.90625 32.71875 
Q 45.90625 40.484375 42.875 44.328125 
Q 39.84375 48.1875 33.796875 48.1875 
Q 26.515625 48.1875 22.3125 43.546875 
Q 18.109375 38.921875 18.109375 30.90625 
L 18.109375 0 
L 9.078125 0 
L 9.078125 54.6875 
L 18.109375 54.6875 
L 18.109375 46.1875 
Q 21.34375 51.125 25.703125 53.5625 
Q 30.078125 56 35.796875 56 
Q 45.21875 56 50.046875 50.171875 
Q 54.890625 44.34375 54.890625 33.015625 
z
" id="DejaVuSans-110"/>
       <path id="DejaVuSans-32"/>
       <path d="M 59.515625 10.40625 
L 59.515625 29.984375 
L 43.40625 29.984375 
L 43.40625 38.09375 
L 69.28125 38.09375 
L 69.28125 6.78125 
Q 63.578125 2.734375 56.6875 0.65625 
Q 49.8125 -1.421875 42 -1.421875 
Q 24.90625 -1.421875 15.25 8.5625 
Q 5.609375 18.5625 5.609375 36.375 
Q 5.609375 54.25 15.25 64.234375 
Q 24.90625 74.21875 42 74.21875 
Q 49.125 74.21875 55.546875 72.453125 
Q 61.96875 70.703125 67.390625 67.28125 
L 67.390625 56.78125 
Q 61.921875 61.421875 55.765625 63.765625 
Q 49.609375 66.109375 42.828125 66.109375 
Q 29.4375 66.109375 22.71875 58.640625 
Q 16.015625 51.171875 16.015625 36.375 
Q 16.015625 21.625 22.71875 14.15625 
Q 29.4375 6.6875 42.828125 6.6875 
Q 48.046875 6.6875 52.140625 7.59375 
Q 56.25 8.5 59.515625 10.40625 
z
" id="DejaVuSans-71"/>
       <path d="M 9.8125 72.90625 
L 51.703125 72.90625 
L 51.703125 64.59375 
L 19.671875 64.59375 
L 19.671875 43.109375 
L 48.578125 43.109375 
L 48.578125 34.8125 
L 19.671875 34.8125 
L 19.671875 0 
L 9.8125 0 
z
" id="DejaVuSans-70"/>
       <path d="M 19.671875 64.796875 
L 19.671875 37.40625 
L 32.078125 37.40625 
Q 38.96875 37.40625 42.71875 40.96875 
Q 46.484375 44.53125 46.484375 51.125 
Q 46.484375 57.671875 42.71875 61.234375 
Q 38.96875 64.796875 32.078125 64.796875 
z
M 9.8125 72.90625 
L 32.078125 72.90625 
Q 44.34375 72.90625 50.609375 67.359375 
Q 56.890625 61.8125 56.890625 51.125 
Q 56.890625 40.328125 50.609375 34.8125 
Q 44.34375 29.296875 32.078125 29.296875 
L 19.671875 29.296875 
L 19.671875 0 
L 9.8125 0 
z
" id="DejaVuSans-80"/>
       <path d="M 9.421875 75.984375 
L 18.40625 75.984375 
L 18.40625 0 
L 9.421875 0 
z
" id="DejaVuSans-108"/>
       <path d="M 8.5 21.578125 
L 8.5 54.6875 
L 17.484375 54.6875 
L 17.484375 21.921875 
Q 17.484375 14.15625 20.5 10.265625 
Q 23.53125 6.390625 29.59375 6.390625 
Q 36.859375 6.390625 41.078125 11.03125 
Q 45.3125 15.671875 45.3125 23.6875 
L 45.3125 54.6875 
L 54.296875 54.6875 
L 54.296875 0 
L 45.3125 0 
L 45.3125 8.40625 
Q 42.046875 3.421875 37.71875 1 
Q 33.40625 -1.421875 27.6875 -1.421875 
Q 18.265625 -1.421875 13.375 4.4375 
Q 8.5 10.296875 8.5 21.578125 
z
M 31.109375 56 
z
" id="DejaVuSans-117"/>
       <path d="M 30.609375 48.390625 
Q 23.390625 48.390625 19.1875 42.75 
Q 14.984375 37.109375 14.984375 27.296875 
Q 14.984375 17.484375 19.15625 11.84375 
Q 23.34375 6.203125 30.609375 6.203125 
Q 37.796875 6.203125 41.984375 11.859375 
Q 46.1875 17.53125 46.1875 27.296875 
Q 46.1875 37.015625 41.984375 42.703125 
Q 37.796875 48.390625 30.609375 48.390625 
z
M 30.609375 56 
Q 42.328125 56 49.015625 48.375 
Q 55.71875 40.765625 55.71875 27.296875 
Q 55.71875 13.875 49.015625 6.21875 
Q 42.328125 -1.421875 30.609375 -1.421875 
Q 18.84375 -1.421875 12.171875 6.21875 
Q 5.515625 13.875 5.515625 27.296875 
Q 5.515625 40.765625 12.171875 48.375 
Q 18.84375 56 30.609375 56 
z
" id="DejaVuSans-111"/>
       <path d="M 41.109375 46.296875 
Q 39.59375 47.171875 37.8125 47.578125 
Q 36.03125 48 33.890625 48 
Q 26.265625 48 22.1875 43.046875 
Q 18.109375 38.09375 18.109375 28.8125 
L 18.109375 0 
L 9.078125 0 
L 9.078125 54.6875 
L 18.109375 54.6875 
L 18.109375 46.1875 
Q 20.953125 51.171875 25.484375 53.578125 
Q 30.03125 56 36.53125 56 
Q 37.453125 56 38.578125 55.875 
Q 39.703125 55.765625 41.0625 55.515625 
z
" id="DejaVuSans-114"/>
       <path d="M 44.28125 53.078125 
L 44.28125 44.578125 
Q 40.484375 46.53125 36.375 47.5 
Q 32.28125 48.484375 27.875 48.484375 
Q 21.1875 48.484375 17.84375 46.4375 
Q 14.5 44.390625 14.5 40.28125 
Q 14.5 37.15625 16.890625 35.375 
Q 19.28125 33.59375 26.515625 31.984375 
L 29.59375 31.296875 
Q 39.15625 29.25 43.1875 25.515625 
Q 47.21875 21.78125 47.21875 15.09375 
Q 47.21875 7.46875 41.1875 3.015625 
Q 35.15625 -1.421875 24.609375 -1.421875 
Q 20.21875 -1.421875 15.453125 -0.5625 
Q 10.6875 0.296875 5.421875 2 
L 5.421875 11.28125 
Q 10.40625 8.6875 15.234375 7.390625 
Q 20.0625 6.109375 24.8125 6.109375 
Q 31.15625 6.109375 34.5625 8.28125 
Q 37.984375 10.453125 37.984375 14.40625 
Q 37.984375 18.0625 35.515625 20.015625 
Q 33.0625 21.96875 24.703125 23.78125 
L 21.578125 24.515625 
Q 13.234375 26.265625 9.515625 29.90625 
Q 5.8125 33.546875 5.8125 39.890625 
Q 5.8125 47.609375 11.28125 51.796875 
Q 16.75 56 26.8125 56 
Q 31.78125 56 36.171875 55.265625 
Q 40.578125 54.546875 44.28125 53.078125 
z
" id="DejaVuSans-115"/>
       <path d="M 48.78125 52.59375 
L 48.78125 44.1875 
Q 44.96875 46.296875 41.140625 47.34375 
Q 37.3125 48.390625 33.40625 48.390625 
Q 24.65625 48.390625 19.8125 42.84375 
Q 14.984375 37.3125 14.984375 27.296875 
Q 14.984375 17.28125 19.8125 11.734375 
Q 24.65625 6.203125 33.40625 6.203125 
Q 37.3125 6.203125 41.140625 7.25 
Q 44.96875 8.296875 48.78125 10.40625 
L 48.78125 2.09375 
Q 45.015625 0.34375 40.984375 -0.53125 
Q 36.96875 -1.421875 32.421875 -1.421875 
Q 20.0625 -1.421875 12.78125 6.34375 
Q 5.515625 14.109375 5.515625 27.296875 
Q 5.515625 40.671875 12.859375 48.328125 
Q 20.21875 56 33.015625 56 
Q 37.15625 56 41.109375 55.140625 
Q 45.0625 54.296875 48.78125 52.59375 
z
" id="DejaVuSans-99"/>
       <path d="M 31 75.875 
Q 24.46875 64.65625 21.28125 53.65625 
Q 18.109375 42.671875 18.109375 31.390625 
Q 18.109375 20.125 21.3125 9.0625 
Q 24.515625 -2 31 -13.1875 
L 23.1875 -13.1875 
Q 15.875 -1.703125 12.234375 9.375 
Q 8.59375 20.453125 8.59375 31.390625 
Q 8.59375 42.28125 12.203125 53.3125 
Q 15.828125 64.359375 23.1875 75.875 
z
" id="DejaVuSans-40"/>
       <path d="M 34.1875 63.1875 
L 20.796875 26.90625 
L 47.609375 26.90625 
z
M 28.609375 72.90625 
L 39.796875 72.90625 
L 67.578125 0 
L 57.328125 0 
L 50.6875 18.703125 
L 17.828125 18.703125 
L 11.1875 0 
L 0.78125 0 
z
" id="DejaVuSans-65"/>
       <path d="M 8.6875 72.90625 
L 18.609375 72.90625 
L 18.609375 28.609375 
Q 18.609375 16.890625 22.84375 11.734375 
Q 27.09375 6.59375 36.625 6.59375 
Q 46.09375 6.59375 50.34375 11.734375 
Q 54.59375 16.890625 54.59375 28.609375 
L 54.59375 72.90625 
L 64.5 72.90625 
L 64.5 27.390625 
Q 64.5 13.140625 57.4375 5.859375 
Q 50.390625 -1.421875 36.625 -1.421875 
Q 22.796875 -1.421875 15.734375 5.859375 
Q 8.6875 13.140625 8.6875 27.390625 
z
" id="DejaVuSans-85"/>
       <path d="M 8.015625 75.875 
L 15.828125 75.875 
Q 23.140625 64.359375 26.78125 53.3125 
Q 30.421875 42.28125 30.421875 31.390625 
Q 30.421875 20.453125 26.78125 9.375 
Q 23.140625 -1.703125 15.828125 -13.1875 
L 8.015625 -13.1875 
Q 14.5 -2 17.703125 9.0625 
Q 20.90625 20.125 20.90625 31.390625 
Q 20.90625 42.671875 17.703125 53.65625 
Q 14.5 64.65625 8.015625 75.875 
z
" id="DejaVuSans-41"/>
      </defs>
      <use xlink:href="#DejaVuSans-77"/>
      <use x="86.279297" xlink:href="#DejaVuSans-101"/>
      <use x="147.802734" xlink:href="#DejaVuSans-97"/>
      <use x="209.082031" xlink:href="#DejaVuSans-110"/>
      <use x="272.460938" xlink:href="#DejaVuSans-32"/>
      <use x="304.248047" xlink:href="#DejaVuSans-71"/>
      <use x="381.738281" xlink:href="#DejaVuSans-70"/>
      <use x="439.257812" xlink:href="#DejaVuSans-80"/>
      <use x="499.560547" xlink:href="#DejaVuSans-32"/>
      <use x="531.347656" xlink:href="#DejaVuSans-70"/>
      <use x="588.867188" xlink:href="#DejaVuSans-108"/>
      <use x="616.650391" xlink:href="#DejaVuSans-117"/>
      <use x="680.029297" xlink:href="#DejaVuSans-111"/>
      <use x="741.210938" xlink:href="#DejaVuSans-114"/>
      <use x="780.074219" xlink:href="#DejaVuSans-101"/>
      <use x="841.597656" xlink:href="#DejaVuSans-115"/>
      <use x="893.697266" xlink:href="#DejaVuSans-99"/>
      <use x="948.677734" xlink:href="#DejaVuSans-101"/>
      <use x="1010.201172" xlink:href="#DejaVuSans-110"/>
      <use x="1073.580078" xlink:href="#DejaVuSans-99"/>
      <use x="1128.560547" xlink:href="#DejaVuSans-101"/>
      <use x="1190.083984" xlink:href="#DejaVuSans-32"/>
      <use x="1221.871094" xlink:href="#DejaVuSans-40"/>
      <use x="1260.884766" xlink:href="#DejaVuSans-65"/>
      <use x="1329.292969" xlink:href="#DejaVuSans-85"/>
      <use x="1402.486328" xlink:href="#DejaVuSans-41"/>
     </g>
    </g>
   </g>
   <g id="matplotlib.axis_2">
    <g id="ytick_1">
     <g id="line2d_27">
      <defs>
       <path d="M 0 0 
L -3.5 0 
" id="m9c7f2ae42e" style="stroke:#000000;stroke-width:0.8;"/>
      </defs>
      <g>
       <use style="stroke:#000000;stroke-width:0.8;" x="60.079688" xlink:href="#m9c7f2ae42e" y="209.248"/>
      </g>
     </g>
     <g id="text_5">
      <!-- 3W3V' -->
      <g transform="translate(20.878125 213.047219)scale(0.1 -0.1)">
       <defs>
        <path d="M 3.328125 72.90625 
L 13.28125 72.90625 
L 28.609375 11.28125 
L 43.890625 72.90625 
L 54.984375 72.90625 
L 70.3125 11.28125 
L 85.59375 72.90625 
L 95.609375 72.90625 
L 77.296875 0 
L 64.890625 0 
L 49.515625 63.28125 
L 33.984375 0 
L 21.578125 0 
z
" id="DejaVuSans-87"/>
        <path d="M 28.609375 0 
L 0.78125 72.90625 
L 11.078125 72.90625 
L 34.1875 11.53125 
L 57.328125 72.90625 
L 67.578125 72.90625 
L 39.796875 0 
z
" id="DejaVuSans-86"/>
        <path d="M 17.921875 72.90625 
L 17.921875 45.796875 
L 9.625 45.796875 
L 9.625 72.90625 
z
" id="DejaVuSans-39"/>
       </defs>
       <use xlink:href="#DejaVuSans-51"/>
       <use x="63.623047" xlink:href="#DejaVuSans-87"/>
       <use x="162.5" xlink:href="#DejaVuSans-51"/>
       <use x="226.123047" xlink:href="#DejaVuSans-86"/>
       <use x="294.53125" xlink:href="#DejaVuSans-39"/>
      </g>
     </g>
    </g>
    <g id="ytick_2">
     <g id="line2d_28">
      <g>
       <use style="stroke:#000000;stroke-width:0.8;" x="60.079688" xlink:href="#m9c7f2ae42e" y="175.573333"/>
      </g>
     </g>
     <g id="text_6">
      <!-- 3W' -->
      <g transform="translate(34.08125 179.372552)scale(0.1 -0.1)">
       <use xlink:href="#DejaVuSans-51"/>
       <use x="63.623047" xlink:href="#DejaVuSans-87"/>
       <use x="162.5" xlink:href="#DejaVuSans-39"/>
      </g>
     </g>
    </g>
    <g id="ytick_3">
     <g id="line2d_29">
      <g>
       <use style="stroke:#000000;stroke-width:0.8;" x="60.079688" xlink:href="#m9c7f2ae42e" y="141.898667"/>
      </g>
     </g>
     <g id="text_7">
      <!-- 3W3V -->
      <g transform="translate(23.626563 145.697885)scale(0.1 -0.1)">
       <use xlink:href="#DejaVuSans-51"/>
       <use x="63.623047" xlink:href="#DejaVuSans-87"/>
       <use x="162.5" xlink:href="#DejaVuSans-51"/>
       <use x="226.123047" xlink:href="#DejaVuSans-86"/>
      </g>
     </g>
    </g>
    <g id="ytick_4">
     <g id="line2d_30">
      <g>
       <use style="stroke:#000000;stroke-width:0.8;" x="60.079688" xlink:href="#m9c7f2ae42e" y="108.224"/>
      </g>
     </g>
     <g id="text_8">
      <!-- 3W -->
      <g transform="translate(36.829688 112.023219)scale(0.1 -0.1)">
       <use xlink:href="#DejaVuSans-51"/>
       <use x="63.623047" xlink:href="#DejaVuSans-87"/>
      </g>
     </g>
    </g>
    <g id="ytick_5">
     <g id="line2d_31">
      <g>
       <use style="stroke:#000000;stroke-width:0.8;" x="60.079688" xlink:href="#m9c7f2ae42e" y="74.549333"/>
      </g>
     </g>
     <g id="text_9">
      <!-- 6V -->
      <g transform="translate(39.876563 78.348552)scale(0.1 -0.1)">
       <defs>
        <path d="M 33.015625 40.375 
Q 26.375 40.375 22.484375 35.828125 
Q 18.609375 31.296875 18.609375 23.390625 
Q 18.609375 15.53125 22.484375 10.953125 
Q 26.375 6.390625 33.015625 6.390625 
Q 39.65625 6.390625 43.53125 10.953125 
Q 47.40625 15.53125 47.40625 23.390625 
Q 47.40625 31.296875 43.53125 35.828125 
Q 39.65625 40.375 33.015625 40.375 
z
M 52.59375 71.296875 
L 52.59375 62.3125 
Q 48.875 64.0625 45.09375 64.984375 
Q 41.3125 65.921875 37.59375 65.921875 
Q 27.828125 65.921875 22.671875 59.328125 
Q 17.53125 52.734375 16.796875 39.40625 
Q 19.671875 43.65625 24.015625 45.921875 
Q 28.375 48.1875 33.59375 48.1875 
Q 44.578125 48.1875 50.953125 41.515625 
Q 57.328125 34.859375 57.328125 23.390625 
Q 57.328125 12.15625 50.6875 5.359375 
Q 44.046875 -1.421875 33.015625 -1.421875 
Q 20.359375 -1.421875 13.671875 8.265625 
Q 6.984375 17.96875 6.984375 36.375 
Q 6.984375 53.65625 15.1875 63.9375 
Q 23.390625 74.21875 37.203125 74.21875 
Q 40.921875 74.21875 44.703125 73.484375 
Q 48.484375 72.75 52.59375 71.296875 
z
" id="DejaVuSans-54"/>
       </defs>
       <use xlink:href="#DejaVuSans-54"/>
       <use x="63.623047" xlink:href="#DejaVuSans-86"/>
      </g>
     </g>
    </g>
    <g id="ytick_6">
     <g id="line2d_32">
      <g>
       <use style="stroke:#000000;stroke-width:0.8;" x="60.079688" xlink:href="#m9c7f2ae42e" y="40.874667"/>
      </g>
     </g>
     <g id="text_10">
      <!-- 3V -->
      <g transform="translate(39.876563 44.673885)scale(0.1 -0.1)">
       <use xlink:href="#DejaVuSans-51"/>
       <use x="63.623047" xlink:href="#DejaVuSans-86"/>
      </g>
     </g>
    </g>
    <g id="text_11">
     <!-- promoter -->
     <g transform="translate(14.798438 144.050438)rotate(-90)scale(0.1 -0.1)">
      <defs>
       <path d="M 18.109375 8.203125 
L 18.109375 -20.796875 
L 9.078125 -20.796875 
L 9.078125 54.6875 
L 18.109375 54.6875 
L 18.109375 46.390625 
Q 20.953125 51.265625 25.265625 53.625 
Q 29.59375 56 35.59375 56 
Q 45.5625 56 51.78125 48.09375 
Q 58.015625 40.1875 58.015625 27.296875 
Q 58.015625 14.40625 51.78125 6.484375 
Q 45.5625 -1.421875 35.59375 -1.421875 
Q 29.59375 -1.421875 25.265625 0.953125 
Q 20.953125 3.328125 18.109375 8.203125 
z
M 48.6875 27.296875 
Q 48.6875 37.203125 44.609375 42.84375 
Q 40.53125 48.484375 33.40625 48.484375 
Q 26.265625 48.484375 22.1875 42.84375 
Q 18.109375 37.203125 18.109375 27.296875 
Q 18.109375 17.390625 22.1875 11.75 
Q 26.265625 6.109375 33.40625 6.109375 
Q 40.53125 6.109375 44.609375 11.75 
Q 48.6875 17.390625 48.6875 27.296875 
z
" id="DejaVuSans-112"/>
       <path d="M 52 44.1875 
Q 55.375 50.25 60.0625 53.125 
Q 64.75 56 71.09375 56 
Q 79.640625 56 84.28125 50.015625 
Q 88.921875 44.046875 88.921875 33.015625 
L 88.921875 0 
L 79.890625 0 
L 79.890625 32.71875 
Q 79.890625 40.578125 77.09375 44.375 
Q 74.3125 48.1875 68.609375 48.1875 
Q 61.625 48.1875 57.5625 43.546875 
Q 53.515625 38.921875 53.515625 30.90625 
L 53.515625 0 
L 44.484375 0 
L 44.484375 32.71875 
Q 44.484375 40.625 41.703125 44.40625 
Q 38.921875 48.1875 33.109375 48.1875 
Q 26.21875 48.1875 22.15625 43.53125 
Q 18.109375 38.875 18.109375 30.90625 
L 18.109375 0 
L 9.078125 0 
L 9.078125 54.6875 
L 18.109375 54.6875 
L 18.109375 46.1875 
Q 21.1875 51.21875 25.484375 53.609375 
Q 29.78125 56 35.6875 56 
Q 41.65625 56 45.828125 52.96875 
Q 50 49.953125 52 44.1875 
z
" id="DejaVuSans-109"/>
       <path d="M 18.3125 70.21875 
L 18.3125 54.6875 
L 36.8125 54.6875 
L 36.8125 47.703125 
L 18.3125 47.703125 
L 18.3125 18.015625 
Q 18.3125 11.328125 20.140625 9.421875 
Q 21.96875 7.515625 27.59375 7.515625 
L 36.8125 7.515625 
L 36.8125 0 
L 27.59375 0 
Q 17.1875 0 13.234375 3.875 
Q 9.28125 7.765625 9.28125 18.015625 
L 9.28125 47.703125 
L 2.6875 47.703125 
L 2.6875 54.6875 
L 9.28125 54.6875 
L 9.28125 70.21875 
z
" id="DejaVuSans-116"/>
      </defs>
      <use xlink:href="#DejaVuSans-112"/>
      <use x="63.476562" xlink:href="#DejaVuSans-114"/>
      <use x="102.339844" xlink:href="#DejaVuSans-111"/>
      <use x="163.521484" xlink:href="#DejaVuSans-109"/>
      <use x="260.933594" xlink:href="#DejaVuSans-111"/>
      <use x="322.115234" xlink:href="#DejaVuSans-116"/>
      <use x="361.324219" xlink:href="#DejaVuSans-101"/>
      <use x="422.847656" xlink:href="#DejaVuSans-114"/>
     </g>
    </g>
   </g>
   <g id="patch_3">
    <path d="M 60.079688 234.504 
L 60.079688 7.2 
" style="fill:none;stroke:#000000;stroke-linecap:square;stroke-linejoin:miter;stroke-width:0.8;"/>
   </g>
   <g id="patch_4">
    <path d="M 394.879687 234.504 
L 394.879687 7.2 
" style="fill:none;stroke:#000000;stroke-linecap:square;stroke-linejoin:miter;stroke-width:0.8;"/>
   </g>
   <g id="patch_5">
    <path d="M 60.079688 234.504 
L 394.879687 234.504 
" style="fill:none;stroke:#000000;stroke-linecap:square;stroke-linejoin:miter;stroke-width:0.8;"/>
   </g>
   <g id="patch_6">
    <path d="M 60.079688 7.2 
L 394.879687 7.2 
" style="fill:none;stroke:#000000;stroke-linecap:square;stroke-linejoin:miter;stroke-width:0.8;"/>
   </g>
   <g id="PathCollection_1">
    <defs>
     <path d="M 0 3 
C 0.795609 3 1.55874 2.683901 2.12132 2.12132 
C 2.683901 1.55874 3 0.795609 3 -0 
C 3 -0.795609 2.683901 -1.55874 2.12132 -2.12132 
C 1.55874 -2.683901 0.795609 -3 0 -3 
C -0.795609 -3 -1.55874 -2.683901 -2.12132 -2.12132 
C -2.683901 -1.55874 -3 -0.795609 -3 0 
C -3 0.795609 -2.683901 1.55874 -2.12132 2.12132 
C -1.55874 2.683901 -0.795609 3 0 3 
z
" id="C0_0_ca79c3b413"/>
    </defs>
    <g clip-path="url(#paee48c7710)">
     <use style="fill:#b79c97;stroke:#000000;" x="266.163519" xlink:href="#C0_0_ca79c3b413" y="216.059768"/>
    </g>
    <g clip-path="url(#paee48c7710)">
     <use style="fill:#b79c97;stroke:#000000;" x="267.179175" xlink:href="#C0_0_ca79c3b413" y="213.501385"/>
    </g>
    <g clip-path="url(#paee48c7710)">
     <use style="fill:#b79c97;stroke:#000000;" x="266.505901" xlink:href="#C0_0_ca79c3b413" y="202.694446"/>
    </g>
    <g clip-path="url(#paee48c7710)">
     <use style="fill:#b79c97;stroke:#000000;" x="273.586989" xlink:href="#C0_0_ca79c3b413" y="207.139819"/>
    </g>
    <g clip-path="url(#paee48c7710)">
     <use style="fill:#b79c97;stroke:#000000;" x="272.953479" xlink:href="#C0_0_ca79c3b413" y="205.499594"/>
    </g>
    <g clip-path="url(#paee48c7710)">
     <use style="fill:#b79c97;stroke:#000000;" x="252.974163" xlink:href="#C0_0_ca79c3b413" y="205.866148"/>
    </g>
    <g clip-path="url(#paee48c7710)">
     <use style="fill:#b79c97;stroke:#000000;" x="256.027728" xlink:href="#C0_0_ca79c3b413" y="202.380803"/>
    </g>
   </g>
   <g id="PathCollection_2">
    <defs>
     <path d="M 0 3 
C 0.795609 3 1.55874 2.683901 2.12132 2.12132 
C 2.683901 1.55874 3 0.795609 3 -0 
C 3 -0.795609 2.683901 -1.55874 2.12132 -2.12132 
C 1.55874 -2.683901 0.795609 -3 0 -3 
C -0.795609 -3 -1.55874 -2.683901 -2.12132 -2.12132 
C -2.683901 -1.55874 -3 -0.795609 -3 0 
C -3 0.795609 -2.683901 1.55874 -2.12132 2.12132 
C -1.55874 2.683901 -0.795609 3 0 3 
z
" id="C1_0_b1dd36f2bd"/>
    </defs>
    <g clip-path="url(#paee48c7710)">
     <use style="fill:#af7cb5;stroke:#000000;" x="219.125773" xlink:href="#C1_0_b1dd36f2bd" y="169.827972"/>
    </g>
    <g clip-path="url(#paee48c7710)">
     <use style="fill:#af7cb5;stroke:#000000;" x="219.483294" xlink:href="#C1_0_b1dd36f2bd" y="182.951114"/>
    </g>
    <g clip-path="url(#paee48c7710)">
     <use style="fill:#af7cb5;stroke:#000000;" x="213.381665" xlink:href="#C1_0_b1dd36f2bd" y="180.511353"/>
    </g>
    <g clip-path="url(#paee48c7710)">
     <use style="fill:#af7cb5;stroke:#000000;" x="200.53314" xlink:href="#C1_0_b1dd36f2bd" y="174.404103"/>
    </g>
    <g clip-path="url(#paee48c7710)">
     <use style="fill:#af7cb5;stroke:#000000;" x="213.264602" xlink:href="#C1_0_b1dd36f2bd" y="172.110926"/>
    </g>
    <g clip-path="url(#paee48c7710)">
     <use style="fill:#af7cb5;stroke:#000000;" x="212.790258" xlink:href="#C1_0_b1dd36f2bd" y="183.453814"/>
    </g>
    <g clip-path="url(#paee48c7710)">
     <use style="fill:#af7cb5;stroke:#000000;" x="214.36916" xlink:href="#C1_0_b1dd36f2bd" y="174.196708"/>
    </g>
    <g clip-path="url(#paee48c7710)">
     <use style="fill:#af7cb5;stroke:#000000;" x="214.423426" xlink:href="#C1_0_b1dd36f2bd" y="174.86552"/>
    </g>
    <g clip-path="url(#paee48c7710)">
     <use style="fill:#af7cb5;stroke:#000000;" x="213.580459" xlink:href="#C1_0_b1dd36f2bd" y="172.645244"/>
    </g>
   </g>
   <g id="PathCollection_3">
    <defs>
     <path d="M 0 3 
C 0.795609 3 1.55874 2.683901 2.12132 2.12132 
C 2.683901 1.55874 3 0.795609 3 -0 
C 3 -0.795609 2.683901 -1.55874 2.12132 -2.12132 
C 1.55874 -2.683901 0.795609 -3 0 -3 
C -0.795609 -3 -1.55874 -2.683901 -2.12132 -2.12132 
C -2.683901 -1.55874 -3 -0.795609 -3 0 
C -3 0.795609 -2.683901 1.55874 -2.12132 2.12132 
C -1.55874 2.683901 -0.795609 3 0 3 
z
" id="C2_0_6ddddeed22"/>
    </defs>
    <g clip-path="url(#paee48c7710)">
     <use style="fill:#b79c97;stroke:#000000;" x="253.907645" xlink:href="#C2_0_6ddddeed22" y="134.680419"/>
    </g>
    <g clip-path="url(#paee48c7710)">
     <use style="fill:#b79c97;stroke:#000000;" x="253.752326" xlink:href="#C2_0_6ddddeed22" y="145.878909"/>
    </g>
    <g clip-path="url(#paee48c7710)">
     <use style="fill:#b79c97;stroke:#000000;" x="250.97831" xlink:href="#C2_0_6ddddeed22" y="138.100105"/>
    </g>
    <g clip-path="url(#paee48c7710)">
     <use style="fill:#b79c97;stroke:#000000;" x="251.47019" xlink:href="#C2_0_6ddddeed22" y="141.798679"/>
    </g>
    <g clip-path="url(#paee48c7710)">
     <use style="fill:#b79c97;stroke:#000000;" x="251.568803" xlink:href="#C2_0_6ddddeed22" y="145.515211"/>
    </g>
    <g clip-path="url(#paee48c7710)">
     <use style="fill:#b79c97;stroke:#000000;" x="230.396255" xlink:href="#C2_0_6ddddeed22" y="149.729729"/>
    </g>
    <g clip-path="url(#paee48c7710)">
     <use style="fill:#b79c97;stroke:#000000;" x="234.761035" xlink:href="#C2_0_6ddddeed22" y="138.161053"/>
    </g>
    <g clip-path="url(#paee48c7710)">
     <use style="fill:#b79c97;stroke:#000000;" x="241.008252" xlink:href="#C2_0_6ddddeed22" y="138.618558"/>
    </g>
    <g clip-path="url(#paee48c7710)">
     <use style="fill:#b79c97;stroke:#000000;" x="241.342254" xlink:href="#C2_0_6ddddeed22" y="149.856241"/>
    </g>
   </g>
   <g id="PathCollection_4">
    <defs>
     <path d="M 0 3 
C 0.795609 3 1.55874 2.683901 2.12132 2.12132 
C 2.683901 1.55874 3 0.795609 3 -0 
C 3 -0.795609 2.683901 -1.55874 2.12132 -2.12132 
C 1.55874 -2.683901 0.795609 -3 0 -3 
C -0.795609 -3 -1.55874 -2.683901 -2.12132 -2.12132 
C -2.683901 -1.55874 -3 -0.795609 -3 0 
C -3 0.795609 -2.683901 1.55874 -2.12132 2.12132 
C -1.55874 2.683901 -0.795609 3 0 3 
z
" id="C3_0_cc78045db9"/>
    </defs>
    <g clip-path="url(#paee48c7710)">
     <use style="fill:#af7cb5;stroke:#000000;" x="219.319686" xlink:href="#C3_0_cc78045db9" y="114.09279"/>
    </g>
    <g clip-path="url(#paee48c7710)">
     <use style="fill:#af7cb5;stroke:#000000;" x="215.270668" xlink:href="#C3_0_cc78045db9" y="115.631336"/>
    </g>
    <g clip-path="url(#paee48c7710)">
     <use style="fill:#af7cb5;stroke:#000000;" x="212.132496" xlink:href="#C3_0_cc78045db9" y="100.42937"/>
    </g>
    <g clip-path="url(#paee48c7710)">
     <use style="fill:#af7cb5;stroke:#000000;" x="211.500162" xlink:href="#C3_0_cc78045db9" y="113.725637"/>
    </g>
    <g clip-path="url(#paee48c7710)">
     <use style="fill:#af7cb5;stroke:#000000;" x="211.073582" xlink:href="#C3_0_cc78045db9" y="113.437076"/>
    </g>
    <g clip-path="url(#paee48c7710)">
     <use style="fill:#af7cb5;stroke:#000000;" x="210.373917" xlink:href="#C3_0_cc78045db9" y="107.453658"/>
    </g>
    <g clip-path="url(#paee48c7710)">
     <use style="fill:#af7cb5;stroke:#000000;" x="205.579387" xlink:href="#C3_0_cc78045db9" y="109.518574"/>
    </g>
    <g clip-path="url(#paee48c7710)">
     <use style="fill:#af7cb5;stroke:#000000;" x="215.092183" xlink:href="#C3_0_cc78045db9" y="111.220439"/>
    </g>
    <g clip-path="url(#paee48c7710)">
     <use style="fill:#af7cb5;stroke:#000000;" x="205.61497" xlink:href="#C3_0_cc78045db9" y="111.453373"/>
    </g>
    <g clip-path="url(#paee48c7710)">
     <use style="fill:#af7cb5;stroke:#000000;" x="208.357266" xlink:href="#C3_0_cc78045db9" y="111.172787"/>
    </g>
    <g clip-path="url(#paee48c7710)">
     <use style="fill:#af7cb5;stroke:#000000;" x="200.061957" xlink:href="#C3_0_cc78045db9" y="108.077213"/>
    </g>
    <g clip-path="url(#paee48c7710)">
     <use style="fill:#af7cb5;stroke:#000000;" x="201.848758" xlink:href="#C3_0_cc78045db9" y="112.674693"/>
    </g>
   </g>
   <g id="PathCollection_5">
    <defs>
     <path d="M 0 3 
C 0.795609 3 1.55874 2.683901 2.12132 2.12132 
C 2.683901 1.55874 3 0.795609 3 -0 
C 3 -0.795609 2.683901 -1.55874 2.12132 -2.12132 
C 1.55874 -2.683901 0.795609 -3 0 -3 
C -0.795609 -3 -1.55874 -2.683901 -2.12132 -2.12132 
C -2.683901 -1.55874 -3 -0.795609 -3 0 
C -3 0.795609 -2.683901 1.55874 -2.12132 2.12132 
C -1.55874 2.683901 -0.795609 3 0 3 
z
" id="C4_0_1012b5389e"/>
    </defs>
    <g clip-path="url(#paee48c7710)">
     <use style="fill:#cbb6a2;stroke:#000000;" x="162.412808" xlink:href="#C4_0_1012b5389e" y="73.454745"/>
    </g>
    <g clip-path="url(#paee48c7710)">
     <use style="fill:#cbb6a2;stroke:#000000;" x="159.92578" xlink:href="#C4_0_1012b5389e" y="80.067127"/>
    </g>
    <g clip-path="url(#paee48c7710)">
     <use style="fill:#cbb6a2;stroke:#000000;" x="155.389341" xlink:href="#C4_0_1012b5389e" y="67.903347"/>
    </g>
    <g clip-path="url(#paee48c7710)">
     <use style="fill:#cbb6a2;stroke:#000000;" x="157.197217" xlink:href="#C4_0_1012b5389e" y="75.403302"/>
    </g>
    <g clip-path="url(#paee48c7710)">
     <use style="fill:#cbb6a2;stroke:#000000;" x="153.397382" xlink:href="#C4_0_1012b5389e" y="74.178255"/>
    </g>
    <g clip-path="url(#paee48c7710)">
     <use style="fill:#cbb6a2;stroke:#000000;" x="136.92634" xlink:href="#C4_0_1012b5389e" y="67.489169"/>
    </g>
    <g clip-path="url(#paee48c7710)">
     <use style="fill:#cbb6a2;stroke:#000000;" x="147.39137" xlink:href="#C4_0_1012b5389e" y="73.851416"/>
    </g>
    <g clip-path="url(#paee48c7710)">
     <use style="fill:#cbb6a2;stroke:#000000;" x="138.096444" xlink:href="#C4_0_1012b5389e" y="66.254181"/>
    </g>
    <g clip-path="url(#paee48c7710)">
     <use style="fill:#cbb6a2;stroke:#000000;" x="149.631693" xlink:href="#C4_0_1012b5389e" y="74.510316"/>
    </g>
    <g clip-path="url(#paee48c7710)">
     <use style="fill:#cbb6a2;stroke:#000000;" x="137.692662" xlink:href="#C4_0_1012b5389e" y="82.155808"/>
    </g>
    <g clip-path="url(#paee48c7710)">
     <use style="fill:#cbb6a2;stroke:#000000;" x="136.530901" xlink:href="#C4_0_1012b5389e" y="67.854098"/>
    </g>
    <g clip-path="url(#paee48c7710)">
     <use style="fill:#cbb6a2;stroke:#000000;" x="133.051351" xlink:href="#C4_0_1012b5389e" y="69.672613"/>
    </g>
   </g>
   <g id="PathCollection_6">
    <defs>
     <path d="M 0 3 
C 0.795609 3 1.55874 2.683901 2.12132 2.12132 
C 2.683901 1.55874 3 0.795609 3 -0 
C 3 -0.795609 2.683901 -1.55874 2.12132 -2.12132 
C 1.55874 -2.683901 0.795609 -3 0 -3 
C -0.795609 -3 -1.55874 -2.683901 -2.12132 -2.12132 
C -2.683901 -1.55874 -3 -0.795609 -3 0 
C -3 0.795609 -2.683901 1.55874 -2.12132 2.12132 
C -1.55874 2.683901 -0.795609 3 0 3 
z
" id="C5_0_4aa5fbaf19"/>
    </defs>
    <g clip-path="url(#paee48c7710)">
     <use style="fill:#cbb6a2;stroke:#000000;" x="123.874794" xlink:href="#C5_0_4aa5fbaf19" y="38.91441"/>
    </g>
    <g clip-path="url(#paee48c7710)">
     <use style="fill:#cbb6a2;stroke:#000000;" x="130.567422" xlink:href="#C5_0_4aa5fbaf19" y="33.344164"/>
    </g>
    <g clip-path="url(#paee48c7710)">
     <use style="fill:#cbb6a2;stroke:#000000;" x="115.13661" xlink:href="#C5_0_4aa5fbaf19" y="33.492106"/>
    </g>
    <g clip-path="url(#paee48c7710)">
     <use style="fill:#cbb6a2;stroke:#000000;" x="115.693751" xlink:href="#C5_0_4aa5fbaf19" y="36.730104"/>
    </g>
    <g clip-path="url(#paee48c7710)">
     <use style="fill:#cbb6a2;stroke:#000000;" x="119.589794" xlink:href="#C5_0_4aa5fbaf19" y="47.997463"/>
    </g>
    <g clip-path="url(#paee48c7710)">
     <use style="fill:#cbb6a2;stroke:#000000;" x="117.886873" xlink:href="#C5_0_4aa5fbaf19" y="38.23258"/>
    </g>
    <g clip-path="url(#paee48c7710)">
     <use style="fill:#cbb6a2;stroke:#000000;" x="118.93365" xlink:href="#C5_0_4aa5fbaf19" y="44.886267"/>
    </g>
    <g clip-path="url(#paee48c7710)">
     <use style="fill:#cbb6a2;stroke:#000000;" x="125.499298" xlink:href="#C5_0_4aa5fbaf19" y="42.448576"/>
    </g>
   </g>
   <g id="PathCollection_7">
    <defs>
     <path d="M 0 3 
C 0.795609 3 1.55874 2.683901 2.12132 2.12132 
C 2.683901 1.55874 3 0.795609 3 -0 
C 3 -0.795609 2.683901 -1.55874 2.12132 -2.12132 
C 1.55874 -2.683901 0.795609 -3 0 -3 
C -0.795609 -3 -1.55874 -2.683901 -2.12132 -2.12132 
C -2.683901 -1.55874 -3 -0.795609 -3 0 
C -3 0.795609 -2.683901 1.55874 -2.12132 2.12132 
C -1.55874 2.683901 -0.795609 3 0 3 
z
" id="C6_0_5a6ab114d3"/>
    </defs>
    <g clip-path="url(#paee48c7710)">
     <use style="fill:#ffffff;stroke:#000000;" x="241.748295" xlink:href="#C6_0_5a6ab114d3" y="202.431276"/>
    </g>
    <g clip-path="url(#paee48c7710)">
     <use style="fill:#ffffff;stroke:#000000;" x="247.115728" xlink:href="#C6_0_5a6ab114d3" y="207.931103"/>
    </g>
    <g clip-path="url(#paee48c7710)">
     <use style="fill:#ffffff;stroke:#000000;" x="227.513004" xlink:href="#C6_0_5a6ab114d3" y="211.519675"/>
    </g>
    <g clip-path="url(#paee48c7710)">
     <use style="fill:#ffffff;stroke:#000000;" x="235.044321" xlink:href="#C6_0_5a6ab114d3" y="211.33268"/>
    </g>
    <g clip-path="url(#paee48c7710)">
     <use style="fill:#ffffff;stroke:#000000;" x="242.966591" xlink:href="#C6_0_5a6ab114d3" y="213.548597"/>
    </g>
    <g clip-path="url(#paee48c7710)">
     <use style="fill:#ffffff;stroke:#000000;" x="238.878408" xlink:href="#C6_0_5a6ab114d3" y="203.560527"/>
    </g>
    <g clip-path="url(#paee48c7710)">
     <use style="fill:#ffffff;stroke:#000000;" x="235.745772" xlink:href="#C6_0_5a6ab114d3" y="215.468769"/>
    </g>
    <g clip-path="url(#paee48c7710)">
     <use style="fill:#ffffff;stroke:#000000;" x="238.90612" xlink:href="#C6_0_5a6ab114d3" y="212.697066"/>
    </g>
    <g clip-path="url(#paee48c7710)">
     <use style="fill:#ffffff;stroke:#000000;" x="238.780714" xlink:href="#C6_0_5a6ab114d3" y="217.298218"/>
    </g>
   </g>
   <g id="PathCollection_8">
    <defs>
     <path d="M 0 3 
C 0.795609 3 1.55874 2.683901 2.12132 2.12132 
C 2.683901 1.55874 3 0.795609 3 -0 
C 3 -0.795609 2.683901 -1.55874 2.12132 -2.12132 
C 1.55874 -2.683901 0.795609 -3 0 -3 
C -0.795609 -3 -1.55874 -2.683901 -2.12132 -2.12132 
C -2.683901 -1.55874 -3 -0.795609 -3 0 
C -3 0.795609 -2.683901 1.55874 -2.12132 2.12132 
C -1.55874 2.683901 -0.795609 3 0 3 
z
" id="C7_0_394a628624"/>
    </defs>
    <g clip-path="url(#paee48c7710)">
     <use style="fill:#ffffff;stroke:#000000;" x="178.671033" xlink:href="#C7_0_394a628624" y="178.120341"/>
    </g>
    <g clip-path="url(#paee48c7710)">
     <use style="fill:#ffffff;stroke:#000000;" x="180.232534" xlink:href="#C7_0_394a628624" y="182.544624"/>
    </g>
    <g clip-path="url(#paee48c7710)">
     <use style="fill:#ffffff;stroke:#000000;" x="182.899182" xlink:href="#C7_0_394a628624" y="173.550204"/>
    </g>
    <g clip-path="url(#paee48c7710)">
     <use style="fill:#ffffff;stroke:#000000;" x="160.374308" xlink:href="#C7_0_394a628624" y="169.304484"/>
    </g>
    <g clip-path="url(#paee48c7710)">
     <use style="fill:#ffffff;stroke:#000000;" x="159.429414" xlink:href="#C7_0_394a628624" y="181.973915"/>
    </g>
    <g clip-path="url(#paee48c7710)">
     <use style="fill:#ffffff;stroke:#000000;" x="163.824895" xlink:href="#C7_0_394a628624" y="175.07782"/>
    </g>
    <g clip-path="url(#paee48c7710)">
     <use style="fill:#ffffff;stroke:#000000;" x="184.102363" xlink:href="#C7_0_394a628624" y="182.366167"/>
    </g>
    <g clip-path="url(#paee48c7710)">
     <use style="fill:#ffffff;stroke:#000000;" x="182.153642" xlink:href="#C7_0_394a628624" y="183.119752"/>
    </g>
    <g clip-path="url(#paee48c7710)">
     <use style="fill:#ffffff;stroke:#000000;" x="185.549895" xlink:href="#C7_0_394a628624" y="167.361675"/>
    </g>
   </g>
   <g id="PathCollection_9">
    <defs>
     <path d="M 0 3 
C 0.795609 3 1.55874 2.683901 2.12132 2.12132 
C 2.683901 1.55874 3 0.795609 3 -0 
C 3 -0.795609 2.683901 -1.55874 2.12132 -2.12132 
C 1.55874 -2.683901 0.795609 -3 0 -3 
C -0.795609 -3 -1.55874 -2.683901 -2.12132 -2.12132 
C -2.683901 -1.55874 -3 -0.795609 -3 0 
C -3 0.795609 -2.683901 1.55874 -2.12132 2.12132 
C -1.55874 2.683901 -0.795609 3 0 3 
z
" id="C8_0_6f6d085db3"/>
    </defs>
    <g clip-path="url(#paee48c7710)">
     <use style="fill:#ffffff;stroke:#000000;" x="197.751016" xlink:href="#C8_0_6f6d085db3" y="139.258673"/>
    </g>
    <g clip-path="url(#paee48c7710)">
     <use style="fill:#ffffff;stroke:#000000;" x="198.425607" xlink:href="#C8_0_6f6d085db3" y="139.053973"/>
    </g>
    <g clip-path="url(#paee48c7710)">
     <use style="fill:#ffffff;stroke:#000000;" x="197.39496" xlink:href="#C8_0_6f6d085db3" y="133.653511"/>
    </g>
    <g clip-path="url(#paee48c7710)">
     <use style="fill:#ffffff;stroke:#000000;" x="192.480447" xlink:href="#C8_0_6f6d085db3" y="138.427663"/>
    </g>
    <g clip-path="url(#paee48c7710)">
     <use style="fill:#ffffff;stroke:#000000;" x="187.232062" xlink:href="#C8_0_6f6d085db3" y="141.976788"/>
    </g>
    <g clip-path="url(#paee48c7710)">
     <use style="fill:#ffffff;stroke:#000000;" x="176.792458" xlink:href="#C8_0_6f6d085db3" y="138.182695"/>
    </g>
    <g clip-path="url(#paee48c7710)">
     <use style="fill:#ffffff;stroke:#000000;" x="188.909172" xlink:href="#C8_0_6f6d085db3" y="144.00797"/>
    </g>
    <g clip-path="url(#paee48c7710)">
     <use style="fill:#ffffff;stroke:#000000;" x="194.089086" xlink:href="#C8_0_6f6d085db3" y="148.456236"/>
    </g>
    <g clip-path="url(#paee48c7710)">
     <use style="fill:#ffffff;stroke:#000000;" x="188.119654" xlink:href="#C8_0_6f6d085db3" y="149.042533"/>
    </g>
   </g>
   <g id="PathCollection_10">
    <defs>
     <path d="M 0 3 
C 0.795609 3 1.55874 2.683901 2.12132 2.12132 
C 2.683901 1.55874 3 0.795609 3 -0 
C 3 -0.795609 2.683901 -1.55874 2.12132 -2.12132 
C 1.55874 -2.683901 0.795609 -3 0 -3 
C -0.795609 -3 -1.55874 -2.683901 -2.12132 -2.12132 
C -2.683901 -1.55874 -3 -0.795609 -3 0 
C -3 0.795609 -2.683901 1.55874 -2.12132 2.12132 
C -1.55874 2.683901 -0.795609 3 0 3 
z
" id="C9_0_dbc6ed06c6"/>
    </defs>
    <g clip-path="url(#paee48c7710)">
     <use style="fill:#ffffff;stroke:#000000;" x="187.666259" xlink:href="#C9_0_dbc6ed06c6" y="107.189875"/>
    </g>
    <g clip-path="url(#paee48c7710)">
     <use style="fill:#ffffff;stroke:#000000;" x="185.490971" xlink:href="#C9_0_dbc6ed06c6" y="112.943166"/>
    </g>
    <g clip-path="url(#paee48c7710)">
     <use style="fill:#ffffff;stroke:#000000;" x="172.609072" xlink:href="#C9_0_dbc6ed06c6" y="111.645787"/>
    </g>
    <g clip-path="url(#paee48c7710)">
     <use style="fill:#ffffff;stroke:#000000;" x="170.322956" xlink:href="#C9_0_dbc6ed06c6" y="111.093583"/>
    </g>
    <g clip-path="url(#paee48c7710)">
     <use style="fill:#ffffff;stroke:#000000;" x="181.347645" xlink:href="#C9_0_dbc6ed06c6" y="101.944047"/>
    </g>
    <g clip-path="url(#paee48c7710)">
     <use style="fill:#ffffff;stroke:#000000;" x="178.981494" xlink:href="#C9_0_dbc6ed06c6" y="111.145868"/>
    </g>
    <g clip-path="url(#paee48c7710)">
     <use style="fill:#ffffff;stroke:#000000;" x="164.147091" xlink:href="#C9_0_dbc6ed06c6" y="103.376166"/>
    </g>
    <g clip-path="url(#paee48c7710)">
     <use style="fill:#ffffff;stroke:#000000;" x="162.37637" xlink:href="#C9_0_dbc6ed06c6" y="104.889357"/>
    </g>
    <g clip-path="url(#paee48c7710)">
     <use style="fill:#ffffff;stroke:#000000;" x="158.086267" xlink:href="#C9_0_dbc6ed06c6" y="103.186373"/>
    </g>
    <g clip-path="url(#paee48c7710)">
     <use style="fill:#ffffff;stroke:#000000;" x="178.531306" xlink:href="#C9_0_dbc6ed06c6" y="114.008045"/>
    </g>
    <g clip-path="url(#paee48c7710)">
     <use style="fill:#ffffff;stroke:#000000;" x="159.99052" xlink:href="#C9_0_dbc6ed06c6" y="103.555554"/>
    </g>
    <g clip-path="url(#paee48c7710)">
     <use style="fill:#ffffff;stroke:#000000;" x="153.259061" xlink:href="#C9_0_dbc6ed06c6" y="108.258291"/>
    </g>
   </g>
   <g id="PathCollection_11">
    <defs>
     <path d="M 0 3 
C 0.795609 3 1.55874 2.683901 2.12132 2.12132 
C 2.683901 1.55874 3 0.795609 3 -0 
C 3 -0.795609 2.683901 -1.55874 2.12132 -2.12132 
C 1.55874 -2.683901 0.795609 -3 0 -3 
C -0.795609 -3 -1.55874 -2.683901 -2.12132 -2.12132 
C -2.683901 -1.55874 -3 -0.795609 -3 0 
C -3 0.795609 -2.683901 1.55874 -2.12132 2.12132 
C -1.55874 2.683901 -0.795609 3 0 3 
z
" id="Ca_0_c319074c4e"/>
    </defs>
    <g clip-path="url(#paee48c7710)">
     <use style="fill:#ffffff;stroke:#000000;" x="164.173416" xlink:href="#Ca_0_c319074c4e" y="77.040581"/>
    </g>
    <g clip-path="url(#paee48c7710)">
     <use style="fill:#ffffff;stroke:#000000;" x="159.726445" xlink:href="#Ca_0_c319074c4e" y="76.595003"/>
    </g>
    <g clip-path="url(#paee48c7710)">
     <use style="fill:#ffffff;stroke:#000000;" x="156.423571" xlink:href="#Ca_0_c319074c4e" y="68.94716"/>
    </g>
    <g clip-path="url(#paee48c7710)">
     <use style="fill:#ffffff;stroke:#000000;" x="152.242729" xlink:href="#Ca_0_c319074c4e" y="79.37775"/>
    </g>
    <g clip-path="url(#paee48c7710)">
     <use style="fill:#ffffff;stroke:#000000;" x="140.761636" xlink:href="#Ca_0_c319074c4e" y="66.39302"/>
    </g>
    <g clip-path="url(#paee48c7710)">
     <use style="fill:#ffffff;stroke:#000000;" x="141.583755" xlink:href="#Ca_0_c319074c4e" y="80.104814"/>
    </g>
    <g clip-path="url(#paee48c7710)">
     <use style="fill:#ffffff;stroke:#000000;" x="137.829648" xlink:href="#Ca_0_c319074c4e" y="68.488839"/>
    </g>
    <g clip-path="url(#paee48c7710)">
     <use style="fill:#ffffff;stroke:#000000;" x="125.786168" xlink:href="#Ca_0_c319074c4e" y="73.284393"/>
    </g>
    <g clip-path="url(#paee48c7710)">
     <use style="fill:#ffffff;stroke:#000000;" x="137.626025" xlink:href="#Ca_0_c319074c4e" y="81.959387"/>
    </g>
    <g clip-path="url(#paee48c7710)">
     <use style="fill:#ffffff;stroke:#000000;" x="151.469189" xlink:href="#Ca_0_c319074c4e" y="72.126253"/>
    </g>
    <g clip-path="url(#paee48c7710)">
     <use style="fill:#ffffff;stroke:#000000;" x="134.693518" xlink:href="#Ca_0_c319074c4e" y="77.740781"/>
    </g>
    <g clip-path="url(#paee48c7710)">
     <use style="fill:#ffffff;stroke:#000000;" x="127.932884" xlink:href="#Ca_0_c319074c4e" y="73.419501"/>
    </g>
   </g>
   <g id="PathCollection_12">
    <defs>
     <path d="M 0 3 
C 0.795609 3 1.55874 2.683901 2.12132 2.12132 
C 2.683901 1.55874 3 0.795609 3 -0 
C 3 -0.795609 2.683901 -1.55874 2.12132 -2.12132 
C 1.55874 -2.683901 0.795609 -3 0 -3 
C -0.795609 -3 -1.55874 -2.683901 -2.12132 -2.12132 
C -2.683901 -1.55874 -3 -0.795609 -3 0 
C -3 0.795609 -2.683901 1.55874 -2.12132 2.12132 
C -1.55874 2.683901 -0.795609 3 0 3 
z
" id="Cb_0_0216200623"/>
    </defs>
    <g clip-path="url(#paee48c7710)">
     <use style="fill:#ffffff;stroke:#000000;" x="129.685714" xlink:href="#Cb_0_0216200623" y="34.874674"/>
    </g>
    <g clip-path="url(#paee48c7710)">
     <use style="fill:#ffffff;stroke:#000000;" x="130.47868" xlink:href="#Cb_0_0216200623" y="38.333789"/>
    </g>
    <g clip-path="url(#paee48c7710)">
     <use style="fill:#ffffff;stroke:#000000;" x="110.669252" xlink:href="#Cb_0_0216200623" y="45.410122"/>
    </g>
    <g clip-path="url(#paee48c7710)">
     <use style="fill:#ffffff;stroke:#000000;" x="117.415927" xlink:href="#Cb_0_0216200623" y="44.298588"/>
    </g>
    <g clip-path="url(#paee48c7710)">
     <use style="fill:#ffffff;stroke:#000000;" x="117.495609" xlink:href="#Cb_0_0216200623" y="38.16072"/>
    </g>
    <g clip-path="url(#paee48c7710)">
     <use style="fill:#ffffff;stroke:#000000;" x="116.300871" xlink:href="#Cb_0_0216200623" y="35.060579"/>
    </g>
    <g clip-path="url(#paee48c7710)">
     <use style="fill:#ffffff;stroke:#000000;" x="108.365094" xlink:href="#Cb_0_0216200623" y="43.038226"/>
    </g>
    <g clip-path="url(#paee48c7710)">
     <use style="fill:#ffffff;stroke:#000000;" x="109.550998" xlink:href="#Cb_0_0216200623" y="42.948656"/>
    </g>
   </g>
  </g>
 </g>
 <defs>
  <clipPath id="paee48c7710">
   <rect height="227.304" width="334.8" x="60.079688" y="7.2"/>
  </clipPath>
 </defs>
</svg>
