<?xml version="1.0" encoding="utf-8" standalone="no"?>
<!DOCTYPE svg PUBLIC "-//W3C//DTD SVG 1.1//EN"
  "http://www.w3.org/Graphics/SVG/1.1/DTD/svg11.dtd">
<!-- Created with matplotlib (https://matplotlib.org/) -->
<svg height="432pt" version="1.1" viewBox="0 0 432 432" width="432pt" xmlns="http://www.w3.org/2000/svg" xmlns:xlink="http://www.w3.org/1999/xlink">
 <metadata>
  <rdf:RDF xmlns:cc="http://creativecommons.org/ns#" xmlns:dc="http://purl.org/dc/elements/1.1/" xmlns:rdf="http://www.w3.org/1999/02/22-rdf-syntax-ns#">
   <cc:Work>
    <dc:type rdf:resource="http://purl.org/dc/dcmitype/StillImage"/>
    <dc:date>2022-02-14T01:52:20.220364</dc:date>
    <dc:format>image/svg+xml</dc:format>
    <dc:creator>
     <cc:Agent>
      <dc:title>Matplotlib v3.3.4, https://matplotlib.org/</dc:title>
     </cc:Agent>
    </dc:creator>
   </cc:Work>
  </rdf:RDF>
 </metadata>
 <defs>
  <style type="text/css">*{stroke-linecap:butt;stroke-linejoin:round;}</style>
 </defs>
 <g id="figure_1">
  <g id="patch_1">
   <path d="M 0 432 
L 432 432 
L 432 0 
L 0 0 
z
" style="fill:#ffffff;"/>
  </g>
  <g id="axes_1">
   <g id="patch_2">
    <path d="M 54 384.48 
L 388.8 384.48 
L 388.8 51.84 
L 54 51.84 
z
" style="fill:#ffffff;"/>
   </g>
   <g id="matplotlib.axis_1">
    <g id="xtick_1">
     <g id="line2d_1">
      <defs>
       <path d="M 0 0 
L 0 3.5 
" id="m31bf9ad5e3" style="stroke:#000000;stroke-width:0.8;"/>
      </defs>
      <g>
       <use style="stroke:#000000;stroke-width:0.8;" x="54" xlink:href="#m31bf9ad5e3" y="384.48"/>
      </g>
     </g>
     <g id="text_1">
      <!-- 0 -->
      <g transform="translate(50.81875 399.078438)scale(0.1 -0.1)">
       <defs>
        <path d="M 31.78125 66.40625 
Q 24.171875 66.40625 20.328125 58.90625 
Q 16.5 51.421875 16.5 36.375 
Q 16.5 21.390625 20.328125 13.890625 
Q 24.171875 6.390625 31.78125 6.390625 
Q 39.453125 6.390625 43.28125 13.890625 
Q 47.125 21.390625 47.125 36.375 
Q 47.125 51.421875 43.28125 58.90625 
Q 39.453125 66.40625 31.78125 66.40625 
z
M 31.78125 74.21875 
Q 44.046875 74.21875 50.515625 64.515625 
Q 56.984375 54.828125 56.984375 36.375 
Q 56.984375 17.96875 50.515625 8.265625 
Q 44.046875 -1.421875 31.78125 -1.421875 
Q 19.53125 -1.421875 13.0625 8.265625 
Q 6.59375 17.96875 6.59375 36.375 
Q 6.59375 54.828125 13.0625 64.515625 
Q 19.53125 74.21875 31.78125 74.21875 
z
" id="DejaVuSans-48"/>
       </defs>
       <use xlink:href="#DejaVuSans-48"/>
      </g>
     </g>
    </g>
    <g id="xtick_2">
     <g id="line2d_2">
      <g>
       <use style="stroke:#000000;stroke-width:0.8;" x="95.85" xlink:href="#m31bf9ad5e3" y="384.48"/>
      </g>
     </g>
     <g id="text_2">
      <!-- 1 -->
      <g transform="translate(92.66875 399.078438)scale(0.1 -0.1)">
       <defs>
        <path d="M 12.40625 8.296875 
L 28.515625 8.296875 
L 28.515625 63.921875 
L 10.984375 60.40625 
L 10.984375 69.390625 
L 28.421875 72.90625 
L 38.28125 72.90625 
L 38.28125 8.296875 
L 54.390625 8.296875 
L 54.390625 0 
L 12.40625 0 
z
" id="DejaVuSans-49"/>
       </defs>
       <use xlink:href="#DejaVuSans-49"/>
      </g>
     </g>
    </g>
    <g id="xtick_3">
     <g id="line2d_3">
      <g>
       <use style="stroke:#000000;stroke-width:0.8;" x="137.7" xlink:href="#m31bf9ad5e3" y="384.48"/>
      </g>
     </g>
     <g id="text_3">
      <!-- 2 -->
      <g transform="translate(134.51875 399.078438)scale(0.1 -0.1)">
       <defs>
        <path d="M 19.1875 8.296875 
L 53.609375 8.296875 
L 53.609375 0 
L 7.328125 0 
L 7.328125 8.296875 
Q 12.9375 14.109375 22.625 23.890625 
Q 32.328125 33.6875 34.8125 36.53125 
Q 39.546875 41.84375 41.421875 45.53125 
Q 43.3125 49.21875 43.3125 52.78125 
Q 43.3125 58.59375 39.234375 62.25 
Q 35.15625 65.921875 28.609375 65.921875 
Q 23.96875 65.921875 18.8125 64.3125 
Q 13.671875 62.703125 7.8125 59.421875 
L 7.8125 69.390625 
Q 13.765625 71.78125 18.9375 73 
Q 24.125 74.21875 28.421875 74.21875 
Q 39.75 74.21875 46.484375 68.546875 
Q 53.21875 62.890625 53.21875 53.421875 
Q 53.21875 48.921875 51.53125 44.890625 
Q 49.859375 40.875 45.40625 35.40625 
Q 44.1875 33.984375 37.640625 27.21875 
Q 31.109375 20.453125 19.1875 8.296875 
z
" id="DejaVuSans-50"/>
       </defs>
       <use xlink:href="#DejaVuSans-50"/>
      </g>
     </g>
    </g>
    <g id="xtick_4">
     <g id="line2d_4">
      <g>
       <use style="stroke:#000000;stroke-width:0.8;" x="179.55" xlink:href="#m31bf9ad5e3" y="384.48"/>
      </g>
     </g>
     <g id="text_4">
      <!-- 3 -->
      <g transform="translate(176.36875 399.078438)scale(0.1 -0.1)">
       <defs>
        <path d="M 40.578125 39.3125 
Q 47.65625 37.796875 51.625 33 
Q 55.609375 28.21875 55.609375 21.1875 
Q 55.609375 10.40625 48.1875 4.484375 
Q 40.765625 -1.421875 27.09375 -1.421875 
Q 22.515625 -1.421875 17.65625 -0.515625 
Q 12.796875 0.390625 7.625 2.203125 
L 7.625 11.71875 
Q 11.71875 9.328125 16.59375 8.109375 
Q 21.484375 6.890625 26.8125 6.890625 
Q 36.078125 6.890625 40.9375 10.546875 
Q 45.796875 14.203125 45.796875 21.1875 
Q 45.796875 27.640625 41.28125 31.265625 
Q 36.765625 34.90625 28.71875 34.90625 
L 20.21875 34.90625 
L 20.21875 43.015625 
L 29.109375 43.015625 
Q 36.375 43.015625 40.234375 45.921875 
Q 44.09375 48.828125 44.09375 54.296875 
Q 44.09375 59.90625 40.109375 62.90625 
Q 36.140625 65.921875 28.71875 65.921875 
Q 24.65625 65.921875 20.015625 65.03125 
Q 15.375 64.15625 9.8125 62.3125 
L 9.8125 71.09375 
Q 15.4375 72.65625 20.34375 73.4375 
Q 25.25 74.21875 29.59375 74.21875 
Q 40.828125 74.21875 47.359375 69.109375 
Q 53.90625 64.015625 53.90625 55.328125 
Q 53.90625 49.265625 50.4375 45.09375 
Q 46.96875 40.921875 40.578125 39.3125 
z
" id="DejaVuSans-51"/>
       </defs>
       <use xlink:href="#DejaVuSans-51"/>
      </g>
     </g>
    </g>
    <g id="xtick_5">
     <g id="line2d_5">
      <g>
       <use style="stroke:#000000;stroke-width:0.8;" x="221.4" xlink:href="#m31bf9ad5e3" y="384.48"/>
      </g>
     </g>
     <g id="text_5">
      <!-- 4 -->
      <g transform="translate(218.21875 399.078438)scale(0.1 -0.1)">
       <defs>
        <path d="M 37.796875 64.3125 
L 12.890625 25.390625 
L 37.796875 25.390625 
z
M 35.203125 72.90625 
L 47.609375 72.90625 
L 47.609375 25.390625 
L 58.015625 25.390625 
L 58.015625 17.1875 
L 47.609375 17.1875 
L 47.609375 0 
L 37.796875 0 
L 37.796875 17.1875 
L 4.890625 17.1875 
L 4.890625 26.703125 
z
" id="DejaVuSans-52"/>
       </defs>
       <use xlink:href="#DejaVuSans-52"/>
      </g>
     </g>
    </g>
    <g id="xtick_6">
     <g id="line2d_6">
      <g>
       <use style="stroke:#000000;stroke-width:0.8;" x="263.25" xlink:href="#m31bf9ad5e3" y="384.48"/>
      </g>
     </g>
     <g id="text_6">
      <!-- 5 -->
      <g transform="translate(260.06875 399.078438)scale(0.1 -0.1)">
       <defs>
        <path d="M 10.796875 72.90625 
L 49.515625 72.90625 
L 49.515625 64.59375 
L 19.828125 64.59375 
L 19.828125 46.734375 
Q 21.96875 47.46875 24.109375 47.828125 
Q 26.265625 48.1875 28.421875 48.1875 
Q 40.625 48.1875 47.75 41.5 
Q 54.890625 34.8125 54.890625 23.390625 
Q 54.890625 11.625 47.5625 5.09375 
Q 40.234375 -1.421875 26.90625 -1.421875 
Q 22.3125 -1.421875 17.546875 -0.640625 
Q 12.796875 0.140625 7.71875 1.703125 
L 7.71875 11.625 
Q 12.109375 9.234375 16.796875 8.0625 
Q 21.484375 6.890625 26.703125 6.890625 
Q 35.15625 6.890625 40.078125 11.328125 
Q 45.015625 15.765625 45.015625 23.390625 
Q 45.015625 31 40.078125 35.4375 
Q 35.15625 39.890625 26.703125 39.890625 
Q 22.75 39.890625 18.8125 39.015625 
Q 14.890625 38.140625 10.796875 36.28125 
z
" id="DejaVuSans-53"/>
       </defs>
       <use xlink:href="#DejaVuSans-53"/>
      </g>
     </g>
    </g>
    <g id="xtick_7">
     <g id="line2d_7">
      <g>
       <use style="stroke:#000000;stroke-width:0.8;" x="305.1" xlink:href="#m31bf9ad5e3" y="384.48"/>
      </g>
     </g>
     <g id="text_7">
      <!-- 6 -->
      <g transform="translate(301.91875 399.078438)scale(0.1 -0.1)">
       <defs>
        <path d="M 33.015625 40.375 
Q 26.375 40.375 22.484375 35.828125 
Q 18.609375 31.296875 18.609375 23.390625 
Q 18.609375 15.53125 22.484375 10.953125 
Q 26.375 6.390625 33.015625 6.390625 
Q 39.65625 6.390625 43.53125 10.953125 
Q 47.40625 15.53125 47.40625 23.390625 
Q 47.40625 31.296875 43.53125 35.828125 
Q 39.65625 40.375 33.015625 40.375 
z
M 52.59375 71.296875 
L 52.59375 62.3125 
Q 48.875 64.0625 45.09375 64.984375 
Q 41.3125 65.921875 37.59375 65.921875 
Q 27.828125 65.921875 22.671875 59.328125 
Q 17.53125 52.734375 16.796875 39.40625 
Q 19.671875 43.65625 24.015625 45.921875 
Q 28.375 48.1875 33.59375 48.1875 
Q 44.578125 48.1875 50.953125 41.515625 
Q 57.328125 34.859375 57.328125 23.390625 
Q 57.328125 12.15625 50.6875 5.359375 
Q 44.046875 -1.421875 33.015625 -1.421875 
Q 20.359375 -1.421875 13.671875 8.265625 
Q 6.984375 17.96875 6.984375 36.375 
Q 6.984375 53.65625 15.1875 63.9375 
Q 23.390625 74.21875 37.203125 74.21875 
Q 40.921875 74.21875 44.703125 73.484375 
Q 48.484375 72.75 52.59375 71.296875 
z
" id="DejaVuSans-54"/>
       </defs>
       <use xlink:href="#DejaVuSans-54"/>
      </g>
     </g>
    </g>
    <g id="xtick_8">
     <g id="line2d_8">
      <g>
       <use style="stroke:#000000;stroke-width:0.8;" x="346.95" xlink:href="#m31bf9ad5e3" y="384.48"/>
      </g>
     </g>
     <g id="text_8">
      <!-- 7 -->
      <g transform="translate(343.76875 399.078438)scale(0.1 -0.1)">
       <defs>
        <path d="M 8.203125 72.90625 
L 55.078125 72.90625 
L 55.078125 68.703125 
L 28.609375 0 
L 18.3125 0 
L 43.21875 64.59375 
L 8.203125 64.59375 
z
" id="DejaVuSans-55"/>
       </defs>
       <use xlink:href="#DejaVuSans-55"/>
      </g>
     </g>
    </g>
    <g id="xtick_9">
     <g id="line2d_9">
      <g>
       <use style="stroke:#000000;stroke-width:0.8;" x="388.8" xlink:href="#m31bf9ad5e3" y="384.48"/>
      </g>
     </g>
     <g id="text_9">
      <!-- 8 -->
      <g transform="translate(385.61875 399.078438)scale(0.1 -0.1)">
       <defs>
        <path d="M 31.78125 34.625 
Q 24.75 34.625 20.71875 30.859375 
Q 16.703125 27.09375 16.703125 20.515625 
Q 16.703125 13.921875 20.71875 10.15625 
Q 24.75 6.390625 31.78125 6.390625 
Q 38.8125 6.390625 42.859375 10.171875 
Q 46.921875 13.96875 46.921875 20.515625 
Q 46.921875 27.09375 42.890625 30.859375 
Q 38.875 34.625 31.78125 34.625 
z
M 21.921875 38.8125 
Q 15.578125 40.375 12.03125 44.71875 
Q 8.5 49.078125 8.5 55.328125 
Q 8.5 64.0625 14.71875 69.140625 
Q 20.953125 74.21875 31.78125 74.21875 
Q 42.671875 74.21875 48.875 69.140625 
Q 55.078125 64.0625 55.078125 55.328125 
Q 55.078125 49.078125 51.53125 44.71875 
Q 48 40.375 41.703125 38.8125 
Q 48.828125 37.15625 52.796875 32.3125 
Q 56.78125 27.484375 56.78125 20.515625 
Q 56.78125 9.90625 50.3125 4.234375 
Q 43.84375 -1.421875 31.78125 -1.421875 
Q 19.734375 -1.421875 13.25 4.234375 
Q 6.78125 9.90625 6.78125 20.515625 
Q 6.78125 27.484375 10.78125 32.3125 
Q 14.796875 37.15625 21.921875 38.8125 
z
M 18.3125 54.390625 
Q 18.3125 48.734375 21.84375 45.5625 
Q 25.390625 42.390625 31.78125 42.390625 
Q 38.140625 42.390625 41.71875 45.5625 
Q 45.3125 48.734375 45.3125 54.390625 
Q 45.3125 60.0625 41.71875 63.234375 
Q 38.140625 66.40625 31.78125 66.40625 
Q 25.390625 66.40625 21.84375 63.234375 
Q 18.3125 60.0625 18.3125 54.390625 
z
" id="DejaVuSans-56"/>
       </defs>
       <use xlink:href="#DejaVuSans-56"/>
      </g>
     </g>
    </g>
    <g id="text_10">
     <!-- Time (hours) -->
     <g transform="translate(164.19375 418.835312)scale(0.18 -0.18)">
      <defs>
       <path d="M -0.296875 72.90625 
L 61.375 72.90625 
L 61.375 64.59375 
L 35.5 64.59375 
L 35.5 0 
L 25.59375 0 
L 25.59375 64.59375 
L -0.296875 64.59375 
z
" id="DejaVuSans-84"/>
       <path d="M 9.421875 54.6875 
L 18.40625 54.6875 
L 18.40625 0 
L 9.421875 0 
z
M 9.421875 75.984375 
L 18.40625 75.984375 
L 18.40625 64.59375 
L 9.421875 64.59375 
z
" id="DejaVuSans-105"/>
       <path d="M 52 44.1875 
Q 55.375 50.25 60.0625 53.125 
Q 64.75 56 71.09375 56 
Q 79.640625 56 84.28125 50.015625 
Q 88.921875 44.046875 88.921875 33.015625 
L 88.921875 0 
L 79.890625 0 
L 79.890625 32.71875 
Q 79.890625 40.578125 77.09375 44.375 
Q 74.3125 48.1875 68.609375 48.1875 
Q 61.625 48.1875 57.5625 43.546875 
Q 53.515625 38.921875 53.515625 30.90625 
L 53.515625 0 
L 44.484375 0 
L 44.484375 32.71875 
Q 44.484375 40.625 41.703125 44.40625 
Q 38.921875 48.1875 33.109375 48.1875 
Q 26.21875 48.1875 22.15625 43.53125 
Q 18.109375 38.875 18.109375 30.90625 
L 18.109375 0 
L 9.078125 0 
L 9.078125 54.6875 
L 18.109375 54.6875 
L 18.109375 46.1875 
Q 21.1875 51.21875 25.484375 53.609375 
Q 29.78125 56 35.6875 56 
Q 41.65625 56 45.828125 52.96875 
Q 50 49.953125 52 44.1875 
z
" id="DejaVuSans-109"/>
       <path d="M 56.203125 29.59375 
L 56.203125 25.203125 
L 14.890625 25.203125 
Q 15.484375 15.921875 20.484375 11.0625 
Q 25.484375 6.203125 34.421875 6.203125 
Q 39.59375 6.203125 44.453125 7.46875 
Q 49.3125 8.734375 54.109375 11.28125 
L 54.109375 2.78125 
Q 49.265625 0.734375 44.1875 -0.34375 
Q 39.109375 -1.421875 33.890625 -1.421875 
Q 20.796875 -1.421875 13.15625 6.1875 
Q 5.515625 13.8125 5.515625 26.8125 
Q 5.515625 40.234375 12.765625 48.109375 
Q 20.015625 56 32.328125 56 
Q 43.359375 56 49.78125 48.890625 
Q 56.203125 41.796875 56.203125 29.59375 
z
M 47.21875 32.234375 
Q 47.125 39.59375 43.09375 43.984375 
Q 39.0625 48.390625 32.421875 48.390625 
Q 24.90625 48.390625 20.390625 44.140625 
Q 15.875 39.890625 15.1875 32.171875 
z
" id="DejaVuSans-101"/>
       <path id="DejaVuSans-32"/>
       <path d="M 31 75.875 
Q 24.46875 64.65625 21.28125 53.65625 
Q 18.109375 42.671875 18.109375 31.390625 
Q 18.109375 20.125 21.3125 9.0625 
Q 24.515625 -2 31 -13.1875 
L 23.1875 -13.1875 
Q 15.875 -1.703125 12.234375 9.375 
Q 8.59375 20.453125 8.59375 31.390625 
Q 8.59375 42.28125 12.203125 53.3125 
Q 15.828125 64.359375 23.1875 75.875 
z
" id="DejaVuSans-40"/>
       <path d="M 54.890625 33.015625 
L 54.890625 0 
L 45.90625 0 
L 45.90625 32.71875 
Q 45.90625 40.484375 42.875 44.328125 
Q 39.84375 48.1875 33.796875 48.1875 
Q 26.515625 48.1875 22.3125 43.546875 
Q 18.109375 38.921875 18.109375 30.90625 
L 18.109375 0 
L 9.078125 0 
L 9.078125 75.984375 
L 18.109375 75.984375 
L 18.109375 46.1875 
Q 21.34375 51.125 25.703125 53.5625 
Q 30.078125 56 35.796875 56 
Q 45.21875 56 50.046875 50.171875 
Q 54.890625 44.34375 54.890625 33.015625 
z
" id="DejaVuSans-104"/>
       <path d="M 30.609375 48.390625 
Q 23.390625 48.390625 19.1875 42.75 
Q 14.984375 37.109375 14.984375 27.296875 
Q 14.984375 17.484375 19.15625 11.84375 
Q 23.34375 6.203125 30.609375 6.203125 
Q 37.796875 6.203125 41.984375 11.859375 
Q 46.1875 17.53125 46.1875 27.296875 
Q 46.1875 37.015625 41.984375 42.703125 
Q 37.796875 48.390625 30.609375 48.390625 
z
M 30.609375 56 
Q 42.328125 56 49.015625 48.375 
Q 55.71875 40.765625 55.71875 27.296875 
Q 55.71875 13.875 49.015625 6.21875 
Q 42.328125 -1.421875 30.609375 -1.421875 
Q 18.84375 -1.421875 12.171875 6.21875 
Q 5.515625 13.875 5.515625 27.296875 
Q 5.515625 40.765625 12.171875 48.375 
Q 18.84375 56 30.609375 56 
z
" id="DejaVuSans-111"/>
       <path d="M 8.5 21.578125 
L 8.5 54.6875 
L 17.484375 54.6875 
L 17.484375 21.921875 
Q 17.484375 14.15625 20.5 10.265625 
Q 23.53125 6.390625 29.59375 6.390625 
Q 36.859375 6.390625 41.078125 11.03125 
Q 45.3125 15.671875 45.3125 23.6875 
L 45.3125 54.6875 
L 54.296875 54.6875 
L 54.296875 0 
L 45.3125 0 
L 45.3125 8.40625 
Q 42.046875 3.421875 37.71875 1 
Q 33.40625 -1.421875 27.6875 -1.421875 
Q 18.265625 -1.421875 13.375 4.4375 
Q 8.5 10.296875 8.5 21.578125 
z
M 31.109375 56 
z
" id="DejaVuSans-117"/>
       <path d="M 41.109375 46.296875 
Q 39.59375 47.171875 37.8125 47.578125 
Q 36.03125 48 33.890625 48 
Q 26.265625 48 22.1875 43.046875 
Q 18.109375 38.09375 18.109375 28.8125 
L 18.109375 0 
L 9.078125 0 
L 9.078125 54.6875 
L 18.109375 54.6875 
L 18.109375 46.1875 
Q 20.953125 51.171875 25.484375 53.578125 
Q 30.03125 56 36.53125 56 
Q 37.453125 56 38.578125 55.875 
Q 39.703125 55.765625 41.0625 55.515625 
z
" id="DejaVuSans-114"/>
       <path d="M 44.28125 53.078125 
L 44.28125 44.578125 
Q 40.484375 46.53125 36.375 47.5 
Q 32.28125 48.484375 27.875 48.484375 
Q 21.1875 48.484375 17.84375 46.4375 
Q 14.5 44.390625 14.5 40.28125 
Q 14.5 37.15625 16.890625 35.375 
Q 19.28125 33.59375 26.515625 31.984375 
L 29.59375 31.296875 
Q 39.15625 29.25 43.1875 25.515625 
Q 47.21875 21.78125 47.21875 15.09375 
Q 47.21875 7.46875 41.1875 3.015625 
Q 35.15625 -1.421875 24.609375 -1.421875 
Q 20.21875 -1.421875 15.453125 -0.5625 
Q 10.6875 0.296875 5.421875 2 
L 5.421875 11.28125 
Q 10.40625 8.6875 15.234375 7.390625 
Q 20.0625 6.109375 24.8125 6.109375 
Q 31.15625 6.109375 34.5625 8.28125 
Q 37.984375 10.453125 37.984375 14.40625 
Q 37.984375 18.0625 35.515625 20.015625 
Q 33.0625 21.96875 24.703125 23.78125 
L 21.578125 24.515625 
Q 13.234375 26.265625 9.515625 29.90625 
Q 5.8125 33.546875 5.8125 39.890625 
Q 5.8125 47.609375 11.28125 51.796875 
Q 16.75 56 26.8125 56 
Q 31.78125 56 36.171875 55.265625 
Q 40.578125 54.546875 44.28125 53.078125 
z
" id="DejaVuSans-115"/>
       <path d="M 8.015625 75.875 
L 15.828125 75.875 
Q 23.140625 64.359375 26.78125 53.3125 
Q 30.421875 42.28125 30.421875 31.390625 
Q 30.421875 20.453125 26.78125 9.375 
Q 23.140625 -1.703125 15.828125 -13.1875 
L 8.015625 -13.1875 
Q 14.5 -2 17.703125 9.0625 
Q 20.90625 20.125 20.90625 31.390625 
Q 20.90625 42.671875 17.703125 53.65625 
Q 14.5 64.65625 8.015625 75.875 
z
" id="DejaVuSans-41"/>
      </defs>
      <use xlink:href="#DejaVuSans-84"/>
      <use x="57.958984" xlink:href="#DejaVuSans-105"/>
      <use x="85.742188" xlink:href="#DejaVuSans-109"/>
      <use x="183.154297" xlink:href="#DejaVuSans-101"/>
      <use x="244.677734" xlink:href="#DejaVuSans-32"/>
      <use x="276.464844" xlink:href="#DejaVuSans-40"/>
      <use x="315.478516" xlink:href="#DejaVuSans-104"/>
      <use x="378.857422" xlink:href="#DejaVuSans-111"/>
      <use x="440.039062" xlink:href="#DejaVuSans-117"/>
      <use x="503.417969" xlink:href="#DejaVuSans-114"/>
      <use x="544.53125" xlink:href="#DejaVuSans-115"/>
      <use x="596.630859" xlink:href="#DejaVuSans-41"/>
     </g>
    </g>
   </g>
   <g id="matplotlib.axis_2">
    <g id="ytick_1">
     <g id="line2d_10">
      <path clip-path="url(#p1355090c51)" d="M 54 384.48 
L 388.8 384.48 
" style="fill:none;stroke:#b0b0b0;stroke-linecap:square;stroke-width:0.8;"/>
     </g>
     <g id="line2d_11">
      <defs>
       <path d="M 0 0 
L -3.5 0 
" id="m663d81ddf9" style="stroke:#000000;stroke-width:0.8;"/>
      </defs>
      <g>
       <use style="stroke:#000000;stroke-width:0.8;" x="54" xlink:href="#m663d81ddf9" y="384.48"/>
      </g>
     </g>
     <g id="text_11">
      <!-- 0.01 -->
      <g transform="translate(24.734375 388.279219)scale(0.1 -0.1)">
       <defs>
        <path d="M 10.6875 12.40625 
L 21 12.40625 
L 21 0 
L 10.6875 0 
z
" id="DejaVuSans-46"/>
       </defs>
       <use xlink:href="#DejaVuSans-48"/>
       <use x="63.623047" xlink:href="#DejaVuSans-46"/>
       <use x="95.410156" xlink:href="#DejaVuSans-48"/>
       <use x="159.033203" xlink:href="#DejaVuSans-49"/>
      </g>
     </g>
    </g>
    <g id="ytick_2">
     <g id="line2d_12">
      <path clip-path="url(#p1355090c51)" d="M 54 218.16 
L 388.8 218.16 
" style="fill:none;stroke:#b0b0b0;stroke-linecap:square;stroke-width:0.8;"/>
     </g>
     <g id="line2d_13">
      <g>
       <use style="stroke:#000000;stroke-width:0.8;" x="54" xlink:href="#m663d81ddf9" y="218.16"/>
      </g>
     </g>
     <g id="text_12">
      <!-- 0.1 -->
      <g transform="translate(31.096875 221.959219)scale(0.1 -0.1)">
       <use xlink:href="#DejaVuSans-48"/>
       <use x="63.623047" xlink:href="#DejaVuSans-46"/>
       <use x="95.410156" xlink:href="#DejaVuSans-49"/>
      </g>
     </g>
    </g>
    <g id="ytick_3">
     <g id="line2d_14">
      <path clip-path="url(#p1355090c51)" d="M 54 101.907309 
L 388.8 101.907309 
" style="fill:none;stroke:#b0b0b0;stroke-linecap:square;stroke-width:0.8;"/>
     </g>
     <g id="line2d_15">
      <g>
       <use style="stroke:#000000;stroke-width:0.8;" x="54" xlink:href="#m663d81ddf9" y="101.907309"/>
      </g>
     </g>
     <g id="text_13">
      <!-- 0.5 -->
      <g transform="translate(31.096875 105.706528)scale(0.1 -0.1)">
       <use xlink:href="#DejaVuSans-48"/>
       <use x="63.623047" xlink:href="#DejaVuSans-46"/>
       <use x="95.410156" xlink:href="#DejaVuSans-53"/>
      </g>
     </g>
    </g>
    <g id="ytick_4">
     <g id="line2d_16">
      <path clip-path="url(#p1355090c51)" d="M 54 51.84 
L 388.8 51.84 
" style="fill:none;stroke:#b0b0b0;stroke-linecap:square;stroke-width:0.8;"/>
     </g>
     <g id="line2d_17">
      <g>
       <use style="stroke:#000000;stroke-width:0.8;" x="54" xlink:href="#m663d81ddf9" y="51.84"/>
      </g>
     </g>
     <g id="text_14">
      <!-- 1 -->
      <g transform="translate(40.6375 55.639219)scale(0.1 -0.1)">
       <use xlink:href="#DejaVuSans-49"/>
      </g>
     </g>
    </g>
    <g id="ytick_5">
     <g id="line2d_18">
      <path clip-path="url(#p1355090c51)" d="M 54 168.092691 
L 388.8 168.092691 
" style="fill:none;stroke:#b0b0b0;stroke-linecap:square;stroke-width:0.8;"/>
     </g>
     <g id="line2d_19">
      <defs>
       <path d="M 0 0 
L -2 0 
" id="mcb5bb30ac6" style="stroke:#000000;stroke-width:0.6;"/>
      </defs>
      <g>
       <use style="stroke:#000000;stroke-width:0.6;" x="54" xlink:href="#mcb5bb30ac6" y="168.092691"/>
      </g>
     </g>
    </g>
    <g id="ytick_6">
     <g id="line2d_20">
      <path clip-path="url(#p1355090c51)" d="M 54 138.805193 
L 388.8 138.805193 
" style="fill:none;stroke:#b0b0b0;stroke-linecap:square;stroke-width:0.8;"/>
     </g>
     <g id="line2d_21">
      <g>
       <use style="stroke:#000000;stroke-width:0.6;" x="54" xlink:href="#mcb5bb30ac6" y="138.805193"/>
      </g>
     </g>
    </g>
    <g id="ytick_7">
     <g id="line2d_22">
      <path clip-path="url(#p1355090c51)" d="M 54 118.025382 
L 388.8 118.025382 
" style="fill:none;stroke:#b0b0b0;stroke-linecap:square;stroke-width:0.8;"/>
     </g>
     <g id="line2d_23">
      <g>
       <use style="stroke:#000000;stroke-width:0.6;" x="54" xlink:href="#mcb5bb30ac6" y="118.025382"/>
      </g>
     </g>
    </g>
    <g id="ytick_8">
     <g id="line2d_24">
      <path clip-path="url(#p1355090c51)" d="M 54 88.737884 
L 388.8 88.737884 
" style="fill:none;stroke:#b0b0b0;stroke-linecap:square;stroke-width:0.8;"/>
     </g>
     <g id="line2d_25">
      <g>
       <use style="stroke:#000000;stroke-width:0.6;" x="54" xlink:href="#mcb5bb30ac6" y="88.737884"/>
      </g>
     </g>
    </g>
    <g id="ytick_9">
     <g id="line2d_26">
      <path clip-path="url(#p1355090c51)" d="M 54 77.603294 
L 388.8 77.603294 
" style="fill:none;stroke:#b0b0b0;stroke-linecap:square;stroke-width:0.8;"/>
     </g>
     <g id="line2d_27">
      <g>
       <use style="stroke:#000000;stroke-width:0.6;" x="54" xlink:href="#mcb5bb30ac6" y="77.603294"/>
      </g>
     </g>
    </g>
    <g id="ytick_10">
     <g id="line2d_28">
      <path clip-path="url(#p1355090c51)" d="M 54 67.958073 
L 388.8 67.958073 
" style="fill:none;stroke:#b0b0b0;stroke-linecap:square;stroke-width:0.8;"/>
     </g>
     <g id="line2d_29">
      <g>
       <use style="stroke:#000000;stroke-width:0.6;" x="54" xlink:href="#mcb5bb30ac6" y="67.958073"/>
      </g>
     </g>
    </g>
    <g id="ytick_11">
     <g id="line2d_30">
      <path clip-path="url(#p1355090c51)" d="M 54 59.450386 
L 388.8 59.450386 
" style="fill:none;stroke:#b0b0b0;stroke-linecap:square;stroke-width:0.8;"/>
     </g>
     <g id="line2d_31">
      <g>
       <use style="stroke:#000000;stroke-width:0.6;" x="54" xlink:href="#mcb5bb30ac6" y="59.450386"/>
      </g>
     </g>
    </g>
    <g id="text_15">
     <!-- OD600 (Absorbance) -->
     <g transform="translate(16.990937 312.420937)rotate(-90)scale(0.18 -0.18)">
      <defs>
       <path d="M 39.40625 66.21875 
Q 28.65625 66.21875 22.328125 58.203125 
Q 16.015625 50.203125 16.015625 36.375 
Q 16.015625 22.609375 22.328125 14.59375 
Q 28.65625 6.59375 39.40625 6.59375 
Q 50.140625 6.59375 56.421875 14.59375 
Q 62.703125 22.609375 62.703125 36.375 
Q 62.703125 50.203125 56.421875 58.203125 
Q 50.140625 66.21875 39.40625 66.21875 
z
M 39.40625 74.21875 
Q 54.734375 74.21875 63.90625 63.9375 
Q 73.09375 53.65625 73.09375 36.375 
Q 73.09375 19.140625 63.90625 8.859375 
Q 54.734375 -1.421875 39.40625 -1.421875 
Q 24.03125 -1.421875 14.8125 8.828125 
Q 5.609375 19.09375 5.609375 36.375 
Q 5.609375 53.65625 14.8125 63.9375 
Q 24.03125 74.21875 39.40625 74.21875 
z
" id="DejaVuSans-79"/>
       <path d="M 19.671875 64.796875 
L 19.671875 8.109375 
L 31.59375 8.109375 
Q 46.6875 8.109375 53.6875 14.9375 
Q 60.6875 21.78125 60.6875 36.53125 
Q 60.6875 51.171875 53.6875 57.984375 
Q 46.6875 64.796875 31.59375 64.796875 
z
M 9.8125 72.90625 
L 30.078125 72.90625 
Q 51.265625 72.90625 61.171875 64.09375 
Q 71.09375 55.28125 71.09375 36.53125 
Q 71.09375 17.671875 61.125 8.828125 
Q 51.171875 0 30.078125 0 
L 9.8125 0 
z
" id="DejaVuSans-68"/>
       <path d="M 34.1875 63.1875 
L 20.796875 26.90625 
L 47.609375 26.90625 
z
M 28.609375 72.90625 
L 39.796875 72.90625 
L 67.578125 0 
L 57.328125 0 
L 50.6875 18.703125 
L 17.828125 18.703125 
L 11.1875 0 
L 0.78125 0 
z
" id="DejaVuSans-65"/>
       <path d="M 48.6875 27.296875 
Q 48.6875 37.203125 44.609375 42.84375 
Q 40.53125 48.484375 33.40625 48.484375 
Q 26.265625 48.484375 22.1875 42.84375 
Q 18.109375 37.203125 18.109375 27.296875 
Q 18.109375 17.390625 22.1875 11.75 
Q 26.265625 6.109375 33.40625 6.109375 
Q 40.53125 6.109375 44.609375 11.75 
Q 48.6875 17.390625 48.6875 27.296875 
z
M 18.109375 46.390625 
Q 20.953125 51.265625 25.265625 53.625 
Q 29.59375 56 35.59375 56 
Q 45.5625 56 51.78125 48.09375 
Q 58.015625 40.1875 58.015625 27.296875 
Q 58.015625 14.40625 51.78125 6.484375 
Q 45.5625 -1.421875 35.59375 -1.421875 
Q 29.59375 -1.421875 25.265625 0.953125 
Q 20.953125 3.328125 18.109375 8.203125 
L 18.109375 0 
L 9.078125 0 
L 9.078125 75.984375 
L 18.109375 75.984375 
z
" id="DejaVuSans-98"/>
       <path d="M 34.28125 27.484375 
Q 23.390625 27.484375 19.1875 25 
Q 14.984375 22.515625 14.984375 16.5 
Q 14.984375 11.71875 18.140625 8.90625 
Q 21.296875 6.109375 26.703125 6.109375 
Q 34.1875 6.109375 38.703125 11.40625 
Q 43.21875 16.703125 43.21875 25.484375 
L 43.21875 27.484375 
z
M 52.203125 31.203125 
L 52.203125 0 
L 43.21875 0 
L 43.21875 8.296875 
Q 40.140625 3.328125 35.546875 0.953125 
Q 30.953125 -1.421875 24.3125 -1.421875 
Q 15.921875 -1.421875 10.953125 3.296875 
Q 6 8.015625 6 15.921875 
Q 6 25.140625 12.171875 29.828125 
Q 18.359375 34.515625 30.609375 34.515625 
L 43.21875 34.515625 
L 43.21875 35.40625 
Q 43.21875 41.609375 39.140625 45 
Q 35.0625 48.390625 27.6875 48.390625 
Q 23 48.390625 18.546875 47.265625 
Q 14.109375 46.140625 10.015625 43.890625 
L 10.015625 52.203125 
Q 14.9375 54.109375 19.578125 55.046875 
Q 24.21875 56 28.609375 56 
Q 40.484375 56 46.34375 49.84375 
Q 52.203125 43.703125 52.203125 31.203125 
z
" id="DejaVuSans-97"/>
       <path d="M 54.890625 33.015625 
L 54.890625 0 
L 45.90625 0 
L 45.90625 32.71875 
Q 45.90625 40.484375 42.875 44.328125 
Q 39.84375 48.1875 33.796875 48.1875 
Q 26.515625 48.1875 22.3125 43.546875 
Q 18.109375 38.921875 18.109375 30.90625 
L 18.109375 0 
L 9.078125 0 
L 9.078125 54.6875 
L 18.109375 54.6875 
L 18.109375 46.1875 
Q 21.34375 51.125 25.703125 53.5625 
Q 30.078125 56 35.796875 56 
Q 45.21875 56 50.046875 50.171875 
Q 54.890625 44.34375 54.890625 33.015625 
z
" id="DejaVuSans-110"/>
       <path d="M 48.78125 52.59375 
L 48.78125 44.1875 
Q 44.96875 46.296875 41.140625 47.34375 
Q 37.3125 48.390625 33.40625 48.390625 
Q 24.65625 48.390625 19.8125 42.84375 
Q 14.984375 37.3125 14.984375 27.296875 
Q 14.984375 17.28125 19.8125 11.734375 
Q 24.65625 6.203125 33.40625 6.203125 
Q 37.3125 6.203125 41.140625 7.25 
Q 44.96875 8.296875 48.78125 10.40625 
L 48.78125 2.09375 
Q 45.015625 0.34375 40.984375 -0.53125 
Q 36.96875 -1.421875 32.421875 -1.421875 
Q 20.0625 -1.421875 12.78125 6.34375 
Q 5.515625 14.109375 5.515625 27.296875 
Q 5.515625 40.671875 12.859375 48.328125 
Q 20.21875 56 33.015625 56 
Q 37.15625 56 41.109375 55.140625 
Q 45.0625 54.296875 48.78125 52.59375 
z
" id="DejaVuSans-99"/>
      </defs>
      <use xlink:href="#DejaVuSans-79"/>
      <use x="78.710938" xlink:href="#DejaVuSans-68"/>
      <use x="155.712891" xlink:href="#DejaVuSans-54"/>
      <use x="219.335938" xlink:href="#DejaVuSans-48"/>
      <use x="282.958984" xlink:href="#DejaVuSans-48"/>
      <use x="346.582031" xlink:href="#DejaVuSans-32"/>
      <use x="378.369141" xlink:href="#DejaVuSans-40"/>
      <use x="417.382812" xlink:href="#DejaVuSans-65"/>
      <use x="485.791016" xlink:href="#DejaVuSans-98"/>
      <use x="549.267578" xlink:href="#DejaVuSans-115"/>
      <use x="601.367188" xlink:href="#DejaVuSans-111"/>
      <use x="662.548828" xlink:href="#DejaVuSans-114"/>
      <use x="703.662109" xlink:href="#DejaVuSans-98"/>
      <use x="767.138672" xlink:href="#DejaVuSans-97"/>
      <use x="828.417969" xlink:href="#DejaVuSans-110"/>
      <use x="891.796875" xlink:href="#DejaVuSans-99"/>
      <use x="946.777344" xlink:href="#DejaVuSans-101"/>
      <use x="1008.300781" xlink:href="#DejaVuSans-41"/>
     </g>
    </g>
   </g>
   <g id="line2d_32">
    <path clip-path="url(#p1355090c51)" d="M 59.638125 268.87224 
L 66.613125 244.49885 
L 73.588125 232.690496 
L 80.563125 242.898711 
L 87.538125 247.447498 
L 94.513125 259.470362 
L 101.488125 257.092719 
L 108.463125 260.328572 
L 115.438125 247.327212 
L 122.413125 230.372698 
L 129.388125 237.877558 
L 136.363125 246.13524 
L 143.338125 229.899044 
L 150.313125 232.006755 
L 157.288125 230.467802 
L 164.263125 234.077707 
L 171.238125 233.182876 
L 178.213125 235.7988 
L 185.188125 229.899044 
L 192.163125 232.690496 
L 199.138125 229.993527 
L 213.088125 225.948957 
L 227.038125 221.108649 
L 234.013125 218.724 
L 240.988125 216.493952 
L 247.963125 214.102717 
L 254.938125 212.30432 
L 261.913125 210.117518 
L 268.888125 208.134558 
L 275.863125 206.000827 
L 282.838125 204.391137 
L 289.813125 202.363673 
L 296.788125 200.769086 
L 303.763125 198.839468 
L 310.738125 197.199835 
L 317.713125 195.303566 
L 331.663125 193.171318 
L 338.638125 191.045052 
L 345.613125 190.168175 
L 352.588125 188.765571 
L 359.563125 187.65225 
L 366.538125 185.988088 
L 380.488125 183.363022 
L 401.413125 179.926218 
L 408.388125 178.800504 
L 415.363125 177.829693 
L 422.338125 177.144159 
L 429.313125 176.015866 
L 433 175.639003 
L 433 175.639003 
" style="fill:none;stroke:#489e73;stroke-linecap:square;stroke-width:2;"/>
   </g>
   <g id="line2d_33">
    <path clip-path="url(#p1355090c51)" d="M 59.638125 303.799801 
L 66.613125 259.186542 
L 73.588125 237.038863 
L 80.563125 226.397325 
L 87.538125 225.770386 
L 94.513125 224.444993 
L 101.488125 224.884094 
L 108.463125 230.849477 
L 115.438125 226.848493 
L 122.413125 230.277718 
L 129.388125 226.848493 
L 136.363125 221.696244 
L 143.338125 213.951128 
L 150.313125 212.675312 
L 164.263125 219.947606 
L 171.238125 219.12957 
L 178.213125 214.5594 
L 185.188125 209.119234 
L 192.163125 204.126309 
L 199.138125 199.332521 
L 206.113125 193.569918 
L 213.088125 188.127288 
L 227.038125 177.737912 
L 234.013125 172.263851 
L 240.988125 167.453467 
L 247.963125 162.311058 
L 254.938125 157.614602 
L 268.888125 148.987456 
L 275.863125 145.207019 
L 282.838125 141.698128 
L 289.813125 138.405015 
L 296.788125 135.357465 
L 310.738125 130.547628 
L 317.713125 128.500863 
L 338.638125 123.137966 
L 359.563125 119.035634 
L 373.513125 116.930185 
L 380.488125 115.831879 
L 387.463125 115.018971 
L 401.413125 113.589723 
L 408.388125 113.157027 
L 422.338125 111.690245 
L 429.313125 111.049807 
L 433 110.838545 
L 433 110.838545 
" style="fill:none;stroke:#489e73;stroke-linecap:square;stroke-width:2;"/>
   </g>
   <g id="line2d_34">
    <path clip-path="url(#p1355090c51)" d="M 59.638125 266.639732 
L 66.613125 218.967068 
L 73.588125 212.675312 
L 80.563125 217.999663 
L 87.538125 226.848493 
L 94.513125 246.017118 
L 101.488125 257.368413 
L 108.463125 264.47416 
L 115.438125 257.783938 
L 122.413125 252.17347 
L 129.388125 246.253556 
L 136.363125 255.191771 
L 143.338125 233.579211 
L 150.313125 231.909604 
L 157.288125 222.714806 
L 164.263125 235.594177 
L 171.238125 243.466129 
L 178.213125 228.311467 
L 185.188125 242.560388 
L 192.163125 221.612008 
L 199.138125 237.247625 
L 206.113125 231.329425 
L 213.088125 232.006755 
L 220.063125 230.182863 
L 234.013125 227.120553 
L 240.988125 225.948957 
L 247.963125 223.834703 
L 254.938125 221.949541 
L 261.913125 219.947606 
L 268.888125 218.401175 
L 275.863125 216.729619 
L 282.838125 215.558899 
L 289.813125 213.573543 
L 296.788125 212.156456 
L 303.763125 211.348567 
L 310.738125 209.902435 
L 317.713125 207.716629 
L 324.688125 206.887956 
L 331.663125 205.460268 
L 338.638125 203.402998 
L 345.613125 202.686858 
L 352.588125 201.33909 
L 359.563125 200.140979 
L 366.538125 198.716729 
L 394.438125 194.200768 
L 401.413125 193.341877 
L 408.388125 192.268408 
L 433 189.035384 
L 433 189.035384 
" style="fill:none;stroke:#8f84ae;stroke-linecap:square;stroke-width:2;"/>
   </g>
   <g id="line2d_35">
    <path clip-path="url(#p1355090c51)" d="M 59.638125 299.714932 
L 66.613125 282.561789 
L 73.588125 239.692793 
L 80.563125 213.875453 
L 87.538125 211.494785 
L 94.513125 216.493952 
L 101.488125 214.635796 
L 108.463125 222.373687 
L 115.438125 216.493952 
L 122.413125 227.851097 
L 129.388125 224.708133 
L 136.363125 223.747938 
L 143.338125 210.911679 
L 150.313125 204.060253 
L 157.288125 200.203544 
L 164.263125 200.203544 
L 171.238125 211.421639 
L 178.213125 219.701221 
L 185.188125 214.942188 
L 199.138125 205.797643 
L 206.113125 200.895365 
L 213.088125 195.831879 
L 234.013125 180.068174 
L 240.988125 175.214271 
L 254.938125 165.298302 
L 261.913125 160.917002 
L 268.888125 156.786325 
L 282.838125 148.895107 
L 289.813125 145.207019 
L 296.788125 141.781714 
L 303.763125 138.72498 
L 310.738125 135.843704 
L 317.713125 133.097681 
L 324.688125 131.146669 
L 338.638125 126.917824 
L 352.588125 124.070003 
L 359.563125 122.45208 
L 366.538125 121.204302 
L 373.513125 119.812989 
L 387.463125 117.505583 
L 394.438125 116.614675 
L 401.413125 115.987761 
L 408.388125 114.788383 
L 415.363125 114.291285 
L 422.338125 113.570856 
L 433 112.5664 
L 433 112.5664 
" style="fill:none;stroke:#8f84ae;stroke-linecap:square;stroke-width:2;"/>
   </g>
   <g id="line2d_36">
    <path clip-path="url(#p1355090c51)" d="M 59.638125 261.124324 
L 66.613125 222.75756 
L 73.588125 221.612008 
L 80.563125 219.742227 
L 87.538125 236.571341 
L 94.513125 250.962674 
L 101.488125 252.689414 
L 108.463125 252.883847 
L 115.438125 229.33473 
L 122.413125 235.645279 
L 129.388125 230.182863 
L 136.363125 234.579668 
L 143.338125 239.746879 
L 150.313125 232.49448 
L 157.288125 230.040814 
L 164.263125 238.300587 
L 171.238125 233.380772 
L 178.213125 232.055379 
L 185.188125 229.475396 
L 192.163125 227.256969 
L 199.138125 224.840064 
L 206.113125 223.143483 
L 213.088125 220.484342 
L 227.038125 216.966058 
L 234.013125 214.521233 
L 240.988125 212.824244 
L 247.963125 210.405295 
L 261.913125 206.819327 
L 268.888125 204.790209 
L 275.863125 202.622105 
L 289.813125 199.208942 
L 303.763125 196.215856 
L 310.738125 194.460439 
L 317.713125 192.32451 
L 324.688125 191.487515 
L 331.663125 190.004939 
L 338.638125 187.836616 
L 345.613125 187.442121 
L 359.563125 184.587955 
L 366.538125 183.536745 
L 373.513125 181.98807 
L 380.488125 180.614937 
L 387.463125 179.619601 
L 394.438125 178.22107 
L 401.413125 177.463266 
L 408.388125 176.240119 
L 415.363125 175.502711 
L 433 173.082384 
L 433 173.082384 
" style="fill:none;stroke:#1a1a1a;stroke-linecap:square;stroke-width:2;"/>
   </g>
   <g id="line2d_37">
    <path clip-path="url(#p1355090c51)" d="M 59.638125 242.672987 
L 66.613125 227.302498 
L 73.588125 204.923725 
L 80.563125 196.423462 
L 87.538125 199.580314 
L 94.513125 211.788113 
L 101.488125 217.999663 
L 108.463125 217.441269 
L 115.438125 223.143483 
L 122.413125 216.337267 
L 129.388125 209.261004 
L 136.363125 205.191498 
L 143.338125 204.923725 
L 150.313125 202.492773 
L 157.288125 203.796633 
L 164.263125 203.994258 
L 171.238125 199.766719 
L 178.213125 196.127065 
L 199.138125 183.462241 
L 206.113125 179.033585 
L 213.088125 174.949038 
L 220.063125 170.458486 
L 227.038125 166.152667 
L 234.013125 161.647361 
L 240.988125 156.992505 
L 247.963125 153.009291 
L 254.938125 149.203396 
L 261.913125 145.265506 
L 275.863125 138.19249 
L 282.838125 135.102858 
L 289.813125 132.188784 
L 303.763125 127.418804 
L 310.738125 125.390952 
L 317.713125 123.526659 
L 324.688125 122.132799 
L 331.663125 120.474154 
L 338.638125 118.933971 
L 352.588125 116.811707 
L 359.563125 115.308246 
L 366.538125 114.253188 
L 373.513125 113.382458 
L 380.488125 112.63374 
L 387.463125 111.378466 
L 394.438125 110.740773 
L 401.413125 109.732033 
L 408.388125 109.339564 
L 415.363125 108.525775 
L 422.338125 108.314982 
L 429.313125 107.686267 
L 433 107.484592 
L 433 107.484592 
" style="fill:none;stroke:#1a1a1a;stroke-linecap:square;stroke-width:2;"/>
   </g>
   <g id="line2d_38">
    <path clip-path="url(#p1355090c51)" d="M 59.638125 247.087239 
L 66.613125 264.321933 
L 73.588125 269.034377 
L 80.563125 270.17964 
L 87.538125 269.522982 
L 94.513125 271.008947 
L 101.488125 268.388003 
L 108.463125 265.240147 
L 115.438125 261.197102 
L 122.413125 257.645164 
L 129.388125 254.259734 
L 136.363125 251.152508 
L 143.338125 247.809563 
L 150.313125 243.352288 
L 157.288125 240.892142 
L 164.263125 237.66697 
L 171.238125 234.077707 
L 178.213125 231.425798 
L 185.188125 229.241105 
L 192.163125 226.397325 
L 199.138125 224.182809 
L 213.088125 219.210958 
L 220.063125 217.045043 
L 227.038125 215.172838 
L 234.013125 213.498263 
L 240.988125 211.057015 
L 247.963125 208.836525 
L 254.938125 207.094235 
L 261.913125 205.124462 
L 275.863125 201.402702 
L 282.838125 200.203544 
L 289.813125 198.045368 
L 296.788125 196.780751 
L 303.763125 195.245102 
L 317.713125 191.376645 
L 324.688125 190.331781 
L 331.663125 188.979591 
L 338.638125 187.232602 
L 345.613125 186.194024 
L 352.588125 184.815219 
L 359.563125 183.313463 
L 366.538125 182.329362 
L 373.513125 180.495723 
L 380.488125 179.127029 
L 387.463125 177.921591 
L 394.438125 176.962444 
L 401.413125 175.747678 
L 408.388125 174.904927 
L 415.363125 173.941237 
L 422.338125 172.604769 
L 429.313125 171.502619 
L 433 171.08244 
L 433 171.08244 
" style="fill:none;stroke:#8f84ae;stroke-linecap:square;stroke-width:2;"/>
   </g>
   <g id="line2d_39">
    <path clip-path="url(#p1355090c51)" d="M 59.638125 224.972236 
L 66.613125 225.592255 
L 73.588125 219.783256 
L 80.563125 215.172838 
L 87.538125 216.102875 
L 94.513125 217.520776 
L 101.488125 223.747938 
L 108.463125 221.696244 
L 115.438125 226.038408 
L 122.413125 224.972236 
L 129.388125 218.804932 
L 136.363125 214.178631 
L 143.338125 206.887956 
L 150.313125 208.204449 
L 157.288125 208.204449 
L 171.238125 200.391566 
L 178.213125 196.423462 
L 192.163125 186.763393 
L 199.138125 183.214447 
L 213.088125 174.816785 
L 220.063125 169.962613 
L 227.038125 165.607812 
L 234.013125 160.953345 
L 247.963125 152.846643 
L 261.913125 144.915291 
L 268.888125 141.309336 
L 275.863125 138.245563 
L 282.838125 134.74791 
L 289.813125 131.945086 
L 303.763125 127.054111 
L 317.713125 122.901458 
L 331.663125 119.977713 
L 338.638125 118.246429 
L 345.613125 117.286788 
L 366.538125 113.816511 
L 387.463125 111.360168 
L 394.438125 110.813368 
L 401.413125 109.9829 
L 415.363125 108.896151 
L 422.338125 108.560967 
L 429.313125 107.912672 
L 433 107.80219 
L 433 107.80219 
" style="fill:none;stroke:#8f84ae;stroke-linecap:square;stroke-width:2;"/>
   </g>
   <g id="line2d_40">
    <path clip-path="url(#p1355090c51)" d="M 59.638125 275.481872 
L 66.613125 250.145776 
L 73.588125 249.152883 
L 80.563125 242.672987 
L 87.538125 246.017118 
L 94.513125 245.429386 
L 101.488125 250.647388 
L 108.463125 250.396147 
L 115.438125 245.781451 
L 122.413125 252.689414 
L 129.388125 241.665865 
L 136.363125 243.69435 
L 143.338125 241.554824 
L 150.313125 236.51958 
L 157.288125 243.125144 
L 164.263125 231.329425 
L 171.238125 243.580149 
L 178.213125 235.390132 
L 185.188125 225.414563 
L 192.163125 223.057544 
L 199.138125 225.681266 
L 206.113125 225.060485 
L 213.088125 219.619279 
L 220.063125 225.414563 
L 227.038125 224.79606 
L 234.013125 226.397325 
L 240.988125 223.921572 
L 247.963125 222.629375 
L 254.938125 218.240302 
L 261.913125 217.839681 
L 268.888125 215.404227 
L 275.863125 213.799858 
L 282.838125 211.788113 
L 289.813125 209.902435 
L 296.788125 209.759402 
L 303.763125 207.925291 
L 310.738125 205.325758 
L 317.713125 204.324839 
L 324.688125 203.730878 
L 331.663125 201.721607 
L 338.638125 199.518286 
L 345.613125 198.716729 
L 352.588125 198.349759 
L 359.563125 196.840472 
L 366.538125 194.431541 
L 373.513125 194.085657 
L 380.488125 192.212349 
L 387.463125 191.932705 
L 394.438125 191.155414 
L 401.413125 188.712165 
L 408.388125 188.926027 
L 415.363125 187.968595 
L 422.338125 186.815377 
L 429.313125 185.424774 
L 433 185.156084 
L 433 185.156084 
" style="fill:none;stroke:#8f84ae;stroke-linecap:square;stroke-width:2;"/>
   </g>
   <g id="line2d_41">
    <path clip-path="url(#p1355090c51)" d="M 59.638125 304.858162 
L 66.613125 255.864952 
L 73.588125 228.034893 
L 80.563125 229.522345 
L 87.538125 234.68048 
L 94.513125 243.466129 
L 101.488125 255.460291 
L 108.463125 255.460291 
L 115.438125 263.265231 
L 122.413125 266.014344 
L 129.388125 256.68114 
L 136.363125 253.078805 
L 143.338125 245.663905 
L 157.288125 226.217643 
L 171.238125 224.182809 
L 185.188125 214.330698 
L 192.163125 208.836525 
L 199.138125 203.862448 
L 206.113125 198.410791 
L 213.088125 192.436846 
L 220.063125 187.389684 
L 227.038125 181.890854 
L 234.013125 177.053244 
L 247.963125 166.898749 
L 254.938125 161.978447 
L 261.913125 157.545215 
L 275.863125 148.925877 
L 289.813125 141.475705 
L 296.788125 138.538162 
L 303.763125 135.280989 
L 317.713125 130.285616 
L 324.688125 128.338675 
L 331.663125 126.713876 
L 338.638125 124.771502 
L 359.563125 120.598799 
L 366.538125 119.566603 
L 373.513125 118.105684 
L 387.463125 116.202649 
L 394.438125 115.501742 
L 401.413125 114.635065 
L 415.363125 113.232092 
L 429.313125 112.114218 
L 433 111.715639 
L 433 111.715639 
" style="fill:none;stroke:#8f84ae;stroke-linecap:square;stroke-width:2;"/>
   </g>
   <g id="line2d_42">
    <path clip-path="url(#p1355090c51)" d="M 59.638125 288.6868 
L 66.613125 249.89627 
L 73.588125 236.623139 
L 80.563125 232.887045 
L 87.538125 237.352233 
L 94.513125 244.152966 
L 101.488125 252.948775 
L 108.463125 251.53368 
L 115.438125 255.191771 
L 122.413125 255.864952 
L 129.388125 257.922979 
L 136.363125 254.127562 
L 143.338125 251.53368 
L 150.313125 251.788916 
L 157.288125 246.253556 
L 164.263125 248.417068 
L 171.238125 242.000014 
L 178.213125 237.66697 
L 185.188125 238.513033 
L 192.163125 238.088763 
L 199.138125 231.715692 
L 206.113125 224.5326 
L 213.088125 230.945212 
L 220.063125 227.029753 
L 227.038125 224.008546 
L 234.013125 221.86501 
L 240.988125 223.057544 
L 247.963125 221.192299 
L 254.938125 219.048273 
L 261.913125 217.441269 
L 268.888125 215.481522 
L 275.863125 213.724341 
L 282.838125 211.568006 
L 289.813125 210.261263 
L 296.788125 208.274407 
L 303.763125 207.02541 
L 310.738125 205.191498 
L 317.713125 203.206982 
L 331.663125 201.085199 
L 338.638125 199.085574 
L 345.613125 198.166971 
L 352.588125 196.900242 
L 359.563125 195.89082 
L 366.538125 194.721048 
L 373.513125 193.00116 
L 380.488125 191.65414 
L 387.463125 190.660108 
L 394.438125 189.517433 
L 401.413125 188.712165 
L 408.388125 187.389684 
L 415.363125 186.607664 
L 422.338125 185.322823 
L 429.313125 184.815219 
L 433 184.152574 
L 433 184.152574 
" style="fill:none;stroke:#1a1a1a;stroke-linecap:square;stroke-width:2;"/>
   </g>
   <g id="line2d_43">
    <path clip-path="url(#p1355090c51)" d="M 59.638125 297.034859 
L 66.613125 266.326361 
L 73.588125 236.623139 
L 80.563125 229.428477 
L 87.538125 231.23318 
L 94.513125 238.300587 
L 101.488125 242.223642 
L 108.463125 256.408052 
L 115.438125 250.773337 
L 129.388125 258.201867 
L 136.363125 258.341716 
L 143.338125 250.521658 
L 150.313125 247.688673 
L 157.288125 242.560388 
L 164.263125 229.616336 
L 171.238125 219.619279 
L 178.213125 215.947035 
L 185.188125 216.572423 
L 192.163125 213.347936 
L 199.138125 209.331993 
L 206.113125 204.126309 
L 213.088125 198.594199 
L 220.063125 193.741422 
L 234.013125 183.066178 
L 240.988125 177.921591 
L 247.963125 173.334607 
L 254.938125 168.575849 
L 261.913125 164.301456 
L 268.888125 159.656379 
L 275.863125 155.39296 
L 282.838125 151.654299 
L 289.813125 147.674946 
L 303.763125 141.005318 
L 310.738125 137.901286 
L 317.713125 134.571088 
L 324.688125 132.433306 
L 331.663125 130.619251 
L 338.638125 128.199945 
L 345.613125 126.759148 
L 352.588125 125.146962 
L 359.563125 123.418479 
L 373.513125 121.099542 
L 380.488125 119.443725 
L 408.388125 115.851346 
L 415.363125 114.999727 
L 422.338125 114.348468 
L 433 112.966051 
L 433 112.966051 
" style="fill:none;stroke:#1a1a1a;stroke-linecap:square;stroke-width:2;"/>
   </g>
   <g id="line2d_44">
    <path clip-path="url(#p1355090c51)" d="M 59.638125 271.847887 
L 66.613125 244.383371 
L 73.588125 241.443954 
L 80.563125 242.111742 
L 87.538125 255.864952 
L 94.513125 257.230435 
L 101.488125 265.703669 
L 108.463125 272.696684 
L 115.438125 275.304616 
L 122.413125 271.008947 
L 129.388125 280.060836 
L 136.363125 274.951403 
L 143.338125 273.382978 
L 150.313125 268.066972 
L 157.288125 258.762894 
L 164.263125 261.197102 
L 171.238125 247.567985 
L 178.213125 253.995632 
L 185.188125 246.253556 
L 192.163125 247.688673 
L 199.138125 240.563067 
L 206.113125 244.614513 
L 213.088125 240.563067 
L 220.063125 236.106826 
L 227.038125 234.68048 
L 234.013125 231.041074 
L 240.988125 233.281756 
L 247.963125 231.329425 
L 261.913125 226.12797 
L 268.888125 224.708133 
L 275.863125 224.008546 
L 282.838125 222.20373 
L 289.813125 220.775013 
L 296.788125 219.12957 
L 310.738125 216.337267 
L 317.713125 214.026883 
L 324.688125 213.42306 
L 331.663125 211.861632 
L 338.638125 209.759402 
L 352.588125 208.064735 
L 359.563125 206.682265 
L 366.538125 205.662504 
L 373.513125 204.258602 
L 380.488125 203.206982 
L 387.463125 202.041927 
L 401.413125 200.391566 
L 422.338125 197.199835 
L 429.313125 196.482888 
L 433 195.952376 
L 433 195.952376 
" style="fill:none;stroke:#1a1a1a;stroke-linecap:square;stroke-width:2;"/>
   </g>
   <g id="line2d_45">
    <path clip-path="url(#p1355090c51)" d="M 59.638125 287.419542 
L 66.613125 283.945205 
L 73.588125 257.092719 
L 80.563125 251.152508 
L 87.538125 236.934707 
L 94.513125 244.614513 
L 101.488125 251.53368 
L 108.463125 259.470362 
L 115.438125 259.186542 
L 122.413125 256.955265 
L 129.388125 259.04505 
L 136.363125 259.04505 
L 143.338125 258.341716 
L 150.313125 253.995632 
L 157.288125 248.784038 
L 164.263125 243.125144 
L 171.238125 238.194597 
L 178.213125 232.592422 
L 185.188125 226.758034 
L 192.163125 221.108649 
L 199.138125 214.330698 
L 213.088125 206.95665 
L 220.063125 201.913628 
L 227.038125 197.863347 
L 234.013125 192.436846 
L 240.988125 188.180263 
L 247.963125 183.363022 
L 261.913125 174.465291 
L 268.888125 169.798076 
L 282.838125 161.610667 
L 296.788125 154.25753 
L 310.738125 147.978059 
L 317.713125 145.031841 
L 324.688125 142.482048 
L 331.663125 140.128108 
L 338.638125 137.165293 
L 345.613125 135.179146 
L 352.588125 133.072966 
L 366.538125 129.106487 
L 373.513125 127.327458 
L 380.488125 125.747323 
L 387.463125 124.595487 
L 394.438125 123.051874 
L 401.413125 122.196543 
L 408.388125 120.702835 
L 422.338125 118.710814 
L 433 117.269538 
L 433 117.269538 
" style="fill:none;stroke:#1a1a1a;stroke-linecap:square;stroke-width:2;"/>
   </g>
   <g id="line2d_46">
    <path clip-path="url(#p1355090c51)" d="M 59.638125 263.79165 
L 66.613125 254.061567 
L 73.588125 263.79165 
L 80.563125 267.747361 
L 87.538125 270.676081 
L 94.513125 269.932693 
L 101.488125 266.561261 
L 108.463125 260.256664 
L 115.438125 250.396147 
L 122.413125 244.441087 
L 129.388125 253.078805 
L 136.363125 245.840295 
L 143.338125 244.441087 
L 150.313125 242.560388 
L 157.288125 239.746879 
L 164.263125 237.352233 
L 171.238125 233.232299 
L 185.188125 228.080915 
L 192.163125 226.038408 
L 199.138125 223.401916 
L 206.113125 220.983355 
L 213.088125 219.12957 
L 220.063125 217.084568 
L 227.038125 214.750541 
L 234.013125 212.936144 
L 240.988125 210.73042 
L 247.963125 209.119234 
L 254.938125 206.922295 
L 268.888125 203.206982 
L 275.863125 201.275534 
L 282.838125 199.673457 
L 289.813125 197.651568 
L 303.763125 194.114418 
L 310.738125 193.256547 
L 317.713125 190.577886 
L 324.688125 189.760775 
L 338.638125 186.194024 
L 345.613125 185.271902 
L 352.588125 184.060438 
L 366.538125 180.973765 
L 380.488125 178.151849 
L 394.438125 175.703077 
L 401.413125 174.70676 
L 408.388125 173.334607 
L 415.363125 172.49806 
L 422.338125 171.481587 
L 429.313125 170.85348 
L 433 170.230511 
L 433 170.230511 
" style="fill:none;stroke:#1a1a1a;stroke-linecap:square;stroke-width:2;"/>
   </g>
   <g id="line2d_47">
    <path clip-path="url(#p1355090c51)" d="M 59.638125 264.170026 
L 66.613125 278.194276 
L 73.588125 256.68114 
L 80.563125 241.777076 
L 87.538125 243.466129 
L 94.513125 248.661508 
L 101.488125 244.730362 
L 108.463125 247.447498 
L 115.438125 251.661185 
L 122.413125 244.730362 
L 129.388125 244.962619 
L 136.363125 240.344513 
L 143.338125 233.182876 
L 150.313125 228.311467 
L 157.288125 222.034171 
L 164.263125 218.320694 
L 171.238125 212.008893 
L 178.213125 205.865308 
L 185.188125 200.706029 
L 192.163125 195.303566 
L 199.138125 190.277204 
L 206.113125 184.714124 
L 213.088125 179.455036 
L 220.063125 173.723998 
L 227.038125 169.021601 
L 234.013125 163.959574 
L 247.963125 154.556352 
L 254.938125 150.136235 
L 268.888125 142.369537 
L 275.863125 139.046368 
L 282.838125 135.946489 
L 289.813125 132.998869 
L 296.788125 130.309396 
L 303.763125 128.015386 
L 310.738125 125.90379 
L 317.713125 124.026385 
L 324.688125 122.558821 
L 331.663125 120.786171 
L 338.638125 119.300631 
L 345.613125 118.447968 
L 366.538125 114.942027 
L 373.513125 114.006046 
L 380.488125 113.495438 
L 387.463125 112.392069 
L 401.413125 110.867862 
L 408.388125 110.396941 
L 415.363125 109.714147 
L 422.338125 109.179622 
L 429.313125 108.913835 
L 433 108.513937 
L 433 108.513937 
" style="fill:none;stroke:#1a1a1a;stroke-linecap:square;stroke-width:2;"/>
   </g>
   <g id="line2d_48">
    <path clip-path="url(#p1355090c51)" d="M 59.638125 252.045058 
L 66.613125 232.104037 
L 80.563125 230.467802 
L 87.538125 228.867813 
L 94.513125 231.425798 
L 101.488125 237.877558 
L 108.463125 242.785761 
L 115.438125 242.335717 
L 122.413125 240.672592 
L 129.388125 236.934707 
L 136.363125 237.143169 
L 143.338125 233.579211 
L 150.313125 235.085142 
L 157.288125 232.592422 
L 164.263125 232.006755 
L 171.238125 229.710449 
L 178.213125 223.57472 
L 185.188125 227.576276 
L 192.163125 223.834703 
L 199.138125 221.612008 
L 206.113125 219.865384 
L 213.088125 217.203273 
L 227.038125 213.123031 
L 247.963125 205.392982 
L 254.938125 203.862448 
L 261.913125 201.466371 
L 268.888125 198.778073 
L 275.863125 197.01993 
L 303.763125 188.979591 
L 310.738125 187.494596 
L 317.713125 185.271902 
L 324.688125 183.860488 
L 331.663125 182.134141 
L 338.638125 179.878961 
L 345.613125 178.986909 
L 352.588125 177.235189 
L 359.563125 176.015866 
L 373.513125 172.562067 
L 387.463125 170.127526 
L 408.388125 166.662311 
L 433 162.766256 
L 433 162.766256 
" style="fill:none;stroke:#1a1a1a;stroke-linecap:square;stroke-width:2;"/>
   </g>
   <g id="line2d_49">
    <path clip-path="url(#p1355090c51)" d="M 59.638125 291.290032 
L 66.613125 273.039016 
L 73.588125 248.417068 
L 80.563125 247.809563 
L 87.538125 251.661185 
L 94.513125 257.783938 
L 101.488125 260.184827 
L 108.463125 261.05162 
L 115.438125 255.864952 
L 122.413125 249.276251 
L 129.388125 248.661508 
L 136.363125 249.77184 
L 143.338125 248.539184 
L 150.313125 240.563067 
L 157.288125 236.106826 
L 164.263125 239.261557 
L 171.238125 233.380772 
L 178.213125 228.960955 
L 185.188125 226.307428 
L 192.163125 220.691845 
L 199.138125 216.966058 
L 206.113125 212.378366 
L 213.088125 207.577855 
L 220.063125 202.363673 
L 234.013125 191.155414 
L 240.988125 188.498934 
L 247.963125 183.611327 
L 254.938125 178.382843 
L 261.913125 173.334607 
L 268.888125 168.737623 
L 275.863125 163.959574 
L 282.838125 160.229935 
L 289.813125 156.137276 
L 296.788125 152.360885 
L 303.763125 148.28245 
L 310.738125 144.886183 
L 317.713125 141.753841 
L 324.688125 139.180703 
L 338.638125 133.693411 
L 359.563125 128.107606 
L 366.538125 126.600819 
L 373.513125 124.85967 
L 387.463125 122.196543 
L 401.413125 119.915898 
L 408.388125 118.54895 
L 422.338125 116.693424 
L 429.313125 115.656912 
L 433 115.238407 
L 433 115.238407 
" style="fill:none;stroke:#1a1a1a;stroke-linecap:square;stroke-width:2;"/>
   </g>
   <g id="line2d_50">
    <path clip-path="url(#p1355090c51)" d="M 59.638125 256.544467 
L 66.613125 220.442912 
L 73.588125 219.210958 
L 80.563125 225.325881 
L 87.538125 245.663905 
L 94.513125 261.488948 
L 101.488125 262.371629 
L 108.463125 261.488948 
L 115.438125 251.025897 
L 122.413125 247.809563 
L 136.363125 237.247625 
L 143.338125 237.877558 
L 150.313125 236.312908 
L 157.288125 236.830701 
L 164.263125 235.186662 
L 171.238125 235.492083 
L 178.213125 233.380772 
L 185.188125 231.041074 
L 192.163125 229.804685 
L 199.138125 228.77479 
L 213.088125 225.325881 
L 227.038125 221.443832 
L 240.988125 218.401175 
L 247.963125 216.493952 
L 254.938125 215.095873 
L 261.913125 213.123031 
L 268.888125 211.568006 
L 275.863125 210.549614 
L 289.813125 207.163126 
L 296.788125 206.204585 
L 303.763125 204.65694 
L 310.738125 203.599547 
L 317.713125 201.530096 
L 324.688125 200.832198 
L 331.663125 199.642396 
L 338.638125 197.92397 
L 345.613125 197.259903 
L 352.588125 196.364085 
L 366.538125 194.085657 
L 373.513125 192.774905 
L 380.488125 191.598556 
L 387.463125 190.824833 
L 394.438125 190.386399 
L 401.413125 189.571439 
L 408.388125 188.233278 
L 433 185.944062 
L 433 185.944062 
" style="fill:none;stroke:#489e73;stroke-linecap:square;stroke-width:2;"/>
   </g>
   <g id="line2d_51">
    <path clip-path="url(#p1355090c51)" d="M 59.638125 302.240779 
L 66.613125 279.683645 
L 73.588125 247.207126 
L 80.563125 234.478997 
L 87.538125 228.034893 
L 94.513125 229.616336 
L 101.488125 234.579668 
L 108.463125 237.143169 
L 115.438125 236.41617 
L 122.413125 230.277718 
L 129.388125 224.5326 
L 136.363125 230.658387 
L 143.338125 229.899044 
L 150.313125 228.126967 
L 157.288125 223.488266 
L 164.263125 220.360125 
L 171.238125 216.102875 
L 178.213125 212.378366 
L 185.188125 207.716629 
L 192.163125 202.234802 
L 199.138125 197.320021 
L 206.113125 191.265945 
L 213.088125 187.442121 
L 220.063125 183.76072 
L 227.038125 178.893646 
L 234.013125 173.680629 
L 247.963125 164.301456 
L 254.938125 159.870929 
L 268.888125 151.526568 
L 275.863125 147.735467 
L 282.838125 144.39313 
L 289.813125 140.675115 
L 296.788125 137.954145 
L 303.763125 135.45956 
L 310.738125 132.531347 
L 317.713125 130.214323 
L 324.688125 128.570484 
L 331.663125 126.804448 
L 338.638125 124.881729 
L 345.613125 123.635001 
L 352.588125 122.196543 
L 373.513125 118.690561 
L 387.463125 116.359335 
L 401.413125 114.961255 
L 408.388125 114.139017 
L 415.363125 113.457758 
L 422.338125 113.025849 
L 429.313125 112.41063 
L 433 111.952204 
L 433 111.952204 
" style="fill:none;stroke:#489e73;stroke-linecap:square;stroke-width:2;"/>
   </g>
   <g id="line2d_52">
    <path clip-path="url(#p1355090c51)" d="M 59.638125 288.261906 
L 66.613125 252.818978 
L 73.588125 261.488948 
L 80.563125 272.355967 
L 87.538125 282.561789 
L 101.488125 277.278777 
L 108.463125 273.902011 
L 122.413125 263.415245 
L 129.388125 259.898192 
L 136.363125 249.399829 
L 143.338125 249.52362 
L 150.313125 247.930656 
L 157.288125 245.54655 
L 164.263125 242.111742 
L 171.238125 237.877558 
L 178.213125 234.983764 
L 185.188125 232.592422 
L 192.163125 229.993527 
L 206.113125 226.307428 
L 213.088125 223.57472 
L 220.063125 221.86501 
L 227.038125 219.701221 
L 234.013125 217.282518 
L 240.988125 215.404227 
L 254.938125 211.935225 
L 261.913125 209.687991 
L 275.863125 206.068683 
L 282.838125 204.65694 
L 289.813125 202.55741 
L 296.788125 201.530096 
L 303.763125 200.01601 
L 317.713125 196.423462 
L 331.663125 194.721048 
L 338.638125 192.887944 
L 345.613125 191.65414 
L 352.588125 190.824833 
L 359.563125 189.033196 
L 366.538125 187.704878 
L 373.513125 186.194024 
L 380.488125 184.562748 
L 387.463125 183.412614 
L 394.438125 182.085418 
L 401.413125 180.877903 
L 408.388125 179.878961 
L 415.363125 178.753978 
L 422.338125 178.151849 
L 433 176.438435 
L 433 176.438435 
" style="fill:none;stroke:#8f84ae;stroke-linecap:square;stroke-width:2;"/>
   </g>
   <g id="line2d_53">
    <path clip-path="url(#p1355090c51)" d="M 59.638125 294.220275 
L 66.613125 261.342877 
L 73.588125 239.0469 
L 80.563125 240.892142 
L 87.538125 238.194597 
L 94.513125 236.51958 
L 101.488125 228.867813 
L 108.463125 232.396671 
L 115.438125 229.616336 
L 122.413125 225.681266 
L 129.388125 232.298995 
L 136.363125 230.563032 
L 143.338125 227.942936 
L 150.313125 231.23318 
L 157.288125 230.277718 
L 164.263125 221.443832 
L 171.238125 218.16 
L 178.213125 213.42306 
L 185.188125 208.134558 
L 192.163125 202.299209 
L 199.138125 197.199835 
L 206.113125 191.598556 
L 213.088125 186.919457 
L 234.013125 171.292581 
L 240.988125 166.622979 
L 254.938125 156.923713 
L 261.913125 152.490102 
L 268.888125 148.465702 
L 275.863125 144.653739 
L 289.813125 137.374812 
L 296.788125 134.394697 
L 303.763125 131.823545 
L 310.738125 129.106487 
L 317.713125 126.849777 
L 324.688125 125.213423 
L 338.638125 121.603781 
L 345.613125 120.53645 
L 352.588125 119.21899 
L 359.563125 117.625205 
L 366.538125 116.83144 
L 373.513125 115.579285 
L 380.488125 114.865164 
L 387.463125 113.646353 
L 401.413125 112.058776 
L 415.363125 110.777062 
L 422.338125 110.451121 
L 433 109.675866 
L 433 109.675866 
" style="fill:none;stroke:#8f84ae;stroke-linecap:square;stroke-width:2;"/>
   </g>
   <g id="line2d_54">
    <path clip-path="url(#p1355090c51)" d="M 59.638125 290.630376 
L 66.613125 280.630341 
L 73.588125 288.050392 
L 80.563125 293.533438 
L 87.538125 294.45068 
L 94.513125 292.85307 
L 101.488125 291.511263 
L 108.463125 287.839496 
L 115.438125 282.954354 
L 122.413125 276.734996 
L 129.388125 273.555575 
L 136.363125 269.034377 
L 143.338125 264.932777 
L 150.313125 260.184827 
L 157.288125 256.955265 
L 164.263125 254.524805 
L 171.238125 249.152883 
L 185.188125 243.580149 
L 192.163125 240.344513 
L 206.113125 234.882528 
L 213.088125 233.182876 
L 240.988125 224.972236 
L 247.963125 222.544045 
L 261.913125 218.320694 
L 268.888125 216.415567 
L 275.863125 214.178631 
L 282.838125 212.749739 
L 289.813125 210.477418 
L 296.788125 209.545381 
L 310.738125 206.204585 
L 317.713125 204.060253 
L 324.688125 202.686858 
L 331.663125 201.785558 
L 338.638125 199.642396 
L 345.613125 198.533011 
L 352.588125 197.621364 
L 373.513125 193.057835 
L 415.363125 186.607664 
L 422.338125 185.322823 
L 433 183.933546 
L 433 183.933546 
" style="fill:none;stroke:#8f84ae;stroke-linecap:square;stroke-width:2;"/>
   </g>
   <g id="line2d_55">
    <path clip-path="url(#p1355090c51)" d="M 59.638125 295.146337 
L 66.613125 276.195279 
L 73.588125 251.916874 
L 80.563125 238.513033 
L 87.538125 245.781451 
L 94.513125 251.152508 
L 101.488125 259.328313 
L 108.463125 257.092719 
L 115.438125 256.271893 
L 122.413125 244.268077 
L 129.388125 252.045058 
L 136.363125 250.647388 
L 143.338125 250.396147 
L 150.313125 245.663905 
L 157.288125 240.017918 
L 164.263125 233.579211 
L 171.238125 226.848493 
L 178.213125 221.276046 
L 185.188125 216.572423 
L 192.163125 211.202644 
L 199.138125 206.068683 
L 206.113125 200.140979 
L 213.088125 194.489349 
L 220.063125 188.658798 
L 227.038125 183.462241 
L 234.013125 177.921591 
L 254.938125 162.348109 
L 268.888125 153.074452 
L 275.863125 148.802877 
L 282.838125 144.71178 
L 289.813125 140.86755 
L 296.788125 137.269977 
L 303.763125 134.193634 
L 317.713125 128.872953 
L 324.688125 126.940521 
L 338.638125 122.751354 
L 345.613125 121.709275 
L 352.588125 120.018953 
L 359.563125 118.690561 
L 366.538125 117.565369 
L 373.513125 116.104894 
L 380.488125 115.366241 
L 387.463125 113.835442 
L 394.438125 113.250871 
L 415.363125 110.686375 
L 422.338125 110.451121 
L 433 109.51695 
L 433 109.51695 
" style="fill:none;stroke:#8f84ae;stroke-linecap:square;stroke-width:2;"/>
   </g>
   <g id="line2d_56">
    <path clip-path="url(#p1355090c51)" d="M 59.638125 260.184827 
L 66.613125 229.616336 
L 73.588125 228.589104 
L 80.563125 231.715692 
L 87.538125 238.619491 
L 94.513125 240.235484 
L 101.488125 248.417068 
L 108.463125 249.77184 
L 115.438125 245.899188 
L 122.413125 239.90938 
L 129.388125 242.447965 
L 136.363125 238.83288 
L 143.338125 235.594177 
L 150.313125 231.812583 
L 157.288125 234.579668 
L 164.263125 225.859616 
L 171.238125 222.373687 
L 178.213125 218.481746 
L 185.188125 225.060485 
L 192.163125 223.921572 
L 199.138125 222.373687 
L 206.113125 219.947606 
L 213.088125 218.16 
L 220.063125 216.493952 
L 227.038125 213.724341 
L 234.013125 211.275569 
L 240.988125 209.545381 
L 247.963125 209.974058 
L 254.938125 207.716629 
L 261.913125 206.000827 
L 268.888125 204.790209 
L 275.863125 202.55741 
L 282.838125 201.721607 
L 289.813125 199.704531 
L 296.788125 199.704531 
L 303.763125 197.380189 
L 310.738125 196.900242 
L 317.713125 194.085657 
L 324.688125 194.373778 
L 331.663125 192.94453 
L 338.638125 189.842071 
L 345.613125 190.004939 
L 352.588125 188.498934 
L 359.563125 187.704878 
L 366.538125 186.763393 
L 373.513125 184.967126 
L 380.488125 183.561597 
L 387.463125 183.611327 
L 394.438125 182.476125 
L 401.413125 180.68656 
L 408.388125 180.448092 
L 415.363125 179.878961 
L 429.313125 177.692065 
L 433 177.330389 
L 433 177.330389 
" style="fill:none;stroke:#8f84ae;stroke-linecap:square;stroke-width:2;"/>
   </g>
   <g id="line2d_57">
    <path clip-path="url(#p1355090c51)" d="M 59.638125 313.033443 
L 66.613125 286.794154 
L 73.588125 253.33957 
L 80.563125 235.492083 
L 87.538125 233.579211 
L 94.513125 234.579668 
L 101.488125 241.112361 
L 108.463125 240.672592 
L 115.438125 240.563067 
L 122.413125 244.038039 
L 129.388125 238.83288 
L 136.363125 231.5223 
L 143.338125 233.977733 
L 150.313125 234.278073 
L 157.288125 232.006755 
L 164.263125 227.393642 
L 171.238125 226.939066 
L 178.213125 221.780578 
L 185.188125 216.966058 
L 192.163125 211.275569 
L 199.138125 207.370193 
L 206.113125 201.593876 
L 213.088125 196.72108 
L 220.063125 191.100212 
L 227.038125 185.731491 
L 234.013125 180.68656 
L 240.988125 175.792307 
L 247.963125 170.582988 
L 261.913125 161.0989 
L 268.888125 156.580731 
L 275.863125 152.264125 
L 282.838125 148.190998 
L 296.788125 140.785015 
L 310.738125 134.74791 
L 317.713125 132.262053 
L 324.688125 130.000865 
L 331.663125 127.969319 
L 338.638125 125.791993 
L 352.588125 122.751354 
L 359.563125 121.246249 
L 373.513125 118.589382 
L 380.488125 117.545435 
L 387.463125 116.28095 
L 394.438125 115.308246 
L 401.413125 114.596786 
L 408.388125 113.66524 
L 422.338125 112.392069 
L 433 111.435543 
L 433 111.435543 
" style="fill:none;stroke:#8f84ae;stroke-linecap:square;stroke-width:2;"/>
   </g>
   <g id="patch_3">
    <path d="M 54 384.48 
L 54 51.84 
" style="fill:none;stroke:#000000;stroke-linecap:square;stroke-linejoin:miter;stroke-width:0.8;"/>
   </g>
   <g id="patch_4">
    <path d="M 388.8 384.48 
L 388.8 51.84 
" style="fill:none;stroke:#000000;stroke-linecap:square;stroke-linejoin:miter;stroke-width:0.8;"/>
   </g>
   <g id="patch_5">
    <path d="M 54 384.48 
L 388.8 384.48 
" style="fill:none;stroke:#000000;stroke-linecap:square;stroke-linejoin:miter;stroke-width:0.8;"/>
   </g>
   <g id="patch_6">
    <path d="M 54 51.84 
L 388.8 51.84 
" style="fill:none;stroke:#000000;stroke-linecap:square;stroke-linejoin:miter;stroke-width:0.8;"/>
   </g>
  </g>
 </g>
 <defs>
  <clipPath id="p1355090c51">
   <rect height="332.64" width="334.8" x="54" y="51.84"/>
  </clipPath>
 </defs>
</svg>
