<?xml version="1.0" encoding="utf-8" standalone="no"?>
<!DOCTYPE svg PUBLIC "-//W3C//DTD SVG 1.1//EN"
  "http://www.w3.org/Graphics/SVG/1.1/DTD/svg11.dtd">
<!-- Created with matplotlib (https://matplotlib.org/) -->
<svg height="577.45875pt" version="1.1" viewBox="0 0 362.4125 577.45875" width="362.4125pt" xmlns="http://www.w3.org/2000/svg" xmlns:xlink="http://www.w3.org/1999/xlink">
 <metadata>
  <rdf:RDF xmlns:cc="http://creativecommons.org/ns#" xmlns:dc="http://purl.org/dc/elements/1.1/" xmlns:rdf="http://www.w3.org/1999/02/22-rdf-syntax-ns#">
   <cc:Work>
    <dc:type rdf:resource="http://purl.org/dc/dcmitype/StillImage"/>
    <dc:date>2022-02-14T01:34:23.573648</dc:date>
    <dc:format>image/svg+xml</dc:format>
    <dc:creator>
     <cc:Agent>
      <dc:title>Matplotlib v3.3.4, https://matplotlib.org/</dc:title>
     </cc:Agent>
    </dc:creator>
   </cc:Work>
  </rdf:RDF>
 </metadata>
 <defs>
  <style type="text/css">*{stroke-linecap:butt;stroke-linejoin:round;}</style>
 </defs>
 <g id="figure_1">
  <g id="patch_1">
   <path d="M 0 577.45875 
L 362.4125 577.45875 
L 362.4125 0 
L 0 0 
z
" style="fill:#ffffff;"/>
  </g>
  <g id="axes_1">
   <g id="patch_2">
    <path d="M 76.2125 506.16 
L 355.2125 506.16 
L 355.2125 7.2 
L 76.2125 7.2 
z
" style="fill:#ffffff;"/>
   </g>
   <g id="matplotlib.axis_1">
    <g id="xtick_1">
     <g id="line2d_1">
      <path clip-path="url(#p50741709d4)" d="M 141.21671 506.16 
L 141.21671 7.2 
" style="fill:none;stroke:#b0b0b0;stroke-linecap:square;stroke-width:0.8;"/>
     </g>
     <g id="line2d_2">
      <defs>
       <path d="M 0 0 
L 0 3.5 
" id="mf8ac0368a7" style="stroke:#000000;stroke-width:0.8;"/>
      </defs>
      <g>
       <use style="stroke:#000000;stroke-width:0.8;" x="141.21671" xlink:href="#mf8ac0368a7" y="506.16"/>
      </g>
     </g>
     <g id="text_1">
      <!-- 100 -->
      <g transform="translate(131.67296 520.758438)scale(0.1 -0.1)">
       <defs>
        <path d="M 12.40625 8.296875 
L 28.515625 8.296875 
L 28.515625 63.921875 
L 10.984375 60.40625 
L 10.984375 69.390625 
L 28.421875 72.90625 
L 38.28125 72.90625 
L 38.28125 8.296875 
L 54.390625 8.296875 
L 54.390625 0 
L 12.40625 0 
z
" id="DejaVuSans-49"/>
        <path d="M 31.78125 66.40625 
Q 24.171875 66.40625 20.328125 58.90625 
Q 16.5 51.421875 16.5 36.375 
Q 16.5 21.390625 20.328125 13.890625 
Q 24.171875 6.390625 31.78125 6.390625 
Q 39.453125 6.390625 43.28125 13.890625 
Q 47.125 21.390625 47.125 36.375 
Q 47.125 51.421875 43.28125 58.90625 
Q 39.453125 66.40625 31.78125 66.40625 
z
M 31.78125 74.21875 
Q 44.046875 74.21875 50.515625 64.515625 
Q 56.984375 54.828125 56.984375 36.375 
Q 56.984375 17.96875 50.515625 8.265625 
Q 44.046875 -1.421875 31.78125 -1.421875 
Q 19.53125 -1.421875 13.0625 8.265625 
Q 6.59375 17.96875 6.59375 36.375 
Q 6.59375 54.828125 13.0625 64.515625 
Q 19.53125 74.21875 31.78125 74.21875 
z
" id="DejaVuSans-48"/>
       </defs>
       <use xlink:href="#DejaVuSans-49"/>
       <use x="63.623047" xlink:href="#DejaVuSans-48"/>
       <use x="127.246094" xlink:href="#DejaVuSans-48"/>
      </g>
     </g>
    </g>
    <g id="xtick_2">
     <g id="line2d_3">
      <path clip-path="url(#p50741709d4)" d="M 185.588987 506.16 
L 185.588987 7.2 
" style="fill:none;stroke:#b0b0b0;stroke-linecap:square;stroke-width:0.8;"/>
     </g>
     <g id="line2d_4">
      <g>
       <use style="stroke:#000000;stroke-width:0.8;" x="185.588987" xlink:href="#mf8ac0368a7" y="506.16"/>
      </g>
     </g>
     <g id="text_2">
      <!-- 300 -->
      <g transform="translate(176.045237 520.758438)scale(0.1 -0.1)">
       <defs>
        <path d="M 40.578125 39.3125 
Q 47.65625 37.796875 51.625 33 
Q 55.609375 28.21875 55.609375 21.1875 
Q 55.609375 10.40625 48.1875 4.484375 
Q 40.765625 -1.421875 27.09375 -1.421875 
Q 22.515625 -1.421875 17.65625 -0.515625 
Q 12.796875 0.390625 7.625 2.203125 
L 7.625 11.71875 
Q 11.71875 9.328125 16.59375 8.109375 
Q 21.484375 6.890625 26.8125 6.890625 
Q 36.078125 6.890625 40.9375 10.546875 
Q 45.796875 14.203125 45.796875 21.1875 
Q 45.796875 27.640625 41.28125 31.265625 
Q 36.765625 34.90625 28.71875 34.90625 
L 20.21875 34.90625 
L 20.21875 43.015625 
L 29.109375 43.015625 
Q 36.375 43.015625 40.234375 45.921875 
Q 44.09375 48.828125 44.09375 54.296875 
Q 44.09375 59.90625 40.109375 62.90625 
Q 36.140625 65.921875 28.71875 65.921875 
Q 24.65625 65.921875 20.015625 65.03125 
Q 15.375 64.15625 9.8125 62.3125 
L 9.8125 71.09375 
Q 15.4375 72.65625 20.34375 73.4375 
Q 25.25 74.21875 29.59375 74.21875 
Q 40.828125 74.21875 47.359375 69.109375 
Q 53.90625 64.015625 53.90625 55.328125 
Q 53.90625 49.265625 50.4375 45.09375 
Q 46.96875 40.921875 40.578125 39.3125 
z
" id="DejaVuSans-51"/>
       </defs>
       <use xlink:href="#DejaVuSans-51"/>
       <use x="63.623047" xlink:href="#DejaVuSans-48"/>
       <use x="127.246094" xlink:href="#DejaVuSans-48"/>
      </g>
     </g>
    </g>
    <g id="xtick_3">
     <g id="line2d_5">
      <path clip-path="url(#p50741709d4)" d="M 234.21671 506.16 
L 234.21671 7.2 
" style="fill:none;stroke:#b0b0b0;stroke-linecap:square;stroke-width:0.8;"/>
     </g>
     <g id="line2d_6">
      <g>
       <use style="stroke:#000000;stroke-width:0.8;" x="234.21671" xlink:href="#mf8ac0368a7" y="506.16"/>
      </g>
     </g>
     <g id="text_3">
      <!-- 1000 -->
      <g transform="translate(221.49171 520.758438)scale(0.1 -0.1)">
       <use xlink:href="#DejaVuSans-49"/>
       <use x="63.623047" xlink:href="#DejaVuSans-48"/>
       <use x="127.246094" xlink:href="#DejaVuSans-48"/>
       <use x="190.869141" xlink:href="#DejaVuSans-48"/>
      </g>
     </g>
    </g>
    <g id="xtick_4">
     <g id="line2d_7">
      <path clip-path="url(#p50741709d4)" d="M 278.588987 506.16 
L 278.588987 7.2 
" style="fill:none;stroke:#b0b0b0;stroke-linecap:square;stroke-width:0.8;"/>
     </g>
     <g id="line2d_8">
      <g>
       <use style="stroke:#000000;stroke-width:0.8;" x="278.588987" xlink:href="#mf8ac0368a7" y="506.16"/>
      </g>
     </g>
     <g id="text_4">
      <!-- 3000 -->
      <g transform="translate(265.863987 520.758438)scale(0.1 -0.1)">
       <use xlink:href="#DejaVuSans-51"/>
       <use x="63.623047" xlink:href="#DejaVuSans-48"/>
       <use x="127.246094" xlink:href="#DejaVuSans-48"/>
       <use x="190.869141" xlink:href="#DejaVuSans-48"/>
      </g>
     </g>
    </g>
    <g id="xtick_5">
     <g id="line2d_9">
      <path clip-path="url(#p50741709d4)" d="M 327.21671 506.16 
L 327.21671 7.2 
" style="fill:none;stroke:#b0b0b0;stroke-linecap:square;stroke-width:0.8;"/>
     </g>
     <g id="line2d_10">
      <g>
       <use style="stroke:#000000;stroke-width:0.8;" x="327.21671" xlink:href="#mf8ac0368a7" y="506.16"/>
      </g>
     </g>
     <g id="text_5">
      <!-- 10000 -->
      <g transform="translate(311.31046 520.758438)scale(0.1 -0.1)">
       <use xlink:href="#DejaVuSans-49"/>
       <use x="63.623047" xlink:href="#DejaVuSans-48"/>
       <use x="127.246094" xlink:href="#DejaVuSans-48"/>
       <use x="190.869141" xlink:href="#DejaVuSans-48"/>
       <use x="254.492188" xlink:href="#DejaVuSans-48"/>
      </g>
     </g>
    </g>
    <g id="xtick_6">
     <g id="line2d_11">
      <path clip-path="url(#p50741709d4)" d="M 113.220921 506.16 
L 113.220921 7.2 
" style="fill:none;stroke:#b0b0b0;stroke-linecap:square;stroke-width:0.8;"/>
     </g>
     <g id="line2d_12">
      <defs>
       <path d="M 0 0 
L 0 2 
" id="m574446d4f6" style="stroke:#000000;stroke-width:0.6;"/>
      </defs>
      <g>
       <use style="stroke:#000000;stroke-width:0.6;" x="113.220921" xlink:href="#m574446d4f6" y="506.16"/>
      </g>
     </g>
    </g>
    <g id="xtick_7">
     <g id="line2d_13">
      <path clip-path="url(#p50741709d4)" d="M 120.584777 506.16 
L 120.584777 7.2 
" style="fill:none;stroke:#b0b0b0;stroke-linecap:square;stroke-width:0.8;"/>
     </g>
     <g id="line2d_14">
      <g>
       <use style="stroke:#000000;stroke-width:0.6;" x="120.584777" xlink:href="#m574446d4f6" y="506.16"/>
      </g>
     </g>
    </g>
    <g id="xtick_8">
     <g id="line2d_15">
      <path clip-path="url(#p50741709d4)" d="M 126.810828 506.16 
L 126.810828 7.2 
" style="fill:none;stroke:#b0b0b0;stroke-linecap:square;stroke-width:0.8;"/>
     </g>
     <g id="line2d_16">
      <g>
       <use style="stroke:#000000;stroke-width:0.6;" x="126.810828" xlink:href="#m574446d4f6" y="506.16"/>
      </g>
     </g>
    </g>
    <g id="xtick_9">
     <g id="line2d_17">
      <path clip-path="url(#p50741709d4)" d="M 132.204079 506.16 
L 132.204079 7.2 
" style="fill:none;stroke:#b0b0b0;stroke-linecap:square;stroke-width:0.8;"/>
     </g>
     <g id="line2d_18">
      <g>
       <use style="stroke:#000000;stroke-width:0.6;" x="132.204079" xlink:href="#m574446d4f6" y="506.16"/>
      </g>
     </g>
    </g>
    <g id="xtick_10">
     <g id="line2d_19">
      <path clip-path="url(#p50741709d4)" d="M 136.961264 506.16 
L 136.961264 7.2 
" style="fill:none;stroke:#b0b0b0;stroke-linecap:square;stroke-width:0.8;"/>
     </g>
     <g id="line2d_20">
      <g>
       <use style="stroke:#000000;stroke-width:0.6;" x="136.961264" xlink:href="#m574446d4f6" y="506.16"/>
      </g>
     </g>
    </g>
    <g id="xtick_11">
     <g id="line2d_21">
      <path clip-path="url(#p50741709d4)" d="M 169.2125 506.16 
L 169.2125 7.2 
" style="fill:none;stroke:#b0b0b0;stroke-linecap:square;stroke-width:0.8;"/>
     </g>
     <g id="line2d_22">
      <g>
       <use style="stroke:#000000;stroke-width:0.6;" x="169.2125" xlink:href="#m574446d4f6" y="506.16"/>
      </g>
     </g>
    </g>
    <g id="xtick_12">
     <g id="line2d_23">
      <path clip-path="url(#p50741709d4)" d="M 197.20829 506.16 
L 197.20829 7.2 
" style="fill:none;stroke:#b0b0b0;stroke-linecap:square;stroke-width:0.8;"/>
     </g>
     <g id="line2d_24">
      <g>
       <use style="stroke:#000000;stroke-width:0.6;" x="197.20829" xlink:href="#m574446d4f6" y="506.16"/>
      </g>
     </g>
    </g>
    <g id="xtick_13">
     <g id="line2d_25">
      <path clip-path="url(#p50741709d4)" d="M 206.220921 506.16 
L 206.220921 7.2 
" style="fill:none;stroke:#b0b0b0;stroke-linecap:square;stroke-width:0.8;"/>
     </g>
     <g id="line2d_26">
      <g>
       <use style="stroke:#000000;stroke-width:0.6;" x="206.220921" xlink:href="#m574446d4f6" y="506.16"/>
      </g>
     </g>
    </g>
    <g id="xtick_14">
     <g id="line2d_27">
      <path clip-path="url(#p50741709d4)" d="M 213.584777 506.16 
L 213.584777 7.2 
" style="fill:none;stroke:#b0b0b0;stroke-linecap:square;stroke-width:0.8;"/>
     </g>
     <g id="line2d_28">
      <g>
       <use style="stroke:#000000;stroke-width:0.6;" x="213.584777" xlink:href="#m574446d4f6" y="506.16"/>
      </g>
     </g>
    </g>
    <g id="xtick_15">
     <g id="line2d_29">
      <path clip-path="url(#p50741709d4)" d="M 219.810828 506.16 
L 219.810828 7.2 
" style="fill:none;stroke:#b0b0b0;stroke-linecap:square;stroke-width:0.8;"/>
     </g>
     <g id="line2d_30">
      <g>
       <use style="stroke:#000000;stroke-width:0.6;" x="219.810828" xlink:href="#m574446d4f6" y="506.16"/>
      </g>
     </g>
    </g>
    <g id="xtick_16">
     <g id="line2d_31">
      <path clip-path="url(#p50741709d4)" d="M 225.204079 506.16 
L 225.204079 7.2 
" style="fill:none;stroke:#b0b0b0;stroke-linecap:square;stroke-width:0.8;"/>
     </g>
     <g id="line2d_32">
      <g>
       <use style="stroke:#000000;stroke-width:0.6;" x="225.204079" xlink:href="#m574446d4f6" y="506.16"/>
      </g>
     </g>
    </g>
    <g id="xtick_17">
     <g id="line2d_33">
      <path clip-path="url(#p50741709d4)" d="M 229.961264 506.16 
L 229.961264 7.2 
" style="fill:none;stroke:#b0b0b0;stroke-linecap:square;stroke-width:0.8;"/>
     </g>
     <g id="line2d_34">
      <g>
       <use style="stroke:#000000;stroke-width:0.6;" x="229.961264" xlink:href="#m574446d4f6" y="506.16"/>
      </g>
     </g>
    </g>
    <g id="xtick_18">
     <g id="line2d_35">
      <path clip-path="url(#p50741709d4)" d="M 262.2125 506.16 
L 262.2125 7.2 
" style="fill:none;stroke:#b0b0b0;stroke-linecap:square;stroke-width:0.8;"/>
     </g>
     <g id="line2d_36">
      <g>
       <use style="stroke:#000000;stroke-width:0.6;" x="262.2125" xlink:href="#m574446d4f6" y="506.16"/>
      </g>
     </g>
    </g>
    <g id="xtick_19">
     <g id="line2d_37">
      <path clip-path="url(#p50741709d4)" d="M 290.20829 506.16 
L 290.20829 7.2 
" style="fill:none;stroke:#b0b0b0;stroke-linecap:square;stroke-width:0.8;"/>
     </g>
     <g id="line2d_38">
      <g>
       <use style="stroke:#000000;stroke-width:0.6;" x="290.20829" xlink:href="#m574446d4f6" y="506.16"/>
      </g>
     </g>
    </g>
    <g id="xtick_20">
     <g id="line2d_39">
      <path clip-path="url(#p50741709d4)" d="M 299.220921 506.16 
L 299.220921 7.2 
" style="fill:none;stroke:#b0b0b0;stroke-linecap:square;stroke-width:0.8;"/>
     </g>
     <g id="line2d_40">
      <g>
       <use style="stroke:#000000;stroke-width:0.6;" x="299.220921" xlink:href="#m574446d4f6" y="506.16"/>
      </g>
     </g>
    </g>
    <g id="xtick_21">
     <g id="line2d_41">
      <path clip-path="url(#p50741709d4)" d="M 306.584777 506.16 
L 306.584777 7.2 
" style="fill:none;stroke:#b0b0b0;stroke-linecap:square;stroke-width:0.8;"/>
     </g>
     <g id="line2d_42">
      <g>
       <use style="stroke:#000000;stroke-width:0.6;" x="306.584777" xlink:href="#m574446d4f6" y="506.16"/>
      </g>
     </g>
    </g>
    <g id="xtick_22">
     <g id="line2d_43">
      <path clip-path="url(#p50741709d4)" d="M 312.810828 506.16 
L 312.810828 7.2 
" style="fill:none;stroke:#b0b0b0;stroke-linecap:square;stroke-width:0.8;"/>
     </g>
     <g id="line2d_44">
      <g>
       <use style="stroke:#000000;stroke-width:0.6;" x="312.810828" xlink:href="#m574446d4f6" y="506.16"/>
      </g>
     </g>
    </g>
    <g id="xtick_23">
     <g id="line2d_45">
      <path clip-path="url(#p50741709d4)" d="M 318.204079 506.16 
L 318.204079 7.2 
" style="fill:none;stroke:#b0b0b0;stroke-linecap:square;stroke-width:0.8;"/>
     </g>
     <g id="line2d_46">
      <g>
       <use style="stroke:#000000;stroke-width:0.6;" x="318.204079" xlink:href="#m574446d4f6" y="506.16"/>
      </g>
     </g>
    </g>
    <g id="xtick_24">
     <g id="line2d_47">
      <path clip-path="url(#p50741709d4)" d="M 322.961264 506.16 
L 322.961264 7.2 
" style="fill:none;stroke:#b0b0b0;stroke-linecap:square;stroke-width:0.8;"/>
     </g>
     <g id="line2d_48">
      <g>
       <use style="stroke:#000000;stroke-width:0.6;" x="322.961264" xlink:href="#m574446d4f6" y="506.16"/>
      </g>
     </g>
    </g>
    <g id="xtick_25">
     <g id="line2d_49">
      <path clip-path="url(#p50741709d4)" d="M 355.2125 506.16 
L 355.2125 7.2 
" style="fill:none;stroke:#b0b0b0;stroke-linecap:square;stroke-width:0.8;"/>
     </g>
     <g id="line2d_50">
      <g>
       <use style="stroke:#000000;stroke-width:0.6;" x="355.2125" xlink:href="#m574446d4f6" y="506.16"/>
      </g>
     </g>
    </g>
    <g id="text_6">
     <!-- Mean GFP Fluorescence (AU) -->
     <g transform="translate(85.978906 566.515313)scale(0.18 -0.18)">
      <defs>
       <path d="M 9.8125 72.90625 
L 24.515625 72.90625 
L 43.109375 23.296875 
L 61.8125 72.90625 
L 76.515625 72.90625 
L 76.515625 0 
L 66.890625 0 
L 66.890625 64.015625 
L 48.09375 14.015625 
L 38.1875 14.015625 
L 19.390625 64.015625 
L 19.390625 0 
L 9.8125 0 
z
" id="DejaVuSans-77"/>
       <path d="M 56.203125 29.59375 
L 56.203125 25.203125 
L 14.890625 25.203125 
Q 15.484375 15.921875 20.484375 11.0625 
Q 25.484375 6.203125 34.421875 6.203125 
Q 39.59375 6.203125 44.453125 7.46875 
Q 49.3125 8.734375 54.109375 11.28125 
L 54.109375 2.78125 
Q 49.265625 0.734375 44.1875 -0.34375 
Q 39.109375 -1.421875 33.890625 -1.421875 
Q 20.796875 -1.421875 13.15625 6.1875 
Q 5.515625 13.8125 5.515625 26.8125 
Q 5.515625 40.234375 12.765625 48.109375 
Q 20.015625 56 32.328125 56 
Q 43.359375 56 49.78125 48.890625 
Q 56.203125 41.796875 56.203125 29.59375 
z
M 47.21875 32.234375 
Q 47.125 39.59375 43.09375 43.984375 
Q 39.0625 48.390625 32.421875 48.390625 
Q 24.90625 48.390625 20.390625 44.140625 
Q 15.875 39.890625 15.1875 32.171875 
z
" id="DejaVuSans-101"/>
       <path d="M 34.28125 27.484375 
Q 23.390625 27.484375 19.1875 25 
Q 14.984375 22.515625 14.984375 16.5 
Q 14.984375 11.71875 18.140625 8.90625 
Q 21.296875 6.109375 26.703125 6.109375 
Q 34.1875 6.109375 38.703125 11.40625 
Q 43.21875 16.703125 43.21875 25.484375 
L 43.21875 27.484375 
z
M 52.203125 31.203125 
L 52.203125 0 
L 43.21875 0 
L 43.21875 8.296875 
Q 40.140625 3.328125 35.546875 0.953125 
Q 30.953125 -1.421875 24.3125 -1.421875 
Q 15.921875 -1.421875 10.953125 3.296875 
Q 6 8.015625 6 15.921875 
Q 6 25.140625 12.171875 29.828125 
Q 18.359375 34.515625 30.609375 34.515625 
L 43.21875 34.515625 
L 43.21875 35.40625 
Q 43.21875 41.609375 39.140625 45 
Q 35.0625 48.390625 27.6875 48.390625 
Q 23 48.390625 18.546875 47.265625 
Q 14.109375 46.140625 10.015625 43.890625 
L 10.015625 52.203125 
Q 14.9375 54.109375 19.578125 55.046875 
Q 24.21875 56 28.609375 56 
Q 40.484375 56 46.34375 49.84375 
Q 52.203125 43.703125 52.203125 31.203125 
z
" id="DejaVuSans-97"/>
       <path d="M 54.890625 33.015625 
L 54.890625 0 
L 45.90625 0 
L 45.90625 32.71875 
Q 45.90625 40.484375 42.875 44.328125 
Q 39.84375 48.1875 33.796875 48.1875 
Q 26.515625 48.1875 22.3125 43.546875 
Q 18.109375 38.921875 18.109375 30.90625 
L 18.109375 0 
L 9.078125 0 
L 9.078125 54.6875 
L 18.109375 54.6875 
L 18.109375 46.1875 
Q 21.34375 51.125 25.703125 53.5625 
Q 30.078125 56 35.796875 56 
Q 45.21875 56 50.046875 50.171875 
Q 54.890625 44.34375 54.890625 33.015625 
z
" id="DejaVuSans-110"/>
       <path id="DejaVuSans-32"/>
       <path d="M 59.515625 10.40625 
L 59.515625 29.984375 
L 43.40625 29.984375 
L 43.40625 38.09375 
L 69.28125 38.09375 
L 69.28125 6.78125 
Q 63.578125 2.734375 56.6875 0.65625 
Q 49.8125 -1.421875 42 -1.421875 
Q 24.90625 -1.421875 15.25 8.5625 
Q 5.609375 18.5625 5.609375 36.375 
Q 5.609375 54.25 15.25 64.234375 
Q 24.90625 74.21875 42 74.21875 
Q 49.125 74.21875 55.546875 72.453125 
Q 61.96875 70.703125 67.390625 67.28125 
L 67.390625 56.78125 
Q 61.921875 61.421875 55.765625 63.765625 
Q 49.609375 66.109375 42.828125 66.109375 
Q 29.4375 66.109375 22.71875 58.640625 
Q 16.015625 51.171875 16.015625 36.375 
Q 16.015625 21.625 22.71875 14.15625 
Q 29.4375 6.6875 42.828125 6.6875 
Q 48.046875 6.6875 52.140625 7.59375 
Q 56.25 8.5 59.515625 10.40625 
z
" id="DejaVuSans-71"/>
       <path d="M 9.8125 72.90625 
L 51.703125 72.90625 
L 51.703125 64.59375 
L 19.671875 64.59375 
L 19.671875 43.109375 
L 48.578125 43.109375 
L 48.578125 34.8125 
L 19.671875 34.8125 
L 19.671875 0 
L 9.8125 0 
z
" id="DejaVuSans-70"/>
       <path d="M 19.671875 64.796875 
L 19.671875 37.40625 
L 32.078125 37.40625 
Q 38.96875 37.40625 42.71875 40.96875 
Q 46.484375 44.53125 46.484375 51.125 
Q 46.484375 57.671875 42.71875 61.234375 
Q 38.96875 64.796875 32.078125 64.796875 
z
M 9.8125 72.90625 
L 32.078125 72.90625 
Q 44.34375 72.90625 50.609375 67.359375 
Q 56.890625 61.8125 56.890625 51.125 
Q 56.890625 40.328125 50.609375 34.8125 
Q 44.34375 29.296875 32.078125 29.296875 
L 19.671875 29.296875 
L 19.671875 0 
L 9.8125 0 
z
" id="DejaVuSans-80"/>
       <path d="M 9.421875 75.984375 
L 18.40625 75.984375 
L 18.40625 0 
L 9.421875 0 
z
" id="DejaVuSans-108"/>
       <path d="M 8.5 21.578125 
L 8.5 54.6875 
L 17.484375 54.6875 
L 17.484375 21.921875 
Q 17.484375 14.15625 20.5 10.265625 
Q 23.53125 6.390625 29.59375 6.390625 
Q 36.859375 6.390625 41.078125 11.03125 
Q 45.3125 15.671875 45.3125 23.6875 
L 45.3125 54.6875 
L 54.296875 54.6875 
L 54.296875 0 
L 45.3125 0 
L 45.3125 8.40625 
Q 42.046875 3.421875 37.71875 1 
Q 33.40625 -1.421875 27.6875 -1.421875 
Q 18.265625 -1.421875 13.375 4.4375 
Q 8.5 10.296875 8.5 21.578125 
z
M 31.109375 56 
z
" id="DejaVuSans-117"/>
       <path d="M 30.609375 48.390625 
Q 23.390625 48.390625 19.1875 42.75 
Q 14.984375 37.109375 14.984375 27.296875 
Q 14.984375 17.484375 19.15625 11.84375 
Q 23.34375 6.203125 30.609375 6.203125 
Q 37.796875 6.203125 41.984375 11.859375 
Q 46.1875 17.53125 46.1875 27.296875 
Q 46.1875 37.015625 41.984375 42.703125 
Q 37.796875 48.390625 30.609375 48.390625 
z
M 30.609375 56 
Q 42.328125 56 49.015625 48.375 
Q 55.71875 40.765625 55.71875 27.296875 
Q 55.71875 13.875 49.015625 6.21875 
Q 42.328125 -1.421875 30.609375 -1.421875 
Q 18.84375 -1.421875 12.171875 6.21875 
Q 5.515625 13.875 5.515625 27.296875 
Q 5.515625 40.765625 12.171875 48.375 
Q 18.84375 56 30.609375 56 
z
" id="DejaVuSans-111"/>
       <path d="M 41.109375 46.296875 
Q 39.59375 47.171875 37.8125 47.578125 
Q 36.03125 48 33.890625 48 
Q 26.265625 48 22.1875 43.046875 
Q 18.109375 38.09375 18.109375 28.8125 
L 18.109375 0 
L 9.078125 0 
L 9.078125 54.6875 
L 18.109375 54.6875 
L 18.109375 46.1875 
Q 20.953125 51.171875 25.484375 53.578125 
Q 30.03125 56 36.53125 56 
Q 37.453125 56 38.578125 55.875 
Q 39.703125 55.765625 41.0625 55.515625 
z
" id="DejaVuSans-114"/>
       <path d="M 44.28125 53.078125 
L 44.28125 44.578125 
Q 40.484375 46.53125 36.375 47.5 
Q 32.28125 48.484375 27.875 48.484375 
Q 21.1875 48.484375 17.84375 46.4375 
Q 14.5 44.390625 14.5 40.28125 
Q 14.5 37.15625 16.890625 35.375 
Q 19.28125 33.59375 26.515625 31.984375 
L 29.59375 31.296875 
Q 39.15625 29.25 43.1875 25.515625 
Q 47.21875 21.78125 47.21875 15.09375 
Q 47.21875 7.46875 41.1875 3.015625 
Q 35.15625 -1.421875 24.609375 -1.421875 
Q 20.21875 -1.421875 15.453125 -0.5625 
Q 10.6875 0.296875 5.421875 2 
L 5.421875 11.28125 
Q 10.40625 8.6875 15.234375 7.390625 
Q 20.0625 6.109375 24.8125 6.109375 
Q 31.15625 6.109375 34.5625 8.28125 
Q 37.984375 10.453125 37.984375 14.40625 
Q 37.984375 18.0625 35.515625 20.015625 
Q 33.0625 21.96875 24.703125 23.78125 
L 21.578125 24.515625 
Q 13.234375 26.265625 9.515625 29.90625 
Q 5.8125 33.546875 5.8125 39.890625 
Q 5.8125 47.609375 11.28125 51.796875 
Q 16.75 56 26.8125 56 
Q 31.78125 56 36.171875 55.265625 
Q 40.578125 54.546875 44.28125 53.078125 
z
" id="DejaVuSans-115"/>
       <path d="M 48.78125 52.59375 
L 48.78125 44.1875 
Q 44.96875 46.296875 41.140625 47.34375 
Q 37.3125 48.390625 33.40625 48.390625 
Q 24.65625 48.390625 19.8125 42.84375 
Q 14.984375 37.3125 14.984375 27.296875 
Q 14.984375 17.28125 19.8125 11.734375 
Q 24.65625 6.203125 33.40625 6.203125 
Q 37.3125 6.203125 41.140625 7.25 
Q 44.96875 8.296875 48.78125 10.40625 
L 48.78125 2.09375 
Q 45.015625 0.34375 40.984375 -0.53125 
Q 36.96875 -1.421875 32.421875 -1.421875 
Q 20.0625 -1.421875 12.78125 6.34375 
Q 5.515625 14.109375 5.515625 27.296875 
Q 5.515625 40.671875 12.859375 48.328125 
Q 20.21875 56 33.015625 56 
Q 37.15625 56 41.109375 55.140625 
Q 45.0625 54.296875 48.78125 52.59375 
z
" id="DejaVuSans-99"/>
       <path d="M 31 75.875 
Q 24.46875 64.65625 21.28125 53.65625 
Q 18.109375 42.671875 18.109375 31.390625 
Q 18.109375 20.125 21.3125 9.0625 
Q 24.515625 -2 31 -13.1875 
L 23.1875 -13.1875 
Q 15.875 -1.703125 12.234375 9.375 
Q 8.59375 20.453125 8.59375 31.390625 
Q 8.59375 42.28125 12.203125 53.3125 
Q 15.828125 64.359375 23.1875 75.875 
z
" id="DejaVuSans-40"/>
       <path d="M 34.1875 63.1875 
L 20.796875 26.90625 
L 47.609375 26.90625 
z
M 28.609375 72.90625 
L 39.796875 72.90625 
L 67.578125 0 
L 57.328125 0 
L 50.6875 18.703125 
L 17.828125 18.703125 
L 11.1875 0 
L 0.78125 0 
z
" id="DejaVuSans-65"/>
       <path d="M 8.6875 72.90625 
L 18.609375 72.90625 
L 18.609375 28.609375 
Q 18.609375 16.890625 22.84375 11.734375 
Q 27.09375 6.59375 36.625 6.59375 
Q 46.09375 6.59375 50.34375 11.734375 
Q 54.59375 16.890625 54.59375 28.609375 
L 54.59375 72.90625 
L 64.5 72.90625 
L 64.5 27.390625 
Q 64.5 13.140625 57.4375 5.859375 
Q 50.390625 -1.421875 36.625 -1.421875 
Q 22.796875 -1.421875 15.734375 5.859375 
Q 8.6875 13.140625 8.6875 27.390625 
z
" id="DejaVuSans-85"/>
       <path d="M 8.015625 75.875 
L 15.828125 75.875 
Q 23.140625 64.359375 26.78125 53.3125 
Q 30.421875 42.28125 30.421875 31.390625 
Q 30.421875 20.453125 26.78125 9.375 
Q 23.140625 -1.703125 15.828125 -13.1875 
L 8.015625 -13.1875 
Q 14.5 -2 17.703125 9.0625 
Q 20.90625 20.125 20.90625 31.390625 
Q 20.90625 42.671875 17.703125 53.65625 
Q 14.5 64.65625 8.015625 75.875 
z
" id="DejaVuSans-41"/>
      </defs>
      <use xlink:href="#DejaVuSans-77"/>
      <use x="86.279297" xlink:href="#DejaVuSans-101"/>
      <use x="147.802734" xlink:href="#DejaVuSans-97"/>
      <use x="209.082031" xlink:href="#DejaVuSans-110"/>
      <use x="272.460938" xlink:href="#DejaVuSans-32"/>
      <use x="304.248047" xlink:href="#DejaVuSans-71"/>
      <use x="381.738281" xlink:href="#DejaVuSans-70"/>
      <use x="439.257812" xlink:href="#DejaVuSans-80"/>
      <use x="499.560547" xlink:href="#DejaVuSans-32"/>
      <use x="531.347656" xlink:href="#DejaVuSans-70"/>
      <use x="588.867188" xlink:href="#DejaVuSans-108"/>
      <use x="616.650391" xlink:href="#DejaVuSans-117"/>
      <use x="680.029297" xlink:href="#DejaVuSans-111"/>
      <use x="741.210938" xlink:href="#DejaVuSans-114"/>
      <use x="780.074219" xlink:href="#DejaVuSans-101"/>
      <use x="841.597656" xlink:href="#DejaVuSans-115"/>
      <use x="893.697266" xlink:href="#DejaVuSans-99"/>
      <use x="948.677734" xlink:href="#DejaVuSans-101"/>
      <use x="1010.201172" xlink:href="#DejaVuSans-110"/>
      <use x="1073.580078" xlink:href="#DejaVuSans-99"/>
      <use x="1128.560547" xlink:href="#DejaVuSans-101"/>
      <use x="1190.083984" xlink:href="#DejaVuSans-32"/>
      <use x="1221.871094" xlink:href="#DejaVuSans-40"/>
      <use x="1260.884766" xlink:href="#DejaVuSans-65"/>
      <use x="1329.292969" xlink:href="#DejaVuSans-85"/>
      <use x="1402.486328" xlink:href="#DejaVuSans-41"/>
     </g>
    </g>
   </g>
   <g id="matplotlib.axis_2">
    <g id="ytick_1">
     <g id="line2d_51">
      <defs>
       <path d="M 0 0 
L -3.5 0 
" id="m0488739ea3" style="stroke:#000000;stroke-width:0.8;"/>
      </defs>
      <g>
       <use style="stroke:#000000;stroke-width:0.8;" x="76.2125" xlink:href="#m0488739ea3" y="474.975"/>
      </g>
     </g>
     <g id="text_7">
      <!-- WT_A-A -->
      <g transform="translate(31.378125 478.635156)scale(0.1 -0.1)">
       <defs>
        <path d="M 3.328125 72.90625 
L 13.28125 72.90625 
L 28.609375 11.28125 
L 43.890625 72.90625 
L 54.984375 72.90625 
L 70.3125 11.28125 
L 85.59375 72.90625 
L 95.609375 72.90625 
L 77.296875 0 
L 64.890625 0 
L 49.515625 63.28125 
L 33.984375 0 
L 21.578125 0 
z
" id="DejaVuSans-87"/>
        <path d="M -0.296875 72.90625 
L 61.375 72.90625 
L 61.375 64.59375 
L 35.5 64.59375 
L 35.5 0 
L 25.59375 0 
L 25.59375 64.59375 
L -0.296875 64.59375 
z
" id="DejaVuSans-84"/>
        <path d="M 50.984375 -16.609375 
L 50.984375 -23.578125 
L -0.984375 -23.578125 
L -0.984375 -16.609375 
z
" id="DejaVuSans-95"/>
        <path d="M 4.890625 31.390625 
L 31.203125 31.390625 
L 31.203125 23.390625 
L 4.890625 23.390625 
z
" id="DejaVuSans-45"/>
       </defs>
       <use xlink:href="#DejaVuSans-87"/>
       <use x="98.876953" xlink:href="#DejaVuSans-84"/>
       <use x="159.960938" xlink:href="#DejaVuSans-95"/>
       <use x="209.960938" xlink:href="#DejaVuSans-65"/>
       <use x="276.119141" xlink:href="#DejaVuSans-45"/>
       <use x="309.953125" xlink:href="#DejaVuSans-65"/>
      </g>
     </g>
    </g>
    <g id="ytick_2">
     <g id="line2d_52">
      <g>
       <use style="stroke:#000000;stroke-width:0.8;" x="76.2125" xlink:href="#m0488739ea3" y="412.605"/>
      </g>
     </g>
     <g id="text_8">
      <!-- WT_5W-A -->
      <g transform="translate(22.14375 416.265156)scale(0.1 -0.1)">
       <defs>
        <path d="M 10.796875 72.90625 
L 49.515625 72.90625 
L 49.515625 64.59375 
L 19.828125 64.59375 
L 19.828125 46.734375 
Q 21.96875 47.46875 24.109375 47.828125 
Q 26.265625 48.1875 28.421875 48.1875 
Q 40.625 48.1875 47.75 41.5 
Q 54.890625 34.8125 54.890625 23.390625 
Q 54.890625 11.625 47.5625 5.09375 
Q 40.234375 -1.421875 26.90625 -1.421875 
Q 22.3125 -1.421875 17.546875 -0.640625 
Q 12.796875 0.140625 7.71875 1.703125 
L 7.71875 11.625 
Q 12.109375 9.234375 16.796875 8.0625 
Q 21.484375 6.890625 26.703125 6.890625 
Q 35.15625 6.890625 40.078125 11.328125 
Q 45.015625 15.765625 45.015625 23.390625 
Q 45.015625 31 40.078125 35.4375 
Q 35.15625 39.890625 26.703125 39.890625 
Q 22.75 39.890625 18.8125 39.015625 
Q 14.890625 38.140625 10.796875 36.28125 
z
" id="DejaVuSans-53"/>
       </defs>
       <use xlink:href="#DejaVuSans-87"/>
       <use x="98.876953" xlink:href="#DejaVuSans-84"/>
       <use x="159.960938" xlink:href="#DejaVuSans-95"/>
       <use x="209.960938" xlink:href="#DejaVuSans-53"/>
       <use x="273.583984" xlink:href="#DejaVuSans-87"/>
       <use x="368.460938" xlink:href="#DejaVuSans-45"/>
       <use x="402.294922" xlink:href="#DejaVuSans-65"/>
      </g>
     </g>
    </g>
    <g id="ytick_3">
     <g id="line2d_53">
      <g>
       <use style="stroke:#000000;stroke-width:0.8;" x="76.2125" xlink:href="#m0488739ea3" y="350.235"/>
      </g>
     </g>
     <g id="text_9">
      <!-- WT_A-5W -->
      <g transform="translate(21.74375 353.895156)scale(0.1 -0.1)">
       <use xlink:href="#DejaVuSans-87"/>
       <use x="98.876953" xlink:href="#DejaVuSans-84"/>
       <use x="159.960938" xlink:href="#DejaVuSans-95"/>
       <use x="209.960938" xlink:href="#DejaVuSans-65"/>
       <use x="276.119141" xlink:href="#DejaVuSans-45"/>
       <use x="312.203125" xlink:href="#DejaVuSans-53"/>
       <use x="375.826172" xlink:href="#DejaVuSans-87"/>
      </g>
     </g>
    </g>
    <g id="ytick_4">
     <g id="line2d_54">
      <g>
       <use style="stroke:#000000;stroke-width:0.8;" x="76.2125" xlink:href="#m0488739ea3" y="287.865"/>
      </g>
     </g>
     <g id="text_10">
      <!-- WT-N-A -->
      <g transform="translate(32.817188 291.664219)scale(0.1 -0.1)">
       <defs>
        <path d="M 9.8125 72.90625 
L 23.09375 72.90625 
L 55.421875 11.921875 
L 55.421875 72.90625 
L 64.984375 72.90625 
L 64.984375 0 
L 51.703125 0 
L 19.390625 60.984375 
L 19.390625 0 
L 9.8125 0 
z
" id="DejaVuSans-78"/>
       </defs>
       <use xlink:href="#DejaVuSans-87"/>
       <use x="98.876953" xlink:href="#DejaVuSans-84"/>
       <use x="150.835938" xlink:href="#DejaVuSans-45"/>
       <use x="186.919922" xlink:href="#DejaVuSans-78"/>
       <use x="261.724609" xlink:href="#DejaVuSans-45"/>
       <use x="295.558594" xlink:href="#DejaVuSans-65"/>
      </g>
     </g>
    </g>
    <g id="ytick_5">
     <g id="line2d_55">
      <g>
       <use style="stroke:#000000;stroke-width:0.8;" x="76.2125" xlink:href="#m0488739ea3" y="225.495"/>
      </g>
     </g>
     <g id="text_11">
      <!-- WT_A-N -->
      <g transform="translate(30.5125 229.155156)scale(0.1 -0.1)">
       <use xlink:href="#DejaVuSans-87"/>
       <use x="98.876953" xlink:href="#DejaVuSans-84"/>
       <use x="159.960938" xlink:href="#DejaVuSans-95"/>
       <use x="209.960938" xlink:href="#DejaVuSans-65"/>
       <use x="276.119141" xlink:href="#DejaVuSans-45"/>
       <use x="312.203125" xlink:href="#DejaVuSans-78"/>
      </g>
     </g>
    </g>
    <g id="ytick_6">
     <g id="line2d_56">
      <g>
       <use style="stroke:#000000;stroke-width:0.8;" x="76.2125" xlink:href="#m0488739ea3" y="163.125"/>
      </g>
     </g>
     <g id="text_12">
      <!-- WT_N-5W -->
      <g transform="translate(20.878125 166.785156)scale(0.1 -0.1)">
       <use xlink:href="#DejaVuSans-87"/>
       <use x="98.876953" xlink:href="#DejaVuSans-84"/>
       <use x="159.960938" xlink:href="#DejaVuSans-95"/>
       <use x="209.960938" xlink:href="#DejaVuSans-78"/>
       <use x="284.765625" xlink:href="#DejaVuSans-45"/>
       <use x="320.849609" xlink:href="#DejaVuSans-53"/>
       <use x="384.472656" xlink:href="#DejaVuSans-87"/>
      </g>
     </g>
    </g>
    <g id="ytick_7">
     <g id="line2d_57">
      <g>
       <use style="stroke:#000000;stroke-width:0.8;" x="76.2125" xlink:href="#m0488739ea3" y="100.755"/>
      </g>
     </g>
     <g id="text_13">
      <!-- WT_5W-N -->
      <g transform="translate(21.278125 104.415156)scale(0.1 -0.1)">
       <use xlink:href="#DejaVuSans-87"/>
       <use x="98.876953" xlink:href="#DejaVuSans-84"/>
       <use x="159.960938" xlink:href="#DejaVuSans-95"/>
       <use x="209.960938" xlink:href="#DejaVuSans-53"/>
       <use x="273.583984" xlink:href="#DejaVuSans-87"/>
       <use x="368.460938" xlink:href="#DejaVuSans-45"/>
       <use x="404.544922" xlink:href="#DejaVuSans-78"/>
      </g>
     </g>
    </g>
    <g id="ytick_8">
     <g id="line2d_58">
      <g>
       <use style="stroke:#000000;stroke-width:0.8;" x="76.2125" xlink:href="#m0488739ea3" y="38.385"/>
      </g>
     </g>
     <g id="text_14">
      <!-- WT_N-N -->
      <g transform="translate(29.646875 42.045156)scale(0.1 -0.1)">
       <use xlink:href="#DejaVuSans-87"/>
       <use x="98.876953" xlink:href="#DejaVuSans-84"/>
       <use x="159.960938" xlink:href="#DejaVuSans-95"/>
       <use x="209.960938" xlink:href="#DejaVuSans-78"/>
       <use x="284.765625" xlink:href="#DejaVuSans-45"/>
       <use x="320.849609" xlink:href="#DejaVuSans-78"/>
      </g>
     </g>
    </g>
    <g id="text_15">
     <!-- promoter -->
     <g transform="translate(14.798438 279.878437)rotate(-90)scale(0.1 -0.1)">
      <defs>
       <path d="M 18.109375 8.203125 
L 18.109375 -20.796875 
L 9.078125 -20.796875 
L 9.078125 54.6875 
L 18.109375 54.6875 
L 18.109375 46.390625 
Q 20.953125 51.265625 25.265625 53.625 
Q 29.59375 56 35.59375 56 
Q 45.5625 56 51.78125 48.09375 
Q 58.015625 40.1875 58.015625 27.296875 
Q 58.015625 14.40625 51.78125 6.484375 
Q 45.5625 -1.421875 35.59375 -1.421875 
Q 29.59375 -1.421875 25.265625 0.953125 
Q 20.953125 3.328125 18.109375 8.203125 
z
M 48.6875 27.296875 
Q 48.6875 37.203125 44.609375 42.84375 
Q 40.53125 48.484375 33.40625 48.484375 
Q 26.265625 48.484375 22.1875 42.84375 
Q 18.109375 37.203125 18.109375 27.296875 
Q 18.109375 17.390625 22.1875 11.75 
Q 26.265625 6.109375 33.40625 6.109375 
Q 40.53125 6.109375 44.609375 11.75 
Q 48.6875 17.390625 48.6875 27.296875 
z
" id="DejaVuSans-112"/>
       <path d="M 52 44.1875 
Q 55.375 50.25 60.0625 53.125 
Q 64.75 56 71.09375 56 
Q 79.640625 56 84.28125 50.015625 
Q 88.921875 44.046875 88.921875 33.015625 
L 88.921875 0 
L 79.890625 0 
L 79.890625 32.71875 
Q 79.890625 40.578125 77.09375 44.375 
Q 74.3125 48.1875 68.609375 48.1875 
Q 61.625 48.1875 57.5625 43.546875 
Q 53.515625 38.921875 53.515625 30.90625 
L 53.515625 0 
L 44.484375 0 
L 44.484375 32.71875 
Q 44.484375 40.625 41.703125 44.40625 
Q 38.921875 48.1875 33.109375 48.1875 
Q 26.21875 48.1875 22.15625 43.53125 
Q 18.109375 38.875 18.109375 30.90625 
L 18.109375 0 
L 9.078125 0 
L 9.078125 54.6875 
L 18.109375 54.6875 
L 18.109375 46.1875 
Q 21.1875 51.21875 25.484375 53.609375 
Q 29.78125 56 35.6875 56 
Q 41.65625 56 45.828125 52.96875 
Q 50 49.953125 52 44.1875 
z
" id="DejaVuSans-109"/>
       <path d="M 18.3125 70.21875 
L 18.3125 54.6875 
L 36.8125 54.6875 
L 36.8125 47.703125 
L 18.3125 47.703125 
L 18.3125 18.015625 
Q 18.3125 11.328125 20.140625 9.421875 
Q 21.96875 7.515625 27.59375 7.515625 
L 36.8125 7.515625 
L 36.8125 0 
L 27.59375 0 
Q 17.1875 0 13.234375 3.875 
Q 9.28125 7.765625 9.28125 18.015625 
L 9.28125 47.703125 
L 2.6875 47.703125 
L 2.6875 54.6875 
L 9.28125 54.6875 
L 9.28125 70.21875 
z
" id="DejaVuSans-116"/>
      </defs>
      <use xlink:href="#DejaVuSans-112"/>
      <use x="63.476562" xlink:href="#DejaVuSans-114"/>
      <use x="102.339844" xlink:href="#DejaVuSans-111"/>
      <use x="163.521484" xlink:href="#DejaVuSans-109"/>
      <use x="260.933594" xlink:href="#DejaVuSans-111"/>
      <use x="322.115234" xlink:href="#DejaVuSans-116"/>
      <use x="361.324219" xlink:href="#DejaVuSans-101"/>
      <use x="422.847656" xlink:href="#DejaVuSans-114"/>
     </g>
    </g>
   </g>
   <g id="patch_3">
    <path d="M 76.2125 506.16 
L 76.2125 7.2 
" style="fill:none;stroke:#000000;stroke-linecap:square;stroke-linejoin:miter;stroke-width:0.8;"/>
   </g>
   <g id="patch_4">
    <path d="M 355.2125 506.16 
L 355.2125 7.2 
" style="fill:none;stroke:#000000;stroke-linecap:square;stroke-linejoin:miter;stroke-width:0.8;"/>
   </g>
   <g id="patch_5">
    <path d="M 76.2125 506.16 
L 355.2125 506.16 
" style="fill:none;stroke:#000000;stroke-linecap:square;stroke-linejoin:miter;stroke-width:0.8;"/>
   </g>
   <g id="patch_6">
    <path d="M 76.2125 7.2 
L 355.2125 7.2 
" style="fill:none;stroke:#000000;stroke-linecap:square;stroke-linejoin:miter;stroke-width:0.8;"/>
   </g>
   <g id="PathCollection_1">
    <defs>
     <path d="M 0 3 
C 0.795609 3 1.55874 2.683901 2.12132 2.12132 
C 2.683901 1.55874 3 0.795609 3 -0 
C 3 -0.795609 2.683901 -1.55874 2.12132 -2.12132 
C 1.55874 -2.683901 0.795609 -3 0 -3 
C -0.795609 -3 -1.55874 -2.683901 -2.12132 -2.12132 
C -2.683901 -1.55874 -3 -0.795609 -3 0 
C -3 0.795609 -2.683901 1.55874 -2.12132 2.12132 
C -1.55874 2.683901 -0.795609 3 0 3 
z
" id="C0_0_a74be2fb9a"/>
    </defs>
    <g clip-path="url(#p50741709d4)">
     <use style="fill:#1a1a1a;stroke:#000000;" x="204.728233" xlink:href="#C0_0_a74be2fb9a" y="462.470892"/>
    </g>
    <g clip-path="url(#p50741709d4)">
     <use style="fill:#1a1a1a;stroke:#000000;" x="193.054033" xlink:href="#C0_0_a74be2fb9a" y="461.580077"/>
    </g>
    <g clip-path="url(#p50741709d4)">
     <use style="fill:#1a1a1a;stroke:#000000;" x="197.865662" xlink:href="#C0_0_a74be2fb9a" y="487.850402"/>
    </g>
    <g clip-path="url(#p50741709d4)">
     <use style="fill:#1a1a1a;stroke:#000000;" x="206.233738" xlink:href="#C0_0_a74be2fb9a" y="482.641225"/>
    </g>
    <g clip-path="url(#p50741709d4)">
     <use style="fill:#1a1a1a;stroke:#000000;" x="189.631277" xlink:href="#C0_0_a74be2fb9a" y="466.651416"/>
    </g>
    <g clip-path="url(#p50741709d4)">
     <use style="fill:#1a1a1a;stroke:#000000;" x="179.87203" xlink:href="#C0_0_a74be2fb9a" y="465.943044"/>
    </g>
    <g clip-path="url(#p50741709d4)">
     <use style="fill:#1a1a1a;stroke:#000000;" x="177.199028" xlink:href="#C0_0_a74be2fb9a" y="475.811339"/>
    </g>
    <g clip-path="url(#p50741709d4)">
     <use style="fill:#1a1a1a;stroke:#000000;" x="180.651219" xlink:href="#C0_0_a74be2fb9a" y="486.489169"/>
    </g>
    <g clip-path="url(#p50741709d4)">
     <use style="fill:#1a1a1a;stroke:#000000;" x="178.749753" xlink:href="#C0_0_a74be2fb9a" y="469.028466"/>
    </g>
   </g>
   <g id="PathCollection_2">
    <defs>
     <path d="M 0 3 
C 0.795609 3 1.55874 2.683901 2.12132 2.12132 
C 2.683901 1.55874 3 0.795609 3 -0 
C 3 -0.795609 2.683901 -1.55874 2.12132 -2.12132 
C 1.55874 -2.683901 0.795609 -3 0 -3 
C -0.795609 -3 -1.55874 -2.683901 -2.12132 -2.12132 
C -2.683901 -1.55874 -3 -0.795609 -3 0 
C -3 0.795609 -2.683901 1.55874 -2.12132 2.12132 
C -1.55874 2.683901 -0.795609 3 0 3 
z
" id="C1_0_e3872e604b"/>
    </defs>
    <g clip-path="url(#p50741709d4)">
     <use style="fill:#1a1a1a;stroke:#000000;" x="197.593128" xlink:href="#C1_0_e3872e604b" y="403.215089"/>
    </g>
    <g clip-path="url(#p50741709d4)">
     <use style="fill:#1a1a1a;stroke:#000000;" x="185.971747" xlink:href="#C1_0_e3872e604b" y="414.169547"/>
    </g>
    <g clip-path="url(#p50741709d4)">
     <use style="fill:#1a1a1a;stroke:#000000;" x="194.209935" xlink:href="#C1_0_e3872e604b" y="406.885477"/>
    </g>
    <g clip-path="url(#p50741709d4)">
     <use style="fill:#1a1a1a;stroke:#000000;" x="208.817711" xlink:href="#C1_0_e3872e604b" y="402.962337"/>
    </g>
    <g clip-path="url(#p50741709d4)">
     <use style="fill:#1a1a1a;stroke:#000000;" x="189.886566" xlink:href="#C1_0_e3872e604b" y="404.985122"/>
    </g>
    <g clip-path="url(#p50741709d4)">
     <use style="fill:#1a1a1a;stroke:#000000;" x="182.071255" xlink:href="#C1_0_e3872e604b" y="402.797363"/>
    </g>
    <g clip-path="url(#p50741709d4)">
     <use style="fill:#1a1a1a;stroke:#000000;" x="182.555129" xlink:href="#C1_0_e3872e604b" y="399.811317"/>
    </g>
    <g clip-path="url(#p50741709d4)">
     <use style="fill:#1a1a1a;stroke:#000000;" x="183.843992" xlink:href="#C1_0_e3872e604b" y="400.374423"/>
    </g>
    <g clip-path="url(#p50741709d4)">
     <use style="fill:#1a1a1a;stroke:#000000;" x="183.391762" xlink:href="#C1_0_e3872e604b" y="421.294147"/>
    </g>
   </g>
   <g id="PathCollection_3">
    <defs>
     <path d="M 0 3 
C 0.795609 3 1.55874 2.683901 2.12132 2.12132 
C 2.683901 1.55874 3 0.795609 3 -0 
C 3 -0.795609 2.683901 -1.55874 2.12132 -2.12132 
C 1.55874 -2.683901 0.795609 -3 0 -3 
C -0.795609 -3 -1.55874 -2.683901 -2.12132 -2.12132 
C -2.683901 -1.55874 -3 -0.795609 -3 0 
C -3 0.795609 -2.683901 1.55874 -2.12132 2.12132 
C -1.55874 2.683901 -0.795609 3 0 3 
z
" id="C2_0_cf71973397"/>
    </defs>
    <g clip-path="url(#p50741709d4)">
     <use style="fill:#1a1a1a;stroke:#000000;" x="223.680941" xlink:href="#C2_0_cf71973397" y="340.054297"/>
    </g>
    <g clip-path="url(#p50741709d4)">
     <use style="fill:#1a1a1a;stroke:#000000;" x="212.588282" xlink:href="#C2_0_cf71973397" y="358.892832"/>
    </g>
    <g clip-path="url(#p50741709d4)">
     <use style="fill:#1a1a1a;stroke:#000000;" x="219.993198" xlink:href="#C2_0_cf71973397" y="363.842091"/>
    </g>
    <g clip-path="url(#p50741709d4)">
     <use style="fill:#1a1a1a;stroke:#000000;" x="221.438203" xlink:href="#C2_0_cf71973397" y="365.79066"/>
    </g>
    <g clip-path="url(#p50741709d4)">
     <use style="fill:#1a1a1a;stroke:#000000;" x="217.975304" xlink:href="#C2_0_cf71973397" y="341.159619"/>
    </g>
    <g clip-path="url(#p50741709d4)">
     <use style="fill:#1a1a1a;stroke:#000000;" x="220.984065" xlink:href="#C2_0_cf71973397" y="352.534759"/>
    </g>
   </g>
   <g id="PathCollection_4">
    <defs>
     <path d="M 0 3 
C 0.795609 3 1.55874 2.683901 2.12132 2.12132 
C 2.683901 1.55874 3 0.795609 3 -0 
C 3 -0.795609 2.683901 -1.55874 2.12132 -2.12132 
C 1.55874 -2.683901 0.795609 -3 0 -3 
C -0.795609 -3 -1.55874 -2.683901 -2.12132 -2.12132 
C -2.683901 -1.55874 -3 -0.795609 -3 0 
C -3 0.795609 -2.683901 1.55874 -2.12132 2.12132 
C -1.55874 2.683901 -0.795609 3 0 3 
z
" id="C3_0_292fe2878f"/>
    </defs>
    <g clip-path="url(#p50741709d4)">
     <use style="fill:#1a1a1a;stroke:#000000;" x="246.298164" xlink:href="#C3_0_292fe2878f" y="289.29756"/>
    </g>
    <g clip-path="url(#p50741709d4)">
     <use style="fill:#1a1a1a;stroke:#000000;" x="243.264518" xlink:href="#C3_0_292fe2878f" y="293.814781"/>
    </g>
    <g clip-path="url(#p50741709d4)">
     <use style="fill:#1a1a1a;stroke:#000000;" x="250.850019" xlink:href="#C3_0_292fe2878f" y="289.193846"/>
    </g>
    <g clip-path="url(#p50741709d4)">
     <use style="fill:#1a1a1a;stroke:#000000;" x="250.071902" xlink:href="#C3_0_292fe2878f" y="277.091212"/>
    </g>
    <g clip-path="url(#p50741709d4)">
     <use style="fill:#1a1a1a;stroke:#000000;" x="230.259903" xlink:href="#C3_0_292fe2878f" y="290.259518"/>
    </g>
    <g clip-path="url(#p50741709d4)">
     <use style="fill:#1a1a1a;stroke:#000000;" x="233.522839" xlink:href="#C3_0_292fe2878f" y="275.215318"/>
    </g>
   </g>
   <g id="PathCollection_5">
    <defs>
     <path d="M 0 3 
C 0.795609 3 1.55874 2.683901 2.12132 2.12132 
C 2.683901 1.55874 3 0.795609 3 -0 
C 3 -0.795609 2.683901 -1.55874 2.12132 -2.12132 
C 1.55874 -2.683901 0.795609 -3 0 -3 
C -0.795609 -3 -1.55874 -2.683901 -2.12132 -2.12132 
C -2.683901 -1.55874 -3 -0.795609 -3 0 
C -3 0.795609 -2.683901 1.55874 -2.12132 2.12132 
C -1.55874 2.683901 -0.795609 3 0 3 
z
" id="C4_0_69093e37e6"/>
    </defs>
    <g clip-path="url(#p50741709d4)">
     <use style="fill:#1a1a1a;stroke:#000000;" x="214.17471" xlink:href="#C4_0_69093e37e6" y="214.430976"/>
    </g>
    <g clip-path="url(#p50741709d4)">
     <use style="fill:#1a1a1a;stroke:#000000;" x="189.131916" xlink:href="#C4_0_69093e37e6" y="212.622146"/>
    </g>
    <g clip-path="url(#p50741709d4)">
     <use style="fill:#1a1a1a;stroke:#000000;" x="199.486566" xlink:href="#C4_0_69093e37e6" y="210.504028"/>
    </g>
    <g clip-path="url(#p50741709d4)">
     <use style="fill:#1a1a1a;stroke:#000000;" x="199.988439" xlink:href="#C4_0_69093e37e6" y="224.971625"/>
    </g>
    <g clip-path="url(#p50741709d4)">
     <use style="fill:#1a1a1a;stroke:#000000;" x="178.173801" xlink:href="#C4_0_69093e37e6" y="216.388281"/>
    </g>
    <g clip-path="url(#p50741709d4)">
     <use style="fill:#1a1a1a;stroke:#000000;" x="184.820766" xlink:href="#C4_0_69093e37e6" y="210.733732"/>
    </g>
    <g clip-path="url(#p50741709d4)">
     <use style="fill:#1a1a1a;stroke:#000000;" x="182.647231" xlink:href="#C4_0_69093e37e6" y="216.438898"/>
    </g>
    <g clip-path="url(#p50741709d4)">
     <use style="fill:#1a1a1a;stroke:#000000;" x="156.241996" xlink:href="#C4_0_69093e37e6" y="219.96538"/>
    </g>
    <g clip-path="url(#p50741709d4)">
     <use style="fill:#1a1a1a;stroke:#000000;" x="111.250316" xlink:href="#C4_0_69093e37e6" y="231.976368"/>
    </g>
   </g>
   <g id="PathCollection_6">
    <defs>
     <path d="M 0 3 
C 0.795609 3 1.55874 2.683901 2.12132 2.12132 
C 2.683901 1.55874 3 0.795609 3 -0 
C 3 -0.795609 2.683901 -1.55874 2.12132 -2.12132 
C 1.55874 -2.683901 0.795609 -3 0 -3 
C -0.795609 -3 -1.55874 -2.683901 -2.12132 -2.12132 
C -2.683901 -1.55874 -3 -0.795609 -3 0 
C -3 0.795609 -2.683901 1.55874 -2.12132 2.12132 
C -1.55874 2.683901 -0.795609 3 0 3 
z
" id="C5_0_619b746d48"/>
    </defs>
    <g clip-path="url(#p50741709d4)">
     <use style="fill:#8f84ae;stroke:#000000;" x="276.079074" xlink:href="#C5_0_619b746d48" y="174.389362"/>
    </g>
    <g clip-path="url(#p50741709d4)">
     <use style="fill:#8f84ae;stroke:#000000;" x="277.026562" xlink:href="#C5_0_619b746d48" y="176.61915"/>
    </g>
    <g clip-path="url(#p50741709d4)">
     <use style="fill:#8f84ae;stroke:#000000;" x="272.072436" xlink:href="#C5_0_619b746d48" y="162.615793"/>
    </g>
    <g clip-path="url(#p50741709d4)">
     <use style="fill:#8f84ae;stroke:#000000;" x="279.605726" xlink:href="#C5_0_619b746d48" y="155.22423"/>
    </g>
    <g clip-path="url(#p50741709d4)">
     <use style="fill:#8f84ae;stroke:#000000;" x="277.353679" xlink:href="#C5_0_619b746d48" y="163.527123"/>
    </g>
    <g clip-path="url(#p50741709d4)">
     <use style="fill:#8f84ae;stroke:#000000;" x="275.87716" xlink:href="#C5_0_619b746d48" y="170.408644"/>
    </g>
    <g clip-path="url(#p50741709d4)">
     <use style="fill:#8f84ae;stroke:#000000;" x="268.558274" xlink:href="#C5_0_619b746d48" y="150.509674"/>
    </g>
    <g clip-path="url(#p50741709d4)">
     <use style="fill:#8f84ae;stroke:#000000;" x="272.995963" xlink:href="#C5_0_619b746d48" y="158.893554"/>
    </g>
    <g clip-path="url(#p50741709d4)">
     <use style="fill:#8f84ae;stroke:#000000;" x="269.594744" xlink:href="#C5_0_619b746d48" y="155.177403"/>
    </g>
   </g>
   <g id="PathCollection_7">
    <defs>
     <path d="M 0 3 
C 0.795609 3 1.55874 2.683901 2.12132 2.12132 
C 2.683901 1.55874 3 0.795609 3 -0 
C 3 -0.795609 2.683901 -1.55874 2.12132 -2.12132 
C 1.55874 -2.683901 0.795609 -3 0 -3 
C -0.795609 -3 -1.55874 -2.683901 -2.12132 -2.12132 
C -2.683901 -1.55874 -3 -0.795609 -3 0 
C -3 0.795609 -2.683901 1.55874 -2.12132 2.12132 
C -1.55874 2.683901 -0.795609 3 0 3 
z
" id="C6_0_cc19d05858"/>
    </defs>
    <g clip-path="url(#p50741709d4)">
     <use style="fill:#8f84ae;stroke:#000000;" x="271.415274" xlink:href="#C6_0_cc19d05858" y="112.257541"/>
    </g>
    <g clip-path="url(#p50741709d4)">
     <use style="fill:#8f84ae;stroke:#000000;" x="270.521079" xlink:href="#C6_0_cc19d05858" y="114.608957"/>
    </g>
    <g clip-path="url(#p50741709d4)">
     <use style="fill:#8f84ae;stroke:#000000;" x="266.975397" xlink:href="#C6_0_cc19d05858" y="104.792894"/>
    </g>
    <g clip-path="url(#p50741709d4)">
     <use style="fill:#8f84ae;stroke:#000000;" x="271.673898" xlink:href="#C6_0_cc19d05858" y="111.091427"/>
    </g>
    <g clip-path="url(#p50741709d4)">
     <use style="fill:#8f84ae;stroke:#000000;" x="272.150257" xlink:href="#C6_0_cc19d05858" y="86.927336"/>
    </g>
    <g clip-path="url(#p50741709d4)">
     <use style="fill:#8f84ae;stroke:#000000;" x="268.061724" xlink:href="#C6_0_cc19d05858" y="98.445563"/>
    </g>
    <g clip-path="url(#p50741709d4)">
     <use style="fill:#8f84ae;stroke:#000000;" x="271.386674" xlink:href="#C6_0_cc19d05858" y="87.393608"/>
    </g>
    <g clip-path="url(#p50741709d4)">
     <use style="fill:#8f84ae;stroke:#000000;" x="271.905763" xlink:href="#C6_0_cc19d05858" y="99.308916"/>
    </g>
    <g clip-path="url(#p50741709d4)">
     <use style="fill:#8f84ae;stroke:#000000;" x="272.407938" xlink:href="#C6_0_cc19d05858" y="114.899808"/>
    </g>
   </g>
   <g id="PathCollection_8">
    <defs>
     <path d="M 0 3 
C 0.795609 3 1.55874 2.683901 2.12132 2.12132 
C 2.683901 1.55874 3 0.795609 3 -0 
C 3 -0.795609 2.683901 -1.55874 2.12132 -2.12132 
C 1.55874 -2.683901 0.795609 -3 0 -3 
C -0.795609 -3 -1.55874 -2.683901 -2.12132 -2.12132 
C -2.683901 -1.55874 -3 -0.795609 -3 0 
C -3 0.795609 -2.683901 1.55874 -2.12132 2.12132 
C -1.55874 2.683901 -0.795609 3 0 3 
z
" id="C7_0_82206c89e4"/>
    </defs>
    <g clip-path="url(#p50741709d4)">
     <use style="fill:#489e73;stroke:#000000;" x="304.106812" xlink:href="#C7_0_82206c89e4" y="32.055459"/>
    </g>
    <g clip-path="url(#p50741709d4)">
     <use style="fill:#489e73;stroke:#000000;" x="305.630087" xlink:href="#C7_0_82206c89e4" y="46.425259"/>
    </g>
    <g clip-path="url(#p50741709d4)">
     <use style="fill:#489e73;stroke:#000000;" x="305.586976" xlink:href="#C7_0_82206c89e4" y="52.5283"/>
    </g>
    <g clip-path="url(#p50741709d4)">
     <use style="fill:#489e73;stroke:#000000;" x="303.306767" xlink:href="#C7_0_82206c89e4" y="43.104395"/>
    </g>
    <g clip-path="url(#p50741709d4)">
     <use style="fill:#489e73;stroke:#000000;" x="298.623577" xlink:href="#C7_0_82206c89e4" y="38.737941"/>
    </g>
    <g clip-path="url(#p50741709d4)">
     <use style="fill:#489e73;stroke:#000000;" x="301.665134" xlink:href="#C7_0_82206c89e4" y="43.475902"/>
    </g>
    <g clip-path="url(#p50741709d4)">
     <use style="fill:#489e73;stroke:#000000;" x="300.28881" xlink:href="#C7_0_82206c89e4" y="35.943034"/>
    </g>
    <g clip-path="url(#p50741709d4)">
     <use style="fill:#489e73;stroke:#000000;" x="298.215443" xlink:href="#C7_0_82206c89e4" y="26.261363"/>
    </g>
    <g clip-path="url(#p50741709d4)">
     <use style="fill:#489e73;stroke:#000000;" x="295.693933" xlink:href="#C7_0_82206c89e4" y="52.678206"/>
    </g>
   </g>
   <g id="PathCollection_9">
    <defs>
     <path d="M 0 3 
C 0.795609 3 1.55874 2.683901 2.12132 2.12132 
C 2.683901 1.55874 3 0.795609 3 -0 
C 3 -0.795609 2.683901 -1.55874 2.12132 -2.12132 
C 1.55874 -2.683901 0.795609 -3 0 -3 
C -0.795609 -3 -1.55874 -2.683901 -2.12132 -2.12132 
C -2.683901 -1.55874 -3 -0.795609 -3 0 
C -3 0.795609 -2.683901 1.55874 -2.12132 2.12132 
C -1.55874 2.683901 -0.795609 3 0 3 
z
" id="C8_0_5e27299f1c"/>
    </defs>
    <g clip-path="url(#p50741709d4)">
     <use style="fill:#ffffff;stroke:#000000;" x="154.793605" xlink:href="#C8_0_5e27299f1c" y="464.748541"/>
    </g>
    <g clip-path="url(#p50741709d4)">
     <use style="fill:#ffffff;stroke:#000000;" x="149.541027" xlink:href="#C8_0_5e27299f1c" y="463.710744"/>
    </g>
    <g clip-path="url(#p50741709d4)">
     <use style="fill:#ffffff;stroke:#000000;" x="158.90312" xlink:href="#C8_0_5e27299f1c" y="482.06"/>
    </g>
    <g clip-path="url(#p50741709d4)">
     <use style="fill:#ffffff;stroke:#000000;" x="157.139908" xlink:href="#C8_0_5e27299f1c" y="470.808435"/>
    </g>
    <g clip-path="url(#p50741709d4)">
     <use style="fill:#ffffff;stroke:#000000;" x="150.621039" xlink:href="#C8_0_5e27299f1c" y="488.160983"/>
    </g>
    <g clip-path="url(#p50741709d4)">
     <use style="fill:#ffffff;stroke:#000000;" x="155.196847" xlink:href="#C8_0_5e27299f1c" y="477.288929"/>
    </g>
    <g clip-path="url(#p50741709d4)">
     <use style="fill:#ffffff;stroke:#000000;" x="122.615059" xlink:href="#C8_0_5e27299f1c" y="471.766564"/>
    </g>
    <g clip-path="url(#p50741709d4)">
     <use style="fill:#ffffff;stroke:#000000;" x="138.478891" xlink:href="#C8_0_5e27299f1c" y="466.85111"/>
    </g>
    <g clip-path="url(#p50741709d4)">
     <use style="fill:#ffffff;stroke:#000000;" x="-93044.78329" xlink:href="#C8_0_5e27299f1c" y="469.2101"/>
    </g>
   </g>
   <g id="PathCollection_10">
    <defs>
     <path d="M 0 3 
C 0.795609 3 1.55874 2.683901 2.12132 2.12132 
C 2.683901 1.55874 3 0.795609 3 -0 
C 3 -0.795609 2.683901 -1.55874 2.12132 -2.12132 
C 1.55874 -2.683901 0.795609 -3 0 -3 
C -0.795609 -3 -1.55874 -2.683901 -2.12132 -2.12132 
C -2.683901 -1.55874 -3 -0.795609 -3 0 
C -3 0.795609 -2.683901 1.55874 -2.12132 2.12132 
C -1.55874 2.683901 -0.795609 3 0 3 
z
" id="C9_0_2d2c43b58a"/>
    </defs>
    <g clip-path="url(#p50741709d4)">
     <use style="fill:#ffffff;stroke:#000000;" x="168.129675" xlink:href="#C9_0_2d2c43b58a" y="427.977823"/>
    </g>
    <g clip-path="url(#p50741709d4)">
     <use style="fill:#ffffff;stroke:#000000;" x="161.925773" xlink:href="#C9_0_2d2c43b58a" y="399.10628"/>
    </g>
    <g clip-path="url(#p50741709d4)">
     <use style="fill:#ffffff;stroke:#000000;" x="155.321899" xlink:href="#C9_0_2d2c43b58a" y="402.271638"/>
    </g>
    <g clip-path="url(#p50741709d4)">
     <use style="fill:#ffffff;stroke:#000000;" x="162.306839" xlink:href="#C9_0_2d2c43b58a" y="412.037985"/>
    </g>
    <g clip-path="url(#p50741709d4)">
     <use style="fill:#ffffff;stroke:#000000;" x="164.276932" xlink:href="#C9_0_2d2c43b58a" y="403.289557"/>
    </g>
    <g clip-path="url(#p50741709d4)">
     <use style="fill:#ffffff;stroke:#000000;" x="156.969528" xlink:href="#C9_0_2d2c43b58a" y="401.358434"/>
    </g>
    <g clip-path="url(#p50741709d4)">
     <use style="fill:#ffffff;stroke:#000000;" x="150.508918" xlink:href="#C9_0_2d2c43b58a" y="407.533453"/>
    </g>
    <g clip-path="url(#p50741709d4)">
     <use style="fill:#ffffff;stroke:#000000;" x="136.84662" xlink:href="#C9_0_2d2c43b58a" y="397.209292"/>
    </g>
    <g clip-path="url(#p50741709d4)">
     <use style="fill:#ffffff;stroke:#000000;" x="147.950718" xlink:href="#C9_0_2d2c43b58a" y="412.063104"/>
    </g>
   </g>
   <g id="PathCollection_11">
    <defs>
     <path d="M 0 3 
C 0.795609 3 1.55874 2.683901 2.12132 2.12132 
C 2.683901 1.55874 3 0.795609 3 -0 
C 3 -0.795609 2.683901 -1.55874 2.12132 -2.12132 
C 1.55874 -2.683901 0.795609 -3 0 -3 
C -0.795609 -3 -1.55874 -2.683901 -2.12132 -2.12132 
C -2.683901 -1.55874 -3 -0.795609 -3 0 
C -3 0.795609 -2.683901 1.55874 -2.12132 2.12132 
C -1.55874 2.683901 -0.795609 3 0 3 
z
" id="Ca_0_a855b8ccce"/>
    </defs>
    <g clip-path="url(#p50741709d4)">
     <use style="fill:#ffffff;stroke:#000000;" x="181.905768" xlink:href="#Ca_0_a855b8ccce" y="355.597082"/>
    </g>
    <g clip-path="url(#p50741709d4)">
     <use style="fill:#ffffff;stroke:#000000;" x="187.606363" xlink:href="#Ca_0_a855b8ccce" y="358.985082"/>
    </g>
    <g clip-path="url(#p50741709d4)">
     <use style="fill:#ffffff;stroke:#000000;" x="181.802454" xlink:href="#Ca_0_a855b8ccce" y="352.480814"/>
    </g>
    <g clip-path="url(#p50741709d4)">
     <use style="fill:#ffffff;stroke:#000000;" x="190.603724" xlink:href="#Ca_0_a855b8ccce" y="359.925671"/>
    </g>
    <g clip-path="url(#p50741709d4)">
     <use style="fill:#ffffff;stroke:#000000;" x="196.75359" xlink:href="#Ca_0_a855b8ccce" y="356.063367"/>
    </g>
    <g clip-path="url(#p50741709d4)">
     <use style="fill:#ffffff;stroke:#000000;" x="186.60408" xlink:href="#Ca_0_a855b8ccce" y="355.301575"/>
    </g>
    <g clip-path="url(#p50741709d4)">
     <use style="fill:#ffffff;stroke:#000000;" x="190.067534" xlink:href="#Ca_0_a855b8ccce" y="343.522141"/>
    </g>
    <g clip-path="url(#p50741709d4)">
     <use style="fill:#ffffff;stroke:#000000;" x="190.218756" xlink:href="#Ca_0_a855b8ccce" y="360.887673"/>
    </g>
    <g clip-path="url(#p50741709d4)">
     <use style="fill:#ffffff;stroke:#000000;" x="188.19743" xlink:href="#Ca_0_a855b8ccce" y="342.796202"/>
    </g>
   </g>
   <g id="PathCollection_12">
    <defs>
     <path d="M 0 3 
C 0.795609 3 1.55874 2.683901 2.12132 2.12132 
C 2.683901 1.55874 3 0.795609 3 -0 
C 3 -0.795609 2.683901 -1.55874 2.12132 -2.12132 
C 1.55874 -2.683901 0.795609 -3 0 -3 
C -0.795609 -3 -1.55874 -2.683901 -2.12132 -2.12132 
C -2.683901 -1.55874 -3 -0.795609 -3 0 
C -3 0.795609 -2.683901 1.55874 -2.12132 2.12132 
C -1.55874 2.683901 -0.795609 3 0 3 
z
" id="Cb_0_fb2ba6829a"/>
    </defs>
    <g clip-path="url(#p50741709d4)">
     <use style="fill:#ffffff;stroke:#000000;" x="155.210336" xlink:href="#Cb_0_fb2ba6829a" y="293.884699"/>
    </g>
    <g clip-path="url(#p50741709d4)">
     <use style="fill:#ffffff;stroke:#000000;" x="156.674481" xlink:href="#Cb_0_fb2ba6829a" y="283.449074"/>
    </g>
    <g clip-path="url(#p50741709d4)">
     <use style="fill:#ffffff;stroke:#000000;" x="145.115142" xlink:href="#Cb_0_fb2ba6829a" y="293.802754"/>
    </g>
    <g clip-path="url(#p50741709d4)">
     <use style="fill:#ffffff;stroke:#000000;" x="166.017863" xlink:href="#Cb_0_fb2ba6829a" y="296.350882"/>
    </g>
    <g clip-path="url(#p50741709d4)">
     <use style="fill:#ffffff;stroke:#000000;" x="163.737157" xlink:href="#Cb_0_fb2ba6829a" y="283.473053"/>
    </g>
    <g clip-path="url(#p50741709d4)">
     <use style="fill:#ffffff;stroke:#000000;" x="164.656533" xlink:href="#Cb_0_fb2ba6829a" y="277.925604"/>
    </g>
    <g clip-path="url(#p50741709d4)">
     <use style="fill:#ffffff;stroke:#000000;" x="139.82082" xlink:href="#Cb_0_fb2ba6829a" y="297.884726"/>
    </g>
    <g clip-path="url(#p50741709d4)">
     <use style="fill:#ffffff;stroke:#000000;" x="162.56594" xlink:href="#Cb_0_fb2ba6829a" y="275.655353"/>
    </g>
    <g clip-path="url(#p50741709d4)">
     <use style="fill:#ffffff;stroke:#000000;" x="147.261655" xlink:href="#Cb_0_fb2ba6829a" y="297.966436"/>
    </g>
   </g>
   <g id="PathCollection_13">
    <defs>
     <path d="M 0 3 
C 0.795609 3 1.55874 2.683901 2.12132 2.12132 
C 2.683901 1.55874 3 0.795609 3 -0 
C 3 -0.795609 2.683901 -1.55874 2.12132 -2.12132 
C 1.55874 -2.683901 0.795609 -3 0 -3 
C -0.795609 -3 -1.55874 -2.683901 -2.12132 -2.12132 
C -2.683901 -1.55874 -3 -0.795609 -3 0 
C -3 0.795609 -2.683901 1.55874 -2.12132 2.12132 
C -1.55874 2.683901 -0.795609 3 0 3 
z
" id="Cc_0_bd0c94b2ed"/>
    </defs>
    <g clip-path="url(#p50741709d4)">
     <use style="fill:#ffffff;stroke:#000000;" x="181.045569" xlink:href="#Cc_0_bd0c94b2ed" y="214.093506"/>
    </g>
    <g clip-path="url(#p50741709d4)">
     <use style="fill:#ffffff;stroke:#000000;" x="152.581575" xlink:href="#Cc_0_bd0c94b2ed" y="214.787183"/>
    </g>
    <g clip-path="url(#p50741709d4)">
     <use style="fill:#ffffff;stroke:#000000;" x="157.551464" xlink:href="#Cc_0_bd0c94b2ed" y="216.27455"/>
    </g>
    <g clip-path="url(#p50741709d4)">
     <use style="fill:#ffffff;stroke:#000000;" x="156.790407" xlink:href="#Cc_0_bd0c94b2ed" y="239.485791"/>
    </g>
    <g clip-path="url(#p50741709d4)">
     <use style="fill:#ffffff;stroke:#000000;" x="161.328842" xlink:href="#Cc_0_bd0c94b2ed" y="226.44487"/>
    </g>
    <g clip-path="url(#p50741709d4)">
     <use style="fill:#ffffff;stroke:#000000;" x="159.439581" xlink:href="#Cc_0_bd0c94b2ed" y="235.315387"/>
    </g>
    <g clip-path="url(#p50741709d4)">
     <use style="fill:#ffffff;stroke:#000000;" x="121.985284" xlink:href="#Cc_0_bd0c94b2ed" y="227.897043"/>
    </g>
    <g clip-path="url(#p50741709d4)">
     <use style="fill:#ffffff;stroke:#000000;" x="-93044.78329" xlink:href="#Cc_0_bd0c94b2ed" y="216.4553"/>
    </g>
    <g clip-path="url(#p50741709d4)">
     <use style="fill:#ffffff;stroke:#000000;" x="138.70538" xlink:href="#Cc_0_bd0c94b2ed" y="228.671318"/>
    </g>
   </g>
   <g id="PathCollection_14">
    <defs>
     <path d="M 0 3 
C 0.795609 3 1.55874 2.683901 2.12132 2.12132 
C 2.683901 1.55874 3 0.795609 3 -0 
C 3 -0.795609 2.683901 -1.55874 2.12132 -2.12132 
C 1.55874 -2.683901 0.795609 -3 0 -3 
C -0.795609 -3 -1.55874 -2.683901 -2.12132 -2.12132 
C -2.683901 -1.55874 -3 -0.795609 -3 0 
C -3 0.795609 -2.683901 1.55874 -2.12132 2.12132 
C -1.55874 2.683901 -0.795609 3 0 3 
z
" id="Cd_0_40956cf232"/>
    </defs>
    <g clip-path="url(#p50741709d4)">
     <use style="fill:#ffffff;stroke:#000000;" x="194.79433" xlink:href="#Cd_0_40956cf232" y="148.005049"/>
    </g>
    <g clip-path="url(#p50741709d4)">
     <use style="fill:#ffffff;stroke:#000000;" x="185.200779" xlink:href="#Cd_0_40956cf232" y="156.006727"/>
    </g>
    <g clip-path="url(#p50741709d4)">
     <use style="fill:#ffffff;stroke:#000000;" x="183.261486" xlink:href="#Cd_0_40956cf232" y="147.756696"/>
    </g>
    <g clip-path="url(#p50741709d4)">
     <use style="fill:#ffffff;stroke:#000000;" x="188.029064" xlink:href="#Cd_0_40956cf232" y="166.352729"/>
    </g>
    <g clip-path="url(#p50741709d4)">
     <use style="fill:#ffffff;stroke:#000000;" x="186.370964" xlink:href="#Cd_0_40956cf232" y="160.367041"/>
    </g>
    <g clip-path="url(#p50741709d4)">
     <use style="fill:#ffffff;stroke:#000000;" x="183.028038" xlink:href="#Cd_0_40956cf232" y="154.597895"/>
    </g>
    <g clip-path="url(#p50741709d4)">
     <use style="fill:#ffffff;stroke:#000000;" x="179.616076" xlink:href="#Cd_0_40956cf232" y="173.815531"/>
    </g>
    <g clip-path="url(#p50741709d4)">
     <use style="fill:#ffffff;stroke:#000000;" x="178.994356" xlink:href="#Cd_0_40956cf232" y="169.905645"/>
    </g>
    <g clip-path="url(#p50741709d4)">
     <use style="fill:#ffffff;stroke:#000000;" x="181.410556" xlink:href="#Cd_0_40956cf232" y="152.821937"/>
    </g>
   </g>
   <g id="PathCollection_15">
    <defs>
     <path d="M 0 3 
C 0.795609 3 1.55874 2.683901 2.12132 2.12132 
C 2.683901 1.55874 3 0.795609 3 -0 
C 3 -0.795609 2.683901 -1.55874 2.12132 -2.12132 
C 1.55874 -2.683901 0.795609 -3 0 -3 
C -0.795609 -3 -1.55874 -2.683901 -2.12132 -2.12132 
C -2.683901 -1.55874 -3 -0.795609 -3 0 
C -3 0.795609 -2.683901 1.55874 -2.12132 2.12132 
C -1.55874 2.683901 -0.795609 3 0 3 
z
" id="Ce_0_fb5b16fc5e"/>
    </defs>
    <g clip-path="url(#p50741709d4)">
     <use style="fill:#ffffff;stroke:#000000;" x="159.973876" xlink:href="#Ce_0_fb5b16fc5e" y="85.539702"/>
    </g>
    <g clip-path="url(#p50741709d4)">
     <use style="fill:#ffffff;stroke:#000000;" x="145.056831" xlink:href="#Ce_0_fb5b16fc5e" y="109.359776"/>
    </g>
    <g clip-path="url(#p50741709d4)">
     <use style="fill:#ffffff;stroke:#000000;" x="141.541877" xlink:href="#Ce_0_fb5b16fc5e" y="104.219983"/>
    </g>
    <g clip-path="url(#p50741709d4)">
     <use style="fill:#ffffff;stroke:#000000;" x="158.62578" xlink:href="#Ce_0_fb5b16fc5e" y="112.9867"/>
    </g>
    <g clip-path="url(#p50741709d4)">
     <use style="fill:#ffffff;stroke:#000000;" x="166.219413" xlink:href="#Ce_0_fb5b16fc5e" y="95.518694"/>
    </g>
    <g clip-path="url(#p50741709d4)">
     <use style="fill:#ffffff;stroke:#000000;" x="151.740433" xlink:href="#Ce_0_fb5b16fc5e" y="85.603289"/>
    </g>
    <g clip-path="url(#p50741709d4)">
     <use style="fill:#ffffff;stroke:#000000;" x="144.052953" xlink:href="#Ce_0_fb5b16fc5e" y="103.01729"/>
    </g>
    <g clip-path="url(#p50741709d4)">
     <use style="fill:#ffffff;stroke:#000000;" x="171.938016" xlink:href="#Ce_0_fb5b16fc5e" y="94.464168"/>
    </g>
    <g clip-path="url(#p50741709d4)">
     <use style="fill:#ffffff;stroke:#000000;" x="158.609781" xlink:href="#Ce_0_fb5b16fc5e" y="102.555945"/>
    </g>
   </g>
   <g id="PathCollection_16">
    <defs>
     <path d="M 0 3 
C 0.795609 3 1.55874 2.683901 2.12132 2.12132 
C 2.683901 1.55874 3 0.795609 3 -0 
C 3 -0.795609 2.683901 -1.55874 2.12132 -2.12132 
C 1.55874 -2.683901 0.795609 -3 0 -3 
C -0.795609 -3 -1.55874 -2.683901 -2.12132 -2.12132 
C -2.683901 -1.55874 -3 -0.795609 -3 0 
C -3 0.795609 -2.683901 1.55874 -2.12132 2.12132 
C -1.55874 2.683901 -0.795609 3 0 3 
z
" id="Cf_0_853f040ba2"/>
    </defs>
    <g clip-path="url(#p50741709d4)">
     <use style="fill:#ffffff;stroke:#000000;" x="134.88456" xlink:href="#Cf_0_853f040ba2" y="31.622665"/>
    </g>
    <g clip-path="url(#p50741709d4)">
     <use style="fill:#ffffff;stroke:#000000;" x="153.760818" xlink:href="#Cf_0_853f040ba2" y="50.569654"/>
    </g>
    <g clip-path="url(#p50741709d4)">
     <use style="fill:#ffffff;stroke:#000000;" x="160.386908" xlink:href="#Cf_0_853f040ba2" y="41.593848"/>
    </g>
    <g clip-path="url(#p50741709d4)">
     <use style="fill:#ffffff;stroke:#000000;" x="158.546301" xlink:href="#Cf_0_853f040ba2" y="44.308776"/>
    </g>
    <g clip-path="url(#p50741709d4)">
     <use style="fill:#ffffff;stroke:#000000;" x="153.803129" xlink:href="#Cf_0_853f040ba2" y="44.132919"/>
    </g>
    <g clip-path="url(#p50741709d4)">
     <use style="fill:#ffffff;stroke:#000000;" x="165.803255" xlink:href="#Cf_0_853f040ba2" y="27.410196"/>
    </g>
    <g clip-path="url(#p50741709d4)">
     <use style="fill:#ffffff;stroke:#000000;" x="147.92379" xlink:href="#Cf_0_853f040ba2" y="29.316111"/>
    </g>
    <g clip-path="url(#p50741709d4)">
     <use style="fill:#ffffff;stroke:#000000;" x="136.489272" xlink:href="#Cf_0_853f040ba2" y="38.811927"/>
    </g>
    <g clip-path="url(#p50741709d4)">
     <use style="fill:#ffffff;stroke:#000000;" x="162.584057" xlink:href="#Cf_0_853f040ba2" y="38.797475"/>
    </g>
   </g>
  </g>
 </g>
 <defs>
  <clipPath id="p50741709d4">
   <rect height="498.96" width="279" x="76.2125" y="7.2"/>
  </clipPath>
 </defs>
</svg>
